<svg xmlns="http://www.w3.org/2000/svg" xmlns:xlink="http://www.w3.org/1999/xlink" width="1400" height="980"><path d="M538.4 136.3c-5.3-3.7-2.7-9.8-2.7-9.8s-5.2 6.7-.7 18c3.3 8.4-10 38-10 38l-5.5-3-3.2-3.8-2.6-2.3.2 3-2.2 5.9-4.9.7-3.9-1.2 1.8 2.2 4 5 1.8 5.9s-32 6.6-39.6 1.7c-10.2-6.7-17.9-3.1-17.9-3.1s6.6-1.2 9.1 4.7-38.8 62-38.8 62 13.9-16.6 19.7-18.1c11.5-3.1 10 8.9 10 8.9s1.5-13.8 12.4-17.4c12.3-4 19 12.4 19 12.4s-1.2-14.3 3.1-16.9c13-7.9 26.5 17.2 22.3 1.8-4.2-15.3 12.4-16.5 12.4-16.5l23.3 17.5-7-11.3 10.1 9.1 2.2.2.6-2.3-6-10.5 8.4 7.3-12.3-26.3s4.7-15.8 18.9-8.5c14.2 7.3-7.6-11.1 2.9-22 3.5-3.7 17.4.5 17.4.5s-14.8-10-8.3-21c5.9-9.9 19.8-8.4 19.8-8.4s-12.2-1.1-6.7-11.6c2.8-5.3 22.1-15.3 22.1-15.3s-63.9 28.3-69.2 24.5z"/><linearGradient id="h" x1="1060.57" x2="1065.112" y1="119.756" y2="119.756" gradientTransform="scale(-1 1) rotate(15.676 35.456 -5568.428)" gradientUnits="userSpaceOnUse"><stop offset="0" stop-color="#fad97c"/><stop offset=".119" stop-color="#f9d176"/><stop offset=".308" stop-color="#f5ba64"/><stop offset=".542" stop-color="#ee9547"/><stop offset=".811" stop-color="#e6611f"/><stop offset="1" stop-color="#df3900"/></linearGradient><path fill="url(&quot;#h&quot;)" d="M509.5 184.2s.9 2.5 2.3 2.6c1.4.1 2.4 0 3.3.5 0 0-.6-1.8-1.9-2.4-1.3-.5-2.8-.1-3.7-.7z" class="st68"/><linearGradient id="i" x1="1054.866" x2="1059.406" y1="117.499" y2="117.499" gradientTransform="scale(-1 1) rotate(15.676 35.456 -5568.428)" gradientUnits="userSpaceOnUse"><stop offset="0" stop-color="#fad97c"/><stop offset=".119" stop-color="#f9d176"/><stop offset=".308" stop-color="#f5ba64"/><stop offset=".542" stop-color="#ee9547"/><stop offset=".811" stop-color="#e6611f"/><stop offset="1" stop-color="#df3900"/></linearGradient><path fill="url(&quot;#i&quot;)" d="M514.4 180.5s.9 2.5 2.3 2.6c1.4.1 2.4 0 3.3.5 0 0-.6-1.8-1.9-2.4-1.4-.5-2.8-.1-3.7-.7z" class="st69"/></svg>