<svg xmlns="http://www.w3.org/2000/svg" xmlns:xlink="http://www.w3.org/1999/xlink" width="1400" height="980"><path d="M992.7 293.5c.5-6.3 6.9-7.2 6.9-7.2s-8.2-1-15.5 8.3c-5.4 6.9-37 10.4-37 10.4l-.1-6 1.6-4.6.6-3.3-2.4 1.7-6 1.1-3-3.8-1-3.9-1 2.7-2.3 5.8-4.1 4.4s-21.5-23.7-21.1-32.5c.6-11.9-6.3-16.6-6.3-16.6s4.3 4.9.6 10c-3.7 5.1-71.5-1.8-71.5-1.8s20.8 3.5 25.1 7.6c8.3 8.1-2.5 12.9-2.5 12.9s12.4-5.6 20.8 1.8c9.5 8.4-1 22.2-1 22.2s11.4-8.1 15.8-5.8c13.1 7-1.3 30.8 9.6 19.7 10.8-11.1 20.1 2.2 20.1 2.2l-3.1 28.3 6-11.5-2.7 13.1.9 1.9 2.2-.7 5.8-10.2-2 10.7 16-23.4s15.6-3.9 16.6 11.7c1 15.6 5.5-11.9 20-8.5 4.8 1.2 8.2 14.9 8.2 14.9s1-17.4 13.6-17.4c11.2 0 16.9 12.5 16.9 12.5s-5.1-10.8 6.4-11.4c5.9-.3 23.8 11 23.8 11s-55.4-39.9-54.9-46.3z"/><linearGradient id="f" x1="584.743" x2="589.182" y1="219.387" y2="219.387" gradientTransform="scale(-1 1) rotate(-43.756 -79.976 2156.742)" gradientUnits="userSpaceOnUse"><stop offset="0" stop-color="#fad97c"/><stop offset=".119" stop-color="#f9d176"/><stop offset=".308" stop-color="#f5ba64"/><stop offset=".542" stop-color="#ee9547"/><stop offset=".811" stop-color="#e6611f"/><stop offset="1" stop-color="#df3900"/></linearGradient><path fill="url(&quot;#f&quot;)" d="M938 293s-1.7 2-1.1 3.2c.6 1.3 1.2 2 1.2 3 0 0 1.3-1.4 1.1-2.8-.1-1.3-1.2-2.3-1.2-3.4z" class="st66"/><linearGradient id="g" x1="579.164" x2="583.602" y1="217.181" y2="217.181" gradientTransform="scale(-1 1) rotate(-43.756 -79.976 2156.742)" gradientUnits="userSpaceOnUse"><stop offset="0" stop-color="#fad97c"/><stop offset=".119" stop-color="#f9d176"/><stop offset=".308" stop-color="#f5ba64"/><stop offset=".542" stop-color="#ee9547"/><stop offset=".811" stop-color="#e6611f"/><stop offset="1" stop-color="#df3900"/></linearGradient><path fill="url(&quot;#g&quot;)" d="M943.6 295.3s-1.7 2-1.1 3.2c.6 1.3 1.2 2 1.2 3 0 0 1.3-1.4 1.1-2.8-.2-1.3-1.2-2.4-1.2-3.4z" class="st67"/></svg>