<svg id="master-artboard" viewBox="0 0 196.01467895507812 164.841064453125" version="1.1" xmlns="http://www.w3.org/2000/svg" x="0px" y="0px" style="enable-background:new 0 0 1400 980;" width="196.01467895507812px" height="164.841064453125px"><rect id="ee-background" x="0" y="0" style="fill: white; fill-opacity: 0; pointer-events: none;"/>

<linearGradient id="SVGID_1_" gradientUnits="userSpaceOnUse" x1="233.3421" y1="101.6689" x2="233.3421" y2="5.123679e-04">
		<stop offset="0" style="stop-color:#FFFFFF"/>
		<stop offset="0.9939" style="stop-color:#FFFFFF;stop-opacity:0"/>
	</linearGradient><linearGradient id="SVGID_2_" gradientUnits="userSpaceOnUse" x1="233.3247" y1="156.5293" x2="233.3247" y2="101.2803">
		<stop offset="0" style="stop-color:#FFFFFF"/>
		<stop offset="0.7" style="stop-color:#FFFFFF;stop-opacity:0"/>
	</linearGradient>
<linearGradient id="SVGID_3_" gradientUnits="userSpaceOnUse" x1="699.9597" y1="101.6689" x2="699.9597" y2="5.123679e-04">
		<stop offset="0" style="stop-color:#FFFFFF"/>
		<stop offset="0.9939" style="stop-color:#FFFFFF;stop-opacity:0"/>
	</linearGradient><linearGradient id="SVGID_4_" gradientUnits="userSpaceOnUse" x1="699.9424" y1="156.5293" x2="699.9424" y2="101.2803">
		<stop offset="0" style="stop-color:#FFFFFF"/>
		<stop offset="0.7" style="stop-color:#FFFFFF;stop-opacity:0"/>
	</linearGradient>
<linearGradient id="SVGID_5_" gradientUnits="userSpaceOnUse" x1="1166.6262" y1="101.6689" x2="1166.6262" y2="5.123679e-04">
		<stop offset="0" style="stop-color:#FFFFFF"/>
		<stop offset="0.9939" style="stop-color:#FFFFFF;stop-opacity:0"/>
	</linearGradient><linearGradient id="SVGID_6_" gradientUnits="userSpaceOnUse" x1="1166.6089" y1="156.5293" x2="1166.6089" y2="101.2803">
		<stop offset="0" style="stop-color:#FFFFFF"/>
		<stop offset="0.7" style="stop-color:#FFFFFF;stop-opacity:0"/>
	</linearGradient>


<linearGradient id="SVGID_10_" gradientUnits="userSpaceOnUse" x1="564.6562" y1="809.1113" x2="564.6562" y2="636.4912">
		<stop offset="0" style="stop-color:#FFFFFF"/>
		<stop offset="1" style="stop-color:#FFFFFF;stop-opacity:0"/>
	</linearGradient>
<linearGradient id="SVGID_11_" gradientUnits="userSpaceOnUse" x1="911.7189" y1="627.8477" x2="911.7189" y2="940.1172">
		<stop offset="0" style="stop-color:#ED1C24"/>
		<stop offset="0.2058" style="stop-color:#E41B23"/>
		<stop offset="0.5413" style="stop-color:#D1181F"/>
		<stop offset="0.9627" style="stop-color:#B41217"/>
		<stop offset="1" style="stop-color:#B11116"/>
	</linearGradient><linearGradient id="SVGID_12_" gradientUnits="userSpaceOnUse" x1="911.8776" y1="872.8066" x2="911.8776" y2="630.2969">
		<stop offset="0" style="stop-color:#FFFFFF"/>
		<stop offset="1" style="stop-color:#FFFFFF;stop-opacity:0"/>
	</linearGradient>
<linearGradient id="SVGID_13_" gradientUnits="userSpaceOnUse" x1="211.9754" y1="642.1528" x2="211.9754" y2="925.8127">
		<stop offset="0" style="stop-color:#ED1C24"/>
		<stop offset="0.2058" style="stop-color:#E41B23"/>
		<stop offset="0.5413" style="stop-color:#D1181F"/>
		<stop offset="0.9627" style="stop-color:#B41217"/>
		<stop offset="1" style="stop-color:#B11116"/>
	</linearGradient><path class="st9" d="M48.1,647.9c2.4,7.9,9.4,13.7,11.8,21.7c0.7,2.5-0.4,5.6,0.7,8.1c1.8,3.9,5.7,4.9,8.6,8&#10;&#9;&#9;c3.5,3.8,4.5,9.8,7.6,14.6c1.6,2.6,4.5,4,6.1,6.3c9.2,13.2,12.3,30.8,20.9,42.4c-1.3,4.2,1.7,9.2-2.7,13c-2.4-1.9-6.7-3.1-7.1-5.9&#10;&#9;&#9;c-4.2,7.8-10.5,11.1-18.2,10.8c-6.1-5.2-14.7-14.5-23-15.2c-3.4,6.4,4.4,8.3,8.2,11c9.3,6.7,20.2,16.8,14.6,26.7&#10;&#9;&#9;c1,2,3.5,0.6,6.1,2.4c1.6,4.3-3.4,10.2-6.4,12.3c-10,7.2-29.8-3.3-32.7,9.9c12.2,14.9,28-8.1,44,3.1c2.8,5.7,4.6,15.3-4.7,16.1&#10;&#9;&#9;c-1.6,3.7,4.8,3.9,3.3,7.5c0,2.9-2.4,0.6-2.7,2.9c1,0.5,2.4,0.8,1.5,2.1c-1.9,9.8-13.5,21.6-4.5,25.5c4.4-4,5.4-15.8,14.1-10.1&#10;&#9;&#9;c1.2,8.4-6.9,12.7-9.5,20.5c-2.7,2.9-12.2,9.8-7.1,14.4c11.7-6.2,15.9-29.4,29.8-30.5c2.8,5.9,1.7,18.8-0.1,26.5&#10;&#9;&#9;c-1.5,6.5-12.9,23.5-5.9,31.2c6.9,7.7,17.5-4.5,19.2-11.3c2.8-10.9-10.3-22.1-7.1-33.9c0.8-3,3.5-8.8,6.1-11.7&#10;&#9;&#9;c2.6-2.8,12.6-9.4,18.2-10.8c6.7-1.7,11.6-2.9,18.6,0.2c9.8,11.2,21.1,19.6,25.3,33.2c1.5,4.9-0.1,12.5,7.2,13.7&#10;&#9;&#9;c4.1-4,0.5-9.1-2.4-11.9c-1.8-7.6-4.3-14.9-7.9-21.8c0.4-2.8,1.2-5.8,2.7-9.1c3.5-1.7,7.2-3.2,9.4-8c1.5-0.7,2.6,1.7,5.4,2.1&#10;&#9;&#9;c1.9-0.7,2.9-3.7,5.2-3.4c11.3,2.5,18.6,7.9,28.9,12c9.3,3.7,11.9,12,19.5,16.1c8.2,4.5,11.2,7.9,18.2,9.4c3.7-1.6,4.3-5.2,3.4-8.8&#10;&#9;&#9;c-9.9-6.4-11.3-15.6-22.6-18.1c-2.6-0.6-5.6,0.7-8.5-0.2c-8.9-2.9-16.2-12-25.7-16.2c0.3-5.6-4.7-8.8-8.4-12.6&#10;&#9;&#9;c1.3-2.1,2.9-1.5,2.5-4.5c-0.7-1.7-3.8-2.4-3.7-4.6c1.7-0.8,1.6-5.8,4.6-3.7c1.7-2.3-2.8-2.8,0-3.9c7.8-3.8,16.5,9.1,23.2,4.4&#10;&#9;&#9;c-0.2-9.7-19.4-4.4-19.8-13.2c3-0.8,7.8,2.4,9.3-1.8c-5-2.7-10.1,1.2-15.4-0.5c-3.1-1-5.5-4.2-8.7-5.7c-1.2-0.6-8.6-0.4-7.6-4.5&#10;&#9;&#9;c1.3,0.3,2.6,3.2,4.1,1.6c-1.8-1.3-4.7-2.1-4.6-4.1c4.2-4.4,10.3-4.7,16.1-5.4c21.3-12,44.5-19.6,68-26.6c0.7,0.3,0.6,0.9,1.1,1.2&#10;&#9;&#9;c-0.4,0.9-0.3,1.6-0.1,2.3c3.2,1.2-0.2-1.9,0.4-3c9-7.4,21.1-6.8,32.4-9.2c12.1-2.5,25.4-10.5,37.8-14.9c9.2-3.3,18-7.7,26.7-10.7&#10;&#9;&#9;c3.9-1.3,10.8-0.2,9.1-7.4c-4.8-2.9-8.7,1.9-12.4,3.8c-19.5,9.7-41.8,12.4-60.5,23.3c-11.4,4.3-23.3,6-35,9.8&#10;&#9;&#9;c-6.7,2.2-12.8,6-19.5,8c-10.3,3-20.9,4.7-29.9,8.7c-8.5,3.7-26.3,14.9-32.9,4.4c7.7-10.9,6.2-27.9,18.7-34.1c-3.5-0.8-3,1.8-6.6-1&#10;&#9;&#9;c-4.7,2.9-7.6,10-13,11.3c-2.1-3.2-8.9-4.3-10.2-7.9c9.8-7.8,20.6-21.8,22.7-36.4c-6.8,5.5-10.1,22.8-18.6,27.9&#10;&#9;&#9;c-1.2-1.1-1.6-2.6-4.2-3.2c-7.4,3.9-13.5,10.9-22.4,11.6c-0.8-1.8,0.8-2.6,1.6-4.1c-1.9-1.4-1.8,1.9-3.5,1c1.3-6.8-2-14.5-1.4-22.4&#10;&#9;&#9;c0.6-7.8,5.7-16.9-0.5-22.8c-7.3,4.8-1.6,16.2-3.5,25.1c-0.4,1.9-2.1,3.2-2.8,5.2c-1.7,5-0.5,12.8-5.8,14.9&#10;&#9;&#9;c-3.9-6.6-10.3-12.9-12.3-20.4c-0.8-2.7,0.6-7.4-3.1-8.2c1.8,10.3,1.9,21.2,5.2,30.9c-8.4,13.2-18.4,3.5-24.6-4.9&#10;&#9;&#9;c-2.4-3.2-5.3-5.5-6.5-7.2c-2.1-2.9-2.4-7.8-4.3-11c-3.2-5.7-7.5-10.1-8.5-14.2c-0.6-2.5,0.5-5.3-0.1-7.8&#10;&#9;&#9;c-0.7-3.3-4.1-6.9-5.9-10.9c-2.1-4.7-2.8-10.2-4.9-13.6c-1.7-2.7-4.9-4-6.8-6.5c-6.2-8.5-8.8-19.6-16-24.9&#10;&#9;&#9;C50.8,642.1,49,644.1,48.1,647.9" style="fill: url('#SVGID_13_');" transform="matrix(0.5433041453361511, 0, 0, 0.5433041453361511, -17.953067302703857, -347.59967041015625)"/><linearGradient id="SVGID_14_" gradientUnits="userSpaceOnUse" x1="44.3262" y1="735.1477" x2="379.769" y2="735.1477">
		<stop offset="0" style="stop-color:#FFFFFF"/>
		<stop offset="1" style="stop-color:#FFFFFF;stop-opacity:0"/>
	</linearGradient>
<linearGradient id="SVGID_15_" gradientUnits="userSpaceOnUse" x1="1232.1123" y1="611.2681" x2="1232.1123" y2="956.6968">
		<stop offset="0" style="stop-color:#ED1C24"/>
		<stop offset="0.2058" style="stop-color:#E41B23"/>
		<stop offset="0.5413" style="stop-color:#D1181F"/>
		<stop offset="0.9627" style="stop-color:#B41217"/>
		<stop offset="1" style="stop-color:#B11116"/>
	</linearGradient><linearGradient id="SVGID_16_" gradientUnits="userSpaceOnUse" x1="1232.6274" y1="612.9478" x2="1232.6274" y2="820.8979">
		<stop offset="0" style="stop-color:#FFFFFF;stop-opacity:0"/>
		<stop offset="1" style="stop-color:#FFFFFF"/>
	</linearGradient>
</svg>