 <!-- <svg xmlns="http://www.w3.org/2000/svg" width="500" height="500">
    <defs>
        <filter id="filter" x="0%" y="0%" width="140%" height="140%" filterUnits="objectBoundingBox" primitiveUnits="userSpaceOnUse" color-interpolation-filters="linearRGB">
	        <feTurbulence type="turbulence" baseFrequency="0.024 0.064" numOctaves="2" seed="2" stitchTiles="noStitch" result="turbulence"/>
	        <feDisplacementMap in="SourceGraphic" in2="turbulence" scale="199" xChannelSelector="B" yChannelSelector="B" result="displacementMap"/>
        </filter>
    </defs>
    <rect
        fill="#1a1a1a"
        filter="url(#filter)"
        width="100%"
        height="100%"
        x="0"
        y="0"
    />
</svg> -->

<svg xmlns="http://www.w3.org/2000/svg"  width="800" height="600" version="1" viewBox="0 0 700 400"><path d="M642 28c-.8.6-2.5 1-3.6 1-3.6 0-12.8 4.2-15.1 6.8-1.9 2.3-3 2.6-9.5 2.7-6.7.2-15.7 2.4-18.2 4.7-1.4 1.2-7.9 1-7.1-.2.4-.7-.2-.7-1.7-.1-2.3 1-8.9 2-16.3 2.7-2.2.1-6.6.5-9.9.8-5 .4-6.6.1-10.7-2.1l-4.8-2.6-2.5 2.4c-1.5 1.4-2.6 3.5-2.6 5.1 0 5-1.7 7.6-5.5 8.7-2 .5-4.3 1.8-5.3 2.9-1.3 1.4-4.1 2.2-11.2 3.1-5.3.7-10.2 1.8-11.1 2.6-.8.8-1.9 1.5-2.3 1.5-.4 0-2.6.9-4.9 1.9-2.4 1.1-5.6 2.3-7.2 2.7-1.7.4-3.8 1.4-4.8 2.3-1.7 1.5-2 1.4-3.4-.4-.8-1.1-1.7-1.5-1.9-1-.2.6-2.9 1-6 .8-4.4-.1-6.2-.7-8.3-2.6-1.8-1.7-4.3-2.7-8.1-3.1-3-.4-5.7-.6-6-.5-.3.1-1.5-.3-2.7-.9-1.3-.7-2.4-.8-2.8-.3-1.4 2.4-13.1-.4-19.9-4.7-2.8-1.8-6.3-3.2-8-3.2-1.6 0-4.5-.5-6.3-1.2-2.9-1-3.6-1-4.4.2-.8 1.3-1 1.3-1.8.1s-1.2-1.2-2.6.2c-.9 1-3.2 1.7-5 1.7-2.7 0-3.4-.4-3.7-2.3-.2-1.3-1.5-2.8-3.5-3.7-1.9-.9-3.3-2.3-3.3-3.3 0-1.8-.1-1.8-2.7.1-1.6 1-4.4 2.6-6.3 3.6-1.9.9-4.2 2-5 2.5-2 1.1-11.5 4.1-13 4.1-.6 0-1.8.6-2.5 1.4-2 1.9-7.8 1.2-13.9-1.8-2.9-1.4-5.6-2.6-5.9-2.6-.4 0-3.4-2.1-6.7-4.6-6.2-4.9-8.4-5.2-9.9-1.2-1.3 3.4-14.7 11-32.1 18.3-3.6 1.5-8.4 3.8-10.7 5.1l-4.2 2.4-6-2c-3.3-1.1-7.1-2-8.5-2-1.4 0-2.7-.4-3-.9-.3-.5-1.5-.7-2.6-.4-1.1.3-3.1-.2-4.5-1.1-2.2-1.5-10.2-3-21.8-4.2-4.4-.4-5-.2-8 2.9-2.6 2.8-4 3.5-7.5 3.6-2.4 0-5.7-.6-7.3-1.5-3.9-1.9-12.5-3.4-24.3-3.9-14.1-.7-15.9-1.4-23.1-9-4.8-5-6.9-6.6-8.7-6.4-2.4.3-8-2.2-11-4.9-1.5-1.2-2.7-1.3-7.7-.3-4.1.8-7.2.9-10.3.2-2.7-.6-5.7-.7-7.6-.2-1.7.5-3.3.7-3.6.3-.3-.3-.6-.1-.6.5 0 1.1-16 1-17.8-.1-.6-.4-3.5-.9-6.4-1.2-2.9-.2-6.2-.5-7.4-.7-1.4-.1-3.8 1.8-7.7 6.3C64 61.7 61 68.2 61 75.8c0 3.4-1 9-2.2 12.8-1.2 3.8-2.2 9.7-2.3 13.1 0 3.4-.4 6.5-.7 6.9-.4.3-.4 1.2-.1 2 .3.8-.2 2.2-1 3.2-3.5 3.9-6.6 11.9-7.2 18.7-1.1 13.5-1.4 15-2.9 18.7-.9 2.2-1.6 6.6-1.6 10.7 0 3.8-.6 8-1.3 9.4-1.7 3.2-2.3 31.1-.7 35.1.5 1.5.7 3.2.4 3.8-.4.6-.8 3.6-1 6.7-.7 12.6-1.3 18-2.2 19.8-.5 1-1 4.9-1.1 8.7-.1 3.8-.6 7.6-1 8.5-.5.9-.7 5.1-.6 9.3.2 5.9.7 8.3 2.3 10.3 2.7 3.3 3.4 9.5 3.7 30 .2 18.3.9 21.3 5.6 27.9 1.6 2.2 2.9 4.5 2.9 5.1 0 .5.9 2.7 2 4.9 1.6 2.9 1.9 4.8 1.5 8.1-.4 2.3-.1 7.6.6 11.6 1.3 7.2 1.8 16.8 1.8 31.4v13.2c-.1 5.9 2 11.3 4.2 11.3.8 0 5.8 8.9 6 10.7.2 1.1.9 3.2 2.3 7.2 1.7 4.5 7.5 6.7 11.8 4.5 1.6-.8 5.7-1.9 9.1-2.3 3.4-.5 9.1-1.6 12.7-2.4 8.9-2.2 25.6-3.8 43.5-4 16.7-.2 17.8-.1 25.5 3.8 4.9 2.5 6.8 2.8 17 3.1 7.7.1 13.2-.3 16.8-1.2 5.5-1.5 12.1-.9 22 2.3 2.3.7 6.5 1.3 9.2 1.3 2.8 0 5.8.4 6.8.9 12.4 6 21.2 9.3 23.8 8.8 1.3-.2 2.9.2 3.5.9.6.8 1.8 1.4 2.5 1.4.8 0 2.2.4 3.2.9.9.5 4.2 2.1 7.2 3.7 7.3 3.6 13.7 7.3 18.8 10.6 4.6 3.1 10.1 4.5 18.1 4.7 4.9.1 7.1-.7 22.5-8.2 16.1-7.9 17.6-8.4 25.1-9 6.1-.4 9.5-1.2 14.5-3.6 3.6-1.7 7.6-3.1 9-3.1 1.4 0 5.4-1.4 8.8-3.1 5.7-2.7 6.9-3 11.5-2.3 2.9.5 8.8.9 13.2.9 9.2.2 19.6 1.7 24 3.6 2.5 1 12.9 1.7 33.5 2 9 .2 41.9-2 45-3 1.9-.6 5-1.1 6.9-1.1 1.8 0 4.9-.9 6.7-2.1 4-2.4 9.4-4.1 9.4-2.9 0 .5 1.7 1.4 3.8 2.1 2 .6 4.2 1.4 4.7 1.8.6.3 1.8.7 2.9.8 1 .2 3.3.9 5 1.7 1.7.7 4.7 1.9 6.6 2.6 1.9.6 4.6 1.8 6 2.5 1.4.7 7.6 2.7 13.8 4.4 10.3 2.9 11.8 3 19 2.2 6.6-.8 9.7-1.9 21.9-8 14.9-7.5 18.3-10.5 18.3-16.6 0-1.5.8-3.9 1.9-5.3 1.8-2.6 3.8-17.1 3.2-22.9-.1-1.2.3-4.1 1-6.5.6-2.4 1.1-6 1-8.1 0-2.1.3-4.7.9-5.6.5-1 2.3-6.9 3.9-13.2 1.6-6.3 3.7-13.1 4.5-15.1 1.1-2.6 1.6-7.5 1.7-16.5.1-7 .6-13.6 1.1-14.5.8-1.6 1.5-15.7 1.9-39.3.1-4.8-.5-10.2-1.4-13.5-1.2-3.8-1.7-10.4-1.9-21.8-.1-9-.5-16.5-.8-16.7-.3-.2-.4-10.8-.3-23.7.4-34.1.2-44.6-.9-46.4-.4-.6-1-4.6-1.4-9-.3-4.3-1.3-9.4-2-11.2-1.5-3.8-2.6-13.3-2.5-21.1.2-6.6-1.6-20.1-3.4-25.6-.9-2.9-1.1-8.3-.8-19.5.4-13 .2-17.3-1.5-26-3-15.1-3.3-17.8-2.2-18.5 1.2-.7 1.4-2.6.3-2.3-.5.1-2.2-.5-3.9-1.5-1.7-.9-3.4-1.3-3.7-1-.4.3-1.2.1-2-.5-.8-.7-1.8-.7-2.7-.2z"/></svg>