<svg xmlns="http://www.w3.org/2000/svg" width="500" height="305"><g fill="none" fill-rule="evenodd"><path fill="#EAEAEA" d="M58.754 103.943c-1.405-.257-8.196-.858-9.192.344-1.346 1.63.235 8.15 1.113 9.609 1.463 2.402 3.98 3.089 6.674 3.346.76 4.462-5.679 6.178-7.67 8.237-2.458 2.574-1.58 4.461-.41 7.293-1.99 1.801-4.858 1.716-6.614 3.603-2.869 3.175.175 3.775 2.692 5.234 2.4 1.373 4.098 2.574 3.747 5.748-.351 2.918-3.922 5.148-3.864 8.495 0 3.346 3.045 5.748 3.864 8.408 1.64 5.32-.702 5.748-3.805 7.722-2.81 1.716-2.986 3.346-3.98 6.435-.762 2.488.526 1.716-1.289 3.689-1.463 1.63-3.161 1.201-3.63 4.118 1.757.343 3.513.086 4.625 2.231 1.113 2.145-.76 5.491.469 7.464 1.23 1.974 4.273.172 5.268 3.432 1.171 3.776-1.405 5.835-3.102 8.065-3.923 5.234-.761 11.755-3.688 16.645-1.698 2.832-7.728 7.55-7.962 10.64 2.166.772 4.508-.344 6.674.257 1.17.343 1.346 1.373 2.517 1.716 1.873.686 2.225-.515 3.805 1.458 2.108 2.66 1.464 6.607 1.58 9.781.118 3.26 1.289 6.178 1.581 9.438 7.552 1.03 11.826 7.894 6.557 16.045-1.698 2.66-16.216 20.505-6.79 21.45 3.22.342 5.56-3.09 8.078-4.891 3.278-2.317 5.971-.515 9.484-1.545 1.756-.514 1.815-1.973 3.922-1.801 1.99.171 3.278 1.973 5.444 1.801 3.806-.257 5.855-4.032 7.67-7.636 2.634 3.003 2.107 4.633 5.678 6.35 3.161 1.544 6.088.428 9.191 1.458.176.858.293 1.802.468 2.66 5.972 1.973 8.489-6.864 13.582-3.432 2.107 1.458 3.454 3.174 6.44 2.145 1.287-.43 1.405-1.459 2.575-2.145 1.99-1.287 3.279-1.03 5.445-1.201 3.805-.172 4.742 2.402 8.078 3.346 1.874.515 4.977-.772 6.44-2.06 3.513-3.174 8.84-8.322 13.757-5.834 2.4 1.201 2.81 5.148 4.332 7.379 1.464 2.145 3.22 5.577 4.976 6.95 1.171.858 5.445 3.174 6.733 3.346 4.507.6 2.576-5.234 5.327-6.693 2.049-1.115 5.152.515 6.79 1.716.645.515 1.699 1.63 2.343 2.06 1.756 1.115 2.341.686 4.39 1.115 3.161.6 13.348 7.893 15.63 1.373-1.229-2.574-8.898-6.006-8.37-9.01.585-3.431 6.79-1.972 8.84-1.972 3.394 0 7.141.514 10.42-.344 1.522-.429 1.931-2.23 4.039-.943 1.288.772 1.288 2.574 2.868 3.003 2.108.6 3.513-1.545 5.445-1.888 2.81-.429 3.161 2.06 5.386 3.089 3.336 1.544 7.551-1.116 10.83.171 1.405.515 2.634 2.488 3.98 3.432 1.406.944 2.225 1.716 3.981 1.63 2.869 0 2.166-.429 3.045-3.26 1.229-3.775-.293-4.204-1.23-7.893 4.274-1.545 8.489.943 12.704 1.458 3.63.43 10.245-1.973 13.406.258 2.517 1.801 3.63 5.576 6.908 6.263 2.049.429 3.278-1.544 5.151-1.459.293.858.878 1.287 1.581 1.459 1.756.171 1.756-.43 3.044-1.287 3.688-2.488 4.742-5.491 9.133-5.32 2.575.086 3.102.172 5.385 1.63 2.518 1.63 4.098.859 6.733 1.974 1.463.6 2.517 2.917 3.922 3.089 1.288.171 3.864-1.63 5.152-2.145 1.58-.687 2.166-2.145 4.39-.944 2.05 1.115 2.752 4.204 4.332 6.006 3.513-2.66 7.786-4.462 11.767-6.692.82-.687 1.757-1.116 2.752-1.373 1.405 0 1.112 2.23 2.634 1.63 3.688-1.459-1.112-6.35 3.688-6.006.937.086 4.86 2.402 5.737 3.26 1.58 1.459 2.46 4.634 4.215 5.749 2.283 1.458 3.747-.515 5.386-.944 3.922-.858 4.39 2.917 7.786 3.089 4.918.257 8.43-9.009 13.465-9.953 2.458-.429 4.332-.429 6.732-1.201 2.517-.772 6.147-1.115 8.137 1.115 1.522 1.716 1.874 6.779 5.035 4.72 2.107-1.373 2.751-8.237 6.088-5.149 1.698 1.63.293 4.805 3.337 3.432 2.166-1.03 1.932-5.405 4.04-6.091 1.229 5.834 3.863 4.804 8.37 4.719 2.577-.086 7.494 3.689 9.485.6-.82 3.861 2.4 3.346 3.98 4.204 1.99 1.03 3.923 3.003 6.44 1.373 1.522-1.03 2.752-3.775 4.625-4.204 2.693-.6 4.39 1.802 6.732 2.574 1.64.515 6.264 1.287 7.845.515 2.634-1.373 1.112-5.663.234-8.237-.761-2.145-2.225-4.719-2.693-6.778-.761-3.003.058-6.263-.293-9.352-.351-3.346-1.99-3.518-2.751-6.35-1.347-4.804 2.283-6.606 4.215-9.78 5.386-9.01-6.44-9.438-4.274-16.302.644-1.973 5.152-3.69 6.908-4.805 2.108-1.2 4.274-1.716 5.035-4.804 1.17-4.72-.059-4.805 3.98-6.864 1.932-1.03 5.972-4.29 5.562-7.379-1.815-.257-3.571-1.115-5.269-1.888-.878-.429-4.742-1.115-5.151-1.887-.937-1.716 1.053-8.923 2.224-9.867-2.224-4.461-2.283-10.124-4.742-14.5-1.756-3.089-4.098-4.29-7.142-4.461-3.278-.258-6.673 1.887-6.79-3.175-.06-5.148 5.678-8.237 6.849-12.87.702-2.66-.117-6.95-.059-9.78 0-1.202.469-3.433-.175-4.548-1.054-1.716-2.869-1.544-3.864-3.518-1.347-2.66-1.288-5.32-2.986-7.722-.527-.772-1.346-1.887-1.99-2.488-.703-.6-2.225-.944-2.752-1.544-2.693-3.175-.292-1.974.82-4.805 1.405-3.86-3.805-6.35-2.517-11.068.878-3.175 4.156-3.346 5.21-6.35.82-2.316.41-7.893-1.405-9.523-1.522-1.287-6.264-.257-8.079-.257-3.688 0-8.02.686-11.533-.343-1.99-.6-4.39-2.145-7.025-1.373-2.458.686-3.22 3.69-5.268 5.405-5.21 4.204-12.001 3.604-17.563 1.201-2.283-.943-4.39-.858-6.732-1.458-1.23-.343-1.347-1.459-2.517-1.802-1.171-.343-2.869.086-4.098.086-6.381-.086-8.664 5.577-13.055 10.124-5.21 5.32-10.128 4.033-16.509 4.462-2.224.171-1.99.343-3.746 1.63-.176.429-.41.858-.586 1.287-.76.257-1.58.515-2.342.6-2.927 2.317-5.034 3.175-8.078 4.462-4.215 1.802-11.24 3.346-15.163.515-3.22-2.403-12.235-9.867-15.513-5.32a26.889 26.889 0 0 1-.527 3.003c-.527.858-1.463 1.63-2.049 2.317-1.463 1.716-2.166 2.316-4.04 3.26-1.873.944-3.278 1.03-5.385 1.544-1.873.515-2.927 1.888-5.444.944.41-5.748-5.972-1.63-8.313-1.373-5.093.687-6.44 3.003-10.772-1.63-1.405-1.544-2.81-3.174-4.332-4.461-1.932-1.545-3.161-1.287-5.152-1.974-1.288-.429-2.693-1.115-3.98-1.63-.527-.257-3.572-1.802-4.04-1.802-1.112 0-2.634 1.63-3.98 1.802-1.406.258-4.099.43-5.445-.257-1.932-1.03-2.05-3.775-3.63-5.062-1.463-1.202-2.693-.515-4.156-1.459-.995-.686-1.58-2.574-2.576-3.346-1.464-1.201-2.342-1.03-4.098-1.544-3.278-.944-5.561-3.776-9.484-2.66-.117 1.973-.995 3.518-1.23 4.976-.35 2.06.235 4.547-1.521 5.834-2.05 1.545-8.43.43-10.83.258-3.864-.258-7.025-3.432-10.772-4.548-1.873-.6-3.571.086-5.386-.257-2.283-.515-4.098-1.63-6.498-1.973-.117-1.459-.234-2.917-.41-4.376-4.449-1.373-9.19-.944-13.23-3.432-3.805-2.402-6.967-3.69-9.425-8.065-1.113-1.973-1.99-5.148-3.981-6.263-1.464-.773-2.693.257-4.157-.172-.995-.257-1.639-2.06-2.634-1.888-2.4.43-1.112 6.006-1.64 8.323-.643 3.175-1.697 6.263-2.224 9.438 1.464.086 4.625 1.802 5.62 3.003 1.054 1.373 2.283 6.692 2.4 8.58.293 6.606-11.064 4.89-14.87 4.804-2.81-.085-4.097 1.202-6.673 1.63-.702.086-3.57.43-4.156.086-1.698-.858-.878-2.316-2.166-3.86-1.874-2.146-5.737-1.202-8.138-1.116-4.332.086-4.39-.858-6.673-4.89-1.23-2.145-3.689-5.234-5.737-6.178-2.576-1.115-5.503.515-8.138-.172-1.522-.429-3.922-2.23-4.976-3.689-1.815-2.488-.76-7.379-4.332-7.893-2.342-.344-4.449 2.316-6.732 3.003-3.044.858-5.679.171-8.372 1.544-3.102 1.544-19.494 11.24-22.655 10.21-.41-2.488-4.684-4.547-6.732-4.89z"/><path fill="#FFF" d="M286.42 1.128c0-.093.1-.174.2-.256-.2.082-.3.163-.2.256z"/><path fill="#FFDC26" d="M496.571 204.128c-.92-.466-4.969-1.212-5.398-2.05-.982-1.865 1.104-9.693 2.33-10.718-2.33-4.846-2.392-10.997-4.968-15.75-1.84-3.355-4.294-4.66-7.484-4.846-3.436-.28-6.994 2.05-7.116-3.448-.062-5.592 5.95-8.947 7.177-13.98.736-2.888-.123-7.548-.061-10.623 0-1.305.49-3.728-.184-4.94-1.105-1.863-3.006-1.677-4.05-3.82-1.41-2.89-1.349-5.779-3.128-8.388-.552-.839-1.41-2.05-2.086-2.703-.736-.652-2.33-1.025-2.883-1.677-2.822-3.448-.307-2.144.859-5.219 1.472-4.194-3.987-6.896-2.638-12.022.92-3.448 4.356-3.635 5.46-6.896.859-2.517.43-8.574-1.472-10.345-1.595-1.398-6.564-.28-8.466-.28-1.902 0-3.988.187-6.073.187 0 .093.061.186.061.28.307 1.863.061 3.727.123 5.591.061 1.77.43 3.914.736 5.592.43 2.143 3.251 2.61 3.006 4.66-.123 1.397-.675.372-1.166 1.118-.43.652-.49.932-.736 1.677-.552 1.305-.613 2.703-1.043 4.008-.245.745-.613.652-.797 1.584-.123.652 0 2.143 0 2.796.061 1.864.43 5.032 1.227 6.337.92 1.584 1.41 1.211 1.104 3.728-.061.559-.43 1.304-.49 2.05-.062.932-.062 1.957.122 2.796.43 1.864 1.35 2.423 2.33 3.448 2.148 2.237 3.559 5.592 3.62 9.506.062 2.05.675 3.541.614 5.591-.062 2.237.368 3.635 1.043 5.592.859 2.423 2.27 4.007 3.864 5.405 1.289 1.212 2.27 1.212 1.718 3.915-.43 1.957-1.534 3.82-2.27 5.498a186.935 186.935 0 0 1-3.067 6.617c-.675 1.398-2.76 4.287-1.779 6.337.368.839 1.35.652 1.78 1.305.674.932.244 1.584.674 2.702.675 1.771 1.84 1.585 2.944 2.05 1.227.467 2.332 1.585 3.62 1.864-.184.28-.307 1.212-.49 1.492.613.093.858.745 1.287.931.552.28 1.105.187 1.718.373.736.28 2.515.56 3.129 1.398 1.165 1.491.184 1.398-.062 2.982-.245 1.585.123 2.517-.43 4.008-.551 1.49-.797 1.49-.797 3.448v4.66c0 2.889-.245 5.778.553 8.107-.92 1.026-2.025 1.212-3.006 2.05-.982.84-1.963 1.771-2.945 2.61-2.147 1.77-4.54 2.982-5.521 6.71-.368 1.491-.061 2.61.613 3.728.246.466.614.839.982 1.118.123.56.184 1.119.245 1.678 1.227 2.516 2.393 2.143 2.331 5.591 0 2.423-.061 4.194-.49 6.524-.368 2.143-.062 3.728.613 5.592.675 1.864 1.104 2.423 1.043 4.66 0 .745-.245 1.956.123 2.609.184.373.981.28 1.288.839 2.638 4.007-3.988 7.735-3.19 11.462.49 2.144 2.392 3.169 2.883 5.592.123.652.368 2.237.184 2.89-.368 1.21-.43.651-1.227.838-1.472.373-2.576-.093-3.558-1.864-.675-1.212-.43-1.212-1.35-1.864-.551-.373-1.288-.746-1.84-.932-1.288-.466-2.392-1.118-3.68-1.864-1.227-.745-2.516-.745-3.743-1.584-1.104-.746-.49-1.305-1.84-.56-.552.28-.613 1.026-1.166 1.212-1.042.466-2.637 0-3.68 0-2.515 0-5.521.653-8.037 0-.92-.28-1.595-1.304-2.453-1.677-.675-.28-1.166-.093-1.84-.187-1.228-.186-1.903-1.398-3.068-2.143-2.086-1.398-5.276-1.118-7.362.28-1.595 1.025-2.515 3.914-4.294 4.473-.859.28-2.638-.373-3.558-.932-1.779-1.025-3.742-3.541-4.6-6.15-.492-1.399-1.78-3.822-2.823-1.212-.613 1.584.307 4.007-1.288 4.752-.552.28-1.288-.28-1.84-.093-.736.187-1.595.653-2.331 1.025-1.534.653-2.822.84-4.417.932-2.332.187-2.209 2.61-3.497 4.753-.982 1.678-1.288.466-2.147-.745-1.78-2.423-3.742-1.305-5.95-2.33-1.718-.746-2.455-2.796-4.172-.466-.92 1.211-1.288 2.889-2.454 3.728-2.024 1.677-4.785-.466-6.932 1.304-.982.84-1.902 2.61-3.006 3.076-1.166.466-2.76 0-3.68-.932-.369-.373-1.412-1.584-1.719-2.144-.306-.559-.122-1.304-.552-1.864-.92-1.304-1.656.187-2.76.28-1.472.186-3.252.186-4.662-.186-.798-.28-1.718-1.398-2.577-1.678-.613-.186-1.288.28-1.902.093-.552-.186-.613-.838-1.165-1.025-1.043-.373-2.577.093-3.742.093-1.289 0-3.129-.559-4.295.187-1.288.745-1.84 3.448-3.067 4.566-2.086 1.957-4.785 0-6.87 1.585-1.35 1.025-2.7 1.677-4.172 2.33-.736.372-1.043.838-1.84.745-.675-.093-.86-.652-1.35-.746-1.227-.372-2.331-.466-3.558-.931-1.166-.466-2.454-1.026-3.68-1.119-1.412-.093-2.884 0-4.295 0-.552 0-1.227.28-1.718-.186-.613-.56-.43-1.305-1.227-1.584.368.093-2.024.838-1.84.838-.614 0-1.35.093-1.963 0-1.35-.186-2.331-.932-3.68-.932-1.473 0-3.007-.466-4.356.653-.86.745-1.718 2.423-2.577 2.889-1.227.652-2.27.466-3.558 1.398-1.227.838-2.331.652-3.68.652-1.718 0-2.577-.093-3.804-1.864-.675-.932-.675-1.677-1.718-1.957-.613-.186-1.288.466-1.902-.093-1.35-1.212.062-4.194-1.779-5.312-1.165-.746-2.576.28-3.742-.093-.981-.373-2.147-1.212-3.006-1.958-1.165-.931-1.779-.559-3.067-.838-1.166-.28-2.577-1.212-3.558-2.144-.982-1.025-1.84-2.236-3.251-1.677-.737.28-1.043.745-1.78 1.025-.552.186-1.41 0-1.962 0-1.473 0-2.822.28-4.172-.652-1.288-.932-2.086-1.585-3.558-.932-1.104.466-2.024 2.33-3.19 2.609-2.638.839-5.398-.652-7.975.839-1.166.652-1.41 2.143-1.84 3.728-.307 1.304.43 1.304-.552 1.863-.369.28-1.473-.093-1.902-.093-1.411 0-2.945.28-4.294-.186-1.227-.466-1.902-1.77-3.068-2.423-2.147-1.119-4.049 1.677-6.134 1.677-1.166 0-1.35-.093-2.331-.932-.675-.652-.246-1.118-1.35-1.025-1.043.093-1.043 1.212-1.718 1.957-.797.839-.245.653-1.35.932-1.165.28-2.514 0-3.68 0-1.472 0-2.331.653-3.68 1.025-2.945.746-5.154-1.398-7.424 2.703-.613 1.212-.981 4.567-2.27 3.635-.306-.187-1.104-2.237-1.35-2.703-.674-1.025-1.41-2.237-2.33-2.61-1.657-.745-2.822 1.398-4.417.84-1.411-.467-2.025-2.61-3.742-1.958-1.227.466-1.227 1.584-2.393-.186-.92-1.398-1.533-2.33-3.067-1.77-1.534.558-1.84 2.609-1.84 4.752.061 2.61-.246 2.889-1.84 4.007-2.393 1.585-3.804-1.025-5.706-2.795-.859-.84-.552-1.119-1.779-1.212-.797-.093-2.27-.373-3.006 0-.92.373-1.043 1.212-1.779 1.957-.736.746-1.043.652-1.84 1.118-1.104.653-1.84 1.864-3.068 2.423-1.595.653-2.76-.559-3.68-2.609-1.227-2.61-1.718-5.405-3.62-7.27-1.165-1.117-2.576-1.583-3.68-2.888-1.227-1.491-1.84-3.635-3.743-2.89-.92.374-2.147 1.306-3.005 1.865-1.964 1.304-2.148 2.423-4.295.745-.43-.373-1.35-1.398-1.84-1.49-.736-.094-1.104.652-1.84.838-1.473.466-3.006-.932-4.295-1.678-1.41-.838-2.883-1.304-4.294-2.143-1.533-.932-2.883-1.584-4.294-.093-1.35 1.49-2.454 3.914-3.68 5.685-1.718 2.516-5.031 4.566-7.485 3.541-1.166-.466-2.76-2.33-3.62-3.541-.367-.56-.92-2.33-1.349-2.703-.92-.746-2.27 1.025-3.067 1.491-1.35.839-2.209 1.491-3.558.466-1.534-1.211-1.963-3.075-3.068-4.753-2.208-3.262-5.582.187-7.975.746-2.33.559-3.558-3.542-6.011-.746-1.227 1.398-1.473 1.864-3.19 1.678-1.289-.094-2.516-2.05-3.743-1.957-.858.093-1.963 1.863-2.392 2.889-1.104 2.609-1.166 3.075-3.067 2.143-1.963-.932-3.129-3.169-5.399-3.075-1.41.093-2.515 1.211-3.803 1.864-2.331 1.304-4.97 4.1-7.3 1.677.613-4.007 2.27-7.362 1.656-11.742-.123-1.026-.49-1.585-.49-2.983v-2.795c0-2.517-.246-4.66-1.841-5.872-1.595-1.211-2.76-1.118-3.129-4.38-.245-2.33.246-3.914-1.043-5.871-1.043-1.584-2.515-1.678-3.864-2.33-.86-.373-2.7-2.423-3.497-2.05 2.454-1.118 2.822-8.015 2.147-11.09-.982-.373-1.963.186-2.883-.28.92-3.355 3.006-6.057 4.11-9.32 1.227-3.634.675-7.362.123-11.09-.246-1.956-.614-2.795-1.84-3.914-1.166-1.025-1.29-1.397-1.719-3.448-.306-1.677-.981-3.355-1.226-4.846-.246-1.304 0-3.355-.86-4.287-.858-.932-2.576.28-3.557-.093-1.963-.652-1.105-2.889-.43-4.753 1.043-2.982 3.252-2.889 5.215-3.914 1.533-.746 2.883-3.262 3.987-5.126.49-.932 1.595-2.795 1.718-3.914.245-2.423-.982-1.211-1.227-2.61 1.963-.558 5.89-4.007 5.521-7.641-.307-3.169-3.435-4.1-3.742-7.456-.184-1.77.307-3.727-.123-5.405-.307-1.118-1.35-2.982-1.84-4.007-1.104-2.144-3.436-3.728-4.049-6.43-.245-1.119-.92-4.474-.613-5.406.306-1.025 1.901-2.33 2.453-2.982 2.147-2.423 6.871-4.38 6.012-9.413-.306-1.677-.736-2.516-.675-4.566.062-1.398.246-3.076 1.105-4.008.736-.838 1.41-.559 2.147-1.304.552-.56 1.717-2.89 1.656-3.821-2.27-1.678-2.147-4.567-1.043-7.549.184-.466.43-1.211.675-2.05-.552.093-.981.093-1.288 0-.43-2.703-4.97-4.94-7.055-5.312-1.472-.28-8.588-.932-9.631.372-1.411 1.771.245 8.854 1.165 10.438 1.534 2.61 4.172 3.355 6.994 3.635.797 4.846-5.95 6.71-8.037 8.946-2.576 2.796-1.656 4.847-.429 7.922-2.086 1.957-5.092 1.864-6.932 3.914-3.006 3.448.184 4.1 2.822 5.685 2.515 1.491 4.294 2.796 3.926 6.244-.368 3.168-4.11 5.592-4.049 9.226 0 3.635 3.19 6.244 4.049 9.133 1.718 5.778-.736 6.244-3.988 8.388-2.944 1.863-3.128 3.634-4.171 6.99-.798 2.702.552 1.863-1.35 4.007-1.533 1.77-3.312 1.304-3.803 4.473 1.84.373 3.68.093 4.846 2.423s-.797 5.964.491 8.108c1.288 2.143 4.478.186 5.521 3.728 1.227 4.1-1.472 6.337-3.251 8.76-4.11 5.685-.798 12.767-3.865 18.08-1.779 3.075-8.098 8.2-8.343 11.555 2.27.84 4.724-.372 6.993.28 1.227.373 1.411 1.491 2.638 1.864 1.963.746 2.331-.56 3.988 1.584 2.208 2.89 1.533 7.176 1.656 10.624.123 3.542 1.35 6.71 1.656 10.252 7.914 1.118 12.392 8.574 6.871 17.427-1.779 2.889-16.993 22.273-7.116 23.299 3.374.372 5.828-3.355 8.466-5.313 3.435-2.516 6.257-.559 9.938-1.677 1.84-.56 1.902-2.143 4.11-1.957 2.086.186 3.435 2.143 5.705 1.957 3.988-.28 6.135-4.38 8.036-8.294 2.761 3.262 2.209 5.032 5.951 6.896 3.313 1.678 6.38.466 9.631 1.584.184.932.307 1.957.491 2.89 6.257 2.143 8.895-7.456 14.232-3.728 2.209 1.584 3.62 3.448 6.748 2.33 1.35-.466 1.473-1.585 2.7-2.33 2.085-1.398 3.435-1.119 5.705-1.305 3.987-.186 4.969 2.61 8.465 3.634 1.963.56 5.215-.838 6.748-2.236 3.681-3.448 9.264-9.04 14.417-6.337 2.515 1.304 2.944 5.591 4.54 8.014 1.533 2.33 3.373 6.058 5.275 7.549 1.227.932 5.705 3.448 7.055 3.635 4.723.652 2.699-5.685 5.582-7.27 2.147-1.211 5.399.56 7.116 1.864.675.56 1.78 1.771 2.454 2.237 1.84 1.212 2.454.746 4.601 1.212 3.313.652 13.987 8.573 16.38 1.49-1.289-2.795-9.325-6.523-8.773-9.785.613-3.728 7.116-2.143 9.263-2.143 3.558 0 7.484.559 10.92-.373 1.595-.466 2.024-2.423 4.233-1.025 1.35.839 1.35 2.796 3.006 3.262 2.208.652 3.68-1.678 5.705-2.05 2.944-.467 3.312 2.236 5.644 3.354 3.496 1.678 7.913-1.211 11.349.187 1.472.559 2.76 2.702 4.171 3.728 1.472 1.025 2.331 1.863 4.172 1.77 3.006 0 2.27-.466 3.19-3.541 1.288-4.1-.307-4.567-1.289-8.574 4.479-1.677 8.895 1.025 13.312 1.584 3.804.466 10.736-2.143 14.049.28 2.637 1.957 3.803 6.057 7.238 6.803 2.147.466 3.436-1.677 5.399-1.584.307.932.92 1.398 1.656 1.584 1.84.186 1.84-.466 3.19-1.398 3.865-2.702 4.97-5.964 9.57-5.778 2.7.093 3.251.186 5.644 1.77 2.638 1.771 4.294.933 7.055 2.144 1.533.653 2.638 3.169 4.11 3.355 1.35.187 4.049-1.77 5.398-2.33 1.657-.745 2.27-2.33 4.601-1.025 2.147 1.212 2.883 4.567 4.54 6.524 3.68-2.89 8.159-4.846 12.33-7.27.86-.745 1.84-1.21 2.884-1.49 1.472 0 1.165 2.423 2.76 1.77 3.865-1.584-1.165-6.896 3.865-6.523.981.093 5.092 2.61 6.012 3.541 1.656 1.584 2.576 5.033 4.417 6.244 2.392 1.584 3.926-.56 5.643-1.025 4.11-.932 4.601 3.169 8.16 3.355 5.153.28 8.833-9.785 14.109-10.81 2.577-.467 4.54-.467 7.055-1.305 2.638-.839 6.441-1.212 8.527 1.211 1.595 1.864 1.963 7.363 5.276 5.126 2.208-1.491 2.883-8.947 6.38-5.592 1.779 1.77.306 5.22 3.496 3.728 2.27-1.118 2.025-5.871 4.233-6.617 1.288 6.337 4.049 5.22 8.773 5.126 2.699-.093 7.852 4.007 9.938.652-.86 4.194 2.515 3.635 4.171 4.567 2.086 1.118 4.11 3.262 6.748 1.49 1.595-1.117 2.883-4.1 4.846-4.566 2.822-.652 4.601 1.957 7.055 2.796 1.718.56 6.564 1.398 8.22.56 2.761-1.492 1.166-6.151.246-8.947-.798-2.33-2.331-5.126-2.822-7.363-.797-3.261.061-6.803-.307-10.158-.368-3.634-2.085-3.82-2.883-6.896-1.41-5.219 2.393-7.176 4.417-10.624 5.644-9.786-6.748-10.252-4.478-17.707.675-2.144 5.398-4.007 7.239-5.219 2.208-1.305 4.478-1.864 5.275-5.219 1.227-5.126-.061-5.219 4.172-7.455 2.024-1.119 6.257-4.66 5.828-8.015-1.78-.28-3.62-1.212-5.399-2.05z"/><path fill="#FFF" d="M183.7 93.936c-.1.051-.3.077-.4.128.2-.026.3-.077.4-.128z"/><path fill="#FFDC26" d="M427.578 105.828h.373c-.083-.46-.083-.92.082-1.43.62-1.89 2.937-1.993 3.682-3.78.579-1.38.29-4.7-.993-5.671-1.075-.767-4.426-.154-5.708-.154-2.606 0-5.626.41-8.15-.204-1.406-.358-3.102-1.277-4.963-.817-1.737.408-2.275 2.196-3.723 3.218-3.681 2.503-8.48 2.146-12.41.715-1.613-.562-3.102-.51-4.757-.868-.868-.205-.95-.869-1.778-1.073-.828-.204-2.027.051-2.896.051-4.509-.051-6.122 3.32-9.224 6.028-3.682 3.167-7.156 2.401-11.665 2.657-1.572.102-1.407.204-2.648.97-.124.256-.29.511-.413.766-.538.154-1.117.307-1.655.358-2.068 1.38-3.557 1.89-5.708 2.656-2.979 1.073-7.942 1.993-10.714.307-2.275-1.43-8.645-5.875-10.962-3.167a13.742 13.742 0 0 1-.372 1.788c-.372.51-1.034.97-1.448 1.379-1.034 1.022-1.53 1.38-2.854 1.941-1.324.562-2.316.613-3.806.92-1.323.306-2.068 1.124-3.846.562.29-3.423-4.22-.971-5.874-.818-3.6.409-4.55 1.788-7.612-.97-.992-.92-1.985-1.89-3.06-2.657-1.366-.92-2.234-.766-3.64-1.175-.91-.255-1.904-.664-2.814-.97-.372-.154-2.523-1.073-2.854-1.073-.786 0-1.861.97-2.813 1.073-.992.153-2.895.255-3.847-.154-1.365-.613-1.447-2.247-2.564-3.014-1.034-.715-1.903-.306-2.937-.868-.703-.409-1.117-1.533-1.82-1.992-1.034-.716-1.655-.613-2.896-.92-2.316-.562-3.93-2.248-6.7-1.584-.084 1.175-.704 2.095-.87 2.963-.248 1.226.166 2.708-1.075 3.474-1.448.92-5.957.256-7.653.153-2.73-.153-4.964-2.043-7.61-2.707-1.325-.358-2.524.051-3.806-.153-1.614-.307-2.896-.97-4.592-1.175-.083-.869-.165-1.737-.29-2.606-3.143-.817-6.494-.562-9.348-2.043-2.689-1.43-4.923-2.197-6.66-4.802-.786-1.175-1.406-3.065-2.813-3.73-1.034-.459-1.903.154-2.937-.101-.703-.154-1.158-1.226-1.861-1.124-1.696.255-.786 3.576-1.158 4.955-.455 1.89-1.2 3.73-1.572 5.62 1.034.05 3.268 1.072 3.97 1.787.745.818 1.614 3.985 1.697 5.109.207 3.933-8.409 5.098-11.097 5.047-1.986-.051-2.306-1.471-4.126-1.216-.496.051-2.523.256-2.937.051-1.2-.51-.62-1.379-1.53-2.299-1.324-1.277-4.054-.715-5.75-.664-3.06.051-3.102-.51-4.715-2.911-.87-1.278-2.606-3.117-4.054-3.679-1.82-.664-3.889.307-5.75-.102-1.076-.255-2.771 2.316-3.516 1.448-1.282-1.481-.538-8.038-3.061-8.344-1.655-.205-3.144 4.295-4.757 4.704-2.151.51-4.013-2.814-5.915-1.997-2.069.869-13.692 6.641-15.885 6.028-.29-1.481-3.35-2.707-4.757-2.912-.91-.153-4.84-.408-6.163 0l2.192 7.254c.869.358 1.903.562 2.937.665.248 1.277-.662 2.145-1.861 2.911l1.365 4.445c0 .102-.041.204-.083.306.58-.817 1.82-1.379 2.482-1.839 1.324-.868 3.102-1.532 4.592-1.532 2.192 0 3.185-1.226 5.005-2.606 1.324-.97 2.689-1.481 4.012-2.503.62-.51 1.241-.97 1.779-1.532.496-.562.993-1.686 1.655-1.942.455-.204.786.052 1.24-.05.621-.103 1.035-.511 1.655-.563.952-.05 1.737.154 2.565-.357 1.117-.664 1.82-.562 3.06-.664-.33.306-.496 2.094-.206 2.503.538.715 2.275-.153 2.854-.307 1.448-.46 2.813.818 4.137 1.584 1.861 1.022 3.516-.664 4.219 2.401.207.817.414 1.788 1.117 2.043.993.358 1.654-.613 2.482-.92 1.985-.765 1.737 1.585 3.268 1.993.62.153 1.489-.05 1.985.562.455.562 1.076 2.197 1.241 2.963.207.92-.207 1.992.372 2.708.745.919 1.78.05 2.606-.307 1.076-.46 2.069-.409 3.227-.358 1.2 0 1.82-.817 2.937-.97.248.92-.248 2.248.041 3.065.29.817 1.407.562 2.11.51.579-.05 1.613-.255 2.11-.612.413-.307.289-.818.785-.97.455-.154.952.152 1.283.51.744.868.413 1.635 1.654 1.584.828 0 1.779-.562 2.482-1.124.745-.613 1.158-1.737 2.027-1.993 1.365-.408 2.11 1.38 3.35 1.635.456.102 1.697.153 2.069-.102.62-.46.91-1.992 1.613-2.401 1.324-.715 3.227.358 4.592-.051 1.2-.358 2.15-1.073 2.771-2.554.828-2.044 1.903-4.649 1.738-6.999.62.715 1.2.97 1.778 1.84.952 1.532 2.482 1.072 3.971 1.02 1.944-.05.745.512 1.283 2.095.537 1.584 1.406-.715 2.11-.613 1.033.154-.208 2.248.785 2.657.58.204 1.82-.767 2.193-1.073.91-.766.992-1.84 2.275-1.43 1.034.306 2.357 1.021 3.392 1.583 1.2.613 1.778-1.073 2.895-.613 1.655.664 1.158 3.78 3.227 4.087 1.034.153 1.654-.409 2.564-.562.58-.102 1.076.051 1.655-.102.744-.153 1.324-.715 2.11-.307.496.256.661.818 1.24.97.456.103 1.241 0 1.655-.152.455-.154.786-.664 1.241-.818.538-.204 1.117-.102 1.655-.102.413 0 .868-.051 1.24 0 .58.102.704.409 1.2.562 1.158.358 1.862-.613 2.854-.613.083-.868.538-1.584.58-2.4.496.254.95.97 1.571 1.327.745.46 1.53.818 2.069 1.635.496.766.62 1.839 1.117 2.605.496.818 1.778 1.43 2.523 2.044.538.408.951.715 1.737.562.827-.205 1.282-1.226 2.068-1.737.952-.613.828-.205 1.53.306.745.562 1.118.409 1.862 0 1.2-.664 2.275-.715 3.64-.664.745.051 1.407.409 2.151.664.621.205 1.035.358 1.655.409.455 0 1.034-.204 1.49.102.413.256.868.97 1.323 1.328.786.613 1.655.92 2.482 1.533.579.409.786 1.175 1.324 1.583.579.41 1.778.103 2.357 0 .828-.204 1.655-.766 2.482-.92.828-.203 1.407.205 2.151.41 1.696.46 3.516.817 5.295.613.951-.103 1.613-.716 2.482-1.175.455-.256 1.944-.869 2.4-.307.123.307.123.613.082.92.124.766.041.817.413 1.532.58 1.226.993 1.022 2.069 1.022 2.895 0 6.494.715 9.1-.869 1.448-.868 2.565-2.707 4.095-3.218.62-.204 1.614-.05 2.027-.97.248-.562.248-1.788-.207-2.044 1.159.153 1.82 1.175 2.648 2.044 1.117 1.174 2.399 2.247 3.805 2.503 1.324.255 2.4.51 3.723.51.703 0 1.034-.204 1.655-.408.579-.153 1.075 0 1.654-.204.662-.256 1.076-.971 1.655-1.329.496-.255 1.117-.357 1.655-.613 1.2-.562 2.068-1.992 3.309-2.043 1.117-.051 2.192 0 3.31 0 .66 0 1.323.051 1.985 0 .703-.051.703-.358 1.282-.562 1.034-.307 2.275.204 3.31.051 1.157-.153 2.895-1.073 3.64-2.145.372-.562.33-1.227.91-1.482.413-.153 1.282 0 1.654.153 1.158.358 2.358.613 3.599.307.744-.205 1.447-.766 2.192-.92.538-.102 1.158.205 1.655.051 1.117-.306 2.523-1.328 3.598-2.043 1.614-1.073 2.937-2.759 4.592-3.73.745-.459 1.613-.255 2.4-.612-.497.408-.91 1.073-.58 1.686.372.766 1.53.613 2.11.613.579 0 2.399-.358 2.854-.051.62.46.248 1.174.414 2.043.827-.204 1.571-.766 2.399-.97.91-.256 1.985-.256 2.937-.614 1.737-.664 3.102-3.116 4.963-3.525.828-.153 1.407.103 2.069.511.744.511 1.2.511 2.068.511h5.791c1.903 0 3.64 0 5.46.409 1.655.204 3.516-.051 5.212-.051z"/><path fill="#4D4D4F" d="M40 100l-1-1"/><path fill="#000" d="M534.64 199.719c-.754-.275-1.577-.55-2.332-.824-.48-.184-1.029-.458-1.509-.642-1.03-.457-5.557-1.19-6.037-2.014-.138-.184-.206-.55-.275-.916v-.641a9.7 9.7 0 0 1 .275-2.29c.137-.55.274-1.099.411-1.74.275-.916.55-1.923.892-2.656.412-1.008.892-1.832 1.304-2.198l.068-.092c-1.646-2.93-2.264-6.41-3.224-9.8-.206-.64-.412-1.373-.618-2.014-.137-.458-.343-.916-.48-1.282a14.657 14.657 0 0 0-1.235-2.382c-.274-.457-.549-.824-.823-1.19-.274-.366-.549-.641-.892-1.008-1.784-1.74-3.979-2.472-6.655-2.656h-.754c-1.44 0-2.882.275-4.048.275-1.029 0-1.852-.183-2.401-.916a3.516 3.516 0 0 1-.549-1.099c-.137-.458-.206-1.007-.206-1.648s.069-1.374.275-1.923c.96-3.48 4.459-6.045 6.517-9.159.206-.275.343-.55.549-.824.343-.55.549-1.19.755-1.74.274-.916.343-1.924.343-3.023 0-2.472-.412-5.312-.412-7.326 0-1.283.549-3.664-.206-4.854-.137-.275-.343-.458-.48-.642-.48-.457-.96-.732-1.51-1.007-.205-.092-.411-.183-.617-.366-.274-.183-.617-.367-.892-.55a2.956 2.956 0 0 1-1.029-1.19c-.343-.642-.617-1.191-.823-1.832-.617-1.649-.96-3.389-1.715-4.946-.137-.366-.343-.64-.549-1.007-.137-.183-.206-.366-.343-.458a1.036 1.036 0 0 0-.274-.275c-.275-.366-.55-.732-.892-1.099-.412-.458-.824-.916-1.235-1.282-.618-.458-1.784-.824-2.607-1.19-.137-.092-.275-.092-.343-.184a1.036 1.036 0 0 1-.275-.275c-.754-.824-1.166-1.373-1.372-1.831-.068-.183-.068-.367-.068-.55 0-.183.137-.275.205-.366.07-.092.138-.092.206-.183.138-.092.343-.275.48-.367.206-.183.412-.366.55-.55.274-.365.617-.732.823-1.281.205-.55.274-1.008.274-1.466 0-2.656-2.813-4.854-3.362-7.784 0-.184-.068-.367-.068-.55v-.641c0-.183 0-.366.068-.55v-.183c.069-.183.069-.366.138-.64.137-.459.274-.825.48-1.1.068-.183.206-.366.343-.458.343-.458.755-.824 1.235-1.19.137-.092.274-.275.48-.367.274-.183.617-.458.96-.64.206-.184.412-.275.687-.459.823-.64 1.577-1.373 2.058-2.472.137-.275.206-.642.274-1.1.069-.183.069-.457.069-.64.343-2.657-.206-6.412-1.647-8.06a1.482 1.482 0 0 0-.411-.366c-.343-.275-.824-.458-1.373-.55-1.097-.183-2.538-.183-3.979-.091-.686.091-1.372.091-1.99.183h-.068c-.823.091-1.578.183-2.127.183h-1.852c-1.578.091-3.156.183-4.802.183h-1.921c-1.715 0-3.43-.183-4.94-.641a19.963 19.963 0 0 1-1.852-.641c-.343-.092-.618-.275-.96-.366l-1.03-.275c-.686-.183-1.372-.367-2.126-.367-.755-.091-1.51 0-2.264.184-.206.091-.343.091-.48.183-2.47 1.007-3.43 3.938-5.695 5.586-1.029.733-2.127 1.374-3.293 1.832-.206.092-.412.183-.549.275-1.578.55-3.156.916-4.802 1.099-.48 0-.96.091-1.44.091-3.568.092-7.204-.732-10.429-2.014-.343-.092-.686-.275-.96-.367-1.647-.458-3.225-.55-4.871-.824-.686-.092-1.372-.183-2.058-.366-.687-.183-1.03-.55-1.441-.825-.069-.091-.137-.091-.137-.183-.343-.366-.755-.732-1.441-.916-.343-.091-.755-.091-1.098-.091-.617 0-1.235.091-1.852.091h-.069c-.617.092-1.235.092-1.715.092-2.332 0-4.185.55-5.831 1.465a5.843 5.843 0 0 0-.96.641c-.618.458-1.167.916-1.785 1.466-2.264 2.106-4.184 4.854-6.791 7.235-.755.733-1.51 1.282-2.264 1.832-.755.55-1.51.916-2.264 1.282-.412.183-.755.275-1.167.458-4.185 1.465-8.507.916-13.652 1.19a6.62 6.62 0 0 0-1.51.184c-.068 0-.205 0-.274.091a2.446 2.446 0 0 0-.823.367c-.069.091-.206.091-.275.183a2.982 2.982 0 0 1-.48.274c-.274.184-.617.458-1.029.733-.206.458-.48.916-.686 1.374-.48.183-.892.275-1.372.366-.48.092-.892.183-1.372.275-.412.275-.823.641-1.235.824-.412.183-.823.55-1.166.733-2.333 1.374-4.391 2.198-6.998 3.205-3.705 1.466-9.262 2.748-13.79 2.015-.343-.091-.754-.183-1.097-.183-1.098-.275-2.059-.641-2.95-1.282-.618-.366-1.373-.916-2.196-1.557-.206-.092-.343-.275-.549-.366-.754-.458-1.509-1.008-2.4-1.557-.618-.367-1.304-.825-1.922-1.19-.411-.276-.892-.459-1.372-.734-1.372-.64-2.744-1.282-3.979-1.648-1.303-.366-2.538-.458-3.567-.183-.206 0-.343.091-.48.183-.687.275-1.236.641-1.716 1.282-.137.824-.274 1.649-.411 2.381l-.206.825-.275.366c-.411.55-1.029 1.099-1.578 1.557l-.617.55c-.206.274-.412.457-.618.64-.548.55-1.029 1.008-1.577 1.374-.686.55-1.441.916-2.539 1.374a11.41 11.41 0 0 1-1.578.641c-1.51.458-2.95.641-4.802 1.1-1.235.274-2.195.915-3.293 1.19-.823.274-1.784.274-3.087-.092v-.55c0-1.373-.48-2.106-1.235-2.472-.069 0-.206-.092-.275-.092-.206-.091-.411-.091-.686-.091h-.343c-.96 0-2.127.274-3.224.64l-1.647.55a9.132 9.132 0 0 0-.754.275c-.138 0-.275.092-.343.092-.48.183-.892.274-1.235.274-1.853.183-3.293.641-4.528.916-.275.092-.48.092-.755.183-.686.184-1.372.184-2.058.184-.206 0-.412 0-.686-.092-1.304-.275-2.744-1.1-4.665-2.93l-2.47-2.474c-.412-.366-.823-.824-1.304-1.19-.411-.367-.892-.733-1.303-1.1-1.372-1.007-2.47-1.281-3.705-1.556-.686-.183-1.44-.275-2.332-.55-1.51-.458-3.156-1.19-4.666-1.74-.068 0-.205-.091-.343-.183-.068 0-.137-.092-.274-.092l-.617-.274c-.138-.092-.206-.092-.343-.183a7.113 7.113 0 0 0-.687-.275c-.137-.092-.343-.183-.48-.183-.137-.092-.274-.092-.343-.184-.274-.091-.48-.183-.686-.274-.137 0-.206-.092-.274-.092-.275-.091-.48-.183-.618-.183-.137 0-.343 0-.48.092-.686.183-1.51.732-2.333 1.19-.617.366-1.234.641-1.852.733-.617.091-1.44.183-2.332.183-1.441.092-3.02 0-4.048-.55-.549-.274-1.03-.64-1.372-1.099-.206-.183-.343-.457-.48-.732-.206-.367-.412-.733-.618-1.19-.48-.917-.96-1.833-1.784-2.474-1.44-1.099-2.813-.64-4.253-1.282l-.618-.275c-1.029-.64-1.715-2.29-2.607-3.205-.137-.183-.274-.275-.411-.366-.206-.184-.412-.275-.618-.367-.411-.274-.754-.366-1.097-.55-.755-.274-1.441-.366-2.333-.549-.206-.091-.48-.091-.686-.183-1.647-.458-3.156-1.282-4.597-2.015-1.92-.916-3.91-1.557-6.517-.824-.137 2.106-1.166 3.755-1.44 5.312-.412 2.198.274 4.854-1.785 6.228-.48.274-1.097.55-1.783.64-2.196.367-5.489.184-8.027-.09a70.675 70.675 0 0 1-2.882-.276c-.823 0-1.646-.183-2.47-.458-1.852-.549-3.635-1.465-5.42-2.38-1.508-.825-3.086-1.558-4.733-2.016-.274-.091-.549-.091-.823-.183-.275 0-.549-.091-.823-.091h-1.578c-.55 0-1.03.091-1.578.091-.55 0-1.03 0-1.578-.091-.343-.092-.686-.184-.96-.184-1.579-.457-3.088-1.007-4.666-1.465-.617-.183-1.303-.275-1.99-.366-.068-.824-.137-1.557-.205-2.381-.069-.733-.137-1.557-.206-2.382a28.514 28.514 0 0 0-3.98-.824c-1.303-.183-2.675-.366-3.978-.55-.343-.091-.686-.091-.96-.183-2.265-.366-4.529-1.007-6.587-2.106-.137-.092-.343-.183-.48-.275-.48-.275-1.03-.55-1.51-.824-.411-.275-.823-.458-1.234-.641-1.03-.55-1.99-1.1-2.882-1.74-.48-.275-.892-.641-1.372-1.008-1.303-1.099-2.47-2.38-3.567-4.121-.48-.824-.892-1.74-1.441-2.748-.686-1.282-1.372-2.564-2.47-3.388l-.823-.55c-1.715-.824-3.156.275-4.871-.183-1.166-.275-1.92-2.198-3.087-2.015-.206 0-.343.092-.48.183-.892.458-1.167 1.557-1.304 2.84 0 .458-.069.915-.069 1.373 0 .916.069 1.924.069 2.748 0 .458 0 .824-.069 1.19 0 .184-.068.367-.068.458a137.263 137.263 0 0 1-1.372 5.038c-.48 1.648-.96 3.388-1.235 5.037h.343c.411.091.892.183 1.372.366l.823.275c.343.091.618.275.96.458.618.275 1.236.64 1.784 1.007l.412.275c.343.275.686.55.892.824.48.55.96 1.649 1.372 3.023l.412 1.373c.205.641.343 1.282.48 1.832l.206 1.099c.068.275.137.55.137.824 0 .092 0 .183.069.275.068.275.068.55.068.824.137 2.84-1.99 4.213-4.802 4.854-.206.092-.412.092-.686.092-.48.091-.96.183-1.372.183-.96.092-1.99.183-2.95.183h-2.196c-.48 0-.96 0-1.372-.091-1.578-.092-3.019-.184-3.979-.184-.617 0-1.166 0-1.715.092-.206 0-.343.092-.48.092-.343.091-.618.183-.96.183-1.03.275-1.99.732-3.157 1.007-.48.092-1.029.275-1.578.367-.411.091-1.44.183-2.47.183h-1.783c-.275 0-.48-.092-.618-.092-.274-.091-.48-.275-.617-.366-.343-.275-.549-.55-.686-.916-.069-.092-.069-.183-.069-.275-.137-.458-.205-.916-.411-1.374-.069-.091-.069-.183-.138-.274-.137-.275-.343-.55-.617-.916-.686-.733-1.51-1.1-2.538-1.282h-.206c-.343-.092-.755-.092-1.166-.184h-.687c-1.783 0-3.636.275-5.008.275-.96 0-1.715 0-2.4-.091-.893-.092-1.51-.275-2.059-.641-.686-.367-1.166-1.008-1.784-1.832l-.068-.092c-.48-.64-.96-1.557-1.578-2.564-.48-.824-1.167-1.74-1.921-2.564-.206-.184-.343-.458-.55-.642-.822-.915-1.783-1.831-2.675-2.472-.137-.092-.206-.184-.343-.184-.411-.274-.823-.549-1.235-.64-1.166-.459-2.332-.459-3.567-.367-.412 0-.823.092-1.235.092-1.647.183-3.224.458-4.802.091-1.372-.366-3.293-1.465-4.666-2.747a6.299 6.299 0 0 1-1.166-1.19 5.708 5.708 0 0 1-.892-1.741c-.205-.458-.274-1.007-.411-1.557-.55-2.381-.96-4.762-3.774-5.129h-1.029c-.48.092-1.029.183-1.509.458-.343.183-.686.275-.96.458-.343.183-.618.366-.96.55-1.167.64-2.265 1.373-3.431 1.74-1.99.55-3.842.55-5.626.732-.206 0-.411 0-.617.092-.206 0-.412.092-.686.092-.343.091-.686.091-1.03.183-.068 0-.137 0-.205.091l-1.647.55c-1.99.916-9.604 4.945-16.26 7.876-.342.183-.685.275-1.028.458-1.372.55-2.676 1.1-3.842 1.557-1.44.55-2.744.916-3.773 1.007h-1.167c-.137 0-.274 0-.343-.091-.068-.458-.343-1.008-.686-1.466-.96-1.19-2.744-2.29-4.39-2.93-.412-.183-.824-.367-1.235-.458-.206-.092-.412-.092-.55-.183a17.591 17.591 0 0 1-.96-.275c-.068 0-.206 0-.343-.092-.137 0-.274 0-.411-.091h-.069c-.137 0-.343 0-.48-.092h-.069c-2.538-.275-7.272-.458-8.987.183-.206.092-.412.184-.48.275-.412.458-.55 1.19-.618 2.107-.068.915.069 2.014.275 3.113.068.275.137.55.137.825.343 1.557.823 3.114 1.235 3.938.068.091.137.275.205.366.755 1.1 1.784 1.923 2.95 2.473.755.366 1.51.55 2.333.733.069 0 .137 0 .275.091.274.092.617.092.96.183h.069c.411.092.823.092 1.234.184 0 .183.07.274.07.458v1.007c0 .092 0 .092-.07.183 0 .092-.068.092-.068.183 0 .092-.069.092-.069.183 0 .092-.068.092-.068.184 0 .091-.069.091-.069.183 0 .091-.069.091-.069.183s-.068.092-.068.183l-.137.183-.069.092-.137.183-.069.092c-.068.091-.137.091-.137.183l-.069.091c-.068.092-.137.092-.205.184l-.069.091c-.069.092-.137.183-.206.183l-.068.092c-.07.091-.138.183-.275.183 0 0-.068 0-.068.092-.07.091-.206.183-.275.183h-.068c-.07.091-.206.183-.275.183-.137.092-.206.183-.343.275l-1.44.824c-.138.092-.275.183-.412.183-.55.275-1.098.55-1.578.824-.618.367-1.235.733-1.715 1.008-.275.183-.55.366-.755.641-.755.641-1.235 1.282-1.51 1.923-.137.275-.274.641-.274.916-.137.641-.068 1.19.069 1.832.206.916.686 1.923 1.235 3.022-.55.458-1.235.824-1.921 1.1-1.715.732-3.568 1.098-5.008 2.014-.275.183-.55.458-.824.641-.411.458-.754.824-.96 1.19-.137.275-.275.459-.343.733-.069.184-.069.275-.069.458v.183c.069.825.96 1.374 2.058 1.924.275.091.55.275.824.366.068 0 .206.092.274.092.275.091.549.274.823.366.206.092.412.183.55.275 1.234.64 2.332 1.282 3.086 2.015.138.091.206.183.343.366l.275.366a3.33 3.33 0 0 1 .686 1.74c0 .184.069.367.069.55 0 .366 0 .733-.07 1.19-.136 1.374-1.097 2.565-1.989 3.847l-.823 1.1c-.823 1.098-1.51 2.197-1.646 3.48 0 .183-.069.457-.069.64 0 .458.069.916.137 1.283.137.64.412 1.19.686 1.831.412.733.892 1.466 1.441 2.198.274.367.549.733.755 1.1.137.183.274.366.343.549.48.733.892 1.374 1.097 2.106 1.921 5.679-.823 6.137-4.459 8.243a9.789 9.789 0 0 0-2.333 1.74c-.205.275-.411.458-.617.733-.137.275-.343.55-.48.824-.275.55-.48 1.19-.755 1.832-.206.55-.343 1.099-.549 1.74-.206.641-.274 1.099-.343 1.465v.733c0 .366-.137.733-1.166 1.74a6 6 0 0 1-.686.55c-.412.274-.892.549-1.304.732-.205.092-.411.183-.617.367-.755.457-1.372 1.19-1.647 2.747.412.092.755.092 1.167.183.274 0 .48.092.754.092.48.091.96.183 1.441.366.206.092.48.183.686.275.206.092.412.275.618.458.205.183.411.366.548.641l.275.366c.823 1.466.274 3.389.068 5.13-.068.365-.068.732-.068 1.006 0 .642.137 1.283.549 1.832.686 1.008 1.99 1.1 3.156 1.282.48.092.891.184 1.303.367.137.091.274.183.412.183.548.366.96.916 1.235 1.74.274.733.343 1.465.343 2.106 0 .184 0 .458-.07.642 0 .183-.068.366-.136.55l-.412 1.098c-.206.458-.48.824-.823 1.282l-.343.458c-.686.824-1.51 1.649-2.196 2.473-1.577 1.923-2.195 4.03-2.4 6.136-.481 4.03.342 8.243-1.853 11.631-.412.642-1.098 1.466-1.921 2.198-.206.275-.48.458-.686.733a72.776 72.776 0 0 1-2.333 2.198c-.548.55-1.029 1.008-1.509 1.557-.137.092-.206.275-.343.366-.206.275-.48.55-.686.733a10.184 10.184 0 0 0-1.098 1.466c-.48.732-.754 1.373-.823 2.014 1.304.458 2.607.367 3.91.184 1.304-.092 2.608-.275 3.911.091 1.03.275 1.44.916 2.127 1.466.206.183.48.274.823.457.549.184.96.184 1.372.275h.755c.206 0 .48 0 .686.092.137 0 .343.091.48.183.343.183.686.55 1.166 1.007a7.532 7.532 0 0 1 1.51 3.023c.137.64.274 1.373.274 2.015 0 .274 0 .457.069.732v1.374c0 1.19-.069 2.29 0 3.389.068 1.282.274 2.564.549 3.846.343 1.649.823 3.297 1.097 4.946.069.458.137.824.137 1.282 3.02.366 5.626 1.465 7.478 3.114 2.47 2.29 3.637 5.495 2.539 9.25a26.461 26.461 0 0 1-.549 1.557c-.412 1.007-1.03 2.106-1.784 3.205-.137.184-.274.458-.549.733-.137.183-.274.275-.411.458-.55.733-1.304 1.557-2.127 2.656l-.617.824c-.138.092-.206.275-.343.458-.206.275-.412.55-.687.824l-.686.916-.686.916a38.672 38.672 0 0 0-1.99 2.93c-.205.367-.41.642-.617 1.008a2.002 2.002 0 0 1-.274.458c-.206.366-.412.641-.549 1.008-.068.183-.206.366-.274.458-.412.824-.824 1.556-1.098 2.38-.206.459-.343.917-.48 1.374l-.206.825c0 .091-.069.275-.069.366-.068.366-.068.733-.068 1.1 0 .732.206 1.373.549 1.83.548.733 1.578 1.283 3.087 1.466 1.852.183 3.499-.64 5.008-1.74.412-.275.755-.55 1.098-.916.206-.183.343-.275.549-.458.891-.732 1.852-1.557 2.744-2.106 2.607-1.649 4.94-1.282 7.478-1.282h1.372c.206 0 .48 0 .754-.092.48-.092.961-.183 1.51-.275.137 0 .274-.091.343-.091.137 0 .206-.092.343-.092.617-.275 1.029-.641 1.44-1.007.275-.183.618-.458.961-.55.412-.091.823-.183 1.44-.183 1.784.092 3.02 1.282 4.597 1.74.55.183 1.098.275 1.715.183 4.46-.274 6.861-4.304 8.988-8.15.549.64 1.029 1.19 1.44 1.648.618.824 1.03 1.557 1.51 2.29.754 1.098 1.646 2.014 3.704 2.93.686.275 1.304.458 1.99.641.274.092.549.092.755.183.205 0 .48.092.686.092.48 0 .892.092 1.303.092h.686c.892 0 1.784 0 2.676.091.892.092 1.784.183 2.744.55.206.915.343 1.923.549 2.839l1.235.275c.411.091.823.091 1.166 0 .206 0 .412 0 .549-.092.343-.092.755-.183 1.098-.275.548-.183 1.029-.366 1.509-.64a22.2 22.2 0 0 0 2.333-1.466c2.538-1.74 4.87-3.48 8.026-1.557.275.183.618.366.892.55 1.853 1.281 3.362 2.472 6.037 1.831.206 0 .412-.092.618-.183 1.51-.458 1.646-1.557 3.019-2.29.617-.366 1.097-.55 1.646-.732.48-.184 1.03-.275 1.51-.367.754-.091 1.509-.091 2.332-.091h.892c.823 0 1.578 0 2.195.183 1.304.275 2.264.824 3.225 1.465.411.275.823.458 1.235.733.823.458 1.646.916 2.812 1.19 1.921.458 4.94-.458 6.792-1.74.275-.183.48-.366.755-.55.755-.64 1.578-1.373 2.538-2.106 1.784-1.465 3.842-2.93 5.969-3.846.343-.183.686-.275 1.098-.458.754-.275 1.44-.458 2.195-.55a8.805 8.805 0 0 1 2.195 0c.755.092 1.441.275 2.196.641.549.275.96.55 1.372 1.008.892 1.007 1.51 2.381 2.058 3.663.412 1.008.823 1.924 1.304 2.748.068.183.205.275.343.458l.343.458c.411.64.891 1.282 1.372 2.015.206.366.48.732.754 1.099.275.366.48.732.755 1.007.137.183.274.366.412.458.274.366.48.641.754.916.55.55 1.03 1.099 1.578 1.465.137.092.412.275.686.366.55.275 1.235.642 1.99 1.1.549.274 1.166.549 1.784.824.343.183.686.274 1.029.458.205.091.48.183.686.274a11.73 11.73 0 0 0 1.715.55c2.607.366 3.361-1.1 3.91-2.748.138-.458.206-.824.343-1.282 0-.091.069-.183.069-.366.069-.183.137-.458.206-.641.068-.183.137-.367.274-.641.137-.275.206-.367.275-.55l.205-.275c.275-.274.55-.55.96-.732 1.236-.55 2.745-.458 4.186 0 1.303.366 2.47 1.007 3.43 1.648l.412.275c.068.092.206.183.274.183.206.183.48.367.686.55.343.274.755.64 1.098.916.206.183.48.366.617.457.755.458 1.304.642 1.853.733.137 0 .205 0 .343.092.617.091 1.235.091 2.126.183h.07c.205 0 .48.091.754.091h.068c.48.092 1.03.275 1.715.55.48.183 1.098.458 1.716.641 1.029.458 2.126.916 3.293 1.374l1.44.55c.48.183.96.366 1.441.457.206.092.48.183.686.183 1.647.458 3.225.733 4.597.458.205 0 .411-.091.549-.091.548-.183 1.029-.367 1.509-.733.617-.458 1.098-1.099 1.372-2.015-.412-.824-1.44-1.648-2.607-2.473-.274-.183-.549-.366-.823-.64l-.412-.275c-1.646-1.1-3.362-2.29-4.528-3.389a1.036 1.036 0 0 1-.274-.275c-.275-.275-.55-.64-.755-.916-.274-.55-.48-1.007-.343-1.557.069-.458.274-.824.549-1.19 1.098-1.282 3.43-1.374 5.694-1.282.549 0 1.098.091 1.647.091 1.029.092 1.92.183 2.538.183 1.99 0 4.116.092 6.174.184h1.578c1.03 0 1.99-.092 3.019-.275l1.44-.275c1.784-.458 2.265-2.381 4.734-1.007.07.091.206.091.275.183.069.091.137.091.206.183.274.275.549.55.754.916.138.275.343.458.48.732l.344.458c.274.275.548.55.96.733.069 0 .206.092.343.092 1.372.366 2.539-.184 3.636-.825.343-.183.755-.458 1.167-.64a4.796 4.796 0 0 1 1.577-.55c2.47-.367 3.293 1.007 4.666 2.198.137.091.205.183.343.275.274.183.48.366.823.55.137.09.274.182.48.182.48.183.96.367 1.51.458.548.092 1.029.092 1.577.092 2.95 0 6.106-1.1 8.85-.55.275.092.48.092.755.183.412.184.823.367 1.166.642.412.274.755.64 1.167 1.007.411.366.754.733 1.166 1.099.412.366.755.641 1.166.916.412.275.824.458 1.167.733.548.366 1.029.549 1.577.732.343.092.755.183 1.235.275h.755c.617 0 1.098 0 1.51-.092.617-.091.96-.274 1.166-.55.068-.09.137-.274.205-.457 0-.092.069-.183.069-.275.069-.275.206-.64.274-1.099.07-.275.206-.64.343-1.007.618-1.74.618-2.84.344-3.847-.344-1.282-1.167-2.381-1.784-4.58 1.578-.549 3.156-.64 4.665-.457.343 0 .617.092.96.092.618.091 1.235.183 1.853.366 1.235.275 2.47.641 3.704.916.618.183 1.235.275 1.853.366l1.852.275c1.03.091 2.333 0 3.705-.092.343 0 .754-.091 1.166-.091l2.058-.275c.343 0 .755-.092 1.098-.092.755-.091 1.44-.091 2.195-.183h2.058c1.304.092 2.47.367 3.43 1.008 1.098.732 1.99 1.74 2.814 2.747.411.55.891 1.008 1.303 1.557.137.183.274.366.48.458.618.641 1.304 1.19 2.127 1.465.412.184.823.367 1.304.367.617.091 1.166.091 1.646-.092.274-.091.48-.183.755-.275.206-.091.48-.183.686-.366.48-.183.892-.458 1.44-.641.55-.183.961-.275 1.51-.275.206.458.411.824.754 1.008.344.274.687.458 1.098.55h.96c.275 0 .48-.092.687-.092.617-.184.96-.642 1.92-1.191 2.813-1.74 4.323-3.663 6.45-4.762 1.166-.642 2.47-1.008 4.253-.916 1.304 0 2.195.091 2.95.274.686.092 1.235.367 1.99.733.411.183.823.458 1.303.733.96.55 1.784.824 2.539 1.007.137 0 .343.092.48.092.274.091.617.091.892.183.137 0 .274 0 .48.092.48.091.96.091 1.44.183.138 0 .344.091.48.091.207 0 .412.092.618.183l1.03.275c.342.092.617.275.891.55.412.275.755.64 1.098 1.007.823.824 1.646 1.649 2.538 1.74.55.092 1.372-.183 2.196-.55.274-.09.549-.274.823-.366 1.166-.55 2.264-1.19 3.019-1.465.205-.091.48-.183.686-.275.068-.091.205-.091.274-.183.892-.55 1.51-1.099 2.538-1.007.48 0 .96.183 1.578.458.069.091.206.091.275.183 1.303.824 2.127 2.29 3.018 3.663.55.916 1.098 1.832 1.784 2.565a24.45 24.45 0 0 1 3.225-1.924c1.715-.916 3.43-1.74 5.214-2.564 1.783-.824 3.567-1.649 5.282-2.564.549-.458 1.166-.733 1.784-1.008.343-.091.617-.275.96-.275.138 0 .343-.091.48-.091.755 0 1.098.55 1.441 1.007l.138.183.274.367c.069.091.137.091.206.183.274.091.549.183 1.029 0 1.51-.55 1.784-1.557 1.784-2.564V280.588c0-.274-.069-.55-.069-.824v-.55c0-1.099.412-1.831 2.676-1.648.343 0 1.029.275 1.852.641.48.183 1.029.458 1.578.733.206.091.343.183.549.274 1.235.642 2.332 1.374 2.813 1.74.96.733 1.646 2.015 2.4 3.206.207.275.344.55.55.916.548.824 1.234 1.648 1.99 2.106.685.367 1.303.55 1.851.55 1.098 0 2.059-.55 3.02-1.008.205-.091.48-.274.685-.366.206-.091.48-.183.755-.183.274-.092.549-.092.823-.092.48 0 .96 0 1.372.092 2.744.458 3.705 3.205 6.86 3.389 2.333.091 4.391-1.466 6.45-3.39.137-.182.343-.274.48-.457.343-.275.617-.641.96-.916.138-.183.343-.366.48-.458.344-.366.618-.64.961-1.007l1.44-1.374c1.304-1.19 2.608-2.198 4.048-2.656.343-.092.686-.183 1.098-.275.343-.091.618-.091.96-.183h.206c.96-.091 1.853-.183 2.745-.366.343 0 .686-.092 1.029-.092.343-.091.754-.091 1.097-.183.618-.092 1.235-.275 1.853-.458 2.744-.824 6.654-1.19 9.056.824.137.092.343.275.48.458.137.092.206.275.343.367 1.51 2.106 2.127 6.685 5.557 4.67 1.715-1.007 2.607-4.854 4.253-6.044.069-.092.138-.092.206-.183.069-.092.206-.092.275-.092.137-.091.274-.091.411-.091.55 0 1.167.274 1.853.824.96.824 1.097 2.106 1.372 3.022.068.183.137.458.274.55.137.183.275.274.48.366.206.092.412.092.686 0 .138 0 .343-.092.48-.092.207-.091.412-.091.618-.183.343-.091.618-.366.823-.55.275-.274.48-.549.618-.824.206-.274.343-.64.48-1.007.137-.366.275-.733.412-1.007.137-.367.274-.733.411-1.008.069-.183.138-.366.206-.458.412-.732.892-1.374 1.647-1.557.206.825.411 1.466.617 2.015 1.166 2.84 2.95 3.206 5.626 3.206.549 0 1.097 0 1.646-.092h1.853c1.097 0 2.538.458 4.047 1.007.412.092.755.275 1.167.367.411.091.823.275 1.235.366.548.092 1.097.275 1.646.275.48 0 .892 0 1.235-.092.069 0 .206-.091.274-.091.55-.183 1.03-.55 1.441-1.1-.412 1.74 0 2.657.755 3.115.137.091.343.183.48.274.206.092.48.184.755.275.617.183 1.303.275 1.852.458.274.092.549.183.755.275.274.091.548.275.892.458l.411.274c1.921 1.008 3.842 2.198 6.175.733.48-.275.891-.641 1.303-1.099.618-.641 1.235-1.374 1.921-2.015.686-.64 1.372-1.19 2.195-1.282.412-.092.755-.092 1.098-.092h.549c.549.092 1.029.184 1.51.458.342.092.617.275.96.458.48.275.892.55 1.372.825.755.458 1.51.824 2.401 1.099.206.091.549.183.892.183 1.029.183 2.401.458 3.773.55.48 0 .892.09 1.372.09h.686c.412 0 .824 0 1.167-.09h.068c.55-.092.96-.184 1.304-.275 1.372-.642 1.783-1.924 1.715-3.298-.069-1.282-.48-2.747-.892-4.03-.206-.549-.343-1.007-.549-1.373-.48-1.282-1.235-2.656-1.852-4.03-.549-1.099-1.03-2.198-1.304-3.205-.343-1.19-.411-2.473-.411-3.664 0-.824.068-1.648.068-2.472 0-.458.069-.825.069-1.283v-.64c0-.642 0-1.283-.069-1.924-.137-1.099-.411-1.923-.754-2.564-.138-.275-.275-.458-.412-.733l-.48-.641-.343-.458c-.069-.092-.137-.275-.275-.366a1.294 1.294 0 0 1-.205-.367 7.905 7.905 0 0 1-.755-1.648c-.686-2.29-.275-3.938.617-5.312.275-.367.55-.824.824-1.19.274-.367.617-.642.891-1.008.206-.183.412-.458.618-.641.206-.184.343-.367.48-.55.343-.366.686-.733.96-1.19.138-.184.275-.367.412-.642.686-1.099 1.167-2.014 1.372-2.93.138-.55.275-1.1.275-1.649 0-2.839-2.401-4.579-4.391-6.502l-.617-.55c-.138-.183-.275-.275-.412-.458a8.952 8.952 0 0 1-1.03-1.374 4.087 4.087 0 0 1-.548-1.556c0-.184-.069-.367-.069-.55 0-.55.069-1.19.343-1.923.412-1.19 2.264-2.29 4.185-3.206.412-.183.824-.366 1.235-.64.824-.367 1.578-.734 2.196-1.008.137-.092.274-.183.411-.183.412-.184.824-.458 1.235-.642a18.93 18.93 0 0 0 1.166-.549c.343-.183.618-.366.96-.55l.413-.274.617-.55c.206-.183.343-.366.549-.55h.068c.206-.274.412-.549.55-.915l.41-1.1c.893-3.205.618-4.395 1.51-5.403.069-.091.206-.183.275-.274.548-.458 1.44-1.008 2.881-1.649.069 0 .137-.092.137-.092.48-.274 1.03-.55 1.578-.915.206-.092.412-.275.618-.458.48-.367.96-.733 1.372-1.1.48-.457.892-.824 1.303-1.373.206-.275.48-.55.686-.916.275-.366.48-.824.618-1.19.137-.459.274-.825.274-1.283.892 0 .892-.275.823-.458a9.902 9.902 0 0 1-2.332-.55z"/><path fill="#29291F" d="M224.5 104.872v.256"/></g></svg>