<svg xmlns="http://www.w3.org/2000/svg" width="359.9" height="399.883">
  <path fill="none" d="M0 0h359.9v399.883H0z" pointer-events="none"/>
  <linearGradient id="a" x1="1057.155" x2="1169.26" y1="581.524" y2="581.524" gradientUnits="userSpaceOnUse">
    <stop offset="0" stop-color="#bdbebf"/>
    <stop offset=".262" stop-color="#dddedd"/>
    <stop offset=".535" stop-color="#6c6e71"/>
    <stop offset=".775" stop-color="#c6c7c8"/>
    <stop offset="1" stop-color="#a8aaac"/>
  </linearGradient>
  <path fill="url(#a)" d="M1075.7 622.8l-.3-.1-1.8-.4-.2-1.8c-.3-2.6-.9-3-1.5-3.2-.3-.1-.7-.2-1.1-.3-1.9-.4-5-1.2-6-4.4-.5-1.7-.3-3.5-.2-5.1.1-1.2.2-2.4 0-3.2-.2-.8-.7-1.1-2.2-2l-.4-.3c-4-2.4-5.8-5.6-4.7-8.9.5-1.5 1.6-2.4 2.3-3.1.3-.3.6-.5.7-.7 1.4-1.6 1.7-2.4 1.6-3.5 0-.2-.4-.8-.6-1.2-.6-1-1.4-2.3-1.4-3.9.1-3 2.5-4.8 4.7-6.4 1.2-.9 2.6-1.9 2.9-2.7.5-1.5.1-2.6-.7-4.6-.6-1.4-1.2-3.1-1.2-5 0-2.8 1.7-4.5 4.6-4.5.5 0 1 0 1.5.1.4 0 .8.1 1.2.1h1.2c1.7 0 3.4.1 5.4.9l.7.3c1.8.8 3.3 1.4 4.7 1.4.8 0 1.6-.2 2.5-.7 2.2-1.1 4.4-3.4 6.3-5.3l.7-.7c2.3-2.4 4.9-4.8 7.8-6.9 1.6-1.1 2.9-2.1 4.4-3.5l.4-.4c1.3-1.4 2.4-2.4 3.6-2.7.5-.1.9-.2 1.3-.2 1.1 0 1.8.5 2.2.9 2.8.7 5.9 1.8 8.2 5.1.5.7.8 1.3 1.1 1.9.6 1.1.9 1.6 1.8 2.1.7.4 1 .4 1.3.4.4 0 .8-.1 1.4-.4 2.2-1.2 3.1-1.5 5.8-1.5h.1c2.6 0 4 .6 6.1 2.1 3.3 2.3 4 3.6 4.3 4 .6 1 .7 2.1.8 2.9.1.8.1.9.2 1 .1 0 .1 0 .2-.1.5-.2 1.2-.5 2.1-.6 1-.1 2.4-.2 3.5-.2s2.1.1 2.9.2c4.1.8 6 4.7 7.4 7.6.2.5.5 1 .7 1.5.7 1.2 1.1 1.7 2.4 2.1.2.1.5.1.9.1.5 0 1 .1 1.7.3.8.2 1.3.6 1.6.9l.1.1c-.1-.1-.5-.3-.9-.3h-.2l1.6 4.7c-1.4.6-2.8 1.3-4.1 2-1.9 1-3.8 2-6 2.8-.9.3-1.7.8-2.6 1.4-.5.3-1.1.7-1.7 1-2.4 1.3-4.9 2.3-7.4 3.3-1.6.6-3 1.2-4.5 1.9-3.3 1.5-6.8 3-10.1 4.3-4.3 1.8-8.8 3.6-13 5.7-2.3 1.1-4.4 2.5-6.6 3.9-.8.5-1.7 1.1-2.5 1.6-1.5 1-3.1 1.8-4.6 2.5-1.4.7-2.7 1.4-3.9 2.1-1.2.7-2.4 1.4-3.6 2.2-3.7 2.2-7.6 4.5-11 7.1-.3.2-.6.5-1 .8-2.4 1.9-5.6 4.4-9 4.5-.4.4-1 .7-1.8.7h-.1z" transform="translate(-1005.325 -472.63)"/>
  <linearGradient id="b" x1="1012.073" x2="1087.901" y1="663.998" y2="663.998" gradientUnits="userSpaceOnUse">
    <stop offset="0" stop-color="#bdbebf"/>
    <stop offset=".262" stop-color="#dddedd"/>
    <stop offset=".535" stop-color="#6c6e71"/>
    <stop offset=".775" stop-color="#c6c7c8"/>
    <stop offset="1" stop-color="#a8aaac"/>
  </linearGradient>
  <path fill="url(#b)" d="M1084.5 711.9c-.9 0-1.8-.4-2.6-.9-.6-.3-1-.8-1.3-1h-1c-.3 0-.9 0-1.4-.2-3.6-.9-7.4-3.7-9.3-6.1-1.3-1.6-2.6-2.1-5-2.1h-1.1c-.9 0-1.8.4-2.9.8-1.4.5-2.9 1.2-4.7 1.2-.9 0-1.8-.2-2.6-.5-4-1.4-6.5-5.1-6.5-9.6v-2.2-2.5c0-1-.2-1.2-1.5-2.2-.4-.3-.7-.6-1.2-.9-.6-.6-1.3-1.1-2-1.6-1.6-1.3-3.2-2.6-4.7-4.1-1.3-1.3-4.2-4.2-6.1-4.7-.5 0-2 .1-2 .1l-.3-.1c-.8-.2-1.4-.6-1.8-.9-.2.1-.4.3-.5.4-.6.4-1.3.9-2.2 1.2-.9.3-1.9.4-2.8.4-4 0-7.2-2.1-8.2-5.4l-.8-2.5 2.6-.6c5.1-1.2 8.1-6.6 11-11.7.6-1.2 1.3-2.2 1.9-3.3l.1-.2c1.7-2.8 4-6.5 8.2-7.5.6-.1 1.2-.2 1.8-.2.7 0 1.4.1 2.1.1.6.1 1.1.1 1.6.1h.8c0-.5.1-1.1.3-1.9.2-.9.7-1.5 1-1.9 0-.1 0-.2-.1-.3-.1-.7-.3-1.6 0-2.7.4-1.3 1.1-1.8 1.5-2.1h.1c.1-.2.2-.4.3-.7.3-.6.6-1.3 1.2-1.9.9-1.1 2.1-1.8 3.1-2.4.5-.3.9-.5 1.3-.8l1.2-.9 3.6-2.7c.4-.3.8-.7 1.3-1 .8-.7 1.7-1.4 2.8-2 1.9-1 3.4-1 4.7-1.1.6 0 1.1 0 1.7-.1.2 0 .3 0 .3-.1.1-.1.1-.2.2-.3.3-.5.7-1.2 1.5-2 .7-.7 5.3-4.3 8.3-4.3.3 0 .7 0 1 .1l1.8.5v1.9c0 10.8.4 23.5 3 35.8.8 3.6 1.3 7 1.6 10 .1 1.1.3 2.2.4 3.4.2 2 .4 4 .8 5.9.3 1.5.7 3 1.1 4.6.7 2.8 1.4 5.7 1.6 8.6.1 2.3.1 4.7 0 6.9v3.5c0 1.1.1 2.2.1 3.3.1 2.4.2 4.9-.1 7.4-.2 1.4-.6 4-3.2 4z" transform="translate(-1005.325 -472.63)"/>
  <linearGradient id="c" x1="1058.241" x2="1170.189" y1="754.696" y2="754.696" gradientUnits="userSpaceOnUse">
    <stop offset="0" stop-color="#bdbebf"/>
    <stop offset=".262" stop-color="#dddedd"/>
    <stop offset=".535" stop-color="#6c6e71"/>
    <stop offset=".775" stop-color="#c6c7c8"/>
    <stop offset="1" stop-color="#a8aaac"/>
  </linearGradient>
  <path fill="url(#c)" d="M1100.6 802.4c-3 0-6-1.9-7.9-3.6l-1.8-1.5c-1.5-1.2-3-2.4-4.4-3.9-.3-.3-.6-.6-.9-1-.4-.4-.8-.9-1.2-1.2-.2-.1-.5-.3-.9-.5-1-.5-2.4-1.1-3.2-2.6-.7-1.3-.7-2.7-.6-3.7v-1.1c-.1-.5-.9-1.6-1.3-1.9-.2-.2-.4-.2-1.1-.2-.6 0-1.4-.1-2.3-.3-.9-.3-1.6-.6-2.3-.8-1-.4-1.7-.7-2.8-.7-.9 0-1.9-.3-3.1-.6-1.3-.3-2.8-.7-3.8-.7h-.5l-3.8 5.1-.6-6.4c-.4-3.6 2.7-7.2 4.8-9.5.2-.2.4-.4.6-.7.5-.6 1.1-1.2 1.6-1.8 1.5-1.6 2.9-3.1 3.3-4.7.3-1.3 0-2.4-.6-4.2-.5-1.5-1.1-3.2-1.1-5.3v-1.1c0-1.8-.1-3.6 1.3-5.8.6-1 1.3-1.7 1.9-2.4.4-.5.9-.9 1.2-1.4 1.7-2.4 2.5-5.1 2.2-7.7 0-.2 0-.3-.4-.7-.5-.6-1.2-1.4-1.5-2.8-.3-1.7.3-3.7 2.1-6 1.5-2 3.2-4.2 5.4-6.4.4-.4 1.5-1.5 1.7-2.2.1-.5.1-1.1.1-1.8 0-1-.1-2.2.3-3.4l.4-1.4 2.5-.5h.3c2.5 0 4.7 2.1 6.6 3.9.6.5 1.1 1 1.4 1.3 1.1.8 2.2 1.4 3.4 2 .3.2.7.3 1 .5 1.6.9 3 2 4.3 3 1.2.9 2.3 1.8 3.4 2.5 5.4 3 9.9 6.5 14.7 10.3l.6.5c2.9 2.3 6.2 4 9.7 5.8 3 1.6 6 3.2 8.8 5.1l5.4 3.6c1.6 1 3.2 2.1 4.8 3.2 1.3.9 2.8 1.7 4.3 2.6 1.7.9 3.4 1.9 5.1 3l1 .7c1.5 1.1 3.1 2.2 4.6 3.3.3.2.6.4.9.7 2 1.4 4.8 3.4 5.4 6.1l.4 2.2-2.1.7c-.7.2-1.5.4-2.4.4-.4 0-.9 0-1.3-.1h-1.3c-1 .1-2.4.3-4.2.8-1.6.4-3.1 1.7-4.7 3.1-1.6 1.3-3.2 2.7-5.3 3.7-1.7.8-3.1.9-4.7.9H1142.6c-.1.8.2 1.4.9 2.5.1.1.4.5.6.7 1.3 1.5 2.7 3.1 2.4 4.9-.3 2.3-2.6 3.1-3.9 3.5-.3.1-.7.3-.9.3-1.2.8-1.6 1.3-2.1 2.4-.3.6-.5 1.5-.7 2.5-.6 2.7-1.5 6.9-6 7.5-1.5.2-3.2.3-5 .3-1.8 0-3.6-.1-5-.3-3.1-.4-4.9-2.2-6.5-3.8-.7-.8-1.4-1.5-2.3-2-.8-.5-1.8-.8-2.7-.8-.9 0-1.7.3-2.4.7-.8.6-1.8 1.6-2.4 2.3-.1.2-.3.6-.5.9-.4.9-1 2.2-2.3 3-.7.6-1.9 1-3.2 1z" transform="translate(-1005.325 -472.63)"/>
  <linearGradient id="d" x1="1165.081" x2="1247.914" y1="765.168" y2="765.168" gradientUnits="userSpaceOnUse">
    <stop offset="0" stop-color="#bdbebf"/>
    <stop offset=".262" stop-color="#dddedd"/>
    <stop offset=".535" stop-color="#6c6e71"/>
    <stop offset=".775" stop-color="#c6c7c8"/>
    <stop offset="1" stop-color="#a8aaac"/>
  </linearGradient>
  <path fill="url(#d)" d="M1204 802.2c-3.3 0-5.6-2.4-7.3-4.2-.2-.3-.5-.5-.7-.7-.8-.8-1.6-1.5-2.5-2.3-1.9-1.6-3.8-3.3-5.3-5.6-1.6-2.5-3.3-3.7-6.2-4.4-.5-.1-1-.2-1.6-.3-1.1-.1-2.3-.3-3.4-.7-1.3-.5-2.3-1.4-3.1-2.2-.4-.4-.8-.7-1.1-1-2.7-1.9-4.4-4.7-5.9-7.2l-.2-.4c-1.7-2.9-1.7-4.8-1.6-7.4v-1.2l.1-3.2 3 .9c.5-.1 1.6-.5 2.2-.8.8-.3 1.6-.7 2.3-.8 2.2-.5 3.9-1.2 6.4-2.2 1-.4 1.9-.8 2.9-1.2 3.4-1.4 6.9-2.9 10.4-3.7 4.8-1.1 10.5-2.4 15.9-4.4 2.5-.9 5-1.7 7.4-2.4 5.2-1.6 10-3 14.6-5.8 1.4-.8 2.6-1.8 4-2.8 1.3-1 2.6-2 4-2.8.9-.5 1.2-.7 1.8-.9.2 0 .4-.1.7-.2.2-.1.5-.2.7-.3.8-.3 1-.3 1.2-.6l4.5-5.3-.1 7c0 2.2-.9 4.3-1.7 6.1-.6 1.4-1.2 2.8-1.3 4 0 .3.3.8 1 1.5.1.2.3.3.4.5 2.2 2.7 2.4 3.8 2.5 7.2 0 4.6-2.5 8.9-4.9 13-1.2 2-2.3 4-3 5.7-.2.6-.6 1.2-.8 1.8-.3.6-.6 1.2-.7 1.6-.1.3 0 .6.4 1.4.3.6.6 1.4.7 2.4.5 4.2-.7 7.2-4 9.7-3.1 2.2-6.5 2.5-9.7 2.6H1223.8c-.9-.1-1.6-.5-2-.7-.1 0-.2-.1-.2-.1h-1.1c-.4 0-1 0-1.5-.2-1.1-.2-1.7-.8-2-1.1h-.3c-.5 0-.9.9-1.5 2.6-.2.6-.5 1.3-.8 1.9-.1.2-.2.3-.2.5-.7 1.5-1.4 2.9-2.4 3.8-.8.7-1.8.9-2.7 1.1-.2 0-.4.1-.6.1l-.1.1c-.4.4-1 .9-2.1 1.3-1 .2-1.7.3-2.3.3z" transform="translate(-1005.325 -472.63)"/>
  <linearGradient id="e" x1="1188.236" x2="1277.072" y1="644.401" y2="644.401" gradientUnits="userSpaceOnUse">
    <stop offset="0" stop-color="#bdbebf"/>
    <stop offset=".262" stop-color="#dddedd"/>
    <stop offset=".535" stop-color="#6c6e71"/>
    <stop offset=".775" stop-color="#c6c7c8"/>
    <stop offset="1" stop-color="#a8aaac"/>
  </linearGradient>
  <path fill="url(#e)" d="M1251 716.7c-.9 0-1.7-.3-2.3-.9-3.1-.3-3.9-3.5-4.2-5-.1-.4-.2-1-.3-1.1-.6-1.1-.8-2-1-2.8-.1-.4-.2-.7-.3-1.1-.1-.1-.3-.4-.4-.5-.4-.5-.9-1.1-1.1-1.9-.5-1.5-.9-3-1.3-4.5-.3-1.2-.7-2.5-1.1-3.8-.5-1.7-.9-3.4-1.2-5.1-.2-1.1-.4-2.2-.7-3.3-.6-2.5-2.2-6.1-3.2-8.3-.3-.7-.7-1.5-1.2-2.2-.4-.7-.8-1.4-1.2-2.2-.4-.8-.6-1.5-.7-2.1-.1-.3-.2-.6-.3-1-.1-.2-.4-.7-.6-1.1-.3-.5-.7-1.1-1-1.7-.5-1.2-.7-2.2-.9-3.2-.1-.4-.1-.7-.2-1.1-.4-1.7-1.4-3.6-2.4-5.3-.3-.6-.7-1.2-1-1.8-1-2-1.7-4.3-2.4-6.5-.3-1.1-.6-2.1-1-3-.5-1.4-1.1-2.8-1.8-4.3-.6-1.3-1.2-2.7-1.7-4.1-.7-1.7-1.2-3.5-1.8-5.3-1.4-4.4-2.8-8.6-5.2-12-1.2-1.7-1.8-3.6-2.3-5.3-.3-1.1-.7-2.2-1.1-3.2-1-2-2.4-3.8-3.9-5.8-.8-1-1.6-2.1-2.3-3.2-.7-1.1-1.5-2.2-2.3-3.3-2.1-3.1-4.3-6.3-6.3-9.4-1.1-1.9-1.3-4.1-1.4-6-.1-1.3-.2-2.6-.5-3.4l-2.5-5 5.2 1.5c.3-.1 1-.4 1.4-.6.3-.2.6-.3.9-.4 1.7-.7 3.5-1.1 5.2-1.1.6 0 1.3.1 1.9.2 1.2.2 2.5.5 3.6.8.6.1 1.3.3 1.9.4.4.1.7.2.9.2 2.2-4.5 5-4.7 7.4-4.9.9-.1 1.8-.1 2.8-.4 2.2-.6 3.8-.8 6.2-.8h.2c2.4 0 3.3.5 4.6 1.8.2.2.5.5.8.7.3.3.7.5 1.2.7.6.3 1.4.7 2.2 1.4.5.4.9.8 1.3 1.3.6.6 1.4 1.5 1.9 1.6.3.1.7.2 1.4.2.5 0 1.1 0 1.6-.1.6 0 1.2-.1 1.7-.1.3 0 .9-.1 1.5-.1.8-.1 1.8-.2 2.7-.2 1.1 0 1.9.1 2.6.4 1.4.6 3.5 2.4 2.1 7.7-.1.5-.2 1-.3 1.7-.2 1.5-.5 3.2-1.4 4.7-.4.6-.8 1.1-1.2 1.6.1 0 .2-.1.3-.1 1-.4 2.1-.7 3.5-.7.3 0 .7 0 1 .1 2.9.4 4.8 2.5 6.4 4.2.2.2.3.4.5.5 1.6 1.7 2.3 1.8 4.2 1.8H1267.2c3.4 0 3.8 2.7 4 4 .2 1.2.1 2.5.1 3.6v3.1c0 1 .1 2.1 0 3.2s-.4 2.1-.6 2.9c-.2.7-.4 1.2-.4 1.7v.8c.1.1.3.4.4.5.7.8 1.2 1.4 1.3 2.3.3 2.4-1.2 3.8-2 4.7l-.5.5c-.9 1.1-1.8 2.3-2.7 3.5-.8 1.1-1.7 2.2-2.6 3.3-.3.3-.5.6-.7.9-1.6 2-3.4 4.2-6.1 5.3 0 .3.1.6.1.8.2 2 .4 4.2-.8 5.9-.6.9-1.5 1.4-2.5 1.8.7.3 1.3.8 1.9 1.3.3.2.6.5.8.6.3.1.6.2 1.1.2.7.1 1.6.2 2.5.7.8.4 1.7.7 2.6 1.1 4.1 1.6 8.7 3.5 11.4 7.9 1.5 2.4 1.9 5.1 1.3 8-.1.6-.3 1-.5 1.3.7.5 2 1.6 1.8 4.1-.2 2.2-1.8 4-3.3 5.6-.4.5-.8.9-1 1.2-.1.1-.2.3-.3.5-.4.6-.9 1.6-2 2.3-1 .6-1.9.8-2.5.9-.2 0-.4.1-.5.1-.7.4-2.8 2.5-3.3 3.4-.6.9-.5 2.9-.4 4.5 0 .6.1 1.3.1 1.9v.3c0 1.2 0 2.4-.3 3.8l-.2 1.2-.4.2.1 1.4-.1.3c-.1.7-1.1 2.9-1.8 3.7-.9 1-1.8 1.3-2.4 1.5-.1 0-.3.1-.3.1s0 .1-.1.3c-.1.4-.4 1-.8 1.7-.4.6-.9.9-1.2 1.2l-.2.2c-.1.2-.1.3 0 .5.1 1.4-.3 2.3-1.5 3.4-.3.3-1.9 1.6-3.7 1.6z" transform="translate(-1005.325 -472.63)"/>
  <linearGradient id="f" x1="1074.126" x2="1347.303" y1="645.105" y2="645.105" gradientUnits="userSpaceOnUse">
    <stop offset="0" stop-color="#bdbebf"/>
    <stop offset=".262" stop-color="#dddedd"/>
    <stop offset=".535" stop-color="#6c6e71"/>
    <stop offset=".775" stop-color="#c6c7c8"/>
    <stop offset="1" stop-color="#a8aaac"/>
  </linearGradient>
  <path fill="url(#f)" d="M1325.3 811.6c-1.1 0-2.1-.1-3.2-.1-.9-.1-1.8-.1-2.6-.1h-.2c-3.1 0-5.6-.8-8-1.6l-.4-.1c-3-1-5.6-2-8.3-4.2-2-1.6-2.2-3.1-2.5-4.4-.1-.3-.1-.6-.2-.9-.1-.5-.4-1.1-.7-1.8-.3-.7-.6-1.5-.8-2.2-.1-.5-.3-1.1-.4-1.7-.3-1.6-.7-3.5-1.5-4.5-.4-.5-1.3-1.3-1.8-1.7-.3-.2-.5-.2-1-.2h-1.4c-.5 0-1 0-1.5-.1-.8-.1-1.5-.3-2.1-.5-.8-.2-1.4-.4-2.2-.4-3.9-.1-4.8-2-5.8-4.1l-.1-.2c-.7-1.5-.8-2.7-.9-3.7 0-.5-.1-1-.2-1.5-.1-.6-1-2-1.4-2.6l-.2-.4c-.3-.6-1-1.2-1.7-1.8-1.5-1.3-3.5-3.1-3.4-6.1 0-2.2 1-3.3 1.7-4.2.2-.3.5-.6.6-.9.6-.9.6-1.3.5-2.7v-.6-.9c0-2.6 0-3.9-1.1-5.4-.9-1.2-2.1-1.7-4.2-1.7-1 0-2 .1-3.1.2-1.2.1-2.4.2-3.6.2-1.5 0-2.9-.2-4.1-.6-2.7-.9-4.4-3.4-5.9-5.7-.8-1.2-1.6-2.4-2.4-3.1-.8-.6-1.3-.9-2.3-1.3-.3-.1-.6-.2-.9-.4-.9-.4-1.6-1.2-2.3-1.9-19.1 16.1-75.2 28.9-77.7 29.5l-1 .2-85.3-56.5-7.7-92.8 86.4-48.3c0-.1 0-.2.1-.3l.4-1.6 1.6-.3c3.7-.8 5.7-4.4 7.8-9.1.6-1.3.6-2.9.5-4.8V552v-1.2c0-.9-.1-1.9 0-2.9.2-1.2.5-1.9.8-2.4.1-.3.2-.4.3-.6.5-1.8-2.2-3.1-6.7-4.7-.8-.3-1.6-.6-2.2-.8-1.7-.7-3.1-1.5-4.3-2.4l-.1-.1-.1-.1c-.4-.4-.8-.7-1.1-1.2-.1 0-.2 0-.3-.1l-.8-.1-.6-.6c-1.8-2-3-4.6-3.6-6.4-.1-.3-.2-.6-.4-.9-.2-.6-.5-1.3-.7-2-.5-1.9.2-3.2.6-3.9.1-.1.1-.3.2-.3 0-.2.1-.5-.1-.7-.2-.2-.8-.6-2.2-.8-4.4-.4-5.4-2.5-6.6-5l-.1-.2c-.4-.9-.8-1.7-1.2-2.6l-.1-.1c-.5-1.1-.6-1.8-.6-2.5 0-.3-.1-.6-.2-1s-.4-1.1-.6-1.6l-.3-.9c-.2-.5-.3-1-.5-1.5-.2-.7-.4-1.4-.7-1.9-.2-.5-.4-.9-.6-1.2-.7-1.5-1.4-3-1.3-5.7.1-2.4 1.3-3.8 2.1-4.8.5-.6.8-.9.9-1.4.1-.5.2-2.9 0-4.5-.3-.6-.5-1.2-.6-1.8l-.8-4.6 4.3 1.9c1.3.6 1.7 1.8 1.9 2.7.3.4.6.8 1 1.2 1 1.1 2.1 2.4 2.6 4.2.5 1.7.7 3.2.9 4.6.1.6.2 1.3.3 2 .5.6.9 1.3 1 2.1v.2s-.1 1.3-.1 1.8c.1.6.6 1.1 1.4 1.9 1.3 1.3 2.6 1.9 4.4 2.7.7.3 1.5.7 2.3 1.1 2.8 1.4 5.8 3 9.3 4.7.3.1.6.3.9.5 2.8 1.3 6.6 3.2 8.4 5.6 1.4 1.9 1.5 4.1 1.5 5.8 0 1.2.1 2.2.5 3 .5 1 1.8 2.3 3.3 3.7.3.2.6.4.9.7 1.1.7 2.4 1.6 3.1 3.3.3.8.5 1.4.7 2 .3.9.4 1.3.9 1.8.1.1.2.2.4.3.6.4 1.6 1.1 2.1 2.7.6 2 0 3.8-.4 5.1-.1.4-.2.7-.3 1-.1.4-.3.9-.4 1.5-.2.6-.6 1.7-.7 2.4.3-.3.6-1.1.9-1.6.3-.6.5-1.1.9-1.7.7-1.1 2-2.4 2.6-2.9 1.3-1.1 2.4-2.1 3.4-3.6.3-.4.6-.8.8-1.2.6-.9 1.2-1.8 2.1-2.8.7-.7 1.5-1.3 2.2-1.9.7-.5 1.3-1 1.7-1.4.2-.2.3-.5.5-.9s.4-.9.7-1.3c.7-1.1 1.7-2 2.6-2.9.3-.3.6-.5.8-.8l.3-.3c1.2-1.2 2.3-2.4 5.1-2.5h4.3l6.3-.3-4.4 4.6c-1.1 1.1-2.3 2.2-3.5 3.2-2.8 2.3-5.4 4.6-5.8 7.6-.1.6-.1 1.1-.2 1.7-.5 4.6-1 9-3.9 13.4v.1c-1.2 1.8-2.3 3.6-3.4 5.4-.6 1-1.2 1.7-1.8 2.4-.4.5-.9 1-1.2 1.5-.2.3-.2.5-.4.8-.4 1-.8 2-2.4 3-1.2.8-2.2 2-2.5 3.3-.3.8-.2 2-.1 3.2.1 1.5.2 3.1-.2 4.8l61.3 139.1-.1.2c.6.4 1.9 1 2.6 1.2.8.3 1.4.6 2 .9 1.7 1 3.3 2.3 4.7 3.7.8.8 1.2 1.6 1.7 2.3.3.5.5.9.8 1.2.9 1 1.8 1.1 3.9 1.1.8 0 1.8 0 2.8.1 2.6.3 4.4 1.7 6.1 2.8.5.4 1 .7 1.5 1.1 3.1 1.9 4.8 4.8 6.4 7.3 1.5 2.4 2.8 4.5 5 5.8 2.9 1.6 6.4 3.7 6.7 8.8.1 1.3 0 2.7-.2 4-.1 1.7-.3 3.4 0 4.7.3.3.8.9 1.1 2 .2.9.1 1.8 0 2.4 0 .2-.1.5-.1.6.1.3.7 1.2 1.1 1.6 1.2 1.1 3.3 2.1 5.2 3l1.8.9c.6.3 1.2.6 1.9.9.7.3 1.4.6 2.1 1 .1 0 .5.2.8.3 1.4.4 2.7.8 3.4 1.8 1.2 1.6.9 4 .4 6.3-.1.6-.4 1-.5 1.4-.1.2-.1.3-.2.4v1.7c0 2.4.4 3.1 2.5 4.4 2.3 1.4 3.1 2.6 3.8 5.3.3 1.5.5 2.1 1 3.3.2.6.4 1.1.5 1.5.1.3.2.6.2.8 0 0 .1.1.3.1h.6c.4 0 .9 0 1.4-.1.6-.1 1.2-.1 1.8-.1h.5c1.2.1 2.1.3 2.9.6.6.2 1.2.4 1.8.4h1.2c.9 0 1.9-.1 2.9-.1l9.5-.5-8.1 5.1c-1.3.8-2.9 1.3-4.2 1.7-.4.1-.7.2-1 .3-.6.2-1.2.5-1.9.8-.8.4-1.7.8-2.7 1.1-.7.3-2.1.5-3.8.5z" transform="translate(-1005.325 -472.63)"/>
  <path d="M240.075 262.17c1.1-1 2.5 2 3.8 2.6 1.5.7 2.4.9 3.7 2 2.6 2.2 4.3 7.2 7.5 8.3 5.3 1.7 12.4-2.5 16.2 2.7 1.8 2.4 1.6 4.7 1.6 7.8 0 2 .2 3-.9 4.7-.9 1.5-1.9 1.9-1.9 3.7 0 2.9 3.3 4.2 4.8 6.5.6 1 1.6 2.6 1.9 3.7.4 1.9 0 2.9.9 4.7 1 2 1.3 2.8 3.8 2.9 1.9 0 2.9.7 4.7 1 1.8.3 3-.4 4.7.6.9.5 2 1.5 2.6 2.3 1.4 1.9 1.7 4.9 2.3 7.1.3 1.1 1.2 2.6 1.5 4 .4 1.9.2 2.7 1.8 4 2.4 1.9 4.7 2.8 7.5 3.7 2.5.8 4.8 1.7 7.7 1.6 2.9 0 6.6.6 9.4-.2 1.5-.5 2.9-1.4 4.5-1.9 1.3-.4 3.3-.8 4.6-1.7-1.4.1-3 .2-4.4.1-1.7-.1-3-.9-4.7-1-1.4-.1-3.3.4-4.7.1-2.4-.6-2.1-2.2-2.8-3.8-.6-1.4-.8-2.2-1.2-3.7-.5-2.1-1-2.8-2.6-3.8-2.8-1.7-3.7-3.2-3.7-6.5v-1.9c.1-.9.6-1.4.8-2.1.2-1 .7-3.4 0-4.3-.4-.5-2.7-1-3.4-1.3-1.3-.6-2.7-1.2-4-1.8-2.3-1.2-5.6-2.5-7.5-4.2-.7-.6-1.7-2-1.9-3-.2-.9.3-2 .1-2.9-.2-.9-.8-.9-1-1.8-.7-2.8.2-6.5.1-9.4-.2-3.7-2.6-5.2-5.4-6.8-5.3-3.1-6.2-9.8-11.4-13.1-2.2-1.4-3.9-3.2-6.6-3.5-3.1-.4-5.9.6-8.2-2-.9-1-1.3-2.3-2.3-3.3-1.2-1.2-2.7-2.4-4.2-3.3-1.5-.9-6.5-2.2-5.8-4.4l-61.6-139.7.3-.1-.5.1c.3-.1.5-.1.8-.2.7-2.6-.4-5.5.4-8.1.6-1.9 2-3.6 3.6-4.7 1.6-1 1.1-1.6 2-3 .9-1.4 2.1-2.4 2.9-3.8 1.1-1.9 2.3-3.8 3.5-5.6 2.9-4.5 3.1-8.9 3.7-14.1.7-5.5 6.4-8.4 10-12.2-1.4.1-2.9 0-4.4 0-2 .1-2.4.8-3.7 2.1-1 1-2.3 2.1-3.1 3.3-.5.8-.8 1.6-1.3 2.4-1 1.3-2.9 2.2-4 3.5-1.1 1.2-1.8 2.4-2.8 3.7-1.2 1.6-2.4 2.7-3.8 4-.6.6-1.7 1.6-2.1 2.3-1.3 2-1.8 5.7-5.4 4.1-2.1-.9-.1-4.9.3-6.6.4-1.5 1.3-3.1.8-4.7-.4-1.2-1.1-1.2-1.9-2-1.4-1.4-1.3-2.8-2-4.5-.7-1.5-2.2-2.1-3.4-3.1-1.4-1.2-3.1-2.8-3.9-4.4-1.5-2.7 0-6.1-1.8-8.5-1.7-2.2-6-4.1-8.5-5.4-3.2-1.6-6.3-3.1-9.3-4.7-2.7-1.4-5.1-2-7.3-4.2-1-1-1.9-2-2.2-3.5 0-.6.1-1.3.1-1.9-.1-.5-.3-.9-.8-1.1-.5-2.6-.6-4.8-1.3-7.3-.7-2.5-3.7-4.1-4.1-6.5.9.4 1 6.3.6 7.4-.7 2.2-2.7 2.8-2.9 5.6-.1 2.7.7 3.6 1.7 5.8.5 1.1.8 2.4 1.2 3.6.3.7.8 2 1 2.7.3 1.3.1 1.9.7 3.1.4.9.7 1.7 1.2 2.6 1.2 2.5 1.6 3.5 4.7 3.8 2.8.3 5 1.5 4.5 4.5-.2 1-1.1 1.6-.8 3.1.2.9.7 1.9 1 2.8.6 1.8 1.6 3.9 3 5.5.5.1 1 .2 1.4.3.3.6.6 1.1 1.1 1.5 1.2.9 2.5 1.6 3.8 2.1 3.3 1.4 11.7 3.2 10.4 8.5-.3 1.2-.8 1.4-1 2.7-.2 1.2 0 2.6 0 3.8 0 2.6.4 5.1-.7 7.5-2 4.4-4.3 9.5-9.6 10.5-.1.6.2.8.9.7l-87.1 48.7 7.5 90 83.4 55.3c-.9-.1 59.5-13.8 76.9-30.1z"/>
  <path d="M73.056 150.132c3.4.7 7.2-2.8 9.6-4.7 4.6-3.5 9.8-6.4 14.8-9.4 2.8-1.7 5.7-2.9 8.5-4.6 3.1-2 6-4 9.3-5.7 7.6-3.8 15.5-6.6 23.2-10.1 3.8-1.8 8-3.1 11.7-5.1 1.6-.9 2.8-1.9 4.6-2.6 3.5-1.3 6.5-3.2 10-4.7-1 .2-1.1-.5-1.8-.7-.9-.2-1.7-.1-2.6-.4-2.1-.6-3.1-1.6-4-3.3-1.4-2.7-2.8-7.1-6.3-7.8-1.5-.3-4.1-.2-5.6 0-1.8.2-2.4 1.4-4 .3-1.8-1.3-.9-3.3-1.8-4.8-.6-1.1-2.5-2.5-3.5-3.2-1.7-1.2-2.6-1.7-4.7-1.6-2.3 0-2.8.2-4.6 1.2-1.8 1-3.3.9-4.9 0-2.3-1.2-2.5-3-3.8-4.8-1.8-2.5-4.3-3.5-7.1-4.2-1.1-.3-.4-1-2.1-.6-.8.2-2.3 1.9-2.9 2.5-1.5 1.4-2.9 2.5-4.7 3.7-2.7 1.9-5.2 4.2-7.5 6.6-2.2 2.3-4.8 5.1-7.7 6.6-3.8 1.9-6.6.5-10.1-1-2-.8-3.5-.7-5.6-.7-2.3 0-4.7-.9-4.7 1.9 0 3.5 3.1 6.3 1.7 10.3-1.1 3.3-7.3 5.1-7.4 8.4-.1 1.7 1.8 3 2 4.7.3 2.3-.7 3.8-2.1 5.5-.9 1-2.2 1.7-2.6 3-.9 2.7 1.6 4.8 3.6 5.9 1.6 1 3.2 1.7 3.7 3.7.7 2.6-.6 5.7.2 8.3.7 2.3 3.6 2.4 5.5 3 2.3.7 2.9 3 3.2 5.3-.1-.1.2-1 .5-.9z"/>
  <path d="M73.056 147.552c0 12.2.5 24.4 3 36.3.7 3.3 1.2 6.5 1.6 9.8.4 3.1.6 6.4 1.2 9.4.8 4.2 2.4 8.6 2.6 12.9.2 3.4 0 6.9 0 10.3 0 3.3.5 7 0 10.3-.3 2.1-.4 2.1-2.2 1.2-.7-.4-.7-1-1.6-1.2-.8-.2-1.8 0-2.7-.2-2.8-.7-6.2-3.1-8-5.2-2.3-2.8-4.7-3.2-8.2-3-3.3.2-5.8 2.9-9.2 1.7-3.2-1.2-4.8-4.1-4.9-7.3 0-1.6.1-3.1 0-4.7-.1-2.7-1.6-3.3-3.6-4.9-2.2-1.8-4.5-3.6-6.5-5.6-1.9-1.9-5-5-7.7-5.4-.6 0-1.3.1-1.9.1-.9-.2-.9-1-1.8-1.1-1.7-.2-2.6 1.3-4 1.7-2.9.9-6.9-.1-7.9-3.4 7.5-1.8 10.9-10.3 14.4-16.1 1.6-2.6 3.4-5.8 6.7-6.6 1.8-.4 3.9.3 5.7.1 3-.4 2.2-1.4 2.7-3.8.2-.9.8-.9 1-1.8.2-.9-.4-2-.1-2.9.3-.9.8-.8 1.2-1.6.5-.8.7-1.7 1.3-2.4.9-1.1 2.8-1.9 4-2.8 1.6-1.2 3.2-2.4 4.7-3.5 1.3-1 2.4-2.1 3.8-2.8 2-1.1 3.4-.6 5.6-.9 2.4-.3 1.9-1.5 3.5-3.1 1.4-1 5.8-3.9 7.3-3.5z"/>
  <path fill="#040104" d="M82.037 235.29c2.2 0 4.9 3.5 6.5 4.7 1.5 1.1 3 1.8 4.7 2.8 2.8 1.5 5 3.9 7.7 5.5 5.4 3 10.1 6.7 15 10.5 5.6 4.4 12.7 6.9 18.6 11 3.3 2.3 6.9 4.5 10.3 6.8 3 2.1 6.4 3.5 9.4 5.6 1.8 1.3 3.7 2.6 5.5 4 1.6 1.2 4.9 3.1 5.3 5.3-1.4.5-2.9 0-4.4.1-1.5.1-3.3.5-4.7.9-3.9 1.1-6.5 5.2-10.3 6.9-1.6.7-2.9.7-4.7.7-2.3-.1-2.5-.3-2.8 1.9-.3 1.8.3 3 1.2 4.5.5.8 2.8 3 2.7 4-.1 1.2-2.7 1.4-3.7 2.1-1.5 1-2.4 1.9-3 3.5-1.3 3-.8 7.9-4.6 8.4-2.8.4-6.6.4-9.4 0-3.6-.5-4.7-3.4-7.7-5.4-2.4-1.6-5.7-1.7-8 0-.9.7-2.1 1.8-2.8 2.6-1 1.1-1.1 2.8-2.3 3.6-2.8 1.8-6.5-.7-8.5-2.4-2.1-1.7-4.1-3.2-6.1-5.2-.7-.7-1.5-1.7-2.3-2.3-1-.8-2.7-1.1-3.4-2.3-.7-1.2 0-3-.4-4.3-.3-1-1.4-2.7-2.3-3.3-1.4-.9-2.4-.4-4-.9-2.2-.7-3.2-1.6-5.6-1.7-2.1-.1-7.7-2.6-9.4-.4-.3-2.8 3.1-6.3 4.7-8.3 2-2.3 4.6-4.5 5.4-7.5 1-3.8-1.7-6.3-1.7-10.1 0-2.2-.3-3.7.9-5.6.9-1.4 2.1-2.4 3.1-3.7 1.9-2.7 3-6 2.6-9.4-.2-1.9-1.6-2.1-2-3.7-.3-1.2 1-3.1 1.7-4 1.6-2.2 3.2-4.1 5.2-6.1.9-.9 2-2.1 2.4-3.3.5-1.7-.1-3.5.4-5.3.3-.1.6-.1.8-.2z"/>
  <path d="M162.275 292.17c1.4.4 4.1-1.3 5.6-1.7 2.4-.6 4.3-1.3 6.7-2.3 4.1-1.6 8.6-3.8 12.9-4.7 5.5-1.2 11-2.6 16.2-4.5 7.7-2.8 15.3-4.1 22.4-8.4 2.8-1.7 5.3-4 8-5.7 1.1-.7.8-.4 2.1-.9 1.1-.4 2.1-.6 2.9-1.6-.1 3.4-2.8 6.7-3 10-.1 1.5 1 2.6 1.9 3.7 1.8 2.2 1.9 2.8 1.9 5.6 0 6.1-5.6 12.3-7.7 17.8-.5 1.2-1.4 2.6-1.7 3.7-.5 1.8.8 3.1 1 4.7.4 3.2-.4 5.4-3 7.3-2.4 1.8-5.3 2.1-8.2 2.1h-1.9c-.9-.1-1.5-.6-2.1-.8-.9-.2-1.8 0-2.7-.2-.8-.2-.9-.8-1.8-1-4-1-4.5 3.3-5.7 5.7-.5 1-1.3 2.8-2.1 3.5-.5.4-2.1.5-2.7.8-.8.4-.9 1-1.8 1.2-3.1.9-5.4-2.1-7.3-4-2.5-2.5-5.5-4.4-7.5-7.5-1.9-3-4.2-4.6-7.7-5.4-1.4-.3-3.4-.4-4.7-.9-1.3-.5-2.5-2-3.7-2.8-2.4-1.7-3.9-4.4-5.4-6.8-1.2-2.3-.9-3.7-.9-6.9zM238.452 240.67c.2 1.8 2.1.7 2.8 0 1.3-1.2.3-1.1.9-2.9.3-1 1.1-1.2 1.7-2 .6-.9.4-1.6 1.4-2.4.8-.6 1.6-.5 2.4-1.4.3-.3 1.1-2.1 1.2-2.5 0-.7-.1-1.3-.1-2 .1-.5.3-.9.8-1.1.2-1.2.2-2.3.2-3.5 0-2.5-.6-5.7.7-7.7.7-1.1 3-3.6 4.2-4.3 1-.6 1.9-.2 2.9-.9.8-.5 1.1-1.4 1.6-2.1 1.1-1.5 3.7-3.8 3.8-5.6.2-1.9-1.1-1.7-1.8-3-.8-1.5.3-1.8.5-2.8.5-2.2.2-4.2-.9-6.1-2.9-4.5-8.3-6-12.9-8-1.2-.5-2.4-.4-3.5-.9-.9-.3-1.9-1.5-2.8-1.9-1.2-.6-1.6-.5-3-.7-1-.1-2.7 0-1.7-1.7.9-1.7 5-1.5 6.3-3.2 1.1-1.5-.2-5.4.3-7.2 3.4-.3 5.2-3.1 7.4-5.8 1.8-2.2 3.5-4.6 5.3-6.8.8-1 2.2-1.8 2-3.3 0-.3-1.4-1.6-1.5-2.1-.2-.6-.3-1.2-.2-1.9 0-1.7.9-3 1-4.7.1-1.5 0-3.1 0-4.7 0-1.5.2-3.2 0-4.7-.3-2.2-.6-1.9-2.8-1.9-3.7.1-5.2.2-7.8-2.6-1.6-1.7-3.1-3.7-5.3-4-1.8-.2-3 .5-4.6 1-1.3.4-6.5 2.5-7.3 1.8 1.3-1.6 2.3-3 3.8-4.4.9-.9 2.1-1.9 2.8-3 .9-1.6 1-3.9 1.4-5.7.4-1.5.8-4.1-.7-4.8-1.2-.5-4.3.1-5.7.1-1.7 0-4 .4-5.6-.2-1.5-.6-2.8-2.3-4-3.3-1.1-1-2.2-1.1-3.3-2.1-1.7-1.4-1.3-1.9-3.9-1.9-2.2 0-3.6.2-5.6.7-4.2 1.1-6.4-.6-8.7 4-1.3 2.6-1.7 1.6-3.7 1.1-1.8-.4-3.6-.9-5.4-1.2-1.9-.3-3.9 0-5.6.8-1 .4-2.6 1.5-3.7 1.2 1.3 2.6.3 6.6 1.8 9.1 2.6 4.2 5.7 8.6 8.5 12.7 2.1 3.1 4.7 6 6.4 9.3 1.4 2.7 1.5 5.7 3.2 8.2 3.7 5.3 5 11.9 7.3 17.9 1.1 2.8 2.5 5.6 3.5 8.4 1 2.9 1.8 6.4 3.2 9.2 1.2 2.4 2.9 5 3.6 7.7.3 1.3.3 2.5.9 3.8.4 1 1.4 2 1.7 3 .4 1.1.4 1.8.9 2.8.7 1.5 1.7 2.9 2.4 4.5 1.1 2.6 2.6 6.1 3.3 8.6.7 2.7 1 5.5 1.9 8.2.9 2.9 1.4 5.5 2.3 8.2.2.7 1.2 1.6 1.5 2.3.5 1.4.5 2.3 1.1 3.5.4 1.9 0 5.7 3.2 4.9z"/>
</svg>
