<svg xmlns="http://www.w3.org/2000/svg" width="252.812" height="317.873">
  <path fill="none" d="M0 0h252.812v317.873H0z" pointer-events="none"/>
  <path fill="#ffdc26" fill-rule="evenodd" d="M140.906 77.212c-1.1-.1-1.7 1.2-1 2 1.4.4 1.6-1.4 1-2zM100.806 96.412c-1-.3-.6.7-.7 1.3h.9c.8 4.1 2 7.9 3 12.1 2.9 3.3 12.2 2.1 15-1.1 1.8-8.4 5.8-23.5-2.8-27.7-2.3 1.4-7.7 3.8-8.9 0 2.9-2.4 8.7 1.3 10.5-2.2-1-3.2-8.7.3-8.9-3.9 1.3-.4 3.3-1.6 4.4-.6 1.5.5-1.1 2 1.1 2.2 2.1.1 4 0 5-1.1-.1-.9-1.4-.4-1.1-1.7 4.4-4.9.5-12.8 1.7-19.4-1.7-1.4-2.6-3.7-4.4-5-1.9-1.3-4.2-1.2-5.5-2.8h7.2c0-3.1 2.7-3.6 3.3-6.1-.8-10.1 2.2-23-6.6-26.6h-5v.6c-9.3 3.7-7.6 18.4-7.8 28.8-.5 1.2 2.7 2.5 2.8 3.9 0 .4-2.5 2.7-2.8 3.3-2.2 6.4.3 17.3 0 24.4 1.6.4 3.2.9 3.9 2.2-1.4-.1-2.7-.1-2.8 1.1 1.9 3-2.2 2.3-2.2 5-.4 5 0 9.3.7 13.3zm9.9 11.7h1.1c0 .6.5.7.6 1.1-.9 0-1.9.1-1.7-1.1zm-1.6-84.2c2.7 1.7 3.2-1.3 6.1-1.1 1.8 1.9-.2 4.8 1.1 7.8-4.2 5.5-12.2-1.7-7.2-6.7zM122.006 112.712c.1-.8-.1-1.3-.3-1.6-.3.2-.5.3-1 .3-.2 1 .2 1.4 1.3 1.3zM66.906 115.312c.1-.3.3-.6.7-.7.4-2-2.2-2.6-2.6-1-.1 1.3.6 1.8 1.9 1.7zM115.106 114.312c0 .6.4.7.3 1.3.2-.2 1.5-.8 1.6 0 1.1-.5-.7-.8-.3-1.6-.7-.1-1.2 0-1.6.3zM123.306 117.612c-.8 0-.6 1.1-.7 2 1-.1.9-1.8.7-2zM121.306 121.112c.8 0 1.3-.5 1.3-1.3-.8.1-1.2.5-1.3 1.3zM69.506 121.512c.3-.3.7-.4 1.3-.3v-1.3h-1.3c.2 1-.6.9 0 1.6zM90.006 121.112c-.1-.4-.6-.3-1-.3 0 .6.4.7.3 1.3.7.1 1-.3 1-1-.3.4-.8.2-.3 0zM132.106 121.512c-1.1-.2-1.5.9-1 1.3.8.1 1.1-.5 1-1.3zM74.406 123.412c.5-.6 0-.4 0-1.3h-1c-.1.9.1 1.4 1 1.3zM82.906 125.712c.6-.1 1.6.3 1.3-.7-.6 0-.7-.4-1.3-.3v1zM80.906 131.212c.8 0 .6-1.1.7-2-.8.3-1.1 1.6-.7 2zM65.906 131.612v-1.3c-1.2-.3-1.2 1.5 0 1.3z" class="st3" clip-rule="evenodd"/>
  <path fill="#f9ed32" fill-rule="evenodd" d="M45.406 155.012c-.2.7.6.5.7 1 .4-.1.2-.6.7-.7 0-.5-1.3-1-1.4-.3zM150.306 157.912c.5-.1.3-1 1.3-.7v-1.6c-1.5-.3-1.3 1.1-1.3 2.3zM36.006 157.012h1.3c.1-.7-.2-.9-.3-1.3-.9-.1-1.1.4-1 1.3zM170.206 157.612c.3-.2.5-.3 1-.3.1-.7-.2-.9-.3-1.3-.6 0-.7.4-1.3.3v1.3c.5-.6 1-1.6.6 0zM42.106 161.212c.4.7.7 1.6 2.3 1.3-.1-1.4 1.2-1.4 1.6-2.3-.3-.6-.9-.8-.7-2-2 0-1.6 1.9-3.2 3zM39.206 158.612c.1.9.6 1.4.7 2.3.9-.4.9-2.6-.7-2.3zM36.006 159.612c0 1.1.7 1.5 2 1.3.5-.4.5-1.8 0-2.3-1.2-.2-1.8.3-2 1zM45.706 161.912c.3 1.2 2.5.6 2.3-.7-.9-.7-.8.7-2 0 .1.4 0 .6-.3.7zM33.706 161.212v1.6c1.5 0 1.5-1.6 0-1.6zM179.306 166.112c.2-1-.9-.6-.7-1.6-1.4-.1-.3 1.4-.3 2 .3-.3.6-.4 1-.4zM162.706 165.812c-.3-.3-.1-1.2-1-1 .3.4-.9 1.5 1 1zM31.706 168.412v1.3c1 .2 1.3-.5 2-.7-.3-.5-1-.7-2-.6zM41.806 173.312c1.5 0 0-1.1.3-2-1-.5-.8 2-.3 2zM164.306 177.812c.3-1.1-.4-1.4-.7-2-1.2.3-.4 2.2.7 2zM42.506 179.512c1 .4 1 .2 2.3.6-.6-.6.1-1 .7-1.3-1.8-.6-.7-.7-2.6-1 .2.2.7 2-.4 1.7zM167.906 180.112c-1.5.9-3.7-.9-5.5-1.6-.1.8.5 1 .7 1.6 1.3-.4 2.6 1 3.9 1.6.6-.2.8-.8.9-1.6zM159.806 180.412c1.1 1.2 2.7-.9 1.6-2-.7.6-1.3 1.2-1.6 2zM39.506 183.712c.1-.3-.1-.3-.3-.3.2-.3 1.4-.2 1.3-1.6-1.1.2-1.5-.2-2.3-.3.5.7 0 2.3 1.3 2.2zM26.506 186.312c.7.9 3.2.9 3.3-.7-1-.6-2.6.2-3.3.7zM171.806 186.312c.5.8.8.5 1.6.3v-1c-1.5 1.1 0 0-1.6 0 .2.3.4.6 0 .7zM37.306 188.212c.4-.3 1.2-.3 1.6-.7.2-1.2-1.2-1.7-2-1 .7.8-.3 1.2.4 1.7zM163.706 188.912c.1.8 1.4.2 1.6 0 .1-.8-.9-.4-1-1-1.1.1 0 .9-.6 1zM168.506 189.612c.1.7 1.5.1 1.3-.7-.5 0-.9.1-1-.3-1.1 0 .8 1-.3 1zM42.106 195.112c-.3.6-1.2.5-1 1.6.3-.3.7-.3 1.3-.3.2-.7-.2-.9-.3-1.3zM43.806 204.212c-1.5-.1-1.9.9-2.6 1.6.3 1.1.4 2.5 2 2.3-.7-2.2-.7-2.5.6-3.9zM37.306 204.212c-.8.9-.4 2.7-1 3.6.7 1 1.2-1 1.6-1.3.3-1.3-1-1-.6-2.3zM46.406 207.812c0-.8-.5-1.3-1.3-1.3.1.7.2 1.5 1.3 1.3zM48.006 208.812c.1 1.6 1.1.4 2 1v-1.6c-.9.8-.7.6-2 .6zM48.706 221.512c.1.9 1.7 2 1.6.3-.4-.3-.9-.4-1.6-.3zM64.006 231.912c.3.8.3 1.1 0 2.3.9-.2.9-1.2 1.3-2-.3-.2-.8-.3-1.3-.3zM65.306 235.512c.7-.3.1-1.8 1-2-.7-1-1.6 1.7-1 2zM61.706 244.312h1c.1-.7-.2-.9-.3-1.3-.6.1-.8.5-.7 1.3zM73.706 247.212c-.5.3-1 .5-1 1.3h1c0-.9.6-.6 0-1.3z" class="st3" clip-rule="evenodd"/>
  <path fill="#ffdc26" fill-rule="evenodd" d="M100.106 122.412c-.5.8.4 2.3 2 2 .1-.3-.1-.3-.3-.3.3-.3.6-.7 1-1-1.5-.1-1.6.4-2.7-.7zM122.906 127.712c.1.3.3.3.3.7.1.3-.1.3-.3.3.1.4.3.2.3 0 2.1 1 1.2-1.3 2.3-.7.4-.2.1-.5-.3-.7.2-.6.4-1.2 1-1.5-.2-.8-1.4-.5-2.2-.6v2.2c-.2.2-.6.3-1.1.3zM71.106 128.312c-.2.9.6.7.7 1.3.4-.1.5-.6 1-.7-.2-.3-.3-.5-.3-1-.7-.1-.9.3-1.4.4zM118.106 130.312c0 1 .8 1.1 1 2 .3-.2.6-.4.7 0 .8-.3-.9-.8-.3-2h-1.4z" class="st3" clip-rule="evenodd"/>
  <path fill="#f9ed32" fill-rule="evenodd" d="M41.506 165.112c.2 1.5-.2 1.9-1.3 1.3-.1.8.1 1.2.3 1.6 1.3-.4 2.6-1.6 4.2-.7-.6-.5-.8-1.4-.7-2.6-1.3-.3-1.2.1-2.5.4zM155.806 155.712c.1-1.4-1.4.3-1.3 1 .6 0 .7.4 1.3.3.4-.9-1.5-1.3 0-1.3zM154.206 159.612c-.3-.5-.8-.7-1.6-.7.6.6 0 .8 0 1.6.3.3.9.2 1 .7.6 0-.7-1.6.6-1.6zM162.706 170.312c-.5 0-1.1.9 0 .6-.8.8.4.7.7 1.3 1-.6-1-.9-.7-1.9zM39.906 177.812c.6.7-.2.6.3 1.3.3-.3.7-.4 1.3-.3.3-.1.3.1.3.3.8-.1-.4-.6 0-1.3-.5 0-.9.1-1-.3-.5.5.5.7-.9.3zM166.606 186.012c.8-.4-.9-2.7-.3-2.9-1.4-1.1-2.9-.1-3.9-1.6 1.1.8.5-.7-.7-.3.4 1-.5.8-.7 1.3-.2 1 1.1.4.7 1.6 2.8-.8 3.4.4 4.9 1.9zM35.306 182.112c-1.5.8.4 4.5 1.6 3.6-.1-.4-.6-.3-1-.3.5-.2 0-1.3.7-1.3-1.3-.6-1-1-1.3-2zM39.506 187.312c.1 1.7 1.1.5 2 .3-.5-.8-1.1-.6-2-.3zM35.306 187.312c.2.3.4.6 0 .7.1.4.3.2.3 0 .3.2.5.3 1 .3-.5-.6 0-.4 0-1.3-.7-.2-.9.2-1.3.3zM36.906 190.912v-2c-2.3.8-2.3-.9-4.2-.7.6.7-.2.6.3 1.3 1.5-.9 2.3.8 1.6 1.3.5 1 1.3-.4 2.3.1zM172.806 188.612v1c.8.4 1-1.3 1.3-.3.9-.4-.6-1-1.3-.7zM38.606 191.512c-.2 1.2-1.3 2.1-.3 3.9.8.1 1-.5 1.6-.7 0-1-.9-2.7-.7-2.9-.1-.5-.6.3-.6-.3zM44.406 204.912c.2 1-.9.6-.7 1.6 1 .2 1.3-.5 2-.6-.3-.5-.5-1.1-1.3-1zM46.706 206.512c.6.1.7-.3.3-.3-.2-.7 2.3.9 2-.7-1.5.4-2.1-.5-2.3 1zM39.206 218.912c-.8-.8-1.5-.6-1 .7.3-.2.6-.4.7 0 .4-.1.2-.6.7-.7-.1-.4-.4-.2-.4 0zM55.806 228.312c0-.8-1.3-.5-1.3-1.3-.4.2.5 3-1 2.9-.1 1.2.3 1.9 1.3 2-1.1-1.3 0-1.3 1-2 .2-.5-.9-1.3 0-1.6zM87.406 258.012c.5 0 1.2-.2 1.3.3.7-.3-.6-1.1-.7-1.6-.5 0-.7.5-.6 1.3z" class="st3" clip-rule="evenodd"/>
  <path fill="#ffdc26" fill-rule="evenodd" d="M66.406 65.412c-2.1 9.7-.4 23.6 4.4 29.9-3.2 11 2.1 21.9 7.8 27.7h2.8l-.3-1 .8-.6c.1-.5-.2-.5-.6-.6 1.2-.8 2.6-1.5 3.9-2.2l-.3-.6.3-.6c1.6-1.6 4.2-2.1 5.5-3.9 1.2-8.8-3.5-11.7-4.4-18.3-5.1.2-7.4 2.7-12.2.6.1-.4.6-.6.6-1.1l-.8-.3.3-.8h-.6c1.5-1.6 4.9-1.1 3.3-4.4 2.2-1 3.3-1.1 6.1-.6 1.5-1.9-.6-3.1 1.7-5.5-.1-7-3.9-10.1-3.9-17.2-.8-.3-1.4-.9-1.7-1.7-2.3-.4-2.8.9-5 .6 6.9-.9 5.6-9.9 7.8-15.5-.1-2.1-1.3-3.1-2.2-4.4 1.3-6.1-2-10.4-5-13.9-19.4-5.8-13.9 21-10.5 31-.1 2.1 1.9 1.9 2.2 3.4zm-.6-18.8h1.7c1 1.1-.3 1 0 2.8 2.6.5 3.3-.7 5-1.1-1.1 2 .3 3 0 5.5-.5.2-1 .5-1.1 1.1l.8.3-.3.8v1.1c-.6.1-1-.1-1.1-.6l-.8-.3.3-.8c-.6-.5-1.5-.7-2.8-.6.1-2.8-2.3-3.2-2.8-5.5 1.2-.1.2-2.4 1.1-2.7zM147.306 120.812c-.1-.4-.6-.5-.6-1.1h-1.1c-.2 1.2.8 1.1 1.7 1.1zM137.906 121.412c0-1.8-4.7-2.8-4.4 0 2-.4 3 1.4 4.4 0zM130.706 124.212v-1.7c-1.6-.8-1.6 2.5 0 1.7zM121.206 129.212h1.1v-1.7h-1.7c-.1.9.6.9.6 1.7z" class="st3" clip-rule="evenodd"/>
  <path fill="#f9ed32" fill-rule="evenodd" d="M97.406 260.512c1 1.2 5.2.8 4.4-1.7-2.3-.3-3.5.5-4.4 1.7z" class="st3" clip-rule="evenodd"/>
  <path fill="#ffdc26" fill-rule="evenodd" d="M231.506 142.512c-10.3-.6-18.3 10.2-18.3 21.6.4 1.5-1.1 1.1-1.7 1.7.6 2 2.1 3.1 3.3 4.4-3.9 3.5-5.6-2.2-9.4-2.2-.2 1.2.4 1.5.6 2.2-.5 1.5-1-1.5-2.8-.6-1.2 6-8.8 5.6-12.2 9.4.2 3.3 1.8 5.3 2.8 7.8-1 1.7-.8-2.4-2.8-1.7-.8 2.5-3.1 3.6-3.9 6.1.5.9 1.7 1.6 2.8.6-.1 3.1-2.7.6-3.9 0-2.5 1.2-4.9 2.5-7.8 3.3-.6 1.6-.6 2.3 0 3.9-2-1-3.3-2.6-4.4-4.4-1.1-.1-2-.2-2.9-.4-.1-.2-.1-.4-.1-.6-.5 0-.6.2-1 .3-2-.7-3.6-1.7-5.2-2.7-.1-.3-.4-.5-.7-.6-.1-.3.1-.3.3-.3.5-.2 0-.3-.3-.3-.2.2-.3.4-.3.6-.5-.3-.9-.6-1.4-.9-1-.2-1.9-.2-2.8-.3v-.1h-.8c-.5 0-1 0-1.4.1.7-.4 1.3-.9 1.3-1.4-.5 0-.9.1-1-.3 1-.7 2-1.5 2.3-2.9 1.8.6 1.2 2.8 3.6 2-1.5-1.8-2.6-2.2-5.2-2.3-.3-.9.5-.8.3-1.6-.8-.6-1.3.3-2.3-.3v1.3c-1.1.4-.2-1.1-1.3-.7.3-.6.2-1.1 0-1.5.3 0 .7-.1 1-.2h-1.1c-.4-.6-1.2-1.1-2-1.3.2-.8 2 .3 2.3.7l.8.6-.3 1h1.7l.8-.8c0 .5.1.9.4 1.2.2-.4.3-.7.6-1.6h-.6c1.5-1.5 2.3-2.6 2.1-5.9-.1 0-.1-.1-.2-.1.1-.3.1-.7 0-1.1-.5.1-.8.3-1.1.4-1.8-1.2-3.8-2.2-5.6-3.3.2-.3.6-.4 1.2-.3.3 1.8 2.6-.3 2.6 1.6.7-.2 1.8-1.7 2.3-1-.1-.2-.2-.4-.4-.6h.1c.2-1.1 1.6-1 1.1-2.8l-1.2-1.2c.3-.8.3-1.8 1.3-1.9.1-.6-.6-.8 0-1-.1-.4-.6-.2-.7-.6-.9.4-.5.9-.3 1.6-.4.3-1 .6-1.5.8-2.5-2.3-5.4-4.4-8.1-6.5 0-.1.1-.3.2-.4-.3-.1-.6-.1-.9-.1-.9-.7-1.8-1.4-2.7-2.2l.1-.1c.4-.4 1-.6 1.5-.8 0 0-.1 0-.1-.1.7-.1 1.5-.1 2.3-.1-.1-1-.4-1.9-1.1-2.2.7-.6 1.3-1.3 1.9-2.1.5.4.8 1 1.8.8.1-.9-.6-1.6-1.2-1.6 1.7-2.5 2.6-5.6.8-8.8-.5-1.8 1.8-.8 1.7-2.2-1.6-1.6-1.5-4.8-4.4-5 3.2-2.7-1.5-6.6.6-10-2.4-.4-4.5-1-6.1-2.2-2 .8-2.6 2.9-5.5 2.8l.3.8-.8-.3c-1.5.9-7.9 1.2-10 1.1-2.7 1.8-4.7 4-6.4 6.3-.4-.1-.7-.1-1.1.2.1.2.3.4.5.6-.2.3-.4.5-.6.8-.1-.2-.2-.4-.3-.7-1 .5-1.4-.5-2.4-.9.1 0 .1-.1.2-.1-.4-.5-1-.8-1.7-1.1 1.3-1.5 2-3.2 2.5-5h.6c.2-.7-.1-1-.2-1.5.3-1.2.6-2.4.9-3.5-1.1-.2-1.1-1.5-1.7-2.2-6.6 1.1-9.4-6.4-15-2.8-.6 2.3 1.2 2.2 1.1 3.9 2-1.4 2.2-1.6 5-1.7-.8 1.1-1.9 2.9-1.6 4.4-.6-.4-1.1-.3-1.5.1-.4-.6-1-1-2.1-1.2.5 0 .9-.4.8-1.2-.9-.1-1.4.1-1.3 1 .1.1.2.1.3.2v3.9l-.9.9c-.5 0-.7.3-.9.6-.5.3-1.1.6-1.7.9.6-.5.8-1.4 1.6-1.8-.1-.4-.3-.2-.3 0-1.3.2-1.3-.9-2.6-.7-.6 1.6-1.1 3.2-2.6 3.9-.9-.3.5-.9-.3-1.3-.6.3-1 1.1-1.3 0 .4 1.3-.6 1.3-1.3 2.9.4-.3.7-.4.9-.3-.6.4-1.2.9-1.6 1.5l-.5-.5c-.1-.2-.2-.5-.4-.7-.2-.3-.3-.7-.3-1h1c-.1-.8.6-.7.3-1.6-.3-.2-.8-.2-1.3 0 0-.2 0-.3.1-.5.6-.3 1-.7 1.3-1.5.6-.5-.3-.1-1 0 .2-.8.3-1.7.3-2.5.7 1.2 1.7 2 2.3 3.2.9 0 1.9-1.5 2.6-.7.9 1-.7-1.2.7-.7-.8-1.6-.9-3.9-2.6-4.6-1.6.2-2.5 1.1-2.9 2.5v-.4c-.7.1-1.3.3-1.8.6-1.4-1.3-3-2.6-5.4-1.7-.1 1.7-.3 3.1-.7 4.6.8.6 2 .7 2.3 1.8l-.8.6c.3-.2.5-.4.8-.6v.1c.3-.2.7-.3 1.2-.3.6.2.5 1.1-.1 1.1l.2.5v.3l-.6-.1c0-.5-.2-.7-.6-.8v-.5l-.8.3-.3-.8c-1.2-1.2-1.8.1-2.8.6-.6 2.1 1.2 1.8 1.7 2.8l.6-.3.3-.2v.1c1.1.1 1.4-.6 2-1h.6v.3l-.2.5-.2.2h-.9c0 .5.2.8.4 1-.3.6-.6 1.1-1.5 1l-.8.3-.3-.8c0 .1-.1.2-.1.4v-.9c-.5-.5-1.9-.3-2.9-.3.6.8.3 2.6 2 2.3-.6 0-1.3 2.1 0 2-1.5.7-2.3-1.9-3.9-.7 0-1 1.9-1.3 2-.3.4-.5-1.2-1.6-.7-3.3-.9.4-1.8.5-1.6-1-.6.5-.8 1.6 0 2-.2 1.4-1.5.4-1.9 1.1-.1 0-.3 0-.4.1-1-1.3-2.8-.8-5.2-.8.3.4.6 1.2.8 1.9-1.6.6-3.1 1.4-4 2.6-.4-1.3-.1-1.7-.7-2.8-1.5.9-2.4-.3-3.3-1-1 0-1.4.7-1.3 2 1.4-.1 1.9.7 2.3 1.6 1.2.2 1.4-.6 2.6-.3-.2.3-.7.3-.7 1 .1.1.3.2.5.2-.2.3-.3.6-.4.9-.3-.1-.5-.3-.7-.8-.4.1-.2.6-.7.7-.5-.8-1.4-1.4-2.3-2.6-1.5 1.2-2.7 1.9-2 3.9.8-.1.1-1.1 0-1.3 1 .1 1.4.7 2.6.7-.1-.7.2-.9.3-1.3.4.1.5.6 1 .7-.1.7-.9.7-1.3 1-.4.7.8 1.2 0 1.3 0 .7 1.4.1 2 .3.5-.6 0-.4 0-1.3 1.1-.1.5 1.4 1 2 .6 0 .7-.4 1.3-.3-.3-.2-.4-.5-.5-.7.3.1.6.3.7.6-.4.4-.8.9-1 1.4-.4.1-.9 0-1.4 0-.1-.2-.2-.5-.1-1h-1.6c-.2.3-.3.6-.4.9-.1 0-.3 0-.4.1-.2.2-.3.4-.4.6-.4-.4.4-1.9-.3-2.2.2-.8-1.5.8-1.6-.3-.6.1-.7.6-.7 1.3-.9.1-1.6.1-1.3-1-.4 0-.6.2-.8.2.3-.8.6-1.7.9-2.5h.5c.1-.4 0-.6-.2-.8.3-.9.7-1.7 1.2-2.4-.1.4 0 .8 0 1.2.9-.1 1.7-1.1 1-2h-.4c.2-.2.3-.4.5-.6-.8-4-2.1-7.5-3.9-10.5-3.7-1.6-7.6.1-10.7 1h-.2c1.7-1.5 4.9-1.6 4.3-5.4-.4-1.3-2.3-1-3.3-1.7.8-.7.9-2.1 1.7-2.8-2.3-4.7-1.4-12.7-8.9-12.2-.7-.1-.6-1.1 0-1.1-.1-1.3-2.4-.3-2.8 0 .4-2.6 3.7-2.2 5-3.9-1.6-8.4-3.7-26.4-15-23.3-2.3.7-3 3.4-4.4 6.1v8.3c1.3 3.5 1.7 7.8 3 11.3v.4c.1.1.2.2.3.2.6 1.4 1.3 2.6 2.3 3.5l.6-.3.6-.3c.6 0 1.3-1 1.7-1.1 4.6-1.6 2.7 1.1-1.7 1.7l-.3.8-.8-.3c-.7 3.4.5 9.6 2.2 15 1.2 3.7 3.5 6.6 5 10 1.5 3.5 3 6.7 4.4 10.5 2 5.2 2.4 9.6 7.8 11.1 0 .3-.1.5-.1.7-.1 0-.2-.1-.4-.1.1.6-.3.6-.7.7.3.5.3.9.2 1.3-.6 1-1.3 1.9-1.4 3.5 0 .3 0 .5.1.7-.1 0-.2 0-.3.1.1.4.3.5.5.5.6.8 1.6 1 1.9 2.1 0 .2 0 .4-.1.5-.3.2-.8.2-1.4.1.1.6.7.6.9 1.1 0 .1-.1.2-.1.3-.9-.7-1.8-.4-2.4.5-.8-.4-1.6-.8-2.3-1.3-.7-.1-.1 1.2-.3 1.6 1-.1 1.7.9 2-.3 1.3.8-.3 2.5 1 3.3 0 1-1.6.3-1.6 1.3-.5-.2-.8-.5-1.3-.7-.8 0-1 .5-1.6.7.3 1.2 1 .2 2 .3.3.1.6.3.7.7-1.1.3-1.3 1.5-2.3 2 .6 1.1.2 2.4 0 3.6.8 0 1.4.2 1.6.7.5-.3.7-.8.7-1.6h-1.3c-.1-.5 1.2-1.6.3-1-.5-.1.3-.6-.3-.7.2-.4.7-.6 1.3-.7.3.1.3.3.7.3-1.2 1.9 1.1 2.3-.3 4.6 1.5.4.4-1.8 2-1.3-.2 2.4-1.1 2.7-1.6 5.2-1.2.2-1.2-.7-2.3-.7 1.4 1.4-1.2.4-1.6.7.1 1.1.9.4.3 1.6.9-.8 1.9 0 2.3.7.9-.3-1-.7 0-1.3 1.2.5 1.2 2.5.7 2.6.4 1 1.4-.6 2 .3-.3 1.2-3.1.7-3.3-.3-.8-.4-1.6.7-1.6 0-.6.6.6 2.2.7 3.3-1.1-.3-1.5 1.7-3.6 1.3-.3 1.3 1.9 1.8 1 2.6-.1.7 1.2.1 1.6.3-.4-1.1-2.1-1.2-1.3-2.6.9 1.1 3.4.7 3.6 2.6-1.1.2-.4-1.3-1.6-1v1.3c.9-.3.8.5 1.6.3v2.3c-1.6-.1-.4-1.3-1.3-2.3-1.9 1.2.8 2.4.6 3.9-1.5.6-2.3 2-3.9 2.6-.5 1.1.6 1.8-.7 2 1 1.1 1.3.2 3.3.3-.8-1.9 1.6-1.6 1.6-3.6 1.6.1 2.5-.6 3.3.7-.1.3-.3.3-.3.7-.4-.4-.6-.9-1.6-.7-.2 1.2-.1 1.6-1.3 2.3.3.9 1.3 1.1 1.6 2 .4-.1.7-.4.7-1 .6 0 .7.4 1.3.3-1.8 1.6 1.1 2.9 2.9 2 .2 1.3-1 1.1-.7 2.6 1.4.6 1.4 2.4.7 3.6 1.1-.1.5 1.4 2 1 1-1.2.1-1.1 0-2.6 1.1-.2.4 1.3 1.6 1-.4 2-1.6 3.2-3.3 3.9-1.1-.3-.2-.6-.3-1.6-2 1.1-1.1-1.1-2.9-1 0-.5-.1-.9.3-1-.1-.5-1-.1-1-.7.2 1.1-1 2.9-1.6 4.2.6 0 .4.9 1.3.7.2-1.2 1.5.1 2.6-.7-.3 1.1-1.2 2.4 0 3.3.8-.1.6-1.1 1.6-1 0-.5.2-1.2-.3-1.3.3-1.4 1.7.2 2-1 1.1.1-.5 1.8.3 1.6-.1.6-.6.7-1.3.7.3 1 .3 1 0 2-1.9-.7-3.1-.6-5.2-1 0 .3.4.3.7.3-.9 1.3.7 2.4 1.3 3.3.8-.3 1-1.1 1-2.3h1c0 .8-.2 1.4-.7 1.6.2.6.9.9 1.6 1-.3-1.9 2-2.2 2.3-3.6.7-.1.9.2 1.3.3 0 .3-.4.3-.7.3.3.8 1.4-.3 1.3-1 .6 0 .7.4 1.3.3-.2 1.3-1.5 1.5-1.6 2.9-1.2.5-.1-1.5-1.3-1 .6.5-.3 1.1 0 2.3 1.8-.2 1.7 1.6 2.3 2.6.5-1 1.2-.4 2 0-.7.6-1.9.6-3.6 1 .1 1 1.1 1.1 1.3 2 .1-1.7 2.8.4 2-1.6h.7c1 .2-.3.7 0 1.3 1.1-.1.5 1.4 2 1v-1c.3.9 2 .4 1.6 2-1.8-.9-1.9.1-3.6.7 1 1.2.2 1.1 0 2.6 1.9-.5 2.4-.6 3.6-1.6.5.4.5 1.2 1 1.6 0 1-.8 1.1-1.6 1.3-.4.7.8 1.2 0 1.3.1.4.8.3 1.3.3.1-1.8 1.6-2.6 2.1-4.9 1.7 3.4 3.6 6.6 6.4 8.9v.9c-.2-.1-.5-.2-.7-.3-.1.7.2.9.3 1.3.1-.1.2-.1.3-.2v2.2c1.4 1 2.9 1.7 4.4 2.1-.2 1-.1 2 .2 2.8-.4.3-.1.7 0 1.1-.2.2-.2.6-.6.7 0 .1 0 .3.2.4-.4.5.2 1.7-.4 2.1-.2 1.1-.1 2-.6 2.6.1.4-.1.7 0 1.1-.6 1-.8 2.5-.6 3.4-.2.7-.5 1.7-.8 2.4.2.3.1.6.1 1-.2 0-.2-.1-.3 0 0 .2.1.2.2.1.1 1 .2 2 1.1 2.6-.1.7.1 1.3.6 1.8-.2.3.1.7-.3.7 0 .3 0 .6.3.6 0 .3 0 .5.1.8.9.8.8 2.9.6 4.2 0 .2.1.3.2.4-.7 1-1.4 2.4-1.7 3.5-.9.8-.8 2.3-.6 3.4.1 0 .1.1.2.1-.2.2 0 .8.2.6.1 1.2.9 1.7 1.5 2.5-.2 1.1.7 2.1.6 3.4.2 0 .2.2.3.2-.6 1.3.1 3.4.6 4.8 0 .1-.1.1-.2.1-.2 1.3.6 2.4.3 3.6-.2 1-.7 1.8-1 2.7-1.1 1.5 1 2.5 1.4 3.8.3 0 .5.1.6.3.8-.4 1.9-.6 2.3-1.5.5.1.7-.7 1-1 .9.2.4-1.5 1.1-1.8-.1-.1-.1-.5.1-.6-.3-.3-.1-.9-.3-1.2.1-.4.5-.5.6-1 .1-.6-.3-1.2-.2-1.8 0-.3.3-.6.4-1 .3-1.6-.4-3.2-.2-4.9.1-.1.1-.1.2-.1.1-.6.2-2.2-.2-2.9 0 0-.2 0-.2-.1-.1-.3.4-.8-.2-.8.1-1-.7-1.6-.6-2.6-.1-.1-.4-1-.5-1.5-.1-.9.6-1.9.1-2.4-.2-1 0-2.1.4-2.9 0-.1.2-.1.3-.2.1-1.2.6-2 1.2-2.7 0-.4.1-.5-.1-.8.2-.1.4-.2.6-.4-.1-.5.2-.6.3-1-.2-.1-.2-.3-.2-.5.7-.5.1-1.4 0-2.3-.6-.2-.4-1.1-.6-1.7-.9-.5-1.1-1.9-1.3-2.8-.2 0-.3 0-.4.1.2-.3-.2-.2-.2-.4-.1-.3.2-.2.2-.4-.3-.1-.2-.4-.4-.5.2-1.3-.8-3.1 0-4.4-.1-.6-.2-1.1-.2-1.8.4-.1.4-1 .5-1 .2-.5.2-1.3.3-1.9 1.1.9 2.4 1.7 4.4 1.8.9-1.3 2.7-3.1 4.7-2.8.1.5.1.8-.5.7-.1.5.3.6.3 1 .4-.1.2-.3 0-.3.4-.7.9-.7 1.3-.9.1 0 .1.1.2.1-.3 1.3-.8 2.2-2 2.6 0-.3-.2-.6.1-1.1-.3-.3-.7-.4-1.3-.3.1.4-.1.6-.3.7.6.5.4.6.6 1h-.5c1.8 2.9 5.4 3.9 8.9 3.9.6-.7.5-2 1.1-2.8 2 1.9 4.6 1.7 7.1 1.2-.1.4-.1.8.1 1.1-.3.9-.3 1.7.2 2.3.3.3-.5 1.1.2 1.5-.3.5 0 .9.1 1.4h.3c0 .2-.1.2-.2.3.2 1.7.9 3.8.9 5.5.5.5.8 1.2 1.6 1.5.2 1 .9 1.5 1.6 1.9 1.3-.5 2.3-.3 3-1.4-.1-.1 0-.2-.2-.2.5-.6-.1-1.5.3-2.1-.7-.7-.7-2.1-1.3-2.6 0-.2.1-.2 0-.4.4.1.4-.1.6-.2-.2-.2-.4-.3-.6-.3.2-1.1.2-2.3.1-3.3.4.5.8 1.2 1.1 1.8 1-2.9 1.8-.4 3.9 0 .6-.7.5-2 1.1-2.8-.1-1.4-.8-2.1-2.2-2.2.9-1.8 2.9-.7 5-.2-.1.8 0 1.6.2 1.8v.4c-.4-.4-1-.4-1.9-.4-.2 1.3.6 1.7 1.7 1.7 0 .4 0 .8.1 1.1-.3 0-.1.4-.2.5.2.2.1.5.2.9-.5 1 0 2.3 0 3.4 0 .3-.2.6-.2.9-.2 1.7-.2 3.6 0 5.4-.2 0-.4.1-.6.4.2.2.3.4.6.3-.1.2 0 .2 0 .5-.6.6-.6 2.2-1.3 3 .4.8-.2 1.8.3 2.4-.1 0-.1.2-.2.3.7 1.3 1.7 1.1 3 1.6.7-.5 1.4-1 1.6-2.2.7-.3 1-1.2 1.6-1.7 0-1.9.6-4.3.9-6.2-.1-.1-.2-.1-.2-.4h.3c.1-.6.4-1 .1-1.6.6-.4-.1-1.4.2-1.7.5-.7.5-1.6.2-2.6.3-.4.3-1.2 0-1.5.5-.4-.2-1 .2-1.4-.2-1 .3-2.2.6-3.4 1.6-.2 3.6-.1 5.4-.1 3.1-2.6 6.3-5.1 8.3-8.9 16.3-.3 21.2-12 31-18.8.2-1.4 1.7-1.7 1.7-3.3 3-1.4 5.4-3.4 6.1-7.2 2.3-1 4.7-1.9 5-5 1.2-1.4 3.1-2.1 3.3-4.4 1.3-1.1 2.8-2 3.3-3.9.4-1.2 1.9-1.4 2.8-2.2 11.8-22.3 33.7-34.6 46-56.5v-2.8c-4.5-1.5-6.8-4.5-10.5-4.7zm-145.2-11.5l-.2-1.1.8-.2v.3l-.8-.2c.3.1.5.2.8.3-.1.6-.4.7-.6.9zm-36.2 37.8l-.1-.1h.1v.1zm-1.8.9c.5-.1.3-1 1.3-.7.6 1.1-1.1 1.4-1.3.7zm1.3 5.2c-.1.7-.6 1.2-1.3 1.3.1-.8.2-1.5 1.3-1.3zm-.9-2.9c1.3.1.1-.3.3-1h.9c0 .4-.1.9-.1 1.4 0 .1.1.2.1.3-.7-.1-1.2-.2-1.2-.7zm11.5-22.6c.1-.3.4-.5.8-.6-.2.4-.3.7-.4.9-.1-.1-.3-.2-.4-.3zm17.9-11.9c.2-.3.5-.6.8-.7-.1.3-.1.5-.1.7h-.7zm2.2 2.5c.1 0 .1 0 .2.1-.1.1-.1.1-.2.1-.7-.7-.5-.9-.1-1.1-.1.3-.1.5.1.9zm33.2-3.6c-.6.1.1.4 0 1-.9-.1-1 .7-1.2 1.3 0-.9.4-1.7 1-2.4.1.1.1.1.2.1zm42.7 51.8c-.3.1-.9 1.4-1 .7-.1.4-.1.6 0 .7l-1.2.3c-.1 0-.3-.1-.5-.1 0 .1.1.1.1.2-.2.1-.4.1-.6.2-.1-.2-.3-.2-.8-.1-.3-1.6 2-.6 1.6-2.3 1.1 0 1.2.7 2.4.4zm-7.5-21.5v-.3l1.5.6c.2.4.6.9.8 1-.1.5-.3.6-.5.5-.7-.5-1.3-1.1-1.8-1.8zm4.4 1.6c.1 0 .1.1.2.1-.1 0-.2-.1-.2-.1zm1.8 1.1v-.3c.5.2 1.1.5 1.7.7-.6-.1-1.3-.4-1.7-.4zm-37.7-36c.4.8.9 1.5-.1 2.1.5.8.8.5 1.6.3-.4-.7-.8-1.3-.7-2.6 1 .3 1.1 1.5 1.6 2.3.2 0 .3 0 .5-.1-.3.5-.6 1-.9 1.4-.7.3-1.7.1-2.7.4v-.7c.2-.2.4-.4.2-1-.7.2-1.5.5-2 .8-.4.2-.6.5-.7.9-.2-.4.1-1-.3-1-.1-.7 1.2-.1 1.6-.3 0-.5-.2-1.2.3-1.3l-.1-.1c.7-.5 1.2-.8 1.7-1.1zm-8.6-10.2c.1.6.4 1.1 1 1.5 1.7-.1 4.1.4 5-.6-.2.9.5 1 .6 1.7-1.4 1.2-4.6-.7-6.1.6-.9-.4-1.2-1.2-1.4-1.9.4-.2.7-.5.9-1.3zm-9.1 5.4h.6c-.2.1-.4.1-.5.2-.1 0-.1-.1-.1-.2zm-14.4 5.3v.8c-.1 0-.2-.1-.3-.2.2-.2.2-.4.3-.6zm-4.2 3.6h-.1s.1-.1.1 0c0-.1 0-.1 0 0zm-18.6 6.4c.3.2.5.6.7 1 .5 0 .8-.2 1.1-.4-.3.7-.3 1.5-.2 2.3-.3 0-.6-.1-.9.4-.6-.4.8-2.7-1-2.3-.1-.5.3-.5.3-1zm-2.8-1.5c.2.7.7 1.7.5 3.5 2.1.1 1.2 2.3 3.6 2.6 0 .6-1.1.2-1.3.7-.8-.6-2.1-2.7-3.6-3.6.1.6-.2 1.2-.4 1.9-.5-.3-1.1-.6-1.9-.6 1.6-1 2.4-2.7 3.1-4.5zm-10.7 22.7c0 .2-.1.4-.1.6.4.3.7.6.9 1-.2.4-.3.7-.9.7-.7-.6-.4-1.7.1-2.3zm-2.4 19.2c-.2-.9.6-.7.7-1.3-.7-.1-.6-.9-1.3-1 0 .2-.3.4-.3 0 .3-.1.4-.3.3-.7h1c1.3 1.7 1.3 2.6-.4 3zm.6 12.4c-.6.6-.6-.2-1.6 0-.1-.8.5-1 1-1.3.1.3.3.4.7.3-.1.4-.1.7-.1 1zm0-6.5c-.9.3-2.1-1.6-.7-1.6-.2 1 1 .6.7 1.6zm1 10.4c.4-.8-1.4-1.1-.3-1.6.1.4.5.4 1 .3.1.8-.1 1.2-.7 1.3zm1.6-1.6c-.1-.6-.6-.7-1.3-.7.1-.7.6-1.2 1.3-1.3.6.6 1 1.5 0 2zm0-6.5c0-.9-.2-1.9.7-2 .5.7 1.2 2.2-.7 2zm1.7-13.7c-.5-.5-.5-1.8.6-1.6-.1.5-.2 1-.2 1.5-.2 0-.3.1-.4.1zm.3 27.7c.2-1 .1-2.3 1.3-2.3.3 1.5-.6 1.8-1.3 2.3zm7.2 15.6c-1 .1-1.5.7-2.3 1-.1-1.3.8-1.3-.7-1v-1c1.3 0 1.8-.9 1.3-2 1.2-.1.6 1.5 2 1.3.1.9-.6.8-.3 1.7zm3.5 4.9c-1.7-.1-1.7-1.8-2.9-2.3 1.5.1 1.8.6 2.3-.7 0 .1.1.2.2.3.2.5.4 1 .7 1.4-.1.5-.1.8-.3 1.3zM161.706 59.312h2.8c-.7-2.1-3.3-2.3-5-3.3 1.8-1.3 6.5.2 7.8-1.7.2-2 .8-2.7 0-4.4 2.1-2.7.5-5.7 0-8.9-.4-2.7.4-5.5-1.1-7.8-1.1-1.7-5-3.3-6.6-3.3-4.3.1-7.6 4.1-7.2 10-1.6 4.2-3.8 9.3-2.8 14.4 2 .2 3.1 1.3 3.3 3.3h1.1l-.2-1 .8-.7c-.9-1.5 2.4-1.5 2.2-.6-.4.3-.9.6-1.7.6l.3 1-.8.6c1.3 1.3 5 .2 5.5 2.2l.8-.3.8-.1zm-3.3-16.6c-.5-.6-.7-1.5-.6-2.8h1.7c.1 1.4.1 2.7-1.1 2.8z" class="st3" clip-rule="evenodd"/>
  <path fill="#ffdc26" fill-rule="evenodd" d="M140.106 118.112c-.8 2.2-1.5 3.2 1.1 3.9 2.5.1-.3-1.6 1.1-2.2 1.7.3 2.2-.8 3.3-1.1 3.1 1 6 2.1 10.5 1.7-.6-5.9 3.8-9.3 5-14.4.2-.9-.3-1.9 0-2.8.8-2.3 3.9-9.2 0-13.3.4-1.3 1.7-1.7 2.8-2.2-.7-2.8-.4-8.2 1.7-10-.5-4.6 1.2-12.5-3.9-15-.8-1.3 1.4-2.1 0-2.2l-1 .3-.6-.8c-4-.9-9-.8-11.1 1.7-2.3 6.1-6.5 14-5.5 19.9.1 1.4 2.1.9 2.8 1.7-1.3 3.2-.5 6.9-5 7.8-2.7 6.5-3.2 15.3-3.9 23.8.1 1.7 1.6 2.3 2.7 3.2zm17.2-52.7h1.1v2.2h-1.1v-2.2zM81.106 122.012c.6.1 1.1.2 1.7.2l-1.7-.2zM85.006 118.112c.7-.1 1.4 0 1.9-.6l-1.9.6zM73.906 94.512l1.9-.3c-.5 0-1.2.1-1.9.3zM72.206 55.212c-.9.2-1.6.6-2.2 1.1l2.2-1.1zM139.306 125.612c-.6-.6-1.1-.9-1.7-1.1l1.7 1.1zM31.206 106.212l-.3-1.1c.1.3.2.7.3 1.1zM85.506 133.912c.2-.7.2-1.5.3-2.2l-.3 2.2zM155.306 57.012c-.5-.1-1.1-.2-1.6-.3l1.6.3z" class="st3" clip-rule="evenodd"/>
  <path fill="#ffdc26" fill-rule="evenodd" d="M160.906 59.612l-.2 1.1c.1-.3.1-.7.2-1.1z" class="st3" clip-rule="evenodd"/>
</svg>
