<svg xmlns="http://www.w3.org/2000/svg" xmlns:xlink="http://www.w3.org/1999/xlink" width="1400" height="980" version="1"><g transform="translate(-25.962 -4.327)"><defs><path id="a" d="M16 14.6h1367.9v948H16v-948z"/></defs><clipPath id="b"><use overflow="visible" xlink:href="#a"/></clipPath><g clip-path="url(#b)"><path fill="#242424" d="M-49.9 0h1458.5v840.8H-49.9V0z"/><linearGradient id="c" x1="489.474" x2="489.474" y1="301.128" y2="815.855" gradientUnits="userSpaceOnUse"><stop offset="0"/><stop offset="1" stop-color="#2a383d"/></linearGradient><path fill="url(#c)" d="M413.9 288h151.2v206.4H413.9V288z"/><linearGradient id="d" x1="489.329" x2="489.329" y1="292.964" y2="854.335" gradientUnits="userSpaceOnUse"><stop offset="0" stop-color="#111719"/><stop offset="1" stop-color="#2a383d"/></linearGradient><path fill="url(#d)" d="M404.1 278.7v225.1h170.5V278.7H404.1zm161 9.3v31.5h-33.6V288h-4.2v31.5h-35.4V288h-4.2v31.5h-35.4V288H448v31.5h-34.1V288h151.2zm-33.6 133.6v-30.2h33.6v30.2h-33.6zm33.6 3.8v30.2h-33.6v-30.2h33.6zm-33.6-37.8v-30.2h33.6v30.2h-33.6zm0-34.1v-30.2h33.6v30.2h-33.6zm-83.5 3.8v30.2h-34.1v-30.2H448zm-34.1-3.8v-30.2H448v30.2h-34.1zm34.1 37.9v30.2h-34.1v-30.2H448zm0 34v30.2h-34.1v-30.2H448zm39.6-68.1v30.2h-35.4v-30.2h35.4zm-35.4-3.8v-30.2h35.4v30.2h-35.4zm35.4 37.9v30.2h-35.4v-30.2h35.4zm0 34v30.2h-35.4v-30.2h35.4zm0 34.1v34.9h-35.4v-34.9h35.4zm39.7-102.2v30.2h-35.4v-30.2h35.4zm-35.4-3.8v-30.2h35.4v30.2h-35.4zm35.4 37.9v30.2h-35.4v-30.2h35.4zm0 34v30.2h-35.4v-30.2h35.4zm0 34.1v34.9h-35.4v-34.9h35.4zm-113.4 0H448v34.9h-34.1v-34.9zm117.6 34.9v-34.9h33.6v34.9h-33.6z"/><linearGradient id="e" x1="148.231" x2="148.231" y1="301.128" y2="815.855" gradientUnits="userSpaceOnUse"><stop offset="0"/><stop offset="1" stop-color="#2a383d"/></linearGradient><path fill="url(#e)" d="M72.6 288h151.2v206.4H72.6V288z"/><linearGradient id="f" x1="148.086" x2="148.086" y1="292.964" y2="854.335" gradientUnits="userSpaceOnUse"><stop offset="0" stop-color="#111719"/><stop offset="1" stop-color="#2a383d"/></linearGradient><path fill="url(#f)" d="M62.8 278.7v225.1h170.5V278.7H62.8zm161 9.3v31.5h-33.6V288H186v31.5h-35.4V288h-4.2v31.5H111V288h-4.2v31.5H72.6V288h151.2zm-33.5 133.6v-30.2h33.6v30.2h-33.6zm33.5 3.8v30.2h-33.6v-30.2h33.6zm-33.5-37.8v-30.2h33.6v30.2h-33.6zm0-34.1v-30.2h33.6v30.2h-33.6zm-83.5 3.8v30.2H72.6v-30.2h34.2zm-34.2-3.8v-30.2h34.1v30.2H72.6zm34.2 37.9v30.2H72.6v-30.2h34.2zm0 34v30.2H72.6v-30.2h34.2zm39.6-68.1v30.2H111v-30.2h35.4zm-35.4-3.8v-30.2h35.4v30.2H111zm35.4 37.9v30.2H111v-30.2h35.4zm0 34v30.2H111v-30.2h35.4zm0 34.1v34.9H111v-34.9h35.4zm39.7-102.2v30.2h-35.4v-30.2h35.4zm-35.5-3.8v-30.2H186v30.2h-35.4zm35.5 37.9v30.2h-35.4v-30.2h35.4zm0 34v30.2h-35.4v-30.2h35.4zm0 34.1v34.9h-35.4v-34.9h35.4zm-113.5 0h34.1v34.9H72.6v-34.9zm117.7 34.9v-34.9h33.6v34.9h-33.6z"/><linearGradient id="g" x1="1111.048" x2="722.064" y1="453.402" y2="520.521" gradientUnits="userSpaceOnUse"><stop offset="0" stop-color="#111719"/><stop offset="1" stop-color="#2a383d"/></linearGradient><path fill="url(#g)" d="M1028 278.7h219.2V619H1028V278.7z"/><radialGradient id="h" cx="1364.247" cy="277.964" r="300.214" gradientUnits="userSpaceOnUse"><stop offset="0" stop-color="#2a383d"/><stop offset="1"/></radialGradient><path fill="url(#h)" d="M1042.3 293.3h190.6v324.6h-190.6V293.3z"/><linearGradient id="i" x1="1069.874" x2="1357.525" y1="520.238" y2="233.68" gradientUnits="userSpaceOnUse"><stop offset="0" stop-color="#111719"/><stop offset="1" stop-color="#2a383d"/></linearGradient><path fill="url(#i)" d="M1232.9 617.9V293.3h-190.6v324.6h-5.8V288h201.8v329.9z"/><path fill="#242424" d="M-54.5 617H1404v363H-54.5V617z"/><path d="M877.6 640h-93.9l-12.9-4.4L894.6 620h20.3z"/><linearGradient id="j" x1="932.508" x2="726.589" y1="631.617" y2="574.152" gradientUnits="userSpaceOnUse"><stop offset="0"/><stop offset="1" stop-color="#2a383d"/></linearGradient><path fill="url(#j)" d="M770.8 562.4h89.9v73.2h-89.9v-73.2z"/><linearGradient id="k" x1="884.252" x2="842.984" y1="606.042" y2="523.123" gradientUnits="userSpaceOnUse"><stop offset="0"/><stop offset="1" stop-color="#2a383d"/></linearGradient><path fill="url(#k)" d="M894.6 620l-33.9 15.6v-73.2l33.9-12.6z"/><linearGradient id="l" x1="908.232" x2="677.74" y1="549.314" y2="569.652" gradientUnits="userSpaceOnUse"><stop offset="0"/><stop offset="1" stop-color="#2a383d"/></linearGradient><path fill="url(#l)" d="M770.8 562.4l30.2-12.6h93.6l-33.9 12.6z"/><path d="M986.3 640H881.2l-14.5-4.9 138.5-17.4h22.8z"/><linearGradient id="m" x1="955.171" x2="775.185" y1="616.54" y2="510.957" gradientUnits="userSpaceOnUse"><stop offset="0"/><stop offset="1" stop-color="#2a383d"/></linearGradient><path fill="url(#m)" d="M866.7 553.2h100.6v81.9H866.7v-81.9z"/><linearGradient id="n" x1="1007.953" x2="770.23" y1="598.545" y2="473.356" gradientUnits="userSpaceOnUse"><stop offset="0"/><stop offset="1" stop-color="#2a383d"/></linearGradient><path fill="url(#n)" d="M1005.2 617.7l-37.9 17.4v-81.9l37.9-14.1z"/><linearGradient id="o" x1="974.136" x2="818.667" y1="549.954" y2="534.588" gradientUnits="userSpaceOnUse"><stop offset="0"/><stop offset="1" stop-color="#2a383d"/></linearGradient><path fill="url(#o)" d="M866.7 553.2l33.8-14.1h104.7l-37.9 14.1z"/><path d="M99.5 640H-5.6l-14.4-4.9 138.4-17.4h22.8z"/><linearGradient id="p" x1="-19.479" x2="148.067" y1="617.852" y2="538.055" gradientUnits="userSpaceOnUse"><stop offset="0"/><stop offset="1" stop-color="#2a383d"/></linearGradient><path fill="url(#p)" d="M-20 553.2H80.6v81.9H-20v-81.9z"/><linearGradient id="q" x1="70.534" x2="123.211" y1="664.979" y2="520.255" gradientUnits="userSpaceOnUse"><stop offset="0"/><stop offset="1" stop-color="#2a383d"/></linearGradient><path fill="url(#q)" d="M118.4 617.7l-37.9 17.4v-81.9l37.9-14.1z"/><linearGradient id="r" x1="5.576" x2="110.931" y1="577.629" y2="501.663" gradientUnits="userSpaceOnUse"><stop offset="0"/><stop offset="1" stop-color="#2a383d"/></linearGradient><path fill="url(#r)" d="M-20 553.2l33.7-14.1h104.7l-37.9 14.1z"/><linearGradient id="s" x1="830.718" x2="830.718" y1="301.128" y2="815.855" gradientUnits="userSpaceOnUse"><stop offset="0"/><stop offset="1" stop-color="#2a383d"/></linearGradient><path fill="url(#s)" d="M755.1 288h151.2v206.4H755.1V288z"/><linearGradient id="t" x1="830.573" x2="830.573" y1="292.964" y2="854.335" gradientUnits="userSpaceOnUse"><stop offset="0" stop-color="#111719"/><stop offset="1" stop-color="#2a383d"/></linearGradient><path fill="url(#t)" d="M745.3 278.7v225.1h170.5V278.7H745.3zm161 9.3v31.5h-33.6V288h-4.2v31.5h-35.4V288h-4.2v31.5h-35.4V288h-4.2v31.5h-34.1V288h151.1zm-33.5 133.6v-30.2h33.6v30.2h-33.6zm33.5 3.8v30.2h-33.6v-30.2h33.6zm-33.5-37.8v-30.2h33.6v30.2h-33.6zm0-34.1v-30.2h33.6v30.2h-33.6zm-83.6 3.8v30.2h-34.1v-30.2h34.1zm-34.1-3.8v-30.2h34.1v30.2h-34.1zm34.1 37.9v30.2h-34.1v-30.2h34.1zm0 34v30.2h-34.1v-30.2h34.1zm39.7-68.1v30.2h-35.4v-30.2h35.4zm-35.4-3.8v-30.2h35.4v30.2h-35.4zm35.4 37.9v30.2h-35.4v-30.2h35.4zm0 34v30.2h-35.4v-30.2h35.4zm0 34.1v34.9h-35.4v-34.9h35.4zm39.6-102.2v30.2h-35.4v-30.2h35.4zm-35.4-3.8v-30.2h35.4v30.2h-35.4zm35.4 37.9v30.2h-35.4v-30.2h35.4zm0 34v30.2h-35.4v-30.2h35.4zm0 34.1v34.9h-35.4v-34.9h35.4zm-113.4 0h34.1v34.9h-34.1v-34.9zm117.7 34.9v-34.9h33.6v34.9h-33.6z"/><radialGradient id="u" cx="182.02" cy="409.269" r="149.712" fx="182.679" fy="266.301" gradientTransform="matrix(.6697 0 0 1 841.256 0)" gradientUnits="userSpaceOnUse"><stop offset="0" stop-color="#f9ed32"/><stop offset="1" stop-color="#f9ed32" stop-opacity="0"/></radialGradient><path fill="url(#u)" d="M1063.5 409.3A100.3 149.7 0 0 1 963.2 559a100.3 149.7 0 0 1-100.3-149.7 100.3 149.7 0 0 1 100.3-149.7 100.3 149.7 0 0 1 100.3 149.7z" opacity=".47"/><linearGradient id="v" x1="962.014" x2="938.376" y1="270.592" y2="321.651" gradientUnits="userSpaceOnUse"><stop offset="0"/><stop offset="1" stop-color="#2a383d"/></linearGradient><path fill="url(#v)" d="M926.2 264.5l82.6 4.1 4.2-4.1V249h-86.8l-4.3 4.1z"/><linearGradient id="w" x1="976.58" x2="931.667" y1="245.206" y2="307.611" gradientUnits="userSpaceOnUse"><stop offset="0"/><stop offset="1" stop-color="#2a383d"/></linearGradient><path fill="url(#w)" d="M921.9 253.1h86.8v15.5h-86.8v-15.5z"/><radialGradient id="x" cx="708.753" cy="409.269" r="149.712" fx="709.412" fy="266.301" gradientTransform="matrix(.6697 0 0 1 841.256 0)" gradientUnits="userSpaceOnUse"><stop offset="0" stop-color="#f9ed32"/><stop offset="1" stop-color="#f9ed32" stop-opacity="0"/></radialGradient><path fill="url(#x)" d="M1416.2 409.3A100.3 149.7 0 0 1 1315.9 559a100.3 149.7 0 0 1-100.3-149.7 100.3 149.7 0 0 1 100.3-149.7 100.3 149.7 0 0 1 100.3 149.7z" opacity=".48"/><linearGradient id="y" x1="1314.781" x2="1291.143" y1="270.592" y2="321.651" gradientUnits="userSpaceOnUse"><stop offset="0"/><stop offset="1" stop-color="#2a383d"/></linearGradient><path fill="url(#y)" d="M1279 264.5l82.5 4.1 4.3-4.1V249H1279l-4.3 4.1z"/><linearGradient id="z" x1="1329.346" x2="1284.433" y1="245.206" y2="307.611" gradientUnits="userSpaceOnUse"><stop offset="0"/><stop offset="1" stop-color="#2a383d"/></linearGradient><path fill="url(#z)" d="M1274.7 253.1h86.8v15.5h-86.8v-15.5z"/><radialGradient id="A" cx="1407.783" cy="1099.024" r="214.082" gradientTransform="matrix(1.1519 0 0 .2471 -635.31 380.373)" gradientUnits="userSpaceOnUse"><stop offset="0" stop-color="#f9ed32"/><stop offset="1" stop-color="#f9ed32" stop-opacity="0"/></radialGradient><path fill="url(#A)" d="M1232.9 651.9a246.6 52.9 0 0 1-246.6 52.9 246.6 52.9 0 0 1-246.6-52.9A246.6 52.9 0 0 1 986.3 599a246.6 52.9 0 0 1 246.6 52.9z" opacity=".23"/><radialGradient id="B" cx="1551.605" cy="1099.024" r="232.08" gradientTransform="matrix(1.0705 0 0 .2471 -321.283 380.373)" gradientUnits="userSpaceOnUse"><stop offset="0" stop-color="#f9ed32"/><stop offset="1" stop-color="#f9ed32" stop-opacity="0"/></radialGradient><path fill="url(#B)" d="M1588.1 651.9a248.4 57.3 0 0 1-248.4 57.3 248.4 57.3 0 0 1-248.4-57.3 248.4 57.3 0 0 1 248.4-57.3 248.4 57.3 0 0 1 248.4 57.3z" opacity=".31"/><path fill="none" stroke="#050708" stroke-miterlimit="10" stroke-width="6.102" d="M1335.6 232.3s4.4 54.3 73 55.7"/><path fill="none" stroke="#050708" stroke-miterlimit="10" stroke-width="4.422" d="M1008.8 0v435.8M998.1 0v355.5"/><path fill="none" stroke="#050708" stroke-miterlimit="10" stroke-width="3" d="M1272.8 0v372.5"/><path fill="none" stroke="#050708" stroke-miterlimit="10" stroke-width="4.452" d="M1390.7 0v437.9M1266.6 0v437.9"/><path fill="none" stroke="#050708" stroke-miterlimit="10" stroke-width="3.051" d="M35 0v420.8"/><path fill="none" stroke="#050708" stroke-miterlimit="10" stroke-width="3" d="M349.9 0v357.3"/><path fill="none" stroke="#050708" stroke-miterlimit="10" stroke-width="4" d="M337.6 0v260.8M717 0v260.8"/><g fill="#050708" opacity=".5"><path d="M244.4 232.3l-6.3 26.5 33.7 22-3 14.4 19.9 36.9-18.6-37.3 4.1-14.7-33.1-21.6 6.5-27.3z"/><path d="M294.8 302.5h-20.9v2.2z"/></g><g fill="#050708" opacity=".5"><path d="M664 234l6.3 26.5-33.7 22 3 14.4-19.9 36.9 18.6-37.3-4.1-14.7 33.1-21.6-6.5-27.3z"/><path d="M613.6 304.2h20.9v2.2z"/></g><g fill="#050708" opacity=".5"><path d="M767.4 503.9l6.3 26.5-33.7 22 3 14.4-19.9 36.9 18.6-37.3-4.1-14.7 33.1-21.6-6.5-27.3z"/><path d="M717 574.1h20.9v2.1z"/></g><linearGradient id="C" x1="60.579" x2="60.579" y1="663.692" y2="632.101" gradientUnits="userSpaceOnUse"><stop offset="0"/><stop offset="1" stop-color="#be1e2d"/></linearGradient><path fill="url(#C)" d="M62.3 666.1L41.1 657H80z"/><linearGradient id="D" x1="26.492" x2="26.492" y1="662.262" y2="709.506" gradientUnits="userSpaceOnUse"><stop offset="0"/><stop offset="1" stop-color="#be1e2d"/></linearGradient><path fill="url(#D)" d="M28.1 661.6l6.9 5.1H18z"/><linearGradient id="E" x1="4051.379" x2="4051.379" y1="-801.317" y2="-778.195" gradientTransform="rotate(-149.61 2228.252 488.98)" gradientUnits="userSpaceOnUse"><stop offset="0"/><stop offset="1" stop-color="#be1e2d"/></linearGradient><path fill="url(#E)" d="M2.1 679.4l-1.6-3.9 7.2 4.2z"/><linearGradient id="F" x1="3965.698" x2="3965.698" y1="-740.185" y2="-710.757" gradientTransform="rotate(-149.61 2228.252 488.98)" gradientUnits="userSpaceOnUse"><stop offset="0"/><stop offset="1" stop-color="#be1e2d"/></linearGradient><path fill="url(#F)" d="M106.7 670l-2.1-5 9.2 5.4z"/><linearGradient id="G" x1="172.171" x2="172.171" y1="915.487" y2="944.915" gradientTransform="rotate(5.177 2924.127 3001.582) scale(.99998)" gradientUnits="userSpaceOnUse"><stop offset="0"/><stop offset="1" stop-color="#be1e2d"/></linearGradient><path fill="url(#G)" d="M372.7 675.4l4 3.6-10.6-1z"/><linearGradient id="H" x1="3595.35" x2="3595.35" y1="-536.876" y2="-507.449" gradientTransform="rotate(-149.61 2228.252 488.98)" gradientUnits="userSpaceOnUse"><stop offset="0"/><stop offset="1" stop-color="#be1e2d"/></linearGradient><path fill="url(#H)" d="M529 682l-2.1-5 9.2 5.4z"/><linearGradient id="I" x1="79.192" x2="79.192" y1="767.275" y2="796.703" gradientTransform="matrix(.9995 .03271 -.03271 .9995 118.27 -110.452)" gradientUnits="userSpaceOnUse"><stop offset="0"/><stop offset="1" stop-color="#be1e2d"/></linearGradient><path fill="url(#I)" d="M173.4 658.6l4.1 3.4-10.6-.4z"/><linearGradient id="J" x1="3519.461" x2="3519.461" y1="-457.071" y2="-427.644" gradientTransform="rotate(-149.61 2228.252 488.98)" gradientUnits="userSpaceOnUse"><stop offset="0"/><stop offset="1" stop-color="#be1e2d"/></linearGradient><path fill="url(#J)" d="M634.8 651.5l-2-4.9 9.1 5.3z"/><linearGradient id="K" x1="3382.575" x2="3382.575" y1="-390.238" y2="-360.811" gradientTransform="rotate(-149.61 2228.252 488.98)" gradientUnits="userSpaceOnUse"><stop offset="0"/><stop offset="1" stop-color="#be1e2d"/></linearGradient><path fill="url(#K)" d="M786.7 663.1l-2-4.9 9.1 5.3z"/><linearGradient id="L" x1="3660.41" x2="3660.41" y1="-547.681" y2="-518.254" gradientTransform="rotate(-149.61 2228.252 488.98)" gradientUnits="userSpaceOnUse"><stop offset="0"/><stop offset="1" stop-color="#be1e2d"/></linearGradient><path fill="url(#L)" d="M467.4 658.4l-2-5 9.1 5.4z"/><linearGradient id="M" x1="1209.67" x2="1209.67" y1="683.087" y2="730.332" gradientUnits="userSpaceOnUse"><stop offset="0"/><stop offset="1" stop-color="#be1e2d"/></linearGradient><path fill="url(#M)" d="M1211.3 682.4l6.9 5.2h-17.1z"/><linearGradient id="N" x1="793.819" x2="793.819" y1="680.495" y2="727.74" gradientUnits="userSpaceOnUse"><stop offset="0"/><stop offset="1" stop-color="#be1e2d"/></linearGradient><path fill="url(#N)" d="M795.5 679.8l6.8 5.2h-17z"/><linearGradient id="O" x1="-38.013" x2="-38.013" y1="655.161" y2="702.406" gradientUnits="userSpaceOnUse"><stop offset="0"/><stop offset="1" stop-color="#be1e2d"/></linearGradient><path fill="url(#O)" d="M-36.4 654.5l6.9 5.1h-17z"/><linearGradient id="P" x1="89.683" x2="89.683" y1="676.27" y2="723.515" gradientUnits="userSpaceOnUse"><stop offset="0"/><stop offset="1" stop-color="#be1e2d"/></linearGradient><path fill="url(#P)" d="M91.3 675.6l6.9 5.1h-17z"/><g><linearGradient id="Q" x1="57.332" x2="57.332" y1="959.567" y2="988.995" gradientTransform="rotate(5.177 2924.127 3001.582) scale(.99998)" gradientUnits="userSpaceOnUse"><stop offset="0"/><stop offset="1" stop-color="#be1e2d"/></linearGradient><path fill="url(#Q)" d="M254.3 708.9l4 3.6-10.6-1z"/><linearGradient id="R" x1="3723.607" x2="3723.607" y1="-710.182" y2="-680.754" gradientTransform="rotate(-149.61 2228.252 488.98)" gradientUnits="userSpaceOnUse"><stop offset="0"/><stop offset="1" stop-color="#be1e2d"/></linearGradient><path fill="url(#R)" d="M330.7 766.6l-2.1-5 9.2 5.4z"/><linearGradient id="S" x1="3868.985" x2="3868.985" y1="-765.466" y2="-736.038" gradientTransform="rotate(-149.61 2228.252 488.98)" gradientUnits="userSpaceOnUse"><stop offset="0"/><stop offset="1" stop-color="#be1e2d"/></linearGradient><path fill="url(#S)" d="M177.3 740.7l-2-5 9.1 5.4z"/><linearGradient id="T" x1="232.751" x2="232.751" y1="733.947" y2="781.192" gradientUnits="userSpaceOnUse"><stop offset="0"/><stop offset="1" stop-color="#be1e2d"/></linearGradient><path fill="url(#T)" d="M234.4 733.2l6.9 5.2h-17.1z"/><linearGradient id="U" x1="215.658" x2="215.658" y1="724.457" y2="756.62" gradientUnits="userSpaceOnUse"><stop offset="0"/><stop offset="1" stop-color="#be1e2d"/></linearGradient><path fill="url(#U)" d="M216.8 724l4.7 3.5h-11.6z"/></g><g><linearGradient id="V" x1="-99.457" x2="-99.457" y1="983.559" y2="1012.986" gradientTransform="rotate(5.177 2924.127 3001.582) scale(.99998)" gradientUnits="userSpaceOnUse"><stop offset="0"/><stop offset="1" stop-color="#be1e2d"/></linearGradient><path fill="url(#V)" d="M96 718.6l4 3.6-10.6-.9z"/><linearGradient id="W" x1="3855.232" x2="3855.232" y1="-798.687" y2="-769.26" gradientTransform="rotate(-149.61 2228.252 488.98)" gradientUnits="userSpaceOnUse"><stop offset="0"/><stop offset="1" stop-color="#be1e2d"/></linearGradient><path fill="url(#W)" d="M172.4 776.3l-2.1-4.9 9.2 5.3z"/><linearGradient id="X" x1="4000.61" x2="4000.61" y1="-853.971" y2="-824.544" gradientTransform="rotate(-149.61 2228.252 488.98)" gradientUnits="userSpaceOnUse"><stop offset="0"/><stop offset="1" stop-color="#be1e2d"/></linearGradient><path fill="url(#X)" d="M19 750.4l-2.1-4.9 9.2 5.4z"/><linearGradient id="Y" x1="74.436" x2="74.436" y1="743.695" y2="790.939" gradientUnits="userSpaceOnUse"><stop offset="0"/><stop offset="1" stop-color="#be1e2d"/></linearGradient><path fill="url(#Y)" d="M76.1 743l6.9 5.2H65.9z"/><linearGradient id="Z" x1="57.344" x2="57.344" y1="734.204" y2="766.367" gradientUnits="userSpaceOnUse"><stop offset="0"/><stop offset="1" stop-color="#be1e2d"/></linearGradient><path fill="url(#Z)" d="M58.5 733.7l4.6 3.6H51.5z"/></g><g><linearGradient id="aa" x1="118.123" x2="118.123" y1="937.841" y2="967.269" gradientTransform="rotate(5.177 2924.127 3001.582) scale(.99998)" gradientUnits="userSpaceOnUse"><stop offset="0"/><stop offset="1" stop-color="#be1e2d"/></linearGradient><path fill="url(#aa)" d="M316.8 692.7l4 3.6-10.6-.9z"/><linearGradient id="ab" x1="3677.865" x2="3677.865" y1="-664.626" y2="-635.199" gradientTransform="rotate(-149.61 2228.252 488.98)" gradientUnits="userSpaceOnUse"><stop offset="0"/><stop offset="1" stop-color="#be1e2d"/></linearGradient><path fill="url(#ab)" d="M393.2 750.4l-2.1-4.9 9.2 5.3z"/><linearGradient id="ac" x1="3823.243" x2="3823.243" y1="-719.91" y2="-690.483" gradientTransform="rotate(-149.61 2228.252 488.98)" gradientUnits="userSpaceOnUse"><stop offset="0"/><stop offset="1" stop-color="#be1e2d"/></linearGradient><path fill="url(#ac)" d="M239.8 724.5l-2-4.9 9.1 5.4z"/><linearGradient id="ad" x1="295.255" x2="295.255" y1="717.795" y2="765.04" gradientUnits="userSpaceOnUse"><stop offset="0"/><stop offset="1" stop-color="#be1e2d"/></linearGradient><path fill="url(#ad)" d="M296.9 717.1l6.9 5.2h-17.1z"/><linearGradient id="ae" x1="278.162" x2="278.162" y1="708.304" y2="740.468" gradientUnits="userSpaceOnUse"><stop offset="0"/><stop offset="1" stop-color="#be1e2d"/></linearGradient><path fill="url(#ae)" d="M279.3 707.8l4.7 3.6h-11.6z"/></g><g><linearGradient id="af" x1="555.781" x2="555.781" y1="874.849" y2="904.277" gradientTransform="rotate(5.177 2924.127 3001.582) scale(.99998)" gradientUnits="userSpaceOnUse"><stop offset="0"/><stop offset="1" stop-color="#be1e2d"/></linearGradient><path fill="url(#af)" d="M758.4 669.5l4 3.6-10.6-1z"/><linearGradient id="ag" x1="3308.754" x2="3308.754" y1="-421.172" y2="-391.745" gradientTransform="rotate(-149.61 2228.252 488.98)" gradientUnits="userSpaceOnUse"><stop offset="0"/><stop offset="1" stop-color="#be1e2d"/></linearGradient><path fill="url(#ag)" d="M834.8 727.2l-2.1-5 9.1 5.4z"/><linearGradient id="ah" x1="3454.132" x2="3454.132" y1="-476.456" y2="-447.029" gradientTransform="rotate(-149.61 2228.252 488.98)" gradientUnits="userSpaceOnUse"><stop offset="0"/><stop offset="1" stop-color="#be1e2d"/></linearGradient><path fill="url(#ah)" d="M681.4 701.3l-2.1-5 9.2 5.4z"/><linearGradient id="ai" x1="736.811" x2="736.811" y1="694.548" y2="741.793" gradientUnits="userSpaceOnUse"><stop offset="0"/><stop offset="1" stop-color="#be1e2d"/></linearGradient><path fill="url(#ai)" d="M738.5 693.8l6.8 5.2h-17z"/><linearGradient id="aj" x1="719.718" x2="719.718" y1="685.057" y2="717.22" gradientUnits="userSpaceOnUse"><stop offset="0"/><stop offset="1" stop-color="#be1e2d"/></linearGradient><path fill="url(#aj)" d="M720.8 684.6l4.7 3.5h-11.6z"/></g><g><linearGradient id="ak" x1="803.232" x2="803.232" y1="841.96" y2="871.387" gradientTransform="rotate(5.177 2924.127 3001.582) scale(.99998)" gradientUnits="userSpaceOnUse"><stop offset="0"/><stop offset="1" stop-color="#be1e2d"/></linearGradient><path fill="url(#ak)" d="M1007.8 659.1l4 3.6-10.6-1z"/><linearGradient id="al" x1="3098.898" x2="3098.898" y1="-285.99" y2="-256.563" gradientTransform="rotate(-149.61 2228.252 488.98)" gradientUnits="userSpaceOnUse"><stop offset="0"/><stop offset="1" stop-color="#be1e2d"/></linearGradient><path fill="url(#al)" d="M1084.2 716.7l-2.1-4.9 9.2 5.3z"/><linearGradient id="am" x1="3244.276" x2="3244.276" y1="-341.274" y2="-311.847" gradientTransform="rotate(-149.61 2228.252 488.98)" gradientUnits="userSpaceOnUse"><stop offset="0"/><stop offset="1" stop-color="#be1e2d"/></linearGradient><path fill="url(#am)" d="M930.8 690.9l-2.1-5 9.2 5.4z"/><linearGradient id="an" x1="986.22" x2="986.22" y1="684.12" y2="731.364" gradientUnits="userSpaceOnUse"><stop offset="0"/><stop offset="1" stop-color="#be1e2d"/></linearGradient><path fill="url(#an)" d="M987.9 683.4l6.8 5.2h-17z"/><linearGradient id="ao" x1="969.128" x2="969.128" y1="674.629" y2="706.792" gradientUnits="userSpaceOnUse"><stop offset="0"/><stop offset="1" stop-color="#be1e2d"/></linearGradient><path fill="url(#ao)" d="M970.2 674.1l4.7 3.6h-11.6z"/></g><g><linearGradient id="ap" x1="612.221" x2="612.221" y1="937.077" y2="966.505" gradientTransform="rotate(5.177 2924.127 3001.582) scale(.99998)" gradientUnits="userSpaceOnUse"><stop offset="0"/><stop offset="1" stop-color="#be1e2d"/></linearGradient><path fill="url(#ap)" d="M809 736.6l4 3.6-10.6-1z"/><linearGradient id="aq" x1="3231.181" x2="3231.181" y1="-453.423" y2="-423.996" gradientTransform="rotate(-149.61 2228.252 488.98)" gradientUnits="userSpaceOnUse"><stop offset="0"/><stop offset="1" stop-color="#be1e2d"/></linearGradient><path fill="url(#aq)" d="M885.3 794.2l-2-4.9 9.1 5.3z"/><linearGradient id="ar" x1="3376.559" x2="3376.559" y1="-508.707" y2="-479.28" gradientTransform="rotate(-149.61 2228.252 488.98)" gradientUnits="userSpaceOnUse"><stop offset="0"/><stop offset="1" stop-color="#be1e2d"/></linearGradient><path fill="url(#ar)" d="M732 768.4l-2.1-5 9.2 5.4z"/><linearGradient id="as" x1="787.406" x2="787.406" y1="761.615" y2="808.859" gradientUnits="userSpaceOnUse"><stop offset="0"/><stop offset="1" stop-color="#be1e2d"/></linearGradient><path fill="url(#as)" d="M789 760.9l6.9 5.2h-17z"/><linearGradient id="at" x1="770.313" x2="770.313" y1="752.124" y2="784.287" gradientUnits="userSpaceOnUse"><stop offset="0"/><stop offset="1" stop-color="#be1e2d"/></linearGradient><path fill="url(#at)" d="M771.4 751.6l4.7 3.6h-11.6z"/></g><g><linearGradient id="au" x1="413.651" x2="413.651" y1="994.855" y2="1024.282" gradientTransform="rotate(5.177 2924.127 3001.582) scale(.99998)" gradientUnits="userSpaceOnUse"><stop offset="0"/><stop offset="1" stop-color="#be1e2d"/></linearGradient><path fill="url(#au)" d="M606 776.2l4 3.6-10.6-1z"/><linearGradient id="av" x1="3386.211" x2="3386.211" y1="-590.296" y2="-560.869" gradientTransform="rotate(-149.61 2228.252 488.98)" gradientUnits="userSpaceOnUse"><stop offset="0"/><stop offset="1" stop-color="#be1e2d"/></linearGradient><path fill="url(#av)" d="M682.4 833.9l-2.1-5 9.2 5.4z"/><linearGradient id="aw" x1="3531.589" x2="3531.589" y1="-645.58" y2="-616.153" gradientTransform="rotate(-149.61 2228.252 488.98)" gradientUnits="userSpaceOnUse"><stop offset="0"/><stop offset="1" stop-color="#be1e2d"/></linearGradient><path fill="url(#aw)" d="M529 808l-2.1-5 9.2 5.4z"/><linearGradient id="ax" x1="584.432" x2="584.432" y1="801.24" y2="848.485" gradientUnits="userSpaceOnUse"><stop offset="0"/><stop offset="1" stop-color="#be1e2d"/></linearGradient><path fill="url(#ax)" d="M586.1 800.5l6.9 5.2h-17.1z"/><linearGradient id="ay" x1="567.34" x2="567.34" y1="791.749" y2="823.913" gradientUnits="userSpaceOnUse"><stop offset="0"/><stop offset="1" stop-color="#be1e2d"/></linearGradient><path fill="url(#ay)" d="M568.5 791.3l4.6 3.5h-11.6z"/></g><g><linearGradient id="az" x1="426.795" x2="426.795" y1="963.877" y2="1011.283" gradientTransform="rotate(5.177 2924.127 3001.582) scale(.99998)" gradientUnits="userSpaceOnUse"><stop offset="0"/><stop offset="1" stop-color="#be1e2d"/></linearGradient><path fill="url(#az)" d="M622.5 746.3l6.5 5.8-17.1-1.5z"/><linearGradient id="aA" x1="3328.381" x2="3328.381" y1="-562.683" y2="-515.277" gradientTransform="rotate(-149.61 2228.252 488.98)" gradientUnits="userSpaceOnUse"><stop offset="0"/><stop offset="1" stop-color="#be1e2d"/></linearGradient><path fill="url(#aA)" d="M745.6 839.2l-3.4-8 14.8 8.7z"/><linearGradient id="aB" x1="3562.574" x2="3562.574" y1="-651.741" y2="-604.336" gradientTransform="rotate(-149.61 2228.252 488.98)" gradientUnits="userSpaceOnUse"><stop offset="0"/><stop offset="1" stop-color="#be1e2d"/></linearGradient><path fill="url(#aB)" d="M498.5 797.5l-3.3-7.9 14.7 8.6z"/><linearGradient id="aC" x1="587.778" x2="587.778" y1="786.673" y2="862.78" gradientUnits="userSpaceOnUse"><stop offset="0"/><stop offset="1" stop-color="#be1e2d"/></linearGradient><path fill="url(#aC)" d="M590.4 785.5l11.1 8.4H574z"/><linearGradient id="aD" x1="560.243" x2="560.243" y1="771.383" y2="823.196" gradientUnits="userSpaceOnUse"><stop offset="0"/><stop offset="1" stop-color="#be1e2d"/></linearGradient><path fill="url(#aD)" d="M562 770.6l7.6 5.7h-18.7z"/></g><g fill="#050708" opacity=".5"><path d="M-49.9 326.5l27.7 35.5 45.3 3.8h-45.8l-27.2-32.5z"/><path d="M-11.1 384.1l-6.9-21.7-4.7 3.4z"/></g><g fill="#050708" opacity=".5"><path d="M149.7 617.7l22.9-19.3 1.4-30.1 1.1 30.4-20.9 18.8z"/><path d="M187 590.5l-14.3 5.1 2.4 3.1z"/></g><g fill="#050708" opacity=".5"><path d="M443 617.7l-32.7-27.5-2-43.2-1.6 43.5 29.9 26.9z"/><path d="M389.7 578.9l20.4 7.2-3.4 4.4zM419.8 600.2l8.3-24.7-5.6 25zM385.2 616.7l-8.8-28.7 6.9 29.7z"/></g><g fill="#050708" opacity=".5"><path d="M178 617.7l46.5-39.1 2.8-61.4 2.3 61.8-42.5 38.3z"/><path d="M253.7 562.5l-28.9 10.2 4.8 6.3zM211 592.9l-11.8-35.3 7.9 35.6zM260.2 616.2l12.5-40.8-9.8 42.3z"/></g><g><path fill="#080708" d="M483.8 642.5l-157.2 10.1h-100l-39.5-10.1 47.9-5.3h90.2z"/><path fill="#A1A1AA" d="M455.1 466.7l39.8 9.2-2.5 6.9-39.4-10z"/><path fill="#4E4E52" d="M490.7 482.4l-34.4-11.2-1.2-4.5-2.1 6.1z"/><path fill="#EEC19C" d="M470.5 458.9l17.7 10.3-1.6 16-19.6-5.8-.1-12.1-1.9-8.1z"/><path fill="#A1A1AA" d="M382.6 388.2l-16.5 9.9-4.3 78 50.6 6.7-1.5-84.7z"/><path fill="#DBAE88" d="M389.4 387l6.8-17.8 14.7 8.9-5.5 15 5.5 5-3.7 13.1-2.6-8.3-22-14.7z"/><path fill="#282729" d="M446.3 642.5l1.2-12.9h14.1l19.7 6.5 2.5 6.4z"/><path fill="#414042" d="M413.6 427.6l18.8 35.7 34.5 6.1 3.6-10.5-30.1-13.5-12.5-38.4zM361.8 501.3v-25.2l54.4 6.7 25.9 77.9 22.9 70-17.5-1.1-25.9-62.9-23.6-40.3-15.4 53.9-37.4 49.3-14.2-4.3 30.8-61.1z"/><path fill="#080708" d="M331 625.3l-9.8 14.2 24 3h16.6l-4.3-8.6-12.3-4.3z"/><path fill="#EEC19C" d="M320 462.6l-4.3 10.4 2.1 12.9-13.8 7.4-7.4-9.2 5-6.2 4.3 2 2.4-8.7 1.9-8z"/><path fill="#A8774D" d="M389.4 387l-6.8 1.2 22 14.7 2.6 8.3 2-6.2-.5-3.8-3.1 1.3-10.4-9.8 2.3-7.8 9.7 3-11.3-6-1.8-7.5z"/><path fill="#B8B8C2" d="M493 473.2l-3.1 12.6 13.5 3.3 3-12.4z"/><path fill="#080708" d="M345.2 629.6l37.4-49.3-12.3-6.5 2.7-75.3 44.4-12.1-1.2-3.6-54.4-6.7v88.1L331 625.3z"/><path fill="#414042" d="M355.9 391.9l26.7-3.7 14.2 28.9-5.6 69.3-40.5-3.6 8.6-58.3-21.5 12.9-17.2 32.5-12.3-6.7 20.3-43z"/><path fill="#6E4B2E" d="M389.4 387l-6.8 1.2 8 5.4 5.3-11.7-1.8-7.5z"/><path fill="#414042" d="M410.9 398.1l-6.3 88.3 15.6-1.2-.5-33.6 8.2-44.6z"/><path fill="#BCBCC7" d="M382.6 388.2l3.7-2.3 18.3 17-5.3 6.3zM405.4 393.1l2.9 9.2 1.8 6.9.8-11.1z"/><path fill="#080708" d="M398 526.4l3.8-14.7 30.3 51.9L453 630l-5.5-.4-25.9-62.9zM391.2 486.4l-20.9-6.5 3.9-68.7-14.9 13.3-8.6 58.3zM420.2 485.2l-15.6 1.2 6.3-88.3 3.8 75.1zM427.9 407l-6.3 35.8 10.8 20.5 34.5 6.1-30.3-14.3zM316.3 467.6l18.1-40.1 27.4-29.4 23.2-5-2.4-4.9-26.7 3.7-27.3 28.3-20.3 43z"/><path fill="#080708" d="M453 630l30.8 12.5h-37.5l1.2-12.9z"/><path fill="#7B787D" d="M382.6 580.3l15.4-53.9 3.8-14.7-.9-15.9-20.1 75.1 1.8 9.4zM417.4 486.4l20.7 76.3-2.7 4.8 6.7 4.5 8.7 15.3zM420.2 485.2l-.5-33.6 8.2-44.6-17-8.9 9.3 11.1-4 41.4zM391.2 486.4l5.6-69.3-11.8-24 8.6 25.7zM320.6 469.9l17.2-32.5 21.5-12.9 14.9-13.3-17.1 10.9-21.5 13.4zM466.9 469.4l-28.5-20.6-10.5-41.8 12.5 38.4 30.1 13.5z"/><path fill="#5F5D61" d="M404.9 481.4l5.2-72.2-8.3 55.7-6.3 7.1 1.3-54.9-5.1 63z"/><path fill="#7B787D" d="M386.3 385.9l-3.7 2.3 16.7 21-8.8-14.6.7-4.2zM405.4 393.1l4 5.8.7 10.3z"/><path fill="#4B494D" d="M404.6 402.9l-5.3 9.1-16.4-23.3 16.4 20.5z"/><path fill="#48474A" d="M404.9 481.4l-4-.3 7.2-44.5z"/><path fill="#080708" d="M385 393.1l-4.2 32.2 7.4 4.8-3.7 5.4 5.2 33.9-7.1-33.9 4.5-5.4-8-4z"/><path fill="#EEC19C" d="M395.9 381.9l21.3 11.5 4.4-38.7-11.5-9.4-20.4 8.2z"/><path fill="#5F3F2B" d="M404.6 357.7l20.1 2.8-3.1-5.8-11.5-9.4-20.4 8.2 4.8 27.6 2.3-7.6-2-1.2-.3-9.1 6.6 2.6v4.7z"/><path fill="#BA8454" d="M407.2 387.9c-.3-.4 1-22.6 1-22.6l2.8-5.2 10-.1-16.4-2.3-3.5 12.8v-4.8l-6.6-2.6.3 9.1 2 1.3-1.6 5.3.7 3.1 11.3 6z"/><path fill="#24170F" d="M394.5 381.1l-4.8-27.6 20.4-8.2 11.5 9.4-13.9-2.6-9 3.2 2.4 10.5-6.6-2.6.3 9.1 2 1.2z"/><path fill="#8F8F96" d="M498.9 488l1.2-13-7.1-1.8-3.1 12.6z"/><path fill="#4E4E52" d="M490.7 482.4l1.8-7.1-3.3-.7-1.5 6.8z"/><path fill="#BA8454" d="M486.6 485.2l-4.2-3.8-.8-6-1.1 6-4.9-1.9v-9.3l-1.7 9.4-4.9-1.1-2.1-9.1.1 10z"/><path fill="#BA8454" d="M478.2 469.4l5.9 10.6-7.3-10.1h-5z"/><radialGradient id="aE" cx="662.824" cy="450.822" r="300.981" gradientUnits="userSpaceOnUse"><stop offset="0" stop-color="#f9ed32"/><stop offset="1" stop-color="#f9ed32" stop-opacity="0"/></radialGradient><path fill="url(#aE)" d="M506.4 476.7l-13.4-3.5-.5 2.1-.6-.1-4.2-1 .5-5.1-17.6-10.3-30.1-13.4-12.6-38.4-17-8.9-5.5-4.9 1.9-5.1 10 5.4L421 360l3.7.5-3.1-5.8-11.5-9.4-20.4 8.2 3.9 22.3-4.2 11.1-1.5.3-1.5-1.4-3.7 2.4-26.8 3.7-27.3 28.3-20.3 43 1.6.9-1.6 7.1-2.5 8.8-4.3-2-4.9 6.1 7.4 9.2 13.8-7.4-2.2-12.9 1.9-4.7 3 1.6 17.2-32.6 21.5-12.9-8.6 58.4 11.1 1v80.5l-30.7 61-9.8 14.1 24 3.1h16.6l-4.3-8.6-12.3-4.3 37.5-49.3 15.4-53.9 23.6 40.3 25.9 62.9-1.2 12.9h37.5l-2.5-6.4-16.3-5.3-23-70-24.6-74.2v-.1l-.3-1 3.1-.2-.5-33.6 1.7-9.2.2.4 10.8 20.5 22.5 4-2 5.6 14 3.5v3.1l19.6 5.8.4-3.7 3.7.9-.8 3.4 9 2.2 4.5 1.1 3-12.6zm-41.3-7.7l1.8.3v.1l-1.8-.4z"/><linearGradient id="aF" x1="-177.571" x2="938.224" y1="171.118" y2="553.012" gradientUnits="userSpaceOnUse"><stop offset="0" stop-color="#f9ed32"/><stop offset="1" stop-color="#f9ed32" stop-opacity="0"/></linearGradient><path fill="url(#aF)" d="M503.4 489.1l416.8 185 140.3-206.5-554.1 9.1z"/><radialGradient id="aG" cx="1535.748" cy="946.431" r="139.279" fx="1431.776" fy="945.168" gradientTransform="matrix(1.8469 .3342 -.1382 .7637 -1980.422 -708.378)" gradientUnits="userSpaceOnUse"><stop offset="0" stop-color="#f9ed32"/><stop offset="1" stop-color="#f9ed32" stop-opacity="0"/></radialGradient><path fill="url(#aG)" d="M982.5 574.2C971.8 632.9 848 659.7 706 634s-248.6-94.2-238-152.9c10.6-58.7 134.4-85.5 276.5-59.8 142 25.7 248.6 94.1 238 152.9z" opacity=".22"/></g><path fill="#050708" d="M41.1 539.1l-3.3-14.7 7.5 14.7zM-49.9 518.7l23.8-15.9-23.8 12.1zM128.7 617l3.5-13.3V617zM319.3 617.7l-6.4-27.1 2.8 18.4-9.4-2.9 10 6.5.7 5.1z" opacity=".5"/><path fill="none" stroke="#000" stroke-miterlimit="10" stroke-width="3.051" d="M1159.3 293.3s5.6 55.1 72.7 55.1M1069.1 295.2s13 39.9 54.7 39.9 50.4-41.8 50.4-41.8" opacity=".25"/><path fill="#231F20" d="M-18.7 686.1c70.8-.8 141.7-1.7 212.5-2.5 11.9-.1 26.4 1.3 31.3 12.2-6.9 2.5-13.7 5-20.6 7.5 35 3.5 69.9 7.1 104.9 10.6 8.2.8 17.2 2 22.8 8 2.6 2.7 4.3 6.3 7.1 8.7 3.8 3.2 9.1 3.9 14.1 4.4 45.8 4.9 91.7 9.9 137.5 14.8-57.5 8.8-115 17.5-172.5 26.3-5.9.9-12.6 1.6-17.4-1.9s-4.4-13.2 1.6-13.9c-47.6.6-95.2 6.4-141.5 17.3 5.3 2 10.6 3.9 15.9 5.9-39.1 5.6-78.1 11.1-117.2 16.7 1.4 4.2 2.9 8.3 4.3 12.5-32.3 4.7-64.5 9.5-96.8 14.2 9.4-46 14.3-92.9 14.8-139.9M484.7 711.1c-19.6.4-39.2.8-58.8 1.1-7 .1-15.5-.6-18.7-6.8-.8-1.6-1.2-3.4-2.4-4.6-1.3-1.3-3.3-1.6-5.2-1.9-16.8-1.9-36.1-.6-47.9-12.7 31.5-2.6 63.2-3.4 94.9-2.5l-4.5 11.4c15.8-1.2 31.7-1.3 47.5-.3-4.2.8-8.2 2.9-11.1 6 13.3 0 26.6 2 39.2 6l-35.1 3.3M679.3 659.7l-86.7.6c-10.3.1-22.8-.3-27.5-3.3-1.2-.7-1.7-1.6-3.5-2.2-2-.6-4.9-.8-7.6-.9-24.7-.9-53.1-.3-70.5-6.1 46.5-1.3 93.2-1.7 139.8-1.2-2.2 1.8-4.4 3.7-6.7 5.5 23.3-.6 46.7-.6 69.9-.1-6.2.4-12 1.4-16.3 2.9 19.6 0 39.1 1 57.8 2.9-17.2.5-34.5 1-51.7 1.6M884.8 662.5l-86.7.6c-10.3.1-22.8-.3-27.5-3.3-1.2-.7-1.7-1.6-3.5-2.2-2-.6-4.9-.8-7.6-.9-24.7-.9-53.1-.3-70.5-6.1 46.5-1.3 93.2-1.7 139.8-1.2-2.2 1.8-4.4 3.7-6.7 5.5 23.3-.6 46.7-.6 69.9-.1-6.2.4-12 1.4-16.3 2.9 19.6 0 39.1 1 57.8 2.9-17.2.5-34.5 1-51.7 1.6" opacity=".14"/><path fill="#231F20" d="M154.6 813.8c-19.6.4-39.2.8-58.8 1.1-7 .1-15.5-.6-18.7-6.8-.8-1.6-1.2-3.4-2.4-4.6-1.3-1.3-3.3-1.6-5.2-1.9-16.8-1.9-36.1-.6-47.9-12.7 31.5-2.6 63.2-3.4 94.9-2.5l-4.5 11.4c15.8-1.2 31.7-1.3 47.5-.3-4.2.8-8.2 2.9-11.1 6 13.3 0 26.6 2 39.2 6l-35.1 3.3M1177.8 693c-30.6.4-61.2.8-91.8 1.1-10.9.1-24.2-.6-29.1-6.8-1.2-1.6-1.8-3.4-3.8-4.6-2.1-1.3-5.2-1.6-8.1-1.9-26.2-1.9-56.3-.6-74.7-12.7 49.3-2.6 98.8-3.4 148.2-2.5-2.4 3.8-4.7 7.6-7.1 11.4 24.7-1.2 49.4-1.3 74.1-.3-6.6.8-12.7 2.9-17.3 6 20.7 0 41.5 2 61.2 6-18.3 1.1-36.5 2.2-54.8 3.3M910.7 746.5c-19.6.4-39.2.8-58.8 1.1-7 .1-15.5-.6-18.7-6.8-.8-1.6-1.2-3.4-2.4-4.6-1.3-1.3-3.3-1.6-5.2-1.9-16.8-1.9-36.1-.6-47.9-12.7 31.5-2.6 63.2-3.4 94.9-2.5l-4.5 11.4c15.8-1.2 31.7-1.3 47.5-.3-4.2.8-8.2 2.9-11.1 6 13.3 0 26.6 2 39.2 6l-35.1 3.3M240.2 725c-19.6.4-39.2.8-58.8 1.1-7 .1-15.5-.6-18.7-6.8-.8-1.6-1.2-3.4-2.4-4.6-1.3-1.3-3.3-1.6-5.2-1.9-16.8-1.9-36.1-.6-47.9-12.7 31.5-2.6 63.2-3.4 94.9-2.5l-4.5 11.4c15.8-1.2 31.7-1.3 47.5-.3-4.2.8-8.2 2.9-11.1 6 13.3 0 26.6 2 39.2 6l-35.1 3.3M502.2 804.5c-19.6.4-39.2.8-58.8 1.1-7 .1-15.5-.6-18.7-6.8-.8-1.6-1.2-3.4-2.4-4.6-1.3-1.3-3.3-1.6-5.2-1.9-16.8-1.9-36.1-.6-47.9-12.7 31.5-2.6 63.2-3.4 94.9-2.5l-4.5 11.4c15.8-1.2 31.7-1.3 47.5-.3-4.2.8-8.2 2.9-11.1 6 13.3 0 26.6 2 39.2 6l-35.1 3.3" opacity=".14"/><path fill="#231F20" d="M540.9 770.4c-26.1-.2-52.2 1.5-78.1 5.1.2 1.6.5 3.3.7 4.9-22.9 0-45.7 2.8-67.9 8.2 34.4 0 68.7-.1 103.1-.1-.3-1.8-.6-3.5-.9-5.3 18.6-2.1 37.3-3.4 56-3.8-4.4-2.4-8.7-4.9-13.1-7.3M1313.3 627.2c-26.1-.2-52.2 1.5-78.1 5.1.2 1.6.5 3.3.7 4.9-22.9 0-45.7 2.8-67.9 8.2 34.4 0 68.7-.1 103.1-.1-.3-1.8-.6-3.5-.9-5.3 18.6-2.1 37.3-3.4 56-3.8-4.4-2.4-8.7-4.9-13.1-7.3M1173.3 627.2c-26.1-.2-52.2 1.5-78.1 5.1.2 1.6.5 3.3.7 4.9-22.9 0-45.7 2.8-67.9 8.2 34.4 0 68.7-.1 103.1-.1-.3-1.8-.6-3.5-.9-5.3 18.6-2.1 37.3-3.4 56-3.8-4.4-2.4-8.7-4.9-13.1-7.3M287.7 789.1c-26.1-.2-52.2 1.5-78.1 5.1.2 1.6.5 3.3.7 4.9-22.9 0-45.7 2.8-67.9 8.2 34.4 0 68.7-.1 103.1-.1-.3-1.8-.6-3.5-.9-5.3 18.6-2.1 37.3-3.4 56-3.8-4.4-2.4-8.7-4.9-13.1-7.3M693.4 699.8c-34.7-2.7-69.6.1-104.3 2.8-9.8.8-19.6 1.6-29.4 2.3 10.9 4.7 23.3 3.8 35.2 3.1 35.3-1.9 70.8-.6 105.9 4.1 7.2 1 16 1.4 20.3-4.5-10.7.5-21.4-1.7-31.1-6.2M986.4 713.7c-34.7-2.7-69.6.1-104.3 2.8-9.8.8-19.6 1.6-29.4 2.3 10.9 4.7 23.3 3.8 35.2 3.1 35.3-1.9 70.8-.6 105.9 4.1 7.2 1 16 1.4 20.3-4.5-10.7.5-21.4-1.7-31.1-6.2M720.4 753c-27.5-1.7-55.4 1.4-81.8 9.1 3.8 2.2 8.2 3.1 12.5 3.5 13.5 1.2 27-2 40.6-3.1 10.2-.8 20.5-.4 30.6 1.1 5 .8 10 1.8 15.1 1.6s10.3-2 13.5-5.9c-6.3-.8-12.6-1.6-18.9-2.5-1.3-.2-2.7-.5-3.3-1.6-.5-1-.1-2.3-.8-3.1-.6-.7-1.6-.7-2.6-.7-3.5.2-6.9.9-10.2 2.1M664.3 784.8c-9.2-1.4-18.9.1-27.2 4.3 11.1 1 22.3 1.5 33.5 1.5-1.4-3.8-5.2-6.5-9.3-6.6" opacity=".14"/><path fill="#242424" d="M186.827 185.096l50.192 45.866S227.5 106.346 227.5 105.48c0-.866-12.115 479.423-12.115 479.423M566.015 161.081" paint-order="fill"/><path fill="#242424" stroke="#050708" stroke-width="15" d="M478.966 104.368l-11.87-40.887" paint-order="stroke"/></g></g></svg>