<svg width="760" height="710" viewBox="0 0 760 710" fill="none" xmlns="http://www.w3.org/2000/svg">
<g filter="url(#filter0_f)">
<path d="M473.674 256.101C471.82 267.964 471.82 268.15 485.352 273.896C493.323 277.233 502.035 279.086 509.265 283.35C515.011 286.687 521.128 291.692 523.724 297.623C526.875 304.667 527.06 313.194 527.246 321.165C527.431 338.775 535.958 350.639 550.787 358.239C560.426 363.244 570.436 367.322 580.075 371.956C584.339 373.995 586.934 373.439 590.271 369.546C618.632 337.477 654.779 328.765 692.965 346.375C703.16 351.009 715.023 356.385 719.472 369.175C720.028 370.658 721.882 371.771 723.365 372.883C724.292 373.624 726.331 373.81 726.516 374.551C729.482 384.746 738.38 392.532 738.009 404.025C738.009 404.395 737.638 404.766 737.824 404.951C744.682 414.776 741.346 426.454 743.755 437.206C744.312 439.801 745.238 442.581 744.868 445.176C743.941 452.776 743.199 460.747 740.975 467.977C737.824 477.801 733.375 487.07 729.111 496.523C717.804 520.807 698.896 535.636 673.316 543.607C647.92 551.392 624.008 547.87 603.617 532.485C596.944 527.48 584.71 524.328 584.71 511.723C584.71 510.241 579.519 509.128 578.593 507.089C574.514 497.45 569.139 487.811 568.397 477.801C567.841 470.386 568.212 466.864 560.056 465.567C532.621 461.118 505.372 455.928 477.938 450.923C473.118 449.996 469.225 450.367 469.411 456.113C483.869 458.708 497.957 461.674 512.231 463.899C522.426 465.381 524.28 473.167 526.689 480.952C528.914 488.182 524.836 492.631 519.46 496.523C502.962 508.572 486.835 521.177 469.781 532.114C460.698 537.86 449.762 540.826 438.454 545.646C443.645 550.465 448.093 553.987 451.615 558.436C460.513 569.744 463.108 583.461 467.001 596.993C472.377 614.974 471.45 632.769 466.445 649.637C461.44 666.691 459.401 686.896 439.937 695.794C432.893 699.131 424.737 701.17 416.952 701.726C403.234 702.653 389.332 702.467 375.614 701.726C350.96 700.428 339.838 682.077 334.092 661.686C331.497 652.789 331.126 643.15 330.199 633.696C329.828 629.247 328.716 626.652 323.711 626.837C316.297 627.022 308.882 626.837 302.209 626.837C299.614 632.398 297.76 637.218 295.35 641.852C286.823 658.35 277.184 659.647 261.242 650.008C253.271 645.189 245.671 636.662 233.993 639.813C229.73 640.925 224.539 638.701 223.056 645.374C222.871 646.486 219.534 647.042 217.495 647.784C211.378 649.637 204.89 650.564 199.329 653.53C192.841 657.052 188.207 655.198 185.427 649.823C182.646 644.447 181.905 638.145 179.31 632.583C178.012 629.988 175.231 627.579 172.451 626.281C170.412 625.169 167.631 625.91 165.222 625.91C145.016 624.983 144.831 624.983 142.792 645.189C141.309 661.13 137.787 676.701 127.407 688.75C122.031 695.238 113.133 700.984 105.162 702.467C89.2207 705.248 72.7229 705.804 56.5959 705.062C45.2884 704.506 31.9419 705.619 23.7857 695.053C18.7808 688.379 13.9612 680.779 11.5514 672.994C0.800095 636.105 1.3562 599.217 14.332 562.885C18.2247 552.134 23.415 541.939 34.3517 537.304C41.3957 534.338 49.7373 532.485 57.3374 532.67C75.5034 532.855 93.6695 534.153 111.65 535.821C121.104 536.748 127.407 543.607 132.226 551.578C142.607 568.631 144.831 587.724 146.129 607.003C146.314 608.856 146.499 610.525 146.87 613.491C152.802 613.491 158.734 614.047 164.295 613.12C166.705 612.749 170.041 609.227 170.227 606.817C170.783 600.515 171.524 596.622 179.495 596.066C182.646 595.881 186.168 590.32 188.207 586.612C194.51 575.305 197.105 572.895 209.339 577.158C217.681 580.124 223.242 577.529 226.764 571.597C233.808 559.734 239.554 546.943 245.857 534.524C244.745 533.597 243.632 532.67 242.52 531.558C233.622 538.046 224.725 544.348 214.715 551.578C211.564 538.231 201.739 541.012 193.212 540.641C178.939 540.085 164.666 540.27 150.578 538.417C141.865 537.304 133.709 532.855 125.367 530.075C117.582 527.48 109.426 525.811 102.196 522.289C97.7476 520.065 92.7427 515.431 91.8158 511.167C89.7768 501.714 89.4061 491.518 89.7768 481.694C89.9622 477.987 92.9281 472.611 96.2647 471.313C107.387 466.494 119.065 462.972 130.743 458.894C133.153 458.152 135.563 457.411 137.787 456.484C136.119 453.703 134.821 450.923 132.968 448.513C132.226 447.401 130.187 446.845 128.704 446.845C113.319 446.474 102.196 437.762 90.1475 429.235C81.0645 422.747 68.8302 420.522 57.7081 416.815C51.7763 414.961 45.4738 414.035 39.7274 411.069C81.9913 403.654 123.143 406.805 163.553 427.196C161.329 411.254 166.148 401.059 179.124 394.385C185.983 390.863 184.685 384.005 180.793 378.258C175.046 369.917 176.344 362.688 184.315 355.829C169.114 351.38 155.953 344.336 146.499 331.916C137.973 320.794 133.338 308.56 135.007 294.101C135.933 286.316 134.451 278.16 134.08 270.374C134.08 269.447 133.153 268.335 133.524 267.779C139.27 254.618 132.597 242.569 130.558 229.964C130.187 227.183 130.743 223.291 132.411 221.252C143.348 207.905 142.977 192.149 142.236 176.393C141.309 160.266 139.27 143.953 138.158 127.826C137.787 122.636 138.899 117.446 140.012 112.441C140.938 107.992 143.719 103.543 143.719 99.2794C143.719 86.1183 151.504 82.2256 162.441 80.7426C169.67 79.8158 177.085 78.3328 184.5 77.9621C191.729 77.5914 194.139 73.3279 194.881 67.3961C196.549 53.4935 198.217 39.7763 207.3 28.4688C213.603 20.6834 219.534 11.6003 227.876 6.59537C233.622 3.07338 243.076 4.74169 250.862 5.11243C256.979 5.48317 262.911 7.89295 268.842 8.63442C278.667 9.932 283.857 16.976 287.935 24.5761C298.316 44.5958 297.574 64.6156 287.379 84.6354C284.413 90.3818 282.004 96.3135 278.852 102.987C291.643 105.026 295.906 115.036 302.023 123.377C315.37 141.543 330.199 158.597 342.063 177.505C348.921 188.441 359.858 191.593 368.756 198.451C373.946 202.344 379.322 206.237 384.883 209.203C390.629 212.169 397.302 213.652 402.864 216.803C408.981 220.139 415.098 223.847 420.103 228.481C426.776 234.598 434.005 237.749 442.903 239.418C450.132 240.715 456.806 245.535 463.479 249.057C465.889 250.725 469.04 253.135 473.674 256.101ZM281.818 186.032C280.15 188.998 278.111 192.334 276.257 195.856C275.516 197.525 275.701 199.564 275.33 201.232C269.213 226.998 262.911 252.95 256.608 278.716C260.13 278.716 264.95 278.716 269.213 278.716C271.994 266.111 274.774 254.062 277.369 242.198C278.667 236.823 281.447 234.598 287.379 235.896C299.799 238.491 312.219 241.271 324.638 242.94C332.238 243.867 339.838 243.125 347.624 243.125C348.18 241.642 348.921 240.345 349.478 238.862C317.78 232.374 307.214 201.047 281.818 186.032ZM328.16 614.232C329.458 595.881 331.311 578.085 342.619 563.627C348.736 555.841 349.663 548.982 344.843 541.012C343.175 538.046 340.58 535.821 338.355 533.041C335.946 535.451 332.609 537.49 331.311 540.27C325.38 553.431 320.004 566.963 314.258 580.31C309.623 591.061 304.062 601.627 310.179 614.047C315.37 614.232 321.302 614.232 328.16 614.232ZM561.539 445.547C561.539 444.249 561.539 443.137 561.539 441.84C533.548 431.83 505.557 422.005 477.196 411.995C475.528 429.976 481.83 439.059 496.845 442.025C501.294 442.952 505.928 444.064 510.562 444.435C524.28 445.732 537.997 447.215 551.714 447.957C554.68 448.142 558.202 446.474 561.539 445.547ZM151.134 482.621C136.304 469.645 126.85 469.274 107.016 479.099C99.2306 482.991 99.6013 489.665 102.938 494.299C105.904 498.192 113.875 502.64 117.397 501.158C129.075 496.338 139.826 489.109 151.134 482.621ZM481.83 407.361C506.67 416.074 529.47 424.044 554.865 432.757C533.733 401.244 509.45 393.088 481.83 407.361ZM494.435 476.133C488.133 474.65 483.684 475.206 482.016 482.065C481.46 483.918 478.864 487.07 477.752 486.884C465.889 484.289 467.928 493.928 464.406 499.304C483.869 506.719 494.806 498.006 494.435 476.133ZM293.496 587.91C299.243 593.285 302.209 591.988 304.618 586.241C310.179 572.524 315.926 558.992 321.672 545.461C323.155 541.753 324.638 537.86 326.492 533.226C324.453 533.597 323.526 533.597 323.341 533.968C313.331 551.763 303.692 569.558 293.496 587.91ZM167.446 472.982C168.929 473.352 172.636 464.084 175.231 459.264C175.417 458.894 175.046 458.152 174.861 456.669C172.266 455.742 169.3 454.63 165.963 453.333C164.295 456.113 162.812 458.337 160.773 461.674C157.807 459.264 155.953 456.855 153.543 456.113C151.69 455.557 148.168 456.113 147.426 457.411C146.499 459.079 146.685 463.157 147.982 463.899L167.446 472.982ZM119.25 514.875C133.524 528.592 154.1 533.968 161.329 526.738C149.651 515.802 134.451 520.065 119.25 514.875ZM256.979 578.827C255.867 579.012 254.754 579.197 253.642 579.197C251.232 586.241 248.637 593.1 246.784 600.329C246.598 601.256 249.749 603.295 251.232 604.778C254.94 599.403 259.574 594.398 261.984 588.466C263.096 586.241 259.018 581.978 256.979 578.827ZM517.236 308.56C515.011 302.999 514.455 298.921 512.045 296.14C510.377 294.472 505.928 293.545 503.518 294.657C500.738 295.955 498.884 299.477 496.66 302.072C499.255 303.74 501.479 305.965 504.26 306.892C507.411 308.004 510.933 308.004 517.236 308.56ZM579.334 381.966C572.475 379.185 565.617 376.59 558.758 373.81C558.202 374.366 557.646 375.107 557.09 375.663C559.87 379.371 562.28 383.263 565.617 386.415C573.402 394.015 574.7 393.459 579.334 381.966ZM459.772 495.04C458.845 495.967 458.103 497.079 457.176 498.006C459.586 493.187 461.996 488.367 464.591 482.991C456.991 482.991 450.318 482.991 444.386 482.991C449.947 487.07 454.767 491.148 459.772 495.04ZM175.417 502.455C176.344 501.899 177.456 501.343 178.383 500.787C176.9 498.562 175.973 495.411 173.934 494.299C166.148 490.035 156.695 493.187 147.241 502.455C152.802 508.201 156.88 503.753 159.846 499.675C163.739 494.67 167.075 495.04 171.153 499.118C172.451 500.416 174.119 501.343 175.417 502.455ZM458.103 520.992C465.889 516.914 472.006 513.763 477.938 510.611C477.752 509.87 477.382 508.943 477.196 508.202C471.82 507.275 466.259 506.348 460.513 505.421C459.772 510.241 459.215 514.133 458.103 520.992Z" fill="#3D3220"/>
</g>
<path d="M538.182 432.757C512.787 423.859 489.987 415.888 465.147 407.361L538.182 432.757Z" fill="#3D3220"/>
<path d="M477.752 476.133C478.123 498.006 467.186 506.719 447.537 499.489C451.059 493.928 449.205 484.289 460.884 487.07C461.996 487.255 464.591 484.104 465.147 482.25C467.001 475.206 471.45 474.65 477.752 476.133Z" fill="#3D3220"/>
<path d="M500.553 308.56C494.25 307.819 490.913 308.004 487.762 306.892C484.982 305.965 482.572 303.74 480.162 302.072C482.387 299.477 484.24 295.955 487.021 294.657C489.245 293.731 493.879 294.472 495.548 296.14" fill="#3D3220"/>
<path d="M443.089 495.04C438.084 491.148 433.264 487.255 427.888 482.991C433.82 482.991 440.679 482.991 448.094 482.991C445.313 488.367 442.903 493.187 440.679 498.006C441.42 496.894 442.162 495.967 443.089 495.04Z" fill="#3D3220"/>
<path d="M441.42 520.992C442.532 514.133 443.088 510.24 443.83 505.421C449.576 506.348 454.952 507.275 460.513 508.201C460.698 508.943 461.069 509.87 461.254 510.611C455.323 513.762 449.205 516.914 441.42 520.992Z" fill="#3D3220"/>
<path d="M488.084 255.708C486.231 267.571 486.231 267.756 499.762 273.503C507.733 276.84 516.446 278.693 523.675 282.957C529.421 286.293 535.539 291.298 538.134 297.23C541.285 304.274 541.47 312.801 541.656 320.772C541.841 338.382 550.368 350.245 565.197 357.845C574.837 362.85 584.846 366.928 594.486 371.563C598.749 373.602 601.344 373.046 604.681 369.153C633.042 337.084 669.189 328.372 707.375 345.982C717.57 350.616 729.434 355.992 733.882 368.782C734.439 370.265 736.292 371.377 737.775 372.489C738.702 373.231 740.741 373.416 740.926 374.158C743.892 384.353 752.79 392.138 752.419 403.631C752.419 404.002 752.049 404.373 752.234 404.558C759.093 414.383 755.756 426.061 758.166 436.812C758.722 439.407 759.649 442.188 759.278 444.783C758.351 452.383 757.609 460.354 755.385 467.583C752.234 477.408 747.785 486.676 743.522 496.13C732.214 520.413 713.307 535.243 687.726 543.214C662.33 550.999 638.418 547.477 618.027 532.091C611.354 527.086 599.12 523.935 599.12 511.33C599.12 509.847 593.93 508.735 593.003 506.696C588.925 497.057 583.549 487.418 582.807 477.408C582.251 469.993 582.622 466.471 574.466 465.174C547.031 460.725 519.782 455.534 492.348 450.529C487.528 449.603 483.635 449.973 483.821 455.72C498.28 458.315 512.368 461.281 526.641 463.505C536.836 464.988 538.69 472.774 541.1 480.559C543.324 487.788 539.246 492.237 533.87 496.13C517.372 508.179 501.245 520.784 484.192 531.721C475.109 537.467 464.172 540.433 452.864 545.253C458.055 550.072 462.504 553.594 466.026 558.043C474.923 569.35 477.518 583.068 481.411 596.599C486.787 614.58 485.86 632.376 480.855 649.244C475.85 666.298 473.811 686.503 454.347 695.401C447.303 698.737 439.147 700.776 431.362 701.333C417.644 702.259 403.742 702.074 390.025 701.333C365.371 700.035 354.249 681.683 348.502 661.293C345.907 652.395 345.536 642.756 344.609 633.302C344.239 628.854 343.126 626.258 338.122 626.444C330.707 626.629 323.292 626.444 316.619 626.444C314.024 632.005 312.17 636.824 309.76 641.459C301.233 657.956 291.594 659.254 275.652 649.615C267.682 644.795 260.082 636.268 248.403 639.42C244.14 640.532 238.95 638.307 237.467 644.981C237.281 646.093 233.945 646.649 231.906 647.39C225.788 649.244 219.301 650.171 213.74 653.137C207.252 656.659 202.617 654.805 199.837 649.429C197.056 644.054 196.315 637.751 193.72 632.19C192.422 629.595 189.642 627.185 186.861 625.888C184.822 624.776 182.042 625.517 179.632 625.517C159.427 624.59 159.241 624.59 157.202 644.795C155.719 660.737 152.197 676.308 141.817 688.357C136.441 694.845 127.543 700.591 119.573 702.074C103.631 704.854 87.1331 705.411 71.0061 704.669C59.6986 704.113 46.3521 705.225 38.1959 694.659C33.191 687.986 28.3714 680.386 25.9616 672.6C15.2103 635.712 15.7664 598.824 28.7421 562.492C32.6349 551.74 37.8252 541.545 48.7619 536.911C55.8059 533.945 64.1474 532.091 71.7475 532.277C89.9136 532.462 108.08 533.76 126.06 535.428C135.514 536.355 141.817 543.214 146.636 551.184C157.017 568.238 159.241 587.331 160.539 606.609C160.724 608.463 160.91 610.131 161.28 613.097C167.212 613.097 173.144 613.653 178.705 612.727C181.115 612.356 184.451 608.834 184.637 606.424C185.193 600.122 185.934 596.229 193.905 595.673C197.056 595.487 200.578 589.926 202.617 586.219C208.92 574.911 211.515 572.502 223.749 576.765C232.091 579.731 237.652 577.136 241.174 571.204C248.218 559.341 253.964 546.55 260.267 534.13C259.155 533.204 258.042 532.277 256.93 531.165C248.033 537.652 239.135 543.955 229.125 551.184C225.974 537.838 216.149 540.618 207.622 540.248C193.349 539.692 179.076 539.877 164.988 538.023C156.275 536.911 148.119 532.462 139.778 529.682C131.992 527.086 123.836 525.418 116.607 521.896C112.158 519.672 107.153 515.038 106.226 510.774C104.187 501.32 103.816 491.125 104.187 481.301C104.372 477.593 107.338 472.218 110.675 470.92C121.797 466.1 133.475 462.578 145.153 458.5C147.563 457.759 149.973 457.017 152.197 456.09C150.529 453.31 149.231 450.529 147.378 448.12C146.636 447.007 144.597 446.451 143.114 446.451C127.729 446.081 116.607 437.368 104.558 428.841C95.4746 422.353 83.2403 420.129 72.1183 416.422C66.1865 414.568 59.884 413.641 54.1376 410.675C96.4015 403.261 137.553 406.412 177.963 426.802C175.739 410.861 180.559 400.665 193.534 393.992C200.393 390.47 199.095 383.612 195.203 377.865C189.456 369.524 190.754 362.294 198.725 355.436C183.525 350.987 170.363 343.943 160.91 331.523C152.383 320.401 147.748 308.167 149.417 293.708C150.344 285.923 148.861 277.766 148.49 269.981C148.49 269.054 147.563 267.942 147.934 267.386C153.68 254.225 147.007 242.176 144.968 229.571C144.597 226.79 145.153 222.897 146.822 220.858C157.758 207.512 157.388 191.756 156.646 175.999C155.719 159.872 153.68 143.56 152.568 127.433C152.197 122.243 153.309 117.052 154.422 112.047C155.349 107.598 158.129 103.15 158.129 98.8861C158.129 85.725 165.915 81.8323 176.851 80.3493C184.081 79.4225 191.495 77.9395 198.91 77.5688C206.139 77.1981 208.549 72.9346 209.291 67.0028C210.959 53.1002 212.627 39.383 221.71 28.0755C228.013 20.29 233.945 11.207 242.286 6.20206C248.033 2.68007 257.486 4.34838 265.272 4.71912C271.389 5.08985 277.321 7.49964 283.253 8.24111C293.077 9.53869 298.267 16.5827 302.345 24.1828C312.726 44.2025 311.985 64.2223 301.789 84.242C298.823 89.9885 296.414 95.9202 293.262 102.593C306.053 104.633 310.316 114.642 316.433 122.984C329.78 141.15 344.609 158.204 356.473 177.111C363.332 188.048 374.268 191.199 383.166 198.058C388.356 201.951 393.732 205.844 399.293 208.809C405.039 211.775 411.713 213.258 417.274 216.41C423.391 219.746 429.508 223.453 434.513 228.088C441.186 234.205 448.416 237.356 457.313 239.024C464.543 240.322 471.216 245.142 477.889 248.664C480.299 250.332 483.45 252.742 488.084 255.708ZM296.228 185.638C294.56 188.604 292.521 191.941 290.667 195.463C289.926 197.131 290.111 199.17 289.74 200.839C283.623 226.605 277.321 252.556 271.018 278.322C274.54 278.322 279.36 278.322 283.623 278.322C286.404 265.717 289.184 253.668 291.779 241.805C293.077 236.429 295.858 234.205 301.789 235.502C314.209 238.098 326.629 240.878 339.048 242.546C346.648 243.473 354.249 242.732 362.034 242.732C362.59 241.249 363.332 239.951 363.888 238.468C332.19 231.98 321.624 200.653 296.228 185.638ZM342.57 613.839C343.868 595.487 345.722 577.692 357.029 563.233C363.146 555.448 364.073 548.589 359.254 540.618C357.585 537.652 354.99 535.428 352.766 532.648C350.356 535.057 347.019 537.096 345.722 539.877C339.79 553.038 334.414 566.57 328.668 579.916C324.034 590.668 318.472 601.234 324.59 613.653C329.78 613.839 335.712 613.839 342.57 613.839ZM575.949 445.154C575.949 443.856 575.949 442.744 575.949 441.446C547.958 431.437 519.968 421.612 491.606 411.602C489.938 429.583 496.241 438.666 511.255 441.632C515.704 442.559 520.338 443.671 524.973 444.042C538.69 445.339 552.407 446.822 566.124 447.564C569.09 447.749 572.612 446.081 575.949 445.154ZM165.544 482.227C150.714 469.252 141.261 468.881 121.426 478.705C113.641 482.598 114.011 489.271 117.348 493.906C120.314 497.798 128.285 502.247 131.807 500.764C143.485 495.945 154.236 488.715 165.544 482.227ZM496.241 406.968C521.08 415.68 543.88 423.651 569.276 432.363C548.144 400.851 523.86 392.695 496.241 406.968ZM508.846 475.74C502.543 474.257 498.094 474.813 496.426 481.671C495.87 483.525 493.275 486.676 492.162 486.491C480.299 483.896 482.338 493.535 478.816 498.911C498.28 506.325 509.216 497.613 508.846 475.74ZM307.906 587.516C313.653 592.892 316.619 591.595 319.029 585.848C324.59 572.131 330.336 558.599 336.082 545.067C337.565 541.36 339.048 537.467 340.902 532.833C338.863 533.204 337.936 533.204 337.751 533.574C327.741 551.37 318.102 569.165 307.906 587.516ZM181.856 472.588C183.339 472.959 187.046 463.691 189.642 458.871C189.827 458.5 189.456 457.759 189.271 456.276C186.676 455.349 183.71 454.237 180.373 452.939C178.705 455.72 177.222 457.944 175.183 461.281C172.217 458.871 170.363 456.461 167.954 455.72C166.1 455.164 162.578 455.72 161.836 457.017C160.91 458.686 161.095 462.764 162.393 463.505L181.856 472.588ZM133.66 514.481C147.934 528.199 168.51 533.574 175.739 526.345C164.061 515.408 148.861 519.672 133.66 514.481ZM271.389 578.433C270.277 578.619 269.165 578.804 268.052 578.804C265.643 585.848 263.047 592.707 261.194 599.936C261.008 600.863 264.16 602.902 265.643 604.385C269.35 599.009 273.984 594.004 276.394 588.073C277.506 585.848 273.428 581.585 271.389 578.433ZM531.646 308.167C529.421 302.606 528.865 298.528 526.455 295.747C524.787 294.079 520.338 293.152 517.929 294.264C515.148 295.562 513.294 299.084 511.07 301.679C513.665 303.347 515.89 305.572 518.67 306.498C521.821 307.611 525.343 307.611 531.646 308.167ZM593.744 381.572C586.885 378.792 580.027 376.197 573.168 373.416C572.612 373.972 572.056 374.714 571.5 375.27C574.281 378.977 576.69 382.87 580.027 386.021C587.812 393.621 589.11 393.065 593.744 381.572ZM474.182 494.647C473.255 495.574 472.513 496.686 471.587 497.613C473.996 492.793 476.406 487.974 479.001 482.598C471.401 482.598 464.728 482.598 458.796 482.598C464.357 486.676 469.177 490.754 474.182 494.647ZM189.827 502.062C190.754 501.506 191.866 500.95 192.793 500.393C191.31 498.169 190.383 495.018 188.344 493.906C180.559 489.642 171.105 492.793 161.651 502.062C167.212 507.808 171.29 503.359 174.256 499.281C178.149 494.276 181.485 494.647 185.564 498.725C186.861 500.023 188.529 500.95 189.827 502.062ZM472.513 520.599C480.299 516.52 486.416 513.369 492.348 510.218C492.162 509.476 491.792 508.55 491.606 507.808C486.231 506.881 480.67 505.954 474.923 505.028C474.182 509.847 473.626 513.74 472.513 520.599Z" fill="url(#paint0_linear)"/>
<path d="M569.276 432.363C543.88 423.466 521.08 415.495 496.241 406.968L569.276 432.363Z" fill="url(#paint1_linear)"/>
<path d="M508.846 475.739C509.216 497.613 498.28 506.325 478.631 499.096C482.153 493.535 480.299 483.896 491.977 486.676C493.089 486.862 495.684 483.71 496.241 481.857C498.094 474.813 502.543 474.257 508.846 475.739Z" fill="url(#paint2_linear)"/>
<path d="M531.646 308.167C525.343 307.425 522.006 307.611 518.855 306.498C516.075 305.572 513.665 303.347 511.255 301.679C513.48 299.084 515.333 295.562 518.114 294.264C520.338 293.337 524.972 294.079 526.641 295.747" fill="url(#paint3_linear)"/>
<path d="M474.182 494.647C469.177 490.754 464.357 486.862 458.981 482.598C464.913 482.598 471.772 482.598 479.187 482.598C476.406 487.974 473.996 492.793 471.772 497.613C472.513 496.501 473.255 495.574 474.182 494.647Z" fill="url(#paint4_linear)"/>
<path d="M472.513 520.598C473.626 513.74 474.182 509.847 474.923 505.028C480.67 505.954 486.045 506.881 491.606 507.808C491.792 508.55 492.162 509.476 492.348 510.218C486.416 513.369 480.299 516.52 472.513 520.598Z" fill="url(#paint5_linear)"/>
<defs>
<filter id="filter0_f" x="0" y="0.393311" width="748.953" height="708.968" filterUnits="userSpaceOnUse" color-interpolation-filters="sRGB">
<feFlood flood-opacity="0" result="BackgroundImageFix"/>
<feBlend mode="normal" in="SourceGraphic" in2="BackgroundImageFix" result="shape"/>
<feGaussianBlur stdDeviation="2" result="effect1_foregroundBlur"/>
</filter>
<linearGradient id="paint0_linear" x1="389.466" y1="379.05" x2="388.973" y2="704.968" gradientUnits="userSpaceOnUse">
<stop/>
<stop offset="0.675298" stop-color="#242424"/>
</linearGradient>
<linearGradient id="paint1_linear" x1="532.815" y1="420.556" x2="532.809" y2="432.363" gradientUnits="userSpaceOnUse">
<stop/>
<stop offset="0.675298" stop-color="#242424"/>
</linearGradient>
<linearGradient id="paint2_linear" x1="493.766" y1="489.259" x2="493.749" y2="501.588" gradientUnits="userSpaceOnUse">
<stop/>
<stop offset="0.675298" stop-color="#242424"/>
</linearGradient>
<linearGradient id="paint3_linear" x1="521.466" y1="301.515" x2="521.459" y2="308.167" gradientUnits="userSpaceOnUse">
<stop/>
<stop offset="0.675298" stop-color="#242424"/>
</linearGradient>
<linearGradient id="paint4_linear" x1="469.1" y1="490.632" x2="469.092" y2="497.613" gradientUnits="userSpaceOnUse">
<stop/>
<stop offset="0.675298" stop-color="#242424"/>
</linearGradient>
<linearGradient id="paint5_linear" x1="482.446" y1="513.359" x2="482.437" y2="520.599" gradientUnits="userSpaceOnUse">
<stop/>
<stop offset="0.675298" stop-color="#242424"/>
</linearGradient>
</defs>
</svg>
