<svg xmlns="http://www.w3.org/2000/svg" width="100%" height="193" fill="none"><path fill="url(#paint0_linear)" d="M723.551 145.367l42.661-.356.347 41.575-302.092 2.519-.183-22.027 21.103-.176-.064-7.694 14.268-.119-.15-18.009 11.828-.099.069 8.264 10.637-.089-.258-30.917 7.744-.065-.114-13.706-2.78.023-.02-2.45 4.879-.041-.056-6.668 20.962-.175.056 6.668 6.836-.057-.056-6.668 3.517-.03.056 6.669 3.489-.029-.056-6.668 3.858-.032.056 6.667 8.084-.067.02 2.451-1.219.01.303 36.36 26.209-.218-.517-62.035 1.05-.009-.036-4.217 1.958-.016-.117-13.963.709-.006.117 13.963 1.588-.014-.093-11.17.709-.006.093 11.17 3.348-.028.035 4.218 4.226-.035.517 62.034 12.651-.105-.158-18.978 7.829-.065-.085-10.202 35.882-.299.07 8.349 5.815-.048-.371-44.482-3.432.029-.01-1.112 3.433-.028-.017-2.023 4.34-.037-.028-3.305 35.57-.297.028 3.306 4.34-.036.017 2.051 3.432-.028.009 1.111-3.432.029.596 71.438z"/><path fill="url(#paint1_linear)" d="M11.27 55.66a.836.836 0 1 0-.014-1.672.836.836 0 0 0 .014 1.672z"/><path fill="url(#paint2_linear)" d="M489.287 174.336l-1.05-125.985-56.343-11.12 7.316 137.523-165.077 1.376-.649-77.84-3.028.026-.388-46.56-7.841.066-.105-12.483-2.796.023-.153-18.307-15.452.129-.112-13.435-1.355.012.112 13.434-3.027.026-.141-16.837-1.383.012.14 16.836-9.744.081.256 30.79-5.045.042.388 46.56-4.324.036.649 77.84-43.907.366-.864-103.614.778-.006-.01-1.182-5.42.045-.06-7.207.692-.006-.01-1.153-4.929.04-.035-4.15.432-.004-.007-.865-2.133.018-.033-3.921-2.047.017-.317.003-.116-13.954-.202.002-.288.002-.289.003.117 13.953-.952.008-.065-7.784-.23.002-.26.002-.288.003.065 7.784-2.364.02.033 3.92-2.451.02.007.865.75-.006.034 4.152-4.958.041.009 1.153.721-.006.06 7.208-5.42.045.01 1.182.779-.007.863 103.613-146.396 1.221.118 14.127 597.52-4.983-.118-14.126-109.667.914z"/><path fill="url(#paint3_linear)" d="M453.247 92.454c.398-.003.718-.38.714-.842-.004-.462-.33-.833-.728-.83-.398.003-.718.38-.714.842.004.462.33.833.728.83z"/><defs><linearGradient id="paint0_linear" x1="614.127" x2="615.061" y1="39.256" y2="187.849" gradientUnits="userSpaceOnUse"><stop stop-color="#242424"/><stop offset=".411" stop-color="#1E1D1D"/><stop offset="1" stop-color="#242424"/></linearGradient><linearGradient id="paint1_linear" x1="11.253" x2="11.29" y1="53.718" y2="56.004" gradientUnits="userSpaceOnUse"><stop stop-color="#534125"/><stop offset=".198" stop-color="#1E1D1D"/><stop offset=".802" stop-color="#242424"/></linearGradient><linearGradient id="paint2_linear" x1="298.218" x2="300.954" y1="-26.148" y2="228.369" gradientUnits="userSpaceOnUse"><stop stop-color="#534125"/><stop offset=".198" stop-color="#1E1D1D"/><stop offset=".802" stop-color="#242424"/></linearGradient><linearGradient id="paint3_linear" x1="453.23" x2="453.27" y1="90.512" y2="92.798" gradientUnits="userSpaceOnUse"><stop stop-color="#534125"/><stop offset=".198" stop-color="#1E1D1D"/><stop offset=".802" stop-color="#242424"/></linearGradient></defs></svg>