<svg xmlns="http://www.w3.org/2000/svg" width="1084" height="382" fill="none"><path fill="url(#paint0_linear)" d="M229.925 101.384c-2.125.878-.58 2.464-1.061 3.715 1.014.221 2.024.617 3.044.633 4.132.068 3.84-.284 3.836 2.936-.023 19.676-.028 39.352-.078 59.027-.002.673.773 2.644-1.686.933-.087-.061-.909.293-.888.384.277 1.185-.675 1.117-1.704 1.097-1.793-.035-3.59-.06-5.378.018-.492.021-.955.424-1.431.651.642.451 1.243 1.241 1.934 1.292 2.272.167 4.583.144 6.868.043 1.879-.084 2.585.473 2.312 1.865-.026.133-.004.271-.004.407.001 3.503.041 3.699-4.235 4.209-3.958.471-6.53 2.752-6.372 6.104.084 1.762.051 3.528-.016 5.291-.017.431-.379.853-.582 1.28-.326-.412-.678-.812-.971-1.237-.268-.389-.472-.804-.704-1.208-.121.49-.343.981-.333 1.47.01.5.028 1.26.421 1.454 2.766 1.368 2.223 3.466 2.173 5.439-.038 1.453.311 3.182-.591 4.245-.496.584-3.236-.067-4.945.033-5.958.35-11.916.73-17.851 1.256-.739.066-1.754 1.011-1.912 1.654-.305 1.245-.204 2.573-.063 3.853.173 1.562-.763 2.399-2.49 3.067-3.126 1.207-3.756 2.278-3.366 5.048.292 2.073-1.277 3.004-4.12 2.617-1.282-.174-2.648-.111-3.958-.013-1.926.143-2.567-.376-2.549-1.912.098-8.141.059-16.284.061-24.425.001-3.829-3.106-6.263-7.983-6.266-1.852-.002-3.708-.066-5.554.011-2.395.099-2.892-.869-2.885-2.485.057-13.908.049-27.817.058-41.726.003-3.254-2.06-5.662-6.099-6.666-1.657-.412-1.288-1.236-1.289-2.033-.009-11.398-.048-22.797.057-34.195.023-2.407-.596-3.001-3.913-2.946-6.521.109-13.049.076-19.572-.014-1.957-.027-2.534.428-2.526 1.937.064 11.67-.02 23.34.07 35.009.011 1.332-.509 2.319-1.826 2.869-3.192 1.333-3.985 3.603-4.016 6.024-.115 9.023-.1 18.048-.028 27.071.014 1.817-.801 2.481-3.188 2.472-17.192-.064-34.386-.025-51.578-.103-2.207-.01-3.081.323-3.013 2.193.147 4.064.747 3.505-4.532 3.536-1.41.008-2.853-.135-4.219.055-.666.093-1.188.793-1.775 1.218.531.254 1.072.497 1.592.763 1.062.545 2.137 1.077 3.156 1.667.395.228.577.684.981.891 4.485 2.292 5.27 5.56 4.948 9.463-.308 3.743.37 7.528.378 11.295.006 3.268-.366 6.535-.483 9.804-.083 2.329-.117 4.664.016 6.989.08 1.402-.477 2-2.351 1.845-3.713-.308-4.282.517-4.049 3.175.217 2.476.497 4.955.494 7.433-.003 2.522.096 5.125-.7 7.525-.32.966-2.788 1.772-4.47 2.163-9.57 2.228-19.193 4.318-28.805 6.436a5147.635 5147.635 0 0 1-28.16 6.138c-.458.098-1.068-.228-1.74-.357-.165 41.67-.186 83.34-.28 125.01-.004 1.394.354 1.667 2.165 1.669 359.83.242 719.659.524 1079.493.845 1.81.002 2.16-.271 2.16-1.665-.02-50.832.03-101.664.07-152.598-1.24-.311-2.53-.416-3.71-.745-13.35-3.714-26.66-7.494-40.03-11.165-2.07-.568-2.17-2.013-2.17-2.97-.03-6.888.27-13.777.42-20.666.06-2.602-.04-5.205.04-7.806.05-1.965-.86-2.994-3.51-2.857-4.04.209-8.11.038-12.17.051-2.51.007-4.4-.629-5.43-2.568-.99-1.857-2.21-3.638-3.33-5.453-.93-1.496-2.36-2.198-4.61-2.196-20.371.022-40.742-.005-61.114-.032-2.397-.003-4.142.579-5.138 2.434-1.058 1.97-2.555 3.799-3.63 5.764-.865 1.582-2.4 1.978-4.355 1.977-4.409-.002-8.82.045-13.227-.034-1.825-.033-2.713.246-2.617 1.869.145 2.443-.234 2.602-3.389 2.636-5.808.062-5.645.168-5.565-4.269.051-2.85.098-5.702-.021-8.55-.058-1.382.446-2.045 2.332-1.852 1.482.151 2.283-.427 1.867-1.49-.213-.544-1.111-1.041-1.852-1.315-.574-.212-1.561.162-2.052-.088-.911-.464-2.209-1.163-2.264-1.818-.242-2.906-.044-5.832-.126-8.748-.035-1.224.519-1.65 2.109-1.635 1.68.016 4.179.607 4.186-1.554.008-2.288-2.631-1.422-4.322-1.726-.736-.133-1.806-.796-1.859-1.274-.336-3.055-.678-6.135-.488-9.187.081-1.308 1.881-1.845 3.79-1.741 1.114.061 2.785.568 2.977-1.079.128-1.089-.144-1.877-1.922-1.742-.786.059-1.592-.036-2.379.018-1.61.109-2.116-.43-2.078-1.644.093-2.916.123-5.838-.002-8.752-.06-1.409.495-2.018 2.362-1.84.695.066 1.593.218 2.073-.035.792-.417 1.318-1.132 1.956-1.722-.657-.36-1.288-.998-1.975-1.036-4.369-.244-4.308-.202-4.393-3.587-.06-2.389-.463-4.777-.394-7.159.015-.518 1.291-1.196 2.162-1.47 1.056-.333 2.438-.118 3.411-.522.644-.267 1.06-1.199 1.092-1.847.015-.293-1.13-.858-1.788-.896-4.448-.257-4.451-.222-4.449-3.689.002-2.331.098-4.665-.028-6.991-.08-1.48.894-1.683 2.421-1.584.788.05 1.692.19 2.351-.04.662-.23 1.487-.86 1.502-1.33.016-.48-.757-1.099-1.387-1.428-.422-.22-1.201-.077-1.814-.037-2.233.145-3.13-.617-3.061-2.342.106-2.667.147-5.343-.01-8.007-.093-1.573.691-2.067 2.574-1.881.52.051 1.212.17 1.555-.024.84-.476 1.522-1.117 2.267-1.692-.741-.511-1.42-1.39-2.234-1.471-4.102-.411-4.05-.34-4.134-3.56-.058-2.185-.319-4.367-.505-6.55-.128-1.5.696-2.266 2.72-2.174.703.031 1.469.137 2.101-.028.747-.194 1.381-.646 2.064-.986-.613-.474-1.125-1.191-1.859-1.37-1.347-.328-3.616.024-4.068-.562-.742-.962-.406-2.445-.408-3.71-.014-8.618.003-17.236.009-25.855.002-1.516.027-3.032-.003-4.549-.031-1.599-1.11-2.43-3.202-2.436-3.704-.01-7.408-.027-11.112-.003-2.207.014-3.106.994-2.623 2.721.073.26.01.542.01.813l-.018 22.598c-.002 2.785-.126 5.573.037 8.352.107 1.82-.834 2.83-3.318 2.584-1.388-.138-2.825-.095-4.227-.011-1.809.108-2.52 1.207-1.388 2.27 2.334 2.19 4.991 4.19 7.155 6.47 1.007 1.06 1.429 2.567 1.657 3.917.276 1.625.063 3.298.062 4.95l-.038 48.657c-.003 3.349.007 6.697-.012 10.046-.013 2.244-.595 2.847-3.377 2.631-4.249-.33-7.887 2.248-7.782 6.057.161 5.833-.003 11.672.055 17.508.016 1.564-.369 2.482-2.801 2.579-2.922.116-5.612 2.594-5.645 5.093-.019 1.438-.635 1.818-2.444 1.802-8.289-.073-16.58-.079-24.869-.012-1.357.011-3.179.169-3.977.834-3.137 2.614-7.281 4.561-7.014 9.105.494 8.398.157 16.825.07 25.24-.007.612-.628 1.597-1.242 1.751-1.28.321-2.633.202-3.258-1.151-.771-1.67 1.025-1.573 2.071-2.032.465-.203.904-.44 1.355-.661-.517-.186-1.017-.491-1.555-.538-2.942-.256-3.628.286-3.685 2.637-.022.91-.524 1.868-.274 2.71.177.599 1.142 1.293 1.945 1.492 1.039.257 2.288-.034 3.403.11.486.063 1.192.62 1.198.958.006.34-.726.981-1.147.988-4.496.069-8.998.102-13.488-.043-.588-.019-1.388-1.037-1.609-1.689-.279-.826-.168-1.759-.048-2.631.594-4.339-2.56-7.017-6.924-9.026-7.376-3.396-15.479-5.123-23.931-6.197-8.405-1.067-16.826-1.817-25.323-1.565-11.51.342-22.909 1.514-33.808 4.488-4.087 1.115-8.276 2.412-11.28 5.115-.328.295-1.032.343-1.561.506-.124-.284-.428-.605-.344-.846 1.023-2.941-.439-5.668-.898-8.51-.691-4.277-.181-8.67-.156-13.013.002-.302.208-.607.336-.906 1.416-3.304 1.37-3.391-3.339-3.582-1.35-.056-2.253-.07-2.431-1.451-.069-.533-1.573-1.254-2.521-1.357-1.619-.176-2.177-.626-2.767-1.848-.674-1.395-2.337-2.513-3.649-3.701-.044-.039-.932.49-1.442.737-.755.366-1.5.98-2.291 1.022-2.457.133-4.935.076-7.403.036-2.578-.042-3.474-.959-3.633-3.146-.14-1.921.827-2.641 3.32-2.616.839.008 2.428-.834 2.39-1.212-.092-.922-.842-1.807-2.573-1.587-2.472.313-3.102-.873-3.098-2.468.001-.475.009-.95 0-1.425-.04-1.997-.776-4.303 3.628-4.028.686.043 1.463-.776 2.198-1.197-.777-.484-1.468-1.24-2.345-1.402-2.963-.545-3.688-1.915-3.53-4.108.23-3.2.077-3.166 4.234-4.128.664-.153 1.672-1.078 1.541-1.294-.367-.603-1.173-1.356-1.938-1.457-3.758-.497-3.773-.429-3.771-3.443.001-.814.019-1.629-.001-2.443-.034-1.334.818-1.953 2.53-1.91.353.009.812.112 1.039-.017.796-.456 1.512-.994 2.258-1.5-.741-.444-1.426-1.19-2.232-1.278-3.204-.347-3.555-.562-3.584-3.177-.008-.746.063-1.496-.012-2.238-.173-1.691.716-2.341 2.983-2.472 1.005-.059 1.905-1.172 2.853-1.806-.906-.451-1.801-.919-2.729-1.342-.197-.089-.583.065-.772-.027-.626-.305-1.651-.624-1.72-1.019-.329-1.891-.551-3.816-.418-5.712.026-.368 1.801-.667 2.773-.99.898-.299 1.887-.501 2.641-.943.197-.115-.141-1.233-.57-1.413-.676-.282-1.647-.117-2.477-.221-.852-.107-1.684-.309-2.524-.47.584-.342 1.108-.865 1.764-.995 2.443-.486 2.185-1.899 1.776-3.165-1.171-3.62.183-5.623 4.683-7.1 3.313-1.088 4.762-3.923 2.155-5.156-.606-.287-1.403-.46-2.115-.466-4.585-.044-9.171-.028-13.757-.032-3.276-.003-3.434-.186-3.522-2.789-.075-2.253.089-4.582-.602-6.735-1.007-3.137-5.285-6.03-10.302-5.98-7.053.07-14.111.072-21.164-.02-4.391-.058-9.872 3.65-10.215 7.542-.299 3.398-.55 6.808-.536 10.212.108 26.003.289 52.007.439 78.01.02 3.575.031 7.151-.039 10.725-.012.603-.462 1.2-.71 1.8-.55-.262-1.07-.695-1.656-.756a218.39 218.39 0 0 0-9.056-.758c-.802-.05-1.636.305-2.456.307-8.554.018-17.109.037-25.662-.024-3.103-.022-6.225-.492-9.299-.326-2.755.149-5.658.115-8.122 1.586-2.829 1.689-4.342 3.858-4.362 6.521a2082.797 2082.797 0 0 0-.005 33.999c.016 1.806-.658 2.376-2.959 2.23-2.365-.151-4.762-.097-7.138-.018-1.575.053-2.155-.35-2.152-1.593.05-21.512.029-43.025.151-64.537.007-1.166 1.185-2.314 1.727-3.496.713-1.554-.045-2.447-2.145-2.46-5.732-.036-11.466-.064-17.196.023-.864.013-2.274.554-2.431 1.042-.217.675.219 1.958.892 2.235 2.86 1.175 2.896 3.029 2.685 5.078-.143 1.387.985 2.873-.634 4.172-.134.108.414.963.878 1.23 2.602 1.496 2.463 4.408-.324 5.587-.506.215-.979.476-1.467.715.471.356.864.83 1.426 1.048 2.305.895 2.813 4.175.769 5.315-2.149 1.199-2.149 1.199.103 2.036 1.855.69 1.716 4.255-.206 5.294-1.761.951-1.747.93.066 1.648.322.127.475.508.705.772-.378.008-.769.065-1.134.014-1.798-.254-3.577-.616-5.387-.788-1.765-.168-2.257-.897-2.254-2.152.038-17.033.019-34.067.116-51.1.006-1.007.925-1.999 1.317-3.021.327-.853.902-1.826.629-2.59-.257-.717-1.461-1.736-2.281-1.754-6.697-.147-13.401-.11-20.103-.083-1.976.008-2.95 1.295-2.175 2.768.214.407.494.943.937 1.104 5.567 2.024 2.692 6.2 4.028 9.29.055.129-.302.422-.543.56-2.132 1.224-1.384 1.895.573 2.765 2.068.919 1.54 5.24-.501 6.183-.622.287-1.028.852-1.532 1.29.557.154 1.137.274 1.666.473.362.137.655.384.979.582-.397.209-.805.609-1.189.596-2.223-.073-4.443-.348-6.66-.329-.891.007-2.306.446-2.527.941-.285.639.053 1.923.703 2.252 4.825 2.445 3.725 5.69 2.477 9.064-.155.42.334 1.198.838 1.507 2.289 1.4 2.195 3.961-.185 5.345-1.133.658-2.884 1.435.269 2.079 2.122.435 2.072 4.121.09 5.23-2.015 1.127-1.694.876-.046 2.126 1.058.802 1.343 2.48 1.318 3.758-.015.822-.998 1.633-2.75 1.491a125.82 125.82 0 0 0-10.885-.436c-8.689.047-17.383.116-26.062.401-5.614.184-11.199.94-16.811 1.064-1.755.039-4.08-.825-5.174-1.875-.916-.88-1.144-3.48-.419-3.847 2.882-1.459 1.926-2.265.042-3.658-1.225-.906.072-3.68 1.497-4.413.351-.181.492-1.19.193-1.441-2.748-2.311-2.752-3.861.107-6.425.193-.173.202-.618.055-.843-1.416-2.162-.27-4.43-.364-6.632-.031-.726 1.693-1.426 2.361-2.259.587-.732 1.365-1.797 1.051-2.41-.296-.579-1.896-1.046-2.938-1.067-5.376-.108-10.758-.064-16.137-.058-2.826.003-3.795 1.114-2.439 2.997 2.051 2.848 2.401 5.816 1.572 8.943-.121.456-.018.948-.018 1.423-.007 9.5-.061 19.001.016 28.502.015 1.927-.899 2.498-3.363 2.576-3.17.102-6.324.618-9.467 1.037-1.477.197-2.465.243-2.593-1.278-.214-2.541-.787-5.065-.986-7.607-.288-3.671-.328-7.353-.562-11.027-.299-4.708-.68-9.413-1.037-14.118-.341-4.503-.703-9.005-1.044-13.508-.357-4.706-.696-9.412-1.05-14.118a5707.054 5707.054 0 0 0-2.096-27.015c-.341-4.231-.708-8.462-1.044-12.693-.362-4.57-.755-9.139-1.034-13.712-.25-4.08-.502-8.166-.512-12.25-.043-17.372.003-34.745.017-52.118.002-2.5-.455-2.86-3.65-2.878-5.344-.03-5.368-.03-5.326-4.19.012-1.305-.698-2.863 1.727-3.514.125-.034.161-.811-.038-.91-.676-.333-1.524-.784-2.221-.71-2.851.303-3.547-.718-3.193-2.648.296-1.607-.16-3.095-2.021-4.011-1.078-.53-2.391-1.047-3.619-1.08-3.962-.102-8.038-.605-11.804.78-1.903.701-2.69 1.987-2.684 3.703.047 14.25-.047 28.502.064 42.753.016 2.028-.815 2.613-3.263 2.4-1.481-.128-3.005-.101-4.49.01-.638.046-1.227.482-1.839.741.58.284 1.131.755 1.747.813 1.333.126 2.703.084 4.053.032 2.809-.107 3.723.514 3.722 2.629-.006 9.297-.014 18.594-.022 27.891-.023 29.317-.077 58.634-.003 87.95.006 2.113-.801 2.548-3.395 2.525-12.786-.115-25.575-.033-38.362-.107-2.489-.014-3.352.656-3.331 2.571.088 8.143-.008 16.287.049 24.43.012 1.709-.798 2.461-3.052 2.358-1.758-.081-3.529.025-5.289-.032-1.974-.065-2.858.567-2.821 2.116.063 2.713-.028 5.429.032 8.143.024 1.074-.347 1.585-1.9 1.577-8.408-.047-16.816-.005-25.224-.056-2.426-.015-3.385-1.381-3.544-2.983a28.151 28.151 0 0 1 .002-5.492c.155-1.589-1.239-2.279-2.644-2.448-4.688-.567-9.415-1.017-14.148-1.261-7.605-.393-15.228-.558-22.836-.917-.592-.028-1.476-.763-1.607-1.264-.256-.979.062-2.038-.102-3.04-.307-1.877.264-2.967 3.009-3.453 2.583-.457.416-2.724 1.739-3.83-.882-.463-1.706-1.202-2.661-1.322-1.3-.164-2.128-.257-2.072-1.484.12-2.634-.218-4.99-3.342-6.925-1.131-.7-.553-2.976-.877-4.518-.453-2.161.647-2.86 3.438-2.659 2.526.182 3.765-1.337 3.463-3.823-.184-1.513-1.56-2.18-3.942-1.81-.493.076-.902.475-1.349.724.465.158.95.477 1.391.444 1.879-.138 2.685.494 2.245 1.856-.108.336-1.005.605-1.602.737-.447.099-1.007-.154-1.493-.107-1.853.179-2.196-.573-2.152-1.791.081-2.238.026-4.479.028-6.718.014-17.848.053-35.696 0-53.544-.005-1.651.317-2.539 2.817-2.366.69.047 1.917-.623 2.123-1.145.415-1.048.494-2.237.339-3.337-.135-.96-3.044-1.388-3.992-.671-.105.08-.199.317-.169.332.302.154.637.397.953.389 1.97-.053 1.951 1.087 1.572 1.907-.219.473-1.495.84-2.325.879-.388.018-1.206-.853-1.216-1.328-.091-4.477-.907-9.096.263-13.386.751-2.752-1.774-5.515.731-8.01.137-.136-.079-.492-.154-.742-.112-.37-.358-.737-.352-1.103.048-2.9.14-5.8.237-8.699.003-.104.317-.257.286-.299-1.713-2.307-.093-4.75-.504-7.105a3.014 3.014 0 0 1-.032-.6c.084-2.9.211-5.8.248-8.7.032-2.483-.036-4.968-.061-7.452-.011-1.15-.026-2.3-.028-3.45-.001-.048.172-.098.171-.144-.087-2.612-.157-5.225-.3-7.836-.031-.559-.707-1.268-.444-1.638 1.471-2.068.433-4.078-.13-6.058-.205-.724-1.195-1.84-1.884-1.865-2.646-.098-5.354.01-7.963.368-1.607.22-2.108 1.122-1.365 2.566.553 1.076.173 2.444.144 3.681-.006.218-.548.544-.474.63 2.144 2.462-.067 5.095.513 7.685.616 2.753-.162 5.68-.202 8.533-.036 2.533.085 5.068.19 7.6.015.355.503.71.479 1.053-.199 2.82-.607 5.636-.672 8.458-.059 2.577.225 5.16.38 7.74.01.173.304.344.29.508a599.863 599.863 0 0 1-.745 8.453c-.029.31-.376.65-.279.913 2.368 6.413.381 12.955.973 19.419.038.412-.558.858-.86 1.289-.404-.352-.861-.676-1.195-1.063-.244-.282-.327-.647-.481-.975-.198.295-.395.59-.595.884-.169.248-.37.715-.505.704-.467-.037-1.173-.152-1.316-.399-.4-.694-.565-1.467-.823-2.311zM79.819 215.587c1.12.902 2.348 1.749 3.245 2.768.13.147-1.255 1.517-2.068 1.603-.837.088-2.135-.549-2.653-1.159-.356-.42.228-1.345.482-2.025.155-.415.48-.793.464-1.187-.715.263-1.413.572-2.163.749-.14.033-.68-.451-.71-.719-.074-.645.044-1.304.085-1.957.426.099.967.105 1.256.316.664.484 1.206 1.068 2.062 1.611zm576.054-79.563c-.014 17.905-.072 35.811.02 53.716.01 1.955-.769 2.444-3.132 2.306-2.629-.154-5.286-.081-7.928-.027-1.995.04-2.781-.622-2.779-2.15.051-34.929.081-69.859.077-104.788 0-1.65.847-2.25 2.956-2.226 5.64.066 11.286.123 16.921-.015 2.049-.05 3.064.885 3.322 1.926.405 1.636.277 3.393-.006 5.06-.08.471-1.452 1.098-2.287 1.153-2.363.156-4.762.146-7.132.028-3.632-.181-4.058.869-3.631 3.05.184.939.963 1.93 1.829 2.64 1.26 1.033 1.838 2.085 1.83 3.516-.066 11.801-.051 23.602-.06 35.811zm-77.317 76.085c.005-7.124.008-14.248.018-21.372.003-2.134.941-2.853 3.722-2.852 9.346.004 18.692.014 28.038.021 5.291.004 10.581-.004 15.871.018 2.08.009 3.033.863 3.196 2.462.193 1.897-1.434 1.607-2.907 1.606-13.401-.013-26.804.034-40.204-.083-2.544-.022-3.016.598-3.009 2.406.07 18.116.014 36.231.026 54.347 0 1.276-.27 2.372-2.25 2.303-1.704-.059-2.69-.701-2.582-2.284.188-2.752.056-5.518.058-8.279l.023-28.293zm277.286-7.519c-.002 2.17.048 4.342-.021 6.511-.062 1.957-.795 2.199-4.19 2.279-2.399.057-2.163-1.028-2.153-2.207.028-3.279.054-6.558.003-9.837-.037-2.364-.279-4.727-.28-7.091-.001-2.203.654-4.47.162-6.592-.411-1.773.56-1.969 2.088-1.981 6.169-.045 12.34-.045 18.508.048.6.009 1.675.757 1.693 1.182.141 3.252.173 6.513-.024 9.762-.034.565-1.302 1.543-2.01 1.548-3.715.026-7.433-.197-11.15-.34-1.869-.072-2.69.607-2.635 2.038.055 1.423.01 2.848.009 4.68zm-452.944-23.565c-.176-.215-.503-.428-.505-.644-.031-3.109-.086-6.222.063-9.328.02-.424 1.084-1.148 1.698-1.17 3.244-.115 6.507-.146 9.744.022.784.04 2.06.894 2.141 1.456.388 2.697.388 5.426.641 8.138.138 1.471-.694 1.807-2.448 1.765-3.686-.09-7.379-.033-11.334-.239zm10.065-13.43c-2.872-.07-5.744-.192-8.616-.189-1.453.002-2.02-.366-1.989-1.512.074-2.78.083-5.562.004-8.342-.035-1.243.58-1.639 2.154-1.59 2.64.081 5.288.057 7.931.017 1.863-.028 2.625.602 2.669 2.035.062 2.048.393 4.092.471 6.14.057 1.495.741 3.323-2.624 3.441zm4.219 17.513c.175 2.181.247 4.37.549 6.541.448 3.222.267 3.436-3.959 3.433-.793-.001-1.592-.05-2.377.007-2.325.168-3.56-.555-3.187-2.402.269-1.335-.859-1.762-2.065-2.065-1.177-.295-3.083-.078-3.518-.626-.63-.794-.228-2.074-.258-3.147-.012-.407.052-.819-.011-1.22-.224-1.424.353-2.077 2.428-1.99 3.162.132 6.346-.04 9.509.088.982.04 1.928.634 2.889 1.381zm266.699-1.013c0-.948-.193-1.929.066-2.833.191-.668.939-1.745 1.496-1.766 3.801-.149 7.62-.121 11.423.014.464.017 1.239 1.008 1.238 1.547-.005 1.863-.165 3.741-.548 5.578-.106.508-1.154 1.235-1.832 1.277-2.448.153-4.922.057-7.386.055-4.224-.003-4.43-.163-4.457-3.872zm-269.845-35.23c.175 1.297.485 2.596.448 3.89-.012.408-.929 1.121-1.471 1.145-2.718.116-5.453.124-8.172.019-1.581-.06-2.651-.665-2.478-2.138.143-1.208.031-2.434.032-3.652.003-4.363.004-4.345 5.613-4.364 6.471-.021 6.104-.362 6.028 5.1zm-11.634-9.375c.002-2.165-.155-4.341.099-6.488.079-.66 1.194-1.683 1.983-1.773 2.15-.245 4.393-.188 6.569-.018.695.054 1.784.794 1.855 1.29.354 2.5.514 5.022.526 7.538.002.429-1.014 1.2-1.613 1.232a65.497 65.497 0 0 1-7.636-.012c-.638-.041-1.191-.886-1.783-1.769zm7.689-20.557c.617.458 1.588.843 1.778 1.389.412 1.183.385 2.453.606 3.68.833 4.617.39 5.113-4.667 5.109-5.398-.004-5.398-.004-5.395-4.546.005-5.638.005-5.638 7.678-5.632zm66.615 74.976c1.424-.134 2.847-.379 4.271-.385a1535.47 1535.47 0 0 1 22.714.043c.793.008 1.576.626 2.365.962-.683.343-1.326.76-2.064 1.003-.446.147-1.044.053-1.57.022-2.128-.127-4.258-.404-6.383-.383-6.091.06-12.181.22-18.269.374-3.979.101-7.96.196-11.929.412-3.121.169-6.219.585-9.34.754-1.228.066-2.505-.195-3.729-.411-.288-.05-.452-.519-.673-.795.322-.131.634-.36.966-.378 7.703-.42 15.408-.817 23.641-1.218zM74.27 206.014l-.008 10.586c-.001 1.289.078 2.584-.05 3.865-.041.425-.616.818-.947 1.225-.374-.374-.84-.716-1.091-1.134-.168-.279-.032-.667-.031-1.006l.03-38.071c0-.339-.136-.727.032-1.006.252-.418.719-.758 1.094-1.132.33.408.741.793.962 1.233.149.295.028.67.028 1.009l-.02 24.431zm332.648-89.527c-.878-.001-1.845.175-2.609-.052-.738-.22-1.766-.832-1.804-1.311-.184-2.356-.138-4.727-.028-7.089.021-.45.607-1.188 1.082-1.268 1.642-.278 3.382-.526 5.02-.375.841.078 2.088.961 2.215 1.592.433 2.143.531 4.334.602 6.509.086 2.64-.613 2.959-4.478 1.994zm286.218 73.927c4.498.003 4.498.004 4.495 3.407 0 .406-.045.816.007 1.219.149 1.149-.53 1.532-1.98 1.501-2.817-.06-5.647-.135-8.452.01-2.558.133-3.383-.789-3.336-2.542.019-.745-.235-1.558.078-2.216.264-.555 1.126-1.274 1.796-1.322 2.27-.163 4.573-.059 7.392-.057zm17.204-7.927c-.001 1.15-.042 2.3.007 3.448.061 1.411-.726 2.119-2.606 2.051-.701-.025-1.405-.005-2.108-.005-4.822-.004-4.822-.004-4.819-3.751.003-4.807.003-4.802 6.176-4.802 3.217 0 3.46-.377 3.35 3.059zm-299.444-78.824c-2.6.169-5.199.37-7.803.444-.199.006-.607-.874-.632-1.351-.08-1.555-.055-3.114-.022-4.67.1-4.678-1.038-3.91 5.297-4.004 1.308-.02 2.054.158 2.152 1.385.208 2.602.658 5.193 1.008 8.196zM276.675 205.154c-1.528-.001-3.063.07-4.583-.017-4.087-.234-8.163-.602-12.253-.787-2.752-.124-5.524.024-8.281-.073-.551-.019-1.07-.594-1.605-.913.48-.36.945-1.017 1.443-1.032 3.109-.093 6.24-.188 9.336-.007 4.904.286 9.783.814 14.678 1.191 4.078.314 8.174.502 12.24.885.719.067 1.329.821 1.989 1.258-.805.233-1.789.819-2.386.64-3.261-.977-6.734-.619-10.578-1.145zM409.323 85.338c0 1.014-.188 2.053.031 3.038.828 3.727.877 3.72-3.937 3.678-.263-.002-.633.086-.773-.015-.766-.555-2.037-1.12-2.104-1.746-.248-2.351-.139-4.728-.056-7.092.016-.448.383-1.133.834-1.29 3.33-1.154 5.982.215 6.005 3.427zm-6.043-53.144c1.315.001 2.648-.092 3.939.046.581.062 1.531.574 1.545.902.122 2.786.102 5.578.013 8.366-.01.297-.676.753-1.135.842-3.941.77-5.164.029-5.162-3.035.001-1.215-.066-2.433.023-3.644.082-1.095.335-2.182.777-3.477zm-.037 47.235c-.187-.144-.53-.284-.536-.431-.107-2.881-.551-5.799-.108-8.632.26-1.666 2.83-1.115 4.466-1.06.598.02 1.576.592 1.668 1.005.355 1.61.547 3.257.574 4.893.069 4.23.021 4.23-6.064 4.225zm-.755-50.29c.002-2.437-.001-4.875.009-7.313.003-.845-.263-2.032 1.482-1.796 1.636.222 4.359-1.145 4.753 1.056.473 2.638.174 5.365.028 8.048-.02.36-1.137 1-1.688.966-1.457-.092-2.882-.484-4.584-.96zm-.017 21.582c.001-1.49-.244-3.017.109-4.456.172-.702 1.358-1.626 2.266-1.768 1.561-.245 3.751-.526 3.945 1.5.164 1.708.031 3.433.03 5.15-.001 1.039.359 2.18-.079 3.096-.866 1.814-2.609.003-3.984.302-1.796.39-2.54-.396-2.303-1.792.091-.533.016-1.083.016-2.032zm6.344 8.149c-.002 2.118-.133 4.243.037 6.353.13 1.62-.595 2.177-2.667 2.015-1.909-.15-3.881-.016-3.743-2.214.097-1.551.021-3.109.022-4.664.003-3.661.175-3.818 4.829-3.268.585.069 1.019.895 1.522 1.778zm4.649 144.559c-1.175 1.038-2.309 2.106-3.548 3.097-.402.322-1.078.442-1.628.654-.182-.463-.525-.93-.511-1.389.027-.907.37-1.809.377-2.714.042-5.671.025-5.71 7.287-5.504.945.026 2.438.551 2.649 1.085.288.732-.096 1.892-.758 2.507-.927.861-2.377 1.39-3.868 2.264zm293.43-13.004c3.168.02 3.435.223 3.438 2.62.003 3.49.003 3.49-4.419 3.487-1.143-.001-2.336.151-3.411-.059-.66-.129-1.567-.776-1.631-1.248-.647-4.802-.604-4.805 6.023-4.8zm-427.841 18.599c-4.577-.478-9.139-1.084-13.734-1.399-4.477-.307-8.991-.27-13.48-.495-.814-.041-1.583-.616-2.373-.945.734-.214 1.473-.624 2.2-.612 4.849.079 9.7.191 14.542.404 4.428.196 8.848.522 13.268.821.64.043 1.429.124 1.846.431.478.354.69.966.839 1.496.027.094-.798.404-1.268.485-.502.086-1.049.019-1.84-.186zm-57.413-1.877c-.469.271-.907.732-1.414.783-3.273.329-6.563.561-9.845.84-1.337.114-2.669.264-4.003.402-.859.089-1.725.154-2.57.295-.618.102-1.244.481-1.792.406-.325-.044-.829-.837-.679-1.098.28-.487.904-1.077 1.519-1.187 1.553-.28 3.183-.305 4.778-.455 2.758-.259 5.506-.684 8.271-.755 1.989-.051 3.999.36 5.735.769zm-8.463-3.671c2.042-.134 4.086-.362 6.128-.359.868.002 1.735.489 2.602.756-.956.412-1.86 1.048-2.88 1.189-2.094.29-4.249.343-6.383.443-3.363.157-6.729.302-10.096.368-.418.008-.852-.495-1.279-.761.412-.277.791-.754 1.242-.798 3.371-.328 6.756-.57 10.666-.838zm-124.603-19.44c2.375-1.824 2.365-1.814-.167-3.412-.309-.194-.672-.768-.603-.817.476-.328 1.513-.823 1.546-.789 1.034 1.061 2.245 2.097 2.841 3.309.448.908.349 2.106.014 3.077-.342.991-1.144 2.551-1.967 2.64-1.56.168-2.739-2.444-1.664-4.008zM889.025 63.929c.475.094 1.331.138 1.366.291.367 1.625.631 3.265.827 4.908.017.143-.762.532-.969.46-.398-.137-.695-.501-.955-.81-.714-.848-1.304-1.765-2.102-2.56-.693-.691-1.602-1.255-2.415-1.874 1.239-.139 2.479-.277 4.248-.415zM485.174 191.88c-2.119.134-4.237.332-6.36.362-.607.008-1.227-.469-1.841-.723.469-.446.851-1.18 1.423-1.281 1.557-.275 3.213-.198 4.793-.416 2.134-.296 2.541.49 1.985 2.058zm53.972 4.114c1.452.712 2.972 1.357 4.314 2.175.407.248.32.975.46 1.482-.551.004-1.144.111-1.644-.009-1.464-.353-2.972-.683-4.298-1.25-.749-.32-1.173-1.089-1.743-1.656.794-.247 1.588-.495 2.911-.742zm-76.195-5.353c.613 0 1.246-.072 1.833.023.54.087 1.03.354 1.543.542-.391.468-.704 1.28-1.187 1.346-2.161.292-4.369.416-6.566.486-.378.012-1.135-.56-1.102-.814.054-.414.528-1.037.981-1.132 1.28-.27 2.64-.317 4.498-.451zm-379.93-10.478c1.66-1.177 3.03-.105 4.217.517.507.266.716 1.465.372 1.952-.48.677-1.586 1.49-2.46 1.515-1.5.042-2.986-2.574-2.129-3.984zm386.807 12.519l-2.38-.958c.591-.475 1.121-1.288 1.785-1.36 1.887-.202 3.832-.153 5.745-.073.335.014.877.663.865 1.008-.013.334-.56.874-.976.94-1.479.236-3.003.309-5.039.443zm28.048-2.828c1.921.001 3.854-.092 5.755.055.678.052 1.28.687 1.917 1.055-.727.446-1.415 1.215-2.187 1.268-1.471.102-2.985-.247-4.488-.33-1.787-.1-2.353-.617-.997-2.048zm-415.654-2.158c-2.029.777-2.363-.922-3.448-1.475-.446-.227-.814-1.242-.579-1.433.714-.578 1.845-1.388 2.624-1.282 2.243.305 3.048 2.544 1.403 4.19zm413.008 2.563c.627 1.097.175 1.639-1.395 1.63-1.754-.01-3.517.073-5.255-.052-.551-.039-1.037-.614-1.553-.944.491-.349.971-.985 1.474-.997 2.151-.047 4.309.09 6.729.363zm41.272 2.883c.134-.375.321-1.081.394-1.075 2.203.208 4.41.432 6.571.808.332.058.664.896.572 1.319-.053.249-1.018.624-1.44.541-1.969-.386-3.893-.913-6.097-1.593zM82.468 210.703c-.484.542-.854 1.184-1.475 1.608-1.545 1.053-2.653.223-3.65-.675-1.404-1.264.937-1.707 1.006-2.652.912.217 1.857.378 2.722.676.45.155.76.552 1.397 1.043zm7.405 4.892c1.964.413 2.16 1.711 1.73 2.785-.25.624-2.092 1.527-2.538 1.341-2.908-1.215-2.73-2.745.808-4.126zm-.26-6.719c.248.191.672.363.713.577.147.779.497 1.689.12 2.32-.267.446-1.97.907-2.352.681-.852-.503-1.854-1.49-1.74-2.176.164-.98.96-2.228 3.26-1.402zm198.701-.862c2.264.417 1.079 1.75 1.171 2.728.005.05-.75.268-1.05.187-1.442-.388-2.896-.783-4.242-1.328-.459-.187-.92-.874-.815-1.234.094-.324.958-.712 1.493-.72.967-.016 1.942.23 3.443.367zM70.585 181.172c0 .336.116.705-.028 1-.215.44-.613.828-.933 1.239-.385-.294-.752-.603-1.16-.876-.996-.668-2.029-1.304-3.007-1.987-.297-.209-.464-.528-.691-.796.307-.139.607-.384.923-.397 1.132-.048 2.329-.182 3.38.045.623.135 1.019.889 1.516 1.772zm6.598 21.383c.831-1.092 1.983-.826 2.847-.187.723.535 1.09 1.355 1.615 2.049-1.138.464-2.601 1.507-3.338 1.261-1.215-.406-3.002-1.38-1.124-3.123zm6.091-7.936c-.608.074-1.57.368-1.762.184-.73-.697-1.572-1.528-1.654-2.35-.052-.53 1.15-1.133 1.79-1.704 1.018.707 2.14 1.352 2.974 2.17.178.174-.694.981-1.347 1.7zm429.418-3.939c.218.511.516 1.014.598 1.537.021.134-.657.488-.991.471-1.341-.07-2.742-.098-3.981-.44-.709-.196-1.15-.967-1.712-1.478.642-.303 1.292-.865 1.924-.854 1.304.025 2.599.355 4.162.764zM85.648 204.19c-1.399-1.468.58-2.001 1.486-2.612.304-.204 1.865.448 2.584.94.491.335.917 1.214.682 1.603-.795 1.316-2.97 1.385-4.752.069zm2.394-15.675c1.341.968.218 1.597-.65 2.061-.535.287-1.523.405-2.108.222-.771-.242-2.004-1.05-1.892-1.275.492-.984 1.398-1.846 2.153-2.753.62.418 1.242.835 1.86 1.255.13.09.248.191.637.49zm-2.662 19.951c-1.4 1.215-2.44.542-3.614-.311-1.812-1.316.646-1.837.752-2.781.963.222 2.032.309 2.861.698 1.171.55 1.681 1.354.001 2.394zm3.186-13.028c.271.469.936 1.172.742 1.366-.657.659-1.643 1.588-2.458 1.562-.838-.027-2.256-1.039-2.279-1.645-.033-.87.969-1.762 1.529-2.645a51.7 51.7 0 0 1 2.466 1.362zm-4.766 3.254c1.329.889 2.546 1.74.408 2.965-1.958 1.121-2.988-.244-3.512-1.05-.35-.537.682-1.644 1.237-2.436.063-.09 1.046.202 1.867.521zm5.56-4.679c-.031-.925-.159-1.859-.021-2.769.03-.205 1.405-.519 1.452-.458.57.739 1.038 1.528 1.461 2.327a.911.911 0 0 1-.001.8c-.316.594-.733 1.156-1.11 1.73-.506-.475-1.01-.951-1.78-1.63zm-6.1 18.523c1.39.528 2.786 1.048 4.157 1.604.083.033.068.418-.06.515-.794.604-1.57 1.548-2.476 1.637-.795.078-2.11-.682-2.516-1.326-.288-.455.556-1.333.895-2.43zm-3.957-14.459c-.818.87-1.94 1.167-2.477.04-.462-.971-.23-2.148-.217-3.232.002-.16.642-.493.733-.447 1.108.559 2.273 1.099 3.162 1.831.201.166-.598 1.051-1.201 1.808zm377.032-6.016c-.962 1.236-3.916 2.052-5.112 1.256-.388-.259-.061-1.154-.061-1.758 1.724.032 3.449.063 5.173.502zm-377.82-.703l-1.787.609c-.11-.429-.25-.856-.323-1.289-.164-.969-.359-1.941-.388-2.914-.007-.222.847-.681.895-.65 1.067.68 2.21 1.341 2.997 2.191.18.195-.896 1.079-1.394 2.053zm2.39-12.418c1.14.72 1.123 1.378-.391 1.597-1.253.181-2.734-.059-1.55 1.553.094.128-1.044.792-1.61 1.206-.316-.359-.845-.696-.911-1.081-.246-1.443 1.9-3.174 4.463-3.275zm10.566 23.219c-2.164-1.155-3.02-2.538-1.217-4.337.24-.24.76-.569.99-.506.406.111.987.5.973.756-.068 1.297-.304 2.589-.746 4.087zm132.819.104c1.612.822 1.969 4.483.459 5.295-.237.127-1.206-.152-1.202-.218.108-1.627.301-3.25.743-5.077zM87.488 220.276c.494 1.317-.36 1.827-2.59 1.395-.76-.147-1.413-.622-2.115-.947.457-.381.83-.915 1.396-1.1.55-.18 1.308-.047 1.956.037.382.049.727.268 1.353.615zm3.186-15.064c.79-.794 1.364-.634 1.564.281a4.42 4.42 0 0 1-.006 1.797c-.096.477-.442.924-.677 1.384-.647-.503-1.58-.93-1.847-1.533-.204-.46.437-1.142.966-1.929zm161.937-16.568l.522 2.447-1.82.219c-.217-1.076-1.235-2.324 1.298-2.666zM90.667 214.985l.579-2.073c.244.078.705.167.7.23-.06.64-.172 1.279-.339 1.907-.02.079-.44.095-.94-.064zm-12.969 5.08l.793.956c-.454.078-1.098.335-1.32.195-.4-.251-.545-.741-.796-1.131.353-.075.706-.149 1.323-.02zm429.698-24.503l-.279-1.413 1.276.144c-.156.423-.312.846-.997 1.269zM76.65 207.033l1.28.173-.639.963c-.302-.311-.603-.621-.64-1.136z"/><defs><linearGradient id="paint0_linear" x1="351.171" x2="343.869" y1="148.965" y2="405.284" gradientUnits="userSpaceOnUse"><stop offset=".404" stop-color="#0B0A0A"/><stop offset="1" stop-color="#242424"/></linearGradient></defs></svg>