<svg xmlns="http://www.w3.org/2000/svg" width="100%" height="401" fill="none"><path fill="#E5E5E5" fill-opacity=".05" d="M1032.29 258.317c-.77-.921 1.51-1.053 1.91-1.279-.4-3.234 3.45-4.814 5.99-3.855-.83-1.147-1.09-2.426-.2-3.705.92-1.354 2.39-1.599 3.67-.828-2.22-8.651 10.54-8.275 11.84-3.742.08-3.705 6.55-5.229 9.35-4.852 3.72.526 6.98 3.968 5.87 7.692 2.54-1.298 3.86 2.463 2.64 4.212.62.283 2.02 1.373 2.07 2.088 2.55-.752 4.53-1.016 6.47 1.241l1.56.358c.95-.847 3.21-.076 4.08.827 1.05-3.442 3.35-3.122 4.56-3.272 1.98-.245 1.9 3.686.7 4.607-1.06.79-1.79 2.088-3.13 2.427 1.9.376 5.39 0 5.39 0s17.59-10.363 19.34 5.623c.17 5.266-3.84 4.702-6.99 4.927-.25 1.524-1.6 1.994-2.77 2.614 3.17-.075 3.62 3.047 3.84 5.586.76-.075 8.92-5.341 9.09 2.52 2.25-.395 3.43-1.091 5.17.64 1.43 1.429 2.45 4.062.02 4.965 1.62-.433 1.49 1.448.43 2.069-1.24.714-1.85.752-1.68 2.482.7-.376.98-1.147 1.78-1.523.98-.47 2.01-.546 2.47.62.56 1.505-1.1 1.768-2.85 2.991.9.131 1.68-.32 2.56.075.76.357 1.32 1.015 1.28 1.899-.09 1.712-2.99 2.238-4.37 2.144.92 1.449-1.85 3.969-3 4.589.72.527 2.91-.526 3.85-.564 1.47-.094 2.07.602 3.05 1.542.63-.244 1.38-.282 2-.507-1.92-1.505-.24-3.367 1.62-3.367 1.53-5.059 6.53-.752 4.45 1.429 1.3.245.53 2.859.36 3.687.32-.094.79-.226 1.21-.207-.78-.696-.17-1.843.22-2.558.36 0 .51-.207.83-.226.21-4.363 6.02-2.163 4.15.395.62.019 1.23.621 1.68 1.016.02-.753.87-1.448 1.47-1.241.64.206 1.15 1.354 1.23 1.937.09.075.2.075.3 0 .09-.978.15-2.163 1.43-2.276 1.08-.075 1.83 1.241 1.75 2.219.83-.564 1.49-1.768 2.64-2.05 1.15-.282 3.36.17 3.55 1.561 1.56.151 2.54.17 3.67 1.373.16-.639.61-1.523 1.4-1.542-1.02-1.617 1.32-1.994 2.3-2.069 1.24-.094 2.28.207 2.83 1.392l.53-.169c-.25-1.524 1.22-1.298 1.77-.433-.17-1.598 2.54-.639 3.02.207.71-.602 1.98-.997 2.94-.846 1.35.207 1.52.79 1.75 2.05 1.36-1.919 3.62-.019 4.77 1.053 1.75-1.486 3.47-.207 5.09.526 1.21-1.128 3.51-.62 4.92-.056 1.36.527 2.77 2.069 4.23 2.069 0 0 11.37-.151 12.67.169 2.16.545.07 1.429-1.06 1.787-2.79.921-16.78.564-17.42.696 1.24 2.2-1.3 2.633-2.79 2.821-.94 2.219-3.68 2.275-5.85 2.238-1.37 0-1.37.432-2.43.921-3.22 1.542-57.73.865-59.18.828-.78-.019-1-.094-1.78.131-.52.151-.84.771-1.28-.094-.71.602-1.39 1.392-2.22 1.919-1.17.714-2.13.301-3.13.395-1.23.131-2.23.564-3.57.451-1.47-.151-2.28-1.674-2.32-1.561-1.13.489-3.14.301-4.2-.15-1.32-.546-1.7-2.276-3.05-.753-.93 1.072-1.31 1.712-2.78 2.013a5.41 5.41 0 0 1-3.64-.546c-.39 1.317-2.09.79-3.16.865-.06.677 0 1.373-.06 2.05-1.55.376-3.17.903-4.71.376-.57-.206-.85-.677-1.4-.902-.7-.282-1.62.225-2.28.395.38.432 1.3.489 1 1.354-1.55.282-9.3 1.692-12.46-.094-1.08-.602-1.3-2.013-2.62-2.144-1.47-.151-2.25 1.354-3.55.526-.47-.301-.87-1.166-1.38-1.373-.6-.282-13.12 1.994-15.53.377-.64-.433-.02-1.279 0-1.975-1.68 1.015-4.64.019-3.32-2.276-.94-.056-13.01 1.824-16.21-.169-.8-.489-1.08-1.016-2.02-.357-.91.639-.64 1.222-1.98 1.166-.91-.019-1.53-.602-2.28-.715-1.13-.169-3.43 2.99-4.38 1.128-.86.696-1.71.471-2.69.828-.63.226-1.17.978-1.79 1.203-.53.17-2.23.395-2.64.076-.65-.47-6.3 1.429-7.358 1.354-1.772-.132-4.299-.602-5.147-2.445-.754.489-1.565.545-2.432.715-1.377.3-.698-.094-1.773-.546-.019.132-.169.301-.207.47-1.622.094-3.356.452-5.072.602-1.98.169-2.677-.226-3.564-1.937-1.055.828-4.638 1.505-4.751.169-1.376-.131-2.998.79-4.374.997-1.226.169-3.3.301-4.393-.169-.623-.282-1.056-1.091-1.565-1.204-.641-.131-5.317.452-5.77.207.094 1.354-5.015 1.523-4.827-1.053-1.169.094-1.998-.715-3.092.207-1.093.921-1.206 2.087-2.866 2.238-1.546.131-1.791-.677-2.771-1.618-1.207-1.147-14.122 4.345-16.762.301-1.131.602-2.225.715-3.394.32-.641-.226-1.093-.545-1.848-.357-.528.131-.829.696-1.451.677-.849-.019-.774-.828-1.377-1.072-.452-.17-1.056.131-1.621.319-3.771 1.166-4.092-.507-4.073-.639-1.075.357-2.79.395-3.997.301-4.94-2.276 4.468-1.204 6.674-4.702l1.056-.865c.679-1.599 4.167-2.238 3.903-2.313.377-.376 1.301-.847 1.226-1.542-.019-.283-.622-.527-.717-.866-.132-.451.076-.846.226-1.203.132-.301.528-.452.679-.752.17-.377-.075-.847.208-1.223.396-.602 1.244-.865 1.866-.545.151-.771.566-.847 1.226-1.072.301-.094.433.094.697 0 .246-.094.378-.489.604-.621 1.32-.715 2.375-.132 3.092.997.057-.903 1.244-1.016 1.848-.564.094-.377.283-.941.528-1.298.094-.151.433-.282.471-.376.207-.32.226-.452.377-.903.151-.433-.132-.621.471-1.091.434-.32 1.245-.508 1.773-.508.207-.902 1.527-1.128 2.206-.902 1.093.376 1.093 1.316 1.225 2.275.208-.526.604-.921 1.169-1.015.095-1.843 1.075-1.9 2.64-1.749-.019-.677.641-1.129 1.226-.696.131-1.843 1.15-2.069 2.319-.752.546-.847.622-1.938 1.942-1.693.773.15 1.376.94 1.791 1.561.528-.226.528-.846.697-1.354 1.49-.677 1.603.225 2.395 1.128.377-.564.924-.508 1.433-.131.057-.753-.094-1.166.566-1.561.433-.245.905-.301 1.225.131-.094-1.448 2.791-1.561 2.979-.131 0 0 2.678-.527 3.224-.057 1.018.903.377 1.712-.019 2.614a3.157 3.157 0 0 1 2.848.376c.848.602 1.169 1.825-.17 2.163-.076 1.392.358 2.276-.547 3.48-.83 1.128-1.621 1.504-2.828 1.918-1.32.47-.773 1.448-1.754 2.464-.377.395-.905.846-1.376 1.09-.49.283-1.301.151-1.603.621.924.151 2.395-.903 2.979.151.717-.32.981-.715 1.452-1.317.509.132.981.357 1.546.32.773-.019.981-.621 1.565-.715.547-.094.999.226 1.452.226.679 0 1.131-.376 1.867-.075.546-.715 2.13-.696 2.47.169-.905.677-2.47 1.015-3.13 2.125 1.357 0 2.564 1.317 2.47 2.633 1.225-.226 2.526-.771 3.827-.357.17-1.543 1.32-2.22 2.64-2.633-.132-1.166.848-1.599 1.942-1.561-.17-1.223 1.716-1.787 2.677-1.561.905.225 2.055 1.166 2.678 1.918 1.489-.94 3.752-.978 5.354-.132-.679-1.673.547-2.275 1.98-2.35-.603-1.279.641-1.693 1.565-1.561-.245-2.389 3.413-2.389 4.45-1.072.095-.452 1.095-.715 1.545-.433.6.395.32.94.21 1.505.15-.471.7-.546 1.22-.508-.56-.828-1.86-1.975-.35-2.765-.44-.865 0-2.069.83-2.614-.31-.677.6-1.843 1.15-2.238.77-.621 1.97-.433 2.6-.978-.7-.94-1.4-2.276.53-2.276-.7-.827-.87-2.275.2-2.746.21-.075.38.32.7.094.47-.319.08-.545.36-.846.39-.451.7-.79 1.37-.715.76-3.216 6.3-2.839 8.13-.921.55-.752 1.51-.207 1.62.564.98.151 1.79-.32 2.77-.15.93.169 1.14.639 1.76 1.222l.53-.169c1.13-.828 3.01-.207 3.56 1.204 1.13-.527 3.3-.64 4.32.169-.06-2.013 2.32-1.975 3.2-.564.06-.132 1.06-.301 2.23-.283-.63-.601-1.38-1.128-1.13-2.087.86-.282 2.54-.621 3.24.357-.44-.903-.98-1.504-1.17-2.445-1.68-.15-2.92-.47-4.07-1.749-3.76 2.614-17.29-7.052-8.09-13.39-2.32-3.423 3-3.912 4.24-3.536-3.6-5.116.79-6.169.79-6.169z" filter="url(#filter0_f)"/><path fill="#E5E5E5" fill-opacity=".08" d="M483.189 369.959c-.989-.3 1.93-.343 2.437-.416-.507-1.053 4.414-1.567 7.671-1.255-1.061-.373-1.399-.789-.265-1.205 1.182-.44 3.063-.52 4.704-.269-2.847-2.814 13.485-2.692 15.15-1.217.096-1.206 8.37-1.701 11.965-1.579 4.752.171 8.926 1.291 7.502 2.502 3.257-.422 4.946.802 3.378 1.371.796.092 2.581.446 2.653.679 3.257-.245 5.79-.331 8.275.404l2.002.116c1.206-.275 4.101-.025 5.211.269 1.351-1.12 4.294-1.016 5.838-1.064 2.533-.08 2.436 1.199.892 1.498-1.351.257-2.291.68-4.004.79 2.436.122 6.899 0 6.899 0s22.508-3.371 24.751 1.829c.217 1.713-4.921 1.529-8.95 1.603-.313.495-2.05.648-3.546.85 4.053-.024 4.632.991 4.921 1.817.965-.024 11.411-1.737 11.628.82 2.871-.128 4.39-.355 6.61.208 1.833.465 3.136 1.322.024 1.615 2.075-.141 1.906.471.555.673-1.592.233-2.364.245-2.147.808.892-.123 1.254-.373 2.268-.496 1.254-.153 2.581-.177 3.16.202.723.49-1.399.575-3.643.973 1.158.043 2.147-.104 3.281.024.965.117 1.689.331 1.64.618-.12.557-3.835.728-5.596.698 1.182.471-2.365 1.291-3.836 1.492.917.172 3.715-.171 4.921-.183 1.882-.031 2.654.196 3.908.502.796-.08 1.761-.092 2.557-.166-2.46-.489-.313-1.095 2.075-1.095 1.954-1.645 8.347-.244 5.693.465 1.665.08.676.93.458 1.199.411-.03 1.014-.073 1.544-.067-.989-.226-.217-.599.29-.832.458 0 .651-.067 1.061-.073.266-1.42 7.696-.704 5.308.128.796.006 1.568.202 2.147.33.024-.244 1.109-.471 1.881-.403.82.067 1.472.44 1.568.63.121.024.266.024.386 0 .121-.318.193-.704 1.834-.74 1.375-.025 2.34.403 2.243.721 1.062-.183 1.906-.575 3.377-.666 1.472-.092 4.295.055 4.536.507 2.002.049 3.256.055 4.704.447.193-.208.772-.496 1.785-.502-1.303-.526 1.689-.648 2.943-.673 1.592-.03 2.919.068 3.619.453l.675-.055c-.313-.496 1.568-.422 2.268-.141-.217-.52 3.257-.208 3.86.068.916-.196 2.533-.325 3.763-.276 1.737.068 1.954.257 2.243.667 1.737-.624 4.632-.006 6.104.343 2.243-.484 4.439-.068 6.513.171 1.544-.367 4.487-.202 6.296-.018 1.737.171 3.547.673 5.404.673 0 0 14.547-.049 16.211.055 2.775.177.097.465-1.351.581-3.57.3-21.47.183-22.29.226 1.592.716-1.664.857-3.57.918-1.206.722-4.704.74-7.479.728-1.761 0-1.761.141-3.112.3-4.125.502-73.867.281-75.724.269-.989-.006-1.279-.031-2.268.043-.675.049-1.085.251-1.64-.031-.917.196-1.785.453-2.847.624-1.495.233-2.726.098-4.004.129-1.568.043-2.847.183-4.56.147-1.881-.049-2.919-.545-2.967-.508-1.447.159-4.029.098-5.379-.049-1.689-.178-2.172-.74-3.909-.245-1.182.349-1.664.557-3.546.655-1.64.079-3.232.018-4.656-.178-.506.429-2.677.257-4.052.282-.073.22 0 .446-.073.667-1.978.122-4.053.293-6.031.122-.723-.067-1.085-.22-1.785-.294-.892-.091-2.075.074-2.919.129.483.141 1.665.159 1.279.44-1.978.092-11.893.551-15.946-.03-1.375-.196-1.665-.655-3.353-.698-1.882-.049-2.871.441-4.536.172-.603-.098-1.109-.38-1.761-.447-.772-.092-16.79.648-19.878.122-.82-.14-.024-.416 0-.642-2.147.33-5.934.006-4.245-.74-1.207-.019-16.646.593-20.747-.055-1.013-.159-1.375-.331-2.581-.117-1.158.208-.82.398-2.533.38-1.158-.006-1.954-.196-2.919-.233-1.447-.055-4.391.973-5.597.367-1.109.227-2.195.153-3.449.269-.797.074-1.496.319-2.292.392-.676.055-2.847.128-3.378.024-.82-.152-8.057.465-9.408.441-2.267-.043-5.5-.196-6.586-.795-.965.159-2.002.177-3.112.232-1.761.098-.892-.03-2.267-.177-.024.043-.217.098-.266.153-2.074.03-4.294.146-6.489.195-2.533.055-3.425-.073-4.559-.63-1.351.269-5.935.49-6.079.055-1.761-.042-3.836.257-5.597.325-1.568.055-4.222.097-5.621-.055-.796-.092-1.351-.355-2.002-.392-.82-.043-6.803.147-7.382.067.12.441-6.417.496-6.176-.342-1.496.03-2.557-.233-3.956.067-1.399.3-1.544.679-3.667.728-1.978.043-2.292-.22-3.546-.526-1.544-.373-18.069 1.413-21.446.098a19.406 19.406 0 0 1-4.342.104c-.821-.074-1.4-.178-2.365-.116-.675.042-1.061.226-1.857.22-1.086-.006-.989-.269-1.761-.349-.579-.055-1.351.043-2.075.104-4.825.379-5.235-.165-5.211-.208-1.375.116-3.57.128-5.114.098-6.32-.74 5.718-.392 8.54-1.53l1.351-.281c.868-.52 5.331-.728 4.994-.753.482-.122 1.664-.275 1.568-.501-.024-.092-.796-.171-.917-.282-.169-.146.096-.275.289-.391.169-.098.676-.147.869-.245.217-.122-.097-.275.265-.398.507-.195 1.592-.281 2.389-.177.192-.251.723-.275 1.568-.349.386-.03.554.031.892 0 .314-.03.483-.159.772-.202 1.689-.232 3.04-.042 3.956.325.073-.294 1.593-.331 2.365-.184.12-.122.361-.306.675-.422.121-.049.555-.092.603-.122.265-.104.29-.147.483-.294.193-.141-.169-.202.603-.355.554-.104 1.592-.165 2.267-.165.266-.294 1.954-.367 2.823-.294 1.399.123 1.399.429 1.568.741.265-.172.772-.3 1.495-.331.121-.599 1.376-.618 3.378-.569-.024-.22.82-.367 1.568-.226.169-.6 1.471-.673 2.967-.245.7-.275.796-.63 2.485-.55a7.288 7.288 0 0 1 2.292.507c.675-.073.675-.275.892-.44 1.906-.22 2.051.073 3.064.367.482-.184 1.182-.165 1.833-.043.073-.245-.12-.379.724-.508.555-.079 1.158-.098 1.568.043-.121-.471 3.57-.508 3.812-.043 0 0 3.425-.171 4.125-.018 1.302.294.482.557-.024.85 1.254-.116 2.653-.055 3.642.123 1.086.195 1.496.593-.217.703-.096.453.459.741-.699 1.132-1.062.367-2.075.489-3.619.624-1.689.153-.989.471-2.243.802-.483.128-1.158.275-1.761.354-.628.092-1.665.049-2.051.202 1.182.049 3.064-.293 3.812.049.916-.104 1.254-.232 1.857-.428.651.043 1.255.116 1.978.104.989-.006 1.255-.202 2.003-.233.699-.03 1.278.074 1.857.074.869 0 1.447-.122 2.388-.025.7-.232 2.726-.226 3.161.055-1.158.221-3.161.331-4.005.692 1.737 0 3.281.428 3.16.856 1.568-.073 3.233-.251 4.897-.116.217-.502 1.689-.722 3.378-.856-.169-.38 1.085-.52 2.484-.508-.217-.398 2.196-.581 3.426-.508 1.158.073 2.629.379 3.426.624 1.905-.306 4.8-.318 6.851-.043-.869-.544.699-.74 2.533-.765-.772-.416.82-.55 2.002-.507-.314-.777 4.366-.777 5.693-.349.121-.147 1.399-.233 1.978-.141.772.129.41.306.266.49.193-.153.892-.178 1.568-.166-.724-.269-2.389-.642-.459-.899-.554-.281 0-.673 1.062-.85-.386-.22.772-.6 1.471-.728.989-.202 2.533-.141 3.329-.318-.892-.306-1.785-.741.676-.741-.893-.269-1.11-.74.265-.893.266-.024.483.104.893.031.603-.104.096-.178.458-.276.507-.146.893-.257 1.761-.232.965-1.046 8.058-.924 10.398-.3.699-.245 1.929-.067 2.074.184 1.255.049 2.292-.104 3.546-.049 1.182.055 1.448.208 2.244.397l.675-.055c1.448-.269 3.86-.067 4.56.392 1.447-.171 4.221-.208 5.524.055-.072-.655 2.967-.642 4.101-.184.073-.042 1.351-.098 2.847-.091-.796-.196-1.761-.367-1.448-.679 1.11-.092 3.257-.202 4.15.116-.555-.294-1.255-.49-1.496-.796-2.147-.049-3.739-.153-5.211-.569-4.8.851-22.121-2.294-10.349-4.356-2.967-1.113 3.836-1.272 5.428-1.15-4.608-1.664 1.013-2.006 1.013-2.006z" filter="url(#filter1_f)"/><path fill="#E5E5E5" fill-opacity=".08" d="M180.753 212.585c.85-.503.956-2.028-.349-1.677-7.814-17.455-75.666-13.223-67.063-3.202.152.762.592 1.25.941 1.982-.562-.793-1.912-.518-2.61-.29-.197.778.41 1.205.91 1.693-.94-.016-1.744.122-1.79.228-.713-1.143-2.625-1.174-2.579.458-.82-.656-2.564-.564-3.475-.138-.44-1.143-1.957-1.646-2.867-.975l-.425.137c-.501-.473-.668-.854-1.411-.991-.79-.137-1.442.244-2.23.122-.092-.625-.866-1.067-1.306-.457-1.471-1.555-5.932-1.86-6.539.747-.546-.061-.789.213-1.107.579-.228.244.09.427-.289.686-.258.183-.394-.137-.561-.076-.865.381-.728 1.555-.167 2.226-1.548 0-.986 1.082-.425 1.844-.5.442-1.472.29-2.094.793-.44.32-1.168 1.265-.925 1.814-.668.442-1.017 1.418-.668 2.119-1.214.641-.167 1.571.288 2.241-.424-.03-.864.031-.986.412.091-.457.319-.899-.167-1.22-.364-.228-1.168-.015-1.244.351-.834-1.067-3.778-1.067-3.58.869-.744-.107-1.745.229-1.26 1.265-1.153.061-2.14.549-1.593 1.906-1.29-.686-3.11-.656-4.309.107-.5-.61-1.426-1.372-2.154-1.555-.774-.183-2.292.274-2.155 1.265-.88-.03-1.669.32-1.563 1.265-1.062.336-1.987.885-2.124 2.135-1.047-.336-2.094.106-3.08.289.076-1.067-.895-2.134-1.988-2.134.532-.899 1.79-1.174 2.52-1.723-.274-.701-1.548-.716-1.989-.137-.591-.244-.955.061-1.502.061-.364 0-.728-.259-1.168-.183-.47.076-.637.564-1.26.58-.454.03-.834-.153-1.243-.26-.38.488-.592.808-1.169 1.068-.47-.854-1.654 0-2.397-.122.243-.382.895-.275 1.29-.504.379-.198.804-.564 1.107-.884.79-.823.35-1.616 1.411-1.997.971-.335 1.609-.64 2.276-1.555.728-.976.38-1.692.44-2.82 1.078-.275.82-1.266.137-1.753a2.518 2.518 0 0 0-2.291-.305c.318-.732.834-1.388.015-2.119-.44-.382-2.595.045-2.595.045-.151-1.158-2.473-1.067-2.397.107-.258-.351-.637-.305-.986-.107-.531.32-.41.656-.455 1.266-.41-.305-.85-.351-1.153.106-.638-.731-.729-1.463-1.927-.914-.137.411-.137.914-.562 1.097-.334-.503-.819-1.143-1.441-1.265-1.062-.198-1.123.686-1.563 1.372-.94-1.067-1.76-.884-1.866.61-.47-.351-1.002.015-.986.564-1.26-.122-2.049-.076-2.124 1.418-.456.076-.774.396-.941.823-.106-.778-.106-1.54-.986-1.845-.547-.183-1.609 0-1.776.732-.424 0-1.077.152-1.426.412-.485.381-.258.533-.38.884-.12.366-.136.472-.303.732-.03.076-.303.183-.379.305-.197.289-.349.747-.425 1.051-.485-.365-1.441-.274-1.487.458-.576-.915-1.426-1.388-2.488-.808-.182.107-.288.427-.485.503-.213.076-.32-.076-.562 0-.53.183-.865.244-.986.869-.5-.259-1.183-.046-1.502.442-.228.305-.03.686-.167.991-.121.244-.44.366-.546.61-.122.289-.288.61-.182.975.076.275.561.473.576.702.06.564-.683.945-.986 1.25.212.061-2.595.579-3.14 1.875l-.85.701c-1.776 2.836-9.347 1.967-5.372 3.812.972.076 2.352.045 3.217-.244-.015.106.243 1.463 3.277.518.456-.152.941-.396 1.305-.259.486.198.425.854 1.108.869.5.015.743-.442 1.168-.549.607-.152.971.107 1.487.29.94.32 1.82.228 2.731-.26 2.124 3.278 12.518-1.173 13.488-.243.79.762.987 1.417 2.23 1.311 1.336-.122 1.427-1.068 2.307-1.815.88-.747 1.548-.091 2.488-.167-.151 2.088 3.96 1.951 3.885.854.364.198 4.127-.275 4.642-.168.41.091.76.747 1.26.976.88.381 2.549.274 3.535.137 1.108-.168 2.412-.915 3.52-.808.091 1.082 2.974.533 3.823-.137.714 1.387 1.275 1.707 2.868 1.57 1.38-.122 2.777-.412 4.081-.488.03-.137.152-.274.167-.381.865.366.32.686 1.427.442.698-.137 1.35-.183 1.957-.579.683 1.494 2.716 1.875 4.142 1.981.85.061 5.401-1.478 5.917-1.097.334.259 1.7.076 2.124-.061.501-.183.941-.793 1.442-.976.789-.29 1.472-.107 2.17-.671.758 1.51 2.61-1.052 3.52-.914.606.091 1.107.564 1.835.579 1.078.046.865-.427 1.594-.945.758-.534.986-.107 1.623.289 2.579 1.616 12.29.092 13.049.138-1.063 1.86 1.32 2.668 2.67 1.844-.015.564-.516 1.25 0 1.601 1.942 1.311 12.017-.534 12.502-.305.41.168.728.869 1.108 1.113 1.047.671 1.669-.549 2.852-.427 1.062.107 1.244 1.25 2.109 1.738 2.549 1.448 8.785.305 10.029.076.243-.701-.5-.747-.804-1.097.531-.138 1.275-.549 1.836-.32.44.182.668.564 1.123.731 1.244.427 2.549 0 3.793-.305.045-.548 0-1.112.045-1.661.865-.061 2.231.366 2.549-.702a4.312 4.312 0 0 0 2.929.442c1.183-.243 1.487-.762 2.23-1.631 1.092-1.235 1.396.168 2.458.61.85.366 2.473.518 3.384.122.03-.091.682 1.143 1.866 1.265 1.077.092 1.881-.259 2.867-.366.804-.076 1.578.26 2.519-.32.668-.427 1.214-1.067 1.79-1.555.349.702.607.199 1.032.077.622-.183.804-.122 1.426-.107 1.169.03 45.033.579 47.627-.671.85-.396.85-.747 1.957-.747 1.745.031 3.945-.015 4.704-1.814 1.198-.153 3.247-.503 2.245-2.287.516-.107 11.774.183 14.02-.564.91-.29 2.594-1.006.849-1.448-1.046-.259-10.195-.138-10.195-.138-1.169 0-2.307-1.25-3.399-1.676-1.138-.458-2.989-.869-3.96.045-1.305-.594-2.686-1.631-4.097-.427-.925-.869-2.746-2.408-3.838-.853-.183-1.022-.319-1.494-1.412-1.662-.773-.122-1.79.198-2.366.686-.38-.686-2.565-1.464-2.428-.168-.44-.701-1.624-.884-1.426.351l-.425.137c-.44-.96-1.275-1.204-2.276-1.128-.789.061-2.67.366-1.851 1.677-.637.015-1.001.732-1.123 1.25-.91-.976-1.699-.991-2.958-1.113-.152-1.128-1.927-1.494-2.853-1.265-.925.228-1.456 1.204-2.124 1.662.061-.793-.546-1.86-1.411-1.799-1.032.091-1.077 1.051-1.153 1.844a.184.184 0 0 1-.243 0c-.061-.472-.47-1.402-.986-1.57-.486-.168-1.169.396-1.184 1.006-.364-.32-.849-.808-1.35-.823 1.502-2.073-3.171-3.857-3.338-.32-.258.015-.379.183-.668.183-.318.579-.804 1.509-.182 2.073-.333-.015-.713.092-.971.168.137-.671.759-2.79-.288-2.988 1.669-1.769-2.352-5.26-3.581-1.159-1.502 0-2.852 1.509-1.305 2.729-.5.183-1.107.213-1.608.412-.789-.763-1.274-1.327-2.458-1.251-.758.031-2.518.885-3.095.458.925-.503 3.156-2.546 2.412-3.72 1.108.076 3.445-.351 3.52-1.738.031-.716-.424-1.25-1.031-1.54-.713-.32-1.335.046-2.064-.061 1.411-.991 2.746-1.204 2.291-2.424-.364-.945-1.198-.884-1.987-.503-.638.305-.865.93-1.427 1.235-.136-1.403.349-1.433 1.351-2.012z" filter="url(#filter2_f)"/><path fill="#E5E5E5" fill-opacity=".05" d="M1400.44 46.778c-1.39-1.29-1.59-5.221.54-4.33 12.46-45.11 123.1-34.881 109.24-8.94-.23 1.969-.94 3.232-1.5 5.123.9-2.05 3.11-1.356 4.25-.773.33 2.004-.65 3.111-1.46 4.375 1.53-.05 2.85.297 2.92.572 1.15-2.958 4.26-3.056 4.21 1.153 1.33-1.7 4.17-1.48 5.66-.389.7-2.954 3.17-4.268 4.66-2.546l.7.35c.8-1.225 1.07-2.21 2.28-2.571 1.28-.362 2.35.614 3.64.292.13-1.614 1.39-2.762 2.12-1.193 2.37-4.027 9.63-4.86 10.66 1.86.89-.162 1.29.543 1.82 1.484.37.627-.14 1.102.48 1.767.42.47.64-.358.91-.202 1.42.974 1.22 4.004.31 5.74 2.52-.015 1.63 2.783.72 4.755.83 1.136 2.41.733 3.43 2.024.72.822 1.92 3.253 1.54 4.672 1.09 1.133 1.67 3.647 1.12 5.46 1.99 1.64.29 4.05-.44 5.785.7-.083 1.41.07 1.62 1.052-.16-1.18-.54-2.318.25-3.149.59-.593 1.9-.05 2.03.892 1.35-2.761 6.14-2.791 5.85 2.206 1.21-.283 2.85.572 2.07 3.252 1.89.145 3.5 1.394 2.63 4.9 2.09-1.783 5.06-1.722 7.03.232.8-1.578 2.3-3.554 3.48-4.034 1.26-.48 3.74.685 3.53 3.243 1.44-.088 2.73.809 2.57 3.249 1.74.854 3.25 2.26 3.5 5.485 1.7-.876 3.41.254 5.02.716-.14-2.753 1.43-5.516 3.21-5.527-.88-2.315-2.94-3.01-4.14-4.419.44-1.812 2.51-1.864 3.24-.374.96-.635 1.56.148 2.45.142.59-.004 1.18-.676 1.9-.484.77.192 1.05 1.45 2.06 1.482.74.074 1.36-.402 2.03-.681.62 1.255.97 2.078 1.92 2.741.75-2.207 2.69-.017 3.9-.339-.4-.98-1.46-.699-2.11-1.285-.62-.507-1.32-1.447-1.82-2.27-1.3-2.115-.59-4.165-2.33-5.138-1.59-.855-2.63-1.635-3.73-3.989-1.21-2.51-.65-4.362-.77-7.272-1.76-.697-1.35-3.256-.25-4.521 1.01-1.147 2.44-1.55 3.73-.81-.53-1.885-1.38-3.571-.06-5.467.71-.988 4.23.091 4.23.091.23-2.99 4.02-2.778 3.91.252.42-.908 1.03-.794 1.61-.286.87.82.67 1.687.76 3.26.66-.79 1.38-.913 1.88.264 1.03-1.895 1.16-3.783 3.13-2.38.22 1.06.23 2.359.93 2.826.53-1.3 1.31-2.958 2.33-3.279 1.72-.522 1.84 1.759 2.57 3.524 1.51-2.762 2.85-2.299 3.05 1.555.76-.91 1.63.029 1.61 1.445 2.05-.327 3.34-.217 3.49 3.636.74.192 1.26 1.015 1.54 2.115.16-2.007.15-3.974 1.58-4.77.89-.477 2.62-.016 2.91 1.87.69-.004 1.75.383 2.33 1.048.79.978.43 1.374.63 2.278.2.942.23 1.218.51 1.884.05.197.49.47.62.783.32.746.58 1.924.71 2.71.78-.95 2.34-.723 2.43 1.165.92-2.366 2.3-3.594 4.04-2.11.3.273.48 1.098.8 1.293.35.195.52-.2.91-.006.87.467 1.42.62 1.63 2.232.81-.674 1.92-.13 2.45 1.126.38.784.06 1.77.29 2.554.2.629.72.94.9 1.568.2.746.48 1.57.31 2.516-.12.708-.91 1.225-.93 1.815-.09 1.456 1.13 2.431 1.63 3.215-.35.16 4.24 1.468 5.15 4.806l1.39 1.8c2.94 7.298 15.27 4.98 8.82 9.779-1.58.207-3.83.142-5.25-.596.03.275-.37 3.778-5.33 1.37-.74-.389-1.54-1.013-2.13-.655-.79.516-.68 2.207-1.79 2.253-.82.044-1.22-1.133-1.91-1.404-1-.387-1.59.285-2.42.762-1.53.836-2.97.609-4.46-.641-3.41 8.478-20.42-2.902-21.98-.493-1.28 1.975-1.59 3.668-3.62 3.406-2.18-.302-2.34-2.739-3.79-4.658-1.44-1.918-2.52-.22-4.05-.407.28 5.387-6.43 5.075-6.32 2.242-.59.515-6.73-.666-7.57-.386-.66.241-1.22 1.935-2.03 2.53-1.43.993-4.15.734-5.76.39-1.81-.421-3.95-2.335-5.75-2.049-.13 2.794-4.84 1.407-6.24-.315-1.14 3.586-2.05 4.418-4.64 4.08-2.26-.3-4.54-1.034-6.66-1.217-.06-.354-.26-.706-.28-.982-1.41.953-.51 1.774-2.32 1.155-1.14-.346-2.2-.458-3.2-1.474-1.09 3.861-4.39 4.865-6.72 5.155-1.38.166-8.82-3.761-9.66-2.772-.54.672-2.77.214-3.46-.136-.82-.467-1.55-2.036-2.37-2.503-1.29-.739-2.4-.26-3.54-1.708-1.21 3.901-4.27-2.688-5.75-2.324-.99.242-1.8 1.466-2.99 1.513-1.75.129-1.41-1.093-2.61-2.423-1.24-1.369-1.61-.265-2.64.764-4.18 4.195-20.03.361-21.26.486 1.76 4.788-2.11 6.897-4.32 4.786.03 1.456.86 3.22.02 4.13-3.14 3.403-19.59-1.255-20.38-.66-.66.437-1.17 2.25-1.78 2.883-1.7 1.741-2.73-1.399-4.66-1.073-1.73.287-2.01 3.238-3.41 4.506-4.13 3.762-14.31.875-16.34.298-.41-1.807.8-1.932 1.29-2.84-.87-.349-2.08-1.403-3-.807-.71.476-1.07 1.462-1.81 1.899-2.02 1.114-4.16.026-6.19-.748-.08-1.416-.02-2.872-.1-4.287-1.41-.149-3.63.966-4.17-1.784-1.45 1.268-3.08 1.672-4.76 1.171-1.93-.618-2.44-1.952-3.66-4.186-1.8-3.175-2.27.447-4 1.598-1.38.953-4.02 1.362-5.51.349-.05-.236-1.09 2.957-3.02 3.283-1.76.247-3.07-.649-4.68-.915-1.31-.188-2.57.685-4.11-.8-1.1-1.095-2-2.741-2.94-3.994-.56 1.813-.99.518-1.68.207-1.02-.465-1.32-.306-2.33-.26-1.9.09-73.38 1.95-77.63-1.249-1.39-1.014-1.39-1.918-3.2-1.907-2.84.096-6.43.001-7.69-4.633-1.96-.381-5.3-1.265-3.7-5.877-.84-.27-19.18.591-22.86-1.313-1.48-.738-4.24-2.57-1.4-3.728 1.7-.68 16.61-.457 16.61-.457 1.9-.012 3.74-3.249 5.51-4.361 1.85-1.192 4.86-2.273 6.46.078 2.11-1.548 4.35-4.236 6.67-1.143 1.49-2.252 4.43-6.243 6.24-2.242.28-2.637.49-3.858 2.27-4.301 1.26-.323 2.92.493 3.87 1.746.61-1.774 4.15-3.802 3.95-.457.71-1.814 2.63-2.298 2.33.89l.7.35c.7-2.483 2.06-3.12 3.69-2.934 1.29.149 4.36.917 3.04 4.308 1.04.032 1.65 1.877 1.85 3.213 1.47-2.526 2.76-2.573 4.81-2.9.22-2.913 3.11-3.875 4.62-3.294 1.52.58 2.4 3.092 3.49 4.265-.11-2.044.86-4.804 2.27-4.655 1.69.225 1.78 2.703 1.91 4.747.13.157.27.156.4-.002.09-1.22.74-3.623 1.58-4.061.79-.438 1.91 1.01 1.94 2.584.59-.83 1.38-2.094 2.19-2.138-2.48-5.334 5.11-9.983 5.44-.86.42.037.62.468 1.09.465.53 1.492 1.33 3.886.33 5.348.54-.043 1.16.229 1.58.423-.23-1.73-1.28-7.19.42-7.712-2.74-4.546 3.75-13.594 5.82-3.026 2.45-.015 4.67 3.865 2.17 7.027.82.467 1.81.54 2.63 1.046 1.27-1.975 2.05-3.435 3.98-3.25 1.24.07 4.12 2.255 5.06 1.148-1.52-1.288-5.19-6.536-3.99-9.572-1.81.208-5.62-.87-5.77-4.448-.06-1.849.67-3.23 1.66-3.983 1.15-.834 2.17.104 3.36-.179-2.32-2.542-4.5-3.079-3.77-6.23.58-2.443 1.94-2.294 3.23-1.318 1.04.78 1.42 2.39 2.34 3.171.2-3.62-.59-3.694-2.23-5.178z" filter="url(#filter3_f)"/><defs><filter id="filter0_f" width="317" height="103" x="901" y="230" color-interpolation-filters="sRGB" filterUnits="userSpaceOnUse"><feFlood flood-opacity="0" result="BackgroundImageFix"/><feBlend in="SourceGraphic" in2="BackgroundImageFix" result="shape"/><feGaussianBlur result="effect1_foregroundBlur" stdDeviation="5"/></filter><filter id="filter1_f" width="400" height="47" x="318" y="354" color-interpolation-filters="sRGB" filterUnits="userSpaceOnUse"><feFlood flood-opacity="0" result="BackgroundImageFix"/><feBlend in="SourceGraphic" in2="BackgroundImageFix" result="shape"/><feGaussianBlur result="effect1_foregroundBlur" stdDeviation="5"/></filter><filter id="filter2_f" width="259" height="61" x="0" y="189" color-interpolation-filters="sRGB" filterUnits="userSpaceOnUse"><feFlood flood-opacity="0" result="BackgroundImageFix"/><feBlend in="SourceGraphic" in2="BackgroundImageFix" result="shape"/><feGaussianBlur result="effect1_foregroundBlur" stdDeviation="5"/></filter><filter id="filter3_f" width="410.152" height="128.2" x="1279" y="0" color-interpolation-filters="sRGB" filterUnits="userSpaceOnUse"><feFlood flood-opacity="0" result="BackgroundImageFix"/><feBlend in="SourceGraphic" in2="BackgroundImageFix" result="shape"/><feGaussianBlur result="effect1_foregroundBlur" stdDeviation="5"/></filter></defs></svg>