<svg xmlns="http://www.w3.org/2000/svg" width="560" height="544" fill="none"><g filter="url(#filter0_f)"><path fill="#443725" d="M404.188 362.494c0-.17.06-.329.08-.489-.23-.16-.31-.011-.08.489z"/><path fill="#3D3220" d="M555.144 397.125c-1.56-2-2.65-3.39-3.82-4.75-2.63-3.07-4.78-7.74-8.07-8.78-4.92-1.54-6.63-4.38-7.8-8.56-.64-2.29-1.23-4.65-4.64-3.69-.61.17-1.54-2.79-.92-3.38a4.704 4.704 0 0 1 1.43-.9c3.25-9.88-1.64-17.09-5.29-25.43l-18 7c.58 2.53 1 4.43 1.54 6.68-1.76.58-3.32 1.05-4.84 1.6-7.82 2.86-16.14 4.81-23.33 8.8-14.29 7.93-28.48 15.78-44.39 20.09-6.75 1.83-8.37 1.6-11.58-4.77a6.995 6.995 0 0 0-7.12-4.33c-2 0-3.94 0-5.88-.06-1.53-7.26-7.84-16.38-9.07-17.2 0 .16 0 .32-.08.49-.2-.5-.15-.65.08-.49 1.5-9.17-2.53-15.58-12-20.51.34 1.65.68 3.31 1 5-2.63-6.15-6.63-9.67-13.45-10.41-2.84-.31-4.74-2.79-3.46-6.35 1 .4 1.77 1 2.51 1 4.11-.27 6.81 1 8.37 5.26.62 1.72 3.55 2.59 5.43 3.85a18.997 18.997 0 0 0-2.41-8c-2.66-4.93-5.45-9.79-8.2-14.67a24.777 24.777 0 0 1-1.87-3.21c-2.56-6.87-4.28-14.37-13.91-14.37-.36 0-.71-.57-1.32-1.09l2.86-4.09-7.68-8-1.06.87c1.48 4.49-5.53-8-4.94-9.84a4.888 4.888 0 0 0-.33-3.63c-3.8-6-7.83-11.88-11.72-17.84-2.37-3.64-5.64-6.7-6.46-11.33a57.565 57.565 0 0 0-2.81-9.76c-3.63-9.94-7.5-19.78-11.1-29.72-1.91-5.28-3.32-10.73-5.18-16-3.3-9.43-6.6-18.86-10.29-28.13-.89-2.23-3.09-4.09-5-5.68-2.9-2.38-7.66-3.76-8.83-6.68-1.68-4.2-5.57-4.73-8.15-6.76-4.85-3.82-11.14-5.8-16.78-8.66a46.223 46.223 0 0 1-7.24-4.24c-4.25-3.26-8.29-6.8-13.18-10.85.1 3.08.28 4.89.19 6.69-.08 1.61 0 4.29-.75 4.63-5 2.14-2.1 5.48-1.5 8.32a16.005 16.005 0 0 0 2 4l-5.14 3.23c-.36-4.1-1.52-7.75-.83-11 2-9.42.54-18.41-2-27.4-.64-2.28-1.46-4.51-2.2-6.75h-1.38c-1.26 14.62-6.28 27.45-17.79 38.55l3-7.89-4.61 3.64c-2.694-54.12-13.369-49.261 21.67-44.86.181-.746.372-1.491.569-2.235 1.14-4.312 2.462-8.6 2.991-12.975.75-6.21 2.82-12.72-1.52-18.6-.16-.21 0-.64 0-1-.09-4.26.18-8.56-.33-12.76-1.39-11.25-8-19.1-16.63-26-5.8-4.65-12.45-6.79-19.3-7.65-5.88-.73-12.85-4.34-17.78 2.9-3.43-2-6.06-.84-9.46.85-8.34 4.16-16.21 7.9-20.79 17.13-2.94 5.92-3.24 11.76-4.08 17.83-.41 3 1.14 5.85-2.62 8.92-2.87 2.35-.75 8.2 2.21 12.95 1.3-5.52 2.38-10.14 3.47-14.76-.49 10.8-1.83 21.41 4 31.35-3.68 2.11-4.64 4.68-2.56 9.2.73 1.56 5 3.88 1.18 7-3.17 2.6-3 4.66-.11 8.28.19-1.93.38-3.82.57-5.72h.65c1.68 8.546 3.347 17.1 5 25.66l-2.16.74-9.12-20.67c-6.05 2-12.72 4.58-19.59 6.37-12.8 3.34-24.68 8.67-36.56 14.38-5.68 2.73-10.4 4.67-10.23 11.8 0 .42-.47.86-.72 1.29-8.15 14.12-14 29-16.08 45.34-.36 2.86-.38 5.82-1.14 8.58-1.29 4.7-3.19 9.24-4.59 13.91-2.06 6.94-3.8 14-5.91 20.91a86.084 86.084 0 0 1-3.52 8.48c4.42-.45-.45 14.59-1.92 11.43-1.26 3.34-2.74 7.34-4.17 11.43-1.3 3.75-2.45 7.56-3.82 11.29-.43 1.19-1.11 2.79-2.09 3.2-6.32 2.61-7.37 7.86-7.44 13.77 0 4 .19 8-.44 11.92-1.15 7.14-2.79 14.21-4.34 21.29-1.21 5.53-2.56 11-3.91 16.54-1.28 5.22-3.11 10.35-3.83 15.64-.67 4.86 1.43 10.68-.55 14.65-3.69 7.42-2.73 14.89-3.15 22.41-.07 1.23.76 2.51 1.57 5-.17.28-1 1.9-2 3.39-2.28 3.28-2.15 5.77 2 7.21 2.31.8 4.6 1.7 6.9 2.55-.27.83-.55 1.66-.82 2.49l-9.85-1.18c.65 9 .65 9 3.86 12.79-2.42 3.88-5.39 7.07-6.51 10.82-1.72 5.78-2 12-3.2 17.94-2.71 14.06 1.1 27.75 2.23 41.58a3.584 3.584 0 0 0 2.28 2.61 3.66 3.66 0 0 0 3-1.88 27.894 27.894 0 0 0 1.38-7.2c.42-6 .61-12 .9-18l1.57-.08c2.09 4.51 3.94 9.15 6.36 13.48 1.43 2.57 1.29 8.24 5.73 6.47 4-1.59 1.23-6.06.58-9.34-1.5-7.46-3-14.92-4.19-22.43-.22-1.38 1.33-3 2.19-4.83 4.53 5.93 8.14 10.87 12 15.6 1.06 1.3 2.93 1.93 4.43 2.87.24-2 1.19-4.28.56-6a45.966 45.966 0 0 0-5.29-10.06c-3.79-5.51-5.18-11-2.58-17.52 2.12-5.35 3.22-11.1 5-16.59.38-1.17 2-1.86 2.89-2.94 1.44-1.84 3.75-3.76 3.85-5.74.34-6.61-.21-13.27-.26-19.91a35.592 35.592 0 0 1 .64-7.93 48.016 48.016 0 0 1 2.78-7.25c3.18-7.83 6.07-15.8 9.71-23.41 1.91-4 5.65-7.16 7.68-11.15 5-9.88 10.47-19.71 14.06-30.14 4.68-13.6 7.72-27.75 11.49-41.66.61-2.28 1.34-4.54 2-6.81l1.36.21c.88 11.69 2 23.36 2.53 35.06.23 5-.73 10-1.21 15-.38 4-.65 8-1.3 11.88-2.41 14.58-5.1 29.11-7.39 43.71-1.61 10.31-2.72 20.7-4.1 31-1.1 8.19-2.52 16.34-3.31 24.56-.51 5.34.31 10.81-.22 16.14-2.12 21.31-8 42.32-5.08 63.58 0 0-3.08 11.37-1.71 12.89-2 7.37 1.59 14.75-.76 22.62-2.2 7.35-.78 15.78-1 23.74l79.56.66 3.07-27.89c1.48-6.94 1.15-14.21 4.07-20.9a43.432 43.432 0 0 0 2.29-8.07l2.33-9c3.63-9.35 7-18.12 10.79-27.83a56.294 56.294 0 0 1 2.13 6.59c2.29 12.59 4.38 25.22 6.73 37.8.69 3.75 2 7.38 3 11.06l2.58 35.71 83-1.5-5.8-60.5c.35-8.51.8-17 1-25.54.31-12.52-1.32-25.13 3.86-37.29 1.72-4.06 1-9.13 1.39-13l-4.72-.33-2-2.19c-1-3.06-3-6.17-2.78-9.15.24-3.89-1.85-8.91 3.34-11.56a1.913 1.913 0 0 0 .4-1.76 10.258 10.258 0 0 1 .11-9c1.72-3.73 1-8.5 2-12.68a113.863 113.863 0 0 0 2.06-11.37c1.21-10.5 3.35-21.33-1.8-31.59a4.492 4.492 0 0 1 0-2.38c1.45-9.83 3-19.64 4.38-29.48 1.48-10.51 2.85-21 4.18-31.57.31-2.41.25-4.88.36-7.32 5.42 9.56 11.08 18.94 13.47 29.1 2.21 9.44 6.78 16.54 14.34 20.93 10.53 6.12 13.3 18.3 22.17 25.43a1.145 1.145 0 0 1 .41.88c-1 4.79 2.85 6.84 5.32 9.79 6 7.16 11.77 14.48 17.56 21.79 4.7 5.94 10.87 10.82 12.92 18.64 1.62 6.18 6.51 8.13 12.2 9.07 1.08.18 2 1.57 3.27 2.69-4.47 2-7.9 3.7-11.44 5.12a107.345 107.345 0 0 1-10.83 3.85c-3 .86-3.55 2.62-3.71 5.51-.31 5.54 4.16 5.76 7.56 7-1.95 5.59-1.22 6.5 5.23 6.45l9.51-6.62c2.89-1.53 4.92-2.62 7-3.69 2.08-1.07 4.08-2.09 6-3.1 5.43 6.2 12.54 7.58 20.18 5.19 4.13-1.3 8.75-1 11.92-4.77.38-.46 1.56-.32 2.37-.35 5.72-.25 12.39-6.49 12-12.16-.25-3.57 1.46-4.17 4-5 10.89-3.67 21.86-7.14 32.58-11.26 11.34-4.37 22.42-9.39 34-14.29l5.27 2.7c-3.86 12.56-7.61 24.77-11.59 37.74 18.14-3.93 35.01-8.69 50.15-18.41zm-395.68-332.6c-4.7-8.12-3.79-14.28 1.84-15.52-.58 4.87-1.13 9.53-1.84 15.52zm-112.22 344.39l-1.54-.08.57-12.07 1.72.1-.75 12.05zm23.31-221.66c-3.25-5.35 2.73-7.88 2.84-12.66 2.46 2.52 1.06 7.26-2.84 12.66zm444.6 202.29a9.302 9.302 0 0 1 .22-1.76l-.22 1.76z"/><path fill="#443725" d="M238 74.5L200 65l17.5 83.5 19-36.5 1.5-37.5zM71.508 189.785c-3.25-5.35 2.73-7.88 2.84-12.66 2.46 2.52 1.06 7.26-2.84 12.66zM48.958 399.395l-.75 12-1.54-.08.57-12.07 1.72.15z"/></g><path d="M395.234 359.965c0-.17.06-.33.08-.49-.23-.16-.31-.01-.08.49z"/><path fill="url(#paint1_linear)" d="M153.304 49.035c-.58 4.87-1.13 9.53-1.84 15.52-4.7-8.15-3.79-14.31 1.84-15.52z"/><path fill="url(#paint2_linear)" d="M547.144 397.125c-1.56-2-2.65-3.39-3.82-4.75-2.63-3.07-4.78-7.74-8.07-8.78-4.92-1.54-6.63-4.38-7.8-8.56-.64-2.29-1.23-4.65-4.64-3.69-.61.17-1.54-2.79-.92-3.38a4.704 4.704 0 0 1 1.43-.9c3.25-9.88-1.64-17.09-5.29-25.43l-18 7c.58 2.53 1 4.43 1.54 6.68-1.76.58-3.32 1.05-4.84 1.6-7.82 2.86-16.14 4.81-23.33 8.8-14.29 7.93-28.48 15.78-44.39 20.09-6.75 1.83-8.37 1.6-11.58-4.77a6.995 6.995 0 0 0-7.12-4.33c-2 0-3.94 0-5.88-.06-1.53-7.26-7.84-16.38-9.07-17.2 0 .16 0 .32-.08.49-.2-.5-.15-.65.08-.49 1.5-9.17-2.53-15.58-12-20.51.34 1.65.68 3.31 1 5-2.63-6.15-6.63-9.67-13.45-10.41-2.84-.31-4.74-2.79-3.46-6.35 1 .4 1.77 1 2.51 1 4.11-.27 6.81 1 8.37 5.26.62 1.72 3.55 2.59 5.43 3.85a18.997 18.997 0 0 0-2.41-8c-2.66-4.93-5.45-9.79-8.2-14.67a24.777 24.777 0 0 1-1.87-3.21c-2.56-6.87-4.28-14.37-13.91-14.37-.36 0-.71-.57-1.32-1.09l2.86-4.09-7.68-8-1.06.87c1.48 4.49-5.53-8-4.94-9.84a4.888 4.888 0 0 0-.33-3.63c-3.8-6-7.83-11.88-11.72-17.84-2.37-3.64-5.64-6.7-6.46-11.33a57.565 57.565 0 0 0-2.81-9.76c-3.63-9.94-7.5-19.78-11.1-29.72-1.91-5.28-3.32-10.73-5.18-16-3.3-9.43-6.6-18.86-10.29-28.13-.89-2.23-3.09-4.09-5-5.68-2.9-2.38-7.66-3.76-8.83-6.68-1.68-4.2-5.57-4.73-8.15-6.76-4.85-3.82-11.14-5.8-16.78-8.66a46.223 46.223 0 0 1-7.24-4.24c-4.25-3.26-8.29-6.8-13.18-10.85.1 3.08.28 4.89.19 6.69-.08 1.61 0 4.29-.75 4.63-5 2.14-2.1 5.48-1.5 8.32a16.005 16.005 0 0 0 2 4l-5.14 3.23c-.36-4.1-1.52-7.75-.83-11 2-9.42.54-18.41-2-27.4-.64-2.28-1.46-4.51-2.2-6.75h-1.38c-1.26 14.62-6.28 27.45-17.79 38.55l3-7.89-4.61 3.64c-.11-2.21.69-3.79 1.26-5.44 1.49-4.28 3-8.55 4.25-12.91a158.295 158.295 0 0 0 3.79-16.33 62.246 62.246 0 0 0 .77-13.49c-.46-7.93-1.32-15.84-2.33-23.72a125.727 125.727 0 0 0-2.68-12.93c-.81-3.4-1.86-6.76-2.81-10.13l2.15-1.19c2.44 2.29 5.23 4.31 7.25 6.92 5.07 6.55 6.93 14.26 7.19 22.43.23 7.22.51 14.44.76 21.67l2.07.26c1.23-5.07 2.94-10.08 3.56-15.21.75-6.21 2.82-12.72-1.52-18.6-.16-.21 0-.64 0-1-.09-4.26.18-8.56-.33-12.76-1.39-11.25-8-19.1-16.63-26-5.8-4.65-12.45-6.79-19.3-7.65-5.88-.73-12.85-4.34-17.78 2.9-3.43-2-6.06-.84-9.46.85-8.34 4.16-16.21 7.9-20.79 17.13-2.94 5.92-3.24 11.76-4.08 17.83-.41 3 1.14 5.85-2.62 8.92-2.87 2.35-.75 8.2 2.21 12.95 1.3-5.52 2.38-10.14 3.47-14.76-.49 10.8-1.83 21.41 4 31.35-3.68 2.11-4.64 4.68-2.56 9.2.73 1.56 5 3.88 1.18 7-3.17 2.6-3 4.66-.11 8.28.19-1.93.38-3.82.57-5.72h.65c1.68 8.546 3.347 17.1 5 25.66l-2.16.74-9.12-20.67c-6.05 2-12.72 4.58-19.59 6.37-12.8 3.34-24.68 8.67-36.56 14.38-5.68 2.73-10.4 4.67-10.23 11.8 0 .42-.47.86-.72 1.29-8.15 14.12-14 29-16.08 45.34-.36 2.86-.38 5.82-1.14 8.58-1.29 4.7-3.19 9.24-4.59 13.91-2.06 6.94-3.8 14-5.91 20.91a86.084 86.084 0 0 1-3.52 8.48c4.42-.45-.45 14.59-1.92 11.43-1.26 3.34-2.74 7.34-4.17 11.43-1.3 3.75-2.45 7.56-3.82 11.29-.43 1.19-1.11 2.79-2.09 3.2-6.32 2.61-7.37 7.86-7.44 13.77 0 4 .19 8-.44 11.92-1.15 7.14-2.79 14.21-4.34 21.29-1.21 5.53-2.56 11-3.91 16.54-1.28 5.22-3.11 10.35-3.83 15.64-.67 4.86 1.43 10.68-.55 14.65-3.69 7.42-2.73 14.89-3.15 22.41-.07 1.23.76 2.51 1.57 5-.17.28-1 1.9-2 3.39-2.28 3.28-2.15 5.77 2 7.21 2.31.8 4.6 1.7 6.9 2.55-.27.83-.55 1.66-.82 2.49l-9.85-1.18c.65 9 .65 9 3.86 12.79-2.42 3.88-5.39 7.07-6.51 10.82-1.72 5.78-2 12-3.2 17.94-2.71 14.06 1.1 27.75 2.23 41.58a3.584 3.584 0 0 0 2.28 2.61 3.659 3.659 0 0 0 3-1.88 27.893 27.893 0 0 0 1.38-7.2c.42-6 .61-12 .9-18l1.57-.08c2.09 4.51 3.94 9.15 6.36 13.48 1.43 2.57 1.29 8.24 5.73 6.47 4-1.59 1.23-6.06.58-9.34-1.5-7.46-3-14.92-4.19-22.43-.22-1.38 1.33-3 2.19-4.83 4.53 5.93 8.14 10.87 12 15.6 1.06 1.3 2.93 1.93 4.43 2.87.24-2 1.19-4.28.56-6a45.966 45.966 0 0 0-5.29-10.06c-3.79-5.51-5.18-11-2.58-17.52 2.12-5.35 3.22-11.1 5-16.59.38-1.17 2-1.86 2.89-2.94 1.44-1.84 3.75-3.76 3.85-5.74.34-6.61-.21-13.27-.26-19.91a35.592 35.592 0 0 1 .64-7.93 48.016 48.016 0 0 1 2.78-7.25c3.18-7.83 6.07-15.8 9.71-23.41 1.91-4 5.65-7.16 7.68-11.15 5-9.88 10.47-19.71 14.06-30.14 4.68-13.6 7.72-27.75 11.49-41.66.61-2.28 1.34-4.54 2-6.81l1.36.21c.88 11.69 2 23.36 2.53 35.06.23 5-.73 10-1.21 15-.38 4-.65 8-1.3 11.88-2.41 14.58-5.1 29.11-7.39 43.71-1.61 10.31-2.72 20.7-4.1 31-1.1 8.19-2.52 16.34-3.31 24.56-.51 5.34.31 10.81-.22 16.14-2.12 21.31-8 42.32-5.08 63.58 0 0-3.08 11.37-1.71 12.89-2 7.37 1.59 14.75-.76 22.62-2.2 7.35-.78 15.78-1 23.74l79.56.66 3.07-27.89c1.48-6.94 1.15-14.21 4.07-20.9a43.432 43.432 0 0 0 2.29-8.07l2.33-9c3.63-9.35 7-18.12 10.79-27.83a56.294 56.294 0 0 1 2.13 6.59c2.29 12.59 4.38 25.22 6.73 37.8.69 3.75 2 7.38 3 11.06l2.58 35.71 83-1.5-5.8-60.5c.35-8.51.8-17 1-25.54.31-12.52-1.32-25.13 3.86-37.29 1.72-4.06 1-9.13 1.39-13l-4.72-.33-2-2.19c-1-3.06-3-6.17-2.78-9.15.24-3.89-1.85-8.91 3.34-11.56a1.913 1.913 0 0 0 .4-1.76 10.258 10.258 0 0 1 .11-9c1.72-3.73 1-8.5 2-12.68a113.863 113.863 0 0 0 2.06-11.37c1.21-10.5 3.35-21.33-1.8-31.59a4.492 4.492 0 0 1 0-2.38c1.45-9.83 3-19.64 4.38-29.48 1.48-10.51 2.85-21 4.18-31.57.31-2.41.25-4.88.36-7.32 5.42 9.56 11.08 18.94 13.47 29.1 2.21 9.44 6.78 16.54 14.34 20.93 10.53 6.12 13.3 18.3 22.17 25.43a1.145 1.145 0 0 1 .41.88c-1 4.79 2.85 6.84 5.32 9.79 6 7.16 11.77 14.48 17.56 21.79 4.7 5.94 10.87 10.82 12.92 18.64 1.62 6.18 6.51 8.13 12.2 9.07 1.08.18 2 1.57 3.27 2.69-4.47 2-7.9 3.7-11.44 5.12a107.345 107.345 0 0 1-10.83 3.85c-3 .86-3.55 2.62-3.71 5.51-.31 5.54 4.16 5.76 7.56 7-1.95 5.59-1.22 6.5 5.23 6.45l9.51-6.62c2.89-1.53 4.92-2.62 7-3.69 2.08-1.07 4.08-2.09 6-3.1 5.43 6.2 12.54 7.58 20.18 5.19 4.13-1.3 8.75-1 11.92-4.77.38-.46 1.56-.32 2.37-.35 5.72-.25 12.39-6.49 12-12.16-.25-3.57 1.46-4.17 4-5 10.89-3.67 21.86-7.14 32.58-11.26 11.34-4.37 22.42-9.39 34-14.29l5.27 2.7c-3.86 12.56-7.61 24.77-11.59 37.74 18.14-3.93 35.01-8.69 50.15-18.41zm-395.68-332.6c-4.7-8.12-3.79-14.28 1.84-15.52-.58 4.87-1.13 9.53-1.84 15.52zm-112.22 344.39l-1.54-.08.57-12.07 1.72.1-.75 12.05zm23.31-221.66c-3.25-5.35 2.73-7.88 2.84-12.66 2.46 2.52 1.06 7.26-2.84 12.66zm444.6 202.29a9.302 9.302 0 0 1 .22-1.76l-.22 1.76z"/><path d="M62.554 187.255c-3.25-5.35 2.73-7.88 2.84-12.66 2.46 2.52 1.06 7.26-2.84 12.66z"/><path fill="url(#paint4_linear)" d="M40.004 396.865l-.75 12-1.54-.08.57-12.07 1.72.15z"/><defs><filter id="filter0_f" width="555.144" height="569.635" x="4" y="0" color-interpolation-filters="sRGB" filterUnits="userSpaceOnUse"><feFlood flood-opacity="0" result="BackgroundImageFix"/><feBlend in="SourceGraphic" in2="BackgroundImageFix" result="shape"/><feGaussianBlur result="effect1_foregroundBlur" stdDeviation="2"/></filter><linearGradient id="paint0_linear" x1="395.205" x2="395.205" y1="359.413" y2="359.965" gradientUnits="userSpaceOnUse"><stop/><stop offset="1" stop-opacity="0"/></linearGradient><linearGradient id="paint1_linear" x1="150.873" x2="150.873" y1="49.035" y2="64.555" gradientUnits="userSpaceOnUse"><stop/><stop offset="1" stop-opacity="0"/></linearGradient><linearGradient id="paint2_linear" x1="274" x2="273.572" y1="304.5" y2="565.634" gradientUnits="userSpaceOnUse"><stop/><stop offset=".675" stop-color="#242424"/></linearGradient><linearGradient id="paint3_linear" x1="64.103" x2="64.103" y1="174.595" y2="187.255" gradientUnits="userSpaceOnUse"><stop/><stop offset="1" stop-opacity="0"/></linearGradient><linearGradient id="paint4_linear" x1="38.859" x2="38.859" y1="396.715" y2="408.865" gradientUnits="userSpaceOnUse"><stop/><stop offset="1" stop-opacity="0"/></linearGradient></defs></svg>