<svg fill="#FFDC26" xmlns="http://www.w3.org/2000/svg" width="441.831" height="60.147"><path fill="none" d="M0 0h441.831v60.147H0z" pointer-events="none"/><path fill="none" d="M27.874 28.444h6.931v6.902h-6.931v-6.902z" class="st1"/><path fill-rule="evenodd" d="M34.805 31.91a3.464 3.464 0 0 1-3.466 3.466 3.464 3.464 0 0 1-3.465-3.466 3.464 3.464 0 0 1 3.465-3.466 3.464 3.464 0 0 1 3.466 3.466z" class="st5" clip-rule="evenodd"/><path fill="none" d="M44.26 28.444h6.932v6.902H44.26v-6.902z" class="st1"/><path fill-rule="evenodd" d="M51.192 31.91a3.464 3.464 0 0 1-3.466 3.466 3.464 3.464 0 0 1-3.466-3.466 3.464 3.464 0 0 1 3.466-3.466 3.464 3.464 0 0 1 3.466 3.466z" class="st5" clip-rule="evenodd"/><path fill="none" d="M57.485 28.444h6.932v6.902h-6.932v-6.902z" class="st1"/><path fill-rule="evenodd" d="M64.417 31.91c0 1.916-1.55 3.466-3.466 3.466s-3.466-1.55-3.466-3.466c0-1.915 1.55-3.466 3.466-3.466s3.466 1.55 3.466 3.466z" class="st5" clip-rule="evenodd"/><path fill="none" d="M70.71 28.444h6.931v6.902H70.71v-6.902z" class="st1"/><path fill-rule="evenodd" d="M77.672 31.91c0 1.916-1.55 3.466-3.466 3.466s-3.466-1.55-3.466-3.466c0-1.915 1.55-3.466 3.466-3.466s3.466 1.55 3.466 3.466z" class="st5" clip-rule="evenodd"/><path fill="none" d="M83.935 28.444h6.931v6.902h-6.931v-6.902z" class="st1"/><path fill-rule="evenodd" d="M90.897 31.91c0 1.916-1.55 3.466-3.466 3.466s-3.466-1.55-3.466-3.466c0-1.915 1.55-3.466 3.466-3.466s3.466 1.55 3.466 3.466z" class="st5" clip-rule="evenodd"/><path fill="none" d="M97.19 28.444h6.931v6.902H97.19v-6.902z" class="st1"/><path fill-rule="evenodd" d="M104.121 31.91c0 1.916-1.55 3.466-3.465 3.466s-3.466-1.55-3.466-3.466c0-1.915 1.55-3.466 3.466-3.466s3.465 1.55 3.465 3.466z" class="st5" clip-rule="evenodd"/><path fill="none" d="M110.415 28.444h6.931v6.902h-6.931v-6.902z" class="st1"/><path fill-rule="evenodd" d="M117.346 31.91c0 1.916-1.55 3.466-3.466 3.466s-3.465-1.55-3.465-3.466c0-1.915 1.55-3.466 3.465-3.466s3.466 1.55 3.466 3.466z" class="st5" clip-rule="evenodd"/><path fill="none" d="M123.64 28.444h6.931v6.902h-6.932v-6.902z" class="st1"/><path fill-rule="evenodd" d="M130.601 31.91c0 1.916-1.55 3.466-3.465 3.466s-3.466-1.55-3.466-3.466c0-1.915 1.55-3.466 3.466-3.466s3.465 1.55 3.465 3.466z" class="st5" clip-rule="evenodd"/><path fill="none" d="M136.895 28.444h6.931v6.902h-6.931v-6.902z" class="st1"/><path fill-rule="evenodd" d="M143.826 31.91c0 1.916-1.55 3.466-3.466 3.466s-3.465-1.55-3.465-3.466c0-1.915 1.55-3.466 3.465-3.466s3.466 1.55 3.466 3.466z" class="st5" clip-rule="evenodd"/><path fill="none" d="M150.12 28.444h6.931v6.902h-6.932v-6.902z" class="st1"/><path fill-rule="evenodd" d="M157.051 31.91c0 1.916-1.55 3.466-3.466 3.466s-3.466-1.55-3.466-3.466c0-1.915 1.55-3.466 3.466-3.466s3.466 1.55 3.466 3.466z" class="st5" clip-rule="evenodd"/><path fill="none" d="M163.344 28.444h6.932v6.902h-6.932v-6.902z" class="st1"/><path fill-rule="evenodd" d="M170.306 31.91c0 1.916-1.55 3.466-3.466 3.466s-3.465-1.55-3.465-3.466c0-1.915 1.55-3.466 3.465-3.466s3.466 1.55 3.466 3.466z" class="st5" clip-rule="evenodd"/><path fill="none" d="M176.6 28.444h6.931v6.902H176.6v-6.902z" class="st1"/><path fill-rule="evenodd" d="M183.531 31.91c0 1.916-1.55 3.466-3.466 3.466s-3.466-1.55-3.466-3.466c0-1.915 1.55-3.466 3.466-3.466s3.466 1.55 3.466 3.466z" class="st5" clip-rule="evenodd"/><path fill="none" d="M189.824 28.444h6.932v6.902h-6.932v-6.902z" class="st1"/><path fill-rule="evenodd" d="M196.756 31.91c0 1.916-1.55 3.466-3.466 3.466s-3.466-1.55-3.466-3.466c0-1.915 1.55-3.466 3.466-3.466s3.466 1.55 3.466 3.466z" class="st5" clip-rule="evenodd"/><path fill="none" d="M203.05 28.444h6.93v6.902h-6.93v-6.902z" class="st1"/><path fill-rule="evenodd" d="M210.011 31.91c0 1.916-1.55 3.466-3.466 3.466s-3.466-1.55-3.466-3.466c0-1.915 1.55-3.466 3.466-3.466s3.466 1.55 3.466 3.466z" class="st5" clip-rule="evenodd"/><path fill="none" d="M216.274 28.444h6.931v6.902h-6.931v-6.902z" class="st1"/><path fill-rule="evenodd" d="M223.236 31.91c0 1.916-1.55 3.466-3.466 3.466s-3.466-1.55-3.466-3.466c0-1.915 1.55-3.466 3.466-3.466s3.466 1.55 3.466 3.466z" class="st5" clip-rule="evenodd"/><g><path fill="none" d="M229.53 28.444h6.93v6.902h-6.93v-6.902z" class="st1"/><path fill-rule="evenodd" d="M236.46 31.91c0 1.916-1.55 3.466-3.465 3.466s-3.466-1.55-3.466-3.466c0-1.915 1.55-3.466 3.466-3.466s3.466 1.55 3.466 3.466z" class="st5" clip-rule="evenodd"/></g><g><path fill="none" d="M242.754 28.444h6.931v6.902h-6.931v-6.902z" class="st1"/><path fill-rule="evenodd" d="M249.685 31.91c0 1.916-1.55 3.466-3.465 3.466s-3.466-1.55-3.466-3.466c0-1.915 1.55-3.466 3.466-3.466s3.465 1.55 3.465 3.466z" class="st5" clip-rule="evenodd"/></g><g><path fill="none" d="M255.979 28.444h6.931v6.902h-6.931v-6.902z" class="st1"/><path fill-rule="evenodd" d="M262.94 31.91c0 1.916-1.55 3.466-3.465 3.466s-3.466-1.55-3.466-3.466c0-1.915 1.55-3.466 3.466-3.466s3.466 1.55 3.466 3.466z" class="st5" clip-rule="evenodd"/></g><g><path fill="none" d="M269.234 28.444h6.932v6.902h-6.932v-6.902z" class="st1"/><path fill-rule="evenodd" d="M276.165 31.91c0 1.916-1.55 3.466-3.465 3.466s-3.466-1.55-3.466-3.466c0-1.915 1.55-3.466 3.466-3.466s3.465 1.55 3.465 3.466z" class="st5" clip-rule="evenodd"/></g><g><path fill="none" d="M282.459 28.444h6.931v6.902h-6.931v-6.902z" class="st1"/><path fill-rule="evenodd" d="M289.39 31.91c0 1.916-1.55 3.466-3.466 3.466s-3.465-1.55-3.465-3.466c0-1.915 1.55-3.466 3.465-3.466s3.466 1.55 3.466 3.466z" class="st5" clip-rule="evenodd"/></g><g><path fill="none" d="M295.683 28.444h6.932v6.902h-6.932v-6.902z" class="st1"/><path fill-rule="evenodd" d="M302.646 31.91c0 1.916-1.551 3.466-3.466 3.466s-3.466-1.55-3.466-3.466c0-1.915 1.55-3.466 3.466-3.466s3.466 1.55 3.466 3.466z" class="st5" clip-rule="evenodd"/></g><g><path fill="none" d="M308.939 28.444h6.931v6.902h-6.931v-6.902z" class="st1"/><path fill-rule="evenodd" d="M315.87 31.91c0 1.916-1.55 3.466-3.466 3.466s-3.465-1.55-3.465-3.466c0-1.915 1.55-3.466 3.465-3.466s3.466 1.55 3.466 3.466z" class="st5" clip-rule="evenodd"/></g><g><path fill="none" d="M322.163 28.444h6.932v6.902h-6.932v-6.902z" class="st1"/><path fill-rule="evenodd" d="M329.095 31.91a3.464 3.464 0 0 1-3.466 3.466 3.464 3.464 0 0 1-3.466-3.466 3.464 3.464 0 0 1 3.466-3.466 3.464 3.464 0 0 1 3.466 3.466z" class="st5" clip-rule="evenodd"/></g><g><path fill="none" d="M335.388 28.444h6.932v6.902h-6.932v-6.902z" class="st1"/><path fill-rule="evenodd" d="M342.35 31.91a3.464 3.464 0 0 1-3.465 3.466 3.464 3.464 0 0 1-3.466-3.466 3.464 3.464 0 0 1 3.466-3.466c1.884 0 3.465 1.55 3.465 3.466z" class="st5" clip-rule="evenodd"/></g><g><path fill="none" d="M348.643 28.444h6.932v6.902h-6.932v-6.902z" class="st1"/><path fill-rule="evenodd" d="M355.575 31.91a3.464 3.464 0 0 1-3.466 3.466 3.464 3.464 0 0 1-3.466-3.466 3.464 3.464 0 0 1 3.466-3.466 3.464 3.464 0 0 1 3.466 3.466z" class="st5" clip-rule="evenodd"/></g><g><path fill="none" d="M361.868 28.444h6.932v6.902h-6.932v-6.902z" class="st1"/><path fill-rule="evenodd" d="M368.8 31.91a3.464 3.464 0 0 1-3.466 3.466 3.464 3.464 0 0 1-3.466-3.466 3.464 3.464 0 0 1 3.466-3.466 3.464 3.464 0 0 1 3.466 3.466z" class="st5" clip-rule="evenodd"/></g><g><path fill="none" d="M375.093 28.444h6.932v6.902h-6.932v-6.902z" class="st1"/><path fill-rule="evenodd" d="M382.055 31.91a3.464 3.464 0 0 1-3.466 3.466 3.464 3.464 0 0 1-3.465-3.466 3.464 3.464 0 0 1 3.465-3.466c1.885 0 3.466 1.55 3.466 3.466z" class="st5" clip-rule="evenodd"/></g><g><path fill="none" d="M388.318 28.444h6.932v6.902h-6.932v-6.902z" class="st1"/><path fill-rule="evenodd" d="M395.28 31.91a3.464 3.464 0 0 1-3.466 3.466 3.464 3.464 0 0 1-3.466-3.466 3.464 3.464 0 0 1 3.466-3.466 3.464 3.464 0 0 1 3.466 3.466z" class="st5" clip-rule="evenodd"/></g><g><path d="M400.995 19.141c1.46-.03 2.676 1.095 2.706 2.554.03 1.46-1.094 2.645-2.584 2.706-1.46.03-2.675-1.094-2.706-2.554a2.648 2.648 0 0 1 2.584-2.706zM400.995 25.89c1.46-.03 2.676 1.095 2.706 2.554.03 1.46-1.125 2.645-2.584 2.706-1.46.03-2.675-1.094-2.706-2.554-.03-1.459 1.125-2.645 2.584-2.705zM400.995 32.67c1.46-.03 2.676 1.095 2.706 2.554.03 1.46-1.125 2.645-2.584 2.706-1.46.03-2.675-1.095-2.706-2.554 0-1.46 1.125-2.675 2.584-2.706zM401.026 39.45c1.46-.03 2.675 1.094 2.706 2.554.03 1.459-1.125 2.645-2.585 2.705-1.459.03-2.675-1.094-2.705-2.553a2.629 2.629 0 0 1 2.584-2.706zM407.106 22.394c1.46-.03 2.676 1.095 2.706 2.554.03 1.46-1.125 2.645-2.584 2.706-1.46.03-2.676-1.094-2.706-2.554a2.648 2.648 0 0 1 2.584-2.706zM407.137 29.144c1.459-.03 2.675 1.094 2.705 2.553.03 1.46-1.124 2.645-2.584 2.706-1.459.03-2.675-1.094-2.706-2.554-.03-1.459 1.125-2.645 2.585-2.705zM407.137 35.923c1.459-.03 2.675 1.095 2.705 2.554.03 1.46-1.124 2.645-2.584 2.706-1.459.03-2.675-1.095-2.706-2.554a2.648 2.648 0 0 1 2.585-2.706zM413.46 25.587c1.46-.03 2.676 1.094 2.706 2.553.03 1.46-1.125 2.645-2.554 2.706-1.459.03-2.675-1.094-2.706-2.554a2.603 2.603 0 0 1 2.554-2.705zM413.49 32.336c1.46-.03 2.676 1.094 2.706 2.554.03 1.459-1.124 2.645-2.584 2.705-1.459.03-2.675-1.094-2.706-2.553a2.648 2.648 0 0 1 2.585-2.706zM419.693 28.84c1.459-.03 2.675 1.094 2.705 2.553.03 1.46-1.124 2.645-2.584 2.706-1.46.03-2.675-1.094-2.706-2.554a2.629 2.629 0 0 1 2.585-2.705z"/></g></svg>