<svg xmlns="http://www.w3.org/2000/svg" width="502" height="212" viewBox="0 0 502 212">
  <g fill="none" fill-rule="evenodd" transform="translate(0 -1)">
    <path fill="#FFF" d="M268.419615 1.05C268.419615 1.01363636 268.519615.981818182 268.619615.95 268.419615.981818182 268.319615 1.01363636 268.419615 1.05zM172.7 33.975C172.6 33.995 172.4 34.005 172.3 34.025 172.5 34.015 172.6 33.995 172.7 33.975z"/>
    <path fill="#4D4D4F" d="M38,36.1772575 L37,35.8227425"/>
    <path fill="#000" d="M499.794624,123.332109 C499.089152,123.078857 498.319547,122.825604 497.614075,122.572352 C497.165139,122.403518 496.652068,122.150265 496.203132,121.981431 C495.241125,121.559344 491.008295,120.884005 490.559358,120.124248 C490.431091,119.955413 490.366957,119.617744 490.302823,119.280074 L490.302823,118.689152 C490.302823,118.098231 490.366957,117.338474 490.559358,116.578718 C490.687626,116.072213 490.815894,115.565709 490.944161,114.974787 C491.200696,114.130613 491.457231,113.202022 491.7779,112.526683 C492.162703,111.598092 492.61164,110.838335 492.996442,110.500666 L493.060576,110.416248 C491.521365,107.714892 490.944161,104.507031 490.046288,101.383588 C489.853887,100.792666 489.661485,100.117327 489.469084,99.5264053 C489.340816,99.1043184 489.148415,98.6822314 489.020147,98.3445619 C488.699478,97.5848054 488.314676,96.8250489 487.865739,96.1497098 C487.609204,95.7276229 487.352669,95.3899533 487.096134,95.0522838 C486.839599,94.7146142 486.583063,94.461362 486.262394,94.1236925 C484.594916,92.5197621 482.542635,91.844423 480.041417,91.6755882 L479.335945,91.6755882 C477.989136,91.6755882 476.642326,91.9288404 475.552052,91.9288404 C474.590045,91.9288404 473.820439,91.7600056 473.307369,91.0846665 C473.114968,90.8314143 472.922566,90.4937448 472.794299,90.0716579 C472.666031,89.6495709 472.601897,89.1430666 472.601897,88.5521449 C472.601897,87.9612232 472.666031,87.285884 472.858432,86.7793797 C473.756305,83.571519 477.027129,81.2078321 478.951142,78.3376409 C479.143544,78.0843887 479.271811,77.8311366 479.464213,77.5778844 C479.784882,77.0713801 479.977283,76.4804584 480.169684,75.973954 C480.42622,75.1297802 480.490353,74.2011889 480.490353,73.1881802 C480.490353,70.9089107 480.105551,68.2919717 480.105551,66.4347892 C480.105551,65.2529457 480.618621,63.0580937 479.913149,61.9606676 C479.784882,61.7074154 479.59248,61.5385807 479.464213,61.3697459 C479.015276,60.9476589 478.56634,60.6944068 478.053269,60.4411546 C477.860868,60.3567372 477.668467,60.2723198 477.476065,60.1034851 C477.21953,59.9346503 476.898861,59.7658155 476.642326,59.5969807 C476.257523,59.3437286 475.936854,59.006059 475.680319,58.4995547 C475.35965,57.908633 475.103115,57.4021286 474.910714,56.8112069 C474.33351,55.2916939 474.012841,53.6877636 473.307369,52.252668 C473.179101,51.9149984 472.9867,51.6617463 472.794299,51.3240767 C472.666031,51.1552419 472.601897,50.9864071 472.47363,50.9019898 C472.409496,50.8175724 472.345362,50.733155 472.217094,50.6487376 C471.960559,50.311068 471.704024,49.9733985 471.383355,49.6357289 C470.998552,49.213642 470.61375,48.7915551 470.228947,48.4538855 C469.651743,48.0317986 468.561468,47.694129 467.791863,47.3564595 C467.663595,47.2720421 467.535328,47.2720421 467.471194,47.1876247 C467.342926,47.1032073 467.278793,47.0187899 467.214659,46.9343725 C466.509187,46.174616 466.124384,45.6681117 465.931983,45.2460248 C465.867849,45.07719 465.867849,44.9083552 465.867849,44.7395204 C465.867849,44.5706857 465.996117,44.4862683 466.060251,44.4018509 C466.124384,44.3174335 466.188518,44.3174335 466.252652,44.2330161 C466.38092,44.1485987 466.573321,43.9797639 466.701589,43.8953465 C466.89399,43.7265118 467.086391,43.557677 467.214659,43.3888422 C467.471194,43.0511727 467.791863,42.7135031 467.984264,42.2069988 C468.176666,41.7004945 468.2408,41.2784075 468.2408,40.8563206 C468.2408,38.4082163 465.611314,36.382199 465.098244,33.6808426 C465.098244,33.5120078 465.03411,33.343173 465.03411,33.1743383 L465.03411,33.0899209 L465.03411,32.5834165 C465.03411,32.4145818 465.03411,32.245747 465.098244,32.0769122 L465.098244,31.9080774 C465.162378,31.7392427 465.162378,31.5704079 465.226511,31.3171557 C465.354779,30.8950688 465.483047,30.5573992 465.675448,30.3041471 C465.739582,30.1353123 465.867849,29.9664775 465.996117,29.8820601 C466.316786,29.4599732 466.701589,29.1223036 467.150525,28.7846341 C467.278793,28.7002167 467.40706,28.5313819 467.599462,28.4469645 C467.855997,28.2781297 468.176666,28.0248776 468.497335,27.8560428 C468.689736,27.687208 468.882137,27.6027906 469.138673,27.4339559 C469.908278,26.8430341 470.61375,26.167695 471.062686,25.1546864 C471.190954,24.9014342 471.255088,24.5637647 471.319221,24.1416777 C471.383355,23.9728429 471.383355,23.7195908 471.383355,23.550756 C471.704024,21.1026518 471.190954,17.6415388 469.844144,16.1220259 C469.715877,15.9531911 469.587609,15.8687737 469.459342,15.7843563 C469.138673,15.5311041 468.689736,15.3622694 468.176666,15.277852 C467.150525,15.1090172 465.803715,15.1090172 464.456906,15.1934346 C463.815568,15.277852 463.17423,15.277852 462.597026,15.3622694 L462.532892,15.3622694 C461.763287,15.4466867 461.057815,15.5311041 460.544745,15.5311041 L458.813132,15.5311041 C457.338055,15.6155215 455.862978,15.6999389 454.323767,15.6999389 L452.528021,15.6999389 C450.924676,15.6999389 449.321332,15.5311041 447.910388,15.1090172 C447.333184,14.9401824 446.820114,14.7713476 446.178776,14.5180955 C445.858107,14.4336781 445.601572,14.2648433 445.280903,14.1804259 L444.318896,13.9271738 C443.677558,13.758339 443.03622,13.5895042 442.330748,13.5895042 C441.625277,13.5050868 440.919805,13.5895042 440.214333,13.758339 C440.021932,13.8427564 439.893664,13.8427564 439.765397,13.9271738 C437.45658,14.855765 436.558707,17.5571215 434.442292,19.0766344 C433.480285,19.7519735 432.454145,20.3428953 431.36387,20.7649822 C431.171469,20.8493996 430.979068,20.933817 430.8508,21.0182344 C429.375723,21.5247387 427.900646,21.8624082 426.361435,22.031243 C425.912498,22.031243 425.463562,22.1156604 425.014625,22.1156604 C421.679668,22.2000778 418.280577,21.4403213 415.266289,20.2584779 C414.94562,20.1740605 414.624951,20.0052257 414.368416,19.9208083 C412.829205,19.4987214 411.354128,19.414304 409.814917,19.1610518 C409.173579,19.0766344 408.532241,18.992217 407.890903,18.8233823 C407.249565,18.6545475 406.928896,18.3168779 406.544094,18.0636258 C406.47996,17.9792084 406.415826,17.9792084 406.415826,17.894791 C406.095157,17.5571215 405.710354,17.2194519 405.069017,17.0506171 C404.748348,16.9661997 404.363545,16.9661997 404.042876,16.9661997 C403.465672,16.9661997 402.888468,17.0506171 402.311264,17.0506171 L402.24713,17.0506171 C401.669926,17.1350345 401.092722,17.1350345 400.643785,17.1350345 C398.463236,17.1350345 396.731624,17.6415388 395.192413,18.4857127 C394.871744,18.6545475 394.615209,18.8233823 394.29454,19.0766344 C393.717336,19.4987214 393.204265,19.9208083 392.627061,20.4273126 C390.510646,22.3689126 388.7149,24.9014342 386.277816,27.0962863 C385.572344,27.7716254 384.866873,28.2781297 384.161401,28.7846341 C383.455929,29.2911384 382.750458,29.628808 382.044986,29.9664775 C381.660183,30.1353123 381.339514,30.2197297 380.954712,30.3885644 C377.04255,31.7392427 373.002122,31.2327383 368.192087,31.4859905 C367.614883,31.4859905 367.165947,31.5704079 366.781144,31.6548253 C366.71701,31.6548253 366.588743,31.6548253 366.524609,31.7392427 C366.20394,31.82366 366.011539,31.9080774 365.755003,32.0769122 C365.69087,32.1613296 365.562602,32.1613296 365.498468,32.245747 C365.370201,32.3301644 365.241933,32.4145818 365.049532,32.4989991 C364.792997,32.6678339 364.472328,32.9210861 364.087525,33.1743383 C363.895123,33.5964252 363.638588,34.0185121 363.446187,34.4405991 C362.99725,34.6094339 362.612448,34.6938512 362.163511,34.7782686 C361.714575,34.862686 361.329772,34.9471034 360.880835,35.0315208 C360.496033,35.284773 360.11123,35.6224425 359.726427,35.7912773 C359.341624,35.9601121 358.956822,36.2977816 358.636153,36.4666164 C356.455604,37.7328772 354.53159,38.4926337 352.094506,39.421225 C348.631281,40.7719032 343.436445,41.9537466 339.203614,41.2784075 C338.882945,41.1939901 338.498143,41.1095727 338.177474,41.1095727 C337.151333,40.8563206 336.25346,40.518651 335.419721,39.9277293 C334.842517,39.5900598 334.137045,39.0835554 333.36744,38.4926337 C333.175038,38.4082163 333.046771,38.2393815 332.854369,38.1549642 C332.148897,37.7328772 331.443426,37.2263729 330.609687,36.7198686 C330.032482,36.382199 329.391145,35.9601121 328.81394,35.6224425 C328.429138,35.3691903 327.980201,35.2003556 327.531265,34.9471034 C326.248589,34.3561817 324.965913,33.76526 323.811505,33.4275904 C322.592963,33.0899209 321.438555,33.0055035 320.476548,33.2587556 C320.284146,33.2587556 320.155879,33.343173 320.027611,33.4275904 C319.386273,33.6808426 318.873203,34.0185121 318.424266,34.6094339 C318.295999,35.3691903 318.167731,36.1289468 318.039464,36.8042859 L317.847062,37.5640424 L317.590527,37.901712 C317.205724,38.4082163 316.62852,38.9147206 316.11545,39.3368076 L315.538246,39.8433119 C315.345845,40.0965641 315.153443,40.2653989 314.961042,40.4342336 C314.447972,40.940738 313.999035,41.3628249 313.485965,41.7004945 C312.844627,42.2069988 312.139155,42.5446683 311.113014,42.9667553 C310.599944,43.2200074 310.151008,43.3888422 309.637937,43.557677 C308.226994,43.9797639 306.880184,44.1485987 305.148572,44.5706857 C303.994164,44.8239378 303.096291,45.4148595 302.07015,45.6681117 C301.300545,45.9213639 300.402672,45.9213639 299.18413,45.5836943 L299.18413,45.07719 C299.18413,43.8109292 298.735193,43.1355901 298.029721,42.7979205 C297.965588,42.7979205 297.83732,42.7135031 297.773186,42.7135031 C297.580785,42.6290857 297.388383,42.6290857 297.131848,42.6290857 L296.811179,42.6290857 C295.913306,42.6290857 294.823032,42.8823379 293.796891,43.2200074 L292.25768,43.7265118 C292.001145,43.8109292 291.74461,43.8953465 291.552209,43.9797639 C291.423941,43.9797639 291.295673,44.0641813 291.23154,44.0641813 C290.782603,44.2330161 290.3978,44.3174335 290.077131,44.3174335 C288.345519,44.4862683 286.998709,44.9083552 285.844301,45.1616074 C285.587766,45.2460248 285.395365,45.2460248 285.13883,45.3304421 C284.497492,45.4992769 283.856154,45.4992769 283.214816,45.4992769 C283.022414,45.4992769 282.830013,45.4992769 282.573478,45.4148595 C281.354936,45.1616074 280.008126,44.4018509 278.21238,42.7135031 L275.903564,40.4342336 C275.518761,40.0965641 275.133958,39.6744771 274.685022,39.3368076 C274.300219,38.999138 273.851283,38.6614685 273.46648,38.3237989 C272.183804,37.3952077 271.157663,37.1419555 270.003255,36.8887033 C269.361917,36.7198686 268.656446,36.6354512 267.822706,36.382199 C266.411763,35.9601121 264.872552,35.284773 263.461609,34.7782686 C263.397475,34.7782686 263.269207,34.6938512 263.14094,34.6094339 C263.076806,34.6094339 263.012672,34.5250165 262.884404,34.5250165 L262.3072,34.2717643 C262.178933,34.1873469 262.114799,34.1873469 261.986531,34.1029295 C261.79413,34.0185121 261.601729,33.9340947 261.345194,33.8496774 C261.216926,33.76526 261.024525,33.6808426 260.896257,33.6808426 C260.767989,33.5964252 260.639722,33.5964252 260.575588,33.5120078 C260.319053,33.4275904 260.126652,33.343173 259.93425,33.2587556 C259.805983,33.2587556 259.741849,33.1743383 259.677715,33.1743383 C259.42118,33.0899209 259.228778,33.0055035 259.100511,33.0055035 C258.972243,33.0055035 258.779842,33.0055035 258.651574,33.0899209 C258.010236,33.2587556 257.240631,33.76526 256.471026,34.1873469 C255.893821,34.5250165 255.316617,34.7782686 254.739413,34.862686 C254.162209,34.9471034 253.392604,35.0315208 252.558864,35.0315208 C251.212055,35.1159382 249.736978,35.0315208 248.774971,34.5250165 C248.2619,34.2717643 247.812964,33.9340947 247.492295,33.5120078 C247.299894,33.343173 247.171626,33.0899209 247.043358,32.8366687 C246.850957,32.4989991 246.658556,32.1613296 246.466154,31.7392427 C246.017218,30.8950688 245.568281,30.0508949 244.798676,29.4599732 C243.451866,28.4469645 242.16919,28.8690515 240.822381,28.2781297 L240.245177,28.0248776 C239.28317,27.4339559 238.641832,25.9144429 237.808093,25.070269 C237.679825,24.9014342 237.551558,24.8170168 237.42329,24.7325994 C237.230889,24.5637647 237.038487,24.4793473 236.846086,24.3949299 C236.461283,24.1416777 236.140614,24.0572603 235.819945,23.8884256 C235.114473,23.6351734 234.473136,23.550756 233.639396,23.3819212 C233.446995,23.2975038 233.19046,23.2975038 232.998058,23.2130865 C231.458847,22.7909995 230.047904,22.031243 228.701095,21.3559039 C226.905348,20.51173 225.045468,19.9208083 222.608384,20.5961474 C222.480117,22.5377473 221.51811,24.0572603 221.261575,25.4923559 C220.876772,27.5183732 221.51811,29.9664775 219.594096,31.2327383 C219.14516,31.4859905 218.567956,31.7392427 217.926618,31.82366 C215.874337,32.1613296 212.795915,31.9924948 210.422964,31.7392427 C209.33269,31.6548253 208.434817,31.5704079 207.729345,31.4859905 C206.95974,31.4859905 206.190134,31.3171557 205.420529,31.0639036 C203.688916,30.5573992 202.021438,29.7132253 200.353959,28.8690515 C198.943016,28.109295 197.467939,27.4339559 195.928728,27.0118689 C195.672193,26.9274515 195.415658,26.9274515 195.159122,26.8430341 C194.902587,26.8430341 194.646052,26.7586168 194.389517,26.7586168 L192.91444,26.7586168 C192.401369,26.7586168 191.952433,26.8430341 191.439363,26.8430341 C190.926292,26.8430341 190.477356,26.8430341 189.964285,26.7586168 C189.643617,26.6741994 189.322948,26.589782 189.066412,26.589782 C187.591335,26.167695 186.180392,25.6611907 184.705315,25.2391038 C184.128111,25.070269 183.486773,24.9858516 182.845435,24.9014342 C182.781301,24.1416777 182.717167,23.4663386 182.653033,22.7065821 C182.5889,22.031243 182.524766,21.2714865 182.460632,20.51173 C181.24209,20.1740605 180.023548,19.9208083 178.740872,19.7519735 C177.52233,19.5831388 176.239654,19.414304 175.021112,19.2454692 C174.700443,19.1610518 174.379775,19.1610518 174.123239,19.0766344 C172.006824,18.7389649 169.890409,18.1480432 167.966396,17.1350345 C167.838128,17.0506171 167.645727,16.9661997 167.517459,16.8817823 C167.068522,16.6285302 166.555452,16.375278 166.106516,16.1220259 C165.721713,15.8687737 165.33691,15.6999389 164.952107,15.5311041 C163.990101,15.0245998 163.092228,14.5180955 162.258488,13.9271738 C161.809552,13.6739216 161.424749,13.336252 160.975812,12.9985825 C159.75727,11.9855738 158.666996,10.8037304 157.640855,9.19980003 C157.191919,8.44004353 156.807116,7.59586965 156.294046,6.66727838 C155.652708,5.48543495 155.01137,4.30359151 153.985229,3.54383502 L153.215624,3.03733069 C151.612279,2.2775742 150.26547,3.29058286 148.662125,2.86849592 C147.57185,2.61524375 146.866379,0.842478601 145.776104,1.01131338 C145.583703,1.01131338 145.455435,1.09573077 145.327168,1.18014815 C144.493428,1.60223509 144.236893,2.61524375 144.108626,3.79708719 C144.108626,4.21917413 144.044492,4.64126107 144.044492,5.06334801 C144.044492,5.90752189 144.108626,6.83611316 144.108626,7.59586965 C144.108626,8.01795659 144.108626,8.35562614 144.044492,8.6932957 C144.044492,8.86213047 143.980358,9.03096525 143.980358,9.11538264 C143.595555,10.6348956 143.146619,12.238826 142.697682,13.758339 C142.248746,15.277852 141.799809,16.8817823 141.543274,18.4012953 L141.863943,18.4012953 C142.248746,18.4857127 142.697682,18.5701301 143.146619,18.7389649 L143.916224,18.992217 C144.236893,19.0766344 144.493428,19.2454692 144.814097,19.414304 C145.391302,19.6675562 145.968506,20.0052257 146.481576,20.3428953 L146.866379,20.5961474 C147.187048,20.8493996 147.507717,21.1026518 147.700118,21.3559039 C148.149054,21.8624082 148.597991,22.8754169 148.982794,24.1416777 L149.367596,25.4079385 C149.559998,25.9988603 149.688265,26.589782 149.816533,27.0962863 L150.008934,28.109295 C150.073068,28.3625471 150.137202,28.6157993 150.137202,28.8690515 C150.137202,28.9534688 150.137202,29.0378862 150.201336,29.1223036 C150.26547,29.3755558 150.26547,29.628808 150.26547,29.8820601 C150.393737,32.4989991 148.40559,33.76526 145.776104,34.3561817 C145.583703,34.4405991 145.391302,34.4405991 145.134766,34.4405991 C144.68583,34.5250165 144.236893,34.6094339 143.852091,34.6094339 C142.954218,34.6938512 141.992211,34.7782686 141.094338,34.7782686 L139.042056,34.7782686 C138.59312,34.7782686 138.144183,34.7782686 137.759381,34.6938512 C136.284303,34.6094339 134.937494,34.5250165 134.039621,34.5250165 C133.462417,34.5250165 132.949346,34.5250165 132.436276,34.6094339 C132.243875,34.6094339 132.115607,34.6938512 131.987339,34.6938512 C131.666671,34.7782686 131.410135,34.862686 131.089466,34.862686 C130.12746,35.1159382 129.229586,35.5380251 128.139312,35.7912773 C127.690376,35.8756947 127.177305,36.0445295 126.664235,36.1289468 C126.279432,36.2133642 125.317425,36.2977816 124.355418,36.2977816 L122.68794,36.2977816 C122.431405,36.2977816 122.239003,36.2133642 122.110736,36.2133642 C121.854201,36.1289468 121.661799,35.9601121 121.533532,35.8756947 C121.212863,35.6224425 121.020461,35.3691903 120.892194,35.0315208 C120.82806,34.9471034 120.82806,34.862686 120.82806,34.7782686 C120.699792,34.3561817 120.635659,33.9340947 120.443257,33.5120078 C120.379123,33.4275904 120.379123,33.343173 120.31499,33.2587556 C120.186722,33.0055035 119.994321,32.7522513 119.737786,32.4145818 C119.096448,31.7392427 118.326842,31.4015731 117.364835,31.2327383 L117.172434,31.2327383 C116.851765,31.1483209 116.466962,31.1483209 116.08216,31.0639036 L115.440822,31.0639036 C113.773343,31.0639036 112.041731,31.3171557 110.759055,31.3171557 C109.861182,31.3171557 109.15571,31.3171557 108.514372,31.2327383 C107.680633,31.1483209 107.103429,30.9794862 106.590359,30.6418166 C105.949021,30.3041471 105.500084,29.7132253 104.92288,28.9534688 L104.858746,28.8690515 C104.40981,28.2781297 103.960873,27.4339559 103.383669,26.5053646 C102.934733,25.7456081 102.293395,24.9014342 101.587923,24.1416777 C101.395522,23.9728429 101.267254,23.7195908 101.074853,23.550756 C100.305247,22.7065821 99.4073742,21.8624082 98.573635,21.2714865 C98.4453674,21.1870691 98.3812336,21.1026518 98.252966,21.1026518 C97.8681633,20.8493996 97.4833605,20.5961474 97.0985578,20.51173 C96.0082834,20.0896431 94.9180089,20.0896431 93.7636007,20.1740605 C93.378798,20.1740605 92.9939952,20.2584779 92.6091925,20.2584779 C91.0699815,20.4273126 89.5949044,20.6805648 88.1198272,20.3428953 C86.8371514,20.0052257 85.0414053,18.992217 83.7587295,17.8103736 C83.309793,17.4727041 82.9249902,17.0506171 82.6684551,16.7129476 C82.2836523,16.2064432 82.0271172,15.6999389 81.8347158,15.1090172 C81.6423144,14.6869303 81.5781807,14.1804259 81.4499131,13.6739216 C80.9368428,11.4790695 80.55204,9.28421741 77.9225546,8.94654786 L76.9605478,8.94654786 C76.5116113,9.03096525 75.9985409,9.11538264 75.5496044,9.3686348 C75.2289355,9.53746958 74.9082665,9.62188697 74.6517314,9.79072174 C74.3310624,9.95955652 74.0745272,10.1283913 73.7538583,10.2972261 C72.6635839,10.8881478 71.6374432,11.5634869 70.5471688,11.9011564 C68.6872889,12.4076608 66.9556766,12.4076608 65.288198,12.5764956 C65.0957967,12.5764956 64.9033953,12.5764956 64.7109939,12.6609129 C64.5185926,12.6609129 64.3261912,12.7453303 64.069656,12.7453303 C63.7489871,12.8297477 63.4283181,12.8297477 63.1076492,12.9141651 C63.0435154,12.9141651 62.9793816,12.9141651 62.9152478,12.9985825 L61.3760369,13.5050868 C59.516157,14.3492607 52.3973063,18.0636258 46.1763287,20.7649822 C45.8556597,20.933817 45.5349908,21.0182344 45.2143218,21.1870691 C43.931646,21.6935735 42.713104,22.2000778 41.6228296,22.6221647 C40.27602,23.1286691 39.057478,23.4663386 38.0954712,23.550756 L37.0051967,23.550756 C36.8769291,23.550756 36.7486616,23.550756 36.6845278,23.4663386 C36.620394,23.0442517 36.3638588,22.5377473 36.0431899,22.1156604 C35.1453168,21.0182344 33.4778383,20.0052257 31.9386273,19.414304 C31.5538246,19.2454692 31.1690219,19.0766344 30.7842191,18.992217 C30.5918177,18.9077997 30.3994164,18.9077997 30.2711488,18.8233823 C29.9504798,18.7389649 29.6298109,18.6545475 29.3732757,18.5701301 C29.3091419,18.5701301 29.1808744,18.5701301 29.0526068,18.4857127 C28.9243392,18.4857127 28.7960716,18.4857127 28.6678041,18.4012953 L28.6036703,18.4012953 C28.4754027,18.4012953 28.2830013,18.4012953 28.1547337,18.3168779 L28.0905999,18.3168779 C25.7176497,18.0636258 21.2924182,17.894791 19.6890735,18.4857127 C19.4966721,18.5701301 19.3042707,18.6545475 19.2401369,18.7389649 C18.8553342,19.1610518 18.7270666,19.8363909 18.6629328,20.6805648 C18.598799,21.5247387 18.7270666,22.5377473 18.919468,23.550756 C18.9836018,23.8040082 19.0477356,24.0572603 19.0477356,24.3105125 C19.3684045,25.7456081 19.8173411,27.1807037 20.2021438,27.9404602 C20.2662776,28.0248776 20.3304114,28.1937124 20.3945452,28.2781297 C21.1000169,29.2911384 22.0620237,30.0508949 23.1522981,30.5573992 C23.8577698,30.8950688 24.5632415,31.0639036 25.332847,31.2327383 C25.3969808,31.2327383 25.4611146,31.2327383 25.5893821,31.3171557 C25.8459173,31.4015731 26.1665862,31.4015731 26.4872552,31.4859905 L26.551389,31.4859905 C26.9361917,31.5704079 27.3209945,31.5704079 27.7057972,31.6548253 C27.7057972,31.82366 27.769931,31.9080774 27.769931,32.0769122 L27.769931,33.0055035 C27.769931,33.0899209 27.769931,33.0899209 27.7057972,33.1743383 C27.7057972,33.2587556 27.6416634,33.2587556 27.6416634,33.343173 C27.6416634,33.4275904 27.5775296,33.4275904 27.5775296,33.5120078 C27.5775296,33.5964252 27.5133958,33.5964252 27.5133958,33.6808426 C27.5133958,33.76526 27.449262,33.76526 27.449262,33.8496774 C27.449262,33.9340947 27.3851283,33.9340947 27.3851283,34.0185121 C27.3851283,34.1029295 27.3209945,34.1029295 27.3209945,34.1873469 L27.1927269,34.3561817 L27.1285931,34.4405991 L27.0003255,34.6094339 L26.9361917,34.6938512 C26.8720579,34.7782686 26.8079241,34.7782686 26.8079241,34.862686 L26.7437904,34.9471034 C26.6796566,35.0315208 26.6155228,35.0315208 26.551389,35.1159382 L26.4872552,35.2003556 C26.4231214,35.284773 26.3589876,35.3691903 26.2948538,35.3691903 L26.23072,35.4536077 C26.1665862,35.5380251 26.1024525,35.6224425 25.9741849,35.6224425 C25.9741849,35.6224425 25.9100511,35.6224425 25.9100511,35.7068599 C25.8459173,35.7912773 25.7176497,35.8756947 25.6535159,35.8756947 L25.5893821,35.8756947 C25.5252483,35.9601121 25.3969808,36.0445295 25.332847,36.0445295 C25.2045794,36.1289468 25.1404456,36.2133642 25.012178,36.2977816 L23.6653684,37.0575381 C23.5371009,37.1419555 23.4088333,37.2263729 23.2805657,37.2263729 C22.7674954,37.479625 22.2544251,37.7328772 21.8054885,37.9861294 C21.2282844,38.3237989 20.6510803,38.6614685 20.2021438,38.9147206 C19.9456086,39.0835554 19.6890735,39.2523902 19.4966721,39.5056424 C18.7912004,40.0965641 18.3422639,40.6874858 18.0857287,41.2784075 C17.9574612,41.5316597 17.8291936,41.8693292 17.8291936,42.1225814 C17.700926,42.7135031 17.7650598,43.2200074 17.8933274,43.8109292 C18.0857287,44.655103 18.5346653,45.5836943 19.0477356,46.596703 C18.5346653,47.0187899 17.8933274,47.3564595 17.2519895,47.6097116 C15.6486447,48.2850507 13.9170324,48.6227203 12.5702228,49.4668942 C12.3136876,49.6357289 12.0571525,49.8889811 11.8006173,50.0578159 C11.4158146,50.4799028 11.0951456,50.8175724 10.9027443,51.1552419 C10.7744767,51.4084941 10.6462091,51.5773289 10.5820753,51.830581 C10.5179415,51.9994158 10.5179415,52.0838332 10.5179415,52.252668 L10.5179415,52.4215027 C10.5820753,53.1812592 11.4158146,53.6877636 12.4419552,54.1942679 C12.6984904,54.2786853 12.9550255,54.4475201 13.2115607,54.5319375 C13.2756945,54.5319375 13.4039621,54.6163548 13.4680959,54.6163548 C13.724631,54.7007722 13.9811662,54.869607 14.2377013,54.9540244 C14.4301027,55.0384418 14.6225041,55.1228592 14.7507717,55.2072766 C15.9051799,55.7981983 16.9313205,56.38912 17.6367922,57.0644591 C17.7650598,57.1488765 17.8291936,57.2332939 17.9574612,57.4021286 L18.2139963,57.7397982 C18.5346653,58.1618851 18.7912004,58.6683895 18.8553342,59.3437286 C18.8553342,59.5125634 18.919468,59.6813981 18.919468,59.8502329 C18.919468,60.1879025 18.919468,60.525572 18.8553342,60.9476589 C18.7270666,62.2139198 17.8291936,63.3113458 16.9954543,64.4931893 L16.2258488,65.5061979 C15.4562433,66.5192066 14.8149054,67.5322152 14.6866379,68.7140587 C14.6866379,68.8828934 14.6225041,69.1361456 14.6225041,69.3049804 C14.6225041,69.7270673 14.6866379,70.1491543 14.7507717,70.4868238 C14.8790392,71.0777455 15.1355744,71.5842499 15.3921096,72.1751716 C15.7769123,72.8505107 16.2258488,73.5258498 16.7389191,74.2011889 C16.9954543,74.5388584 17.2519895,74.876528 17.4443908,75.2141975 C17.5726584,75.3830323 17.700926,75.5518671 17.7650598,75.7207019 C18.2139963,76.396041 18.598799,76.9869627 18.7912004,77.6623018 C20.5869465,82.8961799 18.0215949,83.3182668 14.6225041,85.2598667 C13.6604972,85.7663711 12.9550255,86.3572928 12.4419552,86.8637971 C12.2495539,87.1170493 12.0571525,87.285884 11.8647511,87.5391362 C11.7364835,87.7923884 11.5440822,88.0456405 11.4158146,88.2988927 C11.1592794,88.805397 10.9668781,89.3963187 10.7103429,89.9872405 C10.5179415,90.4937448 10.389674,91.0002491 10.1972726,91.5911708 C10.0048712,92.1820926 9.94073742,92.6041795 9.87660363,92.941849 L9.87660363,93.6171882 C9.87660363,93.9548577 9.74833605,94.2925273 8.78632921,95.2211185 C8.59392784,95.3899533 8.40152647,95.5587881 8.14499131,95.7276229 C7.76018857,95.980875 7.31125204,96.2341272 6.9264493,96.402962 C6.73404793,96.4873794 6.54164656,96.5717967 6.34924519,96.7406315 C5.6437735,97.1627185 5.0665694,97.8380576 4.81003424,99.2731532 C5.19483698,99.3575705 5.51550592,99.3575705 5.90030866,99.4419879 C6.15684382,99.4419879 6.34924519,99.5264053 6.60578035,99.5264053 C7.05471688,99.6108227 7.50365341,99.6952401 7.95258994,99.8640749 C8.14499131,99.9484923 8.40152647,100.03291 8.59392784,100.117327 C8.78632921,100.201744 8.97873058,100.370579 9.17113194,100.539414 C9.36353331,100.708249 9.55593468,100.877084 9.68420226,101.130336 L9.94073742,101.468005 C10.7103429,102.818683 10.1972726,104.591449 10.0048712,106.195379 C9.94073742,106.533049 9.94073742,106.870718 9.94073742,107.12397 C9.94073742,107.714892 10.069005,108.305814 10.4538077,108.812318 C11.0951456,109.740909 12.3136876,109.825327 13.4039621,109.994161 C13.8528986,110.078579 14.2377013,110.162996 14.6225041,110.331831 C14.7507717,110.416248 14.8790392,110.500666 15.0073068,110.500666 C15.5203771,110.838335 15.9051799,111.34484 16.161715,112.104596 C16.4182502,112.779935 16.482384,113.455274 16.482384,114.046196 C16.482384,114.215031 16.482384,114.468283 16.4182502,114.637118 C16.4182502,114.805953 16.3541164,114.974787 16.2899826,115.143622 L15.9051799,116.156631 C15.7127785,116.578718 15.4562433,116.916387 15.1355744,117.338474 L14.8149054,117.760561 C14.1735676,118.520318 13.4039621,119.280074 12.7626242,120.039831 C11.287547,121.812596 10.7103429,123.754196 10.5179415,125.695796 C10.069005,129.410161 10.8386105,133.293361 8.78632921,136.416804 C8.40152647,137.007726 7.76018857,137.767482 6.99058309,138.442821 C6.79818172,138.696073 6.54164656,138.864908 6.34924519,139.11816 C5.6437735,139.793499 4.93830182,140.468839 4.16869634,141.144178 C3.65562602,141.650682 3.20668949,142.072769 2.75775296,142.579273 C2.62948538,142.663691 2.56535159,142.832525 2.43708401,142.916943 C2.24468264,143.170195 1.98814748,143.423447 1.79574612,143.592282 C1.41094338,144.014369 1.02614064,144.520873 0.769605478,144.94296 C0.320668949,145.618299 0.0641337898,146.209221 0,146.800143 C1.21854201,147.22223 2.43708401,147.137812 3.65562602,146.968977 C4.87416803,146.88456 6.09271003,146.715725 7.31125204,147.053395 C8.27325889,147.306647 8.65806163,147.897569 9.29939952,148.404073 C9.49180089,148.572908 9.74833605,148.657325 10.069005,148.82616 C10.5820753,148.994995 10.9668781,148.994995 11.3516808,149.079412 L12.0571525,149.079412 C12.2495539,149.079412 12.506089,149.079412 12.6984904,149.16383 C12.826758,149.16383 13.0191593,149.248247 13.1474269,149.332664 C13.4680959,149.501499 13.7887648,149.839169 14.2377013,150.261256 C14.943173,151.105429 15.3921096,152.034021 15.6486447,153.047029 C15.7769123,153.637951 15.9051799,154.31329 15.9051799,154.904212 C15.9051799,155.157464 15.9051799,155.326299 15.9693137,155.579551 L15.9693137,156.845812 C15.9693137,157.943238 15.9051799,158.956247 15.9693137,159.969255 C16.0334475,161.151099 16.2258488,162.332942 16.482384,163.514786 C16.8030529,165.034299 17.2519895,166.553811 17.5085246,168.073324 C17.5726584,168.495411 17.6367922,168.833081 17.6367922,169.255168 C20.458679,169.592837 22.895763,170.605846 24.6273753,172.125359 C26.9361917,174.235794 28.0264662,177.190402 27.0003255,180.651515 C26.8720579,181.073602 26.6796566,181.580107 26.4872552,182.086611 C26.1024525,183.015202 25.5252483,184.028211 24.8197767,185.041219 C24.6915091,185.210054 24.5632415,185.463306 24.3067063,185.716559 C24.1784388,185.885393 24.0501712,185.969811 23.9219036,186.138646 C23.4088333,186.813985 22.7033616,187.573741 21.9337561,188.58675 L21.356552,189.346506 C21.2282844,189.430924 21.1641506,189.599758 21.0358831,189.768593 C20.8434817,190.021845 20.6510803,190.275098 20.3945452,190.52835 L19.7532073,191.372524 L19.1118694,192.216697 C18.4705315,193.060871 17.8291936,193.989463 17.2519895,194.918054 C17.0595881,195.255723 16.8671867,195.508976 16.6747854,195.846645 C16.6106516,196.01548 16.482384,196.184315 16.4182502,196.268732 C16.2258488,196.606402 16.0334475,196.859654 15.9051799,197.197323 C15.8410461,197.366158 15.7127785,197.534993 15.6486447,197.61941 C15.263842,198.379167 14.8790392,199.054506 14.6225041,199.814262 C14.4301027,200.236349 14.3018351,200.658436 14.1735676,201.080523 L13.9811662,201.84028 C13.9811662,201.924697 13.9170324,202.093532 13.9170324,202.177949 C13.8528986,202.515619 13.8528986,202.853288 13.8528986,203.190958 C13.8528986,203.866297 14.0453,204.457219 14.3659689,204.879306 C14.8790392,205.554645 15.8410461,206.061149 17.2519895,206.229984 C18.9836018,206.398819 20.5228127,205.639062 21.9337561,204.626054 C22.3185589,204.372801 22.6392278,204.119549 22.9598968,203.78188 C23.1522981,203.613045 23.2805657,203.528627 23.4729671,203.359793 C24.3067063,202.684454 25.2045794,201.924697 26.0383187,201.418193 C28.4754027,199.89868 30.6559515,200.236349 33.0289018,200.236349 L34.3115776,200.236349 C34.5039789,200.236349 34.7605141,200.236349 35.0170492,200.151932 C35.4659858,200.067515 35.9149223,199.983097 36.4279926,199.89868 C36.5562602,199.89868 36.6845278,199.814262 36.7486616,199.814262 C36.8769291,199.814262 36.9410629,199.729845 37.0693305,199.729845 C37.6465346,199.476593 38.0313374,199.138923 38.4161401,198.801254 C38.6726753,198.632419 38.9933442,198.379167 39.3140132,198.294749 C39.6988159,198.210332 40.0836186,198.125915 40.6608227,198.125915 C42.3283013,198.210332 43.4827095,199.307758 44.9577867,199.729845 C45.470857,199.89868 45.9839273,199.983097 46.5611314,199.89868 C50.7298278,199.645428 52.9745104,195.931063 54.9626579,192.385532 C55.4757282,192.976454 55.9246647,193.482958 56.3094675,193.905045 C56.8866716,194.664802 57.2714743,195.340141 57.7204108,196.01548 C58.4258825,197.028489 59.2596218,197.872662 61.1836355,198.716836 C61.8249734,198.970089 62.4021775,199.138923 63.0435154,199.307758 C63.3000506,199.392175 63.5565857,199.392175 63.7489871,199.476593 C63.9413885,199.476593 64.1979236,199.56101 64.390325,199.56101 C64.8392615,199.56101 65.2240643,199.645428 65.608867,199.645428 L66.2502049,199.645428 C67.0839442,199.645428 67.9176834,199.645428 68.7514227,199.729845 C69.585162,199.814262 70.4189012,199.89868 71.3167743,200.236349 C71.5091757,201.080523 71.6374432,202.009115 71.8298446,202.853288 L72.9842528,203.106541 C73.3690556,203.190958 73.7538583,203.190958 74.0745272,203.106541 C74.2669286,203.106541 74.45933,203.106541 74.5875976,203.022123 C74.9082665,202.937706 75.2930693,202.853288 75.6137382,202.768871 C76.1268085,202.600036 76.575745,202.431201 77.0246816,202.177949 C77.7942871,201.755862 78.4997587,201.333775 79.2052304,200.827271 C81.5781807,199.223341 83.7587295,197.61941 86.7088838,199.392175 C86.965419,199.56101 87.2860879,199.729845 87.5426231,199.89868 C89.2742354,201.080523 90.6851788,202.177949 93.1863966,201.587028 C93.378798,201.587028 93.5711994,201.50261 93.7636007,201.418193 C95.1745441,200.996106 95.3028117,199.983097 96.5854875,199.307758 C97.1626916,198.970089 97.6116281,198.801254 98.1246984,198.632419 C98.573635,198.463584 99.0867053,198.379167 99.5356418,198.294749 C100.241113,198.210332 100.946585,198.210332 101.716191,198.210332 L102.54993,198.210332 C103.319535,198.210332 104.025007,198.210332 104.602211,198.379167 C105.820753,198.632419 106.718626,199.138923 107.616499,199.729845 C108.001302,199.983097 108.386105,200.151932 108.770908,200.405184 C109.540513,200.827271 110.310118,201.249358 111.400393,201.50261 C113.196139,201.924697 116.018026,201.080523 117.749638,199.89868 C118.006173,199.729845 118.198575,199.56101 118.45511,199.392175 C119.160581,198.801254 119.930187,198.125915 120.82806,197.450576 C122.495539,196.099897 124.419552,194.749219 126.4077,193.905045 C126.728369,193.73621 127.049038,193.651793 127.43384,193.482958 C128.139312,193.229706 128.78065,193.060871 129.486122,192.976454 C130.191593,192.892037 130.832931,192.892037 131.538403,192.976454 C132.243875,193.060871 132.885213,193.229706 133.590684,193.567376 C134.103755,193.820628 134.488557,194.07388 134.87336,194.495967 C135.707099,195.424558 136.284303,196.690819 136.797374,197.872662 C137.182176,198.801254 137.566979,199.645428 138.015916,200.405184 C138.080049,200.574019 138.208317,200.658436 138.336585,200.827271 L138.657254,201.249358 C139.042056,201.84028 139.490993,202.431201 139.939929,203.106541 C140.132331,203.44421 140.388866,203.78188 140.645401,204.119549 C140.901936,204.457219 141.094338,204.794888 141.350873,205.04814 C141.47914,205.216975 141.607408,205.38581 141.735676,205.470227 C141.992211,205.807897 142.184612,206.061149 142.441147,206.314401 C142.954218,206.820906 143.403154,207.32741 143.916224,207.66508 C144.044492,207.749497 144.301027,207.918332 144.557562,208.002749 C145.070633,208.256001 145.71197,208.593671 146.417442,209.015758 C146.930512,209.26901 147.507717,209.522262 148.084921,209.775514 C148.40559,209.944349 148.726259,210.028766 149.046928,210.197601 C149.239329,210.282019 149.495864,210.366436 149.688265,210.450853 C150.329603,210.704105 150.906807,210.87294 151.29161,210.957358 C153.728694,211.295027 154.434166,209.944349 154.947236,208.424836 C155.075504,208.002749 155.139638,207.66508 155.267905,207.242993 C155.267905,207.158575 155.332039,207.074158 155.332039,206.905323 C155.396173,206.736488 155.460307,206.483236 155.52444,206.314401 C155.588574,206.145567 155.652708,205.976732 155.780975,205.72348 C155.909243,205.470227 155.973377,205.38581 156.037511,205.216975 L156.229912,204.963723 C156.486447,204.710471 156.742982,204.457219 157.127785,204.288384 C158.282193,203.78188 159.693137,203.866297 161.039946,204.288384 C162.258488,204.626054 163.348763,205.216975 164.246636,205.807897 L164.631438,206.061149 C164.695572,206.145567 164.82384,206.229984 164.887974,206.229984 C165.080375,206.398819 165.33691,206.567653 165.529312,206.736488 C165.84998,206.98974 166.234783,207.32741 166.555452,207.580662 C166.747854,207.749497 167.004389,207.918332 167.132656,208.002749 C167.838128,208.424836 168.351198,208.593671 168.864269,208.678088 C168.992536,208.678088 169.05667,208.678088 169.184938,208.762506 C169.762142,208.846923 170.339346,208.846923 171.173085,208.93134 L171.237219,208.93134 C171.42962,208.93134 171.686155,209.015758 171.942691,209.015758 L172.006824,209.015758 C172.455761,209.100175 172.968831,209.26901 173.610169,209.522262 C174.059106,209.691097 174.63631,209.944349 175.213514,210.113184 C176.175521,210.535271 177.201661,210.957358 178.291936,211.379445 L179.638745,211.885949 C180.087682,212.054784 180.536618,212.223618 180.985555,212.308036 C181.177956,212.392453 181.434491,212.476871 181.626893,212.476871 C183.166104,212.898958 184.641181,213.15221 185.923857,212.898958 C186.116258,212.898958 186.308659,212.81454 186.436927,212.81454 C186.949997,212.645705 187.398934,212.476871 187.84787,212.139201 C188.425075,211.717114 188.874011,211.126192 189.130546,210.282019 C188.745743,209.522262 187.783737,208.762506 186.693462,208.002749 C186.436927,207.833914 186.180392,207.66508 185.923857,207.411827 L185.539054,207.158575 C183.999843,206.145567 182.396498,205.04814 181.306224,204.035132 C181.177956,203.950714 181.113822,203.866297 181.049689,203.78188 C180.793154,203.528627 180.536618,203.190958 180.344217,202.937706 C180.087682,202.431201 179.89528,202.009115 180.023548,201.50261 C180.087682,201.080523 180.280083,200.742854 180.536618,200.405184 C181.562759,199.223341 183.743308,199.138923 185.859723,199.223341 C186.372793,199.223341 186.885864,199.307758 187.398934,199.307758 C188.360941,199.392175 189.19468,199.476593 189.771884,199.476593 C191.631764,199.476593 193.619911,199.56101 195.543925,199.645428 L197.019002,199.645428 C197.981009,199.645428 198.878882,199.56101 199.840889,199.392175 L201.187699,199.138923 C202.855177,198.716836 203.304114,196.944071 205.61293,198.210332 C205.677064,198.294749 205.805332,198.294749 205.869465,198.379167 C205.933599,198.463584 205.997733,198.463584 206.061867,198.548002 C206.318402,198.801254 206.574937,199.054506 206.767338,199.392175 C206.895606,199.645428 207.088007,199.814262 207.216275,200.067515 L207.536944,200.489602 C207.793479,200.742854 208.050014,200.996106 208.434817,201.164941 C208.498951,201.164941 208.627218,201.249358 208.755486,201.249358 C210.038162,201.587028 211.128436,201.080523 212.154577,200.489602 C212.475246,200.320767 212.860048,200.067515 213.244851,199.89868 C213.693788,199.645428 214.206858,199.476593 214.719928,199.392175 C217.028745,199.054506 217.79835,200.320767 219.081026,201.418193 C219.209294,201.50261 219.273427,201.587028 219.401695,201.671445 C219.65823,201.84028 219.850632,202.009115 220.1713,202.177949 C220.299568,202.262367 220.427836,202.346784 220.620237,202.346784 C221.069174,202.515619 221.51811,202.684454 222.03118,202.768871 C222.544251,202.853288 222.993187,202.853288 223.506258,202.853288 C226.26401,202.853288 229.214165,201.84028 231.779516,202.346784 C232.036052,202.431201 232.228453,202.431201 232.484988,202.515619 C232.869791,202.684454 233.254594,202.853288 233.575263,203.106541 C233.960065,203.359793 234.280734,203.697462 234.665537,204.035132 C235.05034,204.372801 235.371009,204.710471 235.755811,205.04814 C236.140614,205.38581 236.461283,205.639062 236.846086,205.892314 C237.230889,206.145567 237.615691,206.314401 237.93636,206.567653 C238.449431,206.905323 238.898367,207.074158 239.411437,207.242993 C239.732106,207.32741 240.116909,207.411827 240.565846,207.496245 L241.271317,207.496245 C241.848521,207.496245 242.297458,207.496245 242.682261,207.411827 C243.259465,207.32741 243.580134,207.158575 243.772535,206.905323 C243.836669,206.820906 243.900803,206.652071 243.964936,206.483236 C243.964936,206.398819 244.02907,206.314401 244.02907,206.229984 C244.093204,205.976732 244.221472,205.639062 244.285605,205.216975 C244.349739,204.963723 244.478007,204.626054 244.606274,204.288384 C245.183478,202.684454 245.183478,201.671445 244.926943,200.742854 C244.606274,199.56101 243.836669,198.548002 243.259465,196.521984 C244.734542,196.01548 246.209619,195.931063 247.620563,196.099897 C247.941231,196.099897 248.197767,196.184315 248.518436,196.184315 C249.09564,196.268732 249.672844,196.35315 250.250048,196.521984 C251.404456,196.775236 252.558864,197.112906 253.713273,197.366158 C254.290477,197.534993 254.867681,197.61941 255.444885,197.703828 L257.176497,197.95708 C258.138504,198.041497 259.357046,197.95708 260.639722,197.872662 C260.960391,197.872662 261.345194,197.788245 261.729996,197.788245 L263.65401,197.534993 C263.974679,197.534993 264.359482,197.450576 264.680151,197.450576 C265.385622,197.366158 266.02696,197.366158 266.732432,197.281741 L268.656446,197.281741 C269.874988,197.366158 270.965262,197.61941 271.863135,198.210332 C272.889276,198.885671 273.723015,199.814262 274.49262,200.742854 C274.877423,201.249358 275.32636,201.671445 275.711162,202.177949 C275.83943,202.346784 275.967698,202.515619 276.160099,202.600036 C276.737303,203.190958 277.378641,203.697462 278.148246,203.950714 C278.533049,204.119549 278.917852,204.288384 279.366788,204.288384 C279.943993,204.372801 280.457063,204.372801 280.905999,204.203967 C281.162535,204.119549 281.354936,204.035132 281.611471,203.950714 C281.803872,203.866297 282.060408,203.78188 282.252809,203.613045 C282.701746,203.44421 283.086548,203.190958 283.599619,203.022123 C284.112689,202.853288 284.497492,202.768871 285.010562,202.768871 C285.202963,203.190958 285.395365,203.528627 285.716034,203.697462 C286.036703,203.950714 286.357372,204.119549 286.742174,204.203967 L287.640047,204.203967 C287.896583,204.203967 288.088984,204.119549 288.281385,204.119549 C288.858589,203.950714 289.179258,203.528627 290.077131,203.022123 C292.706617,201.418193 294.11756,199.645428 296.105708,198.632419 C297.195982,198.041497 298.414524,197.703828 300.082003,197.788245 C301.300545,197.788245 302.134284,197.872662 302.839756,198.041497 C303.481093,198.125915 303.994164,198.379167 304.699635,198.716836 C305.084438,198.885671 305.469241,199.138923 305.918177,199.392175 C306.816051,199.89868 307.585656,200.151932 308.291128,200.320767 C308.419395,200.320767 308.611797,200.405184 308.740064,200.405184 C308.996599,200.489602 309.317268,200.489602 309.573803,200.574019 C309.702071,200.574019 309.830339,200.574019 310.02274,200.658436 C310.471677,200.742854 310.920613,200.742854 311.36955,200.827271 C311.497817,200.827271 311.690219,200.911688 311.818486,200.911688 C312.010887,200.911688 312.203289,200.996106 312.39569,201.080523 L313.357697,201.333775 C313.678366,201.418193 313.934901,201.587028 314.191436,201.84028 C314.576239,202.093532 314.896908,202.431201 315.217577,202.768871 C315.987182,203.528627 316.756788,204.288384 317.590527,204.372801 C318.103598,204.457219 318.873203,204.203967 319.642808,203.866297 C319.899344,203.78188 320.155879,203.613045 320.412414,203.528627 C321.502688,203.022123 322.528829,202.431201 323.234301,202.177949 C323.426702,202.093532 323.683237,202.009115 323.875639,201.924697 C323.939772,201.84028 324.06804,201.84028 324.132174,201.755862 C324.965913,201.249358 325.543117,200.742854 326.505124,200.827271 C326.954061,200.827271 327.402997,200.996106 327.980201,201.249358 C328.044335,201.333775 328.172603,201.333775 328.236736,201.418193 C329.455278,202.177949 330.224884,203.528627 331.058623,204.794888 C331.571693,205.639062 332.084764,206.483236 332.726102,207.158575 C333.688108,206.483236 334.714249,205.892314 335.74039,205.38581 C337.343734,204.541636 338.947079,203.78188 340.614558,203.022123 C342.282036,202.262367 343.949515,201.50261 345.55286,200.658436 C346.06593,200.236349 346.643134,199.983097 347.220338,199.729845 C347.541007,199.645428 347.797542,199.476593 348.118211,199.476593 C348.246479,199.476593 348.43888,199.392175 348.567148,199.392175 C349.272619,199.392175 349.593288,199.89868 349.913957,200.320767 L350.042225,200.489602 L350.29876,200.827271 C350.362894,200.911688 350.427028,200.911688 350.491161,200.996106 C350.747697,201.080523 351.004232,201.164941 351.453168,200.996106 C352.864112,200.489602 353.120647,199.56101 353.120647,198.632419 L353.120647,198.125915 L353.120647,197.872662 C353.120647,197.61941 353.056513,197.366158 353.056513,197.112906 L353.056513,196.859654 L353.056513,196.606402 C353.056513,195.593393 353.441316,194.918054 355.557731,195.086889 C355.8784,195.086889 356.519738,195.340141 357.289343,195.67781 C357.73828,195.846645 358.25135,196.099897 358.76442,196.35315 C358.956822,196.437567 359.085089,196.521984 359.277491,196.606402 C360.431899,197.197323 361.458039,197.872662 361.906976,198.210332 C362.804849,198.885671 363.446187,200.067515 364.151659,201.164941 C364.34406,201.418193 364.472328,201.671445 364.664729,202.009115 C365.177799,202.768871 365.819137,203.528627 366.524609,203.950714 C367.165947,204.288384 367.743151,204.457219 368.256221,204.457219 C369.282362,204.457219 370.180235,203.950714 371.078108,203.528627 C371.270509,203.44421 371.527044,203.275375 371.719446,203.190958 C371.911847,203.106541 372.168382,203.022123 372.424918,203.022123 C372.681453,202.937706 372.937988,202.937706 373.194523,202.937706 C373.64346,202.937706 374.092396,202.937706 374.477199,203.022123 C377.04255,203.44421 377.940423,205.976732 380.890578,206.145567 C383.071127,206.229984 384.99514,204.794888 386.919154,203.022123 C387.047422,202.853288 387.239823,202.768871 387.368091,202.600036 C387.688759,202.346784 387.945295,202.009115 388.265964,201.755862 C388.394231,201.587028 388.586633,201.418193 388.7149,201.333775 C389.035569,200.996106 389.292104,200.742854 389.612773,200.405184 L390.959583,199.138923 C392.178125,198.041497 393.396667,197.112906 394.743476,196.690819 C395.064145,196.606402 395.384814,196.521984 395.769617,196.437567 C396.090286,196.35315 396.346821,196.35315 396.66749,196.268732 L396.859891,196.268732 C397.757764,196.184315 398.591504,196.099897 399.425243,195.931063 C399.745912,195.931063 400.066581,195.846645 400.38725,195.846645 C400.707919,195.762228 401.092722,195.762228 401.413391,195.67781 C401.990595,195.593393 402.567799,195.424558 403.145003,195.255723 C405.710354,194.495967 409.36598,194.158297 411.610663,196.01548 C411.738931,196.099897 411.931332,196.268732 412.0596,196.437567 C412.187867,196.521984 412.252001,196.690819 412.380269,196.775236 C413.791212,198.716836 414.368416,202.937706 417.575106,201.080523 C419.17845,200.151932 420.01219,196.606402 421.551401,195.508976 C421.615534,195.424558 421.679668,195.424558 421.743802,195.340141 C421.807936,195.255723 421.936203,195.255723 422.000337,195.255723 C422.128605,195.171306 422.256872,195.171306 422.38514,195.171306 C422.89821,195.171306 423.475414,195.424558 424.116752,195.931063 C425.014625,196.690819 425.142893,197.872662 425.399428,198.716836 C425.463562,198.885671 425.527695,199.138923 425.655963,199.223341 C425.784231,199.392175 425.912498,199.476593 426.1049,199.56101 C426.297301,199.645428 426.489702,199.645428 426.746237,199.56101 C426.874505,199.56101 427.066906,199.476593 427.195174,199.476593 C427.387575,199.392175 427.579977,199.392175 427.772378,199.307758 C428.093047,199.223341 428.349582,198.970089 428.541984,198.801254 C428.798519,198.548002 428.99092,198.294749 429.119188,198.041497 C429.311589,197.788245 429.439857,197.450576 429.568124,197.112906 C429.696392,196.775236 429.824659,196.437567 429.952927,196.184315 C430.081195,195.846645 430.209462,195.508976 430.33773,195.255723 C430.401864,195.086889 430.465997,194.918054 430.530131,194.833637 C430.914934,194.158297 431.36387,193.567376 432.069342,193.398541 C432.261743,194.158297 432.454145,194.749219 432.646546,195.255723 C433.736821,197.872662 435.404299,198.210332 437.905517,198.210332 C438.418587,198.210332 438.931658,198.210332 439.444728,198.125915 L441.17634,198.125915 C442.202481,198.125915 443.54929,198.548002 444.960234,199.054506 C445.345037,199.138923 445.665705,199.307758 446.050508,199.392175 C446.435311,199.476593 446.820114,199.645428 447.204916,199.729845 C447.717987,199.814262 448.231057,199.983097 448.744127,199.983097 C449.193064,199.983097 449.577867,199.983097 449.898536,199.89868 C449.962669,199.89868 450.090937,199.814262 450.155071,199.814262 C450.668141,199.645428 451.117078,199.307758 451.50188,198.801254 C451.117078,200.405184 451.50188,201.249358 452.207352,201.671445 C452.33562,201.755862 452.528021,201.84028 452.656289,201.924697 C452.84869,202.009115 453.105225,202.093532 453.36176,202.177949 C453.938964,202.346784 454.580302,202.431201 455.093373,202.600036 C455.349908,202.684454 455.606443,202.768871 455.798844,202.853288 C456.055379,202.937706 456.311915,203.106541 456.632584,203.275375 L457.017386,203.528627 C458.813132,204.457219 460.608879,205.554645 462.789427,204.203967 C463.238364,203.950714 463.623167,203.613045 464.007969,203.190958 C464.585173,202.600036 465.162378,201.924697 465.803715,201.333775 C466.445053,200.742854 467.086391,200.236349 467.855997,200.151932 C468.2408,200.067515 468.561468,200.067515 468.882137,200.067515 L469.395208,200.067515 C469.908278,200.151932 470.357215,200.236349 470.806151,200.489602 C471.12682,200.574019 471.383355,200.742854 471.704024,200.911688 C472.152961,201.164941 472.537763,201.418193 472.9867,201.671445 C473.692172,202.093532 474.397643,202.431201 475.231383,202.684454 C475.423784,202.768871 475.744453,202.853288 476.065122,202.853288 C477.027129,203.022123 478.309805,203.275375 479.59248,203.359793 C480.041417,203.359793 480.42622,203.44421 480.875156,203.44421 L481.516494,203.44421 C481.901297,203.44421 482.286099,203.44421 482.606768,203.359793 L482.670902,203.359793 C483.183973,203.275375 483.568775,203.190958 483.889444,203.106541 C485.17212,202.515619 485.556923,201.333775 485.492789,200.067515 C485.428655,198.885671 485.043852,197.534993 484.65905,196.35315 C484.466648,195.846645 484.338381,195.424558 484.145979,195.086889 C483.697043,193.905045 482.991571,192.638784 482.414367,191.372524 C481.901297,190.359515 481.45236,189.346506 481.195825,188.417915 C480.875156,187.320489 480.811022,186.138646 480.811022,185.041219 C480.811022,184.281463 480.875156,183.521707 480.875156,182.76195 C480.875156,182.339863 480.93929,182.002194 480.93929,181.580107 L480.93929,180.989185 C480.93929,180.398263 480.93929,179.807341 480.875156,179.21642 C480.746889,178.203411 480.490353,177.443655 480.169684,176.852733 C480.041417,176.599481 479.913149,176.430646 479.784882,176.177394 L479.335945,175.586472 L479.015276,175.164385 C478.951142,175.079968 478.887009,174.911133 478.758741,174.826716 C478.694607,174.742298 478.630473,174.657881 478.56634,174.489046 C478.309805,174.066959 478.053269,173.560455 477.860868,172.969533 C477.21953,170.859098 477.604333,169.339585 478.438072,168.073324 C478.694607,167.735655 478.951142,167.313568 479.207678,166.975898 C479.464213,166.638229 479.784882,166.384977 480.041417,166.047307 C480.233818,165.878472 480.42622,165.62522 480.618621,165.456385 C480.811022,165.287551 480.93929,165.118716 481.067557,164.949881 C481.388226,164.612212 481.708895,164.274542 481.965431,163.852455 C482.093698,163.68362 482.221966,163.514786 482.350233,163.261533 C482.991571,162.248525 483.440508,161.404351 483.632909,160.560177 C483.761177,160.053673 483.889444,159.547168 483.889444,159.040664 C483.889444,156.423725 481.644762,154.819795 479.784882,153.047029 L479.207678,152.540525 C479.07941,152.37169 478.951142,152.287273 478.822875,152.118438 C478.438072,151.696351 478.117403,151.274264 477.860868,150.852177 C477.604333,150.43009 477.411931,149.923586 477.347798,149.417082 C477.347798,149.248247 477.283664,149.079412 477.283664,148.910577 C477.283664,148.404073 477.347798,147.813151 477.604333,147.137812 C477.989136,146.040386 479.720748,145.027378 481.516494,144.183204 C481.901297,144.014369 482.286099,143.845534 482.670902,143.592282 C483.440508,143.254612 484.145979,142.916943 484.723183,142.663691 C484.851451,142.579273 484.979719,142.494856 485.107986,142.494856 C485.492789,142.326021 485.877592,142.072769 486.262394,141.903934 C486.647197,141.735099 487.032,141.566265 487.352669,141.39743 C487.673338,141.228595 487.929873,141.05976 488.250542,140.890926 L488.635345,140.637673 L489.212549,140.131169 C489.40495,139.962334 489.533218,139.793499 489.725619,139.624665 L489.789753,139.624665 C489.982154,139.371413 490.174556,139.11816 490.302823,138.780491 L490.687626,137.767482 C491.521365,134.812874 491.26483,133.715448 492.098569,132.786856 C492.162703,132.702439 492.290971,132.618021 492.355104,132.533604 C492.868175,132.111517 493.701914,131.605013 495.048724,131.014091 C495.112857,131.014091 495.176991,130.929674 495.176991,130.929674 C495.625928,130.676422 496.138998,130.423169 496.652068,130.0855 C496.84447,130.001082 497.036871,129.832248 497.229273,129.663413 C497.678209,129.325743 498.127146,128.988074 498.511948,128.650404 C498.960885,128.228317 499.345688,127.890648 499.73049,127.384143 C499.922892,127.130891 500.179427,126.877639 500.371828,126.53997 C500.628363,126.2023 500.820765,125.780213 500.949032,125.442543 C501.0773,125.020457 501.205567,124.682787 501.205567,124.2607 C502.039307,124.2607 502.039307,124.007448 501.975173,123.838613 C501.205567,123.754196 500.500096,123.585361 499.794624,123.332109 Z"/>
    <path fill="#29291F" d="M210.5,37.95 L210.5,38.05"/>
  </g>
</svg>
