<svg preserveAspectRatio="xMinYMid meet" version="1" xmlns="http://www.w3.org/2000/svg" viewBox="0 0 550 432" xmlns:xlink="http://www.w3.org/1999/xlink"><path fill="none" pointer-events="none" d="M0 0h782.661v372.014H0z"/><g><defs><path d="M16 14.6h1367.9v948H16v-948z" id="a"/></defs><clipPath id="b"><use overflow="visible" xlink:href="#a"/></clipPath><g clip-path="url(#b)"><g transform="translate(-180.391 -326.04)"><path d="M483.8 642.5l-157.2 10.1h-100l-39.5-10.1 47.9-5.3h90.2z" fill="#080708"/><path d="M455.1 466.7l39.8 9.2-2.5 6.9-39.4-10z" fill="#A1A1AA"/><path d="M490.7 482.4l-34.4-11.2-1.2-4.5-2.1 6.1z" fill="#4E4E52"/><path d="M470.5 458.9l17.7 10.3-1.6 16-19.6-5.8-.1-12.1-1.9-8.1z" fill="#EEC19C"/><path d="M382.6 388.2l-16.5 9.9-4.3 78 50.6 6.7-1.5-84.7z" fill="#A1A1AA"/><path d="M389.4 387l6.8-17.8 14.7 8.9-5.5 15 5.5 5-3.7 13.1-2.6-8.3-22-14.7z" fill="#DBAE88"/><path d="M446.3 642.5l1.2-12.9h14.1l19.7 6.5 2.5 6.4z" fill="#282729"/><path d="M413.6 427.6l18.8 35.7 34.5 6.1 3.6-10.5-30.1-13.5-12.5-38.4zM361.8 501.3v-25.2l54.4 6.7 25.9 77.9 22.9 70-17.5-1.1-25.9-62.9-23.6-40.3-15.4 53.9-37.4 49.3-14.2-4.3 30.8-61.1z" fill="#414042"/><path d="M331 625.3l-9.8 14.2 24 3h16.6l-4.3-8.6-12.3-4.3z" fill="#080708"/><path d="M320 462.6l-4.3 10.4 2.1 12.9-13.8 7.4-7.4-9.2 5-6.2 4.3 2 2.4-8.7 1.9-8z" fill="#EEC19C"/><path d="M389.4 387l-6.8 1.2 22 14.7 2.6 8.3 2-6.2-.5-3.8-3.1 1.3-10.4-9.8 2.3-7.8 9.7 3-11.3-6-1.8-7.5z" fill="#A8774D"/><path d="M493 473.2l-3.1 12.6 13.5 3.3 3-12.4z" fill="#B8B8C2"/><path d="M345.2 629.6l37.4-49.3-12.3-6.5 2.7-75.3 44.4-12.1-1.2-3.6-54.4-6.7v88.1L331 625.3z" fill="#080708"/><path d="M355.9 391.9l26.7-3.7 14.2 28.9-5.6 69.3-40.5-3.6 8.6-58.3-21.5 12.9-17.2 32.5-12.3-6.7 20.3-43z" fill="#414042"/><path d="M389.4 387l-6.8 1.2 8 5.4 5.3-11.7-1.8-7.5z" fill="#6E4B2E"/><path d="M410.9 398.1l-6.3 88.3 15.6-1.2-.5-33.6 8.2-44.6z" fill="#414042"/><path d="M382.6 388.2l3.7-2.3 18.3 17-5.3 6.3zM405.4 393.1l2.9 9.2 1.8 6.9.8-11.1z" fill="#BCBCC7"/><path d="M398 526.4l3.8-14.7 30.3 51.9L453 630l-5.5-.4-25.9-62.9zM391.2 486.4l-20.9-6.5 3.9-68.7-14.9 13.3-8.6 58.3zM420.2 485.2l-15.6 1.2 6.3-88.3 3.8 75.1zM427.9 407l-6.3 35.8 10.8 20.5 34.5 6.1-30.3-14.3zM316.3 467.6l18.1-40.1 27.4-29.4 23.2-5-2.4-4.9-26.7 3.7-27.3 28.3-20.3 43z" fill="#080708"/><path d="M453 630l30.8 12.5h-37.5l1.2-12.9z" fill="#080708"/><path d="M382.6 580.3l15.4-53.9 3.8-14.7-.9-15.9-20.1 75.1 1.8 9.4zM417.4 486.4l20.7 76.3-2.7 4.8 6.7 4.5 8.7 15.3zM420.2 485.2l-.5-33.6 8.2-44.6-17-8.9 9.3 11.1-4 41.4zM391.2 486.4l5.6-69.3-11.8-24 8.6 25.7zM320.6 469.9l17.2-32.5 21.5-12.9 14.9-13.3-17.1 10.9-21.5 13.4zM466.9 469.4l-28.5-20.6-10.5-41.8 12.5 38.4 30.1 13.5z" fill="#7B787D"/><path d="M404.9 481.4l5.2-72.2-8.3 55.7-6.3 7.1 1.3-54.9-5.1 63z" fill="#5F5D61"/><path d="M386.3 385.9l-3.7 2.3 16.7 21-8.8-14.6.7-4.2zM405.4 393.1l4 5.8.7 10.3z" fill="#7B787D"/><path d="M404.6 402.9l-5.3 9.1-16.4-23.3 16.4 20.5z" fill="#4B494D"/><path d="M404.9 481.4l-4-.3 7.2-44.5z" fill="#48474A"/><path d="M385 393.1l-4.2 32.2 7.4 4.8-3.7 5.4 5.2 33.9-7.1-33.9 4.5-5.4-8-4z" fill="#080708"/><path d="M395.9 381.9l21.3 11.5 4.4-38.7-11.5-9.4-20.4 8.2z" fill="#EEC19C"/><path d="M404.6 357.7l20.1 2.8-3.1-5.8-11.5-9.4-20.4 8.2 4.8 27.6 2.3-7.6-2-1.2-.3-9.1 6.6 2.6v4.7z" fill="#5F3F2B"/><path fill="#BA8454" d="M407.2 387.9c-.3-.4 1-22.6 1-22.6l2.8-5.2 10-.1-16.4-2.3-3.5 12.8v-4.8l-6.6-2.6.3 9.1 2 1.3-1.6 5.3.7 3.1 11.3 6z"/><path d="M394.5 381.1l-4.8-27.6 20.4-8.2 11.5 9.4-13.9-2.6-9 3.2 2.4 10.5-6.6-2.6.3 9.1 2 1.2z" fill="#24170F"/><path d="M498.9 488l1.2-13-7.1-1.8-3.1 12.6z" fill="#8F8F96"/><path d="M490.7 482.4l1.8-7.1-3.3-.7-1.5 6.8z" fill="#4E4E52"/><path d="M486.6 485.2l-4.2-3.8-.8-6-1.1 6-4.9-1.9v-9.3l-1.7 9.4-4.9-1.1-2.1-9.1.1 10z" fill="#BA8454"/><path d="M478.2 469.4l5.9 10.6-7.3-10.1h-5z" fill="#BA8454"/><radialGradient id="c" cx="662.824" cy="450.822" r="300.981" gradientUnits="userSpaceOnUse"><stop offset="0" stop-color="#f9ed32"/><stop offset="1" stop-color="#f9ed32" stop-opacity="0"/></radialGradient><path fill="url(#c)" d="M506.4 476.7l-13.4-3.5-.5 2.1-.6-.1-4.2-1 .5-5.1-17.6-10.3-30.1-13.4-12.6-38.4-17-8.9-5.5-4.9 1.9-5.1 10 5.4L421 360l3.7.5-3.1-5.8-11.5-9.4-20.4 8.2 3.9 22.3-4.2 11.1-1.5.3-1.5-1.4-3.7 2.4-26.8 3.7-27.3 28.3-20.3 43 1.6.9-1.6 7.1-2.5 8.8-4.3-2-4.9 6.1 7.4 9.2 13.8-7.4-2.2-12.9 1.9-4.7 3 1.6 17.2-32.6 21.5-12.9-8.6 58.4 11.1 1v80.5l-30.7 61-9.8 14.1 24 3.1h16.6l-4.3-8.6-12.3-4.3 37.5-49.3 15.4-53.9 23.6 40.3 25.9 62.9-1.2 12.9h37.5l-2.5-6.4-16.3-5.3-23-70-24.6-74.2v-.1l-.3-1 3.1-.2-.5-33.6 1.7-9.2.2.4 10.8 20.5 22.5 4-2 5.6 14 3.5v3.1l19.6 5.8.4-3.7 3.7.9-.8 3.4 9 2.2 4.5 1.1 3-12.6zm-41.3-7.7l1.8.3v.1l-1.8-.4z"/><linearGradient id="d" gradientUnits="userSpaceOnUse" x1="-177.571" y1="171.118" x2="938.224" y2="553.012"><stop offset="0" stop-color="#f9ed32"/><stop offset="1" stop-color="#f9ed32" stop-opacity="0"/></linearGradient><path d="M503.4 489.1l416.8 185 140.3-206.5-554.1 9.1z" fill="url(#d)"/><radialGradient id="e" cx="1535.748" cy="946.431" r="139.279" fx="1431.776" fy="945.168" gradientTransform="matrix(1.8469 .3342 -.1382 .7637 -1980.422 -708.378)" gradientUnits="userSpaceOnUse"><stop offset="0" stop-color="#f9ed32"/><stop offset="1" stop-color="#f9ed32" stop-opacity="0"/></radialGradient><path opacity=".22" fill="url(#e)" d="M982.5 574.2C971.8 632.9 848 659.7 706 634s-248.6-94.2-238-152.9c10.6-58.7 134.4-85.5 276.5-59.8 142 25.7 248.6 94.1 238 152.9z"/></g></g></g></svg>