<svg preserveAspectRatio="xMidYMid meet" viewBox="0 0 190 90" width="250" height="150">
  <path fill="none" d="M0 0h103.484v90.246H0z" pointer-events="none"/>
  <path fill="#f26722" d="M55.775 58.326a.57.57 0 0 1-.57.57.57.57 0 0 1-.57-.57.57.57 0 0 1 .57-.57.57.57 0 0 1 .57.57zM57.486 57.185a.57.57 0 0 1-.57.57.57.57 0 0 1-.57-.57.57.57 0 0 1 .57-.57.57.57 0 0 1 .57.57z" class="st2"/>
  <path d="M51.783 61.32c-3.848 7.27-17.391-4.847-22.666-5.56-2.28-.285-4.134.285-5.844 1.853.998.143 1.995.285 2.85.713-3.99 1.283-7.555 2.566-10.69 5.56-3.422 3.278-5.988 7.84-7.984 12.116-1.14 2.424-1.71 4.705-1.425 7.27 2.85-6.13 9.123-11.831 16.393-9.123 1.569.57 2.851 1.568 3.992 2.566 1.568-2.993 3.421-6.7 7.27-6.842 3.279-.143 6.415 1.995 8.981 3.706 2.138-2.566 4.562-5.417 8.126-5.417 2.85 0 4.134 1.426 6.985 1.568 3.564.285 6.557-2.85 7.413-6.13.855-2.993.855-4.704 2.28-7.555 1.711-3.564 4.99-7.128 9.266-5.702-.57-2.709-1.283-5.56-.285-8.126 1.14-2.85 3.422-4.561 5.702-6.557-2.85-3.421-3.136-9.551-1.995-13.4 1.14-3.707 5.417-8.268 9.266-9.836-10.407-1.854-16.68 8.41-20.813 16.678-.713 1.426-1.283 2.994-1.568 4.562-1.14-.713-.998-2.423-.285-3.421-3.28 1.283-1.854 6.272-1.283 7.555 1.568 4.277.427 7.128-1.426 11.12-.998 2.138-1.996 5.416-4.134 6.842-.998-1.996-.855-3.136.143-5.275-1.854.143-4.42 3.422-3.28 5.132-.997-.285-2.28.57-2.423 1.711-1.71-2.28-4.419-2.423-6.7.143 2.709-.57 5.132 1.853 4.134 3.848z"/>
</svg>
