<svg preserveAspectRatio="xMidYMid meet" viewBox="0 0 190 90" width="250" height="150">
  <path fill="none" d="M0 0h170.009v83.859H0z" pointer-events="none"/>
  <path fill="#f26722" d="M119.107 157.315a.57.57 0 0 1-.57.57.57.57 0 0 1-.57-.57.57.57 0 0 1 .57-.57.57.57 0 0 1 .57.57zM120.818 156.175a.57.57 0 0 1-.57.57.57.57 0 0 1-.57-.57.57.57 0 0 1 .57-.57.57.57 0 0 1 .57.57z" class="st2"/>
  <g>
    <path d="M92.307 66.223c-2.851.856-5.275.998-7.27.998-.856 1.283-.713 3.85 1.71 4.562-1.996.285-2.993 1.853-1.14 3.706-3.422-.997-5.987-3.136-6.843-7.27-2.85-2.566-11.69-2.28-17.106 4.847-4.705-5.275-17.534-5.132-23.95 3.421-8.125-6.842-20.955-3.278-27.227 4.562-.285-10.121 8.268-26.515 30.221-35.781-.998-1.568-1.995-2.566-4.276-3.564 4.561-2.28 11.547 1.14 16.821 4.562 5.275 3.279 18.104 5.132 26.23 3.136-6.558-3.564-8.41-8.125-9.409-11.262 4.42 1.854 7.556 2.851 9.694 2.424.713-1.283 2.138-2.139 3.849-2.566 1.568-.428 3.279-.713 4.562 0 1.995-.998 3.991-3.564 6.7-7.413.998 2.994 1.853 7.84-1.568 14.54 7.983-2.708 17.534-11.546 20.1-17.249 2.423-5.702 6.415-12.544 11.404-13.114-1.283 2.138-1.568 3.42-1.568 5.417 23.379-4.705 39.63 4.276 45.047 12.83-9.551-3.137-22.381 1.14-25.232 11.404-10.121-3.564-20.67 3.564-21.81 10.549-8.411-2.851-15.967 1.71-16.965 5.56 1.71 3.848.713 6.984-1.568 9.835.428-2.566-1.14-3.278-2.993-2.423 1.71-1.853.285-4.134-1.14-4.704-1.284.713-3.565 2.138-6.273 2.993z"/>
    <path fill="#f26722" d="M88.315 41.562a1.14 1.14 0 0 1-1.14 1.14 1.14 1.14 0 0 1-1.14-1.14 1.14 1.14 0 0 1 1.14-1.14 1.14 1.14 0 0 1 1.14 1.14zM81.9 43.272c.143.57.713.856 1.283.713.57-.143.856-.713.713-1.283-.142-.57-.713-.855-1.283-.713-.57 0-.855.713-.713 1.283z" class="st2"/>
  </g>
</svg>