<svg preserveAspectRatio="xMidYMid meet" viewBox="0 0 190 90" width="250" height="150">
  <path fill="none" d="M0 0h74.745v62.039H0z" pointer-events="none"/>
  <path d="M30.21 35.66c-5.845 0-2.708-12.545-3.991-16.251-.57-1.568-1.568-2.566-3.137-3.137.286.713.57 1.426.428 2.139-2.138-1.996-4.134-3.85-7.128-4.847-3.136-.998-6.985-1.14-10.263-.998-1.854.143-3.564.428-5.132 1.568 4.846-.285 10.549 1.853 11.261 7.27.143 1.14 0 2.281-.285 3.422 2.424 0 5.417 0 6.7 2.28 1.14 1.996.856 4.705.57 6.843 2.281.428 4.99 1.14 6.13 3.421.998 1.854.57 3.137 1.283 4.99.998 2.423 3.992 3.136 6.273 2.708 2.138-.427 3.278-.998 5.56-1.14 2.85 0 6.129.855 6.7 3.991 1.567-1.14 3.135-2.708 5.131-2.85 2.281-.286 3.992.712 5.987 1.425 1.283-2.994 4.99-5.275 7.84-5.702 2.71-.57 6.986.712 9.267 2.566-2.281-7.27-10.834-7.84-17.534-7.698-1.14 0-2.281.142-3.422.57 0-.998 1.14-1.426 1.996-1.283-1.996-1.71-4.561.998-5.274 1.71-2.139 2.424-4.42 2.567-7.413 2.852-1.71.142-4.134.57-5.702-.285.998-1.283 1.71-1.568 3.421-1.711-.713-1.14-3.564-1.71-4.277-.285-.142-.713-1.14-1.283-1.853-.998.856-1.853.143-3.564-2.28-4.134 1.425 1.283.712 3.564-.856 3.564z"/>
  <path fill="#f26722" d="M33.631 36.8a.428.428 0 0 1-.427.428.428.428 0 0 1-.428-.428.428.428 0 0 1 .428-.427.428.428 0 0 1 .427.427zM34.914 37.513a.428.428 0 0 1-.427.428.428.428 0 0 1-.428-.428.428.428 0 0 1 .428-.428.428.428 0 0 1 .427.428z" class="st2"/>
</svg>
