<svg xmlns="http://www.w3.org/2000/svg" preserveAspectRatio="xMidYMid meet" viewBox="0 0 500 600" width="600" height="300">
  <path d="M538.8 379.3c-10.6-12.2-.6-25.4-.6-25.4s-16.6 13.2-12.6 43c2.9 22.2-47 85.8-47 85.8l-11.5-10.5-5.5-11.1-4.9-7.1-1.2 7.5-8.8 12.9-12.3-1.3-8.8-5.3 3.1 6.5 6.5 14.5.8 15.3s-81.4-3.1-96.7-19.7c-20.6-22.2-41.4-18.2-41.4-18.2s16.7 1 19.3 16.9c2.6 15.9-130.9 126.6-130.9 126.6s43.5-31.7 58.6-32c29.6-.7 18.8 27.6 18.8 27.6s11.8-32.5 40.5-34.6c32.2-2.4 38.5 41.5 38.5 41.5s5.6-35.3 17.8-39.1c36.2-11.3 53.7 57.3 52.9 17.8-.8-39.5 39.9-32.6 39.9-32.6l45.8 56.2-10.3-31.5 19 28.2 5.1 1.7 2.8-5.3-8.1-28.9 15.9 22.7-14-70.9s20.8-35.3 50.9-9.3c30.1 26.1-11.8-31.3 20.3-51.4 10.8-6.7 41.7 11.7 41.7 11.7s-29.9-33-7.3-55.8c20.1-20.3 52.8-8.3 52.8-8.3s-28.8-10.1-9.2-32c10-11.2 62.5-23.7 62.5-23.7s-171.8 29.7-182.4 17.6z"/>
  <linearGradient id="a" x1="1073.416" x2="1084.717" y1="452.918" y2="452.918" gradientTransform="scale(-1 1) rotate(1.748 -673.961 -49525.1)" gradientUnits="userSpaceOnUse">
    <stop offset="0" stop-color="#fad97c"/>
    <stop offset=".119" stop-color="#f9d176"/>
    <stop offset=".308" stop-color="#f5ba64"/>
    <stop offset=".542" stop-color="#ee9547"/>
    <stop offset=".811" stop-color="#e6611f"/>
    <stop offset="1" stop-color="#df3900"/>
  </linearGradient>
  <path fill="url(#a)" d="M440.3 477.7s.6 6.6 3.9 7.7c3.4 1.1 5.7 1.4 7.7 3.2 0 0-.3-4.8-3.2-6.9-2.9-2.2-6.6-2.1-8.4-4z" class="st64"/>
  <linearGradient id="b" x1="1059.205" x2="1070.508" y1="447.3" y2="447.3" gradientTransform="scale(-1 1) rotate(1.748 -673.961 -49525.1)" gradientUnits="userSpaceOnUse">
    <stop offset="0" stop-color="#fad97c"/>
    <stop offset=".119" stop-color="#f9d176"/>
    <stop offset=".308" stop-color="#f5ba64"/>
    <stop offset=".542" stop-color="#ee9547"/>
    <stop offset=".811" stop-color="#e6611f"/>
    <stop offset="1" stop-color="#df3900"/>
  </linearGradient>
  <path fill="url(#b)" d="M454.3 471.6s.6 6.6 3.9 7.7c3.4 1.1 5.7 1.4 7.7 3.2 0 0-.3-4.8-3.2-6.9-2.8-2.1-6.6-2-8.4-4z" class="st65"/>
</svg>
