<svg xmlns="http://www.w3.org/2000/svg" preserveAspectRatio="xMidYMid slice" viewBox="0 0 1400 700" width="1400" height="700" fill="none"><path fill="url(#filter_linear5)" fill-opacity=".46" d="M1626.48 536.162l.05-53.899-9.11-.008-.05 53.899-54.33-.051-6.54 33.468-33.35.537s-61.87-108.141-70.47-137.179c-8.59-29.227.11-119.145.11-119.145s-46.03-4.393-102.47-3.879c-56.45.515-108.83 4.249-108.83 4.249s12.81 45.968 11.65 65.163c-1.16 19.1-20.42 95.013-20.42 95.013s-34.1-64.049-34.05-119.177c.05-55.223 8.72-111.762 8.72-111.762s-60.83-8.095-135.65-8.165c-74.83-.07-142.022 11.12-142.022 11.12s13.766 64.598 6.399 114.802c-7.53 50.299-27.754 108.057-27.754 108.057l.011-12.482-19.356-1.247-2.462-150.826 11.062.01.002-2.459-11.062-.01-3.06-206.144 10.085.01.003-2.932-10.248-.01-.3-26.95-42.619-.04-1.164 26.95-10.899-.011-.002 2.931 10.898.01-8.814 206.134-10.898-.01-.003 2.458 10.899.01-5.159 124.815-51.242 1.181.01-9.928-7.483-.575.015-15.508 6.508-1.79.988-12.481-7.482-1.236.015-15.508 25.702-.544-6.492-16.081-79.055-1.871.023-24.207 20.334.019.991-16.736-14.963-2.473 14.967-1.782 1.005-30.448-22.446-3.047-.157-5.768 13.989.013.003-2.931-13.989-.013-3.867-213.71.66-10.307 16.104.015.003-3.31-15.941-.014L705.791.659 656.666.613l-.037 39.715-14.153-.013-.003 3.31 14.152.013-.009 10.307-11.424 213.412-12.037-.012-.003 2.932 11.875.011-.166 3.971-99.395 5.486-.029 30.449 11.71 2.469-17.082 2.443-.015 16.075 11.711.578-.003 3.026-25.538-.118.011-12.009-2.928-.003-.011 12.009-18.544-.112.011-11.914-2.928-.003-.011 11.915-18.544-.112.011-11.82-2.928-.003-.011 11.82-18.544-.112.01-11.631-2.928-.003-.01 11.631-18.544-.112.01-11.536-2.928-.003-.01 11.537-1.302-.001-36.28 5.545-.014 15.508 20.333.586-.01 10.496-20.171-.019-.992 17.304 21.471.587-.986 11.252-43.758.527.031-33.475-73.686-2.527.006-6.241-54.168-.051.006-6.808-5.693-.005-.007 6.997-8.621-.008.01-11.253-4.229-.004-.011 11.253-45.709-.043-.026 27.99-42.622 2.986-.097 103.733-11.062.368.113-120.565-13.501-.012-.113 120.942-47.012 1.186-.035 37.256-27.49-1.822.092-97.208L.23 426.75 0 672.512l1655.95 1.547.13-137.774-29.6-.028v-.095z"/><defs><linearGradient id="filter_linear5" x1="515.23" x2="512.928" y1="736.847" y2="59.06" gradientUnits="userSpaceOnUse"><stop offset=".052" stop-color="currentColor" stop-opacity="0"/><stop offset=".417" stop-opacity=".48"/><stop offset=".604" stop-opacity=".87"/><stop offset="1"/></linearGradient></defs></svg>