<svg xmlns="http://www.w3.org/2000/svg" width="100%" height="120">
<defs>
  <pattern id="polka-dots1" x="0" y="0" width="200" height="180" patternUnits="userSpaceOnUse">
  <path fill="#3D3220" fill-opacity=".54" d="M656.737 106.517l-4.639-29.638h-9.459V52.315h1.175v-2.233h-4.579v-9.57h-.573v9.57h-3.193v-7.86h-.542v7.86h-19.16v2.233h1.325v49.881h-21.871v-22.36H582.78V24.94h1.144v-2.7h-2.5v-3.45h-2.862v-8.672h-3.434V4h-.844v6.12h-1.867l-1.115 3.421h-7.531v5.25h-19.702v3.45h-2.501v2.698h1.145v35.728h-16.509v35.091l-18.286-7.772V53.939h2.952v-2.523h-5.211V44.63h-22.233v6.786h-7.29V44.63H472.4v6.786h-3.735V44.63h-4.097v6.786h-8.586v2.523h1.296v47.213h-8.345v-.493h-1.506V87.203h1.506V86.13h-1.506V72.674h1.506V71.57h-1.506V58.115h1.506v-1.073h-1.506V43.586h1.506v-1.073h-1.506V29.057h1.506v-1.073h-1.506v-13.95h2.59v-1.073h1.326v-2.958h-24.582V6.726h.783V5.77h-13.376v.957h.814v3.277h-6.086v2.958h1.296v1.073h2.59v13.95h-1.506v1.072h1.506v13.457h-1.506v1.073h1.506v13.456h-1.506v1.073h1.506v13.456h-1.506v1.103h1.506V86.13h-1.506v1.073h1.506v13.456h-1.506v1.073h1.506v10.991h-8.374V70.237h-33.771v30.915h-5.453V4.841h-4.067v2.494l-7.471 1.74V7.48h-4.067v2.552l-7.471 1.74V9.916h-4.067v2.813l-7.471 1.74v-1.508h-4.067v2.465l-7.471 1.74v-1.305h-4.067v94.571h-5.693V60.029h-21.118v31.002h-21.66V64.582h-2.681v-8.67h1.596v-.87h-7.019v-2.727h-.753v2.726h-2.229V41.005h-.573V55.04h-2.892v.87h1.717v8.671h-14.309v20.185h-13.918l-7.26 25.665h-14.581v-83.87h-19.31v-2.987h1.084V22.53h-14.611v1.044h1.145v65.281h-9.098V67.134h3.224v-1.943h-22.895V52.083h-4.369v-2.697h-9.76v2.697h-7.923V98.89H95.051V64.176H73.118v27.406H54.08v17.545H40.373v-22.04H22.328v18.792H6V143h673v-36.483h-22.263z" filter="url(#filter_linear14)"/>
  <path fill="currentColor" d="M650.737 107.205L646.098 76.5h-9.459V51.053h1.175V48.74h-4.579v-9.915h-.573v9.915h-3.193v-8.142h-.542v8.142h-19.16v2.313h1.325v51.675h-21.871V79.565H576.78V22.692h1.144v-2.794h-2.5v-3.576h-2.862V7.34h-3.434V1h-.844v6.34h-1.867l-1.115 3.544h-7.531v5.438h-19.702v3.576h-2.501v2.794h1.145v37.014h-16.509v36.353l-18.286-8.052V52.735h2.952v-2.613h-5.211v-7.03h-22.233v7.03h-7.29v-7.03H466.4v7.03h-3.735v-7.03h-4.097v7.03h-8.586v2.614h1.296v48.911h-8.345v-.511h-1.506v-13.94h1.506v-1.112h-1.506v-13.94h1.506v-1.142h-1.506v-13.94h1.506V55.95h-1.506V42.01h1.506v-1.112h-1.506v-13.94h1.506v-1.112h-1.506v-14.45h2.59v-1.113h1.326V7.22h-24.582V3.824h.783v-.991h-13.376v.991h.814V7.22h-6.086v3.064h1.296v1.112h2.59v14.451h-1.506v1.112h1.506v13.94h-1.506v1.112h1.506v13.94h-1.506v1.112h1.506v13.94h-1.506v1.142h1.506v13.94h-1.506v1.112h1.506v13.94h-1.506v1.112h1.506v11.386h-8.374V69.62h-33.771v32.027h-5.453V1.871h-4.067v2.584l-7.471 1.803V4.605h-4.067V7.25l-7.471 1.803V7.129h-4.067v2.914l-7.471 1.803v-1.563h-4.067v2.554l-7.471 1.803v-1.352h-4.067v97.973h-5.693V59.045h-21.118v32.117h-21.66v-27.4h-2.681v-8.984h1.596v-.9h-7.019v-2.825h-.753v2.824h-2.229V39.336h-.573v14.541h-2.892v.901h1.717v8.983h-14.309v20.911h-13.918l-7.26 26.589h-14.581V24.374h-19.31V21.28h1.084v-1.082h-14.611v1.082h1.145v67.628h-9.098V66.405h3.224v-2.013h-22.895v-13.58h-4.369V48.02h-9.76v2.794h-7.923v48.49H89.051V63.341H67.118v28.391H48.08v18.177H34.373V87.075H16.328v19.469H0V145h673v-37.795h-22.263z"/>
  <defs>
    <filter id="filter_linear14" width="681" height="147" x="2" y="0" color-interpolation-filters="sRGB" filterUnits="userSpaceOnUse">
      <feFlood flood-opacity="0" result="BackgroundImageFix"/>
      <feBlend in="SourceGraphic" in2="BackgroundImageFix" result="shape"/>
      <feGaussianBlur result="effect1_foregroundBlur" stdDeviation="2"/>
    </filter>

    <!-- <linearGradient id="paint0_linear" x1="336.172" x2="335.998" y1="-22.236" y2="145" gradientUnits="userSpaceOnUse">
      <stop stop-color="#534125"/>
      <stop offset=".215" stop-color="#1E1D1D"/>
      <stop offset=".802" stop-color="#242424"/>
    </linearGradient> -->

  </defs>
  </pattern>
  </defs>
    <rect x="0" y="0" width="100%" height="100%" fill="url(#polka-dots1)"></rect>
</svg>
