<svg width="1463" height="575" fill="none" xmlns="http://www.w3.org/2000/svg"><g filter="url(#filter0_f)"><path d="M76.994 458.85l-3.022.783c.548-2.472 1.761-4.665 1.274-6.465-.392-1.705-2.578-2.922-4.485-4.805.092-.286.745-1.525 1.303-2.763-.377.193-.66.385-1.037.577-1.246-2.078-2.588-4.25-3.551-6.426-.096-.189 2.35-2.012 2.73-1.825 1.616 1.031 2.858 2.54 4.763 4.234 2.256-1.917 5.075-4.407 8.457-7.376.948.182 2.747.453 5.4.906-1.054-1.7-1.725-2.739-2.012-3.211 1.116-2.477 1.569-4.948 2.976-6.478 6.003-6.597 9.38-10.326 19.258-5.373 1.71.84 2.859 2.635 4.384 3.952 1.524 1.316 2.956 2.919 4.664 3.57 2.372.835 4.447.059 2.909-3.061-1.347-2.742-.51-4.552 1.271-6.749.843-1.051.825-3.329.528-4.94-.199-1.328-1.532-2.361-2.11-3.591-1.441-2.836-1.17-4.452 2.223-6.092 7.634-3.667 13.519-1.341 18.475 3.271a629.594 629.594 0 0 1 6.363-8.973c.095.094-.763-.658-1.62-1.411.092-.38.182-.951.371-.952 2.46-.02 6.809-.339 7.003.229 2.55 11.37 13.02 7.396 19.667 10.476 1.805.84 3.798 1.678 5.133 2.996 3.052 3.109 5.441 6.032 10.464 7.132 4.928 1.005 9.496 4.481 13.778 7.579 1.523 1.127 2.303 4.063 2.511 6.34.41 4.078 2.595 5.2 6.09 4.508 4.346-.794 8.595-1.872 12.941-2.665 5.668-1.089 10.856-3.124 14.698-7.71.469-.574 1.318-.865 2.074-.966 3.969-.601 8.138.125 12-1.993.848-.482 3.226 1.113 4.465 2.242.286.283-.825 3.424-1.676 3.526-5.952.996-6.949 6.604-9.572 9.852-7.656.915-15.617-.825-19.902 7.657-6.827-1.845-7.865-1.552-10.579 2.266-4.819.703-8.505 1.302-12.474 1.903 1.435 1.982 2.297 3.209 3.923 5.474-3.98-.823-6.443-1.183-8.718-1.735-4.835-1.195-8.73-3.253-9.815-8.844-.199-1.233-1.91-2.263-2.77-3.301-.707 6.271-1.325 11.876-2.035 17.862 2.174-.302 5.192-1.56 7.563-.82 6.45 2.132 12.677-.1 19.017.04 3.123.07 6.324-1.854 9.37.4.571.47 1.9 1.029 1.807 1.22-1.476 4.757-2.572 9.702-4.808 14.086-.745 1.525-4.15 1.647-6.698 2.521a83.906 83.906 0 0 1-2.679-3.776c1.225-.674 2.356-1.157 3.393-1.735l-.009-1.044c-1.513.012-3.695-.635-4.256.128-2.157 2.485-3.966.981-6.24.619-2.084-.363-4.731-.057-6.425 1-3.673 2.213-7.087 1.196-10.408-.012-2.467-.93-4.075-.822-6.332.809-7.055 5.182-9.33 4.63-16.466-.439-1.903-1.314-5.402-1.096-7.952-.601-5.102.894-10.105 2.358-15.013 3.82-1.132.389-1.877 2.009-2.815 2.965-1.915-2.927-4.872-5.941-5.941-9.445-1.068-3.503-.248-7.497-.277-11.103-1.984.3-5.097 1.464-7.657.82-3.033-.736-5.889-2.896-8.271-5.061-2.286-1.975-3.917-4.81-6.017-7.166-2.578-2.922-4.593-6.513-9.23-6.571-1.324.01-2.565-1.309-3.894-1.963 1.73 3.404 3.364 6.713 4.806 9.549 1.994.934 4.364 1.579 5.985 3.085.572.565-.159 3.798-1.288 4.661-1.222.959-3.495.693-5.487.044-3.29 2.589-6.197 5.934-9.969 7.578-5.09 2.318-7.398-2.315-10.463-7.132-.077 2.279-.07 3.133-.064 3.893zm68.81-44.303c-1.305 2.478-2.049 4.097-3.26 6.48 2.273.267 3.788.445 6.155.711-1.062-2.65-1.738-4.448-2.895-7.191z" fill="url(#paint0_linear)"/><path d="M41.15 427.166c-.02-2.562-.132-4.65.135-6.74-.001-.19 3.215-.215 3.216-.121.396 2.181.508 4.363.619 6.45 1.355 3.881 3.943 8.037 3.69 11.931-.175 1.805-1.253 9.122-7.33 6.323-1.304 2.668-2.42 4.955-3.442 7.431-1.577 3.904-4.967 5.924-8.48 4.528-3.13-1.209-5.71-4.226-7.907-6.961-1.912-2.453-3.909-3.766-6.643-2.511-4.24 2.122-7.657.82-10.613-2.099-2.098-2.071-1.87-9.287-.187-11.674.281-.381.654-1.049.843-1.05 5.503 1.949 6.976-3.188 9.984-5.68 4.793-4.119 11.23-3.79 15.144.735 1.623 1.885 3.238 2.632 5.685 1.094 1.791-.869 3.87-1.17 5.285-1.656z" fill="url(#paint1_linear)"/><path d="M138.753 374.947a291.764 291.764 0 0 1-2.5-5.106c-.848.481-1.695.963-2.071 1.25-.769-1.512-1.825-3.402-2.691-5.294-2.213-4.633-3.665-8.704-1.25-14.418 2.414-5.809 5.608-8.682 11.369-9.962.756-.195 1.311-1.719 1.966-2.673.748-1.05 1.403-2.004 2.152-3.054l2.295 3.114c.67.944.967 2.65 1.726 2.929 5.313 1.856 4.701 8.221 8.508 11.038-1.595 1.721 1.072 3.883-1.276 6.18-2.723 2.584-4.394 6.584-5.784 10.297-1.205 3.142-2.806 4.104-5.561 2.607-4.37-2.149-6.248-.425-6.883 3.092z" fill="url(#paint2_linear)"/><path d="M256.92 470.166c-5.947 1.756-11.894 3.416-17.746 5.266-.849.292-1.407 1.53-2.062 2.39-2.434 3.246-5.553 3.651-9.067 1.97-3.799-1.774-4.202-4.903-2.809-8.236.557-1.333 2.344-2.676 3.667-2.877 5.576-.708 8.852-5.196 13.471-7.415 2.167-1.062 4.239-2.312 6.31-3.657 1.694-1.058 3.292-2.399 5.083-3.268 1.697-.773 3.958-1.929 5.382-1.371 1.898.744 3.617 2.819 4.484 4.71.289.662-2.061 2.58-2.996 4.011-1.589 2.385-3.084 4.865-4.578 7.25.286.377.574.85.861 1.227z" fill="url(#paint3_linear)"/><path d="M34.885 364.853c-3.619-2.914-7.901-6.107-4.914-11.162 1.308-2.098 5.559-2.986 8.585-3.105 1.04-.103 3.244 3.391 3.448 5.288.507 4.268-2.87 7.901-7.12 8.979z" fill="url(#paint4_linear)"/><path d="M175.245 347.416c2.65.074 3.712 2.818 3.743 6.71.021 2.657-3.819 7.623-6.184 7.642-2.554.115-6.47-4.6-6.592-8.016-.317-4.269 1.562-5.897 9.033-6.336z" fill="url(#paint5_linear)"/><path d="M82.789 332.865c.122 3.417-2.518 4.576-4.794 3.93-1.707-.461-3.714-3.008-4.107-4.903-.493-2.464 1.288-4.567 4.223-4.305 2.841.357 4.935 1.859 4.678 5.278z" fill="url(#paint6_linear)"/><path d="M76.913 475.008c1.158 2.838 2.22 5.678 3.282 8.327 1.986-.111 4.157-.792 5.96-.142 1.233.37 1.912 2.453 2.868 3.774-1.413.771-2.73 1.73-4.24 2.217-1.415.485-2.928.592-5.1 1.084-.89-4.834-1.783-10.047-2.77-15.26-.001-.095 0 0 0 0z" fill="url(#paint7_linear)"/><path d="M190.807 353.273c-.941.577-2.91 2.87-4.238 2.501-1.895-.46-4.184-2.719-4.481-4.426-.2-1.327 2.331-4.29 3.938-4.492 2.74-.496 4.931 1.48 4.781 6.417z" fill="url(#paint8_linear)"/><path d="M99.25 535.96c-1.503 1.341-2.628 2.584-3.947 3.354-.942.482-2.926.877-3.213.405-.766-1.038-.968-2.651-1.263-4.072-.295-1.516-.686-3.032-.413-4.458.272-1.426 1.302-2.763 2.048-4.193.576 1.04 1.153 2.174 1.917 3.118.574.849 1.242 1.508 1.91 2.263.766 1.132 1.625 2.075 2.961 3.583z" fill="url(#paint9_linear)"/><path d="M124.245 514.215c-1.919-3.402-3.733-5.476-4.131-7.846-.397-2.464 1.483-3.998 4.23-3.545 3.789.634 4.476 3.761 4.311 6.705-.181 1.141-2.064 2.295-4.41 4.686z" fill="url(#paint10_linear)"/><path d="M272.295 452.294c-4.163.033-8.317 1.11-9.491-3.722-.294-1.231 2.047-4.382 3.276-4.487 4.824-.133 5.235 3.945 6.215 8.209z" fill="url(#paint11_linear)"/><path d="M108.243 428.913c-2.102-2.641-4.482-4.425-4.207-5.567.459-1.712 2.719-3.059 4.126-4.589 1.432 1.508 3.619 2.914 4.201 4.713.197 1.043-2.154 2.865-4.12 5.443z" fill="url(#paint12_linear)"/><path d="M221.531 433.712c-1.429-1.223-3.33-2.252-4.288-3.858-.863-1.417-.974-3.409-.798-5.119.089-.665 2.256-1.822 2.826-1.541 1.616.936 3.613 2.249 4.099 3.859.582 1.799-.157 4.083-.329 6.172-.567.195-1.038.388-1.51.487z" fill="url(#paint13_linear)"/><path d="M102.634 497.301c-2.01-2.927-4.2-4.713-3.927-6.044.365-1.712 2.531-3.058 3.938-4.588 1.429 1.318 3.9 2.627 3.911 4.051.108 1.708-1.864 3.527-3.922 6.581z" fill="url(#paint14_linear)"/><path d="M48.934 490.227c-2.823 1.921-4.321 3.926-5.742 3.747-1.42-.083-2.76-2.161-4.095-3.384 1.41-1.246 2.625-3.059 4.23-3.356 1.23-.2 2.756 1.402 5.607 2.993z" fill="url(#paint15_linear)"/><path d="M223.845 367.534c4.729-.227 7.584 1.933 8.567 6.577-6.718-.042-8.716-1.545-8.567-6.577z" fill="url(#paint16_linear)"/><path d="M200.186 414.612c4.851 3.189 4.976 7.08.101 12.719l-.101-12.719z" fill="url(#paint17_linear)"/><path d="M191.265 506.755c-3.795-1.393-5.137-3.566-3.933-6.803.279-.666 2.448-1.538 2.924-1.162 2.665 1.972 2.402 4.632 1.009 7.965z" fill="url(#paint18_linear)"/><path d="M161.37 506.992c-1.976 1.44-3.666 2.972-3.953 2.689-1.522-1.127-2.766-2.825-4.101-4.239.94-.767 2.157-2.39 2.727-2.11 1.708.651 3.044 2.065 5.327 3.66z" fill="url(#paint19_linear)"/><path d="M229.729 501.325c4.28 2.814 4.49 5.375 2.902 8.046-.467.763-2.455.589-3.683.788.263-2.565.432-5.129.781-8.834z" fill="url(#paint20_linear)"/><path d="M241.607 543.661c-1.433-1.697-3.054-3.298-4.204-5.188-.384-.661.362-2.091.637-3.232 1.043.372 2.748.548 3.037 1.21.868 2.081 1.264 4.356 1.849 6.535-.566.194-.943.387-1.319.675z" fill="url(#paint21_linear)"/><path d="M202.098 405.105c-1.786 1.438-3.192 3.157-3.762 2.877-1.233-.465-2.664-1.877-2.958-3.204-.196-.853 1.774-3.051 2.247-2.96 1.423.463 2.474 1.784 4.473 3.287z" fill="url(#paint22_linear)"/><path d="M160.787 397.458c.173-1.994.348-3.894.521-5.889 1.326.18 2.747.358 4.073.538-.458 1.902-1.01 3.899-1.468 5.801-1.042-.086-2.084-.268-3.126-.45z" fill="url(#paint23_linear)"/><path d="M276.127 542.059c-3.131-1.209-5.037-2.903-4.307-6.326.091-.38 2.073-1.06 2.643-.685 2.568 1.688 3.249 3.961 1.664 7.011z" fill="url(#paint24_linear)"/><path d="M153.281 381.476c-2.162 1.821-3.758 3.352-5.546 4.6-.094.096-1.812-1.789-1.719-1.979a54.893 54.893 0 0 1 4.503-4.877c.095-.001 1.428 1.128 2.762 2.256z" fill="url(#paint25_linear)"/><path d="M115.049 535.835c-.112-2.277-.13-4.555-.244-6.927.946-.008 2.456-.494 2.839-.023 2.195 2.451 1.172 4.737-.419 6.838-.757.006-1.513.107-2.176.112z" fill="url(#paint26_linear)"/><path d="M78.898 367.257c1.527 1.602 3.24 2.822 3.15 3.393-.369 1.331-1.779 2.482-2.716 3.628-.858-.847-2.378-1.69-2.386-2.639-.198-1.137.927-2.38 1.952-4.382z" fill="url(#paint27_linear)"/><path d="M143.728 513.397c-1.53-2.077-2.863-3.205-3.253-4.626-.194-.663 1.595-1.721 2.534-2.583.956 1.227 2.195 2.356 2.773 3.68.288.567-.838 1.715-2.054 3.529z" fill="url(#paint28_linear)"/><path d="M217.566 446.842c-.962-2.08-1.83-4.162-2.793-6.242.944-.293 2.546-1.065 2.547-.97a70.318 70.318 0 0 1 2.603 6.149 25.36 25.36 0 0 1-2.357 1.063z" fill="url(#paint29_linear)"/><path d="M79.882 515.421c-1.788 1.248-2.913 2.586-3.765 2.497-1.042-.181-1.81-1.599-2.669-2.541.94-.862 1.78-2.293 2.819-2.491.85-.196 1.901 1.219 3.615 2.535z" fill="url(#paint30_linear)"/><path d="M68.384 437.487c-1.432-1.697-3.146-3.013-2.96-3.584.463-1.142 1.97-1.914 3.004-2.871.669.849 2 1.693 2.007 2.547.008 1.044-1.024 2.096-2.05 3.908z" fill="url(#paint31_linear)"/><path d="M153.891 410.802c-1.245-1.889-2.484-3.018-2.3-3.684.369-1.237 1.495-2.385 2.53-3.152.282-.192 2.376 1.31 2.284 1.69-.367 1.427-1.303 2.763-2.514 5.146z" fill="url(#paint32_linear)"/></g><g filter="url(#filter1_f)"><path d="M1391 305.498c.9.397 1.78.793 2.69 1.167-.05.132-.11.264-.16.374-.84-.308-1.67-.594-2.51-.902-.02-.198-.02-.418-.02-.639z" fill="url(#paint33_linear)"/><path d="M1423.07 300.568c-.07-.572-.13-1.144-.2-1.805-.22.088-.5.198-1.14.462.39-.836.66-1.408.92-2.003.27-.594.51-1.21.75-1.848-.7-.243-1.14-.397-1.56-.529.04-.088.06-.176.11-.264.2.066.39.132.64.22v-1.43c-1 .902-1.88 1.562-2.58 2.377-.53.594-1.01.704-1.76.462 1.72-1.365-.68-1.783-.4-2.861-.53.154-.88.264-1.3.374-.08.66-.17 1.342-.26 2.025.04-.022.09-.044.13-.088-.37-1.079-.72-2.157-1.16-3.214-.25-.616-.93-.616-1.15-.264-.73-1.607-1.52-3.346-2.31-5.128.53-.529.53-.529 3.3-.507.33-1.849 1.59-2.377 3.24-1.32.11.066.33.22.37.198.86-.837 1.67.22 2.75.022 0 .55-.09 1.1.02 1.585.11.462.47 1.21.71 1.21 1.25.022 1.56.947 2.05 1.761.19.33.46.616.74.991.97-.903-.22-1.453-.15-2.224 1.5.683 2.97 1.343 3.92 2.796.15.242.66.528.83.44 1.33-.594 2.38-.462 3.13 1.101.24-.441.37-.705.53-.969.09 0 .22-.022.22.022.59 1.211 1.23 2.421 1.76 3.654.31.726-.31 1.122-.68 1.673-.84 1.232-2.34 1.32-3.22 2.333-.13.154-.22.484-.13.638.11.22.4.462.62.462.86-.022 1.65-.176 1.74-1.298 0-.11.13-.22.39-.573a163.02 163.02 0 0 1-.57 2.84c.09.022.2.022.29.044.04-.286.11-.573.11-.683.44-.088.81-.154 1.16-.22.31-.066.8-.286.91-.154.22.242.22.683.37 1.167.37.176.97.418 1.63.726.09-.352.15-.66.24-1.012.31.22.57.396.97.66-.13-.66-.22-1.145-.31-1.673-.22-.022-.46-.022-.84-.044.36-.33.62-.572.84-.77.44.198.82.374 1.21.55.07-.726 1.1-.704 1.06-1.761-.09-1.43-.16-3.015 1.14-4.314.44-.44 1.52-1.254.6-2.487-.44-.594-.49-1.695 0-2.509.17-.308.55-.529 1.01-.639.02-.308.02-.638.04-.946 2.42-.506 2.42-.506 2.78-2.025.37.088.75.176 1.08.264v1.871c.44-.11.85-.22 1.56-.418-.62 1.012-1.1 1.673-1.45 2.421-.09.198.24.594.46 1.057-.9.44.22 2.443-1.48 2.817.16-.594.31-1.189.47-1.783-.89.242-1.61.462-2.36.682.15.463.29.947.44 1.409-.11.044-.2.088-.31.132-.2-.33-.39-.66-.59-.99-.09 0-.18 0-.24.022-.05.33-.09.682-.18 1.298-.22-.506-.35-.792-.48-1.122-.25.55-.49 1.078-.62 1.386.84.331 1.65.507 2.27.969.63.462.59 1.144.48 2.003-.18 1.21.24 2.509.42 3.896 1.25-.529 1.36-1.431 1.32-2.267-.09-1.211.95-.991 1.5-1.211.57-.242 1.03.088 1.03.858 0 .265.33.529.64.991-1.01.022-2.18-.22-2.51.99-.15.529-.02 1.123.2 1.673.35-.506.61-1.1 1.05-1.475.38-.308.97-.352 1.48-.506.09.198.17.396.26.572-1.25.859-2.51 1.717-3.72 2.554.09.154.49.616.44.968-.06.462-.52.837-.86 1.299.58.77.95.748 1.46-.132.22-.396.68-.661.83-1.057.18-.44.16-.99.25-1.541 1.1-.11 1.98 1.035 1.49 2.29-.39 1.034-.66 2.201-1.3 3.059-.46.616-1.45.836-2.2 1.189-.13.066-.46.022-.53-.066-.63-1.013-1.58-.529-2.39-.551-.8-.022-1.32-.352-1.57-1.122-.28-.903-1.19-1.695-.66-2.774.22-.44.75-.814.77-1.254.05-.925-.13-1.871-.24-2.796-.13-.022-.24-.044-.37-.044-.62 1.233-1.24 2.466-1.79 3.566-.06-.286-.17-.858-.37-1.739-.33.705-.46 1.101-.68 1.453-.2.33-.49.616-.84 1.035.35.242.66.462 1.04.726-1.08.66-1.13 1.607-1.06 2.597.11 1.717.15 3.434.2 5.151 0 .308-.11.638-.18.968h-.42c-.04-.44-.15-.902-.13-1.343.04-1.892.13-3.807.2-5.7.04-.991-.51-1.343-1.43-1.299-.35.022-.73-.022-1.06-.11-.53-.154-.94-.33-.72-1.145.19-.726.04-1.562.04-2.663-.51.484-.75.705-1.12 1.057-.09-.507-.18-.881-.29-1.409-.29.088-.68.088-.79.264-.16.242-.2.771-.05.903.62.572.42 1.034 0 1.606-.17.22-.13.617-.22.991-.5-.176-.99-.352-1.54-.55.07.572.11.99.18 1.474.22-.198.48-.418.68-.572.09.396.27.814.27 1.233 0 .264-.4.792-.44.77-.53-.198-1.06-.44-1.48-.77-.13-.11-.02-.551-.02-1.057-.95 1.739-2.49.616-3.7.991-.51.154-1.21-.419-.64-1.123-.88-.506-1.78-.88-2.46-1.453-.62-.506-1.04-1.276-1.68-2.113.29-.594.75-1.518 1.22-2.443.06.528.15 1.057.22 1.585h.28c.18-.264.33-.55.49-.792.3.506.61.99.99 1.54.08-.44.17-.726.28-1.298.49.682.79 1.122 1.32 1.849.25-1.255.42-2.224.66-3.456-.46-.154-.94-.374-1.47-.44-.16-.022-.38.374-.64.682-.64.11-1.61-.858-2.2.242zm-5.39-7.99c1.1.881 2.79.507 3.25-.748.07-.176.03-.484-.11-.616-1.03-1.255-2.09-2.488-3.17-3.764-.41 1.43 1.19 2.575.34 3.962.17.154.33.286.5.44-.26.22-.5.462-.81.726zm27.44-2.751c.66.572 1.28 1.122 1.94 1.651.11.088.38-.044.55-.066-.02-.132-.04-.352-.09-.374-1.1-.177-.61-1.453-1.32-1.893-.11-.088-.13-.309-.2-.485-.15.11-.33.22-.44.375-.15.176-.24.418-.44.792zm-.02 8.848c-.13-.066-.28-.11-.42-.176-.22.616-.57 1.211-.57 1.827 0 .286.64.594.99.902.09-.066.18-.11.29-.176-.09-.792-.18-1.584-.29-2.377zm-12.3-3.477c.17.572.31.99.44 1.408.09.022.17.044.28.066.18-.462.38-.902.62-1.474h-1.34z" fill="url(#paint34_linear)"/><path d="M1438.63 267.332c-.07.308-.13.616-.2.969-.97-.22-1.74-.419-2-1.541-.15-.682-2.07-.726-2.64-.176-.38.374-.84.66-1.23.99-.16.132-.4.352-.38.529.02.198.22.44.4.528.33.154.7.198 1.05.264 1.19.22 1.61 1.166.93 2.575-.02-1.342-.55-2.069-1.78-2.069-.29.925-.55 1.805-.82 2.685a1.304 1.304 0 0 1-.31-.088c.03-.22.03-.44.05-.748-.4-.044-.82-.11-1.43-.198v10.345c-.09 0-.18.022-.29.022-.04-.484-.13-.969-.13-1.453 0-2.223-.02-4.468.06-6.691.07-1.277-.61-1.827-1.8-2.289-.09.924-.29 1.805-.26 2.663.04 3.852.13 7.682.17 11.534 0 .594-.09 1.188-.13 1.783h-.53c-.04-.881-.13-1.739-.13-2.62.04-2.817.15-5.634.18-8.452 0-1.166-.14-2.333-.2-3.389-.75-.507-1.41-.969-2.03-1.387.13-.814.33-1.585.35-2.355 0-.154-.59-.352-1.03-.572-.04 1.078-.09 1.826-.13 2.729-.16 0-.51.044-.84 0-1.25-.198-1.39-.154-1.36 1.1.02 2.708.11 5.415.15 8.122 0 .286-.15.573-.22.837h-.33c-.07-.396-.22-.771-.22-1.167.04-2.047.15-4.094.2-6.141.02-.748-.09-1.364-.62-2.069-.55-.77-.48-1.981-.68-3.015-.11-.55-.15-1.123-.33-1.673-.29-.924.07-2.487.79-3.17.13-.11.24-.264.29-.418.46-1.893.83-2.179 2.71-2.531.9-.176 1.76-.594 2.64-.902 0-.11 0-.198-.03-.309.4.375.82.727 1.19 1.101 1.63 1.629 3.48 2.091 4.58.814.6-.154 1.21-.33 1.81-.44.37-.066.94-.11 1.14.11.46.484 1.01 1.101 1.08 1.717.13 1.057 1.03 2.025.37 3.236-.22.528 1.08 1.298 1.94 1.21zm-13.4.484c1.12-1.012-.22-1.54-.2-2.355-1.45.727-1.89 2.223-.95 3.17.11-.33.2-.616.29-.903.09-.022.11-.066.15-.044.24.044.49.088.71.132zm.13-4.402c-.57.727-.57.727 1.52 1.453-.6-.572-1.04-.968-1.52-1.453z" fill="url(#paint35_linear)"/><path d="M1442.99 272.769c-.42.462-.77.814-1.06 1.21-.2.264-.44.595-.44.903-.02 1.937.02 3.874.05 5.811v1.584c-.16 0-.31.022-.47.022-.04-.286-.15-.572-.15-.858.02-1.277-.02-2.575.15-3.852.2-1.343-.37-2.443-.88-3.566-.04-.088-.13-.22-.22-.22-1.6-.198-.68-1.386-.41-1.739.46-.616 1.25-.528 1.95.177-.02-.353-.04-.705-.06-1.167h2.24c-.15-.726-.08-1.497-.46-1.981-.42-.572-1.21-.88-1.87-1.321.68-.462 1.32-1.276 2.53-1.43.99-.132 1.89-.705 2.93-1.123.02.066.13.308.24.55 1.32-.264 4.65 1.321 5.28 2.532-.77.77-.77 1.562.03 2.311.46.44.99.814 1.34 1.342.39.617.61 1.321.92 2.003-.11.066-.22.132-.31.198.27.177.62.287.8.507.33.418.61 1.012-.09 1.254-.93.33-.97 1.057-.97 1.761a996.14 996.14 0 0 0-.13 12.194c0 1.1.15 2.201.22 3.28.02.396-.02.814-.09 1.188-.02.132-.24.242-.4.286-.08.022-.28-.132-.3-.242-.11-.484-.22-.968-.22-1.453.04-4.578.08-9.156.15-13.712 0-.132-.07-.242-.35-.418-.11.374-.31.748-.29 1.144.02 2.443.11 4.909.16 7.352 0 .374-.09.77-.14 1.144h-.39c-.05-.308-.11-.638-.11-.946.02-2.047.02-4.116.11-6.163.04-1.101-.27-1.893-1.26-2.399-.22-.11-.61-.264-.61-.396.04-1.563-1.21-1.123-2.03-1.387-.42-.132-.77-.374-1.17-.55-.28.198-.55.418-.83.616-.2-.374-.42-.748-.6-1.123-.3-.66-.33-1.254.09-1.937.24-.396-.13-1.1-.72-.726-.84.506-1.24.264-1.63-.484-.13-.132-.49-.154-.53-.176z" fill="url(#paint36_linear)"/><path d="M1404.78 268.873c.53.066.94.11 1.72.198-.47.264-.69.462-.93.506-.29.044-.59-.044-1.12-.088 1.16 1.079 1.45 2.113 1.36 3.412-.09 1.166-1.1 1.783-1.27 2.839-.05.33-.31.639-.33.969-.03 1.694 0 3.367 0 5.062v.925c-.11 0-.22 0-.33.022v-1.057c-.03-1.607.02-3.213-.11-4.798-.09-1.167-.99-1.915-2.18-2.179-.75-.154-1.46-.396-2.38-.639-.04 1.365-.18 2.796-.15 4.226.04 2.245.19 4.469.3 6.692.03.374.11.77 0 1.078-.11.308-.46.506-.72.748-.16-.286-.46-.572-.44-.836.11-2.311.37-4.6.39-6.911.03-2.377.11-4.821-.37-7.11-.33-1.562-1.39-3.081-2.47-4.314-1.18-1.342-.99-3.83.44-4.908.53-.396 1.5-.308 2.25-.286.75.022 1.52.088 2.22.352 1.24.462 2.42 1.057 3.61 1.651.29.132.46.462.68.704 1.44 1.629 1.44 1.695.03 3.302-.09.044-.09.154-.2.44zm-2.05 5.172h.24c-.08-.616-.17-1.232-.28-1.848-.09-.023-.18-.023-.29-.045-.2.265-.39.529-.53.705.36.484.62.836.86 1.188z" fill="url(#paint37_linear)"/><path d="M1422.28 241.844c1.36.198 1.6.66 1.27 1.915-.11.462.16 1.034.29 1.805-.13.11-.53.374-.81.748-.2.264-.42.682-.36.969.42 1.474.38 2.223-.26 3.763-.11.265.04.617.09 1.321-1.15-.594-2.09-1.101-3-1.585v6.317c-.06.022-.13.022-.19.044-.05-.242-.14-.462-.14-.704 0-1.167-.06-2.355.05-3.522.2-2.025-.55-3.83-.95-5.744-.35-1.629-.09-3.368-.09-5.063 0-.11.14-.264.25-.33.61-.396.7-.638.55-1.211-.11-.374-.09-.814-.2-1.188-.46-1.695.15-3.566-1.37-5.151-1.1-1.144-.86-2.971-.5-4.578.17-.77.22-1.585.5-2.311.18-.44.75-1.012 1.1-.99.47.022 1.02.506 1.32.946.6.858.77 1.761.75 2.905-.02 1.409.2 3.016 1.37 4.204.26.265.24.793.37 1.233-.59.33-1.5.594-.44 1.475.15.132.22.506.15.704-.57 1.387.2 2.685.25 4.028z" fill="url(#paint38_linear)"/><path d="M1441.87 252.475c-1.17.132-1.48-.506-1.5-1.365 0-1.54.04-3.081.07-4.622l.33-.066c.19.198.39.374.66.638.26-1.254.19-2.597 1.67-3.323.02-1.057.22-2.289-1.28-2.972-.26-.11-.31-.77-.39-1.188-.16-.815-.22-1.651-.42-2.465-.16-.639-.44-1.145.02-1.849.24-.396.15-1.255-.13-1.673-1.01-1.519-.57-2.729.59-3.874-1.43-1.078-1.38-1.981.51-3.962.02.462.04.947.09 1.409.02.33.08.682.13 1.012.35-.088.79-.066 1.06-.286.68-.55 1.03-.374 1.47.308.26.441.75.727 1.14 1.101.14 0 .29-.022.42-.022-.26.484-.53.946-.77 1.431-.17.396-.24.836-.46 1.21-.31.528.18 1.233-.46 1.761-.2.154.15.969.26 1.497.07.352.11.682.18 1.144.2.022.48.066 1.05.132-.5 1.739-1.01 3.39-1.47 5.063-.09.286-.13.594-.15.902-.07.859-.09 1.739-.22 2.597-.05.243-.44.441-.75.749.77.264 1.05.66.26 1.188.44.331 1.1.661 1.08.903-.11.836-.44 1.651-.68 2.487-.11.396-.33.814-.33 1.233.02 2.443.06 4.908.11 7.351 0 .264-.09.528-.13.771-.09 0-.2-.022-.29-.022v-7c-.44-.132-.86-.264-1.39-.44v5.15h-.28v-4.908z" fill="url(#paint39_linear)"/><path d="M1434.65 253.311c-.03-.462-.09-.924-.09-1.386.02-2.267.06-4.534.02-6.801 0-.375-.4-.749-.62-1.123-.11.044-.22.066-.33.11-.41 1.277-.81 2.553-1.27 4.006-.38-.594-.66-1.079-.95-1.519 0-.66.05-1.342-.02-2.025-.07-.66-.11-1.254.44-1.805.18-.176.07-.638.07-.858.3-.308.59-.594.9-.858-.33-.132-.66-.265-1.01-.397h-.33c.28-1.386.63-2.773.79-4.182.04-.44-.51-.946-.88-1.54.86-.771-1.35-2.113.35-2.994-1.43-1.783-1.15-3.94-1.61-5.921-.26-1.21.75-1.76 1.41-2.421.84-.836 1.85-1.518 2.82-2.245.2-.132.46-.176.97-.352v7.131c-.38.022-.82.044-1.24.132-.13.022-.22.287-.3.441.15.066.28.198.44.198 1.05-.044.74.924.94 1.408.18.463-.24.705-.81.661-.29-.022-.62.264-1.08.506 1.34.572 1.58 1.761.88 2.927-.26.441-.4.947-.51 1.453-.15.638.07 1.475-.94 1.585.04.308-.02.66.11.924.59 1.211 1.69 1.915 2.66 2.774.29.242.53.946.38 1.254-1.52 3.126-.64 6.405-.73 9.619-.02.462 0 .902 0 1.364-.13-.088-.31-.088-.46-.066z" fill="url(#paint40_linear)"/><path d="M1454.59 262.248c-.57-.881-1.12-1.673-1.61-2.509-.15-.243-.17-.617-.13-.925.18-1.122.24-2.311 1.45-2.949.11-.066.22-.22.24-.352.29-1.563.55-3.126.82-4.689.11-.682.09-1.452.42-2.003.28-.484.99-.748 1.56-1.144-.11-.132-.44-.396-.62-.727-1.19-2.333-.06-5.788 2.27-7.065.53-.286.99-.704 1.59-1.145.61 1.409.41 2.752.28 4.16-.13 1.651-1.3 3.06-.83 4.931.24.902-.53 2.069-.93 3.081-.46 1.189-1.01 2.311-1.52 3.478-.13.33-.24.66-.35.99-.4-.176-.79-.33-1.19-.506.11-.154.22-.286.35-.44-.24.66-.48 1.343-.77 2.113.33 1.277 1.9.44 2.62 1.299-.35.044-.66.066-.72.066-.25.462-.44 1.034-.55 1.012-.95-.11-.82.638-1.02 1.145-.15.418.07 1.012-.77.968-.17.066-.39.815-.59 1.211z" fill="url(#paint41_linear)"/><path d="M1393.4 237.838c.04-1.299.86-1.761 1.74-1.431.37.154.86.22 1.23.11.79-.22 1.39.022 1.81.661.52.77.22 1.496-.38 2.069-.57.55-1.23.396-1.78-.044-.46-.374-.82-.617-1.5-.573-.39.044-.88-.594-1.12-.792z" fill="url(#paint42_linear)"/><path d="M1430.84 235.791c1.01 3.742-.38 7.198-.09 10.719-.48-1.32-1.06-2.553-.75-4.094.38-2.003.46-4.072.68-6.097-.02-.11.05-.198.16-.528z" fill="url(#paint43_linear)"/><path d="M1398.15 305.366c-1.89.463-3.63 1.079-4.97-.946 1.63.308 3.19.616 4.97.946z" fill="url(#paint44_linear)"/><path d="M1416.4 297.619c.09 1.584.18 3.125.26 4.666h-.5c-.57-1.519.04-3.06.02-4.6l.22-.066z" fill="url(#paint45_linear)"/><path d="M1440.17 294.295c-.64-.88.09-1.475.53-2.091.51-.682.88-.286 1.08-.044-.53.726-1.04 1.387-1.61 2.135z" fill="url(#paint46_linear)"/><path d="M1438.63 267.332a77.84 77.84 0 0 1-.44-1.607c.2-.11.51-.286.79-.484.27-.176.51-.374.77-.55.11.066.22.132.31.198-.15.308-.28.616-.46.924-.31.529-.64 1.013-.97 1.519z" fill="url(#paint47_linear)"/><path d="M1436.08 268.741c.46.066.99.088 1.52.22.22.066.55.308.57.484.02.22-.2.66-.33.683-.27.022-.6-.155-.82-.331-.37-.308-.63-.704-.94-1.056z" fill="url(#paint48_linear)"/><path d="M1440.66 311.815v-3.037c.08 0 .17 0 .26-.022.07 1.013.15 2.025.22 3.015-.18.022-.33.044-.48.044z" fill="url(#paint49_linear)"/><path d="M1396 241.558c-.44.308-.71.638-.91.594-.22-.022-.48-.374-.52-.638-.03-.132.33-.506.52-.506.22.022.47.286.91.55z" fill="url(#paint50_linear)"/><path d="M1400.24 246.378c-.46.286-.72.594-.94.572-.22-.022-.4-.396-.6-.616.2-.176.4-.484.6-.484.26 0 .5.264.94.528z" fill="url(#paint51_linear)"/><path d="M1417.68 292.578c.3-.286.55-.506.79-.726-.18-.154-.35-.286-.51-.44.88-1.387-.72-2.532-.33-3.962 1.08 1.276 2.14 2.509 3.17 3.764.11.132.18.44.11.616-.44 1.255-2.13 1.651-3.23.748z" fill="url(#paint52_linear)"/><path d="M1423.07 300.568c.59-1.1 1.58-.132 2.18-.374.26-.308.48-.704.64-.682.52.066 1.03.286 1.47.44-.24 1.254-.42 2.223-.66 3.455-.53-.726-.84-1.166-1.32-1.848-.13.572-.2.88-.29 1.298-.35-.572-.66-1.056-.99-1.541-.15.243-.33.529-.48.793h-.29c-.06-.528-.15-1.057-.22-1.585-.02 0-.04.044-.04.044z" fill="url(#paint53_linear)"/><path d="M1445.12 289.827c.2-.374.29-.616.44-.814.11-.155.29-.243.44-.375.07.154.09.397.2.485.71.462.22 1.716 1.32 1.893.05 0 .07.242.09.374-.2.022-.46.154-.55.066-.66-.485-1.28-1.057-1.94-1.629z" fill="url(#paint54_linear)"/><path d="M1445.1 298.675c.09.793.18 1.585.27 2.399-.09.066-.18.11-.29.176-.35-.308-.99-.616-.99-.902 0-.616.37-1.211.57-1.827.18.044.31.088.44.154z" fill="url(#paint55_linear)"/><path d="M1432.8 295.198h1.32c-.24.572-.42 1.012-.62 1.474-.09-.022-.17-.044-.28-.066-.14-.418-.25-.836-.42-1.408z" fill="url(#paint56_linear)"/><path d="M1425.23 267.816c-.22-.044-.47-.088-.71-.132-.02 0-.06.022-.15.044-.09.265-.18.573-.29.903-.94-.947-.5-2.443.95-3.17-.05.815 1.32 1.343.2 2.355z" fill="url(#paint57_linear)"/><path d="M1425.36 263.414c.48.463.92.881 1.52 1.453-2.09-.726-2.09-.726-1.52-1.453z" fill="url(#paint58_linear)"/><path d="M1402.73 274.045c-.24-.352-.5-.704-.83-1.188.13-.176.33-.44.52-.705.09.022.18.022.29.045.09.616.18 1.232.29 1.848h-.27z" fill="url(#paint59_linear)"/></g><g filter="url(#filter2_f)"><path d="M927.588 101.223c.063-2.561.02-4.651.355-6.732.004-.19 3.22-.11 3.218-.016.324 2.192.365 4.377.408 6.467 1.229 3.923 3.68 8.161 3.3 12.044-.233 1.798-1.548 9.077-7.531 6.081-1.389 2.625-2.58 4.874-3.682 7.315-1.703 3.851-5.157 5.76-8.621 4.251-3.091-1.311-5.57-4.41-7.678-7.215-1.831-2.514-3.784-3.891-6.557-2.725-4.308 1.983-7.68.571-10.54-2.443-2.029-2.139-1.568-9.343.193-11.674.293-.372.688-1.027.877-1.023 5.437 2.128 7.076-2.959 10.163-5.351 4.924-3.962 11.346-3.424 15.112 1.226 1.561 1.937 3.15 2.736 5.647 1.278 1.818-.809 3.905-1.043 5.336-1.483z" fill="url(#paint60_linear)"/><path d="M1026.84 52.205c-.72-1.537-1.53-3.361-2.34-5.185-.86.454-1.72.907-2.11 1.182-.72-1.536-1.71-3.46-2.51-5.378-2.06-4.703-3.38-8.819-.78-14.451 2.6-5.728 5.88-8.496 11.68-9.587.76-.172 1.37-1.676 2.05-2.608.79-1.026 1.47-1.958 2.25-2.983.74 1.062 1.47 2.124 2.2 3.187.64.965.88 2.68 1.63 2.983 5.25 2.028 4.43 8.37 8.14 11.31-1.65 1.668.95 3.915-1.47 6.135-2.81 2.494-4.61 6.438-6.12 10.103-1.31 3.101-2.94 4.01-5.64 2.425-4.3-2.29-6.23-.628-6.98 2.867z" fill="url(#paint61_linear)"/><path d="M1141.85 151.215c-6 1.561-12 3.028-17.91 4.686-.86.264-1.46 1.484-2.14 2.321-2.54 3.166-5.67 3.469-9.13 1.675-3.74-1.896-4.04-5.037-2.54-8.323.6-1.315 2.43-2.599 3.76-2.756 5.6-.527 9.02-4.905 13.71-6.974 2.2-.99 4.31-2.172 6.42-3.45 1.73-1.002 3.37-2.29 5.19-3.1 1.72-.717 4.02-1.8 5.42-1.196 1.88.806 3.53 2.935 4.33 4.854.27.671-2.14 2.511-3.12 3.911-1.67 2.332-3.24 4.762-4.81 7.097.27.387.54.868.82 1.255z" fill="url(#paint62_linear)"/><path d="M923.352 38.74c-3.522-3.03-7.698-6.361-4.548-11.316 1.376-2.055 5.653-2.804 8.682-2.825 1.042-.069 3.131 3.495 3.274 5.398.367 4.282-3.126 7.803-7.408 8.743z" fill="url(#paint63_linear)"/><path d="M1064.2 25.874c2.65.16 3.62 2.938 3.53 6.828-.07 2.657-4.07 7.496-6.43 7.438-2.56.032-6.32-4.808-6.33-8.226-.18-4.277 1.75-5.844 9.23-6.04z" fill="url(#paint64_linear)"/><path d="M972.271 8.326c.011 3.418-2.666 4.492-4.919 3.772-1.691-.517-3.614-3.127-3.946-5.035-.412-2.478 1.436-4.522 4.361-4.165 2.828.45 4.872 2.019 4.504 5.428z" fill="url(#paint65_linear)"/><path d="M961.777 150.202c1.065 2.875 2.035 5.747 3.01 8.43 1.989-.046 4.18-.657 5.961.051 1.22.41 1.831 2.514 2.744 3.866-1.437.724-2.785 1.64-4.31 2.078-1.43.439-2.946.497-5.133.918-.732-4.861-1.455-10.1-2.272-15.343.002-.095 0 0 0 0z" fill="url(#paint66_linear)"/><path d="M1079.57 32.234c-.96.546-3 2.774-4.32 2.362-1.88-.52-4.09-2.854-4.33-4.569-.16-1.333 2.47-4.212 4.08-4.362 2.75-.407 4.88 1.64 4.57 6.569z" fill="url(#paint67_linear)"/><path d="M982.121 211.848c-1.546 1.292-2.711 2.497-4.054 3.224-.957.451-2.953.782-3.225.3-.731-1.062-.88-2.68-1.129-4.11-.246-1.525-.587-3.053-.268-4.469.318-1.417 1.391-2.719 2.183-4.124.542 1.058 1.081 2.21 1.815 3.178.546.868 1.192 1.548 1.835 2.324.729 1.157 1.557 2.127 2.843 3.677z" fill="url(#paint68_linear)"/><path d="M1007.81 190.928c-1.81-3.463-3.55-5.595-3.87-7.976-.32-2.477 1.61-3.948 4.34-3.406 3.77.757 4.35 3.904 4.09 6.841-.22 1.134-2.14 2.226-4.56 4.541z" fill="url(#paint69_linear)"/><path d="M1157.79 133.852c-4.16-.102-8.34.839-9.36-4.028-.25-1.241 2.19-4.314 3.42-4.379 4.83.024 5.1 4.114 5.94 8.407z" fill="url(#paint70_linear)"/><path d="M994.589 105.151c-2.015-2.708-4.335-4.57-4.024-5.701.515-1.697 2.818-2.97 4.274-4.453 1.381 1.554 3.522 3.03 4.045 4.847.163 1.049-2.246 2.793-4.295 5.307z" fill="url(#paint71_linear)"/><path d="M1107.66 113.629c-1.39-1.268-3.25-2.358-4.16-3.995-.82-1.444-.86-3.439-.63-5.142.11-.662 2.31-1.747 2.87-1.449 1.59.989 3.54 2.366 3.98 3.991.52 1.817-.29 4.075-.53 6.158-.58.176-1.05.354-1.53.437z" fill="url(#paint72_linear)"/><path d="M986.76 173.319c-1.913-2.99-4.044-4.846-3.728-6.168.42-1.699 2.628-2.974 4.084-4.457 1.386 1.364 3.813 2.752 3.778 4.176.052 1.71-1.978 3.464-4.134 6.449z" fill="url(#paint73_linear)"/><path d="M933.318 164.504c-2.884 1.828-4.446 3.783-5.86 3.559-1.417-.13-2.69-2.25-3.983-3.517 1.449-1.198 2.723-2.971 4.337-3.216 1.235-.159 2.708 1.491 5.506 3.174z" fill="url(#paint74_linear)"/><path d="M1112.13 47.562c4.73-.074 7.51 2.178 8.34 6.851-6.71-.26-8.66-1.827-8.34-6.851z" fill="url(#paint75_linear)"/><path d="M1086.95 93.846c4.74 3.345 4.74 7.237-.31 12.715.11-4.745.2-8.35.31-12.715z" fill="url(#paint76_linear)"/><path d="M1075.04 185.65c-3.75-1.516-5.02-3.731-3.71-6.927.3-.657 2.49-1.458 2.96-1.066 2.6 2.057 2.25 4.707.75 7.993z" fill="url(#paint77_linear)"/><path d="M1045.15 184.915c-2.02 1.375-3.76 2.851-4.04 2.559-1.48-1.175-2.67-2.914-3.96-4.37.96-.735 2.23-2.318 2.79-2.02 1.69.706 2.98 2.162 5.21 3.831z" fill="url(#paint78_linear)"/><path d="M1113.66 181.474c4.18 2.951 4.31 5.518 2.64 8.135-.5.747-2.48.509-3.71.668.35-2.555.6-5.112 1.07-8.803z" fill="url(#paint79_linear)"/><path d="M1124.15 224.173c-1.37-1.743-2.94-3.396-4.03-5.321-.36-.674.43-2.079.74-3.21 1.03.405 2.73.636 3 1.308.8 2.108 1.12 4.395 1.63 6.591-.57.176-.95.357-1.34.632z" fill="url(#paint80_linear)"/><path d="M1089.17 84.406c-1.83 1.379-3.29 3.052-3.85 2.753-1.22-.505-2.61-1.963-2.86-3.298-.17-.859 1.87-2.992 2.35-2.886 1.4.51 2.41 1.864 4.36 3.43z" fill="url(#paint81_linear)"/><path d="M1048.13 75.42l.71-5.869c1.32.223 2.73.447 4.05.67-.52 1.886-1.13 3.865-1.65 5.75-1.04-.12-2.08-.335-3.11-.55z" fill="url(#paint82_linear)"/><path d="M1158.71 223.694c-3.09-1.311-4.94-3.065-4.1-6.463.1-.377 2.1-.992 2.66-.599 2.51 1.771 3.12 4.065 1.44 7.062z" fill="url(#paint83_linear)"/><path d="M1041.15 59.203c-2.22 1.75-3.87 3.228-5.7 4.417-.09.093-1.75-1.847-1.65-2.034a54.098 54.098 0 0 1 4.66-4.728c.09.002 1.39 1.174 2.69 2.345z" fill="url(#paint84_linear)"/><path d="M997.916 212.237c-.038-2.28.018-4.557-.018-6.932.945.024 2.472-.414 2.832.07 2.12 2.521 1.02 4.773-.64 6.821-.753-.019-1.512.057-2.174.041z" fill="url(#paint85_linear)"/><path d="M967.264 42.573c1.474 1.65 3.146 2.926 3.037 3.493-.411 1.32-1.858 2.423-2.831 3.538-.831-.874-2.323-1.766-2.299-2.715-.162-1.143 1.004-2.349 2.093-4.316z" fill="url(#paint86_linear)"/><path d="M1133.17 265.506c-2.05-1.474-4-3.041-6.04-4.516.58-.555 1.65-1.668 1.74-1.571a91.996 91.996 0 0 1 5.27 5.162c-.29.277-.68.553-.97.925z" fill="url(#paint87_linear)"/><path d="M1027.31 190.743c-1.46-2.125-2.76-3.296-3.1-4.729-.17-.669 1.65-1.668 2.61-2.499.92 1.257 2.12 2.426 2.66 3.768.27.576-.9 1.687-2.17 3.46z" fill="url(#paint88_linear)"/><path d="M1103.27 126.624c-.89-2.111-1.69-4.219-2.59-6.33.96-.262 2.58-.981 2.58-.886.9 2.016 1.7 4.124 2.4 6.23-.76.361-1.62.72-2.39.986z" fill="url(#paint89_linear)"/><path d="M981.33 274.778c-1.003-1.543-1.927-2.421-1.823-2.798.701-1.597 1.682-2.997 2.665-4.492.833.78 2.415 1.864 2.309 2.336-.605 1.504-1.775 2.899-3.151 4.954z" fill="url(#paint90_linear)"/><path d="M963.431 190.69c-1.828 1.19-2.995 2.49-3.844 2.374-1.036-.215-1.757-1.657-2.585-2.627.967-.831 1.853-2.233 2.898-2.397.856-.169 1.861 1.28 3.531 2.65z" fill="url(#paint91_linear)"/><path d="M954.473 112.424c-1.377-1.743-3.046-3.113-2.843-3.678.501-1.127 2.033-1.849 3.096-2.772.641.87 1.944 1.757 1.923 2.611-.025 1.043-1.091 2.062-2.176 3.839z" fill="url(#paint92_linear)"/><path d="M1040.8 88.533c-1.18-1.928-2.38-3.097-2.18-3.757.41-1.224 1.57-2.335 2.63-3.068.29-.183 2.34 1.386 2.23 1.764-.41 1.414-1.39 2.719-2.68 5.06z" fill="url(#paint93_linear)"/></g><g opacity=".85" filter="url(#filter3_f)"><path opacity=".85" d="M421.931 350.352c-1.523-1.27-5.586-2.031-5.332-5.078-4.57-3.555-3.047-8.888-4.317-13.458 2.286-.254.508-2.285 1.016-3.809 0-1.27-1.523-2.285-1.269-3.555 1.523-.762 1.523 2.539 3.047.762 2.793-3.047-1.524-6.348-.508-9.395 2.031 1.523 1.269 5.586 4.316 5.586 1.524-1.777 3.555-4.317 3.555-6.094-1.015.508-2.793 1.016-3.808.254-.508-.762.507-1.524 1.269-1.524 1.778-.508 3.301.254 4.571.254 2.285-1.523 3.047-4.063 3.555-6.348-.762-.508-.762-1.777-.508-2.539.508-3.047 4.57-3.047 4.824-6.348.508-2.285-1.015-3.809-.508-6.094.762-.508 1.524-.762 2.286-.254 2.031 2.031-.762 4.824 2.285 6.348 1.016.254 1.27-1.016 1.777-1.778-1.269-2.031 0-4.062-.507-6.094.507.762 1.015-.254 1.523-.254 1.524 4.063-1.269 9.396 2.032 12.189.761-.254 1.523-1.27 2.031-.508.254.762.254 1.777 1.016 2.539 4.57.508 6.855-4.824 10.918-5.84-3.301 2.285-4.824 7.364-6.602 9.903 1.778-2.539 5.587-2.793 7.364-3.301-2.793 3.301-4.571 4.57-7.872 6.856.254 4.062 1.778 7.871 3.555 11.172 1.778 1.016 5.079-1.523 6.094 1.524-1.523 1.777-3.808-.762-5.84.254-.762 1.523-3.301 1.523-3.555 3.301.508.254 1.524.254 1.016 1.015-.762 1.016-3.555 1.016-2.539 2.793.508.508 1.015 1.27 1.777 1.27-.508.508-1.269 1.016-1.777 1.524 1.777 2.793 3.301-1.27 5.332-.254-5.84 3.809-8.633 10.918-14.473 14.473-5.079 1.27-10.919 3.555-15.744.508z" fill="url(#paint94_linear)"/><path opacity=".3" d="M420.408 343.496l-.254.508v-.254l.254-.254z" fill="url(#paint95_linear)"/><path opacity=".85" d="M495.061 336.132c-.508-2.031 0-4.062 2.031-4.824 2.032-.762 4.317-.254 5.587 1.016 1.269 1.523-.762 2.539-.508 4.062-1.778 2.286-5.586 1.524-7.11-.254z" fill="url(#paint96_linear)"/><path opacity=".3" d="M422.439 336.64l-.254 1.016.254-.508v-.508z" fill="url(#paint97_linear)"/><path opacity=".3" d="M418.123 336.64l.254.762-.254-.254v-.508z" fill="url(#paint98_linear)"/><path opacity=".3" d="M419.646 333.593h-.508v-.254l.508.254z" fill="url(#paint99_linear)"/><path opacity=".3" d="M421.932 330.292l.507.508-.507-.508z" fill="url(#paint100_linear)"/><path opacity=".85" d="M481.857 329.784c-2.793.508-5.84-.253-8.633-.761-.508-1.016.254-1.524 1.015-1.778 3.047 1.016 6.856-.254 9.395 1.524-.254.762-1.269 2.285-1.777 1.015z" fill="url(#paint101_linear)"/><path opacity=".3" d="M415.33 329.784l.254.508-.254-.254v-.254z" fill="url(#paint102_linear)"/><path opacity=".3" d="M478.048 329.023c-.762.254 0-.254-.254-.508.508 1.523.762-.254 1.778.254l-1.016 1.269c-.254-.507-.508-.761-.508-1.015z" fill="url(#paint103_linear)"/><path opacity=".3" d="M479.825 329.531l.254-.762c1.016.254-.761.762.254 1.015-.254-.253-.508-.253-.508-.253z" fill="url(#paint104_linear)"/><path opacity=".3" d="M475.509 329.023c.254-.508 0-1.016.508-1.016-.254.254 0 1.016-.508 1.016z" fill="url(#paint105_linear)"/><path opacity=".3" d="M447.07 326.483c.254-.507.508-.253.254.254-.254 0-.254-.254-.254-.254z" fill="url(#paint106_linear)"/><path opacity=".3" d="M418.63 325.214c.508 0 .762.254 1.016.508-.762.761-1.016 0-1.016-.508z" fill="url(#paint107_linear)"/><path opacity=".3" d="M451.64 324.96h-.254v.762h.254v-.762z" fill="url(#paint108_linear)"/><path opacity=".3" d="M448.085 321.913l.508-1.016.254 1.524c-.254-.254-.254-.762-.762-.508z" fill="url(#paint109_linear)"/><path opacity=".85" d="M631.163 308.963c-1.778-2.032-.508-4.571-.762-6.602 2.539.762 2.285-2.285 4.571-2.539 1.777-3.301 4.316-6.348 5.078-10.157 1.27.508-.762 3.301.762 4.824 1.777 2.286 4.316.508 6.348.254 2.031-1.269 3.555-3.555 5.84-3.047-6.348 3.047-3.555 11.173-8.887 14.728-3.047 2.031-5.587 6.348-9.649 4.316-1.778.762-2.286-.761-3.301-1.777z" fill="url(#paint110_linear)"/><path opacity=".3" d="M447.578 309.217l.254.508-.254-.508z" fill="url(#paint111_linear)"/><path opacity=".85" d="M461.289 309.217c.762-.508 0-1.778 1.016-2.286-1.016.508.254 2.286-1.016 2.286z" fill="url(#paint112_linear)"/><path opacity=".3" d="M450.625 308.963c.253-.762 1.015-.254 1.269-.508.254.254-.762.762-1.269.508z" fill="url(#paint113_linear)"/><path opacity=".85" d="M462.559 308.963l.508-.508-.508.508z" fill="url(#paint114_linear)"/><path opacity=".85" d="M608.056 305.916c-5.333-2.285-8.887-5.84-12.696-9.903.508-1.016-1.016-2.285.761-2.285 1.27-.508 2.032.761 3.048 1.015 3.808 3.301 7.109 7.364 11.426 9.903 1.016.762 3.047 1.524 2.031 3.555-1.777 2.031-3.808-1.016-4.57-2.285z" fill="url(#paint115_linear)"/><path opacity=".85" d="M463.575 307.947l.254-.762-.254.762z" fill="url(#paint116_linear)"/><path opacity=".85" d="M463.828 305.916l-.507.762c.253 0 0-.508.507-.762z" fill="url(#paint117_linear)"/><path opacity=".85" d="M464.082 305.916l.508-.254c.254.508.254.762-.254 1.016-.254.253 0-.508-.254-.762z" fill="url(#paint118_linear)"/><path opacity=".85" d="M543.306 292.204c-1.016-2.285 1.524-4.571.508-6.856.508-2.031 2.793-3.301 4.57-4.317 2.032 1.524 4.063-3.047 5.333.254 1.016-.761 3.301-.761 2.793-2.539-2.285-1.523-3.047-4.824-6.094-4.824-.508-.508.508-1.016 1.016-1.524.507-1.777-2.032-2.031-2.54-3.047l1.524-1.523-1.27-1.524c.508-.762 2.286-1.27 1.524-2.539-.508-2.032-2.793-.508-2.539-2.539.761-.508 1.777.761 2.793.507 1.523-1.777 1.269-4.062.254-5.078.761-.508 1.777 0 2.793-.254.762-1.269 2.031-2.539 1.015-4.063 1.016-1.015 1.524.762 2.286.508-.508-2.031 3.047-2.031 1.523-4.316 1.524.253.508 2.031 1.778 2.285 6.094 2.285 8.125-4.825 13.711-3.555-.507 2.793 2.794 5.332 1.524 8.125 1.27 2.54 3.555 1.016 5.332 1.016.762 1.27.254 3.301.762 4.317 2.031-1.778 4.063 1.015 6.094-.762-4.824 2.031-7.871 8.633-13.458 10.665-.507 1.015-2.793 2.285-1.523 4.062 1.523 1.778 3.047 3.048 4.824 3.301 1.778 1.016-.254 2.794 1.778 3.555-1.778 1.016-3.047-2.285-5.333-1.269-1.269-1.27-2.285-3.301-4.316-3.809-3.047-.762-5.586 1.523-8.38 1.523-2.285 1.778-4.57 3.047-6.094 5.333 2.286 3.047 4.825-2.539 8.126-.762 1.015.508 1.269 1.777.508 2.539-1.524 1.524-5.587 1.778-4.317 4.825.254 1.015 2.031 2.539.508 3.555-2.286 3.301-6.094 4.062-10.411 3.301-3.301-.762-4.825-2.794-6.602-4.571z" fill="url(#paint119_linear)"/><path opacity=".85" d="M589.773 289.411c1.778 1.016-.507 1.016-.254 1.777-.507-.761-1.015-1.777.254-1.777z" fill="url(#paint120_linear)"/><path opacity=".85" d="M528.07 276.969c0-.762.254-2.032.762-2.793 1.016-.762 1.778-1.778 3.047-1.524.508 1.016 1.016 2.539.254 3.555-.762.762-1.016 1.524-2.031 1.777-.762 0-1.524-.253-2.032-1.015z" fill="url(#paint121_linear)"/><path opacity=".3" d="M530.102 276.715c-.508.254-.508-.508-.254-.762v.254l.762-.254c-1.016.762.508 1.016 1.016.762-.762.254-1.27.762-1.524 0z" fill="url(#paint122_linear)"/><path opacity=".85" d="M448.593 275.191c-3.047-3.301-.508-7.617-.762-11.426 3.555 0 3.809-4.571 6.856-6.094.254.762-.761 1.777-1.015 2.539l-.762-.762c.254.762-.508.762-.254 1.778v-.254c-.254.761-2.031 1.523-.508 1.777-.508 1.016-2.031 1.016-3.301 1.016 1.778 1.269-1.016 1.523 1.016 2.031-.762.762-.762-1.015-1.524 0-1.269 2.032-.508 5.079.254 7.364.508-.508-.254-1.777.762-2.031-.508 2.031 3.047.507 2.539 2.793 1.524-.762 1.524-1.524 2.285-2.539-.761-1.524-2.031.507-2.793-.762 1.524-1.016-.761-2.286 1.27-3.301-1.27 1.269-.508 1.777-.762 3.301.762-1.27 2.032.254 2.539-.762l-1.015-.762c1.269.508 1.015-1.777 1.777-2.793l.254.254c.508-.254 0-.762 0-1.016l.762.508c2.285-2.285-.508-5.586 2.031-7.364.762 1.524-1.523 3.047.508 4.317 0 4.571-.762 9.141-4.571 11.68-1.523 2.032-3.808.508-5.586.508z" fill="url(#paint123_linear)"/><path opacity=".3" d="M530.356 274.683h-.254v.762h.254v-.762z" fill="url(#paint124_linear)"/><path opacity=".3" d="M451.386 273.922c-.507.254.762.508-.254.761l.254-.761z" fill="url(#paint125_linear)"/><path opacity=".85" d="M450.371 271.89c-.254-.761.507-.254.761-.761-.508.761.508 1.015.762 1.777-.508-.762-.762-1.27-1.523-1.016z" fill="url(#paint126_linear)"/><path opacity=".85" d="M451.894 271.89l-.254-.508.254.508z" fill="url(#paint127_linear)"/><path opacity=".3" d="M455.449 271.383c.762-.762-.762-.508.508-.508-.508.254 0 .761-.508.508z" fill="url(#paint128_linear)"/><path opacity=".85" d="M450.117 271.129c0-.254 0-.508.254-.508 0 0 .254.508-.254.508z" fill="url(#paint129_linear)"/><path opacity=".85" d="M448.593 269.859c.762.762.508-.762.762-.508-.254 1.016.508 1.016-.254 1.524-.508.254 0-.762-.508-1.016z" fill="url(#paint130_linear)"/><path opacity=".85" d="M453.164 268.335h-.254v1.27h.254v-1.27z" fill="url(#paint131_linear)"/><path opacity=".3" d="M455.195 268.335c.254.254-.254.508-.507.508.253-.254.507-.254.507-.508z" fill="url(#paint132_linear)"/><path opacity=".3" d="M456.211 268.335c.508-.253.254.254.254.508-.254-.254-.508-.508-.254-.508z" fill="url(#paint133_linear)"/><path opacity=".85" d="M449.609 267.828l-.508.761-.254-.761h.762z" fill="url(#paint134_linear)"/><path opacity=".85" d="M425.994 267.574l-.254.761h-.508l.762-.761z" fill="url(#paint135_linear)"/><path opacity=".85" d="M453.418 267.828c.508-.508.508-.508.762.254-.254-.508-.508-.254-.762-.254z" fill="url(#paint136_linear)"/><path opacity=".85" d="M505.726 265.796c-.254-3.301 2.539-5.84 5.332-7.11 1.777 1.524 2.285 4.317 2.793 6.348-.508 1.27-2.031 2.286-3.047 2.794-2.285 0-4.571.254-5.078-2.032z" fill="url(#paint137_linear)"/><path opacity=".85" d="M461.797 263.257c-.508-4.317 3.301-6.094 5.587-8.887.761.254 1.523 1.523 2.285.508.254 2.539 1.777 4.062 4.063 5.84.507 1.523.254 3.301-1.27 4.57-2.031 3.047-4.063-1.777-6.094 1.524-2.285.508-4.063-1.524-4.571-3.555z" fill="url(#paint138_linear)"/><path opacity=".85" d="M453.418 265.034l-.254-.761.254.761z" fill="url(#paint139_linear)"/><path opacity=".85" d="M450.371 264.527l-.508-.254.508.254z" fill="url(#paint140_linear)"/><path opacity=".3" d="M467.891 264.019c-.254-.508-.508-.254-.761.254 0-1.778 2.031-5.333.253-5.333v1.016c-.507-.762-2.031-.508-2.285-1.524h1.524l-.508.508c.508.762 1.016-.254 1.523 0 .762-1.015-.507-2.031 1.016-2.285.508.762-.254 1.27.508 1.777.254-1.269.508-.253 1.523-.507l-.507.507c0-.253-.254-.253-.254-.253-1.016.507 0 2.031-1.524 2.539 1.27-.254.762 2.031 1.016 3.047-.254-1.27-1.27-.762-1.778.254h.254z" fill="url(#paint141_linear)"/><path opacity=".3" d="M470.938 262.749c.254-.254.762 0 1.016-.508 1.015.254-1.016.508-1.016.508z" fill="url(#paint142_linear)"/><path opacity=".85" d="M457.227 262.749l-1.016.508.254-.762.762.254z" fill="url(#paint143_linear)"/><path opacity=".3" d="M467.637 261.48c.254 0 .762.253 1.016.253h-.254l.254 1.016c-.762 0-.762-1.523-1.016-1.269z" fill="url(#paint144_linear)"/><path opacity=".3" d="M469.922 262.495l-.253-1.523.253 1.523z" fill="url(#paint145_linear)"/><path opacity=".3" d="M466.114 261.48c.508.507.254 0 .254.761l-.254-.761z" fill="url(#paint146_linear)"/><path opacity=".3" d="M511.312 261.48c.254 0 .254-.254.508-.254v.761s-.508 0-.508-.507z" fill="url(#paint147_linear)"/><path opacity=".3" d="M465.352 262.241l.508-.761-.508.761z" fill="url(#paint148_linear)"/><path opacity=".3" d="M470.684 261.48c.508 0 .508-.254.254-.508.508.254.254.761.254.761l-.508-.253z" fill="url(#paint149_linear)"/><path opacity=".3" d="M464.336 261.226l.254.507h-.254v-.507z" fill="url(#paint150_linear)"/><path opacity=".85" d="M489.982 260.972l-.253.508h-.254l.507-.508z" fill="url(#paint151_linear)"/><path opacity=".3" d="M465.606 260.972v.254h-.762l.762-.254z" fill="url(#paint152_linear)"/><path opacity=".85" d="M488.459 259.956l-.254 1.016.254-.254v-.762z" fill="url(#paint153_linear)"/><path opacity=".85" d="M455.449 260.718l1.016-.762c-.254 0-.254 1.27-1.016.762z" fill="url(#paint154_linear)"/><path opacity=".85" d="M424.217 252.592l.762-.254c-.254.508-.508.254-.762.254z" fill="url(#paint155_linear)"/><path opacity=".85" d="M579.363 236.595c-1.016-1.777-.254-4.062.508-5.586 2.285-1.524 4.824-4.063 7.871-2.539 1.016.508 1.778 1.523 2.54 2.539-.508 1.777.761 4.571-1.27 6.094-2.539 2.285-7.618 3.555-9.649-.508z" fill="url(#paint156_linear)"/><path opacity=".85" d="M505.218 235.326c-1.016-2.032.761-3.555 1.523-4.825 1.524-1.016 3.555-2.031 5.333-1.016 1.015.254 1.523 1.016 2.031 2.032 0 1.523-.508 3.809-2.031 4.824-1.778 2.286-6.095 1.778-6.856-1.015z" fill="url(#paint157_linear)"/></g><defs><filter id="filter0_f" x=".883" y="325.565" width="278.092" height="275.318" filterUnits="userSpaceOnUse" color-interpolation-filters="sRGB"><feFlood flood-opacity="0" result="BackgroundImageFix"/><feBlend in="SourceGraphic" in2="BackgroundImageFix" result="shape"/><feGaussianBlur stdDeviation="1" result="effect1_foregroundBlur"/></filter><filter id="filter1_f" x="1389" y="219" width="74" height="98.117" filterUnits="userSpaceOnUse" color-interpolation-filters="sRGB"><feFlood flood-opacity="0" result="BackgroundImageFix"/><feBlend in="SourceGraphic" in2="BackgroundImageFix" result="shape"/><feGaussianBlur stdDeviation="1" result="effect1_foregroundBlur"/></filter><filter id="filter2_f" x="886.925" y=".858" width="274.729" height="275.921" filterUnits="userSpaceOnUse" color-interpolation-filters="sRGB"><feFlood flood-opacity="0" result="BackgroundImageFix"/><feBlend in="SourceGraphic" in2="BackgroundImageFix" result="shape"/><feGaussianBlur stdDeviation="1" result="effect1_foregroundBlur"/></filter><filter id="filter3_f" x="410" y="226" width="245" height="127.866" filterUnits="userSpaceOnUse" color-interpolation-filters="sRGB"><feFlood flood-opacity="0" result="BackgroundImageFix"/><feBlend in="SourceGraphic" in2="BackgroundImageFix" result="shape"/><feGaussianBlur stdDeviation="1" result="effect1_foregroundBlur"/></filter><linearGradient id="paint0_linear" x1="162.136" y1="395.457" x2="162.785" y2="477.439" gradientUnits="userSpaceOnUse"><stop stop-color="#211010"/><stop offset=".464" stop-color="#3E0909"/><stop offset="1" stop-color="#640000"/></linearGradient><linearGradient id="paint1_linear" x1="25.708" y1="420.392" x2="26.002" y2="457.456" gradientUnits="userSpaceOnUse"><stop stop-color="#211010"/><stop offset=".464" stop-color="#3E0909"/><stop offset="1" stop-color="#640000"/></linearGradient><linearGradient id="paint2_linear" x1="143.472" y1="335.707" x2="143.782" y2="374.907" gradientUnits="userSpaceOnUse"><stop stop-color="#211010"/><stop offset=".464" stop-color="#3E0909"/><stop offset="1" stop-color="#640000"/></linearGradient><linearGradient id="paint3_linear" x1="243.973" y1="452.934" x2="244.193" y2="480.665" gradientUnits="userSpaceOnUse"><stop stop-color="#211010"/><stop offset=".464" stop-color="#3E0909"/><stop offset="1" stop-color="#640000"/></linearGradient><linearGradient id="paint4_linear" x1="35.461" y1="350.609" x2="35.574" y2="364.848" gradientUnits="userSpaceOnUse"><stop stop-color="#211010"/><stop offset=".464" stop-color="#3E0909"/><stop offset="1" stop-color="#640000"/></linearGradient><linearGradient id="paint5_linear" x1="172.535" y1="347.437" x2="172.649" y2="361.771" gradientUnits="userSpaceOnUse"><stop stop-color="#211010"/><stop offset=".464" stop-color="#3E0909"/><stop offset="1" stop-color="#640000"/></linearGradient><linearGradient id="paint6_linear" x1="78.276" y1="327.559" x2="78.35" y2="336.973" gradientUnits="userSpaceOnUse"><stop stop-color="#211010"/><stop offset=".464" stop-color="#3E0909"/><stop offset="1" stop-color="#640000"/></linearGradient><linearGradient id="paint7_linear" x1="82.92" y1="474.918" x2="83.041" y2="490.242" gradientUnits="userSpaceOnUse"><stop stop-color="#211010"/><stop offset=".464" stop-color="#3E0909"/><stop offset="1" stop-color="#640000"/></linearGradient><linearGradient id="paint8_linear" x1="186.404" y1="346.785" x2="186.476" y2="355.817" gradientUnits="userSpaceOnUse"><stop stop-color="#211010"/><stop offset=".464" stop-color="#3E0909"/><stop offset="1" stop-color="#640000"/></linearGradient><linearGradient id="paint9_linear" x1="94.73" y1="526.978" x2="94.832" y2="539.915" gradientUnits="userSpaceOnUse"><stop stop-color="#211010"/><stop offset=".464" stop-color="#3E0909"/><stop offset="1" stop-color="#640000"/></linearGradient><linearGradient id="paint10_linear" x1="124.334" y1="502.737" x2="124.424" y2="514.214" gradientUnits="userSpaceOnUse"><stop stop-color="#211010"/><stop offset=".464" stop-color="#3E0909"/><stop offset="1" stop-color="#640000"/></linearGradient><linearGradient id="paint11_linear" x1="267.487" y1="444.072" x2="267.553" y2="452.426" gradientUnits="userSpaceOnUse"><stop stop-color="#211010"/><stop offset=".464" stop-color="#3E0909"/><stop offset="1" stop-color="#640000"/></linearGradient><linearGradient id="paint12_linear" x1="108.156" y1="418.757" x2="108.237" y2="428.913" gradientUnits="userSpaceOnUse"><stop stop-color="#211010"/><stop offset=".464" stop-color="#3E0909"/><stop offset="1" stop-color="#640000"/></linearGradient><linearGradient id="paint13_linear" x1="219.949" y1="423.143" x2="220.032" y2="433.724" gradientUnits="userSpaceOnUse"><stop stop-color="#211010"/><stop offset=".464" stop-color="#3E0909"/><stop offset="1" stop-color="#640000"/></linearGradient><linearGradient id="paint14_linear" x1="102.587" y1="486.67" x2="102.671" y2="497.3" gradientUnits="userSpaceOnUse"><stop stop-color="#211010"/><stop offset=".464" stop-color="#3E0909"/><stop offset="1" stop-color="#640000"/></linearGradient><linearGradient id="paint15_linear" x1="43.99" y1="487.213" x2="44.044" y2="493.98" gradientUnits="userSpaceOnUse"><stop stop-color="#211010"/><stop offset=".464" stop-color="#3E0909"/><stop offset="1" stop-color="#640000"/></linearGradient><linearGradient id="paint16_linear" x1="228.096" y1="367.489" x2="228.149" y2="374.144" gradientUnits="userSpaceOnUse"><stop stop-color="#211010"/><stop offset=".464" stop-color="#3E0909"/><stop offset="1" stop-color="#640000"/></linearGradient><linearGradient id="paint17_linear" x1="202.014" y1="414.598" x2="202.114" y2="427.316" gradientUnits="userSpaceOnUse"><stop stop-color="#211010"/><stop offset=".464" stop-color="#3E0909"/><stop offset="1" stop-color="#640000"/></linearGradient><linearGradient id="paint18_linear" x1="189.57" y1="498.702" x2="189.634" y2="506.768" gradientUnits="userSpaceOnUse"><stop stop-color="#211010"/><stop offset=".464" stop-color="#3E0909"/><stop offset="1" stop-color="#640000"/></linearGradient><linearGradient id="paint19_linear" x1="157.32" y1="503.289" x2="157.37" y2="509.716" gradientUnits="userSpaceOnUse"><stop stop-color="#211010"/><stop offset=".464" stop-color="#3E0909"/><stop offset="1" stop-color="#640000"/></linearGradient><linearGradient id="paint20_linear" x1="231.189" y1="501.314" x2="231.259" y2="510.141" gradientUnits="userSpaceOnUse"><stop stop-color="#211010"/><stop offset=".464" stop-color="#3E0909"/><stop offset="1" stop-color="#640000"/></linearGradient><linearGradient id="paint21_linear" x1="240.069" y1="535.225" x2="240.136" y2="543.672" gradientUnits="userSpaceOnUse"><stop stop-color="#211010"/><stop offset=".464" stop-color="#3E0909"/><stop offset="1" stop-color="#640000"/></linearGradient><linearGradient id="paint22_linear" x1="198.707" y1="401.806" x2="198.756" y2="408.01" gradientUnits="userSpaceOnUse"><stop stop-color="#211010"/><stop offset=".464" stop-color="#3E0909"/><stop offset="1" stop-color="#640000"/></linearGradient><linearGradient id="paint23_linear" x1="163.058" y1="391.555" x2="163.109" y2="397.915" gradientUnits="userSpaceOnUse"><stop stop-color="#211010"/><stop offset=".464" stop-color="#3E0909"/><stop offset="1" stop-color="#640000"/></linearGradient><linearGradient id="paint24_linear" x1="274.295" y1="534.936" x2="274.351" y2="542.073" gradientUnits="userSpaceOnUse"><stop stop-color="#211010"/><stop offset=".464" stop-color="#3E0909"/><stop offset="1" stop-color="#640000"/></linearGradient><linearGradient id="paint25_linear" x1="149.619" y1="379.227" x2="149.673" y2="386.065" gradientUnits="userSpaceOnUse"><stop stop-color="#211010"/><stop offset=".464" stop-color="#3E0909"/><stop offset="1" stop-color="#640000"/></linearGradient><linearGradient id="paint26_linear" x1="116.841" y1="528.681" x2="116.898" y2="535.82" gradientUnits="userSpaceOnUse"><stop stop-color="#211010"/><stop offset=".464" stop-color="#3E0909"/><stop offset="1" stop-color="#640000"/></linearGradient><linearGradient id="paint27_linear" x1="79.457" y1="367.253" x2="79.513" y2="374.277" gradientUnits="userSpaceOnUse"><stop stop-color="#211010"/><stop offset=".464" stop-color="#3E0909"/><stop offset="1" stop-color="#640000"/></linearGradient><linearGradient id="paint28_linear" x1="143.119" y1="506.187" x2="143.176" y2="513.401" gradientUnits="userSpaceOnUse"><stop stop-color="#211010"/><stop offset=".464" stop-color="#3E0909"/><stop offset="1" stop-color="#640000"/></linearGradient><linearGradient id="paint29_linear" x1="217.32" y1="439.622" x2="217.377" y2="446.844" gradientUnits="userSpaceOnUse"><stop stop-color="#211010"/><stop offset=".464" stop-color="#3E0909"/><stop offset="1" stop-color="#640000"/></linearGradient><linearGradient id="paint30_linear" x1="76.645" y1="512.866" x2="76.685" y2="517.919" gradientUnits="userSpaceOnUse"><stop stop-color="#211010"/><stop offset=".464" stop-color="#3E0909"/><stop offset="1" stop-color="#640000"/></linearGradient><linearGradient id="paint31_linear" x1="67.9" y1="431.036" x2="67.951" y2="437.49" gradientUnits="userSpaceOnUse"><stop stop-color="#211010"/><stop offset=".464" stop-color="#3E0909"/><stop offset="1" stop-color="#640000"/></linearGradient><linearGradient id="paint32_linear" x1="153.971" y1="403.951" x2="154.025" y2="410.801" gradientUnits="userSpaceOnUse"><stop stop-color="#211010"/><stop offset=".464" stop-color="#3E0909"/><stop offset="1" stop-color="#640000"/></linearGradient><linearGradient id="paint33_linear" x1="1392.34" y1="305.498" x2="1392.34" y2="307.039" gradientUnits="userSpaceOnUse"><stop stop-color="#211010"/><stop offset=".464" stop-color="#3E0909"/><stop offset="1" stop-color="#640000"/></linearGradient><linearGradient id="paint34_linear" x1="1431.42" y1="284.688" x2="1431.42" y2="315.117" gradientUnits="userSpaceOnUse"><stop stop-color="#211010"/><stop offset=".464" stop-color="#3E0909"/><stop offset="1" stop-color="#640000"/></linearGradient><linearGradient id="paint35_linear" x1="1429.33" y1="259.584" x2="1429.33" y2="286.966" gradientUnits="userSpaceOnUse"><stop stop-color="#211010"/><stop offset=".464" stop-color="#3E0909"/><stop offset="1" stop-color="#640000"/></linearGradient><linearGradient id="paint36_linear" x1="1447.26" y1="265.219" x2="1447.26" y2="294.627" gradientUnits="userSpaceOnUse"><stop stop-color="#211010"/><stop offset=".464" stop-color="#3E0909"/><stop offset="1" stop-color="#640000"/></linearGradient><linearGradient id="paint37_linear" x1="1400.74" y1="262.4" x2="1400.74" y2="286.789" gradientUnits="userSpaceOnUse"><stop stop-color="#211010"/><stop offset=".464" stop-color="#3E0909"/><stop offset="1" stop-color="#640000"/></linearGradient><linearGradient id="paint38_linear" x1="1420.22" y1="226.348" x2="1420.22" y2="257.141" gradientUnits="userSpaceOnUse"><stop stop-color="#211010"/><stop offset=".464" stop-color="#3E0909"/><stop offset="1" stop-color="#640000"/></linearGradient><linearGradient id="paint39_linear" x1="1443.32" y1="225.754" x2="1443.32" y2="259.695" gradientUnits="userSpaceOnUse"><stop stop-color="#211010"/><stop offset=".464" stop-color="#3E0909"/><stop offset="1" stop-color="#640000"/></linearGradient><linearGradient id="paint40_linear" x1="1432.98" y1="221" x2="1432.98" y2="253.377" gradientUnits="userSpaceOnUse"><stop stop-color="#211010"/><stop offset=".464" stop-color="#3E0909"/><stop offset="1" stop-color="#640000"/></linearGradient><linearGradient id="paint41_linear" x1="1456.91" y1="238.74" x2="1456.91" y2="262.248" gradientUnits="userSpaceOnUse"><stop stop-color="#211010"/><stop offset=".464" stop-color="#3E0909"/><stop offset="1" stop-color="#640000"/></linearGradient><linearGradient id="paint42_linear" x1="1395.92" y1="236.305" x2="1395.92" y2="239.6" gradientUnits="userSpaceOnUse"><stop stop-color="#211010"/><stop offset=".464" stop-color="#3E0909"/><stop offset="1" stop-color="#640000"/></linearGradient><linearGradient id="paint43_linear" x1="1430.57" y1="235.791" x2="1430.57" y2="246.51" gradientUnits="userSpaceOnUse"><stop stop-color="#211010"/><stop offset=".464" stop-color="#3E0909"/><stop offset="1" stop-color="#640000"/></linearGradient><linearGradient id="paint44_linear" x1="1395.67" y1="304.42" x2="1395.67" y2="305.83" gradientUnits="userSpaceOnUse"><stop stop-color="#211010"/><stop offset=".464" stop-color="#3E0909"/><stop offset="1" stop-color="#640000"/></linearGradient><linearGradient id="paint45_linear" x1="1416.29" y1="297.619" x2="1416.29" y2="302.285" gradientUnits="userSpaceOnUse"><stop stop-color="#211010"/><stop offset=".464" stop-color="#3E0909"/><stop offset="1" stop-color="#640000"/></linearGradient><linearGradient id="paint46_linear" x1="1440.85" y1="291.824" x2="1440.85" y2="294.295" gradientUnits="userSpaceOnUse"><stop stop-color="#211010"/><stop offset=".464" stop-color="#3E0909"/><stop offset="1" stop-color="#640000"/></linearGradient><linearGradient id="paint47_linear" x1="1439.13" y1="264.691" x2="1439.13" y2="267.332" gradientUnits="userSpaceOnUse"><stop stop-color="#211010"/><stop offset=".464" stop-color="#3E0909"/><stop offset="1" stop-color="#640000"/></linearGradient><linearGradient id="paint48_linear" x1="1437.12" y1="268.741" x2="1437.12" y2="270.129" gradientUnits="userSpaceOnUse"><stop stop-color="#211010"/><stop offset=".464" stop-color="#3E0909"/><stop offset="1" stop-color="#640000"/></linearGradient><linearGradient id="paint49_linear" x1="1440.9" y1="308.756" x2="1440.9" y2="311.815" gradientUnits="userSpaceOnUse"><stop stop-color="#211010"/><stop offset=".464" stop-color="#3E0909"/><stop offset="1" stop-color="#640000"/></linearGradient><linearGradient id="paint50_linear" x1="1395.28" y1="241.008" x2="1395.28" y2="242.156" gradientUnits="userSpaceOnUse"><stop stop-color="#211010"/><stop offset=".464" stop-color="#3E0909"/><stop offset="1" stop-color="#640000"/></linearGradient><linearGradient id="paint51_linear" x1="1399.47" y1="245.85" x2="1399.47" y2="246.952" gradientUnits="userSpaceOnUse"><stop stop-color="#211010"/><stop offset=".464" stop-color="#3E0909"/><stop offset="1" stop-color="#640000"/></linearGradient><linearGradient id="paint52_linear" x1="1419.25" y1="287.45" x2="1419.25" y2="293.069" gradientUnits="userSpaceOnUse"><stop stop-color="#211010"/><stop offset=".464" stop-color="#3E0909"/><stop offset="1" stop-color="#640000"/></linearGradient><linearGradient id="paint53_linear" x1="1425.22" y1="299.511" x2="1425.22" y2="303.407" gradientUnits="userSpaceOnUse"><stop stop-color="#211010"/><stop offset=".464" stop-color="#3E0909"/><stop offset="1" stop-color="#640000"/></linearGradient><linearGradient id="paint54_linear" x1="1446.37" y1="288.638" x2="1446.37" y2="291.486" gradientUnits="userSpaceOnUse"><stop stop-color="#211010"/><stop offset=".464" stop-color="#3E0909"/><stop offset="1" stop-color="#640000"/></linearGradient><linearGradient id="paint55_linear" x1="1444.73" y1="298.521" x2="1444.73" y2="301.25" gradientUnits="userSpaceOnUse"><stop stop-color="#211010"/><stop offset=".464" stop-color="#3E0909"/><stop offset="1" stop-color="#640000"/></linearGradient><linearGradient id="paint56_linear" x1="1433.46" y1="295.198" x2="1433.46" y2="296.672" gradientUnits="userSpaceOnUse"><stop stop-color="#211010"/><stop offset=".464" stop-color="#3E0909"/><stop offset="1" stop-color="#640000"/></linearGradient><linearGradient id="paint57_linear" x1="1424.63" y1="265.461" x2="1424.63" y2="268.631" gradientUnits="userSpaceOnUse"><stop stop-color="#211010"/><stop offset=".464" stop-color="#3E0909"/><stop offset="1" stop-color="#640000"/></linearGradient><linearGradient id="paint58_linear" x1="1425.95" y1="263.414" x2="1425.95" y2="264.867" gradientUnits="userSpaceOnUse"><stop stop-color="#211010"/><stop offset=".464" stop-color="#3E0909"/><stop offset="1" stop-color="#640000"/></linearGradient><linearGradient id="paint59_linear" x1="1402.45" y1="272.152" x2="1402.45" y2="274.045" gradientUnits="userSpaceOnUse"><stop stop-color="#211010"/><stop offset=".464" stop-color="#3E0909"/><stop offset="1" stop-color="#640000"/></linearGradient><linearGradient id="paint60_linear" x1="912.375" y1="93.951" x2="911.463" y2="131.005" gradientUnits="userSpaceOnUse"><stop stop-color="#211010"/><stop offset=".464" stop-color="#3E0909"/><stop offset="1" stop-color="#640000"/></linearGradient><linearGradient id="paint61_linear" x1="1032.83" y1="13.139" x2="1031.87" y2="52.328" gradientUnits="userSpaceOnUse"><stop stop-color="#211010"/><stop offset=".464" stop-color="#3E0909"/><stop offset="1" stop-color="#640000"/></linearGradient><linearGradient id="paint62_linear" x1="1129.47" y1="133.571" x2="1128.78" y2="161.295" gradientUnits="userSpaceOnUse"><stop stop-color="#211010"/><stop offset=".464" stop-color="#3E0909"/><stop offset="1" stop-color="#640000"/></linearGradient><linearGradient id="paint63_linear" x1="924.391" y1="24.521" x2="924.041" y2="38.757" gradientUnits="userSpaceOnUse"><stop stop-color="#211010"/><stop offset=".464" stop-color="#3E0909"/><stop offset="1" stop-color="#640000"/></linearGradient><linearGradient id="paint64_linear" x1="1061.5" y1="25.808" x2="1061.14" y2="40.137" gradientUnits="userSpaceOnUse"><stop stop-color="#211010"/><stop offset=".464" stop-color="#3E0909"/><stop offset="1" stop-color="#640000"/></linearGradient><linearGradient id="paint65_linear" x1="967.932" y1="2.876" x2="967.701" y2="12.287" gradientUnits="userSpaceOnUse"><stop stop-color="#211010"/><stop offset=".464" stop-color="#3E0909"/><stop offset="1" stop-color="#640000"/></linearGradient><linearGradient id="paint66_linear" x1="967.784" y1="150.308" x2="967.407" y2="165.627" gradientUnits="userSpaceOnUse"><stop stop-color="#211010"/><stop offset=".464" stop-color="#3E0909"/><stop offset="1" stop-color="#640000"/></linearGradient><linearGradient id="paint67_linear" x1="1075.38" y1="25.606" x2="1075.16" y2="34.636" gradientUnits="userSpaceOnUse"><stop stop-color="#211010"/><stop offset=".464" stop-color="#3E0909"/><stop offset="1" stop-color="#640000"/></linearGradient><linearGradient id="paint68_linear" x1="977.895" y1="202.725" x2="977.577" y2="215.658" gradientUnits="userSpaceOnUse"><stop stop-color="#211010"/><stop offset=".464" stop-color="#3E0909"/><stop offset="1" stop-color="#640000"/></linearGradient><linearGradient id="paint69_linear" x1="1008.27" y1="179.459" x2="1007.99" y2="190.932" gradientUnits="userSpaceOnUse"><stop stop-color="#211010"/><stop offset=".464" stop-color="#3E0909"/><stop offset="1" stop-color="#640000"/></linearGradient><linearGradient id="paint70_linear" x1="1153.26" y1="125.478" x2="1153.05" y2="133.83" gradientUnits="userSpaceOnUse"><stop stop-color="#211010"/><stop offset=".464" stop-color="#3E0909"/><stop offset="1" stop-color="#640000"/></linearGradient><linearGradient id="paint71_linear" x1="994.833" y1="94.997" x2="994.583" y2="105.15" gradientUnits="userSpaceOnUse"><stop stop-color="#211010"/><stop offset=".464" stop-color="#3E0909"/><stop offset="1" stop-color="#640000"/></linearGradient><linearGradient id="paint72_linear" x1="1106.42" y1="103.015" x2="1106.16" y2="113.593" gradientUnits="userSpaceOnUse"><stop stop-color="#211010"/><stop offset=".464" stop-color="#3E0909"/><stop offset="1" stop-color="#640000"/></linearGradient><linearGradient id="paint73_linear" x1="987.058" y1="162.693" x2="986.797" y2="173.32" gradientUnits="userSpaceOnUse"><stop stop-color="#211010"/><stop offset=".464" stop-color="#3E0909"/><stop offset="1" stop-color="#640000"/></linearGradient><linearGradient id="paint74_linear" x1="928.475" y1="161.331" x2="928.308" y2="168.096" gradientUnits="userSpaceOnUse"><stop stop-color="#211010"/><stop offset=".464" stop-color="#3E0909"/><stop offset="1" stop-color="#640000"/></linearGradient><linearGradient id="paint75_linear" x1="1116.38" y1="47.655" x2="1116.21" y2="54.309" gradientUnits="userSpaceOnUse"><stop stop-color="#211010"/><stop offset=".464" stop-color="#3E0909"/><stop offset="1" stop-color="#640000"/></linearGradient><linearGradient id="paint76_linear" x1="1088.78" y1="93.891" x2="1088.46" y2="106.606" gradientUnits="userSpaceOnUse"><stop stop-color="#211010"/><stop offset=".464" stop-color="#3E0909"/><stop offset="1" stop-color="#640000"/></linearGradient><linearGradient id="paint77_linear" x1="1073.6" y1="177.546" x2="1073.41" y2="185.61" gradientUnits="userSpaceOnUse"><stop stop-color="#211010"/><stop offset=".464" stop-color="#3E0909"/><stop offset="1" stop-color="#640000"/></linearGradient><linearGradient id="paint78_linear" x1="1041.22" y1="181.082" x2="1041.06" y2="187.508" gradientUnits="userSpaceOnUse"><stop stop-color="#211010"/><stop offset=".464" stop-color="#3E0909"/><stop offset="1" stop-color="#640000"/></linearGradient><linearGradient id="paint79_linear" x1="1115.12" y1="181.51" x2="1114.9" y2="190.334" gradientUnits="userSpaceOnUse"><stop stop-color="#211010"/><stop offset=".464" stop-color="#3E0909"/><stop offset="1" stop-color="#640000"/></linearGradient><linearGradient id="paint80_linear" x1="1122.89" y1="215.692" x2="1122.68" y2="224.137" gradientUnits="userSpaceOnUse"><stop stop-color="#211010"/><stop offset=".464" stop-color="#3E0909"/><stop offset="1" stop-color="#640000"/></linearGradient><linearGradient id="paint81_linear" x1="1085.89" y1="80.999" x2="1085.73" y2="87.201" gradientUnits="userSpaceOnUse"><stop stop-color="#211010"/><stop offset=".464" stop-color="#3E0909"/><stop offset="1" stop-color="#640000"/></linearGradient><linearGradient id="paint82_linear" x1="1050.59" y1="69.594" x2="1050.43" y2="75.952" gradientUnits="userSpaceOnUse"><stop stop-color="#211010"/><stop offset=".464" stop-color="#3E0909"/><stop offset="1" stop-color="#640000"/></linearGradient><linearGradient id="paint83_linear" x1="1157.11" y1="216.515" x2="1156.93" y2="223.65" gradientUnits="userSpaceOnUse"><stop stop-color="#211010"/><stop offset=".464" stop-color="#3E0909"/><stop offset="1" stop-color="#640000"/></linearGradient><linearGradient id="paint84_linear" x1="1037.56" y1="56.836" x2="1037.39" y2="63.671" gradientUnits="userSpaceOnUse"><stop stop-color="#211010"/><stop offset=".464" stop-color="#3E0909"/><stop offset="1" stop-color="#640000"/></linearGradient><linearGradient id="paint85_linear" x1="999.94" y1="205.145" x2="999.764" y2="212.282" gradientUnits="userSpaceOnUse"><stop stop-color="#211010"/><stop offset=".464" stop-color="#3E0909"/><stop offset="1" stop-color="#640000"/></linearGradient><linearGradient id="paint86_linear" x1="967.823" y1="42.587" x2="967.65" y2="49.609" gradientUnits="userSpaceOnUse"><stop stop-color="#211010"/><stop offset=".464" stop-color="#3E0909"/><stop offset="1" stop-color="#640000"/></linearGradient><linearGradient id="paint87_linear" x1="1130.71" y1="259.459" x2="1130.57" y2="265.442" gradientUnits="userSpaceOnUse"><stop stop-color="#211010"/><stop offset=".464" stop-color="#3E0909"/><stop offset="1" stop-color="#640000"/></linearGradient><linearGradient id="paint88_linear" x1="1026.93" y1="183.518" x2="1026.76" y2="190.729" gradientUnits="userSpaceOnUse"><stop stop-color="#211010"/><stop offset=".464" stop-color="#3E0909"/><stop offset="1" stop-color="#640000"/></linearGradient><linearGradient id="paint89_linear" x1="1103.26" y1="119.4" x2="1103.08" y2="126.619" gradientUnits="userSpaceOnUse"><stop stop-color="#211010"/><stop offset=".464" stop-color="#3E0909"/><stop offset="1" stop-color="#640000"/></linearGradient><linearGradient id="paint90_linear" x1="982.076" y1="267.486" x2="981.897" y2="274.792" gradientUnits="userSpaceOnUse"><stop stop-color="#211010"/><stop offset=".464" stop-color="#3E0909"/><stop offset="1" stop-color="#640000"/></linearGradient><linearGradient id="paint91_linear" x1="960.279" y1="188.032" x2="960.154" y2="193.083" gradientUnits="userSpaceOnUse"><stop stop-color="#211010"/><stop offset=".464" stop-color="#3E0909"/><stop offset="1" stop-color="#640000"/></linearGradient><linearGradient id="paint92_linear" x1="954.199" y1="105.961" x2="954.04" y2="112.413" gradientUnits="userSpaceOnUse"><stop stop-color="#211010"/><stop offset=".464" stop-color="#3E0909"/><stop offset="1" stop-color="#640000"/></linearGradient><linearGradient id="paint93_linear" x1="1041.1" y1="81.688" x2="1040.94" y2="88.536" gradientUnits="userSpaceOnUse"><stop stop-color="#211010"/><stop offset=".464" stop-color="#3E0909"/><stop offset="1" stop-color="#640000"/></linearGradient><linearGradient id="paint94_linear" x1="434.867" y1="290.934" x2="434.867" y2="351.866" gradientUnits="userSpaceOnUse"><stop stop-color="#211010"/><stop offset=".464" stop-color="#3E0909"/><stop offset="1" stop-color="#640000"/></linearGradient><linearGradient id="paint95_linear" x1="420.281" y1="343.496" x2="420.281" y2="344.004" gradientUnits="userSpaceOnUse"><stop stop-color="#211010"/><stop offset=".464" stop-color="#3E0909"/><stop offset="1" stop-color="#640000"/></linearGradient><linearGradient id="paint96_linear" x1="498.989" y1="330.95" x2="498.989" y2="337.806" gradientUnits="userSpaceOnUse"><stop stop-color="#211010"/><stop offset=".464" stop-color="#3E0909"/><stop offset="1" stop-color="#640000"/></linearGradient><linearGradient id="paint97_linear" x1="422.312" y1="336.64" x2="422.312" y2="337.656" gradientUnits="userSpaceOnUse"><stop stop-color="#211010"/><stop offset=".464" stop-color="#3E0909"/><stop offset="1" stop-color="#640000"/></linearGradient><linearGradient id="paint98_linear" x1="418.25" y1="336.64" x2="418.25" y2="337.402" gradientUnits="userSpaceOnUse"><stop stop-color="#211010"/><stop offset=".464" stop-color="#3E0909"/><stop offset="1" stop-color="#640000"/></linearGradient><linearGradient id="paint99_linear" x1="419.392" y1="333.339" x2="419.392" y2="333.593" gradientUnits="userSpaceOnUse"><stop stop-color="#211010"/><stop offset=".464" stop-color="#3E0909"/><stop offset="1" stop-color="#640000"/></linearGradient><linearGradient id="paint100_linear" x1="422.185" y1="330.292" x2="422.185" y2="330.8" gradientUnits="userSpaceOnUse"><stop stop-color="#211010"/><stop offset=".464" stop-color="#3E0909"/><stop offset="1" stop-color="#640000"/></linearGradient><linearGradient id="paint101_linear" x1="478.347" y1="327.245" x2="478.347" y2="330.272" gradientUnits="userSpaceOnUse"><stop stop-color="#211010"/><stop offset=".464" stop-color="#3E0909"/><stop offset="1" stop-color="#640000"/></linearGradient><linearGradient id="paint102_linear" x1="415.457" y1="329.784" x2="415.457" y2="330.292" gradientUnits="userSpaceOnUse"><stop stop-color="#211010"/><stop offset=".464" stop-color="#3E0909"/><stop offset="1" stop-color="#640000"/></linearGradient><linearGradient id="paint103_linear" x1="478.636" y1="328.515" x2="478.636" y2="330.038" gradientUnits="userSpaceOnUse"><stop stop-color="#211010"/><stop offset=".464" stop-color="#3E0909"/><stop offset="1" stop-color="#640000"/></linearGradient><linearGradient id="paint104_linear" x1="480.115" y1="328.769" x2="480.115" y2="329.784" gradientUnits="userSpaceOnUse"><stop stop-color="#211010"/><stop offset=".464" stop-color="#3E0909"/><stop offset="1" stop-color="#640000"/></linearGradient><linearGradient id="paint105_linear" x1="475.763" y1="328.007" x2="475.763" y2="329.023" gradientUnits="userSpaceOnUse"><stop stop-color="#211010"/><stop offset=".464" stop-color="#3E0909"/><stop offset="1" stop-color="#640000"/></linearGradient><linearGradient id="paint106_linear" x1="447.249" y1="326.207" x2="447.249" y2="326.737" gradientUnits="userSpaceOnUse"><stop stop-color="#211010"/><stop offset=".464" stop-color="#3E0909"/><stop offset="1" stop-color="#640000"/></linearGradient><linearGradient id="paint107_linear" x1="419.138" y1="325.214" x2="419.138" y2="326.044" gradientUnits="userSpaceOnUse"><stop stop-color="#211010"/><stop offset=".464" stop-color="#3E0909"/><stop offset="1" stop-color="#640000"/></linearGradient><linearGradient id="paint108_linear" x1="451.513" y1="324.96" x2="451.513" y2="325.722" gradientUnits="userSpaceOnUse"><stop stop-color="#211010"/><stop offset=".464" stop-color="#3E0909"/><stop offset="1" stop-color="#640000"/></linearGradient><linearGradient id="paint109_linear" x1="448.466" y1="320.897" x2="448.466" y2="322.421" gradientUnits="userSpaceOnUse"><stop stop-color="#211010"/><stop offset=".464" stop-color="#3E0909"/><stop offset="1" stop-color="#640000"/></linearGradient><linearGradient id="paint110_linear" x1="641.598" y1="289.665" x2="641.598" y2="311.271" gradientUnits="userSpaceOnUse"><stop stop-color="#211010"/><stop offset=".464" stop-color="#3E0909"/><stop offset="1" stop-color="#640000"/></linearGradient><linearGradient id="paint111_linear" x1="447.669" y1="309.075" x2="447.669" y2="309.725" gradientUnits="userSpaceOnUse"><stop stop-color="#211010"/><stop offset=".464" stop-color="#3E0909"/><stop offset="1" stop-color="#640000"/></linearGradient><linearGradient id="paint112_linear" x1="461.797" y1="306.931" x2="461.797" y2="309.217" gradientUnits="userSpaceOnUse"><stop stop-color="#211010"/><stop offset=".464" stop-color="#3E0909"/><stop offset="1" stop-color="#640000"/></linearGradient><linearGradient id="paint113_linear" x1="451.279" y1="308.455" x2="451.279" y2="309.032" gradientUnits="userSpaceOnUse"><stop stop-color="#211010"/><stop offset=".464" stop-color="#3E0909"/><stop offset="1" stop-color="#640000"/></linearGradient><linearGradient id="paint114_linear" x1="462.813" y1="308.455" x2="462.813" y2="308.963" gradientUnits="userSpaceOnUse"><stop stop-color="#211010"/><stop offset=".464" stop-color="#3E0909"/><stop offset="1" stop-color="#640000"/></linearGradient><linearGradient id="paint115_linear" x1="604.067" y1="293.609" x2="604.067" y2="308.881" gradientUnits="userSpaceOnUse"><stop stop-color="#211010"/><stop offset=".464" stop-color="#3E0909"/><stop offset="1" stop-color="#640000"/></linearGradient><linearGradient id="paint116_linear" x1="463.702" y1="307.185" x2="463.702" y2="307.947" gradientUnits="userSpaceOnUse"><stop stop-color="#211010"/><stop offset=".464" stop-color="#3E0909"/><stop offset="1" stop-color="#640000"/></linearGradient><linearGradient id="paint117_linear" x1="463.574" y1="305.916" x2="463.574" y2="306.678" gradientUnits="userSpaceOnUse"><stop stop-color="#211010"/><stop offset=".464" stop-color="#3E0909"/><stop offset="1" stop-color="#640000"/></linearGradient><linearGradient id="paint118_linear" x1="464.42" y1="305.662" x2="464.42" y2="306.729" gradientUnits="userSpaceOnUse"><stop stop-color="#211010"/><stop offset=".464" stop-color="#3E0909"/><stop offset="1" stop-color="#640000"/></linearGradient><linearGradient id="paint119_linear" x1="565.529" y1="247.107" x2="565.529" y2="297.046" gradientUnits="userSpaceOnUse"><stop stop-color="#211010"/><stop offset=".464" stop-color="#3E0909"/><stop offset="1" stop-color="#640000"/></linearGradient><linearGradient id="paint120_linear" x1="589.716" y1="289.411" x2="589.716" y2="291.188" gradientUnits="userSpaceOnUse"><stop stop-color="#211010"/><stop offset=".464" stop-color="#3E0909"/><stop offset="1" stop-color="#640000"/></linearGradient><linearGradient id="paint121_linear" x1="530.296" y1="272.612" x2="530.296" y2="277.984" gradientUnits="userSpaceOnUse"><stop stop-color="#211010"/><stop offset=".464" stop-color="#3E0909"/><stop offset="1" stop-color="#640000"/></linearGradient><linearGradient id="paint122_linear" x1="530.654" y1="275.953" x2="530.654" y2="277.117" gradientUnits="userSpaceOnUse"><stop stop-color="#211010"/><stop offset=".464" stop-color="#3E0909"/><stop offset="1" stop-color="#640000"/></linearGradient><linearGradient id="paint123_linear" x1="452.915" y1="257.671" x2="452.915" y2="275.74" gradientUnits="userSpaceOnUse"><stop stop-color="#211010"/><stop offset=".464" stop-color="#3E0909"/><stop offset="1" stop-color="#640000"/></linearGradient><linearGradient id="paint124_linear" x1="530.229" y1="274.683" x2="530.229" y2="275.445" gradientUnits="userSpaceOnUse"><stop stop-color="#211010"/><stop offset=".464" stop-color="#3E0909"/><stop offset="1" stop-color="#640000"/></linearGradient><linearGradient id="paint125_linear" x1="451.336" y1="273.922" x2="451.336" y2="274.683" gradientUnits="userSpaceOnUse"><stop stop-color="#211010"/><stop offset=".464" stop-color="#3E0909"/><stop offset="1" stop-color="#640000"/></linearGradient><linearGradient id="paint126_linear" x1="451.107" y1="271.129" x2="451.107" y2="272.906" gradientUnits="userSpaceOnUse"><stop stop-color="#211010"/><stop offset=".464" stop-color="#3E0909"/><stop offset="1" stop-color="#640000"/></linearGradient><linearGradient id="paint127_linear" x1="451.767" y1="271.382" x2="451.767" y2="271.89" gradientUnits="userSpaceOnUse"><stop stop-color="#211010"/><stop offset=".464" stop-color="#3E0909"/><stop offset="1" stop-color="#640000"/></linearGradient><linearGradient id="paint128_linear" x1="455.693" y1="270.834" x2="455.693" y2="271.452" gradientUnits="userSpaceOnUse"><stop stop-color="#211010"/><stop offset=".464" stop-color="#3E0909"/><stop offset="1" stop-color="#640000"/></linearGradient><linearGradient id="paint129_linear" x1="450.275" y1="270.621" x2="450.275" y2="271.129" gradientUnits="userSpaceOnUse"><stop stop-color="#211010"/><stop offset=".464" stop-color="#3E0909"/><stop offset="1" stop-color="#640000"/></linearGradient><linearGradient id="paint130_linear" x1="449.022" y1="269.322" x2="449.022" y2="270.915" gradientUnits="userSpaceOnUse"><stop stop-color="#211010"/><stop offset=".464" stop-color="#3E0909"/><stop offset="1" stop-color="#640000"/></linearGradient><linearGradient id="paint131_linear" x1="453.037" y1="268.335" x2="453.037" y2="269.605" gradientUnits="userSpaceOnUse"><stop stop-color="#211010"/><stop offset=".464" stop-color="#3E0909"/><stop offset="1" stop-color="#640000"/></linearGradient><linearGradient id="paint132_linear" x1="454.976" y1="268.335" x2="454.976" y2="268.843" gradientUnits="userSpaceOnUse"><stop stop-color="#211010"/><stop offset=".464" stop-color="#3E0909"/><stop offset="1" stop-color="#640000"/></linearGradient><linearGradient id="paint133_linear" x1="456.317" y1="268.266" x2="456.317" y2="268.843" gradientUnits="userSpaceOnUse"><stop stop-color="#211010"/><stop offset=".464" stop-color="#3E0909"/><stop offset="1" stop-color="#640000"/></linearGradient><linearGradient id="paint134_linear" x1="449.228" y1="267.828" x2="449.228" y2="268.589" gradientUnits="userSpaceOnUse"><stop stop-color="#211010"/><stop offset=".464" stop-color="#3E0909"/><stop offset="1" stop-color="#640000"/></linearGradient><linearGradient id="paint135_linear" x1="425.613" y1="267.574" x2="425.613" y2="268.335" gradientUnits="userSpaceOnUse"><stop stop-color="#211010"/><stop offset=".464" stop-color="#3E0909"/><stop offset="1" stop-color="#640000"/></linearGradient><linearGradient id="paint136_linear" x1="453.799" y1="267.474" x2="453.799" y2="268.082" gradientUnits="userSpaceOnUse"><stop stop-color="#211010"/><stop offset=".464" stop-color="#3E0909"/><stop offset="1" stop-color="#640000"/></linearGradient><linearGradient id="paint137_linear" x1="509.78" y1="258.686" x2="509.78" y2="267.836" gradientUnits="userSpaceOnUse"><stop stop-color="#211010"/><stop offset=".464" stop-color="#3E0909"/><stop offset="1" stop-color="#640000"/></linearGradient><linearGradient id="paint138_linear" x1="467.86" y1="254.37" x2="467.86" y2="266.891" gradientUnits="userSpaceOnUse"><stop stop-color="#211010"/><stop offset=".464" stop-color="#3E0909"/><stop offset="1" stop-color="#640000"/></linearGradient><linearGradient id="paint139_linear" x1="453.291" y1="264.273" x2="453.291" y2="265.034" gradientUnits="userSpaceOnUse"><stop stop-color="#211010"/><stop offset=".464" stop-color="#3E0909"/><stop offset="1" stop-color="#640000"/></linearGradient><linearGradient id="paint140_linear" x1="450.117" y1="264.273" x2="450.117" y2="264.527" gradientUnits="userSpaceOnUse"><stop stop-color="#211010"/><stop offset=".464" stop-color="#3E0909"/><stop offset="1" stop-color="#640000"/></linearGradient><linearGradient id="paint141_linear" x1="467.891" y1="256.655" x2="467.891" y2="264.273" gradientUnits="userSpaceOnUse"><stop stop-color="#211010"/><stop offset=".464" stop-color="#3E0909"/><stop offset="1" stop-color="#640000"/></linearGradient><linearGradient id="paint142_linear" x1="471.588" y1="262.241" x2="471.588" y2="262.749" gradientUnits="userSpaceOnUse"><stop stop-color="#211010"/><stop offset=".464" stop-color="#3E0909"/><stop offset="1" stop-color="#640000"/></linearGradient><linearGradient id="paint143_linear" x1="456.719" y1="262.495" x2="456.719" y2="263.257" gradientUnits="userSpaceOnUse"><stop stop-color="#211010"/><stop offset=".464" stop-color="#3E0909"/><stop offset="1" stop-color="#640000"/></linearGradient><linearGradient id="paint144_linear" x1="468.145" y1="261.451" x2="468.145" y2="262.749" gradientUnits="userSpaceOnUse"><stop stop-color="#211010"/><stop offset=".464" stop-color="#3E0909"/><stop offset="1" stop-color="#640000"/></linearGradient><linearGradient id="paint145_linear" x1="469.796" y1="260.972" x2="469.796" y2="262.495" gradientUnits="userSpaceOnUse"><stop stop-color="#211010"/><stop offset=".464" stop-color="#3E0909"/><stop offset="1" stop-color="#640000"/></linearGradient><linearGradient id="paint146_linear" x1="466.273" y1="261.48" x2="466.273" y2="262.241" gradientUnits="userSpaceOnUse"><stop stop-color="#211010"/><stop offset=".464" stop-color="#3E0909"/><stop offset="1" stop-color="#640000"/></linearGradient><linearGradient id="paint147_linear" x1="511.566" y1="261.226" x2="511.566" y2="261.987" gradientUnits="userSpaceOnUse"><stop stop-color="#211010"/><stop offset=".464" stop-color="#3E0909"/><stop offset="1" stop-color="#640000"/></linearGradient><linearGradient id="paint148_linear" x1="465.606" y1="261.48" x2="465.606" y2="262.241" gradientUnits="userSpaceOnUse"><stop stop-color="#211010"/><stop offset=".464" stop-color="#3E0909"/><stop offset="1" stop-color="#640000"/></linearGradient><linearGradient id="paint149_linear" x1="470.97" y1="260.972" x2="470.97" y2="261.733" gradientUnits="userSpaceOnUse"><stop stop-color="#211010"/><stop offset=".464" stop-color="#3E0909"/><stop offset="1" stop-color="#640000"/></linearGradient><linearGradient id="paint150_linear" x1="464.463" y1="261.226" x2="464.463" y2="261.733" gradientUnits="userSpaceOnUse"><stop stop-color="#211010"/><stop offset=".464" stop-color="#3E0909"/><stop offset="1" stop-color="#640000"/></linearGradient><linearGradient id="paint151_linear" x1="489.729" y1="260.972" x2="489.729" y2="261.48" gradientUnits="userSpaceOnUse"><stop stop-color="#211010"/><stop offset=".464" stop-color="#3E0909"/><stop offset="1" stop-color="#640000"/></linearGradient><linearGradient id="paint152_linear" x1="465.225" y1="260.972" x2="465.225" y2="261.226" gradientUnits="userSpaceOnUse"><stop stop-color="#211010"/><stop offset=".464" stop-color="#3E0909"/><stop offset="1" stop-color="#640000"/></linearGradient><linearGradient id="paint153_linear" x1="488.332" y1="259.956" x2="488.332" y2="260.972" gradientUnits="userSpaceOnUse"><stop stop-color="#211010"/><stop offset=".464" stop-color="#3E0909"/><stop offset="1" stop-color="#640000"/></linearGradient><linearGradient id="paint154_linear" x1="455.957" y1="259.956" x2="455.957" y2="260.838" gradientUnits="userSpaceOnUse"><stop stop-color="#211010"/><stop offset=".464" stop-color="#3E0909"/><stop offset="1" stop-color="#640000"/></linearGradient><linearGradient id="paint155_linear" x1="424.598" y1="252.338" x2="424.598" y2="252.656" gradientUnits="userSpaceOnUse"><stop stop-color="#211010"/><stop offset=".464" stop-color="#3E0909"/><stop offset="1" stop-color="#640000"/></linearGradient><linearGradient id="paint156_linear" x1="584.577" y1="228" x2="584.577" y2="239.238" gradientUnits="userSpaceOnUse"><stop stop-color="#211010"/><stop offset=".464" stop-color="#3E0909"/><stop offset="1" stop-color="#640000"/></linearGradient><linearGradient id="paint157_linear" x1="509.508" y1="229.065" x2="509.508" y2="237.781" gradientUnits="userSpaceOnUse"><stop stop-color="#211010"/><stop offset=".464" stop-color="#3E0909"/><stop offset="1" stop-color="#640000"/></linearGradient></defs></svg>