<svg xmlns="http://www.w3.org/2000/svg" preserveAspectRatio="xMidYMid slice" viewBox="0 0 1000 307" width="1400" fill="none"><path fill="url(#filter_linear2)" d="M743.466 244.063v-24.605h-4.164v24.605h-24.837l-2.974 15.281-15.244.259s-28.332-49.339-32.273-62.591c-3.941-13.339 0-54.39 0-54.39s-21.045-1.986-46.848-1.727c-25.803.259-49.748 1.986-49.748 1.986s5.875 20.979 5.354 29.742c-.52 8.719-9.295 43.382-9.295 43.382s-15.616-29.224-15.616-54.39c0-25.209 3.941-51.022 3.941-51.022s-27.811-3.67-62.017-3.67c-34.207 0-64.918 5.137-64.918 5.137s6.321 29.483 2.975 52.404c-3.421 22.965-12.642 49.34-12.642 49.34v-5.698l-8.849-.562-1.19-68.85h5.057v-1.122h-5.057l-1.487-94.103h4.611V42.13h-4.685l-.149-12.302h-19.483l-.52 12.302h-4.982v1.339h4.982l-3.941 94.103h-4.983v1.122h4.983l-2.306 56.98-23.423.561v-4.533l-3.421-.259v-7.079l2.974-.82.447-5.698-3.421-.561v-7.08l11.749-.259-2.974-7.338-36.14-.82v-11.051h9.295l.446-7.64-6.841-1.122 6.841-.821.446-13.899-10.261-1.382-.075-2.633h6.395v-1.338h-6.395l-1.859-97.556.298-4.705h7.361V18.13h-7.287L322.357 0H299.9v18.13h-6.47v1.51h6.47v4.706l-5.131 97.427h-5.503v1.338h5.429l-.075 1.813-45.435 2.547v13.899l5.354 1.123-7.808 1.122v7.338l5.354.259v1.382l-11.674-.044v-5.482h-1.339v5.482l-8.477-.043v-5.439h-1.339v5.439l-8.477-.043v-5.396h-1.338v5.396l-8.477-.043v-5.31h-1.339v5.31l-8.477-.043v-5.267h-1.339v5.267h-.595l-16.582 2.546v7.08l9.295.259v4.791h-9.221l-.446 7.9 9.816.259-.446 5.137-20.004.259v-15.281l-33.685-1.123v-2.849h-24.763v-3.108h-2.602v3.195h-3.942v-5.137h-1.933v5.137H83.805v12.777l-19.482 1.381v47.354l-5.057.173V168.09h-6.172v55.21l-21.49.561v17.008l-12.567-.82v-44.375L0 194.81V307h757v-62.894h-13.534v-.043z"/><defs><linearGradient id="filter_linear2" x1="378.5" x2="378.5" y2="307" gradientUnits="userSpaceOnUse"><stop offset=".063"/><stop offset="1" stop-color="#242424"/></linearGradient></defs></svg>