<svg xmlns="http://www.w3.org/2000/svg" preserveAspectRatio="xMidYMid meet" viewBox="0 0 91 62" width="91" height="62"><path fill="none" d="M0 0h90.555v83.306H0z" pointer-events="none"/><path fill="#010101" fill-rule="evenodd" d="M24.537 16.344c1.1.4 15.8 16.6 16.5 17.9 2.4 4.6.9 10.5 4.6 13.7 0 0 13.4-.5 14-.7 3.9 1 7.4 2.8 12.3 3.9v.7c-4.2-.1-8.9-2.5-12.3-1.1-4.6 2-10 5.6-14.7 7.7-5.4 2.4-12.4-.6-17.2 1.1-2.1.7-2.1 2.3-4.6 1.4v-.4c2.7-4.6 7.1-6.9 10.2-10.9-1.4-13.5-12.6-17.6-10.9-31.2l2.1-2.1z" class="st4" clip-rule="evenodd"/></svg>