<svg xmlns="http://www.w3.org/2000/svg" preserveAspectRatio="xMidYMid meet" viewBox="0 0 91 62" width="91" height="62"><path fill="none" d="M0 0h129.65v106.362H0z" pointer-events="none"/><path fill="#010101" fill-rule="evenodd" d="M45.56 41.908c3.5 1.2 2.8 4.3 5.3 6 6.8 4.6 17.5-1.7 23.1-4.2 7 .6 16 10 16.8 16.5-.2.1-.5.2-.7.4-12.3-7.4-23.1-11.1-35.4-1.1-3.6 2.9-5.4 10-10.5 11.2 2.1-4.7 5.9-8 6.7-13.3l-.7-.7c-1.4-1.9-3.7-2.1-6-3.2-12.3-5.9-10 .1-21 1.4.2-.4.5-.7.7-1.1.8-.3 1.6-.7 2.5-1.1-.2-2-.2-1.8.7-3.2 6.1-2.4 12.3-5 18.5-7.6z" class="st4" clip-rule="evenodd"/></svg>