<svg xmlns="http://www.w3.org/2000/svg" viewBox="0 0 512 512">
  <path fill="currentColor" d="M400 160H272v-32h-32v32H112c-26.496 0-48 21.504-48 48v48h384v-48c0-26.496-21.504-48-48-48zM480 288H32c-17.664 0-32 14.336-32 32v32c0 35.36 28.64 64 64 64s64-28.64 64-64c0 35.36 28.64 64 64 64s64-28.64 64-64c0 35.36 28.64 64 64 64s64-28.64 64-64c0 35.36 28.64 64 64 64s64-28.64 64-64v-32c0-17.664-14.336-32-32-32zM448 448c-24.576 0-47.008-9.28-64-24.512C367.008 438.72 344.576 448 320 448s-47.008-9.28-64-24.512C239.008 438.72 216.576 448 192 448s-47.008-9.28-64-24.512C111.008 438.72 88.576 448 64 448c-24.672 0-46.976-9.632-64-24.96V480c0 17.664 14.336 32 32 32h448c17.664 0 32-14.336 32-32v-56.96C494.976 438.4 472.672 448 448 448zM256 0s-32 46.336-32 64 14.336 32 32 32 32-14.336 32-32-32-64-32-64z"/>
</svg>
