
<svg viewBox="0 -11 512 512" xmlns="http://www.w3.org/2000/svg"><path fill="currentColor" d="M512 80v113c0 11.047-8.953 20-20 20s-20-8.953-20-20V80c0-22.055-17.945-40-40-40H80c-22.055 0-40 17.945-40 40v311c0 22.055 17.945 40 40 40h186c11.047 0 20 8.953 20 20s-8.953 20-20 20H80c-44.113 0-80-35.887-80-80V80C0 35.887 35.887 0 80 0h352c44.113 0 80 35.887 80 80zM97 351c-11.047 0-20 8.953-20 20s8.953 20 20 20 20-8.953 20-20-8.953-20-20-20zm80 0c-11.047 0-20 8.953-20 20s8.953 20 20 20 20-8.953 20-20-8.953-20-20-20zm80 0c-11.047 0-20 8.953-20 20s8.953 20 20 20 20-8.953 20-20-8.953-20-20-20zM117 100c0-11.047-8.953-20-20-20s-20 8.953-20 20 8.953 20 20 20 20-8.953 20-20zm80 0c0-11.047-8.953-20-20-20s-20 8.953-20 20 8.953 20 20 20 20-8.953 20-20zm80 0c0-11.047-8.953-20-20-20s-20 8.953-20 20 8.953 20 20 20 20-8.953 20-20zm80 0c0-11.047-8.953-20-20-20s-20 8.953-20 20 8.953 20 20 20 20-8.953 20-20zm80 0c0-11.047-8.953-20-20-20s-20 8.953-20 20 8.953 20 20 20 20-8.953 20-20zm75 186.668v12.918c0 26.605-26.723 48.758-46.234 64.934-2.368 1.964-4.625 3.835-6.582 5.511 1.84 1.563 3.921 3.29 6.097 5.094 19.715 16.332 46.719 38.7 46.719 65.29v12.917C512 473.551 495.543 490 475.312 490H362.688C342.457 490 326 473.55 326 453.332v-12.918c0-26.988 27.742-50.352 48.004-67.41 1.457-1.23 2.863-2.414 4.168-3.524-1.8-1.53-3.824-3.207-5.938-4.96C352.723 348.344 326 326.19 326 299.586v-12.918C326 266.449 342.457 250 362.688 250h112.628C495.543 250 512 266.45 512 286.668zM472 290H366v9.586c0 .035.191 3.906 8.395 12.941 6.714 7.395 15.562 14.727 23.367 21.196 2.957 2.453 5.746 4.765 8.258 6.949 8.007 6.957 12.98 17.984 12.98 28.773 0 11-4.64 21.602-12.414 28.356-2.082 1.812-4.383 3.746-6.816 5.797-7.645 6.437-17.157 14.449-24.344 22.375-9.145 10.086-9.422 14.414-9.426 14.457V450h106v-9.586c-.004-.023-.277-4.004-8.715-13.21-6.812-7.434-15.687-14.79-23.52-21.274-2.995-2.485-5.824-4.828-8.355-7.024-9.148-7.953-12.41-20.433-12.41-29.46 0-10.79 4.973-21.813 12.98-28.774 2.512-2.184 5.301-4.496 8.258-6.945 7.805-6.473 16.653-13.805 23.364-21.2 8.203-9.035 8.398-12.906 8.398-12.941zm0 0"/></svg>