<svg width="30" height="30" viewBox="0 0 512 512">
    <path fill="currentColor" d="M390.926 122.5c-2.344 0-4.7-.82-6.598-2.488-4.148-3.649-4.555-9.965-.906-14.114.652-.742 16.27-18.226 38.125-18.34 13.316-.113 25.617 6.075 36.558 18.262 3.688 4.11 3.348 10.434-.761 14.121-4.114 3.692-10.434 3.352-14.125-.761-6.957-7.75-14.203-11.633-21.567-11.621-12.765.066-23.109 11.43-23.21 11.543a9.972 9.972 0 0 1-7.516 3.398zm0 0M332.395 227.102a9.975 9.975 0 0 1-6.598-2.489c-4.145-3.648-4.555-9.965-.906-14.113.652-.746 16.27-18.227 38.125-18.34 13.34-.082 25.617 6.074 36.558 18.262 3.688 4.11 3.348 10.433-.762 14.121-4.109 3.691-10.433 3.348-14.125-.762-6.921-7.71-14.14-11.62-21.46-11.62h-.106c-12.766.066-23.11 11.429-23.207 11.542a9.986 9.986 0 0 1-7.52 3.399zm0 0M273.332 122.5c-2.344 0-4.7-.82-6.598-2.488-4.148-3.649-4.554-9.965-.906-14.114.652-.742 16.27-18.226 38.125-18.34 13.274-.078 25.617 6.075 36.559 18.262 3.687 4.11 3.347 10.434-.762 14.121-4.113 3.692-10.434 3.352-14.125-.761-6.922-7.711-14.14-11.621-21.46-11.621h-.106c-12.766.066-23.11 11.43-23.211 11.543a9.972 9.972 0 0 1-7.516 3.398zm0 0" />
    <path fill="currentColor" d="M506.934 1.309a9.979 9.979 0 0 0-10.051.097c-30.29 18.012-63.207 29.25-97.867 33.39-27.86 3.34-56.918 2.142-86.399-3.558-50.578-9.781-85.238-29.68-85.57-29.879a10.014 10.014 0 0 0-10.02-.03 9.986 9.986 0 0 0-5.02 8.667c0 75.961 14.81 147.55 41.7 201.7-13.238 8.527-31.539 18.878-53.719 27.827-27.84 11.23-56.148 18-84.117 20.102-34.851 2.617-69.351-2.031-102.52-13.832a9.994 9.994 0 0 0-9.87 1.84 10.012 10.012 0 0 0-3.301 9.48c2.87 14.809 4.23 21.262 8.23 35.582 1.48 5.317 6.992 8.43 12.313 6.95 5.32-1.493 8.43-7 6.949-12.32-1.992-7.153-3.281-12.153-4.461-17.38 30.68 8.778 62.277 12.02 94.16 9.618 30.027-2.25 60.348-9.489 90.106-21.489a344.615 344.615 0 0 0 55.8-28.719c5.352-3.41 9.98-6.57 13.828-9.332 1.973 12.04 3.5 24.02 4.614 35.852 7.86 83.008-4.883 158.957-35.371 202.137-13.621 19.289-29.77 30.449-47.98 33.187-25.02 3.762-51.579-6.027-76.81-28.34C94.552 438.992 70.45 402 51.872 355.891c-2.059-5.13-7.89-7.598-13.012-5.54-5.129 2.063-7.597 7.891-5.539 13.012 19.742 48.977 45.668 88.567 74.989 114.489C133.78 500.359 160.969 512 187.719 512c4.558 0 9.11-.34 13.629-1.02 23.468-3.53 44.68-17.859 61.34-41.43 19.488-27.609 32.757-67.3 38.347-114.788 2.89-24.528 3.652-50.528 2.313-77.207 18.207 14.687 38.047 22.386 58.648 22.386 41.379 0 79.719-31.078 107.938-87.515 27.12-54.242 42.058-126.13 42.058-202.43a9.976 9.976 0 0 0-5.058-8.687zm-54.891 202.168c-24.66 49.316-56.637 76.468-90.047 76.468-21.441 0-42.289-11.18-61-32.242a560.223 560.223 0 0 0-7.129-47.558 10.015 10.015 0 0 0-6.558-7.56 10.008 10.008 0 0 0-9.82 1.919c-.09.07-2.563 2.21-7.16 5.66-22.84-47.207-36.173-108.246-38.083-173.785 15.602 7.207 42.242 17.777 75.852 24.348 31.597 6.191 62.84 7.53 92.836 3.992 31.832-3.762 62.289-13.043 90.8-27.633-2.03 66.8-15.941 128.91-39.691 176.39zm0 0" />
    <path fill="currentColor" d="M28.887 335.406c-5.524 0-10.004-4.476-10.004-10 0-5.52 4.469-10 9.992-10h.012c5.523 0 10 4.48 10 10 0 5.524-4.477 10-10 10zm0 0M79.605 355.371a9.955 9.955 0 0 1-5.152-1.437c-4.73-2.852-6.254-9-3.402-13.73 8.414-13.954 19.297-22.278 32.347-24.743 21.407-4.04 39.98 9.984 40.762 10.582 4.383 3.363 5.207 9.644 1.844 14.023-3.356 4.371-9.61 5.2-13.988 1.871-.313-.234-12.57-9.218-25.012-6.804-7.168 1.394-13.504 6.574-18.824 15.398a10 10 0 0 1-8.575 4.84zm0 0M194.691 332.945a9.979 9.979 0 0 1-5.156-1.437c-4.726-2.852-6.25-9-3.398-13.73 8.414-13.954 19.297-22.278 32.347-24.743 21.399-4.043 39.98 9.985 40.762 10.586 4.379 3.363 5.203 9.64 1.84 14.02-3.356 4.37-9.606 5.203-13.984 1.87-.317-.234-12.575-9.222-25.012-6.804-7.172 1.395-13.504 6.574-18.824 15.398a9.996 9.996 0 0 1-8.575 4.84zm0 0M182.016 457.402c-10.344 0-20.75-3.89-31.04-11.62-4.417-3.317-5.308-9.587-1.992-14.005 3.32-4.414 9.586-5.304 14.004-1.988 8.215 6.176 16.012 8.598 23.172 7.211 12.55-2.441 20.606-15.59 20.684-15.723 2.804-4.757 8.922-6.32 13.68-3.52 4.757 2.802 6.331 8.954 3.53 13.712-.5.847-12.495 20.851-33.87 25.12a41.55 41.55 0 0 1-8.168.813zm0 0" />
</svg>