 <svg xmlns="http://www.w3.org/2000/svg" xmlns:xlink="http://www.w3.org/1999/xlink" fill="currentColor" viewBox="0 0 512 512">
    <path d="M305 256c0 27.063-21.937 49-49 49s-49-21.937-49-49 21.938-49 49-49 49 21.938 49 49zm65.594-86.695a45.533 45.533 0 0 0-10.996-16.902 45.52 45.52 0 0 0-16.902-10.996c-5.18-2.012-12.96-4.406-27.293-5.06-15.504-.707-20.152-.86-59.402-.86s-43.902.148-59.402.855c-14.332.656-22.117 3.05-27.293 5.063a45.47 45.47 0 0 0-16.902 10.996 45.57 45.57 0 0 0-11 16.902c-2.012 5.18-4.406 12.965-5.06 27.297-.707 15.5-.86 20.148-.86 59.402l.86 59.402c.652 14.332 3.047 22.113 5.06 27.293a45.563 45.563 0 0 0 10.996 16.902 45.52 45.52 0 0 0 16.902 10.996c5.18 2.016 12.965 4.4 27.297 5.063 15.5.707 20.145.855 59.398.855l59.402-.855c14.332-.652 22.117-3.047 27.297-5.062a48.68 48.68 0 0 0 27.898-27.898c2.012-5.18 4.406-12.96 5.063-27.293.707-15.504.855-20.152.855-59.402l-.855-59.402c-.652-14.332-3.047-22.117-5.062-27.297zM256 331.484c-41.7 0-75.488-33.793-75.488-75.484S214.3 180.516 256 180.516 331.484 214.3 331.484 256 297.688 331.484 256 331.484zm78.47-136.312c-9.742 0-17.64-7.898-17.64-17.64s7.898-17.64 17.64-17.64 17.64 7.898 17.64 17.64-7.898 17.64-17.64 17.64zM256 0C114.637 0 0 114.637 0 256s114.637 256 256 256 256-114.637 256-256S397.363 0 256 0zm146.113 316.605c-.7 15.648-3.2 26.332-6.832 35.684a75.166 75.166 0 0 1-42.992 42.992c-9.348 3.633-20.035 6.117-35.68 6.832-15.676.715-20.684.887-60.605.887s-44.93-.172-60.6-.887c-15.645-.715-26.332-3.2-35.68-6.832a72.02 72.02 0 0 1-26.039-16.957 72.04 72.04 0 0 1-16.953-26.035c-3.633-9.348-6.12-20.035-6.832-35.68-.723-15.68-.9-20.687-.9-60.6l.887-60.605c.7-15.648 3.195-26.332 6.828-35.684 3.7-9.8 9.48-18.695 16.96-26.035a72.01 72.01 0 0 1 26.035-16.957c9.352-3.633 20.035-6.117 35.684-6.832C211.07 109.172 216.078 109 256 109s44.93.172 60.605.9c15.648.7 26.332 3.195 35.684 6.824a72.06 72.06 0 0 1 26.039 16.961 72.02 72.02 0 0 1 16.953 26.035c3.637 9.352 6.12 20.035 6.836 35.684.715 15.676.883 20.684.883 60.605l-.887 60.605zm0 0" />
</svg>