<svg version="1" xmlns="http://www.w3.org/2000/svg" viewBox="0 0 1400 980"><path fill="#CCAF2C" d="M877.8 293.9s18.2-35.6 48.1-11.5c29.9 24.1 15.4 137.4 58.5 120.9 0 0-35 18.2-42.2-25.7 0 0 1.2 35 21.1 42.2 0 0-29.6-3.1-32.1-46s-20.3-82.1-49.4-71.1l-4-8.8z"/><path fill="#DFB28B" d="M963.3 297.1s1.1-9.3 10-8.3c8.9.9 14.5 2.1 14.5 2.1l11.4-8.5-7.1 8.9 11.3-2.9-11.4 5.9 13.5 1.6-15.8 1.3-16-.1s-1.8 1.1-5.1 5.5l-5.3-5.5z"/><path d="M974.7 291.2l5.7-11.5-13.2 10.4zM884.5 459.2l37.3-83.9 47.8-74-5.9-5.9-52.5 74.3-40.4 64.4z" fill="#DFB28B"/><path d="M969.5 772.7a84.5 16.7 0 0 1-84.5 16.7 84.5 16.7 0 0 1-84.5-16.7A84.5 16.7 0 0 1 885 756a84.5 16.7 0 0 1 84.5 16.7z" opacity=".22"/><path d="M916.6 373.8a11.5 11.5 0 0 1-11.5 11.5 11.5 11.5 0 0 1-11.5-11.5 11.5 11.5 0 0 1 11.5-11.5 11.5 11.5 0 0 1 11.5 11.5z" fill="#DBA97D"/><path d="M912.7 306.3a21.4 21.7 0 0 1-21.4 21.7 21.4 21.7 0 0 1-21.4-21.7 21.4 21.7 0 0 1 21.4-21.7 21.4 21.7 0 0 1 21.4 21.7z" fill="#4B5059"/><path d="M822.9 368.3a11.5 11.5 0 0 1-11.5 11.5 11.5 11.5 0 0 1-11.5-11.5 11.5 11.5 0 0 1 11.5-11.5 11.5 11.5 0 0 1 11.5 11.5z" fill="#DBA97D"/><linearGradient id="a" gradientUnits="userSpaceOnUse" x1="-93.908" y1="421.643" x2="-93.908" y2="406.041" gradientTransform="matrix(-1 0 0 1 763.228 0)"><stop offset="0" stop-color="#dfb28b"/><stop offset="1" stop-color="#b9895f"/></linearGradient><path fill="url(#a)" d="M866.9 428.1l.2-31.8-19.9-2.9.3 37.3s13.1 7.6 19.4-2.6z"/><path fill="#DBC040" d="M806.7 309.4s18.9-39.8 73.6-21c54.7 18.8 30.4 61.4 30.4 61.4s-17.3-54-104-40.4z"/><path d="M840.9 592.2l-5.2 150.7-9.9-2.3-13.4-172.8zM908 356.8a50.7 50.7 0 0 1-50.7 50.7 50.7 50.7 0 0 1-50.7-50.7 50.7 50.7 0 0 1 50.7-50.7 50.7 50.7 0 0 1 50.7 50.7zM890.9 579.4l35 170.9h-10.7l-58.6-169.1z" fill="#DFB28B"/><path fill="#252A26" d="M833.4 739.2l7.2 11.5s-12.4 19.1-26.8 25.3c0 0 11-17.2 12-35.4l7.6-1.4z"/><path d="M836.3 748.6v24.1l4.3-22z" fill="#252A26"/><path fill="#DFB28B" d="M834.3 738.7l1.4 4.2c-2.4 11.3-9 14.1-13.4 14.7 1.7-5.2 3.1-11.6 3.4-17.5l8.6-1.4z"/><path fill="#005757" d="M832.2 512.4s-23.6 8.4-19.8 55.5c2.2 27-8.1 28.9-8.1 28.9s52.7 29.6 99.4-9.8c0 0-9.5-6.9-8.6-22.2.9-15.3-4.8-42.5-23-52.3h-39.9z"/><path fill="#252A26" d="M914.9 748.7l-4.1 7.7s13.1 18.7 27.7 24.3c0 0-9.7-13.1-12.9-29.9-.2-1.1-3.8.9-4-.2l-6.7-1.9z"/><path d="M914.9 754.2l.9 24-5.1-21.8z" fill="#252A26"/><path fill="#DFB28B" d="M917.5 743.2l-3.6 3.7c2.8 11.2 10.9 15.2 15.3 15.7-1.9-5.1-1.8-4.8-3.3-12.4l-8.4-7zM866.9 428.1s36.6 19.7 6.4 52.3c-29.3 31.7-88-40.1-28.6-52.5 0 0 18.8-2 22.2.2z"/><path fill="#013333" d="M881.7 472.8s-14.3-32-34.4-10.2c0 0-10.8-23.5-28 1.3 0 0 20.1 29.1 11.5 48.5-8.6 19.4 39.6 14 46.3 4.8 0 0-14.7-31.6 4.6-44.4z"/><path fill="#DFB28B" d="M740.3 295.6s-1.1-9.3-10-8.3c-8.9.9-14.5 2.1-14.5 2.1l-11.4-8.5 7.1 8.9-11.3-2.9 11.4 5.9-13.5 1.6 15.8 1.3 16-.1s1.8 1.1 5.1 5.5l5.3-5.5z"/><path d="M728.8 289.8l-5.7-11.6 13.2 10.5z" fill="#DFB28B"/><path d="M877 427.1l42.7 57.1" fill="none" stroke="#D7DF23" stroke-width="1.434" stroke-linecap="round"/><path fill="#A0A96A" d="M921.8 481.4l25.2 33.7s-18.6 16.9-43.8 21.5l-11.4-39.4 30-15.8z"/><path fill="#C4CE81" d="M892.5 497l29-15.4c2.5 13.3 6.7 48.9-29 15.4z"/><path d="M918.2 505.5a2.2 2.2 0 0 1-2.2 2.2 2.2 2.2 0 0 1-2.2-2.2 2.2 2.2 0 0 1 2.2-2.2 2.2 2.2 0 0 1 2.2 2.2z" fill="#A0A96A"/><path d="M872.4 348.3a7.2 7.2 0 0 1-7.2 7.2 7.2 7.2 0 0 1-7.2-7.2 7.2 7.2 0 0 1 7.2-7.2 7.2 7.2 0 0 1 7.2 7.2z"/><path d="M870.3 346.5a3.3 3.3 0 0 1-3.3 3.3 3.3 3.3 0 0 1-3.3-3.3 3.3 3.3 0 0 1 3.3-3.3 3.3 3.3 0 0 1 3.3 3.3z" fill="#939598"/><path d="M849.6 346.8a7.2 7.2 0 0 1-7.2 7.2 7.2 7.2 0 0 1-7.2-7.2 7.2 7.2 0 0 1 7.2-7.2 7.2 7.2 0 0 1 7.2 7.2z"/><path d="M847.5 345a3.3 3.3 0 0 1-3.3 3.3 3.3 3.3 0 0 1-3.3-3.3 3.3 3.3 0 0 1 3.3-3.3 3.3 3.3 0 0 1 3.3 3.3z" fill="#939598"/><path d="M856 339.8s9.8-4.1 22.7 4.7c0 0-9-16.5-22.7-4.7zM850.4 340.1s-11-4.4-18.6 2.7c0 0 6.9-14.5 18.6-2.7z"/><path d="M819.1 457.7l-37.3-83.9-47.8-74 5.9-5.9 52.4 74.4 40.4 64.3z" fill="#DFB28B"/><path fill="#00587E" d="M837.3 430.7s-10.1 30.3-4.6 58.3c0 0-9.9 2.9-19.6-5l2.4-34.4-12.1-20.6 19.5-15.5 14.4 17.2zM872.4 429s-4.4 49.3-8 63.6c0 0 15.7 1.1 20.8-1.8l-.1-33 16.3-28.8-19.6-18.1-9.4 18.1z"/><path fill="#047EB6" d="M837.3 430.7l-14.4 20 7.2 7-5.5 6.2 8.1 25.1s-1.7-44.1 4.6-58.3zM872.4 429s-3.3 45.7-8 63.6l12.9-30.1-4.9-4.8 7.9-6.3c0 .1 0-9-7.9-22.4z"/><path d="M874.3 432.6a3.6 3.6 0 0 1-3.6 3.6 3.6 3.6 0 0 1-3.6-3.6 3.6 3.6 0 0 1 3.6-3.6 3.6 3.6 0 0 1 3.6 3.6z" fill="#F1F2F2"/><path d="M869.9 438.7a3.6 3.6 0 0 1-3.6 3.6 3.6 3.6 0 0 1-3.6-3.6 3.6 3.6 0 0 1 3.6-3.6 3.6 3.6 0 0 1 3.6 3.6z" fill="#F1F2F2"/><path d="M864.4 443.9a3.6 3.6 0 0 1-3.6 3.6 3.6 3.6 0 0 1-3.6-3.6 3.6 3.6 0 0 1 3.6-3.6 3.6 3.6 0 0 1 3.6 3.6zM857.1 446a3.6 3.6 0 0 1-3.6 3.6 3.6 3.6 0 0 1-3.6-3.6 3.6 3.6 0 0 1 3.6-3.6 3.6 3.6 0 0 1 3.6 3.6zM849.8 444.9a3.6 3.6 0 0 1-3.6 3.6 3.6 3.6 0 0 1-3.6-3.6 3.6 3.6 0 0 1 3.6-3.6 3.6 3.6 0 0 1 3.6 3.6z" fill="#F1F2F2"/><path d="M846.2 438.7a3.6 3.6 0 0 1-3.6 3.6 3.6 3.6 0 0 1-3.6-3.6 3.6 3.6 0 0 1 3.6-3.6 3.6 3.6 0 0 1 3.6 3.6zM844.5 430.7a3.6 3.6 0 0 1-3.6 3.6 3.6 3.6 0 0 1-3.6-3.6 3.6 3.6 0 0 1 3.6-3.6 3.6 3.6 0 0 1 3.6 3.6z" fill="#F1F2F2"/><path d="M874.5 428.8l19.9 68.5" fill="none" stroke="#D7DF23" stroke-width="1.434" stroke-linecap="round"/><path fill="#EBD467" d="M885.2 314.5s-32.1 12.5-52.5 15.7c-20.3 3.2-26.8 24.4-29.3 38.1 0 0-11.1-18.7 0-41 0 0-14 29.2-12.5 35.1 0 0-17-30 9.1-53 26-22.9 69.8-29.8 88.4-6.7 0 0 53.8 17.8 12.9 71.1 0 0 .7-44.2-16.1-59.3z"/><path fill="#FFF" d="M838.9 373.8s12.4 5.9 23.8 0c0 0-1.9 14.7-13.1 14.8-11.2.2-10.7-14.8-10.7-14.8z"/><g fill="#DFB28B"><path d="M363.3 295.9s-1.1-9.3-10-8.3c-8.9.9-14.6 2.1-14.6 2.1l-11.4-8.5 7.1 8.9-11.3-2.9 11.4 6-13.5 1.6 15.8 1.3 16-.1s1.8 1.1 5.1 5.5l5.4-5.6z"/><path d="M351.8 290l-5.7-11.5 13.2 10.4zM442.1 458.1l-37.3-84-47.9-74 6-5.9 52.4 74.4 40.4 64.4z"/></g><path d="M526.1 771.8a84.6 12 0 0 1-84.6 12 84.6 12 0 0 1-84.6-12 84.6 12 0 0 1 84.6-12 84.6 12 0 0 1 84.6 12z" opacity=".22"/><path d="M432.9 372.7a11.5 11.5 0 0 1-11.5 11.5 11.5 11.5 0 0 1-11.5-11.5 11.5 11.5 0 0 1 11.5-11.5 11.5 11.5 0 0 1 11.5 11.5zM526.7 367.1a11.5 11.5 0 0 1-11.5 11.5 11.5 11.5 0 0 1-11.5-11.5 11.5 11.5 0 0 1 11.5-11.5 11.5 11.5 0 0 1 11.5 11.5z" fill="#DBA97D"/><linearGradient id="b" gradientUnits="userSpaceOnUse" x1="469.454" y1="420.538" x2="469.454" y2="404.925"><stop offset="0" stop-color="#dfb28b"/><stop offset="1" stop-color="#b9895f"/></linearGradient><path fill="url(#b)" d="M459.7 427l-.2-31.9 19.9-2.9-.3 37.3c0 .1-13.1 7.8-19.4-2.5z"/><path d="M485.7 585.4l5.2 156.6 9.9-2.2 13.4-173zM520 355.7a50.7 50.7 0 0 1-50.7 50.7 50.7 50.7 0 0 1-50.7-50.7 50.7 50.7 0 0 1 50.7-50.7 50.7 50.7 0 0 1 50.7 50.7z" fill="#DFB28B"/><path fill="#252A26" d="M493.2 738.3l-7.2 11.5s12.4 19.1 26.8 25.4c0 0-11-17.2-12-35.4l-7.6-1.5z"/><path d="M490.3 747.7v24.1l-4.3-22z" fill="#252A26"/><path fill="#DFB28B" d="M492.3 737.8l-1.4 4.2c2.4 11.3 9 14.1 13.4 14.8-1.7-5.2-3.1-11.6-3.4-17.5l-8.6-1.5zM459.7 427s-36.6 19.7-6.5 52.3c29.3 31.7 88.1-40.1 28.6-52.6.1.1-18.7-1.9-22.1.3z"/><path d="M491.4 345.6a7.2 7.2 0 0 1-7.2 7.2 7.2 7.2 0 0 1-7.2-7.2 7.2 7.2 0 0 1 7.2-7.2 7.2 7.2 0 0 1 7.2 7.2z"/><path d="M485.7 343.9a3.3 3.3 0 0 1-3.3 3.3 3.3 3.3 0 0 1-3.3-3.3 3.3 3.3 0 0 1 3.3-3.3 3.3 3.3 0 0 1 3.3 3.3z" fill="#939598"/><path fill="#FFF" d="M499.2 372.4s-31 9.7-53.4-.3c0 0 8.2 18 24.2 18.5s27.2-10.5 29.2-18.2z"/><path fill="#DFB28B" d="M480.8 586.4s-4 68.6-12.2 80.1L357 638.8l-25.8 8.6 21.5-19.1 96.1 16.3-7.4-66 39.4 7.8z"/><path fill="#252A26" d="M360.8 631.3l-12.2-6s-17.8 14.3-22.5 29.2c0 0 16-12.7 34-15.5l.7-7.7z"/><path d="M351.1 629.4l-23.9 2.4 21.4-6.5z" fill="#252A26"/><path fill="#DFB28B" d="M361.2 630.4l-4.3-1c-11 3.5-13.1 10.4-13.3 14.8 5-2.3 11.2-4.2 17.1-5.2l.5-8.6z"/><path fill="#9E1F63" d="M449.5 516.2s-23.6 15.4-10.7 64.2l43.2 7.8.8-5.9 1.5 5.7 29.9-7.1s8.9-48.4-17.7-67.5c0-.1-15.3 16.1-47 2.8z"/><path fill="#DFB28B" d="M445.9 469.5s9.7 34.7 3.6 46.7c0 0 25.9 18.2 47.1-2.9 0 0-.6-33.3 5.2-44.9-.1 0-49.1 3.5-55.9 1.1z"/><path fill="#92278F" d="M453 426s2.9 31.8-11.7 35.4l1.6 38s43.1 8.9 67.1-3.4c0 0-5.8-10.5-2.6-19.5 3.3-9 3.8-18.1-1.3-22.1s-12.8-22-14.9-28.3h-4.5s11.9 28.5 0 34.6c-11.9 6.1-31.9-6.1-30.5-34.6H453z"/><path fill="#DFB28B" d="M496.8 432.4s3.3-5.6 13.3 0 47.4 51.6 47.4 51.6 6.5 13.2-8.6 12l-45.1-44.4-7-19.2zM579.1 401.5s6.6-20 0-30.8c0 0-10.9.8-12.4 8 0 0 .6 17.1 1.4 21 .8 3.8 4.3 5.4 11 1.8z"/><path fill="#DFB28B" d="M547.4 481.1l21.5-77.6 9.3 2.9s-10.7 82.8-20 86.2c0 0-8.7.2-10.8-11.5z"/><path fill="#D7DF23" d="M549.1 389.8l108.1-69.1 8.8 31.4-114.7 44c.1-.1-7.2 0-2.2-6.3z"/><linearGradient id="c" gradientUnits="userSpaceOnUse" x1="698.636" y1="144.304" x2="700.994" y2="116.249" gradientTransform="rotate(-13.295 1592.774 399.901)"><stop offset="0" stop-color="#d7df23"/><stop offset="1" stop-color="#606902"/></linearGradient><path fill="url(#c)" d="M669.2 334.3c2.1 9 .1 17.2-4.5 18.3-4.6 1.1-10.1-5.3-12.2-14.4-2.1-9-.1-17.2 4.5-18.3 4.6-1.1 10 5.4 12.2 14.4z"/><path fill="#DFB28B" d="M568.9 403.5l-6.1-6.8s-2.5-11.1-5.7-24c0 0 9 11.1 9.3 17.9 0 0 16.5 1 11.8 15.8.1 0-8.2 2.4-9.3-2.9z"/><path fill="#DFB28B" d="M568.1 374.5s-5.6 3-3.5 6.9 1.5 4.8 1.5 4.8 3.7-1.2 2-5.8l1.7 4.6s2.1-.1 1.6-4.6l2.9 4.2s2.8-1.9.7-5.9c0 0 .6-7 4.1-8 0 0-4.4-3.7-4.8 1 0 0-3.1-1.8-4 1.1.1-.1-1.4-.6-2.2 1.7z"/><path d="M428.8 305s-14.7-10.7-7.3-26.5c7.3-15.8 66.5-29.3 65.4 9.7-.1-.1-38.1.1-58.1 16.8z"/><path fill="#939598" d="M433.1 320.7s-16.4-10.7-8.2-26.5 74.3-29.3 73.1 9.7c-.1 0-42.6.1-64.9 16.8z"/><path d="M471 307.6s5 19-2.4 28.3l-32.8 5-2.9-16.6s-8.8 49.7 4.5 88.1c0 0-19.5-18.2-27.7-48 0 0-5.8-21.8.2-43.7 6-21.9 25.8-33.5 54.5-36.4 28.7-2.9 68 4.7 72.3 48.1l-10.1 2.5s1.4-22.5-14.6-31.8c0 0 12 10.3 12 31.8s-2.6 52.9 3.7 74.9c0 0-10.7-30.9-10.4-51.3.3-20.4-1.7-21.4-3.7-26.1l-34 2.5c.2-.1 2-19.9-8.6-27.3z"/><path d="M465.3 348s-7.5-9.5-19.4-2.4v2.4s10.1-4.9 17.4 2.6l2-2.6z"/><path fill="#3B3536" d="M433.4 301.5s5.8 24.3 13.6 13.8 10.4-23.9 25.6-13.8 37.8 9.8 33.7-2c-4.1-11.8-13.2-14.4-12.8-3.7s-4.1 4.8-11.1 1.8-16.7-11-26.7-1.5-13.6 17.4-22.3 5.4z"/><path d="M444.8 809.9a138.1 15.8 0 0 1-138.1 15.8 138.1 15.8 0 0 1-138.1-15.8 138.1 15.8 0 0 1 138.1-15.8 138.1 15.8 0 0 1 138.1 15.8z" opacity=".22"/><path fill="#6F5131" d="M216.5 443s-33.6 20.8-37.6 83.5h18.8l18.8-83.5z"/><path fill="#86623E" d="M301.4 443s-27.8-19.7-84.9 0c0 0-51.5 42.6-10.2 143.3 0 0 44.4 11.7 81.3-4.9-.1 0-12.6-121.2 13.8-138.4z"/><path d="M207.9 761.5L194 771.9l11.3 7 11.3-7.9z" fill="#EBD467"/><path fill="#9A1C1F" d="M203.6 777.9s20 10.3 19.1 31.5c0 0-19.2-14.7-47.1-23.5 0 0 1.2-12.1 18.3-14.1.1.1 8 5 9.7 6.1z"/><path fill="#CC5861" d="M222.6 805.1c-14.5-14.5-38.8-21-45.9-22.6-1 2-1.1 3.6-1.1 3.6 27.9 8.7 47.1 23.5 47.1 23.5.1-1.7 0-3.1-.1-4.5zM191.23 783.775a3.6 3.9-75.516 0 1-2.876-4.46 3.6 3.9-75.516 0 1 4.676-2.51 3.6 3.9-75.516 0 1 2.876 4.46 3.6 3.9-75.516 0 1-4.677 2.51zM206.2 779.5l-4 3.8s9.1 4.7 11 7.6l3.5-2.9s-5.8-7.9-10.5-8.5z"/><path d="M436 690.1l13.5 10.9 4-12.7-10.4-9z" fill="#EBD467"/><path d="M313.3 584.3s83.7 51.1 131.8 97l-7.3 13.9s-100.6-61.3-150.6-59.8c0 0-.6 41.6-12.5 72.2 0 0-16.3 55.4-63.7 68.6l-12.4-8s40.7-27 49.2-62c0 0-19-91.2-15.5-115.3 0 0 43.3-25.6 81-6.6z"/><path d="M242.6 395.5a13.8 13.8 0 0 1-13.8 13.8 13.8 13.8 0 0 1-13.8-13.8 13.8 13.8 0 0 1 13.8-13.8 13.8 13.8 0 0 1 13.8 13.8zM330.1 370.1a13.8 13.8 0 0 1-13.8 13.8 13.8 13.8 0 0 1-13.8-13.8 13.8 13.8 0 0 1 13.8-13.8 13.8 13.8 0 0 1 13.8 13.8z" fill="#DBA97D"/><path d="M256.4 431.6h30.8v7.7h-30.8v-7.7z" fill="#939598"/><path fill="#C39C7A" d="M281.9 434.4v-14.1c0-5.3-4.3-9.7-9.7-9.7-5.3 0-9.7 4.3-9.7 9.7v14.1l-18.9 13.8 28.6 34 28.9-32.3-19.2-15.5z"/><path d="M325 371.9a53.3 53.3 0 0 1-53.3 53.3 53.3 53.3 0 0 1-53.3-53.3 53.3 53.3 0 0 1 53.3-53.3 53.3 53.3 0 0 1 53.3 53.3z" fill="#DFB28B"/><path fill="#414042" d="M274.7 443.1l-2.5 12.8-3.2-12.8-11.7-6.2s-20 8.4-27.5 17.4c0 0-9.2 76.3 0 148.7 0 0 23.7 5 44.9 3.8v-26.6L284 607c-6.7 0 17.1-2.7 39.1-18.7 0 0-22-65.6-9.9-134.9 0 0-12.5-10.7-28.1-16.5l-10.4 6.2z"/><path d="M256.4 431.6l12.6 11.5-6.3 11.2-12.2-16.7zM287.2 431.6l-12.5 11.5 6.3 11.2 12.2-16.7z" fill="#BCBEC0"/><path d="M272.2 455.8l-3.2-12.7-4.2-2.3-1 11.4 10.6 70.5 5.4-70.5-4.2-9.7-.9.6zM273.482 344.443a10.3 7.8 73.19 0 1-4.488 12.116 10.3 7.8 73.19 0 1-10.446-7.604 10.3 7.8 73.19 0 1 4.489-12.116 10.3 7.8 73.19 0 1 10.445 7.604z"/><path d="M265.9 344a3.7 3.7 0 0 1-3.7 3.7 3.7 3.7 0 0 1-3.7-3.7 3.7 3.7 0 0 1 3.7-3.7 3.7 3.7 0 0 1 3.7 3.7z" fill="#D1D3D4"/><path d="M293.786 338.33a10.3 7.8 73.19 0 1-4.488 12.115 10.3 7.8 73.19 0 1-10.445-7.604 10.3 7.8 73.19 0 1 4.488-12.116 10.3 7.8 73.19 0 1 10.445 7.604z"/><path d="M286.2 337.9a3.7 3.7 0 0 1-3.7 3.7 3.7 3.7 0 0 1-3.7-3.7 3.7 3.7 0 0 1 3.7-3.7 3.7 3.7 0 0 1 3.7 3.7z" fill="#D1D3D4"/><path d="M256.2 504.8l-28-65.5L243 436l20.5 68.8zM287.5 500.3l9-60 9.4 4.6-12.7 59.9zM255.3 522.1l-49.1 48 2.6 11.3 59.4-65.9zM287.2 515.5l32.7 61.8-3.1-18.9-23.6-45z" fill="#A97C50"/><path fill="#3C2415" d="M220 384.8l3.5 5.1s-10.4-23.2 3.5-45.8c0 0 8.6-17.5 30.5-18.2 14.9-.4 23.2-.2 31-4 0 0 14.5 4.4 21.1 12.4 0 0-4.2-12.2-10.3-15.7 0 0 16.4-15.2 3.2-34.7 0 0 .9 12.1-4.8 15.2 0 0 5.3-11.3 0-20.8 0 0-3.7 9.1-12.3 10.8 0 0 6.5-5.2 3.3-15.6 0 0-9.7 14.3-22.7 16-13 1.7-44.7 7.4-52.9 35.5 0 0 2.6-16.9 11.7-25.1 0 0-17.8 8.5-16.5 31.8 0 0-8.7-5.8-10.4-21.8 0 0-2.2 19.3 7.8 26.8 0 0-7.8-2.7-17.3 1.3 0 0 12.6-.6 15.6 3.7 0 0-12.9 25.8 14.6 44.7l1.4-1.6z"/><path fill="#DFB28B" d="M250.5 511.3s-.8-11.9 10-10.9 12.4 22.4-2.5 21.5l-10.8 4.5-3.5-9.2 6.8-3.8v-2.1zM298.3 511.3l-1.5-1.1s2.6-9.1-6-12.3c-8.6-3.2-15 11.4-7.9 17.8 7 6.4 12.6 0 12.6 0l3.5 2.8-.7-7.2z"/><path d="M241.2 515.6l6.5-2.2 4.2 13-6.1 1.5zM303.5 521.6l-6.9-1.9 1.9-10.3 6.5 3.4z" fill="#939598"/><path fill="#414042" d="M229.8 454.3s-37.4 26.9-44.7 86.1c0 0 6.4 8.3 62.6-10.1l-4.1-16.3-35 10.8s9.9-19.7 25.7-31.5l-4.5-39zM313.1 453.4s25.5 38.7 19.2 84.9c0 0-20.6-3.8-32.1-16.4l.9-13 14 4.5s-6.1-14.1-10.1-17.5c0 0 .8-37.2 8.1-42.5z"/><path fill="#9A1C1F" d="M452.9 690.2s5-22 25.8-26.4c0 0-9.5 22.3-10.9 51.4 0 0-12 1.9-18.2-14.2-.1 0 2.7-8.9 3.3-10.8z"/><path fill="#CC5861" d="M474.5 665c-10.5 17.6-10.6 42.9-10.5 50.1 2.2.4 3.7.2 3.7.2 1.5-29.2 10.9-51.4 10.9-51.4-1.4.2-2.8.6-4.1 1.1zM461.7 700.7a3.6 3.9 0 0 1-3.6 3.9 3.6 3.9 0 0 1-3.6-3.9 3.6 3.9 0 0 1 3.6-3.9 3.6 3.9 0 0 1 3.6 3.9zM453.8 687.2l4.7 3s2.3-9.9 4.6-12.5l-3.6-2.7s-6.2 7.5-5.7 12.2z"/><path d="M248.8 366a3.1 1.9 0 0 1-3.1 1.9 3.1 1.9 0 0 1-3.1-1.9 3.1 1.9 0 0 1 3.1-1.9 3.1 1.9 0 0 1 3.1 1.9zM257.5 367.5a2.1 1.5 0 0 1-2.1 1.5 2.1 1.5 0 0 1-2.1-1.5 2.1 1.5 0 0 1 2.1-1.5 2.1 1.5 0 0 1 2.1 1.5zM253.3 373.2a2.2 1.3 0 0 1-2.2 1.3 2.2 1.3 0 0 1-2.2-1.3 2.2 1.3 0 0 1 2.2-1.3 2.2 1.3 0 0 1 2.2 1.3zM301.2 358.4a1.8 1.6 0 0 1-1.8 1.6 1.8 1.6 0 0 1-1.8-1.6 1.8 1.6 0 0 1 1.8-1.6 1.8 1.6 0 0 1 1.8 1.6zM310.5 355.9a2.6 1.6 0 0 1-2.6 1.6 2.6 1.6 0 0 1-2.6-1.6 2.6 1.6 0 0 1 2.6-1.6 2.6 1.6 0 0 1 2.6 1.6zM306.4 363.6a2.6 2.4 0 0 1-2.6 2.4 2.6 2.4 0 0 1-2.6-2.4 2.6 2.4 0 0 1 2.6-2.4 2.6 2.4 0 0 1 2.6 2.4z" fill="#C99262"/><path fill="#FFF" d="M291.5 393s-22 6.8-43.8-4.2c0 0 20.3 23.4 43.8 4.2z"/><path d="M1184.7 842a136.1 19.6 0 0 1-136.1 19.6A136.1 19.6 0 0 1 912.5 842a136.1 19.6 0 0 1 136.1-19.6 136.1 19.6 0 0 1 136.1 19.6z" opacity=".22"/><path fill="#DFB28B" d="M943.9 490.3s22.2 28.2 87.5 9.9l6.9 16.8s-58.6 30.8-99.6-19.7l5.2-7zM1247.6 511.6s7.7-15.1 11.8-15.3c0 0 1.4 3.2-2.6 9.1 0 0 8.3-9.9 11.7-8.9 0 0 2.7 1.3-5.7 8.1 0 0 8.3-6.8 11.1-6.1 0 0 1.3 4.2-9.5 11 0 0 7.2-5.7 9.9-5 0 0-3.4 5.1-8.3 8.1 0 0 5.1-3.6 7.1-2.9 0 0-5 7.9-22.7 11.8 0 .1-6.3-3.5-2.8-9.9z"/><path fill="#DFB28B" d="M1246.6 514.4s-49.9 17.7-78.6 0l-7.4 14.9s37.5 23.2 89.8-7.7l-3.8-7.2z"/><path d="M1154.9 428a13.4 13.4 0 0 1-13.4 13.4 13.4 13.4 0 0 1-13.4-13.4 13.4 13.4 0 0 1 13.4-13.4 13.4 13.4 0 0 1 13.4 13.4zM1070.4 403.4a13.4 13.4 0 0 1-13.4 13.4 13.4 13.4 0 0 1-13.4-13.4A13.4 13.4 0 0 1 1057 390a13.4 13.4 0 0 1 13.4 13.4z" fill="#DBA97D"/><path fill="#FFF" d="M975.2 822.4l-1.3 13.9s-19 8.8-47.1 8.8c0 0 23.3-15.8 33.6-26.2 0 0 10.3-1.7 14.8 3.5zM1235.1 720.4l12.5-6.3s17.5 11.5 32.4 35.3c0 0-25.8-11.4-40-14.6 0 0-6.9-7.8-4.9-14.4z"/><path fill="#C39C7A" d="M1084.6 462.1v-16.2c0-6.1 5-11.1 11.1-11.1s11.1 5 11.1 11.1v16.2l21.7 15.8-32.8 39-33.1-37 22-17.8z"/><path fill="#DFB28B" d="M1053.6 620.8s-57.7 30-76.7 87c-19 56.9-16.7 90.1-17 107.5 0 0 0 14.3 14.7 9.5 0 0 14.4-138.4 112-156.6 0 0 5.7 63.3 39.9 85.4 0 0 60.2 16.6 117.5-17.4 0 0-.5-11.1-8.8-16.6 0 0-45.5 17.4-89 12.7 0 0-12.7-59.3 0-90.1-.1-.1-30.1-37.2-92.6-21.4z"/><path fill="#A73D37" d="M1057 611.5s-57.2 26.7-72.1 55.4l52.4 47.2s27.3-26.4 44.9-33.3l13.3 46.3s33.4 4.5 59.4-13c0 0-12.2-66.5-13.4-96.9 0 0-64.9 11.1-84.5-5.7z"/><path fill="#DFB28B" d="M1050.7 390.3c-8.2 27.2 7.2 56 34.4 64.2 27.2 8.2 56-7.2 64.2-34.4 8.2-27.2-7.2-56-34.4-64.2-27.2-8.3-56 7.1-64.2 34.4z"/><path d="M1098.26 378.707a9.9 7.6-73.196 0 1 10.137-7.28 9.9 7.6-73.196 0 1 4.413 11.674 9.9 7.6-73.196 0 1-10.137 7.28 9.9 7.6-73.196 0 1-4.414-11.674z"/><path d="M1112.7 378.2a3.5 3.5 0 0 1-3.5 3.5 3.5 3.5 0 0 1-3.5-3.5 3.5 3.5 0 0 1 3.5-3.5 3.5 3.5 0 0 1 3.5 3.5z" fill="#D1D3D4"/><path d="M1078.626 372.767a9.9 7.6-73.196 0 1 10.137-7.28 9.9 7.6-73.196 0 1 4.414 11.675 9.9 7.6-73.196 0 1-10.138 7.28 9.9 7.6-73.196 0 1-4.413-11.675z"/><path d="M1093.1 372.3a3.5 3.5 0 0 1-3.5 3.5 3.5 3.5 0 0 1-3.5-3.5 3.5 3.5 0 0 1 3.5-3.5 3.5 3.5 0 0 1 3.5 3.5z" fill="#D1D3D4"/><path d="M1075 469s-3.2 9.9 19.7 15.9c22.8 6 23.8-17.2 23.8-17.2s18.8 2.4 30.2 17.2c11.4 14.8 27.2 20.4 37.6 24.3l-3 43.9s-34.2-2.5-41.8-10.9c0 0 7.9 17.8 6.2 103.9 0 0-67.5 12.8-100-30 0 0 21.5-33.9 9.3-83.4 0 0-20.8 8.9-29.6 7.9l-10.8-43s19.2-4 31.9-17.4S1075 469 1075 469z"/><path fill="#DFB28B" d="M937.9 498.1s-18.8-10.9-21.2-23.8c0 0 9-6.9 15.1-2.4 0 0 11.3 13.6 13.3 17.2 2.1 3.6.5 7.2-7.2 9z"/><path fill="#1498C3" d="M953.1 468.5L822 489.3l14.7 30.3 118.9-44.8c0 .1 5.7-4.9-2.5-6.3z"/><linearGradient id="d" gradientUnits="userSpaceOnUse" x1="1537.196" y1="270.398" x2="1539.635" y2="241.38" gradientTransform="scale(-1 1) rotate(28.333 -150.128 -4316.03)"><stop offset="0" stop-color="#1498c3"/><stop offset="1" stop-color="#005872"/></linearGradient><path fill="url(#d)" d="M822.2 508.1c4.6 8.5 11.8 13.4 16.1 11.1 4.3-2.3 4.1-11.1-.4-19.5-4.6-8.5-11.8-13.4-16.1-11.1-4.4 2.3-4.2 11 .4 19.5z"/><path fill="#DFB28B" d="M947.2 492.7l.1-9.4s-5.7-10.3-12.1-22.5c0 0 .7 14.7 5.1 20.3 0 0-12.1 12.1 1.7 20.3 0 0 8-3.8 5.2-8.7z"/><path fill="#DFB28B" d="M927.9 469.7s6.4-1.6 7.4 2.9 2.1 4.7 2.1 4.7-3.7 1.6-5.5-3.1l1.8 4.8s-1.7 1.3-4.4-2.5l.7 5.2s-3.4.4-4.6-4.1c0 0-5.2-5-8.6-3.4 0 0 .9-5.9 4.3-2.5 0 0 1.1-3.5 3.8-1.9 0 .1.8-1.4 3-.1z"/><path fill="#6E111B" d="M1065.7 366.7s-9.8-20.4-4.2-42.2l8.8 18.9s-5.9-16.9 0-29.3l38.9 19.2-19.6-17s35.1 2.3 49.1 24.2l-10.2-18.7s27.1 9.9 26.4 29l10.3-11.6-4.6 15.4 16.6-1.5-16.6 11.8 16.6 2-16.6 23.9 13.1-5.4-24.4 34.8-7.8 12.7h-4.3s9-15.6 8-27.5 1.9-39.5-20.8-40-35.7-16.2-58.7 1.3z"/><path d="M1089.576 425.503a5.5 13.8 5.802 0 1-6.867 13.174 5.5 13.8 5.802 0 1-4.077-14.286 5.5 13.8 5.802 0 1 6.867-13.174 5.5 13.8 5.802 0 1 4.077 14.286z" fill="#FFF"/><path fill="#872237" d="M689.6 377.9s-4-19.7-38.3-26.4c-34.3-6.8-73.5 13.5-78.5 67.6-3.7 39.6 11.1 77.6-14.7 94-25.8 16.5-23.3 43.4-3.7 52.3 19.7 9 82 25.4 120.2-37.5 38.2-62.8 38.7-143.3 15-150z"/><path d="M713.7 852.8a81.2 17.1 0 0 1-81.2 17.1 81.2 17.1 0 0 1-81.2-17.1 81.2 17.1 0 0 1 81.2-17.1 81.2 17.1 0 0 1 81.2 17.1z" opacity=".22"/><path d="M606.4 452.4a11.7 11.7 0 0 1-11.7 11.7 11.7 11.7 0 0 1-11.7-11.7 11.7 11.7 0 0 1 11.7-11.7 11.7 11.7 0 0 1 11.7 11.7zM701.8 446.7a11.7 11.7 0 0 1-11.7 11.7 11.7 11.7 0 0 1-11.7-11.7 11.7 11.7 0 0 1 11.7-11.7 11.7 11.7 0 0 1 11.7 11.7z" fill="#DBA97D"/><linearGradient id="e" gradientUnits="userSpaceOnUse" x1="643.611" y1="501.076" x2="643.611" y2="485.19"><stop offset="0" stop-color="#dfb28b"/><stop offset="1" stop-color="#b9895f"/></linearGradient><path fill="url(#e)" d="M633.7 507.7l-.2-32.4 20.2-2.9-.4 38c.1-.1-13.2 7.7-19.6-2.7z"/><path d="M695 435.1a51.6 51.6 0 0 1-51.6 51.6 51.6 51.6 0 0 1-51.6-51.6 51.6 51.6 0 0 1 51.6-51.6 51.6 51.6 0 0 1 51.6 51.6z" fill="#DFB28B"/><path fill="#252A26" d="M667.8 824.4l-7.3 11.7s12.7 19.5 27.3 25.8c0 0-11.2-17.5-12.2-36l-7.8-1.5z"/><path d="M664.8 834v24.5l-4.4-22.4z" fill="#252A26"/><path fill="#C39C7A" d="M667.8 824.4l-2.3 3.7c2.4 11.5 9.1 14.4 13.6 15-1.8-5.3-3.2-11.2-3.5-17.3l-7.8-1.4z"/><path fill="#DFB28B" d="M658.3 508.6s10.9 5 13.3 3.7c2.4-1.3 10.5-8.1 16.9 7.9 6.4 16.1 8.9 61.3 11.8 67.7l68.6-7.3v6.8L692 601.3 674.6 528l-16.3-19.4z"/><path fill="#252A26" d="M551.3 716.2l-11.4-7.7s-19.9 11.9-26.8 26.3c0 0 17.9-10.5 36.5-10.8l1.7-7.8z"/><path d="M541.8 713l-24.5-.9 22.6-3.6z" fill="#252A26"/><path fill="#C39C7A" d="M551.3 716.2l-3.6-2.5c-11.5 2-14.7 8.6-15.5 13 5.3-1.6 11.3-2.8 17.4-2.9l1.7-7.6z"/><path fill="#DFB28B" d="M633.7 507.7s-37.2 20-6.6 53.2c29.8 32.3 89.6-40.8 29.1-53.5.1 0-19-1.9-22.5.3z"/><path fill="#EDE6D8" d="M618.6 553.2s14.6-32.6 35-10.4c0 0 11-23.9 28.5 1.3 0 0-20.4 29.6-11.7 49.3s-40.3 14.3-47.2 4.9c.1.1 15.1-32.1-4.6-45.1z"/><path d="M768.8 580.7l14.7 71.1" fill="none" stroke="#F1F2F2" stroke-width="1.46" stroke-linecap="round"/><path fill="#252A26" d="M671.1 599.8s39.4 64.4 4.4 226.1c0 0-7.8 7.8-11.7 0 0 0 8.5-141.2-12.8-176.2 0 0 6.9 82.8-20.3 95.4 0 0-48.5-8.2-82.3-20 0 0-6.3-6 1.5-10.5l74 12s-34.4-109.4-.7-128.2c.1 0 22.1 14.9 47.9 1.4z"/><path fill="#DFB28B" d="M769 587.4s9.5.2 9.9-8.9c.4-9.1 0-15 0-15l10.2-10.2-10 5.8 4.6-11-7.7 10.6.4-13.9-3.7 15.7-1.5 16.4s-.6 3.4-7.1 4.1l4.9 6.4z"/><path d="M776.6 576.7l12.5-4.1-12.5 11.8zM638 508.6s-10.9 5-13.3 3.7c-2.4-1.3-10.5-8.1-16.9 7.9-6.4 16.1-8.9 61.3-11.8 67.7l-68.6-7.3v6.8l76.9 13.9 17.5-73.3 16.2-19.4z" fill="#DFB28B"/><path fill="#DFB28B" d="M527.3 587.4s-9.5.2-9.9-8.9c-.4-9.1 0-15 0-15l-10.2-10.2 10 5.8-4.6-11 7.7 10.6-.4-13.9 3.7 15.7 1.5 16.4s.6 3.4 7.1 4.1l-4.9 6.4z"/><path d="M519.7 576.7l-12.5-4.1 12.5 11.8z" fill="#DFB28B"/><path d="M633.5 512.3a3.7 3.7 0 0 1-3.7 3.7 3.7 3.7 0 0 1-3.7-3.7 3.7 3.7 0 0 1 3.7-3.7 3.7 3.7 0 0 1 3.7 3.7z" fill="#F1F2F2"/><path d="M638 518.5a3.7 3.7 0 0 1-3.7 3.7 3.7 3.7 0 0 1-3.7-3.7 3.7 3.7 0 0 1 3.7-3.7 3.7 3.7 0 0 1 3.7 3.7z" fill="#F1F2F2"/><path d="M643.6 523.8a3.7 3.7 0 0 1-3.7 3.7 3.7 3.7 0 0 1-3.7-3.7 3.7 3.7 0 0 1 3.7-3.7 3.7 3.7 0 0 1 3.7 3.7zM651 525.9a3.7 3.7 0 0 1-3.7 3.7 3.7 3.7 0 0 1-3.7-3.7 3.7 3.7 0 0 1 3.7-3.7 3.7 3.7 0 0 1 3.7 3.7z" fill="#F1F2F2"/><path d="M658.4 524.8a3.7 3.7 0 0 1-3.7 3.7 3.7 3.7 0 0 1-3.7-3.7 3.7 3.7 0 0 1 3.7-3.7 3.7 3.7 0 0 1 3.7 3.7z" fill="#F1F2F2"/><path d="M662.2 518.5a3.7 3.7 0 0 1-3.7 3.7 3.7 3.7 0 0 1-3.7-3.7 3.7 3.7 0 0 1 3.7-3.7 3.7 3.7 0 0 1 3.7 3.7zM663.8 510.3a3.7 3.7 0 0 1-3.7 3.7 3.7 3.7 0 0 1-3.7-3.7 3.7 3.7 0 0 1 3.7-3.7 3.7 3.7 0 0 1 3.7 3.7z" fill="#F1F2F2"/><path d="M765.7 580.4l-11.3 71.7" fill="none" stroke="#F1F2F2" stroke-width="1.46" stroke-linecap="round"/><path fill="#D1D3D4" d="M751.2 650.6l-6.6 42.4s24.8 6.3 49.7-1.5l-8.5-40.9h-34.6z"/><path fill="#F1F2F2" d="M785 650.6h-33.4c4.1 13.3 17.3 47.3 33.4 0z"/><path d="M770.1 669.6a2.2 2.2 0 0 1-2.2 2.2 2.2 2.2 0 0 1-2.2-2.2 2.2 2.2 0 0 1 2.2-2.2 2.2 2.2 0 0 1 2.2 2.2z" fill="#BCBEC0"/><path d="M642.7 426.4a7.3 7.3 0 0 1-7.3 7.3 7.3 7.3 0 0 1-7.3-7.3 7.3 7.3 0 0 1 7.3-7.3 7.3 7.3 0 0 1 7.3 7.3z"/><path d="M636.9 424.6a3.3 3.3 0 0 1-3.3 3.3 3.3 3.3 0 0 1-3.3-3.3 3.3 3.3 0 0 1 3.3-3.3 3.3 3.3 0 0 1 3.3 3.3z" fill="#939598"/><path d="M665.9 424.8a7.3 7.3 0 0 1-7.3 7.3 7.3 7.3 0 0 1-7.3-7.3 7.3 7.3 0 0 1 7.3-7.3 7.3 7.3 0 0 1 7.3 7.3z"/><path d="M660.1 423a3.3 3.3 0 0 1-3.3 3.3 3.3 3.3 0 0 1-3.3-3.3 3.3 3.3 0 0 1 3.3-3.3 3.3 3.3 0 0 1 3.3 3.3z" fill="#939598"/><path fill="#465761" d="M643.6 424.6s-8.5-6.7-23.6-1.6c0 0 13.3-13.7 23.6 1.6zM650 424.6s8.5-8.5 18.5-4.9c0 0-12.2-10.8-18.5 4.9z"/><path fill="#872237" d="M670.7 391.3s-43.6 6.7-64.3 61.1c0 0-15.2-2.1-18.9-24.5-3.7-22.4 24.1-74.6 78.4-56.8 0 0 12.5 2.9 4.8 20.2z"/><path fill="#872237" d="M698.1 446.7s-9.2-38.4-27.3-55.5l-2.2-19s23.4-15.3 37.6 18.5c14 33.9-8.1 56-8.1 56z"/><path fill="#FFF" d="M662.2 458.4s-15.3 2.6-30.3-2.5c0 0 3.9 12.3 15.2 12.7 11.2.5 15.1-10.2 15.1-10.2z"/><path fill="#872237" d="M652.5 401.8s8.9-4.1 16.7 4.8c0 0-3.7-12.6-16.7-8.7 0 0-2.2 1.6 0 3.9z"/><path fill="#B8405A" d="M665.9 371.1s-27-18.8-35.4-1.9c-8.3 16.9 3.3 32-21.5 29.2-24.9-2.8-16.6-25.5-7.4-18 9.2 7.5 19.3 8.1 18.4-2-.9-10 7.9-38 45.9-7.3z"/></svg>