<svg xmlns="http://www.w3.org/2000/svg" viewBox="0 0 106 106" width="106" height="106" fill="none">
  <path fill="#FF0" d="M53.318 95.824a39.83 39.83 0 0 1-15.593-3.148 39.864 39.864 0 0 1-12.73-8.586 39.864 39.864 0 0 1-8.586-12.73 39.74 39.74 0 0 1-3.159-15.604c0-6.031 1.304-11.83 3.88-17.225l-1.4-29.765 1.24.52c.584.243 14.067 5.946 20.257 9.762a39.793 39.793 0 0 1 16.08-3.36c5.194 0 10.24.975 15.02 2.904L91.776 8.586 87.98 35.658a39.977 39.977 0 0 1 5.406 20.098 39.83 39.83 0 0 1-3.148 15.593 39.864 39.864 0 0 1-8.586 12.73 39.864 39.864 0 0 1-12.73 8.586 39.74 39.74 0 0 1-15.604 3.159z"/>
  <path fill="#000" d="M87.11 35.839l3.626-25.875-22.398 9.55a39.1 39.1 0 0 0-15.02-2.978 39.153 39.153 0 0 0-16.154 3.466c-6.01-3.805-20.522-9.932-20.522-9.932l1.346 28.63a39.113 39.113 0 0 0-3.89 17.056c0 21.656 17.564 39.22 39.22 39.22s39.22-17.564 39.22-39.22a39.075 39.075 0 0 0-5.427-19.917z"/>
  <path fill="#636466" d="M31.164 16.716v4.802l-2.014.424L16.642 10.07c.17.074 8.024 3.392 14.522 6.646zM54.166 18.974l2.332 2.544.636 4.876-9.222 5.724-11.554-9.858.795-2.268c.01 0 .01.01.021.01a39.117 39.117 0 0 1 16.155-3.466 39.1 39.1 0 0 1 15.02 2.979l.212-.096 4.049 2.947-.424.848c-9.858-5.512-18.02-4.24-18.02-4.24zM90.736 9.964l-3.382 24.157c-3.614-14.013-8.172-15.147-8.172-15.147l11.13-8.83.424-.18z"/>
  <path fill="#FF0" d="M44.117 41.965l2.81-.339-1.071-1.272-2.226.286s-.647-1.187-2.566-2.204l1.601-1.103-1.611-.954-1.643 1.145-2.756-1.177.752-1.515-2.024-.626-.795 1.304-3.742-1.198.318-1.547-2.078-.573-4.706 21.656 3.816.742 2.862-7.42 2.544.318s6.784 9.222 7.314 9.328l2.332-.954s-.53-.636-1.06-1.59c-.53-.954-4.134-6.89-4.134-6.89l1.102-.085 1.93 1.6 1.537-.614-1.675-1.59s1.304-.371 2.183-1.389l2.311 1.209 1.134-.816-2.724-1.431c0-.011.7-1.22.265-2.3zm-12.444 3.89l3.487-8.607c.509.064 2.926 1.315 2.926 1.315l.562 7.006c-2.3.901-6.975.287-6.975.287zM79.532 42.071l-11.363 3.085.667 1.855 6.01-1.537-6.317 3.413 1.187 1.42 6.774-3.603.127.233c.752 1.346 1.113 7.515-6.18 8.109-7.293.593-8.035-9.455-4.272-13.77 3.763-4.314 7.05-3.445 7.05-3.445l.953-.636c-5.925-3.975-19.324 3.297-16.525 12.063 2.798 8.766 13.896 8.978 19.525 4.367 5.629-4.632 2.364-11.554 2.364-11.554zm-18.55 6.604c-.965.36-1.315-.127-1.463-.381 0 0-.36-.764.88-1.23 1.24-.456 1.41.445 1.41.445s.137.816-.827 1.166zm.275-2.968c-1.197.53-1.76-.413-1.76-.413s-.413-1.039.976-1.654 1.866.392 1.897.594c.043.201.096.943-1.113 1.473zm.912-3.7s-.329-.752.837-1.186c1.166-.435 1.41.318 1.41.318s.414.826-.774 1.25c-1.187.414-1.473-.381-1.473-.381zM86.284 67.162c-.816-2.216-2.385-6.053-4.07-7.982 2.183-3.424 3.625-7.399 5.109-11.787.01 0 1.844 9.56-1.039 19.769zM85.977 68.2c-1.304 4.156-3.424 8.374-6.806 12.053-.339-2.566-1.43-8.682-4.494-13.727 3.032-1.802 5.258-4.007 7.007-6.551.964 1.155 2.628 3.593 4.293 8.225z"/>
  <path fill="#FF0" d="M78.663 80.793c-2.926 3.021-6.742 5.65-11.713 7.526-.35-3.678-1.378-14.289-2.067-18.105 3.657-.826 6.635-1.94 9.105-3.296 1.07 1.675 4.05 6.847 4.675 13.875zM66.24 88.584c-3.668 1.304-7.94 2.205-12.922 2.576 0 0-.233-.01-.657-.042V71.773c.116 0 .222-.011.339-.022 4.272-.233 7.94-.7 11.12-1.367.53 3.339 2.066 13.356 2.12 18.2zM51.972 71.794v19.27c-2.364-.233-7.547-.996-13.165-3.38.063-3.138.657-9.721 4.112-16.77 2.735.647 5.746.975 9.053.88z"/>
  <path fill="#FF0" d="M38.255 87.44c-4.282-1.898-8.776-4.77-12.412-9.085.9-3.413 2.798-10.017 4.738-13.398 3.138 2.448 6.985 4.568 11.607 5.777-1.367 3.116-4.325 10.642-3.933 16.705zM29.892 64.416c-1.23 3-3.805 9.508-4.664 13.197-2.512-3.17-4.569-7.091-5.798-11.925.763-2.364 2.162-6.01 4.007-8.14 1.664 2.268 3.794 4.674 6.455 6.868zM23.097 57.081c-1.208 1.4-2.989 3.869-4.006 7.166-.933-4.389-1.209-9.498-.562-15.445 0 0 1.357 3.785 4.568 8.279z"/>
</svg>
