<svg xmlns="http://www.w3.org/2000/svg" width="247.71" height="194.025">
  <path fill="none" d="M0 0h247.71v194.025H0z" pointer-events="none"/>
  <path fill="#f9f9f9" d="M159.972 24.905c40.5 27.4 51.3 82.1 24.2 122.1-27.1 40-81.9 50.3-122.3 22.8-40.5-27.4-51.3-82.1-24.2-122.1 27.1-40 81.9-50.2 122.3-22.8z" class="st5"/>
  <path fill="#eff0f0" d="M128.472 127.705c-.3-3.8 2.1-8.1 4.6-3.4 2.2 4.2-3.1 8.9-4.5 4.1 0-.2-.1-.4-.1-.7zm-6.6.3c1.4 3.1 4.5 2.3 3.1 6.1-.7 1.9-3.2.5-3.1 3.6-3.4-.7-5-5-2.4-7.6l2.4-2.1zm12.9-31.9c2.3-2.1 9.4-3.4 5.3 1.5 1.5 1.2 4.9 2.4 5 4.7.1 3.4-3.7 3.6-5.9 2.7-4.3-1.7-8.7-5-4.4-8.9zm24 15.8c.3 7.2-4.4 12.9-10.4 6.9.8-1.5 2.3-2.8 2.9-4.4.8-2.3.3-6.1 3.4-7.1 3.3-1 4 1.8 4.1 4.6zm13.4-16.5c0-1.9 1.5-3.1 3.2-2.5.7-.7 1.2-1.6 1.2-2.6l1.7.2c-.8 3.4 3.2 2.4 3.8 4.8.1.6-1.4 5-1.6 5.7-.5 1.7.9 4.5-2.9 3.1-2.1-.8-2.7-2.7-1.2-4.4-1.6-1.3-4.3-2-4.2-4.3zm-51.2 18.5c1.6 6.3-2.5 6.8-6 9.9-2 1.7-2.3 6.8-5.8 3.5 2-4.5 4-8.6 7.2-12.3 2.4-2.8 3.4-5.8 4.6-1.1zm39-89c40.5 27.4 51.3 82.1 24.2 122.1-27.1 40-81.9 50.3-122.3 22.8-40.5-27.4-51.3-82.1-24.2-122.1 27.1-40 81.9-50.2 122.3-22.8zm5.5 14.9l-3-3.6c-6.9-4.8-14.6-5.8-22.1-9.1-3.8-1.7-15.7-11.5-18.5-5.7-2.5 5.2 3.6 16.4 9.5 15.6 3.3-.4 5.8-3.3 9.3-3.5 4.9-.3 9.1 2.8 12.7 5.7 5.8 4.5 12.6 12.8 12.1.6zm4.6 112.6c2.8.6 8-7.1 5.6-9.3l-1.4-.7c-.2.4.1.7-.1 1.2-2.5.4-8.8 7.8-4.1 8.8zm-7.9 4.2l-1.6-1.4c-5.5-.3-1.1 11.2 1.6 1.4zm-75.8-.5c-.5-.4-.8-1.3-1.2-1.8.8-.5 1.7-1.9 2.4-2.3-1.2-1-2.5-1.6-3.9-2.1l-2 1.5c0 1.5 2.2 5.1 4.7 4.7zm15-85.3c-1.7 3.2 10.5 10.5 11.9 12.9 4.8 8.1-16.8 1.1-5.2 7.8 7.2 4.1 7.6 10.3 5.1 18.1-2.3 7.1-12.2 5.8-14.8 13.7-1.6 4.8-2.9 9.5-.7 14.4 1.4 3 5.4 8.5 9.3 8.4 4.1-.1 3.9-4.1 6.1-6.5 3.5-3.8 2.6.4 5.9-.2-4.6.7-3 4.8-5.3 7.4-2.4 2.6-7 1.3-7.1 6-.1 3.7 5.1 7.7 7.8 4.1 1.9-2.5-.7-6.8.7-9.7 2.5-5.4 8.9-4.5 13.5-3.1-1.7 5.3-8.4 4-9.9 8.5-1.6 4.9 3.2 6.3 6.5 6.7 3.2.4 8.2 2.4 11.2 1.1 9.5-4.1-3.5-10.8 2.7-15.2-2.3-.6-9.6-4.7-5.8-8 1.1-.9 10.5.8 12 1.3 3.9 1.4 4.1 4.5 8.3 5.3 2.9.6 6.5.5 3 5 3.4.3 5.6-3.3 8.2-5 4.9-3.1 8.1-4.1 11.5-8.8 2.6-3.7 5.3-3.2 8.6-5.8 2.8-2.2 1.9-4.9 3.2-7.9 2.5-5.5 5.9-10 7.4-16.1 2.6-10.4-.4-29-6.7-37.5-1.7.2-3.4.6-4.8 1.5-2.4 1.4-5.2 8-7.4 8.3-2.9.5-3.5-5.3-4-7.6-1.9-7.3-4.1-12.7-10.1-17.8-4.8-4.1-14.5-7.8-20.8-7.9-14.6-.4-4.2 16.3-9.3 22.9-2.2 2.9-5 3.8-6.9 7.3-2.1 4-1.6 4-6.8 1.7-2-.9-15.5-8.5-17.3-5.3zm-2.5-9.4c3.6 2.2 11.6 2.6 14.6-.9 1.5-1.7.5-3.6 1.4-5.4 1.1-2.1 3.2-2.2 4.8-3.7 3.6-3.4.7-6.5 2.2-10.7l-4.3-2c-2.7-1.3-6.9-.1-9.1-2-2.3-1.9-.4-7.2-2.6-8.3-3.8-1.9-4 5.2-4.7 6.7-1.9 4.4-6.5 3.7-9.6 7.1-3.1 3.2-1.8 7.4-1.7 11.5 3.3 2.1 5.7 5.7 9 7.7zm-49.6 30.2c-3.8 6.9 4.3 8.3 7.2 2.8.4-.8.2-2 .7-2.9.7-1.2 2.9-1.5 3.3-3.1.6-2.7-3.4-5.2-4.4-7.7l-3.8.9c-6.2-.4-8.9 7.3-3 10zm13.2-26.9c1.4.9 3.9-.2 4.5 1.8.4 1.3-2.3 3.3-2.2 5 .1 1.3 1.7 3.2 1.9 4.9.3 2.4-1.3 4 1.3 5.7 1.9-3.1.8-7.1 5-7.8 2.4-.4 8 3.1 6.4-2.4 4 0 9.2.5 11.2-3.7s-3.6-5.7.3-9.6l-2-3.6c-1-1.1-1.7-.2-2.6-.9-1.2-.8-.9-1.4-1.6-2.1-1.6-1.6-1.6-3.2-4.6-3.4-3.2-.3-4.9 2.2-4.6-2.2.1-1.4 1.8-4.4 2.2-6.1-2.7-1.8-3.4.7-4.8 2.4-2.2 2.7-2.3 2.4-5.3 3.9-3 1.4-2.4 1.4-3.7 3.9-1 2.1-1.5 2.8-3 4.7-2.2 2.9-2.1 6.9 1.6 9.5zm-23.2-2c-.4 4.4-.7 5.3-3.6 8.7-3.1 3.6-3.8 6.4-1.6 10.9 1 2.1 3.7 6.9 5.7 4 1.5-2.2-2.1-6.2-.6-8.5 1.2-1.7 6-1.7 7.9-2.9 3.5-2.3 5.8-6.6 8.1-10l-1.3-3.7c-.4-.3-.9-.6-1.2-.9 1-4 6.3-13-.7-11.3-6 1.4-12.2 7.9-12.7 13.7zm14.8-22.7c.1 2.8 4.5 3.9 7 2.3 1.5-.9 1.3-2.7 2.4-3.8 1.1-1.2 2.4-1.5 3.7-2.5 3.3-2.6 4.5-5.9-.7-7.5l-2.9-1.3c-1 .2-2.7 3.1-4.3 4-2.2 1.1-4.2-.2-5.4 3 4.9.9.1 3.8.2 5.8z" class="st6"/>
  <g>
    <path fill="#f26722" d="M27.072 148.005a.4.4 0 0 1-.4.4.4.4 0 0 1-.4-.4.4.4 0 0 1 .4-.4.4.4 0 0 1 .4.4zM28.272 147.205a.4.4 0 0 1-.4.4.4.4 0 0 1-.4-.4.4.4 0 0 1 .4-.4.4.4 0 0 1 .4.4z" class="st2"/>
  </g>
</svg>

