<svg xmlns="http://www.w3.org/2000/svg" preserveAspectRatio="xMidYMid meet" viewBox="0 0 1800 1800" width="250" height="250">
  <path fill="none" d="M0 0h1686.993v1643.374H0z" pointer-events="none"/>
  <path fill="#040404" d="M1056.417 1385.657l-1.407-.812c.374.434.85.692 1.407.812z"/>
  <path fill="#E0E2A3" d="M750.851 559.805c-15.477 0-15.477 24 0 24s15.477-24 0-24zM513.827 721.82c-15.477 0-15.477 24 0 24s15.477-24 0-24zM741.85 700.82c-15.477 0-15.477 24 0 24s15.477-24 0-24zM882.864 691.819c-15.477 0-15.477 24 0 24s15.477-24 0-24zM834.86 775.827c-15.477 0-15.477 24 0 24s15.477-24 0-24zM570.833 889.838c-15.477 0-15.477 24 0 24s15.477-24 0-24zM330.81 973.347c-8.45 0-15.5 7.05-15.5 15.5 0 8.449 7.05 15.5 15.5 15.5 8.448 0 15.5-7.051 15.5-15.5 0-8.45-7.05-15.5-15.5-15.5zM393.816 787.328c-8.449 0-15.5 7.05-15.5 15.5s7.051 15.5 15.5 15.5c8.45 0 15.5-7.051 15.5-15.5s-7.05-15.5-15.5-15.5zM1005.877 850.335c-8.449 0-15.5 7.05-15.5 15.5s7.051 15.5 15.5 15.5c8.45 0 15.5-7.051 15.5-15.5s-7.05-15.5-15.5-15.5zM1152.891 619.312c-8.449 0-15.5 7.05-15.5 15.5 0 8.449 7.051 15.5 15.5 15.5 8.45 0 15.5-7.051 15.5-15.5 0-8.45-7.05-15.5-15.5-15.5zM1398.916 817.33c-8.449 0-15.5 7.052-15.5 15.5 0 8.45 7.051 15.5 15.5 15.5 8.45 0 15.5-7.05 15.5-15.5 0-8.448-7.05-15.5-15.5-15.5zM837.86 1009.35c-8.449 0-15.5 7.052-15.5 15.5s7.051 15.5 15.5 15.5c8.45 0 15.5-7.05 15.5-15.5s-7.05-15.5-15.5-15.5zM501.826 1177.367c-8.449 0-15.5 7.05-15.5 15.5 0 8.449 7.051 15.5 15.5 15.5 8.45 0 15.5-7.051 15.5-15.5 0-8.45-7.05-15.5-15.5-15.5zM477.824 982.347c-12.252 0-12.252 19 0 19s12.252-19 0-19zM645.841 733.322c-12.253 0-12.253 19 0 19s12.252-19 0-19zM1056.882 635.813c-10.318 0-10.318 16 0 16s10.318-16 0-16zM1077.884 848.834c-10.318 0-10.318 16 0 16s10.318-16 0-16zM1023.88 1013.85c-10.319 0-10.319 16 0 16s10.316-16 0-16zM1401.916 935.842c-10.318 0-10.318 16 0 16s10.318-16 0-16zM573.834 653.814c-10.318 0-10.318 16 0 16s10.317-16 0-16zM222.8 1019.85c-10.319 0-10.319 16 0 16 10.316 0 10.316-16 0-16zM447.821 623.81c-10.318 0-10.318 16 0 16s10.318-16 0-16zM765.853 500.799c-10.318 0-10.318 16 0 16s10.318-16 0-16zM1035.88 503.799c-10.318 0-10.318 16 0 16s10.318-16 0-16zM1005.877 758.825c-10.318 0-10.318 16 0 16s10.318-16 0-16zM903.867 1109.86c-10.318 0-10.318 16 0 16s10.317-16 0-16zM504.827 1118.86c-10.318 0-10.318 16 0 16s10.318-16 0-16zM276.804 1232.872c-10.318 0-10.318 16 0 16s10.318-16 0-16z"/>
  <path fill="#040404" d="M1199.951 1188.069" paint-order="fill"/>
  <path fill="#EFF2CD" stroke="#fd0" stroke-opacity=".11" stroke-width="40" d="M1534.455 849.568a724.009 724.009 0 0 1-724.01 724.01 724.009 724.009 0 0 1-724.008-724.01A724.009 724.009 0 0 1 810.446 125.56a724.009 724.009 0 0 1 724.009 724.01z"/>
</svg>
