<svg xmlns="http://www.w3.org/2000/svg" viewBox="0 0 192 192">
  <path fill="currentColor" d="M189.87 119.564a8 8 0 0 0-9.448-1.719c-16.186 8.093-23.7 4.257-34.1-1.056C139.171 113.138 131.07 109 120 109c-11.6 0-21.881 7.99-23.922 18.585-.026.136-.052.283-.078.438-.026-.155-.052-.3-.078-.438C93.881 116.99 83.6 109 72 109c-11.07 0-19.171 4.138-26.318 7.789-10.4 5.314-17.916 9.15-34.1 1.056A8 8 0 0 0 1.14 129.116 77 77 0 0 0 20.3 149.47c10.342 7.522 21.515 11.313 33.037 11.313a58.068 58.068 0 0 0 21.639-4.355c15.5-6.2 20-15.218 21.029-21.767 1.026 6.549 5.527 15.566 21.029 21.767a58.068 58.068 0 0 0 21.639 4.355c11.521 0 22.7-3.792 33.037-11.313a77 77 0 0 0 19.155-20.354 8 8 0 0 0-.995-9.552zM192 32h-80a8 8 0 0 0-8 8v16H88V40a8 8 0 0 0-8-8H0v16h8v24a24.028 24.028 0 0 0 24 24h24a32.057 32.057 0 0 0 30.987-24h18.026A32.057 32.057 0 0 0 136 96h24a24.028 24.028 0 0 0 24-24V48h8zM72 64a16.019 16.019 0 0 1-16 16H32a8.009 8.009 0 0 1-8-8V48h48zm96 8a8.009 8.009 0 0 1-8 8h-24a16.019 16.019 0 0 1-16-16V48h48z"/>
</svg>
