<svg viewBox="0 0 512 512">
  <path fill="currentColor" d="M390.906 97.714H281.532c-25.774 0-43.342 16.235-48.201 44.539-.033.195-.065.391-.092.587l-5.236 36.958-39.088-12.6 21.226 49.569 28.368 9.144c12.01 3.87 24.602-4.026 26.371-16.501l8.578-60.551a4.376 4.376 0 0 1 4.696-3.602 4.38 4.38 0 0 1 3.994 4.366l.01 337.977c0 13.476 10.923 24.399 24.399 24.399s24.399-10.924 24.399-24.399V292.572h10.536v195.029c0 13.476 10.923 24.399 24.399 24.399s24.399-10.924 24.399-24.399c0-323.067-.433-137.474-.442-342.537a4.453 4.453 0 0 1 8.906-.002c0 .204-.007.414-.021.63v149.379c0 11.229 9.104 20.334 20.334 20.334s20.334-9.103 20.334-20.334v-149.48c-.135-26.399-21.888-47.877-48.495-47.877z"/>
  <path fill="currentColor" d="M163.898 152.627c6.351 7.56 16.907 9.94 25.787 6.137 11.295-4.837 16.532-17.914 11.695-29.211l-25.369-59.241c-4.837-11.295-17.914-16.531-29.211-11.694-11.295 4.836-16.531 17.915-11.694 29.21l9.405 21.961-10.755 4.606-18.648-43.549.176-.076-14.299-49.364a4.453 4.453 0 0 0-6.03-2.855l-19.657 8.417a4.454 4.454 0 0 0-2.095 6.334l25.86 44.413.176-.076 19.894 46.458.289-.124-26.366 32.594c-3.797 4.695-3.07 11.578 1.624 15.375 4.792 3.876 11.664 2.964 15.375-1.624l9.873-12.206 35.175 82.142-11.893 16.079c-2.958 3.999-8.981 10.712-7.309 21.887a24.374 24.374 0 0 0 9.612 15.989 4.393 4.393 0 0 0 6.146-.919l7.943-10.738 20.329-27.483 16.207-6.94a7.956 7.956 0 0 0 4.181-10.446l-36.421-85.056zm199.24-145.29h-3.161C353.214 2.711 345.035 0 336.22 0s-16.994 2.711-23.759 7.337h-3.119c-12.925 0-23.44 10.515-23.44 23.439V42.14c0 15.568 10.273 28.779 24.396 33.213 15.238 11.91 36.604 11.912 51.844-.002 14.125-4.443 24.436-17.693 24.436-33.201V30.776c0-12.924-10.515-23.439-23.44-23.439zm6.178 34.814c0 9.61-7.74 17.427-17.35 17.53l-.192.001a17.436 17.436 0 0 1-10.801-3.727 7.658 7.658 0 0 0-9.464-.003 17.436 17.436 0 0 1-10.806 3.731c-9.688 0-17.542-7.854-17.542-17.542V30.777h.001a6.177 6.177 0 0 1 6.177-6.177c12.09 0 14.304-.396 18.613 1.566a20.015 20.015 0 0 0 16.576-.001c4.373-1.99 6.862-1.565 18.609-1.565a6.175 6.175 0 0 1 6.177 6.176c.002 4.606.002 8.392.002 11.375z"/>
</svg>
