<svg xmlns="http://www.w3.org/2000/svg" viewBox="0 0 2800 2000">
  <path fill="#6b8ea5" d="M2178.824 1682.235c97.97-147.726 155.044-324.929 155.044-515.468 0-515.76-418.107-933.868-933.868-933.868s-933.868 418.107-933.868 933.868c0 190.539 57.075 367.742 155.044 515.468h1557.648z" class="st1"/>
  <path fill="#cdd5db" d="M2533 1708.1a1133 93.714 0 0 1-1133 93.714A1133 93.714 0 0 1 267 1708.1a1133 93.714 0 0 1 1133-93.713 1133 93.714 0 0 1 1133 93.713z" class="st2"/>
  <path fill="#91a3b4" d="M1547.511 1709.23a511.277 58.445 0 0 1-511.277 58.446 511.277 58.445 0 0 1-511.276-58.446 511.277 58.445 0 0 1 511.276-58.445 511.277 58.445 0 0 1 511.277 58.445z" class="st0"/>
  <path fill="#91a3b4" d="M2069.173 1714.489a312.077 58.445 0 0 1-312.077 58.445 312.077 58.445 0 0 1-312.078-58.445 312.077 58.445 0 0 1 312.078-58.446 312.077 58.445 0 0 1 312.077 58.446z" class="st0"/>
  <path fill="#a7b0b8" d="M816.171 990.18H699.674c-13.773 0-24.939 11.166-24.939 24.94v7.874c0 13.773 11.166 24.939 24.94 24.939H816.17c13.773 0 24.939-11.166 24.939-24.94v-7.873c0-13.774-11.166-24.94-24.939-24.94z" class="st3"/>
  <path fill="#5a849b" d="M912.58 1072.31H796.084c-13.774 0-24.94 11.165-24.94 24.938v7.874c0 13.774 11.166 24.94 24.94 24.94H912.58c13.774 0 24.94-11.166 24.94-24.94v-7.874c0-13.773-11.166-24.939-24.94-24.939z" class="st4"/>
  <path fill="#41778f" d="M719.762 1072.31H603.265c-13.773 0-24.939 11.165-24.939 24.938v7.874c0 13.774 11.166 24.94 24.94 24.94h116.496c13.773 0 24.939-11.166 24.939-24.94v-7.874c0-13.773-11.166-24.939-24.94-24.939z" class="st5"/>
  <path fill="#5a849b" d="M2138.219 1033.67h-116.497c-13.774 0-24.94 11.166-24.94 24.94v7.873c0 13.774 11.166 24.94 24.94 24.94h116.497c13.773 0 24.938-11.166 24.938-24.94v-7.874c0-13.773-11.165-24.939-24.938-24.939z" class="st4"/>
  <path fill="#a7b0b8" d="M1948.6 1033.67h-116.496c-13.774 0-24.94 11.166-24.94 24.94v7.873c0 13.774 11.166 24.94 24.94 24.94H1948.6c13.774 0 24.94-11.166 24.94-24.94v-7.874c0-13.773-11.166-24.939-24.94-24.939z" class="st3"/>
  <path fill="#91a3b4" d="M1755.782 1033.67h-116.497c-13.773 0-24.939 11.166-24.939 24.94v7.873c0 13.774 11.166 24.94 24.94 24.94h116.496c13.773 0 24.939-11.166 24.939-24.94v-7.874c0-13.773-11.166-24.939-24.94-24.939z" class="st0"/>
  <path fill="#5a849b" d="M1857.64 949.852h-116.496c-13.774 0-24.94 11.165-24.94 24.939v7.874c0 13.773 11.166 24.939 24.94 24.939h116.496c13.774 0 24.94-11.166 24.94-24.94v-7.873c0-13.774-11.166-24.94-24.94-24.94z" class="st4"/>
  <path fill="#a7b0b8" d="M2138.219 866.033h-116.497c-13.774 0-24.94 11.166-24.94 24.94v7.873c0 13.774 11.166 24.94 24.94 24.94h116.497c13.773 0 24.938-11.166 24.938-24.94v-7.874c0-13.773-11.165-24.939-24.938-24.939z" class="st3"/>
  <path fill="#91a3b4" d="M1948.6 866.033h-116.496c-13.774 0-24.94 11.166-24.94 24.94v7.873c0 13.774 11.166 24.94 24.94 24.94H1948.6c13.774 0 24.94-11.166 24.94-24.94v-7.874c0-13.773-11.166-24.939-24.94-24.939z" class="st0"/>
  <path fill="#a7b0b8" d="M1639.708 618.796h-116.496c-13.774 0-24.94 11.165-24.94 24.939v7.874c0 13.773 11.166 24.939 24.94 24.939h116.496c13.774 0 24.94-11.166 24.94-24.94v-7.873c0-13.774-11.166-24.94-24.94-24.94z" class="st3"/>
  <path fill="#5a849b" d="M1257.271 618.796h-116.496c-13.774 0-24.94 11.165-24.94 24.939v7.874c0 13.773 11.166 24.939 24.94 24.939h116.496c13.774 0 24.94-11.166 24.94-24.94v-7.873c0-13.774-11.166-24.94-24.94-24.94zM1741.567 534.977H1625.07c-13.773 0-24.939 11.166-24.939 24.94v7.873c0 13.774 11.166 24.94 24.94 24.94h116.496c13.773 0 24.938-11.166 24.938-24.94v-7.874c0-13.773-11.165-24.939-24.938-24.939zM1359.13 534.977h-116.497c-13.773 0-24.939 11.166-24.939 24.94v7.873c0 13.774 11.166 24.94 24.94 24.94h116.496c13.773 0 24.939-11.166 24.939-24.94v-7.874c0-13.773-11.166-24.939-24.94-24.939z" class="st4"/>
  <path fill="#a7b0b8" d="M1446.89 451.159h-116.497c-13.773 0-24.939 11.165-24.939 24.939v7.874c0 13.773 11.166 24.939 24.939 24.939h116.497c13.773 0 24.938-11.166 24.938-24.94v-7.873c0-13.774-11.165-24.94-24.938-24.94z" class="st3"/>
  <path fill="#5a849b" d="M1257.271 451.159h-116.496c-13.774 0-24.94 11.165-24.94 24.939v7.874c0 13.773 11.166 24.939 24.94 24.939h116.496c13.774 0 24.94-11.166 24.94-24.94v-7.873c0-13.774-11.166-24.94-24.94-24.94zM1741.567 367.34H1625.07c-13.773 0-24.939 11.166-24.939 24.94v7.873c0 13.774 11.166 24.94 24.94 24.94h116.496c13.773 0 24.938-11.166 24.938-24.94v-7.874c0-13.773-11.165-24.939-24.938-24.939z" class="st4"/>
  <path fill="#41778f" d="M1548.748 367.34H1432.25c-13.773 0-24.939 11.166-24.939 24.94v7.873c0 13.774 11.166 24.94 24.94 24.94h116.496c13.773 0 24.939-11.166 24.939-24.94v-7.874c0-13.773-11.166-24.939-24.94-24.939z" class="st5"/>
  <path fill="#91a3b4" d="M1505.85 1527.758h-116.497c-13.773 0-24.939 11.166-24.939 24.94v7.874c0 13.773 11.166 24.938 24.939 24.938h116.497c13.773 0 24.939-11.165 24.939-24.938v-7.875c0-13.773-11.166-24.939-24.94-24.939z" class="st0"/>
  <path fill="#5a849b" d="M1800.527 1443.94H1684.03c-13.773 0-24.939 11.165-24.939 24.939v7.874c0 13.773 11.166 24.939 24.94 24.939h116.496c13.773 0 24.939-11.166 24.939-24.939v-7.874c0-13.774-11.166-24.94-24.94-24.94zM1418.09 1443.94h-116.497c-13.773 0-24.939 11.165-24.939 24.939v7.874c0 13.773 11.166 24.939 24.94 24.939h116.496c13.773 0 24.939-11.166 24.939-24.939v-7.874c0-13.774-11.166-24.94-24.939-24.94z" class="st4"/>
  <path fill="#a7b0b8" d="M1698.668 1360.121h-116.496c-13.774 0-24.94 11.166-24.94 24.94v7.874c0 13.773 11.166 24.939 24.94 24.939h116.496c13.774 0 24.94-11.166 24.94-24.94v-7.874c0-13.773-11.166-24.939-24.94-24.939z" class="st3"/>
  <path fill="#5a849b" d="M1505.85 1360.121h-116.497c-13.773 0-24.939 11.166-24.939 24.94v7.874c0 13.773 11.166 24.939 24.939 24.939h116.497c13.773 0 24.939-11.166 24.939-24.94v-7.874c0-13.773-11.166-24.939-24.94-24.939z" class="st4"/>
  <path fill="#41778f" d="M1607.708 1276.303h-116.496c-13.774 0-24.94 11.166-24.94 24.939v7.874c0 13.774 11.166 24.94 24.94 24.94h116.496c13.774-.001 24.94-11.166 24.94-24.94v-7.874c0-13.773-11.166-24.939-24.94-24.939z" class="st5"/>
  <path fill="#91a3b4" d="M1225.271 1276.303h-116.496c-13.774 0-24.94 11.166-24.94 24.939v7.874c0 13.774 11.166 24.94 24.94 24.94h116.496c13.774-.001 24.94-11.166 24.94-24.94v-7.874c0-13.773-11.166-24.939-24.94-24.939z" class="st0"/>
  <g>
    <path fill="#463d44" d="M1252.007 1499.08h90.837v162.26h-90.837v-162.26z" class="st6"/>
    <path fill="#463d44" d="M1441.607 1708.1h-189.6v-77.168h141.306c26.672 0 48.294 21.622 48.294 48.294v28.874z" class="st6"/>
    <path fill="#7c727c" d="M1393.313 1630.932h-5.01c26.265 0 47.557 21.292 47.557 47.556v29.612h5.747v-28.874c0-26.672-21.622-48.294-48.294-48.294z" class="st7"/>
    <path fill="#352933" d="M1252.007 1708.1h57.238v19.931h-57.238v-19.93zM1339.397 1708.1h102.21v19.931h-102.21v-19.93z" class="st8"/>
    <path fill="#a38884" d="M1304.609 1562.962h36.576a5.622 5.622 0 0 0 0-11.243h-36.576a5.622 5.622 0 0 0 0 11.243zM1304.609 1591.453h36.576a5.622 5.622 0 1 0 0-11.243h-36.576a5.622 5.622 0 1 0 0 11.243zM1304.609 1619.944h36.576a5.622 5.622 0 1 0 0-11.243h-36.576a5.622 5.622 0 1 0 0 11.243zM1348.348 1629.38v15.478a5.622 5.622 0 0 0 11.243 0v-15.478a5.622 5.622 0 0 0-11.243 0zM1371.976 1629.38v15.478a5.622 5.622 0 1 0 11.243 0v-15.478a5.622 5.622 0 1 0-11.243 0z" class="st9"/>
    <path fill="#463d44" d="M955.36 1562.962l-162.769-38.074v90.837l162.77 38.073z" class="st6"/>
    <path fill="#463d44" d="M745.83 1714.489v-189.6h77.168v141.305c0 26.673-21.622 48.295-48.294 48.295H745.83z" class="st6"/>
    <path fill="#352933" d="M745.83 1524.889v57.237h-19.932v-57.237h19.931zM745.83 1612.279v102.21h-19.932v-102.21h19.931z" class="st8"/>
    <path fill="#a38884" d="M890.968 1605.854v36.576a5.622 5.622 0 0 0 11.243 0v-36.576a5.622 5.622 0 1 0-11.243 0zM862.477 1599.338v36.577a5.622 5.622 0 1 0 11.243 0v-36.577a5.622 5.622 0 0 0-11.243 0zM833.986 1593.99v36.577a5.622 5.622 0 0 0 11.243 0v-36.577a5.622 5.622 0 1 0-11.243 0zM824.55 1621.23h-15.478a5.622 5.622 0 1 0 0 11.243h15.478a5.622 5.622 0 0 0 0-11.243zM824.55 1644.858h-15.478a5.622 5.622 0 0 0 0 11.243h15.478a5.622 5.622 0 0 0 0-11.243z" class="st9"/>
    <path fill="#b59a7d" d="M1113.217 1715.128c-4.885 0-9.806-.606-14.662-1.852l-190.532-48.866c-31.578-8.098-50.61-40.262-42.512-71.84 8.098-31.576 40.26-50.613 71.84-42.512l88.75 22.763-73.368-240.494c-9.512-31.181 8.053-64.17 39.234-73.681 31.176-9.512 64.168 8.052 73.682 39.233l104.028 340.997a59.028 59.028 0 0 1-56.46 76.252z" class="st10"/>
    <path fill="#9e8164" d="M1060.42 1339.737c-.03-2.145-85.76-40.091-105.136-48.64-5.59 12.539-6.872 27.067-2.551 41.23l38 124.561c11.292 5.473 24.016 8.49 37.511 8.284l1.287-.02c2.662.28 5.371.397 8.122.31l25.727-.827 52.626-1.689-35.684-116.968-19.747.634a2519.17 2519.17 0 0 1-.156-6.875z" class="st11"/>
    <path fill="#ceb195" d="M1169.677 1638.876l-104.028-340.997c-8.383-27.474-34.993-44.364-62.527-41.489 22.84 2.422 43.136 18.135 50.261 41.489l104.029 340.997a59.02 59.02 0 0 1-50.232 75.915c2.013.208 4.028.337 6.037.337a59.028 59.028 0 0 0 56.46-76.252z" class="st12"/>
    <path fill="#916f51" d="M1052.968 1184.024c-26.016 0-48.693-19.2-52.335-45.698-3.977-28.94 16.259-55.625 45.199-59.603l190.166-26.137c28.938-3.972 55.627 16.258 59.603 45.2 3.978 28.94-16.258 55.625-45.199 59.603l-190.165 26.136c-2.443.336-4.87.5-7.27.5z" class="st13"/>
    <path fill="#c39977" d="M1320.29 1104.987a59.344 60.955 0 0 1-59.344 60.956 59.344 60.955 0 0 1-59.344-60.956 59.344 60.955 0 0 1 59.344-60.955 59.344 60.955 0 0 1 59.344 60.955z" class="st14"/>
    <path fill="#463d44" d="M1342.67 1069.032h-63.168a5.366 5.366 0 0 1-5.366-5.366v-55.929a5.366 5.366 0 0 1 5.366-5.366h83.944a5.367 5.367 0 0 1 5.366 5.366v35.153c0 14.414-11.727 26.142-26.141 26.142zm-57.8-10.732h57.8c8.498 0 15.41-6.913 15.41-15.41v-29.787h-73.21v45.197z" class="st6"/>
    <path fill="#463d44" d="M1312.023 1029.783h-56.049l-12.646 105.42c-1.265 10.608 7.02 19.94 17.704 19.94h40.004c5.507 0 9.97-4.464 9.97-9.97 0-5.507-4.463-9.97-9.97-9.97h-1.66l12.647-105.42z" class="st6"/>
    <path fill="#c39977" d="M1338.473 1073.287h-33.998c-10.16 0-18.398-8.238-18.398-18.398s8.238-18.398 18.398-18.398h33.998c10.16 0 18.397 8.238 18.397 18.398s-8.237 18.398-18.397 18.398z" class="st14"/>
    <path fill="#c39977" d="M1319.885 1104.447h-33.996c-10.161 0-18.398-8.238-18.398-18.398s8.237-18.398 18.398-18.398h33.996c10.16 0 18.397 8.238 18.397 18.398s-8.237 18.398-18.397 18.398z" class="st14"/>
    <path fill="#c39977" d="M1316.883 1135.607h-33.998c-10.16 0-18.397-8.238-18.397-18.398s8.236-18.398 18.397-18.398h33.998c10.16 0 18.398 8.238 18.398 18.398s-8.238 18.398-18.398 18.398z" class="st14"/>
    <path fill="#c39977" d="M1316.883 1166.767h-33.998c-10.16 0-18.397-8.237-18.397-18.398s8.236-18.397 18.397-18.397h33.998c10.16 0 18.398 8.237 18.398 18.397s-8.238 18.398-18.398 18.398z" class="st14"/>
    <path fill="#463d44" d="M1136.658 1045.286h-74.068a9.2 9.2 0 0 1-9.2-9.2v-67.143a9.2 9.2 0 0 1 9.2-9.2h165.673a9.2 9.2 0 0 1 9.199 9.2v37.773a9.2 9.2 0 0 1-9.199 9.199h-39.285l-47.648 28.095a9.192 9.192 0 0 1-4.672 1.276zm-64.87-18.398h62.36l47.647-28.095a9.192 9.192 0 0 1 4.672-1.276h32.597v-19.376H1071.79v48.747z" class="st6"/>
    <path fill="#463d44" d="M1216.085 957.595h24.356v64.09h-24.356v-64.09zM1421.744 1175.998c-42.1-50.145-42.1-119.067-42.1-161.2h60.855c0 37.027 0 86.781 26.127 119.95 3.4 4.317 2.994 10.504-.912 14.37l-27.97 27.686c-4.532 4.486-11.9 4.077-16-.806zM1649.381 980.441h160.215v18.398H1649.38v-18.398z" class="st6"/>
    <path fill="#352933" d="M1817.517 978.32H1786.6a6.777 6.777 0 0 0-6.777-6.777h-6.889a6.777 6.777 0 0 0-6.776 6.777v22.64a6.777 6.777 0 0 0 6.776 6.777h6.889a6.777 6.777 0 0 0 6.777-6.776h30.918a5.877 5.877 0 0 0 5.877-5.878v-10.886a5.877 5.877 0 0 0-5.877-5.877z" class="st8"/>
    <path fill="#a38884" d="M1638.394 974.475h21.975v30.33h-21.975v-30.33z" class="st9"/>
    <path fill="#f49dab" d="M1143.033 619.208c-84.532 0-153.058 68.527-153.058 153.058s66.841 121.653 143.568 157.131c121.835 56.336 162.548-72.599 162.548-157.13s-68.526-153.059-153.058-153.059z" class="st15"/>
    <path fill="#f9c3ce" d="M1208.076 633.687c48.55 25.662 81.64 76.661 81.64 135.397 0 84.532-40.713 213.467-162.549 157.13-8.511-3.935-16.9-7.89-25.09-11.93 10.191 5.154 20.731 10.15 31.466 15.113 121.835 56.336 162.548-72.599 162.548-157.13 0-61.273-36.01-114.127-88.015-138.58z" class="st16"/>
    <path fill="#7a2f27" d="M1072.371 863.955c-1.57 18.072-16.808 30.36-44.826 33.802 2.457-7.374 3.44-23.104 3.44-23.104s-9.83 11.914-32.442 6.203c9.34-4.236 15.238-22.424 12.289-28.814-2.95-6.39-30.9-19.258-20.857-74.023s99.506-8.395 99.506-8.395l10.838 43.93-27.948 50.401z" class="st17"/>
    <path fill="#463d44" d="M1022.403 751.273h179.199v53.492h-179.199v-53.492z" class="st6"/>
    <path fill="#463d44" d="M1182.166 758.316a7.043 7.043 0 0 1 7.043-7.043h107.993c8.697 0 15.192 36.2 6.57 49.213-8.623 13.012-10.894 14.638-26.228 22.484-13.747 7.033-44.02 21.096-90.43-16.866a13.483 13.483 0 0 1-4.948-10.428v-37.36z" class="st6"/>
    <path fill="#a38d9f" d="M1303.772 800.486a198.928 198.928 0 0 1-2.878 4.247c-5.168 4.204-11.437 6.665-21.397 10.548-5.285 2.076-20.798 6.516-33.497 6.516-16.25 0-34.01-7.789-52.786-23.14a3.831 3.831 0 0 1-1.423-2.986v-34.77h112.805c3.936 11.672 4.963 30.844-.824 39.585z" class="st18"/>
    <path fill="#d2bad0" d="M1209.534 810.236a102.88 102.88 0 0 0 7.265 3.987l21.803-53.322h-8.895l-20.173 49.335zM1261.636 778.019h15.802l-41.735 36.203 24.125-30.383-18.519 3.723 23.044-26.66h15.15z" class="st19"/>
    <path fill="#fff" d="M1206.772 905.621c21.175 0 38.342-17.166 38.342-38.34h-50.686c-16.445 0-23.649 21.074-10.426 30.85a38.17 38.17 0 0 0 22.77 7.49z" class="st20"/>
    <path fill="#927874" d="M970.197 812.685s-17.32-66.129-4.124-108.807c34.436-111.378 167.64-104.695 188.015-104.695 126.936 0 147.69 62.702 152.897 127.934.487 6.102-4.027 11.462-10.121 12.034l-129.171 12.122-14.529 13.75a38.242 38.242 0 0 1-26.288 10.468h-42.722a26.987 26.987 0 0 0-23.813 14.289l-6.757 12.671a28.44 28.44 0 0 1-27.49 14.957l-55.897-4.723z" class="st21"/>
    <path fill="#b29b9a" d="M966.143 710.518c34.925-111.378 170.017-104.696 190.682-104.696 70.409 0 108.6 18.759 129.622 46.426-19.594-31.262-57.515-53.065-132.359-53.065-20.375 0-153.579-6.683-188.015 104.695-3.947 12.764-5.162 27.625-4.93 42.188.204-12.383 1.605-24.72 5-35.548z" class="st22"/>
    <path fill="#775655" d="M1199.392 633.591a16.395 8.857-45 0 1-5.33 17.857 16.395 8.857-45 0 1-17.856 5.33 16.395 8.857-45 0 1 5.33-17.856 16.395 8.857-45 0 1 17.856-5.33zM1140.556 633.592a16.395 8.857-45 0 1-5.33 17.856 16.395 8.857-45 0 1-17.856 5.33 16.395 8.857-45 0 1 5.33-17.856 16.395 8.857-45 0 1 17.856-5.33zM1081.72 633.592a16.395 8.857-45 0 1-5.33 17.856 16.395 8.857-45 0 1-17.856 5.33 16.395 8.857-45 0 1 5.33-17.856 16.395 8.857-45 0 1 17.857-5.33z" class="st23"/>
    <path fill="#927874" d="M1162.98 726.04h-106.037l-43.326 41.946v48.368l12.478 1.054a28.44 28.44 0 0 0 27.489-14.957l6.757-12.671a26.986 26.986 0 0 1 23.813-14.289h42.722a38.242 38.242 0 0 0 26.288-10.467l14.529-13.751 6.578-.617c5.206-.489 8.138-6.226 5.482-10.731l-3.82-6.484a15.034 15.034 0 0 0-12.953-7.401z" class="st21"/>
    <path fill="#a58c89" d="M1162.98 735.466c5.323 0 10.25 2.815 12.952 7.401l3.119 5.292c1.846-2.196 2.344-5.449.702-8.234l-3.82-6.484a15.034 15.034 0 0 0-12.953-7.401h-106.037l-43.326 41.946v9.426l43.326-41.946h106.037z" class="st24"/>
    <path fill="#775655" d="M1154.353 751.273a6.404 6.404 0 0 1-6.404 6.404 6.404 6.404 0 0 1-6.404-6.404 6.404 6.404 0 0 1 6.404-6.404 6.404 6.404 0 0 1 6.404 6.404zM1066.284 769.624a3.838 3.838 0 0 1-3.839-3.838V746.59a3.839 3.839 0 0 1 7.677 0v19.195a3.839 3.839 0 0 1-3.838 3.838zM1083.301 769.624a3.838 3.838 0 0 1-3.838-3.838V746.59a3.839 3.839 0 0 1 7.677 0v19.195a3.839 3.839 0 0 1-3.839 3.838zM1100.319 769.624a3.838 3.838 0 0 1-3.838-3.838V746.59a3.839 3.839 0 0 1 7.677 0v19.195a3.839 3.839 0 0 1-3.839 3.838zM1117.337 769.624a3.838 3.838 0 0 1-3.839-3.838V746.59a3.839 3.839 0 0 1 7.677 0v19.195a3.839 3.839 0 0 1-3.838 3.838zM1282.277 653.453h-9.434a9.33 9.33 0 0 0-9.197 7.766l-5.606 32.975a13.391 13.391 0 0 0 5.594 13.264l30.826 21.281h7.734c-2.037-26.833-6.58-53.32-19.917-75.286z" class="st23"/>
    <path fill="#927874" d="M1287.193 653.453h-9.434a9.33 9.33 0 0 0-9.197 7.766l-5.606 32.975a13.39 13.39 0 0 0 5.594 13.264l30.825 21.281h7.735c-2.037-26.833-6.58-53.32-19.917-75.286z" class="st21"/>
    <g>
      <path fill="#625f6b" d="M1322.642 638.406h19.066v53.959h-19.066v-53.96z" class="st25"/>
      <path fill="#43414c" d="M1292.912 720.404h21.967a3.222 3.222 0 0 0 3.222-3.222v-2.95a3.222 3.222 0 0 0-3.222-3.222h-21.967a3.222 3.222 0 0 0-3.222 3.221v2.951a3.222 3.222 0 0 0 3.222 3.222z" class="st26"/>
      <path fill="#625f6b" d="M1316.287 714.947a8.454 8.454 0 0 1-8.454 8.454 8.454 8.454 0 0 1-8.453-8.454 8.454 8.454 0 0 1 8.453-8.453 8.454 8.454 0 0 1 8.454 8.453z" class="st25"/>
      <path fill="#dbd6e5" d="M1311.771 714.947a3.938 3.938 0 0 1-3.938 3.938 3.938 3.938 0 0 1-3.938-3.938 3.938 3.938 0 0 1 3.938-3.938 3.938 3.938 0 0 1 3.938 3.938zM1287.978 636.278v61.819a9.533 9.533 0 0 0 9.532 9.532h19.644a9.533 9.533 0 0 0 9.532-9.532v-61.819a9.533 9.533 0 0 0-9.532-9.533h-19.644a9.533 9.533 0 0 0-9.532 9.533z" class="st27"/>
      <path fill="#a7a2b5" d="M1299.38 635.99h16.907v49.442h-16.907V635.99z" class="st28"/>
      <path fill="#edeaf5" d="M1314.554 695.497a6.72 6.72 0 0 1-6.72 6.72 6.72 6.72 0 0 1-6.721-6.72 6.72 6.72 0 0 1 6.72-6.72 6.72 6.72 0 0 1 6.72 6.72z" class="st29"/>
    </g>
    <g>
      <path fill="#352933" d="M1119.4 777.147h-20.898c-16.868 0-30.542 13.674-30.542 30.542v43.42c0 16.868 13.674 30.542 30.542 30.542h20.898c16.868 0 30.542-13.674 30.542-30.542v-43.42c0-16.868-13.674-30.542-30.542-30.542z" class="st8"/>
      <path fill="#463d44" d="M1106.115 777.147h-20.898c-16.868 0-30.542 13.674-30.542 30.542v43.42c0 16.868 13.674 30.542 30.542 30.542h20.898c16.868 0 30.543-13.674 30.543-30.542v-43.42c0-16.868-13.675-30.542-30.543-30.542z" class="st6"/>
      <path fill="#352933" d="M1092.099 866.905c-7.084 0-12.846-5.763-12.846-12.847v-43.42c0-7.083 5.762-12.846 12.846-12.846h20.898c7.084 0 12.846 5.763 12.846 12.846v43.42c0 7.084-5.762 12.847-12.846 12.847H1092.1z" class="st8"/>
      <path fill="#463d44" d="M1085.217 863.955c-7.083 0-12.846-5.762-12.846-12.846v-43.42c0-7.083 5.763-12.846 12.846-12.846h20.898c7.084 0 12.847 5.763 12.847 12.846v43.42c0 7.084-5.763 12.846-12.847 12.846h-20.898z" class="st6"/>
    </g>
    <path fill="#80625e" d="M1126.346 963.464l-82.688-23.44c-16.505-4.68-26.093-21.853-21.413-38.359l1.155-4.076c4.68-16.505 21.853-26.092 38.358-21.413l82.688 23.44c16.505 4.68 26.093 21.854 21.413 38.36l-1.155 4.075c-4.68 16.505-21.853 26.092-38.358 21.413z" class="st30"/>
    <path fill="#b59a7d" d="M1334.15 1250.728a59.035 59.035 0 0 0-53.509-7.739l-238.388 82.212c-1.288-3.845-2.08-6.213-2.18-6.521-.746-2.3-119.016-15.884-119.016-15.884l18.184 83.745c10.463 48.187 60.283 76.77 107.162 61.48l1.224-.4a59.553 59.553 0 0 0 7.85-2.104l24.334-8.392 161.047-55.54v107.274c0 32.6 26.428 59.027 59.027 59.027s59.026-26.428 59.026-59.027v-190.068a59.027 59.027 0 0 0-24.76-48.063z" class="st10"/>
    <path fill="#ceb195" d="M1334.15 1250.728c-12.072-8.606-26.799-12.24-41.227-10.527 9.71 1.153 19.124 4.69 27.313 10.527a59.027 59.027 0 0 1 24.762 48.063v190.069c0 30.243-22.752 55.16-52.07 58.604 2.283.268 4.601.422 6.957.422 32.599 0 59.026-26.427 59.026-59.026v-190.07a59.027 59.027 0 0 0-24.76-48.062z" class="st12"/>
    <path fill="#927874" d="M1146.7 1023.62c-31.25 69.81-68.18 178.2-45.52 264.86 2.8 10.71-2.78 21.82-13.13 25.76l-34.55 13.14-63.07 24c-33.83 12.88-71.3-7.1-79.34-42.39-17.53-76.97-15.21-155.97 7.01-235.7 5.32-19.09 13.43-40.55 22.8-62.31 13.81-32.14 30.35-64.95 44.63-91.79 17.55-32.99 58.89-44.95 91.38-26.47l32.93 18.73c39.3 22.35 55.34 70.91 36.86 112.17z" class="st21"/>
    <path fill="#856663" d="M1053.5 1327.38l-63.07 24c-33.83 12.88-71.3-7.1-79.34-42.39-17.53-76.97-15.21-155.97 7.01-235.7 5.32-19.09 13.43-40.55 22.8-62.31-24.89 110.19-21.38 259.1 112.6 316.4z" class="st31"/>
    <path fill="#a38884" d="M1109.843 911.45l-32.932-18.731c-17.05-9.698-36.536-11-53.745-5.289 14.824-2.525 30.59-.16 44.714 7.873l33.524 19.069c40.008 22.756 56.33 72.18 37.523 114.189-31.813 71.059-69.403 181.392-46.343 269.613a22.206 22.206 0 0 1-1.06 14.366c8.075-4.877 12.122-14.622 9.655-24.06-22.654-86.664 14.273-195.051 45.524-264.856 18.475-41.267 2.441-89.82-36.86-112.173z" class="st9"/>
    <path fill="#b59a7d" d="M1028.797 1116.985l-38.136-13.736c-23.959-8.63-36.386-35.05-27.756-59.01l37.416-103.872c8.63-23.96 35.05-36.387 59.009-27.756l38.135 13.736c23.96 8.63 36.386 35.05 27.756 59.009l-37.415 103.873c-8.63 23.96-35.05 36.386-59.009 27.756z" class="st10"/>
    <path fill="#9e8164" d="M1097.465 926.347l-38.135-13.736c-12.162-4.381-24.954-3.327-35.736 1.897a45.94 45.94 0 0 1 18.59 2.636l38.136 13.737c23.96 8.63 36.386 35.05 27.756 59.009l-37.415 103.873c-4.25 11.797-12.816 20.79-23.274 25.858 17.757-1.153 34.004-12.582 40.419-30.392l37.415-103.873c8.63-23.96-3.796-50.379-27.756-59.009z" class="st11"/>
    <path fill="#775955" d="M900.574 1237.663a461.442 461.442 0 0 0 4.274 38.49c24.248 4.956 54.27 10.095 87.844 10.095 32.144 0 67.537-4.725 104.184-18.822-1.912-12.622-2.748-25.579-2.69-38.703-75.376 33.075-148.424 18.58-193.612 8.94z" class="st32"/>
    <g>
      <path fill="#f4ccb6" d="M1031.23 1302.796h-39.072a8.842 8.842 0 0 1-8.841-8.842v-58.15a8.842 8.842 0 0 1 8.842-8.842h39.072a8.842 8.842 0 0 1 8.841 8.841v58.151a8.842 8.842 0 0 1-8.841 8.842z" class="st33"/>
      <path fill="#fcdaca" d="M1037.625 1267.542h-51.861a5.936 5.936 0 0 1-5.936-5.936v-4.4a5.936 5.936 0 0 1 5.936-5.935h51.861a5.936 5.936 0 0 1 5.937 5.936v4.4a5.936 5.936 0 0 1-5.937 5.935zM1037.625 1293.026h-51.861a5.936 5.936 0 0 1-5.936-5.936v-4.4a5.936 5.936 0 0 1 5.936-5.936h51.861a5.936 5.936 0 0 1 5.937 5.936v4.4a5.936 5.936 0 0 1-5.937 5.936z" class="st34"/>
      <g>
        <path fill="#cea18a" d="M1006.411 1236.05h-13.685a2.78 2.78 0 1 0 0 5.56h13.685a2.78 2.78 0 1 0 0-5.56zM1033.455 1236.05h-13.685a2.78 2.78 0 1 0 0 5.56h13.685a2.78 2.78 0 1 0 0-5.56z" class="st35"/>
      </g>
    </g>
    <g>
      <path fill="#f4ccb6" d="M1102.892 1287.648l-38.688 5.468a8.842 8.842 0 0 1-9.992-7.518l-8.137-57.579a8.842 8.842 0 0 1 7.517-9.991l38.688-5.468a8.841 8.841 0 0 1 9.992 7.518l8.137 57.578a8.842 8.842 0 0 1-7.517 9.992z" class="st33"/>
      <path fill="#fcdaca" d="M1104.29 1251.847l-51.351 7.257a5.936 5.936 0 0 1-6.708-5.047l-.616-4.356a5.936 5.936 0 0 1 5.047-6.708l51.351-7.258a5.936 5.936 0 0 1 6.708 5.047l.616 4.356a5.936 5.936 0 0 1-5.047 6.709zM1107.856 1277.08l-51.351 7.256a5.936 5.936 0 0 1-6.708-5.047l-.616-4.356a5.936 5.936 0 0 1 5.047-6.708l51.351-7.257a5.936 5.936 0 0 1 6.708 5.047l.616 4.356a5.936 5.936 0 0 1-5.047 6.708z" class="st34"/>
      <g>
        <path fill="#cea18a" d="M1068.976 1225.032l-13.55 1.915a2.78 2.78 0 0 0 .777 5.505l13.551-1.915a2.78 2.78 0 1 0-.778-5.505zM1095.754 1221.248l-13.551 1.915a2.78 2.78 0 0 0 .778 5.505l13.55-1.915a2.78 2.78 0 0 0-.777-5.505z" class="st35"/>
      </g>
    </g>
    <g>
      <path fill="#352933" d="M946.572 1226.302h17.222v13.004h-17.222v-13.004z" class="st8"/>
      <path fill="#463d44" d="M939.808 1220.37v5.186a3.91 3.91 0 0 0 3.91 3.909h22.93a3.91 3.91 0 0 0 3.91-3.91v-5.185a3.91 3.91 0 0 0-3.91-3.91h-22.93a3.91 3.91 0 0 0-3.91 3.91zM934.286 1242.288v52.03a8.43 8.43 0 0 0 8.43 8.429h25.29a8.43 8.43 0 0 0 8.43-8.43v-52.029a8.43 8.43 0 0 0-8.43-8.43h-25.29a8.43 8.43 0 0 0-8.43 8.43z" class="st6"/>
      <path fill="#e9c263" d="M934.286 1247.214h42.15v11.247h-42.15v-11.247zM934.286 1278.144h42.15v11.247h-42.15v-11.247z" class="st36"/>
    </g>
    <g>
      <path fill="#352933" d="M902.268 1232.992l1.72-12.89 17.07 2.277-1.72 12.89-17.07-2.277z" class="st8"/>
      <path fill="#463d44" d="M898.067 1213.333l-.686 5.14a3.91 3.91 0 0 0 3.358 4.392l22.73 3.033a3.909 3.909 0 0 0 4.391-3.358l.686-5.14a3.91 3.91 0 0 0-3.358-4.392l-22.73-3.033a3.909 3.909 0 0 0-4.391 3.358zM889.694 1234.328l-6.88 51.573a8.43 8.43 0 0 0 7.24 9.47l25.069 3.345a8.43 8.43 0 0 0 9.47-7.241l6.88-51.573a8.43 8.43 0 0 0-7.24-9.47l-25.069-3.344a8.43 8.43 0 0 0-9.47 7.24z" class="st6"/>
      <path fill="#eaeff3" d="M887.556 1250.354l1.488-11.148 41.78 5.574-1.488 11.148-41.78-5.574zM883.466 1281.012l1.487-11.148 41.78 5.574-1.487 11.148-41.78-5.574z" class="st37"/>
    </g>
    <path fill="#ceb195" d="M1412.826 1014.798v12.843L1299.061 1064c-23.39 7.475-36.29 32.497-28.816 55.886 6.037 18.89 23.516 30.939 42.34 30.939 4.485 0 9.047-.685 13.546-2.122l127.051-40.604a44.48 44.48 0 0 0 10.71-5.083h37.64c37.7 0 68.262-30.562 68.262-68.263v-19.955h-156.968z" class="st12"/>
    <path fill="#c39977" d="M1501.531 1093.491h-37.639a44.479 44.479 0 0 1-10.71 5.083l-127.051 40.605a44.458 44.458 0 0 1-13.545 2.121c-18.825 0-36.304-12.048-42.34-30.938a44.644 44.644 0 0 1-1.859-8.738 44.289 44.289 0 0 0 1.858 18.262c6.037 18.89 23.516 30.939 42.34 30.939 4.485 0 9.047-.685 13.546-2.122l127.051-40.604a44.48 44.48 0 0 0 10.71-5.083h37.64c37.7 0 68.262-30.562 68.262-68.263v-9.525c0 37.701-30.562 68.263-68.263 68.263z" class="st14"/>
    <path fill="#463d44" d="M1606.138 1036.086h-350.817c-8.218 0-14.88-6.662-14.88-14.88v-63.132c0-8.218 6.662-14.88 14.88-14.88h350.817c8.218 0 14.88 6.662 14.88 14.88v63.132c0 8.218-6.662 14.88-14.88 14.88z" class="st6"/>
    <g>
      <path fill="#f4ccb6" d="M1493.098 1000.295h106.299v33.623c0 5.586-4.529 10.114-10.115 10.114h-86.07c-5.586 0-10.114-4.528-10.114-10.114v-33.623z" class="st33"/>
      <path fill="#463d44" d="M1506.095 1031.947a3.798 3.798 0 0 1-3.798-3.798v-17.635a3.798 3.798 0 0 1 7.596 0v17.635c0 2.097-1.7 3.798-3.798 3.798zM1526.171 1031.947a3.798 3.798 0 0 1-3.798-3.798v-17.635a3.798 3.798 0 0 1 7.596 0v17.635c0 2.097-1.7 3.798-3.798 3.798zM1546.247 1031.947a3.798 3.798 0 0 1-3.798-3.798v-17.635a3.798 3.798 0 0 1 7.596 0v17.635c0 2.097-1.7 3.798-3.798 3.798zM1566.323 1031.947a3.798 3.798 0 0 1-3.798-3.798v-17.635a3.798 3.798 0 0 1 7.596 0v17.635c0 2.097-1.7 3.798-3.798 3.798zM1586.4 1031.947a3.798 3.798 0 0 1-3.799-3.798v-17.635a3.798 3.798 0 1 1 7.596 0v17.635c0 2.097-1.7 3.798-3.797 3.798z" class="st6"/>
    </g>
    <path fill="#352933" d="M1636.95 1014.937h-15.932v-50.594h15.932c5.596 0 10.132 4.536 10.132 10.132v30.33c0 5.596-4.536 10.132-10.132 10.132z" class="st8"/>
    <g>
      <path fill="#d6aa94" d="M1474.573 923.893h-25.234c-6.527 0-11.818-5.291-11.818-11.818v-7.091c0-2.4-1.945-4.344-4.344-4.344h-27.213a4.344 4.344 0 0 0-4.344 4.344v18.909h-10.093a5.75 5.75 0 0 0-5.75 5.749v13.215h96.589v-11.17a7.793 7.793 0 0 0-7.793-7.794z" class="st38"/>
      <path fill="#f4ccb6" d="M1468.44 923.893h-25.233c-6.527 0-11.818-5.291-11.818-11.818v-7.091c0-2.4-1.945-4.344-4.344-4.344h-27.214a4.344 4.344 0 0 0-4.344 4.344v18.909h-10.093a5.75 5.75 0 0 0-5.75 5.749v13.215h96.59v-11.17a7.793 7.793 0 0 0-7.794-7.794z" class="st33"/>
      <path fill="#463d44" d="M1419.507 933.347a6.005 6.005 0 0 1-6.005 6.005 6.005 6.005 0 0 1-6.005-6.005 6.005 6.005 0 0 1 6.005-6.005 6.005 6.005 0 0 1 6.005 6.005zM1419.507 911.626a6.005 6.005 0 0 1-6.005 6.005 6.005 6.005 0 0 1-6.005-6.005 6.005 6.005 0 0 1 6.005-6.005 6.005 6.005 0 0 1 6.005 6.005z" class="st6"/>
    </g>
    <path fill="#d6aa94" d="M1289.69 933.347h89.955v9.51h-89.955v-9.51z" class="st38"/>
    <g>
      <path fill="#463d44" d="M1302.886 939.352a3.002 3.002 0 0 1-3.002-3.002v-3.003h6.005v3.003a3.002 3.002 0 0 1-3.003 3.002zM1315.599 939.352a3.002 3.002 0 0 1-3.003-3.002v-3.003h6.005v3.003a3.002 3.002 0 0 1-3.002 3.002zM1328.311 939.352a3.002 3.002 0 0 1-3.002-3.002v-3.003h6.005v3.003a3.002 3.002 0 0 1-3.003 3.002zM1341.024 939.352a3.002 3.002 0 0 1-3.003-3.002v-3.003h6.005v3.003a3.002 3.002 0 0 1-3.002 3.002zM1353.736 939.352a3.002 3.002 0 0 1-3.002-3.002v-3.003h6.004v3.003a3.002 3.002 0 0 1-3.002 3.002zM1366.448 939.352a3.002 3.002 0 0 1-3.002-3.002v-3.003h6.005v3.003a3.002 3.002 0 0 1-3.003 3.002z" class="st6"/>
    </g>
    <path fill="#352933" d="M1538.46 974.475h-102.733a7.788 7.788 0 0 1 0-15.575h102.733a7.788 7.788 0 0 1 0 15.575z" class="st8"/>
    <path fill="#ceb195" d="M1420.215 1073.375a22.153 22.153 0 0 1-15.438-6.237c-8.832-8.527-9.08-22.6-.553-31.434l41.906-43.408c8.524-8.83 22.6-9.085 31.434-.552 8.832 8.526 9.081 22.6.553 31.434l-41.906 43.407a22.169 22.169 0 0 1-15.996 6.79z" class="st12"/>
    <path fill="#b59a7d" d="M1201.604 1190.663a52.898 52.898 0 0 1-39.478-17.69l-139.012-155.87c-19.444-21.802-17.532-55.238 4.27-74.682 21.8-19.445 55.238-17.531 74.68 4.27l117.623 131.887 105.278-26.82c28.306-7.209 57.102 9.892 64.314 38.2 7.21 28.308-9.892 57.103-38.2 64.315l-136.42 34.752a52.87 52.87 0 0 1-13.055 1.638z" class="st10"/>
    <path fill="#9e8164" d="M1361.209 1140.295l-137.241 34.961a53.216 53.216 0 0 1-52.85-16.148l-139.85-156.81c-13.23-14.835-16.618-35.022-10.646-52.589-15.184 19.754-14.7 48.118 2.492 67.393l139.012 155.871a52.898 52.898 0 0 0 52.533 16.052l136.42-34.752c15.441-3.934 27.535-14.297 34.181-27.492a52.947 52.947 0 0 1-24.051 13.514z" class="st11"/>
    <g>
      <path fill="#ceb195" d="M1213.484 1371.787l-53.77 16.763c-10.338 3.223-21.333-2.546-24.556-12.885l-12.603-40.426c-3.223-10.34 2.545-21.334 12.885-24.557l53.77-16.763c10.338-3.223 21.333 2.546 24.556 12.885l12.603 40.426c3.223 10.34-2.546 21.334-12.885 24.557z" class="st12"/>
      <path fill="#d2b8a1" d="M1143.829 1339.481l73.02-22.764 6.42 20.598-73.019 22.764-6.421-20.598z" class="st39"/>
      <path fill="#c6a283" d="M1169.536 1389.438l-31.03 9.674a7.426 7.426 0 0 1-9.3-4.879l-22.1-70.89a7.426 7.426 0 0 1 4.88-9.3l31.03-9.673a7.425 7.425 0 0 1 9.3 4.879l22.1 70.89a7.425 7.425 0 0 1-4.88 9.299z" class="st40"/>
    </g>
  </g>
  <g>
    <path fill="#ceb195" d="M2139.353 1580.349h-.006c-17.738 0-33.404-11.06-39.905-27.564-13.925-35.354-48.364-60.376-88.665-60.376h-359.346c-40.301 0-74.74 25.022-88.665 60.376-6.501 16.504-22.167 27.564-39.905 27.564h-.005c-13.65 0-24.717 11.066-24.717 24.717 0 13.65 11.066 24.716 24.717 24.716h.005c17.738 0 33.404 11.06 39.905 27.564 13.925 35.354 48.364 60.376 88.665 60.376h359.346c40.301 0 74.74-25.022 88.665-60.376 6.501-16.504 22.167-27.564 39.905-27.564h.006c13.65 0 24.716-11.066 24.716-24.716 0-13.651-11.066-24.717-24.716-24.717z" class="st12"/>
    <path fill="#f4ccb6" d="M2139.353 1580.349h-.006c-17.738 0-33.404-11.06-39.905-27.564-13.925-35.353-48.364-60.376-88.665-60.376h-359.346c-24.458 0-46.747 9.228-63.612 24.376 15.17-10.205 33.427-16.174 53.089-16.174h359.346c40.3 0 74.74 25.023 88.665 60.377 6.5 16.503 22.167 27.563 39.904 27.563h.006c13.65 0 24.717 11.066 24.717 24.717 0 5.504-1.822 10.57-4.864 14.678 9.023-3.683 15.387-12.533 15.387-22.88 0-13.651-11.066-24.717-24.716-24.717z" class="st33"/>
    <path fill="#c39977" d="M2029.628 1698.996h-359.346c-40.302 0-74.74-25.022-88.666-60.376-6.5-16.504-22.166-27.564-39.904-27.564h-.006c-13.65 0-24.716-11.066-24.716-24.717 0-1.864.223-3.672.614-5.419-11.125 2.41-19.465 12.298-19.465 24.146 0 13.65 11.066 24.716 24.717 24.716h.005c17.738 0 33.404 11.06 39.905 27.564 13.925 35.353 48.364 60.376 88.665 60.376h359.346c30.966 0 58.458-14.782 75.855-37.662-15.893 11.892-35.623 18.936-57.004 18.936z" class="st14"/>
    <path fill="#c39977" d="M1733.204 1627.5h-220.676a24.584 24.584 0 0 0 10.328 2.282h.005c14.68 0 27.923 7.589 35.744 19.555h174.6c6.03 0 10.918-4.889 10.918-10.919s-4.888-10.919-10.919-10.919zM2059.546 1630.003c-6.025 0-10.91 4.885-10.91 10.91 0 6.027 4.885 10.912 10.91 10.912h42.538c6.88-12.219 19.17-20.463 33.173-21.822h-75.71zM2061.052 1506.76c-14.592-9.089-31.814-14.351-50.275-14.351h-359.346c-25.16 0-48.034 9.753-65.059 25.683 14.593 9.1 31.826 14.359 50.295 14.359h359.346c25.158 0 48.018-9.761 65.039-25.691z" class="st14"/>
    <g>
      <path fill="#ceb195" d="M2139.353 1360.592h-.006c-17.738 0-33.404-11.06-39.905-27.564-13.925-35.353-48.364-60.376-88.665-60.376h-359.346c-40.301 0-74.74 25.023-88.665 60.376-6.501 16.504-22.167 27.564-39.905 27.564h-.005c-13.65 0-24.717 11.066-24.717 24.717 0 13.65 11.066 24.716 24.717 24.716h.005c17.738 0 33.404 11.06 39.905 27.564 13.925 35.354 48.364 60.376 88.665 60.376h359.346c40.301 0 74.74-25.022 88.665-60.376 6.501-16.504 22.167-27.564 39.905-27.564h.006c13.65 0 24.716-11.066 24.716-24.716 0-13.651-11.066-24.717-24.716-24.717z" class="st12"/>
      <path fill="#f4ccb6" d="M2139.353 1360.592h-.006c-17.738 0-33.404-11.06-39.905-27.564-13.925-35.353-48.364-60.376-88.665-60.376h-359.346c-24.458 0-46.747 9.228-63.612 24.376 15.17-10.205 33.427-16.174 53.089-16.174h359.346c40.3 0 74.74 25.023 88.665 60.377 6.5 16.503 22.167 27.563 39.904 27.563h.006c13.65 0 24.717 11.066 24.717 24.717 0 5.504-1.822 10.57-4.864 14.678 9.023-3.683 15.387-12.533 15.387-22.88 0-13.651-11.066-24.717-24.716-24.717z" class="st33"/>
      <path fill="#c39977" d="M2029.628 1479.239h-359.346c-40.302 0-74.74-25.022-88.666-60.376-6.5-16.504-22.166-27.564-39.904-27.564h-.006c-13.65 0-24.716-11.066-24.716-24.716 0-1.864.223-3.673.614-5.42-11.125 2.41-19.465 12.299-19.465 24.146 0 13.65 11.066 24.716 24.717 24.716h.005c17.738 0 33.404 11.06 39.905 27.564 13.925 35.354 48.364 60.376 88.665 60.376h359.346c30.966 0 58.458-14.782 75.855-37.662-15.893 11.892-35.623 18.936-57.004 18.936z" class="st14"/>
      <path fill="#c39977" d="M1733.204 1407.742h-220.676a24.584 24.584 0 0 0 10.328 2.283h.005c14.68 0 27.923 7.589 35.744 19.555h174.6c6.03 0 10.918-4.888 10.918-10.919 0-6.03-4.888-10.919-10.919-10.919zM2059.546 1410.246c-6.025 0-10.91 4.885-10.91 10.911s4.885 10.911 10.91 10.911h42.538c6.88-12.219 19.17-20.463 33.173-21.822h-75.71zM2061.052 1287.003c-14.592-9.088-31.814-14.35-50.275-14.35h-359.346c-25.16 0-48.034 9.752-65.059 25.682 14.593 9.1 31.826 14.359 50.295 14.359h359.346c25.158 0 48.018-9.761 65.039-25.691z" class="st14"/>
    </g>
    <g>
      <path fill="#ceb195" d="M2139.353 1140.835h-.006c-17.738 0-33.404-11.06-39.905-27.563-13.925-35.354-48.364-60.377-88.665-60.377h-359.346c-40.301 0-74.74 25.023-88.665 60.377-6.501 16.503-22.167 27.563-39.905 27.563h-.005c-13.65 0-24.717 11.066-24.717 24.717 0 13.65 11.066 24.716 24.717 24.716h.005c17.738 0 33.404 11.06 39.905 27.564 13.925 35.354 48.364 60.376 88.665 60.376h359.346c40.301 0 74.74-25.022 88.665-60.376 6.501-16.504 22.167-27.564 39.905-27.564h.006c13.65 0 24.716-11.066 24.716-24.716 0-13.651-11.066-24.717-24.716-24.717z" class="st12"/>
      <path fill="#f4ccb6" d="M2139.353 1140.835h-.006c-17.738 0-33.404-11.06-39.905-27.564-13.925-35.353-48.364-60.376-88.665-60.376h-359.346c-24.458 0-46.747 9.228-63.612 24.376 15.17-10.205 33.427-16.173 53.089-16.173h359.346c40.3 0 74.74 25.022 88.665 60.376 6.5 16.504 22.167 27.563 39.904 27.563h.006c13.65 0 24.717 11.066 24.717 24.717 0 5.504-1.822 10.57-4.864 14.678 9.023-3.683 15.387-12.533 15.387-22.88 0-13.651-11.066-24.717-24.716-24.717z" class="st33"/>
      <path fill="#c39977" d="M2029.628 1259.482h-359.346c-40.302 0-74.74-25.022-88.666-60.376-6.5-16.504-22.166-27.564-39.904-27.564h-.006c-13.65 0-24.716-11.066-24.716-24.716 0-1.864.223-3.673.614-5.42-11.125 2.41-19.465 12.299-19.465 24.146 0 13.65 11.066 24.716 24.717 24.716h.005c17.738 0 33.404 11.06 39.905 27.564 13.925 35.354 48.364 60.376 88.665 60.376h359.346c30.966 0 58.458-14.782 75.855-37.662-15.893 11.892-35.623 18.936-57.004 18.936z" class="st14"/>
      <path fill="#c39977" d="M1733.204 1187.985h-220.676a24.582 24.582 0 0 0 10.328 2.283h.005c14.68 0 27.923 7.589 35.744 19.555h174.6c6.03 0 10.918-4.888 10.918-10.919s-4.888-10.919-10.919-10.919zM2059.546 1190.49c-6.025 0-10.91 4.884-10.91 10.91s4.885 10.911 10.91 10.911h42.538c6.88-12.219 19.17-20.463 33.173-21.822h-75.71z" class="st14"/>
    </g>
  </g>
  <g>
    <path fill="#eaeff3" d="M1671.868 1262.225a6.745 6.745 0 0 0 6.745 6.745h40.692c3.787 0 7.103 3.099 7.023 6.885a6.724 6.724 0 0 1-6.738 6.595h-27.836a6.745 6.745 0 1 0 0 13.49h27.836a6.74 6.74 0 1 1 0 13.48h-61.73c-18.61 0-33.71-15.09-33.71-33.71s15.1-33.71 33.71-33.71H1693a6.74 6.74 0 1 1 0 13.48h-14.387a6.745 6.745 0 0 0-6.745 6.745zM1743 1275.71a8.426 8.426 0 0 1 8.531-8.426l674.508 8.426-674.508 8.425a8.426 8.426 0 0 1-8.531-8.425z" class="st37"/>
    <path fill="#e9c263" d="M1671.524 1275.71a13.66 13.66 0 0 1-13.66 13.66 13.66 13.66 0 0 1-13.66-13.66 13.66 13.66 0 0 1 13.66-13.66 13.66 13.66 0 0 1 13.66 13.66z" class="st36"/>
  </g>
  <g>
    <path fill="#eaeff3" d="M1968.306 807.714a6.745 6.745 0 0 0 6.745 6.745h22.132c3.788 0 7.104 3.099 7.024 6.885a6.724 6.724 0 0 1-6.739 6.595h-9.276a6.745 6.745 0 0 0 0 13.49h27.837a6.74 6.74 0 1 1 0 13.48h-61.73c-18.61 0-33.71-15.09-33.71-33.71s15.1-33.71 33.71-33.71h56.825a6.74 6.74 0 1 1 0 13.48h-36.073a6.745 6.745 0 0 0-6.745 6.745zM2029.65 821.199a8.426 8.426 0 0 1 8.53-8.426l674.508 8.426-674.507 8.425a8.426 8.426 0 0 1-8.532-8.425z" class="st37"/>
    <path fill="#f26d7b" d="M1967.962 821.199a13.66 13.66 0 0 1-13.66 13.66 13.66 13.66 0 0 1-13.659-13.66 13.66 13.66 0 0 1 13.66-13.66 13.66 13.66 0 0 1 13.66 13.66z" class="st41"/>
  </g>
  <g>
    <path fill="#eaeff3" d="M1769.007 1718.963a8.426 8.426 0 0 1 6.959-9.764l665.948-107.449-663.057 124.05a8.426 8.426 0 0 1-9.85-6.837z" class="st37"/>
    <path fill="#eaeff3" d="M1757.262 1748.79a5.39 5.39 0 0 0-.05-.4 6.745 6.745 0 0 0-7.8-5.48l-27.42 4.78a6.744 6.744 0 0 1-7.8-5.49 6.744 6.744 0 0 1 5.49-7.8l27.42-4.78a6.733 6.733 0 0 0 5.51-7.65c-.58-3.75-4.37-6.23-8.11-5.58l-40.08 6.98c-3.67.64-7.17-1.81-7.81-5.48a6.754 6.754 0 0 1 5.49-7.81l14.17-2.47c3.28-.56 5.59-3.42 5.59-6.63 0-.38-.03-.77-.1-1.16-.64-3.67-4.13-6.12-7.8-5.49l-34.62 6.03c-18.33 3.2-30.62 20.66-27.42 39 .54 3.09 1.48 6.01 2.76 8.71-59.27.83-103.03 3.74-103.03 7.2 0 3.72 50.45 6.8 116.39 7.36 6.98.06 14.13.09 21.42.09 8.72 0 17.24-.04 25.51-.13 63.92-.64 112.3-3.68 112.3-7.32 0-2.78-28.21-5.2-70.01-6.48z" class="st37"/>
    <path fill="#52c6e5" d="M1698.59 1731.244a13.66 13.66 0 0 1-11.113 15.8 13.66 13.66 0 0 1-15.801-11.112 13.66 13.66 0 0 1 11.113-15.801 13.66 13.66 0 0 1 15.8 11.113z" class="st42"/>
    <path fill="#eaeff3" d="M1583.664 1667.235s14.816 24.881 38.615 50.428c23.8 25.547 45.098 44.39 47.57 42.086 2.474-2.304-14.815-24.881-38.615-50.428-23.799-25.547-47.57-42.086-47.57-42.086zM1785.939 1623.978s-23.059 26.185-45.05 62.405-37.478 67.004-34.59 68.758c2.89 1.754 23.06-26.186 45.051-62.406s34.589-68.757 34.589-68.757zM1637.224 1631.271s1.054 15.901 9.118 32.162 17.054 28.225 20.082 26.724-1.054-15.9-9.117-32.161-20.083-26.725-20.083-26.725z" class="st37"/>
  </g>
</svg>
