<svg xmlns="http://www.w3.org/2000/svg" preserveAspectRatio="xMidYMid meet" viewBox="0 0 1400 1300" width="350.294" height="360.176">
  <path fill="none" d="M0 0h1603.839v1374.865H0z" pointer-events="none"/>
  <g fill="none" stroke="#FFF" stroke-linecap="round" stroke-linejoin="round" stroke-miterlimit="10">
    <g stroke-width="2.96">
      <path d="M1950.349-208.937v-1.153M1890.07-83.302l-1.096 1.153M1743.21-167.443h-1.096M1785.953-49.877v-1.153M1861.768 72.336c-.094.563 1.027.52.895-.034M1715.81 33.11v1.154M1789.24 223.293l1.097-1.153M2105.978 57.316v-1.153M2309.829 84.979l1.096-1.153M2249.55-7.23v1.153M2298.869-155.917v-1.153M2330.653-189.343l1.096-2.305M2359.148-145.543v-1.153M2202.423-167.443h-1.096M2232.526 125.139v-2.042M2158.746 321.166v-2.042M2092.73 680.547h-1.94M1933.52 733.638h1.942M1873.33 658.086h3.883M2251.942 658.086v-2.042M2263.592 686.673v2.042M2230.585 899.035l-1.942-2.042M2331.548 927.622v2.042M1378.22 666.254h-1.941M1578.206 333.417v-2.042M1706.352 380.382h-1.942M1455.885-121.935l-1.942 2.042M1378.22-177.068v-2.042M1310.265 55.713h-1.942M1265.608 159.852h1.942M1019.024-79.055h5.825M1182.119-91.306h-1.942M714.193 49.588l1.942-2.042M601.58-81.097l1.942 2.042M349.17 274.2v-2.041M269.566 294.62h-1.942M380.237 372.214h1.942M288.982 455.934v-2.042M372.47 747.93c-1.602 0-1.602 0 0 0M446.252 715.26c-1.603 0-1.603 0 0 0M529.74 584.576c0-1.686 0-1.686 0 0M370.529 1021.55h1.942M250.15 798.98h1.942M61.814 752.015v-2.042M-307.09 1023.593h1.942M-378.93 870.448v-2.042M-446.886 919.454v2.042M-334.273 705.05l-1.942-2.042M-378.93 607.037h-1.942M-95.456 335.459h3.883M81.23 325.25l1.942-2.042M123.945 421.22l1.942 2.043M-239.134 268.075h1.942M-171.178 225.195h1.942M-343.981 151.685h1.942M209.376 119.014c0-1.686 0-1.686 0 0M87.055-123.977h1.942M246.266-195.445v2.042M3.566-219.95l1.942 2.043M-147.88-238.326v-2.042M-400.287-144.397h-1.942M-334.273-242.41l1.942-2.042"/>
    </g>
    <g stroke-width="2.719" opacity=".4">
      <path d="M43.09 927.46v1.058M98.447 812.083l1.006-1.06M233.317 889.354h1.006M194.063 781.386v1.058M124.438 669.152c.087-.517-.943-.478-.822.03M258.479 705.174v-1.06M191.044 530.52l-1.006 1.059M-99.832 682.945v1.058M-287.04 657.54c-.334.354-.67.707-1.005 1.059M-231.682 742.222v-1.06M-276.974 878.769v1.058M-306.163 909.465l-1.007 2.117M-332.331 869.242v1.058M-188.403 889.354h1.006M-216.048 620.66v1.875M-148.291 440.639v1.875M-87.667 110.6h1.783M58.545 61.845h-1.783M113.82 131.228h-3.566M-233.88 131.228v1.875M-244.577 104.975V103.1M-214.265-90.048l1.783 1.875M-306.985-116.301v-1.875M568.504 123.727h1.783M384.848 429.388v1.875M267.165 386.258h1.783M497.18 847.56l1.784-1.874M568.504 898.192v1.875M630.912 684.417h1.783M671.922 588.78h-1.783M898.373 808.182h-5.35M748.595 819.433h1.783M1178.315 690.043l-1.783 1.875M1281.734 810.057l-1.783-1.875M1513.533 483.769v1.875M1586.639 465.017h1.783M1485.004 393.759h-1.783M1568.809 316.875v1.875M1492.136 48.718c1.472 0 1.472 0 0 0M1424.379 78.722c1.472 0 1.472 0 0 0M1347.707 198.736c0 1.548 0 1.548 0 0M1493.919-202.561h-1.783M1604.47 1.838h-1.783M1777.428 44.968v1.875M2116.212-204.436h-1.783M2182.186-63.795v1.875M2244.593-108.8v-1.875M2141.175 88.098l1.783 1.875M2182.186 178.108h1.783M1921.857 427.513h-3.566M1759.597 436.889l-1.783 1.875M1720.37 348.753l-1.783-1.875M2053.804 489.395h-1.783M1991.397 528.774h-1.783M2150.09 596.282h-1.783M1641.915 626.286c0 1.548 0 1.548 0 0M1754.248 849.437h-1.783M1608.036 915.069v-1.875M1830.92 937.572l-1.783-1.875M1970 954.449v1.875M2201.8 868.189h1.783M2141.175 958.199l-1.783 1.875"/>
    </g>
  </g>
  <path fill="#faff6b" d="M226.264 913.804l70.744 31.268 101.23 36.003 102.883 7.101 131.502-11.29 159.152-67.58c92.13-80.229 159.36-196.134 159.36-327.893 0-241.688-195.928-437.616-437.617-437.616-241.688 0-437.615 195.928-437.615 437.616 0 131.76 58.232 252.163 150.36 332.391z" opacity=".1"/>
  <path fill="#eeffab" d="M348.75 927.3l112.503 18.04 105.155 8.806 116.378-40.342c120.28-61.594 202.603-186.784 202.603-331.2 0-205.379-166.492-371.871-371.87-371.871-205.379 0-371.87 166.492-371.87 371.87 0 144.417 86.821 283.103 207.1 344.698z" opacity=".1"/>
  <path fill="#fd0" d="M833.66 581.413c0 176.81-143.333 308.895-320.142 308.895s-320.14-132.086-320.14-308.895c0-176.809 143.331-320.14 320.14-320.14 176.81 0 320.142 143.331 320.142 320.14z" opacity=".1"/>
  <path fill="#fffdc9" d="M789.21 581.413a275.691 275.691 0 0 1-275.692 275.692 275.691 275.691 0 0 1-275.69-275.692 275.691 275.691 0 0 1 275.69-275.69 275.691 275.691 0 0 1 275.692 275.69z"/>
  <path fill="#faff6b" d="M621.076 895.501" paint-order="fill"/>
  <g fill="#E5EDD4">
    <path d="M1730.252 1539.07h305.333c44.878-44.701 69.803-108.594 62.464-176.442-12.841-118.717-119.57-204.555-238.382-191.724-118.813 12.83-204.721 119.472-191.88 238.189 5.539 51.206 28.556 96.285 62.465 129.978z" opacity=".05"/>
    <path d="M1760.98 1192.13a83.931 83.931 0 0 1 0 118.697 83.931 83.931 0 0 1-118.698 0 83.931 83.931 0 0 1 0-118.696 83.931 83.931 0 0 1 118.697 0z" opacity=".05"/>
    <path d="M1671.523 1168.93a60.903 60.902 65.083 0 1-29.574 80.893 60.903 60.902 65.083 0 1-80.892-29.575 60.903 60.902 65.083 0 1 29.574-80.893 60.903 60.902 65.083 0 1 80.892 29.576zM363.252 139.238a83.472 83.472 0 0 1 0 118.048 83.472 83.472 0 0 1-118.047 0 83.472 83.472 0 0 1 0-118.048 83.472 83.472 0 0 1 118.047 0z" opacity=".05"/>
    <path d="M427.585 219.121a60.57 60.57-45 0 1 0 85.659 60.57 60.57-45 0 1-85.66 0 60.57 60.57-45 0 1 .002-85.658 60.57 60.57-45 0 1 85.658 0z" opacity=".05"/>
  </g>
  <path fill="#FFF" d="M1475.997 600.155l303-68.071a.235.235 0 0 1 .282.174.231.231 0 0 1-.174.276l-302.031 72.13c-1.263.303-2.535-.461-2.841-1.704-.306-1.243.469-2.496 1.732-2.797l.032-.008zM1291.443 579.165l156.67-34.643a.235.235 0 0 1 .282.174.231.231 0 0 1-.173.276l-155.701 38.702c-1.263.302-2.535-.462-2.841-1.705-.306-1.243.469-2.496 1.732-2.797a.446.446 0 0 0 .03-.007zM1366.037 483.166l241.819-53.471a.362.362 0 0 1 .434.268.357.357 0 0 1-.268.426L1367.7 490.125c-1.95.465-3.912-.713-4.385-2.632-.473-1.92.724-3.852 2.673-4.317.01-.001.039-.008.049-.01z" opacity=".4"/>
</svg>
