<svg xmlns="http://www.w3.org/2000/svg" xmlns:xlink="http://www.w3.org/1999/xlink" viewBox="0 0 1000 1000">
  <g fill="none" fill-rule="evenodd">
    <mask id="b" fill="#fff">
      <use xlink:href="#a"/>
    </mask>
    <path fill="#FFF" d="M.06 800H1000V0H.06z" mask="url(#b)"/>
    <path fill="#333" d="M779.532 762.152c-4.873 0-9.774-.201-14.729-.691-18.933-1.871-38.124-2.807-56.962-5.479-43.236-6.13-86.489-6.494-130.039-6.494-17.289 0-34.577-.171-51.862-.171-25.173 0-50.338.363-75.462 2.144-39.184 2.778-78.429 3.222-117.684 3.222-5.929 0-11.864-.01-17.794-.024l-1.151-.001c-21.735 0-43.387 1.418-65.089 2.421-21.803 1.007-43.005 2.66-64.68 2.66-1.956 0-3.916-.013-5.881-.042-21.659-.315-54.638-7.001-70.091-24.039-9.174-10.123-7.93-34.477 1.258-44.238 4.013-4.264 10.484-7.604 15.77-9.635 15.056-5.788 30.379-5.802 46.113-5.922l.581-.002c10.856 0 22.143 2.319 32.546 5.539 9.467 2.93 19.139 3.957 28.767 5.782 7.879 1.492 16.31 2.207 24.646 2.207 5.425 0 10.81-.303 15.977-.891 13.979-1.591 28.058-2.331 42.078-3.585 17.41-1.557 34.448-4.933 51.798-6.742 8.685-.905 17.169-3.151 25.835-4.173 22.982-2.708 46.006-3.294 69.03-3.367 1.846-.006 3.691-.008 5.537-.008 10.981 0 21.964.087 32.939.087 8.912 0 17.816-.028 26.723-.028 30.473 0 60.923.331 91.314 3.258 9.418.908 18.774.359 28.061 2.518 9.324 2.168 18.737 4.146 28.29 4.532 8.173.33 16.371.439 24.577.439 14.598 0 29.222-.344 43.772-.401 1.456-.005 3.481-.015 5.994-.015 32.557 0 146.023 1.583 137.884 33.657-3.127 12.324-21.308 28.364-31.506 33.527-12.883 6.523-26.971 10.381-41.152 11.682-11.953 1.096-23.605 2.273-35.408 2.273"/>
    <path fill="#B97262" d="M277.501 348.638l-1.763-11.907 5.056-.976 3.013 7.887 2.177-1.571.267 10.373-5.119 1.723-3.631-5.529"/>
    <path fill="#333" d="M353.985 410.505l-45.548-11.851-21.099-49.753-9.983 3.939 11.892 64.262 52.468 27.026 12.27-33.623"/>
    <path fill="#D67086" d="M744.574 405.322l-43.157 31.493-37.635-16.26-5.522 10.153 28.503 19.413 15.977 5.972 41.834-20.141v-30.63"/>
    <path fill="currentColor" d="M774.298 208.473l132.173 10.985c12.234 1.017 21.327 11.759 20.31 23.993l-7.081 85.197c-1.012 12.185-11.675 21.264-23.865 20.322l-21.25-1.643-27.039 31.961c-.79.934-2.314.316-2.231-.904l2.269-33.301-84.095-7.188c-12.211-1.044-21.273-11.775-20.259-23.989l7.076-85.122c1.016-12.234 11.758-21.327 23.992-20.311"/>
    <path fill="#FFE" d="M775.066 238.778l105.568 9.005.376-4.399-105.569-9.005-.375 4.399M772.205 272.317l125.912 10.741.375-4.398-125.911-10.741-.376 4.398M769.345 305.857l125.911 10.741.375-4.399-125.911-10.741-.375 4.399"/>
    <path fill="#AEAEAF" d="M676.255 554.15l2.533 58.746-7.425 99.887-11.11.79-13.498-90.721-18.674-76.769 48.174 8.067"/>
    <path fill="currentColor" d="M660.649 718.253l12.442 5.153 5.58-6.433-6.434-5.58-12.014.853.426 6.007"/>
    <path fill="#AEAEAF" d="M597.607 533.362l-2.437 44.405 7.234 132.033 11.124.555L630.2 623.76l14.705-94.965-47.298 4.567"/>
    <path fill="currentColor" d="M613.229 715.044l-12.33 5.413-5.713-6.315 6.315-5.714 12.029.6-.301 6.016"/>
    <path fill="#353A85" d="M662.289 402.549l-34.714-3.719s-19.311 2.064-32.415 47.926c-7.29 25.515-9.509 65.716-10.043 96.363.82 4.372 5.583 23.522 25.723 20.274 34.586-5.579 52.995-11.157 68.056-8.368 12.831 2.789 11.746-14.876 10.335-28.356l-5.112-41.71-21.83-82.41"/>
    <path fill="#B97262" d="M655.585 359.339c-8.749-1.929-17.755-3.657-26.514-1.922-1.918.379-3.977 1.047-5.017 2.703-.404.641-.617 1.381-.814 2.113-2.211 8.216-5.014 20.396.395 27.966 1.031 1.444 2.417 2.59 3.905 3.52a19.252 19.252 0 0 0 6.472 2.539 34.7 34.7 0 0 1-1.959 5.968c2.003 3.019 11.346 3.381 13.074.486l.29-7.517a18.606 18.606 0 0 0 3.269-1.697c3.993-2.63 6.624-6.622 8.152-11.087 1.664-4.862 4.006-9.484 5.526-14.439.554-1.805.99-3.866.041-5.498-1.011-1.737-3.193-2.328-5.156-2.766-.554-.123-1.108-.247-1.664-.369"/>
    <path fill="#322E7F" d="M626.463 364.037c4.324-2.782 10.812-3.979 14.879-3.684 12.294.89 16.798 9.918 17.454 21.222 3.387-4.304 9.742-9.719 10.126-15.258.314-4.534-.313-10.716-2.853-14.632-2.377-3.664-8.454-5.676-12.068-7.799l-10.221-6.004c-.708-.416-1.436-.84-2.246-.98-.958-.166-1.933.078-2.875.322l-24.156 6.243c-1.547.4-3.309.984-3.879 2.476-.347.909-.143 1.923.065 2.872.915 4.18 2.669 8.453 3.104 12.687.491 2.46 1.958 15.069 6.314 13.614 1.28-2.092 1.471-4.668 2.467-6.908.737-1.655 2.135-3.043 3.889-4.171"/>
    <path fill="#353A85" d="M627.575 398.83l-12.83 3.904-46.858 49.09-2.789 16.178 22.4 36.986 6.049-13.556-9.484-27.334 15.063-10.6 20.082-45.185 8.367-9.483"/>
    <path fill="#292949" d="M549.514 702.543l.906 7.047-13.189 8.859-7.953-6.141 6.142-7.954 13.187-8.859.907 7.048"/>
    <path fill="#292949" d="M549.96 700.177l-10.171-89.876 12.237-100.616-2.752-21.403-54.658-2.076-1.972 34.835 9.175 89.397 34.521 94.332 13.62-4.593"/>
    <path fill="currentColor" d="M489.485 386.763l-27.493 7.488-31.797 56.342 15.062 13.946 21.198-25.103 23.03-52.673"/>
    <path fill="#292949" d="M454.51 496.277l-.144 90.697 18.256 116.756 13.14-.131 7.223-107.972 16.905-108.069-55.38 8.719"/>
    <path fill="#292949" d="M485.742 709.141l-14.139 7.247-7.176-7.034 7.034-7.176 14.21-.142.071 7.105"/>
    <path fill="currentColor" d="M557.683 527.124c-.125-3.931-.344-7.211-.375-8.382-.282-10.543-1.221-21.062-2.541-31.531-1.183-9.381-2.676-32.67-4.282-41.993-1.325-7.697-5.944-26.911-9.282-34.052-8.299-17.756-5.734-19.396-42.192-24.668-15.978-2.311-19.755 7.647-32.818 19.098-1.288 1.129-1.217 7.853-1.516 9.634a247.508 247.508 0 0 1-1.737 9.382 151.054 151.054 0 0 1-1.698 7.316l.002-.001s-10.967 49.905-18.219 60.504c-7.252 10.598-22.233 25.416 2.828 34.464 4.441 1.435 8.91 2.801 13.533 3.532 0 0 20.496-2.279 31.037-2.199 9.708.072 19.456 1.054 29 2.7 6.382 1.067 12.894 2.617 18.603 5.599 5.447 2.845 9.378 7.031 14.905 9.976.523.279 1.097.568 1.692.485 3.174-.439 3.323-11.592 3.06-19.864"/>
    <path fill="#EFBFA5" d="M533.232 296.43s-5.224-2.591-5.201-3.26c.024-.669.902-10.121.902-10.121l3.424-1.956 1.44-4.028s-3.912-6.849-3.193-8.862c.719-2.015 5.941 6.891 5.941 6.891l1.912 5.453.488 8.805-5.713 7.078M477.559 431.392l10.687-8.146-3.283-4.719-8.553 3.957-.516-2.952-8.296 8.083 2.749 5.367 7.212-1.59"/>
    <path fill="currentColor" d="M476.204 434.269l-8.572-11.201-29.51 17.797 7.274 23.761 30.808-30.357"/>
    <path fill="#EFBFA5" d="M498.969 391.505c1.84.909 6.181 1.234 10.711-.54.912-.357 1.528-1.237 1.515-2.217a61.315 61.315 0 0 0-.662-8.221c3.398-1.194 7.322-2.985 7.914-6.538.187-1.118-.007-2.261-.2-3.379l-2.394-13.86c-.277-1.599-.571-3.243-1.44-4.612-1.524-2.403-4.484-3.454-7.287-3.941-7.155-1.241-14.951.308-20.498 4.994-1.477 1.247-2.812 2.747-3.462 4.566-1.004 2.806-.253 5.901.503 8.783l2.096 7.98c.803 3.06 1.963 6.538 4.911 7.686 1.565.608 3.413.431 4.83 1.332 2.5 1.589 2.163 5.306 3.463 7.967"/>
    <path fill="#292949" d="M457.677 345.429a29.982 29.982 0 0 0-2.306-3.312c-1.835-2.262-4.096-4.2-5.572-6.711-1.476-2.51-1.995-5.913-.224-8.225 1.143-1.492 2.998-2.238 4.801-2.768a34.9 34.9 0 0 1 18.355-.339c5.716 1.455 10.832 3.864 16.587 1.715 5.407-2.019 9.312-1.196 14.962.82 6.116 2.182 14.324 2.696 19.86 5.777 2.311 1.286 4.156 3.296 5.593 5.517 4.982 7.693 5.009 18.3.068 26.019-1.109 1.732-2.435 3.314-3.828 4.826-2.885 3.128-6.336 6.993-10.305 8.152-.095-3.55 3.14-14.744.413-17.654-4.327-4.618-14.11-3.007-19.477-1.87-5.855 1.24-11.074 5.386-16.879 6.272-4.177.638-9.508-1.411-13.059-3.569-4.383-2.667-6.424-10.439-8.989-14.65"/>
    <path fill="currentColor" d="M519.214 389.942l28.102-14.783-19.285-78.729 13.284-7.178 33.566 85.907-35.936 43.368-19.731-28.585"/>
    <path fill="#292949" d="M312.881 707.745l-.607 5.966 11.327 7.18 6.572-5.361-5.36-6.572-11.326-7.179-.606 5.966"/>
    <path fill="#353A85" d="M312.443 525.743l-1.842 18.119 16.178 80.973-14.327 80.924 11.594 3.57 37.487-96.217 2.056-29.415-5.077-60.932-46.069 2.978"/>
    <path fill="#353A85" d="M400.309 531.911l.372 76.548-15.086 98.593-11.091-.074-6.394-91.11-14.566-91.164 46.765 7.207"/>
    <path fill="#292949" d="M374.537 711.654l11.953 6.077 6.037-5.956-5.957-6.037-11.993-.08-.04 5.996"/>
    <path fill="#333" d="M409.655 520.677c-8-24.785-8.853-50.81-11.18-76.629-.69-7.617-1.423-15.403-4.594-22.363-3.641-7.994-9.661-12.212-16.673-14.517-8.926-2.934-19.46-2.765-28.741-3.33-8.806-.277-16.596 32.826-25.579 48.873-5.505 9.834-11.177 18.532-14.89 29.26-3.564 10.295-6.986 20.772-9.06 31.484-3.13 16.173-11.136 27.466-3.49 32.968.701.231 1.376.461 2.017.69 12.542 4.493 25.52 7.819 38.735 9.564 11.723 1.547 23.63 1.829 35.402.668 16.113-1.588 31.725-3.865 45.93-12.268l-7.877-24.4"/>
    <path fill="#B97262" d="M344.159 379.2c5.016-15.145 27.118-20.42 32.256-2.818 1.543 5.289 2.473 10.901 1.423 16.31-1.049 5.41-4.355 10.6-9.4 12.817l-.086.036.591 4.211c.042.302.078.635-.092.888-.193.288-.576.363-.919.414l-5.028.75c-.83.124-1.696.246-2.495-.01-1.751-.561-2.479-2.659-2.556-4.496a22.559 22.559 0 0 1-.007-1.327c-9.918-3.398-16.967-16.875-13.687-26.775"/>
    <path fill="#322E7F" d="M371.085 353.339c4.048-.602 7.494 3.323 11.228 5.383 3.106 1.715 6.628 2.169 9.848 3.59 3.22 1.42 6.384 4.386 6.452 8.098 3.263-1.698 6.797-3.439 10.453-2.735 3.656.705 7.05 5.07 5.594 8.668-1.305 3.221-5.508 3.98-6.907 7.152-2.211 5.016 3.769 12.808-.312 16.135-.982.8-2.316.994-3.281 1.817-1.197 1.023-1.582 2.78-2.115 4.341-2.416 7.08-9.552 11.704-16.601 10.758-4.382-2.054-7.878-6.295-9.444-11.151-1.887-5.854 1.245-7.898 1.773-13.393.578-6.005-1.332-12.364-5.112-17.028-2.461-3.035-5.981-5.65-9.702-6.005-1.512-.144-1.036 1.117-2.737-.053-.731-.502-1.727-2.402-1.934-3.312 4.07-3.274 7.473-11.473 12.797-12.265"/>
    <path fill="#322E7F" d="M327.316 361.125c-2.088.582-4.355.496-6.344 1.368-2.987 1.31-2.806 4.411-3.652 7.104-.936 2.983-2.297 6.986-4.264 9.305-1.417 1.672-3.401 2.624-5.128 3.914-1.726 1.289-3.314 3.194-3.277 5.518.035 2.203 1.516 4.181 1.732 6.38.264 3.28-.303 4.959.708 8.311.522 1.73 1.106 3.562 2.404 4.742 1.711 1.553 4.148 1.524 6.288 1.166 2.139-.358 4.351-.952 6.462-.242 4.576 1.539 3.722 6.168 4.94 10.047 1.854 5.904 8.699 9.349 13.936 7.25 4.44-1.78 7.009-6.935 6.809-12.025-.1-2.548-1.115-4.922-1.189-7.473-.071-2.46 1.316-5.866-.913-7.818-.544-.475-1.24-.726-1.728-1.268-.394-.438-.613-1.025-.75-1.612-.475-2.032-.027-4.25 1.171-5.806.862-1.118 2.096-1.936 2.624-3.285.605-1.547.126-3.355.023-5.064-.247-4.131 2.012-8.182 5.453-9.777 2.268-1.05 4.311-1.671 6.293-3.27.302-.243 4.811-4.228 4.927-3.367-.202-1.499-1.077-2.81-1.963-4.013-1.458-1.977-3.076-3.903-5.128-5.087-6.638-3.829-6.958 5.07-12.287 3.899-1.285-.282-2.253-1.46-3.409-2.164-2.186-1.328-4.869-.853-7.104.142-2.235.996-4.283 2.471-6.634 3.125"/>
    <path fill="currentColor" d="M762.702 559.857l48.752-16.359-12.364 84.23 3.959 78.757h-8.872l-20.669-69.936-9.266-69.521-1.54-7.171"/>
    <path fill="#292949" d="M793.653 705.438l9.877.034 2.283 8.4-.251.066.062.009-16.594 9.201-7.783.641-.732-8.895 2.139-1.475 10.999-7.981"/>
    <path fill="currentColor" d="M724.777 560.368l10.681 149.987 8.401 1.038 12.622-83.058 18.86-77.34-50.564 9.373"/>
    <path fill="#292949" d="M735.04 708.849l-12.853 6.809 1.013 6.002 22.698-2.759-1.083-8.637-9.775-1.415"/>
    <path fill="#D67086" d="M824.749 584.194c1.018-24.532-20.893-102.544-20.893-102.544l.004-.001c-2.317-7.33-4.085-14.786-5.143-22.261-.753-5.322-16.699-65.804-15.643-65.881-10.984.802-32.164-1.795-40.301 6.007-.231.223-.454.454-.664.694-6.343 7.234-9.638 21.882-12.638 30.896a242.002 242.002 0 0 0-9.033 36.296c-1.807 10.762-2.88 21.633-3.639 32.515-.653 9.355-.135 18.657-.454 27.86-.352 10.188-3.408 21.233-5.688 31.144-2.295 9.981-5.209 19.843-9.24 29.27 10.905 4.827 23.053 6.131 34.979 6.176 11.926.046 23.836-1.104 35.761-.922 10.084.156 20.291 1.254 30.172-.767 7.857-1.609 15.109-5.106 22.421-8.482h-.001"/>
    <path fill="#292949" d="M745.468 367.855c-5.013 2.477-10.239 8.862-9.916 14.806.155 2.862 1.738 5.086 1.783 8.156.111 6.052 9.287 12.388 3.671 18.225-2.887 3-7.4 3.588-11.541 4.004-.503.05-1.03.098-1.495-.1-.766-.323-1.139-1.23-1.121-2.061.017-.831.338-1.621.589-2.413 2.636-8.284-1.343-17.945-1.813-26.386-.469-8.424 1.525-17.519 8.432-23.009 4.631 1.412 8.082 3.368 10.359 7.641l1.052 1.137"/>
    <path fill="#EFBFA5" d="M748.583 403.809c-5.711-.72-10.565-4.934-13.226-10.039-2.66-5.104-3.398-11-3.425-16.756-.091-19.154 23.611-20.447 33.139-6.773 8.304 11.917.117 35.658-16.488 33.568"/>
    <path fill="#292949" d="M777.277 406.145c-2.942-.838-5.856-1.763-8.133-4.248-3.682-4.017-4.781-11.582-6.515-16.587-1.827-5.276-3.987-10.976-8.782-13.836-3.132-1.868-6.284-1.724-9.716-1.109-2.35.421-2.266 1.325-4.493.456-1.706-.666-3.568-3.289-4.248-4.902-1.148-2.722-.595-5.938.846-8.516 2.218-3.968 5.306-6.328 9.635-7.277 15.195-3.331 28.427 3.47 35.653 17.537 3.475 6.76 3.509 15.04 7.069 21.504 2.197 3.991 5.482 6.293 7.477 10.611 5.179 11.203 14.631 24.975 16.524 37.24.069.453.114.962-.164 1.328-.568.743-1.742.203-2.477-.375l-12.873-10.126c-1.684-1.326-3.392-2.676-4.647-4.414-3.122-4.329-3.199-10.706-7.393-14.007-2.289-1.801-5.038-2.504-7.763-3.279"/>
    <path fill="#EFBFA5" d="M848.443 382.941c2.87.535 10.347-1.466 12.065-4.105 3.964-6.09-5.442-4.215-8.839-4.297.389-1.18.801-2.309.951-3.517.138-1.107-9.956 1.769-10.929 2.827-2.334 2.537-1.269 4.454-1.058 7.663 2.606.414 5.209.943 7.81 1.429"/>
    <path fill="#D67086" d="M769.063 444.164l55.159-9.178 25.399-51.507-10.098-8.32-26.877 35.667-28.083-1.193-25.993 1.126 10.493 33.405"/>
    <path fill="#EFBFA5" d="M215.466 556.674l-48.264-17.749 9.948 84.55-5.764 72.944-.156.485.116.014-.385 4.861 8.512 1.546 22.995-70.301 11.253-69.226 1.745-7.124"/>
    <path fill="#292949" d="M180.359 701.309l-9.874-.25-2.522 8.332.249.074-.063.007 16.325 9.673 7.761.862.987-8.87-2.097-1.536-10.766-8.292"/>
    <path fill="#EFBFA5" d="M248.341 558.126l-14.923 149.149-8.377 2.054-10.335-84.172-16.638-77.847 50.273 10.816"/>
    <path fill="#292949" d="M233.832 706.252l12.654 7.175-1.186 5.97-22.61-3.408 1.331-8.602 9.811-1.135"/>
    <path fill="currentColor" d="M270.97 594.482c3.053-2.121 3.119-5.813 3.113-9.51-.009-6.945-1.258-14.043-2.85-20.791-3.031-12.66-6.466-27.907-7.978-44.311-3.904-42.395-17.293-70.845-17.293-70.845l-4.319-11.52c-.859-1.498-1.75-2.98-2.68-4.44-5.396-8.466-14.764-22.855-24.784-25.21-.209-.049-.42-.097-.632-.143-10.534-2.313-24.032-1.239-33.552 3.882-1.807.971-3.413 2.266-5.008 3.552-4.655 3.755-8.452 5.789-10.459 11.511-1.742 4.969-2.147 10.39-3.108 15.538-1.952 10.461-3.116 21.047-4.675 31.569-2.922 19.731-5.404 39.525-8.531 59.225-1.609 10.14-3.23 20.297-3.99 30.542-.672 9.059-8.844 18.256-13.436 26.374-1.598 2.825 21.352 10.146 23.408 10.624 9.52 2.216 19.647 1.651 29.461 1.695a912.345 912.345 0 0 0 64.475-1.989c7.131-.472 15.919-1.834 22.246-5.383.209-.118.406-.241.592-.37"/>
    <path fill="#333" d="M201.735 406.553s-12.114-3.271-13.788 24.063c-1.673 27.334-4.463 96.506-8.367 115.473-3.905 18.967-9.763 56.169-9.763 56.169l37.097 1.289 42.396-3.348s-14.504-26.776-16.736-45.742c-2.231-18.967 1.674-90.37-7.809-117.146-9.484-26.777-11.473-30.278-23.03-30.758"/>
    <path fill="#currentColor" d="M256.562 467.434l2.789 3.346 10.041-13.945-40.164-44.628-15.062-4.462 7.251 19.525 35.145 40.164"/>
    <path fill="#EFBFA5" d="M222.992 455.886l-8.815-6.718 2.707-3.893 7.055 3.264.426-2.435 6.843 6.667-2.268 4.427-5.948-1.312"/>
    <path fill="#currentColor" d="M257.521 454.169l-.396.868-27.477-5.3-4.051 9.013 33.754 12.03-1.83-16.611"/>
    <path fill="#292949" d="M218.631 384.896c1.833 5.504-.819 11.373-3.148 16.388-2.066 4.448-2.783 7.375 2.459 8.575 2.954.677 8.196 1.939 10.787-.323 1.961-1.714.858-7.005-.096-9.107-.729-1.605-2.658-2.42-3.344-4.044-.282-.669-.323-1.413-.333-2.139a29.515 29.515 0 0 1 1.213-8.786c.573-1.932 1.349-3.83 1.521-5.837.251-2.912-1.807-6.304-2.889-8.979-2.013-4.977-9.018-11.652-14.884-7.746-1.335.89-2.113 2.394-2.763 3.861-.388.876-.758 1.79-.769 2.748-.045 3.821 3.444 4.466 5.853 6.285 2.971 2.242 5.223 5.592 6.393 9.104"/>
    <path fill="#EFBFA5" d="M207.475 406.372c5.088-1.198 9.066-5.47 10.977-10.335 1.912-4.865 2.012-10.26 1.483-15.46-1.759-17.305-23.286-16.194-30.575-2.931-6.353 11.559 3.322 32.211 18.115 28.726"/>
    <path fill="#EFBFA5" d="M207.47 404.508l-.257 5.913c-.012.289-.036.605-.238.812-.23.236-.6.24-.929.229l-4.819-.167c-.796-.027-1.624-.064-2.326-.44-1.537-.825-1.855-2.908-1.609-4.634.245-1.727.864-3.466.498-5.171 3.317 1.634 6.468-2.059 9.785-.425l-.105 3.883"/>
    <path fill="#292949" d="M200.527 350.576c-5.652 1.921-9.277 7.637-14.792 9.921-3.164 1.309-6.907 1.475-9.488 3.725-5.784 5.041-1.135 15.619-5.887 21.643-.988 1.252-2.32 2.199-3.312 3.448-2.14 2.695-2.42 6.373-2.61 9.808-.044.773-.051 1.615.083 2.393.743 7.933 12.26 7.429 16.835 6.921 5.021-.558 3.348-3.347 3.348-3.347l-.183-.223c-.481-3.221.843-6.657 3.374-8.709.939-.761 2.05-1.368 2.712-2.38 1.486-2.27.067-5.278.286-7.983.879-10.894 19.164-8.56 24.323-16.315 6.328-9.512-4.014-22.528-14.689-18.902"/>
    <path fill="#D67086" d="M260.328 200.063l-157.465 12.788c-.607.049-1.054.615-1 1.264l9.881 117.288c.055.649.591 1.136 1.197 1.086l35.592-2.89 27.261 31.665c.797.925 2.334.314 2.25-.895l-2.274-32.982 61.56-4.999c18.874-1.533 32.796-19.144 31.095-39.337l-6.9-81.902c-.054-.649-.591-1.135-1.197-1.086"/>
    <path fill="#FFE" d="M242.792 225.234l-98.084 7.965-.338-4.012 98.085-7.966.337 4.013M245.37 255.83l-116.987 9.501-.338-4.013 116.987-9.501.338 4.013M247.948 286.426l-116.987 9.501-.338-4.012 116.986-9.501.339 4.012"/>
    <path fill="#3B3387" d="M577.792 240.312c0-33.969 39.012-61.507 87.135-61.507 48.124 0 87.135 27.538 87.135 61.507 0 33.97-39.011 61.507-87.135 61.507-1.912 0-3.81-.046-5.692-.132a1.33 1.33 0 0 0-1.367 1.57l6.943 37.868c.242 1.32-1.402 2.128-2.3 1.13l-45.338-50.376a1.35 1.35 0 0 0-.424-.314c-23.479-11.019-38.957-29.858-38.957-51.253"/>
    <path fill="#ECE9DE" d="M701.995 247.838c-5.025 0-5.034-7.81 0-7.81 5.026 0 5.034 7.81 0 7.81m-35.146 0c-5.026 0-5.035-7.81 0-7.81 5.025 0 5.033 7.81 0 7.81m-43.934 0c-5.026 0-5.034-7.81 0-7.81 5.025 0 5.033 7.81 0 7.81"/>
    <path fill="#EFBFA5" d="M141.03 331.323l3.303-11.575 5.008 1.195-.506 8.428 2.631-.535-4.032 9.561-5.374-.54-1.03-6.534"/>
    <path fill="currentColor" d="M185.212 419.216l-36.613-29.572 1.286-54.026-10.719-.527-15.655 63.45 36.662 46.252 25.039-25.577"/>
    <path fill="#353A85" d="M654.926 405.519l23.862-25.779-5.622-69.865 10.485-4.605 14.263 70.871-4.365 17.663-26.751 36.904-11.872-25.189"/>
    <path fill="#B97262" d="M683.651 305.27v-16.018l-7.327-4.28-3.524 6.498v6.522l-3.803 1.565 4.169 10.318 10.485-4.605"/>
    <path fill="currentColor" d="M430.957 154.211l127.543-.245c11.806-.023 21.395 9.53 21.417 21.335l.158 82.214c.023 11.757-9.455 21.326-21.212 21.416l-20.496.157-23.304 32.83c-.681.958-2.191.491-2.21-.685l-.541-32.094-81.166-.035c-11.786-.005-21.344-9.549-21.367-21.335l-.157-82.141c-.023-11.806 9.529-21.395 21.335-21.417"/>
    <path fill="#FFFFEF" d="M434.162 183.186l101.89.026.001-4.245-101.89-.026-.001 4.245M434.154 215.557l121.525.031.001-4.245-121.525-.031-.001 4.245M434.146 247.929l121.524.03.001-4.245-121.525-.031v4.246"/>
    <path fill="#EED5D5" d="M428.412 265.029c-.268-16.27-13.586-29.258-29.817-29.173.013-.511.022-1.024.014-1.541-.328-19.872-16.703-35.716-36.575-35.388-10.813.178-20.426 5.114-26.897 12.773-6.214-6.852-15.229-11.099-25.204-10.935-17.753.293-32.026 14.435-32.703 31.963a30.116 30.116 0 0 0-2.275-.059c-16.384.27-29.447 13.771-29.177 30.155.218 13.18 9 24.204 20.954 27.874a28.611 28.611 0 0 0-2.119 11.32c.262 15.856 13.327 28.496 29.182 28.234a28.778 28.778 0 0 0 3.585-.285l.506 30.709c.042 1.331 1.76 1.835 2.232 1.149l19.014-27.629a28.543 28.543 0 0 0 15.918 4.513c10.624-.175 19.798-6.104 24.621-14.763a31.9 31.9 0 0 0 17.068 4.595c17.706-.292 31.822-14.882 31.53-32.587a32.578 32.578 0 0 0-.128-2.287c11.958-3.987 20.49-15.365 20.271-28.638"/>
    <path fill="#D67086" d="M371.915 269.108c-4.381.073-4.276 6.881.112 6.809 4.381-.072 4.276-6.881-.112-6.809m-30.638.506c-4.381.072-4.277 6.881.112 6.808 4.381-.072 4.276-6.88-.112-6.808m-38.298.632c-4.381.072-4.276 6.88.112 6.808 4.381-.072 4.276-6.881-.112-6.808"/>
    <path fill="#B97262" d="M398.788 322.068l-6.63-10.046-4.417 2.646 3.016 7.885-2.67.282 6.721 7.906 4.963-2.131-.983-6.542"/>
    <path fill="#333" d="M377.113 411.998l31.992-32.032-17.47-51.139 10.064-3.725 34.009 55.806-43.825 54.32-14.77-23.23"/>
  </g>
</svg>
