
<svg width="180" height="21" viewBox="0 0 180 21" fill="none" xmlns="http://www.w3.org/2000/svg">
    <path fill-rule="evenodd" clip-rule="evenodd" d="M14.5621 5.29933C10.7561 5.29933 7.87674 7.37783 7.87674 10.2875C7.87674 13.197 10.7561 15.2751 14.5621 15.2751C17.1766 15.2751 19.3609 14.3055 20.453 12.7535H28.6938C27.1712 17.0488 21.6444 20.2631 14.5621 20.2631C6.1555 20.2631 0 15.7463 0 10.2875C0 4.82835 6.1555 0.311523 14.5621 0.311523C21.6777 0.311523 27.1712 3.55352 28.6938 7.84881H20.4861C19.394 6.26935 17.2099 5.29933 14.5621 5.29933ZM79.706 1.2616H84.854L93.2549 19.5506H85.2525L83.4841 15.6711H73.1382L71.3698 19.5506H63.4983L71.9011 1.2616H79.706ZM75.4541 10.5248H81.2991L78.3765 4.11183L75.4541 10.5248ZM52.4461 7.99549V1.2616H60.3101V19.5506H52.4461V12.9001H40.5431V19.5506H32.6791V1.2616H40.5431V7.99549H52.4461ZM110.09 1.2616C117.046 1.2616 121.949 4.36547 121.949 8.21722C121.949 12.069 117.046 15.1723 110.09 15.1723H104.559V19.5506H96.7088V1.2616H110.09ZM110.018 10.0498C112.602 10.0498 113.978 9.14931 113.978 8.03089C113.978 6.91209 112.602 6.01198 110.018 6.01198H104.414V10.0498H110.018ZM161.671 6.49954C161.671 9.41329 179.868 6.00037 179.868 13.9365C179.868 17.4052 174.276 20.2631 166.733 20.2631C159.189 20.2631 153.565 17.2109 153.565 13.7423L161.407 13.7701C161.407 14.519 163.524 15.4627 166.799 15.4627C170.075 15.4627 172.027 14.8244 172.027 14.0753C172.027 11.1336 153.796 14.8244 153.796 6.63859C153.796 3.16981 159.223 0.311523 166.766 0.311523C174.343 0.311523 179.702 3.28055 179.702 6.74932H171.828C171.828 6.00037 169.975 5.11219 166.7 5.11219C163.424 5.11219 161.671 5.75059 161.671 6.49954ZM139.05 1.2616C146.006 1.2616 150.908 4.36547 150.908 8.21722C150.908 12.069 146.006 15.1723 139.05 15.1723H133.519V19.5506H125.668V1.2616H139.05ZM138.978 10.0498C141.562 10.0498 142.938 9.14931 142.938 8.03089C142.938 6.91209 141.562 6.01198 138.978 6.01198H133.373V10.0498H138.978Z" fill="white"/>
</svg>