<svg xmlns="http://www.w3.org/2000/svg" xmlns:xlink="http://www.w3.org/1999/xlink" width="600" height="300" viewBox="0 0 600 300">
  <defs>
    <polygon id="mt-logo-a" points=".458 .281 600 .281 600 299.078 .458 299.078"/>
  </defs>
  <g fill="none" fill-rule="evenodd">
    <mask id="mt-logo-b" fill="#fff">
      <use xlink:href="#mt-logo-a"/>
    </mask>
    <g stroke="#000" mask="url(#mt-logo-b)">
      <path fill="#000" fill-rule="nonzero" stroke-width=".12" d="M600,0.398 L0.545584726,0.398 L600,299.078 L600,0.398 Z M0.545584726,0.398 L600,299.078 L0.545584726,299.078 L0.545584726,0.398 Z"/>
      <polyline stroke-linecap="round" stroke-linejoin="round" stroke-width=".72" points=".546 .398 600 .398 600 299.078 .546 299.078 .546 .398"/>
    </g>
    <path fill="#FAFAFA" fill-rule="nonzero" stroke="#FAFAFA" stroke-linecap="round" stroke-width=".12" d="M114.043675,253.96 L114.043675,246.64 L43.3317422,253.96 L114.043675,253.96 Z M114.043675,246.64 L43.3317422,253.96 L43.3317422,246.64 L114.043675,246.64 Z M32.848926,239.32 L38.0899761,239.32 L33.0221957,241.84 L32.848926,239.32 Z M38.0899761,239.32 L33.0221957,241.84 L38.177327,240.52 L38.0899761,239.32 Z M33.0221957,241.84 L38.177327,240.52 L33.5369928,244.36 L33.0221957,241.84 Z M38.177327,240.52 L33.5369928,244.36 L38.4343675,241.84 L38.177327,240.52 Z M33.5369928,244.36 L38.4343675,241.84 L34.3116945,246.64 L33.5369928,244.36 Z M38.4343675,241.84 L34.3116945,246.64 L38.778043,242.922 L38.4343675,241.84 Z M34.3116945,246.64 L38.778043,242.922 L35.3412888,248.68 L34.3116945,246.64 Z M38.778043,242.922 L35.3412888,248.68 L39.3794749,244 L38.778043,242.922 Z M35.3412888,248.68 L39.3794749,244 L36.6300716,250.48 L35.3412888,248.68 Z M39.3794749,244 L36.6300716,250.48 L39.9809069,244.96 L39.3794749,244 Z M36.6300716,250.48 L39.9809069,244.96 L38.0906921,251.922 L36.6300716,250.48 Z M39.9809069,244.96 L38.0906921,251.922 L40.7556086,245.68 L39.9809069,244.96 Z M38.0906921,251.922 L40.7556086,245.68 L39.8105012,253 L38.0906921,251.922 Z M40.7556086,245.68 L39.8105012,253 L41.5274463,246.16 L40.7556086,245.68 Z M39.8105012,253 L41.5274463,246.16 L41.5274463,253.719 L39.8105012,253 Z M41.5274463,246.16 L41.5274463,253.719 L42.4725537,246.519 L41.5274463,246.16 Z M41.5274463,253.719 L42.4725537,246.519 L43.3317422,253.961 L41.5274463,253.719 Z M42.4725537,246.519 L43.3317422,253.961 L43.3317422,246.641 L42.4725537,246.519 Z M32.848926,239.32 L38.0899761,239.32 L32.848926,60.16 L32.848926,239.32 Z M38.0899761,239.32 L32.848926,60.16 L38.0899761,60.16 L38.0899761,239.32 Z"/>
    <path fill="#FAFAFA" fill-rule="nonzero" stroke="#FAFAFA" stroke-linecap="round" stroke-width=".12" d="M43.3317422 45.52L43.3317422 52.84 41.5274463 45.762 43.3317422 45.52zM43.3317422 52.84L41.5274463 45.762 42.4725537 52.961 43.3317422 52.84zM41.5274463 45.762L42.4725537 52.961 39.8105012 46.481 41.5274463 45.762zM42.4725537 52.961L39.8105012 46.481 41.5274463 53.32 42.4725537 52.961zM39.8105012 46.481L41.5274463 53.32 38.0906921 47.558 39.8105012 46.481zM41.5274463 53.32L38.0906921 47.558 40.7556086 53.8 41.5274463 53.32zM38.0906921 47.558L40.7556086 53.8 36.6300716 49 38.0906921 47.558zM40.7556086 53.8L36.6300716 49 39.9809069 54.52 40.7556086 53.8zM36.6300716 49L39.9809069 54.52 35.3412888 50.8 36.6300716 49zM39.9809069 54.52L35.3412888 50.8 39.3794749 55.48 39.9809069 54.52zM35.3412888 50.8L39.3794749 55.48 34.3116945 52.84 35.3412888 50.8zM39.3794749 55.48L34.3116945 52.84 38.778043 56.559 39.3794749 55.48zM34.3116945 52.84L38.778043 56.559 33.5369928 55.121 34.3116945 52.84zM38.778043 56.559L33.5369928 55.121 38.4343675 57.641 38.778043 56.559zM33.5369928 55.121L38.4343675 57.641 33.0214797 57.641 33.5369928 55.121zM38.4343675 57.641L33.0214797 57.641 38.176611 58.961 38.4343675 57.641zM33.0221957 57.641L38.177327 58.961 32.848926 60.161 33.0221957 57.641zM38.177327 58.961L32.848926 60.161 38.0899761 60.161 38.177327 58.961zM43.3317422 45.52L43.3317422 52.84 114.043675 45.52 43.3317422 45.52zM43.3317422 52.84L114.043675 45.52 114.043675 52.84 43.3317422 52.84zM486.501193 246.64L486.501193 253.96 557.210979 246.64 486.501193 246.64zM486.501193 253.96L557.210979 246.64 557.210979 253.96 486.501193 253.96zM557.210979 253.96L557.210979 246.64 559.018138 253.719 557.210979 253.96zM557.210979 246.64L559.018138 253.719 558.073031 246.519 557.210979 246.64zM559.018138 253.719L558.073031 246.519 560.735084 253 559.018138 253.719zM558.073031 246.519L560.735084 253 559.018138 246.16 558.073031 246.519zM560.735084 253L559.018138 246.16 562.452745 251.922 560.735084 253zM559.018138 246.16L562.452745 251.922 559.78926 245.68 559.018138 246.16zM562.452745 251.922L559.78926 245.68 563.915513 250.48 562.452745 251.922zM559.78926 245.68L563.915513 250.48 560.564678 244.96 559.78926 245.68zM563.915513 250.48L560.564678 244.96 565.201432 248.68 563.915513 250.48zM560.564678 244.96L565.201432 248.68 561.16611 244 560.564678 244.96zM565.201432 248.68L561.16611 244 566.23389 246.64 565.201432 248.68zM561.16611 244L566.23389 246.64 561.767542 242.922 561.16611 244zM566.23389 246.64L561.767542 242.922 567.008592 244.359 566.23389 246.64zM561.767542 242.922L567.008592 244.359 562.108353 241.839 561.767542 242.922zM567.008592 244.359L562.108353 241.839 567.523389 241.839 567.008592 244.359zM562.108353 241.839L567.523389 241.839 562.368258 240.519 562.108353 241.839zM567.523389 241.839L562.368258 240.519 567.693795 239.32 567.523389 241.839zM562.368258 240.519L567.693795 239.32 562.452745 239.32 562.368258 240.519zM562.452745 239.32L567.693795 239.32 562.452745 60.16 562.452745 239.32zM567.693795 239.32L562.452745 60.16 567.693795 60.16 567.693795 239.32zM567.693795 60.16L562.452745 60.16 567.523389 57.64 567.693795 60.16zM562.452745 60.16L567.523389 57.64 562.368258 58.96 562.452745 60.16zM567.523389 57.64L562.368258 58.96 567.007876 55.121 567.523389 57.64zM562.368258 58.96L567.007876 55.121 562.108353 57.641 562.368258 58.96zM567.007876 55.121L562.108353 57.641 566.23389 52.84 567.007876 55.121zM562.108353 57.641L566.23389 52.84 561.767542 56.559 562.108353 57.641zM566.23389 52.84L561.767542 56.559 565.201432 50.801 566.23389 52.84zM561.767542 56.559L565.201432 50.801 561.16611 55.481 561.767542 56.559zM565.201432 50.801L561.16611 55.481 563.915513 49 565.201432 50.801zM561.16611 55.481L563.915513 49 560.564678 54.52 561.16611 55.481zM563.915513 49L560.564678 54.52 562.452745 47.559 563.915513 49zM560.564678 54.52L562.452745 47.559 559.78926 53.801 560.564678 54.52zM562.452745 47.559L559.78926 53.801 560.735084 46.481 562.452745 47.559zM559.78926 53.801L560.735084 46.481 559.018138 53.321 559.78926 53.801zM560.735084 46.481L559.018138 53.321 559.018138 45.761 560.735084 46.481zM559.018138 53.321L559.018138 45.761 558.073031 52.961 559.018138 53.321zM559.018138 45.761L558.073031 52.961 557.210979 45.52 559.018138 45.761zM558.073031 52.961L557.210979 45.52 557.210979 52.84 558.073031 52.961zM557.210979 52.84L557.210979 45.52 486.501193 52.84 557.210979 52.84zM557.210979 45.52L486.501193 52.84 486.501193 45.52 557.210979 45.52z"/>
    <path fill="#FAFAFA" fill-rule="nonzero" d="M273.077327,100.719 L277.202864,100.719 L280.724105,101.079 L283.476372,101.679 L285.537709,102.399 L286.997613,103.359 L287.684964,104.559 L287.772315,105.281 L287.772315,187.481 L287.42864,188.801 L286.396181,189.879 L284.763007,190.719 L282.357279,191.32 L279.2642,191.8 L275.485919,192.04 L273.077327,192.04 L268.95537,191.922 L265.431265,191.68 L262.681862,191.078 L260.620525,190.359 L259.159905,189.399 L258.472554,188.199 L258.385919,187.48 L258.385919,120.281 L198.329356,148.121 L195.494033,149.321 L192.486874,150.161 L189.306444,150.641 L185.955609,150.879 L184.753461,150.879 L181.23222,150.762 L177.965871,150.398 L174.958711,149.68 L172.038902,148.602 L170.920525,148.122 L111.121002,120.282 L111.121002,187.48 L110.777327,188.8 L109.747733,189.879 L108.027924,190.719 L105.622196,191.32 L102.529117,191.8 L98.7508353,192.04 L96.3429594,192.04 L92.2202864,191.922 L88.7828162,191.68 L85.947494,191.078 L83.8854415,190.359 L82.5093079,189.399 L81.7374702,188.199 L81.6515513,187.48 L81.6515513,105.281 L81.9952267,103.961 L83.026253,102.879 L84.7446301,102.039 L87.149642,101.32 L90.2427208,100.96 L94.0238663,100.719 L96.3429594,100.719 L100.21074,100.839 L103.647494,101.199 L106.654654,101.922 L109.317422,103 L184.754177,138.04 L260.620525,102.64 L263.112172,101.8 L266.205251,101.078 L269.813842,100.718 L273.077327,100.719 Z M346.709785,105.281 L347.053461,103.961 L348.085919,102.879 L349.80358,102.039 L352.211456,101.32 L355.301671,100.96 L359.083532,100.719 L512.878282,100.719 L516.315752,101.079 L519.065155,101.679 L521.213126,102.399 L522.586396,103.359 L523.361098,104.559 L523.444869,105.281 L523.104057,106.481 L522.071599,107.559 L520.354654,108.519 L517.946062,109.121 L514.852983,109.601 L511.074702,109.719 L508.668974,109.839 L449.812411,109.839 L449.812411,187.48 L449.471599,188.8 L448.439141,189.879 L446.722196,190.719 L444.31432,191.32 L441.221241,191.8 L437.442243,192.04 L435.036516,192.04 L430.911695,191.922 L427.47494,191.68 L424.638186,191.078 L422.57685,190.359 L421.20358,189.399 L420.428878,188.199 L420.342959,187.48 L420.342959,109.84 L361.404773,109.84 L357.279236,109.719 L353.842482,109.359 L351.005728,108.879 L348.944391,108.16 L347.571122,107.2 L346.79642,106 L346.709785,105.281 Z"/>
  </g>
</svg>
