<svg width="180" height="100" version="1.1" xmlns="http://www.w3.org/2000/svg" xmlns:xlink="http://www.w3.org/1999/xlink" x="0px" y="0px"
	 viewBox="0 0 1124.8154297 346" style="enable-background:new 0 0 1124.8154297 346;" xml:space="preserve">
<style type="text/css">
	.st0{fill:#00B3E3;}
	.st1{fill:#FFFFFF;}
</style>
<g id="N">
</g>
<g id="E">
</g>
<g id="T">
</g>
<g id="P">
</g>
<g id="E_1_">
</g>
<g id="K">
</g>
<g id="контур_пирамидки">
</g>
<g id="верхняя_часть_пирамидки">
</g>
<g id="нижняя_часть_пирамидки">
</g>
<g id="нижний_текст">
	<g>
		<path class="st1" d="M87.2246399,71.4396439l67.9120941,90.1103897V71.4396439h24.456192v131.6856384h-23.8920593
			l-67.7231369-89.9221191v89.9221191H63.3339539V71.4396439H87.2246399z"/>
		<path class="st1" d="M319.7370911,71.4396439v22.010704h-71.2982483v32.5450287h63.961792v22.010025h-63.961792v33.109848
			h73.5561523v22.010025h-98.7640533V71.4396439H319.7370911z"/>
		<path class="st1" d="M459.1295471,71.4396439v22.3865585h-41.010437v109.2990723h-25.3968506V93.8262024h-41.010437V71.4396439
			H459.1295471z"/>
		<path class="st1" d="M594.3841553,116.7769012c0,30.0995483-19.0010986,47.5951538-52.1096191,47.5951538h-28.78302v38.7532196
			h-25.2078857V71.4396439h53.9909058C575.3830566,71.4396439,594.3841553,87.8062973,594.3841553,116.7769012z
			 M570.4920654,117.5299835c0-16.1790619-10.7225952-24.0796356-29.534729-24.0796356h-27.4658203v48.7234192h27.4658203
			C559.7694702,142.1737671,570.4920654,134.0842285,570.4920654,117.5299835z"/>
		<path class="st1" d="M728.6953125,71.4396439v22.010704h-71.2982788v32.5450287h63.961792v22.010025h-63.961792v33.109848
			h73.5561523v22.010025h-98.7640381V71.4396439H728.6953125z"/>
		<path class="st1" d="M1031.932251,203.1252747l-41.010376-56.4364166l-21.0700684,23.3265533v33.1098633h-25.2078857V71.4396439
			h25.2078857v64.3376694l59.6350098-64.3376694h29.347168l-50.2296143,55.6839981l53.8033447,76.0016327H1031.932251z"/>
		<g>
			<path class="st1" d="M837.069458,71.778801l37.9367676,75.857399l27.7150879,55.4185944H771.418457L799.1326904,147.6362
				L837.069458,71.778801 M837.069458,43.3473969l-11.3739624,22.7432098l-37.9367065,75.8573761l-27.7144775,55.4187622
				l-9.2041626,18.4051208h20.5783081h131.3028564h20.5784912l-9.2045288-18.4052887l-27.7150879-55.4185944l-37.9367676-75.8573761
				L837.069458,43.3473969L837.069458,43.3473969z"/>
		</g>
		<polygon class="st1" points="855.5059204,138.651062 837.069458,101.7910385 818.6363525,138.651062 		"/>
		<polygon class="st1" points="862.399292,152.4386444 811.7404785,152.4386444 793.2362061,189.4402618 880.9035645,189.4402618 		
			"/>
		<g>
			<path class="st1" d="M81.9502869,258.6921692h7.1032486v31.7532349h-7.1032486v-21.188446l-12.4428101,21.188446H62.407692
				v-31.7532349h7.0997849v21.1884766L81.9502869,258.6921692z"/>
			<path class="st1" d="M125.5157166,290.4454041h-7.1309662V277.62146h-12.3527222v12.8239441H98.901062v-31.7532349h7.1309662
				v13.2362976h12.3527222v-13.2362976h7.1309662V290.4454041z"/>
			<path class="st1" d="M160.0756073,264.3574219h-10.3014374v26.0879822h-7.1309662v-26.0879822h-10.1836243v-5.6652527h27.6160278
				V264.3574219z"/>
			<path class="st1" d="M178.9009552,291.0310059c-2.3492737,0-4.4594574-0.3915405-6.3374786-1.1711731
				c-1.8780365-0.7830811-3.4754028-1.8607178-4.7851715-3.2293701c-1.3097687-1.3686829-2.3180847-2.9937744-3.0214844-4.8717957
				c-0.7033844-1.8780212-1.0568237-3.9015808-1.0568237-6.0741577v-1.1746216c0-2.5017395,0.3707581-4.7678528,1.1157379-6.7914124
				c0.7415009-2.0270081,1.7602234-3.749115,3.0526581-5.1662903c1.2889862-1.4172058,2.8101196-2.512146,4.5634003-3.2848206
				c1.7498322-0.7727051,3.6313324-1.1607971,5.6479492-1.1607971c2.3076935,0,4.3139343,0.388092,6.0152435,1.1607971
				c1.7013092,0.7726746,3.1115723,1.8537598,4.2272949,3.2397766c1.1122742,1.3894653,1.9438629,3.0422668,2.491333,4.961853
				c0.5474701,1.9161682,0.8246765,4.0194092,0.8246765,6.3097839v3.0491943h-20.7484131
				c0.0970154,1.2335205,0.3568878,2.3700562,0.7761536,3.4060974c0.4227295,1.0360413,0.9944611,1.9299927,1.7186432,2.6853638
				c0.7241821,0.7518921,1.5800476,1.3444214,2.5675659,1.7740784s2.10672,0.6445007,3.3610535,0.6445007
				c1.7602081,0,3.2882843-0.3499756,4.5911255-1.0568237c1.2993622-0.7033997,2.4289551-1.6701355,3.3887634-2.9036865
				l3.8461456,3.6694336c-0.5093536,0.7622986-1.1399841,1.5003662-1.8953552,2.2141418
				c-0.7519073,0.7138062-1.632019,1.3513489-2.6403198,1.9092102c-1.008316,0.5578613-2.1483002,1.0048523-3.4199677,1.3479004
				C181.9120331,290.8612061,180.4844513,291.0310059,178.9009552,291.0310059z M178.0485687,263.827301
				c-1.9542694,0-3.5343018,0.6860657-4.7366638,2.0547485c-1.2058105,1.3721313-1.9715729,3.2778625-2.3042145,5.7241516
				h13.5862579v-0.5301208c-0.0589142-0.9390259-0.2113647-1.8433838-0.4539185-2.7131042
				c-0.2460175-0.8697205-0.623703-1.642395-1.1295929-2.3180847c-0.5093536-0.6756897-1.1711578-1.212738-1.9819794-1.6146851
				C180.2176514,264.0282593,179.2232056,263.827301,178.0485687,263.827301z"/>
			<path class="st1" d="M226.957016,274.8910217c0,2.3111572-0.2702637,4.4525452-0.8073425,6.4275818
				c-0.5370636,1.9750671-1.3305511,3.6832886-2.3769836,5.1212769c-1.0464325,1.4379578-2.3388824,2.5640869-3.8738708,3.3749084
				c-1.5349884,0.810791-3.291748,1.216217-5.2667999,1.216217c-1.8191223,0-3.4130249-0.2910767-4.7851562-0.880127
				c-1.3686829-0.5855713-2.5606384-1.4379578-3.5793457-2.5536804v15.0554199h-7.1309662v-43.9604492h6.5731049
				l0.2945251,3.2293701c1.0152435-1.233551,2.2245178-2.1760254,3.6243896-2.8309021
				c1.3998566-0.6548767,3.0353241-0.9840698,4.9133606-0.9840698c2.0166321,0,3.7976379,0.391571,5.3430328,1.1746521
				c1.5453796,0.7830811,2.8412933,1.8815002,3.8877258,3.302124c1.0464325,1.4172058,1.83992,3.1184998,2.3769836,5.1039429
				c0.5370789,1.9854736,0.8073425,4.1822815,0.8073425,6.5869751V274.8910217z M219.853775,274.2742615
				c0-1.4275818-0.1420593-2.7650757-0.4227295-4.0194092c-0.2841339-1.2508545-0.7207184-2.3457947-1.3063049-3.2848206
				c-0.5890503-0.9389954-1.3409576-1.6770325-2.2591858-2.2175903c-0.9216766-0.5370789-2.0270233-0.8073425-3.3159943-0.8073425
				c-1.5661774,0-2.8586273,0.3257141-3.8738708,0.9702148c-1.0187073,0.6444702-1.8191223,1.5245972-2.4081726,2.6403198
				v14.0852051c0.5890503,1.1157532,1.3860016,2.0097046,2.3908539,2.6853943
				c1.0083008,0.6756592,2.3250122,1.0117798,3.9500885,1.0117798c1.2889862,0,2.3908539-0.2772217,3.2986755-0.835083
				c0.9113007-0.5578613,1.6597443-1.3097534,2.2453308-2.2591553c0.5890503-0.9494324,1.0187073-2.0582275,1.2924347-3.3298645
				c0.2737427-1.2716675,0.4088745-2.6126099,0.4088745-4.0228882V274.2742615z"/>
			<path class="st1" d="M261.8668823,290.4454041h-7.1309662V277.62146H242.383194v12.8239441h-7.1309662v-31.7532349h7.1309662
				v13.2362976h12.3527222v-13.2362976h7.1309662V290.4454041z"/>
			<path class="st1" d="M285.4184875,291.0310059c-2.3492737,0-4.4594727-0.3915405-6.3374939-1.1711731
				c-1.8780212-0.7830811-3.4753723-1.8607178-4.7851562-3.2293701c-1.3097839-1.3686829-2.3180847-2.9937744-3.0214844-4.8717957
				s-1.0568237-3.9015808-1.0568237-6.0741577v-1.1746216c0-2.5017395,0.3707581-4.7678528,1.1157227-6.7914124
				c0.7415161-2.0270081,1.7602234-3.749115,3.0526733-5.1662903c1.2889709-1.4172058,2.8101196-2.512146,4.5634155-3.2848206
				c1.7498169-0.7727051,3.6313171-1.1607971,5.6479492-1.1607971c2.3076782,0,4.3139038,0.388092,6.0152283,1.1607971
				c1.7013245,0.7726746,3.1115723,1.8537598,4.2272949,3.2397766c1.1122742,1.3894653,1.9438782,3.0422668,2.491333,4.961853
				c0.5474854,1.9161682,0.8246765,4.0194092,0.8246765,6.3097839v3.0491943h-20.7484131
				c0.0970154,1.2335205,0.3569031,2.3700562,0.7761536,3.4060974c0.4227295,1.0360413,0.9944458,1.9299927,1.7186279,2.6853638
				c0.7242126,0.7518921,1.5800476,1.3444214,2.5675659,1.7740784c0.9875488,0.429657,2.10672,0.6445007,3.3610535,0.6445007
				c1.7602234,0,3.2882996-0.3499756,4.5911255-1.0568237c1.2993774-0.7033997,2.4289551-1.6701355,3.3887634-2.9036865
				l3.8461609,3.6694336c-0.5093689,0.7622986-1.1399841,1.5003662-1.8953552,2.2141418
				c-0.7518921,0.7138062-1.632019,1.3513489-2.6403198,1.9092102c-1.0083313,0.5578613-2.1483154,1.0048523-3.4199524,1.3479004
				C288.4295654,290.8612061,287.0019836,291.0310059,285.4184875,291.0310059z M284.5661011,263.827301
				c-1.9542542,0-3.5343018,0.6860657-4.7366638,2.0547485c-1.2058105,1.3721313-1.9715881,3.2778625-2.3042297,5.7241516
				h13.5862732v-0.5301208c-0.0588989-0.9390259-0.2113647-1.8433838-0.4539185-2.7131042
				c-0.2460022-0.8697205-0.6236877-1.642395-1.1295776-2.3180847c-0.5093689-0.6756897-1.1711731-1.212738-1.9819946-1.6146851
				S285.7407227,263.827301,284.5661011,263.827301z"/>
			<path class="st1" d="M330.3352661,264.3574219h-10.3014526v26.0879822h-7.1309509v-26.0879822h-10.1836548v-5.6652527h27.6160583
				V264.3574219z"/>
			<path class="st1" d="M350.8965759,277.5694885h-15.408844v-5.7519226h15.408844V277.5694885z"/>
			<path class="st1" d="M377.6151733,281.6720276l9.3901367-22.9798584h8.9223938v31.7532349h-7.1309814v-21.0117493
				l-8.7456665,21.0117493h-4.8440552l-8.7733765-21.1295471v21.1295471h-7.1309814v-31.7532349h8.9812927L377.6151733,281.6720276z
				"/>
			<path class="st1" d="M424.8812256,290.4454041c-0.1975098-0.3707581-0.3569031-0.810791-0.4851074-1.3201599
				c-0.1282043-0.5093384-0.2390747-1.0568237-0.3360901-1.642395c-0.4712524,0.4885559-0.9944763,0.9494019-1.5731201,1.3790588
				c-0.5751953,0.429657-1.212738,0.8073425-1.9057617,1.1295776c-0.6929932,0.3222656-1.4483643,0.5751953-2.2591553,0.7622986
				c-0.8108215,0.1871338-1.677063,0.2772217-2.5987549,0.2772217c-1.5834961,0-3.0422668-0.2391052-4.3728333-0.7172546
				c-1.3305664-0.4781799-2.4670715-1.1434631-3.4165039-1.9958496c-0.9494019-0.8523865-1.6943665-1.8537598-2.2314453-3.0076294
				c-0.5370789-1.1538391-0.8073425-2.4081726-0.8073425-3.7560425c0-1.7013245,0.3222351-3.2085876,0.9701843-4.5183716
				c0.6445007-1.3132324,1.5835266-2.4081726,2.8170471-3.288269c1.230072-0.880127,2.7442932-1.5488586,4.5322266-2.0097046
				c1.7914124-0.4608459,3.8288269-0.6895447,6.1192017-0.6895447h4.4906311v-2.0824585
				c0-1.645874-0.4608459-2.9591064-1.3790588-3.9501038c-0.9216919-0.9875183-2.3180847-1.4795532-4.1961365-1.4795532
				c-0.84198,0-1.6042786,0.1109009-2.2903442,0.3361206c-0.6860962,0.2252197-1.2681885,0.5301514-1.7463684,0.9112854
				c-0.4781799,0.3811646-0.848938,0.8350525-1.1157227,1.3652039c-0.2633362,0.5266724-0.3950195,1.0949402-0.3950195,1.7013245
				h-7.1309814c0-1.2543335,0.3084106-2.460144,0.9251709-3.6243896s1.4899597-2.2002869,2.6264648-3.1115723
				c1.1330566-0.9078369,2.508667-1.6389465,4.1233521-2.1864014c1.6146851-0.5474854,3.4164734-0.821228,5.412323-0.821228
				c1.7810059,0,3.4234314,0.2286987,4.9306946,0.6895447s2.8066406,1.1434631,3.9015808,2.0547485
				c1.0984192,0.9078369,1.9473267,2.044342,2.5537109,3.4026184c0.6063843,1.3617554,0.9112854,2.9487305,0.9112854,4.7713013
				v14.0852356c0,2.8551636,0.401947,5.1351318,1.2023621,6.8364258v0.4989624H424.8812256z M417.043396,285.3102722
				c0.8246765,0,1.5904236-0.1073914,2.3042297-0.3222351c0.7137756-0.2148132,1.3617249-0.4989624,1.9369202-0.8523865
				c0.5786743-0.3534241,1.0810852-0.7588501,1.5107422-1.216217c0.433136-0.4608459,0.7727051-0.9251404,1.0291138-1.3963928
				v-5.9840393h-3.8461609c-2.6403198,0-4.6257629,0.4573669-5.9563293,1.3790588
				c-1.3305664,0.9182129-1.9958496,2.2210693-1.9958496,3.9015808c0,0.6445007,0.1074219,1.243927,0.3222656,1.7914124
				c0.2148132,0.5474548,0.5405273,1.0221863,0.9701843,1.4206543c0.429657,0.401947,0.9528809,0.7172546,1.5696411,0.9389954
				C415.5049438,285.1959534,416.2221985,285.3102722,417.043396,285.3102722z"/>
			<path class="st1" d="M468.2110291,274.8910217c0,2.3111572-0.2702637,4.4525452-0.8073425,6.4275818
				c-0.5370789,1.9750671-1.3305664,3.6832886-2.3769836,5.1212769c-1.0464478,1.4379578-2.3388672,2.5640869-3.8738708,3.3749084
				c-1.5350037,0.810791-3.291748,1.216217-5.2667847,1.216217c-1.8191528,0-3.4130249-0.2910767-4.7851868-0.880127
				c-1.3686523-0.5855713-2.5606384-1.4379578-3.5793457-2.5536804v15.0554199h-7.1309509v-43.9604492h6.5730896
				l0.2945251,3.2293701c1.0152588-1.233551,2.2245483-2.1760254,3.6243896-2.8309021
				c1.3998718-0.6548767,3.0353394-0.9840698,4.9133606-0.9840698c2.0166321,0,3.7976379,0.391571,5.3430481,1.1746521
				c1.5453796,0.7830811,2.8412781,1.8815002,3.8877258,3.302124c1.0464172,1.4172058,1.8399048,3.1184998,2.3769836,5.1039429
				c0.5370789,1.9854736,0.8073425,4.1822815,0.8073425,6.5869751V274.8910217z M461.1077881,274.2742615
				c0-1.4275818-0.1420593-2.7650757-0.4227295-4.0194092c-0.2841187-1.2508545-0.7207336-2.3457947-1.3063049-3.2848206
				c-0.5890503-0.9389954-1.3409424-1.6770325-2.2591858-2.2175903c-0.9216919-0.5370789-2.0270081-0.8073425-3.3160095-0.8073425
				c-1.5661621,0-2.8586121,0.3257141-3.8738708,0.9702148c-1.0187073,0.6444702-1.8191223,1.5245972-2.4081726,2.6403198
				v14.0852051c0.5890503,1.1157532,1.3860168,2.0097046,2.3908691,2.6853943
				c1.0083008,0.6756592,2.3250122,1.0117798,3.9501038,1.0117798c1.2889709,0,2.3908386-0.2772217,3.2986755-0.835083
				c0.9112854-0.5578613,1.659729-1.3097534,2.2453003-2.2591553c0.5890503-0.9494324,1.0187073-2.0582275,1.29245-3.3298645
				c0.2737427-1.2716675,0.4088745-2.6126099,0.4088745-4.0228882V274.2742615z"/>
			<path class="st1" d="M487.5075989,277.8847961h-3.6105042v12.5606079h-7.1309814v-31.7532349h7.1309814v12.6784363h3.1392822
				l8.776825-12.6784363h8.8011169l-11.4726257,15.2009583l12.4428101,16.5522766h-9.2723389L487.5075989,277.8847961z"/>
			<path class="st1" d="M524.9989014,291.0310059c-2.3492432,0-4.4594727-0.3915405-6.3374634-1.1711731
				c-1.8780518-0.7830811-3.4754028-1.8607178-4.7851562-3.2293701c-1.3098145-1.3686829-2.3181152-2.9937744-3.0215149-4.8717957
				s-1.0568237-3.9015808-1.0568237-6.0741577v-1.1746216c0-2.5017395,0.3707581-4.7678528,1.1157227-6.7914124
				c0.7415161-2.0270081,1.7602234-3.749115,3.0527039-5.1662903c1.2889404-1.4172058,2.8100586-2.512146,4.5633545-3.2848206
				c1.7498779-0.7727051,3.6313477-1.1607971,5.6479492-1.1607971c2.3077393,0,4.3139648,0.388092,6.0152588,1.1607971
				c1.7012939,0.7726746,3.1115723,1.8537598,4.2272949,3.2397766c1.1122437,1.3894653,1.9438477,3.0422668,2.491333,4.961853
				c0.5474854,1.9161682,0.824646,4.0194092,0.824646,6.3097839v3.0491943H516.987793
				c0.0970459,1.2335205,0.3569336,2.3700562,0.7761841,3.4060974c0.4227295,1.0360413,0.9944458,1.9299927,1.7186279,2.6853638
				c0.7241821,0.7518921,1.5800781,1.3444214,2.5675659,1.7740784c0.9875488,0.429657,2.1067505,0.6445007,3.361084,0.6445007
				c1.7601929,0,3.288269-0.3499756,4.5911255-1.0568237c1.2993774-0.7033997,2.4289551-1.6701355,3.3887329-2.9036865
				l3.8461914,3.6694336c-0.5093994,0.7622986-1.1400146,1.5003662-1.8953857,2.2141418
				c-0.7518921,0.7138062-1.632019,1.3513489-2.6403198,1.9092102s-2.1483154,1.0048523-3.4199829,1.3479004
				C528.0100098,290.8612061,526.5823975,291.0310059,524.9989014,291.0310059z M524.1464844,263.827301
				c-1.9542236,0-3.5343018,0.6860657-4.7366333,2.0547485c-1.2058105,1.3721313-1.9715576,3.2778625-2.3041992,5.7241516
				h13.5862427v-0.5301208c-0.0588989-0.9390259-0.2113647-1.8433838-0.4539185-2.7131042
				c-0.2460327-0.8697205-0.6237183-1.642395-1.1295776-2.3180847c-0.5093384-0.6756897-1.1712036-1.212738-1.9819946-1.6146851
				S525.321167,263.827301,524.1464844,263.827301z"/>
			<path class="st1" d="M569.9157104,264.3574219h-10.3014526v26.0879822h-7.1309814v-26.0879822h-10.1836548v-5.6652527h27.6160889
				V264.3574219z"/>
			<path class="st1" d="M596.4610596,258.6921692h7.1032104v31.7532349h-7.1032104v-21.188446l-12.4428101,21.188446h-7.0997925
				v-31.7532349h7.0997925v21.1884766L596.4610596,258.6921692z"/>
			<path class="st1" d="M640.0264893,290.4454041h-7.1309814V277.62146h-12.3527222v12.8239441h-7.1309814v-31.7532349h7.1309814
				v13.2362976h12.3527222v-13.2362976h7.1309814V290.4454041z"/>
			<path class="st1" d="M670.7402344,264.4440613h-13.7907104v26.0013428h-7.1032715v-31.7532349h20.8939819V264.4440613z"/>
			<path class="st1" d="M693.8413696,284.7247009c0.821228-0.9009094,1.5384521-1.7948608,2.1552124-2.6853638
				s1.1400146-1.8953552,1.5696411-3.0111084c0.4296875-1.1122437,0.7727051-2.3908386,1.0291138-3.8287964
				c0.2529297-1.4379883,0.4296875-3.1739502,0.5266724-5.2079163l0.3222656-11.2993469h22.0374146v26.0602417h4.4039917v15.1420593
				h-7.1032715v-9.4490662h-20.3637695v9.4490662h-7.2210693l0.031189-15.1697693H693.8413696z M706.2529907,269.9915161
				c-0.1766968,3.4026489-0.6271362,6.3097839-1.3513794,8.7144775c-0.7241821,2.4081726-1.631958,4.4213562-2.7269287,6.0464172
				h12.2072144v-19.9271851h-7.9833984L706.2529907,269.9915161z"/>
			<path class="st1" d="M759.9431763,258.6921692v31.7532349h-7.1309814v-26.0013428h-8.9223633l-0.3222656,7.7789307
				c-0.1386108,3.0110779-0.4123535,5.6583252-0.821228,7.9382935c-0.4122925,2.2765198-1.0602417,4.1788025-1.9507446,5.7068787
				c-0.8905029,1.5245972-2.0651855,2.6715088-3.5239258,3.4338074c-1.4553223,0.7622986-3.2987061,1.1434326-5.5301514,1.1434326
				h-1.5245972l0.02771-6.0152283h1.0568237c1.0360718,0,1.8710938-0.2252197,2.508667-0.6756897
				c0.6340942-0.4504395,1.1295776-1.1642151,1.4830322-2.1413574c0.3499756-0.9771118,0.6063843-2.2418518,0.7622681-3.7872314
				c0.1559448-1.5454102,0.2841797-3.4130249,0.3811646-5.6029053l0.5855713-13.5308228H759.9431763z"/>
			<path class="st1" d="M794.9396362,258.6921692v31.7532349h-7.1032715v-11.6493225h-6.659729l-6.7775269,11.6493225h-7.3977661
				l7.484436-12.8239441c-1.9577637-0.8211975-3.4580688-1.9958496-4.5045166-3.5204468
				c-1.0464478-1.5280762-1.5696411-3.2778931-1.5696411-5.2529297c0-1.4691772,0.2944946-2.8170471,0.8800659-4.0505981
				c0.5856323-1.2335205,1.4276123-2.3042297,2.522522-3.2120361c1.0949707-0.9113159,2.4428711-1.6216431,4.0367432-2.127533
				c1.5939331-0.5093384,3.3991699-0.7657471,5.4123535-0.7657471H794.9396362z M775.5426025,269.0247803
				c0,0.5474854,0.1004639,1.0880127,0.3083496,1.6285706c0.2044678,0.5370789,0.5266724,1.0152283,0.9667358,1.4379578
				c0.4400635,0.419281,0.9944458,0.7622986,1.659729,1.0256348s1.4656982,0.3950195,2.4047241,0.3950195h6.9542236v-9.154541
				h-6.5730591c-0.9979248,0-1.8572388,0.1351624-2.5814209,0.4088745
				c-0.7241821,0.2772217-1.3167114,0.6340942-1.7741089,1.0741577c-0.4608154,0.4400635-0.803894,0.9390259-1.0291138,1.4968872
				C775.6534424,267.8917236,775.5426025,268.456543,775.5426025,269.0247803z"/>
			<path class="st1" d="M836.7310181,260.4558411c2.1136475,0,3.9881592,0.3707581,5.6201782,1.1122742
				c1.635498,0.7449646,3.0145874,1.7671509,4.137207,3.0665283c1.1261597,1.3028259,1.9819946,2.8482361,2.5710449,4.6361694
				c0.5855713,1.7913818,0.880127,3.7248535,0.880127,5.796936v0.6167603c0,2.2106934-0.3257446,4.2515564-0.9702148,6.1192017
				c-0.6444702,1.8676147-1.5834961,3.4927063-2.8170166,4.8717957c-1.2335815,1.3790588-2.7546997,2.4532166-4.5634155,3.2258911
				c-1.8087158,0.7727051-3.8773193,1.1607971-6.2058105,1.1607971s-4.3936157-0.405426-6.1919556-1.219696
				c-1.8018188-0.810791-3.326416-1.9265442-4.5772705-3.3437195c-1.2543335-1.4171753-2.2037354-3.1011658-2.8482056-5.0484924
				c-0.6445312-1.9473267-0.9667358-4.0644531-0.9667358-6.3513489v-0.6167603v-0.0901184v-1.5834961
				c0-3.73526,0.3464966-6.9888916,1.0394897-9.7574158c0.6964722-2.7685547,1.673584-5.1109009,2.9348145-7.0270386
				c1.2612915-1.9196014,2.7685547-3.4407349,4.5218506-4.5634003c1.7498169-1.1261292,3.7006226-1.912674,5.852356-2.3631287
				c1.0568237-0.2148285,1.9923706-0.429657,2.8032227-0.6444855c0.810791-0.2148285,1.4968872-0.4816437,2.0547485-0.7934875
				s0.9805908-0.6929932,1.2750854-1.1434479c0.2945557-0.4504547,0.4400635-1.0187073,0.4400635-1.7047882h5.7518921
				c0,1.7810211-0.2529297,3.2397766-0.7622681,4.3728333c-0.5093994,1.1365204-1.2369995,2.0651398-2.1864624,2.7893219
				c-0.9494019,0.7241974-2.0997314,1.2959137-3.4476318,1.7151794c-1.3513794,0.4227295-2.8655396,0.8073425-4.5495605,1.1607819
				c-1.2335205,0.2737274-2.3804321,0.6444855-3.4476929,1.1157227c-1.0671997,0.4677734-2.0200806,1.0949402-2.8620605,1.8780212
				c-0.84198,0.7831116-1.5557861,1.7463684-2.1413574,2.8898315c-0.5856323,1.1434326-1.0256348,2.5086365-1.3201904,4.0921631
				c1.3097534-1.3479004,2.7927856-2.4151306,4.4456177-3.1982117
				C832.8536377,260.8473816,834.6970215,260.4558411,836.7310181,260.4558411z M835.3242188,266.1765747
				c-1.3098145,0-2.4359131,0.2390747-3.374939,0.7172546c-0.9390259,0.4816284-1.708252,1.1260986-2.3041992,1.9369202
				c-0.5960083,0.81427-1.0325928,1.7567444-1.3063354,2.8343811c-0.2737427,1.0741272-0.4088745,2.2106628-0.4088745,3.4026184
				v0.6167603c0,1.3305664,0.1351318,2.5814209,0.4088745,3.756073c0.2737427,1.1746216,0.7103271,2.2002563,1.3063354,3.0803833
				c0.5959473,0.8800964,1.3686523,1.5765686,2.3180542,2.0859375c0.9494019,0.5093384,2.0894165,0.7622986,3.4199829,0.7622986
				c1.3097534,0,2.4393311-0.2529602,3.3887329-0.7622986c0.9494019-0.5093689,1.7221069-1.2058411,2.3181152-2.0859375
				c0.5959473-0.880127,1.0360107-1.9057617,1.3201294-3.0803833c0.2841797-1.1746521,0.4262085-2.4255066,0.4262085-3.756073
				v-0.6167603c0-1.1919556-0.1420288-2.3284912-0.4262085-3.4026184c-0.2841187-1.0776367-0.7241821-2.0201111-1.3201294-2.8343811
				c-0.5960083-0.8108215-1.3687134-1.4552917-2.3181152-1.9369202
				C837.8224487,266.4156494,836.6755371,266.1765747,835.3242188,266.1765747z"/>
			<path class="st1" d="M876.8071899,258.6921692h7.1032104v31.7532349h-7.1032104v-21.188446l-12.4428101,21.188446h-7.0997925
				v-31.7532349h7.0997925v21.1884766L876.8071899,258.6921692z"/>
			<path class="st1" d="M917.527832,267.3789062c0,1.4102783-0.4262085,2.7061768-1.2785645,3.8877258
				c-0.848938,1.1850281-2.0478516,2.127533-3.5932007,2.8343811c1.7810059,0.6236877,3.1358032,1.5557861,4.0643921,2.7858582
				c0.9286499,1.233551,1.3929443,2.7581482,1.3929443,4.5772705c0,1.5072632-0.3187866,2.8516846-0.9528809,4.0367126
				c-0.6375122,1.1850281-1.5314941,2.1864319-2.6853638,3.0076294c-1.1538086,0.8211975-2.5328979,1.4483643-4.137207,1.8780212
				s-3.364502,0.6445007-5.2841187,0.6445007c-1.5834961,0-3.1531372-0.1940613-4.7089233-0.5856018
				s-2.9452515-0.9909668-4.164917-1.8052673c-1.2231445-0.810791-2.2141724-1.8468323-2.9660645-3.1115417
				c-0.7518921-1.261261-1.1295776-2.7616272-1.1295776-4.5045166h7.1032715c0,0.5890503,0.1351318,1.1573181,0.4088135,1.7047729
				c0.2737427,0.5474854,0.6757202,1.0291138,1.2023926,1.4518433c0.5301514,0.419281,1.1711426,0.7588501,1.9230347,1.0117798
				c0.7519531,0.2529602,1.6112671,0.3811646,2.5675659,0.3811646c0.9806519,0,1.8261108-0.1212769,2.539856-0.3673096
				c0.7138062-0.2425537,1.3063354-0.5717163,1.7741089-0.9805908c0.4712524-0.412323,0.817749-0.8835754,1.0429688-1.4102478
				s0.3360596-1.0741577,0.3360596-1.6424255c0-1.5453796-0.4504395-2.6611023-1.3478394-3.347168
				c-0.9009399-0.6826172-2.2904053-1.0256348-4.168396-1.0256348h-5.1074219v-5.1351318h5.1074219
				c0.9182129,0,1.690918-0.0935669,2.3180542-0.2806702c0.6271973-0.1836548,1.1365356-0.4539185,1.5280762-0.8073425
				c0.3880615-0.3499756,0.6722412-0.7657776,0.848938-1.247406c0.1766968-0.4781799,0.2633057-1.0117798,0.2633057-1.5973511
				c0-0.5093689-0.0866089-1.0117798-0.2633057-1.5107422s-0.4677734-0.9390259-0.880127-1.3201904
				c-0.4123535-0.384613-0.9424438-0.6895142-1.6008301-0.9251404c-0.6549072-0.2356262-1.4622192-0.3534241-2.4185791-0.3534241
				c-0.803833,0-1.5419312,0.1039429-2.2175903,0.3083801c-0.6721802,0.2044373-1.2612305,0.4885559-1.7601929,0.8523865
				c-0.4989624,0.3603516-0.8905029,0.7900085-1.1746826,1.2889709c-0.2806396,0.4989624-0.4227295,1.0429688-0.4227295,1.6285706
				h-7.1032104c0-1.4864807,0.3326416-2.8205261,0.9979248-4.0055542c0.6652832-1.1815491,1.5592651-2.1864014,2.6853638-3.0076294
				c1.1260986-0.8211975,2.4462891-1.4518127,3.9605103-1.8918762c1.5176392-0.4400635,3.1254272-0.6618042,4.8267212-0.6618042
				c1.9196167,0,3.6486206,0.2009583,5.1975098,0.6029053c1.5419312,0.401947,2.8551636,0.9875183,3.9293213,1.7602234
				c1.0775757,0.7726746,1.9022827,1.7359619,2.480896,2.889801
				C917.2402344,264.5445557,917.527832,265.8750916,917.527832,267.3789062z"/>
			<path class="st1" d="M953.0510254,290.4454041h-7.1309814V277.62146h-12.3527222v12.8239441h-7.1309814v-31.7532349h7.1309814
				v13.2362976h12.3527222v-13.2362976h7.1309814V290.4454041z"/>
			<path class="st1" d="M976.6060791,291.0310059c-2.3493042,0-4.4594727-0.3915405-6.3375244-1.1711731
				c-1.8779907-0.7830811-3.4753418-1.8607178-4.7851562-3.2293701c-1.3097534-1.3686829-2.3180542-2.9937744-3.0214844-4.8717957
				c-0.7033691-1.8780212-1.0568237-3.9015808-1.0568237-6.0741577v-1.1746216c0-2.5017395,0.3707886-4.7678528,1.1157227-6.7914124
				c0.7415161-2.0270081,1.7602539-3.749115,3.0526733-5.1662903c1.2890015-1.4172058,2.8101196-2.512146,4.5634155-3.2848206
				c1.7498169-0.7727051,3.6313477-1.1607971,5.6479492-1.1607971c2.3076782,0,4.3139038,0.388092,6.0152588,1.1607971
				c1.7012939,0.7726746,3.1115723,1.8537598,4.2272949,3.2397766c1.1122437,1.3894653,1.9438477,3.0422668,2.491333,4.961853
				c0.5474854,1.9161682,0.824646,4.0194092,0.824646,6.3097839v3.0491943h-20.7484131
				c0.0970459,1.2335205,0.3569336,2.3700562,0.7761841,3.4060974c0.4227295,1.0360413,0.9944458,1.9299927,1.7186279,2.6853638
				c0.7241821,0.7518921,1.5800171,1.3444214,2.5675659,1.7740784s2.1066895,0.6445007,3.3610229,0.6445007
				c1.7602539,0,3.2883301-0.3499756,4.5911255-1.0568237c1.2993774-0.7033997,2.4290161-1.6701355,3.3887939-2.9036865
				l3.8461304,3.6694336c-0.5093384,0.7622986-1.1399536,1.5003662-1.8953247,2.2141418
				c-0.7518921,0.7138062-1.632019,1.3513489-2.6403198,1.9092102c-1.0083618,0.5578613-2.1483154,1.0048523-3.4199829,1.3479004
				C979.6171265,290.8612061,978.1895752,291.0310059,976.6060791,291.0310059z M975.7536621,263.827301
				c-1.9542236,0-3.5343018,0.6860657-4.7366333,2.0547485c-1.2058105,1.3721313-1.9716187,3.2778625-2.3042603,5.7241516
				h13.5863037v-0.5301208c-0.0588989-0.9390259-0.2113647-1.8433838-0.4539185-2.7131042
				c-0.2460327-0.8697205-0.6237183-1.642395-1.1295776-2.3180847c-0.5093994-0.6756897-1.1712036-1.212738-1.9819946-1.6146851
				S976.9282837,263.827301,975.7536621,263.827301z"/>
			<path class="st1" d="M1009.9012451,285.3380127c0.859314,0,1.666687-0.1316833,2.4219971-0.3950195
				c0.7519531-0.2633362,1.4067993-0.6340942,1.9646606-1.1157227c0.5578613-0.4781799,1.0083618-1.0498962,1.3513794-1.7151794
				c0.3395386-0.6652832,0.5301514-1.3894653,0.5717163-2.1725464h6.7186279
				c-0.0588989,1.5245972-0.4331055,2.9625549-1.1295776,4.3139038c-0.6929932,1.3513489-1.625061,2.5294495-2.7858887,3.5377808
				c-1.1642456,1.0048523-2.519043,1.7983398-4.0643921,2.3769836c-1.5454102,0.5751953-3.1982422,0.862793-4.9619141,0.862793
				c-2.4428101,0-4.5737915-0.419281-6.3825073-1.261261c-1.8087158-0.8385315-3.31604-1.9854431-4.5183716-3.4338074
				c-1.2023315-1.4449158-2.0963135-3.1393127-2.6853638-5.0762329c-0.5855713-1.9369507-0.880127-3.9916687-0.880127-6.1607666
				v-1.0291138c0-2.1725464,0.2945557-4.2238159,0.880127-6.1607666c0.5890503-1.9369202,1.4830322-3.6347656,2.6853638-5.0935364
				c1.2023315-1.4553223,2.7061768-2.6056824,4.5045166-3.4476929c1.7983398-0.84198,3.9223633-1.261261,6.3686523-1.261261
				c1.9161377,0,3.6624756,0.2945251,5.2390747,0.880127c1.5731201,0.5855713,2.9244385,1.4102478,4.0471191,2.463623
				c1.1260986,1.0568237,2.0062256,2.3215332,2.6437988,3.7872314c0.6340942,1.4656982,0.9805908,3.0803833,1.0394897,4.8406067
				h-6.7186279c-0.0415649-0.8385315-0.2113647-1.6424255-0.5128174-2.4047241
				c-0.3049316-0.7622986-0.7241821-1.4275818-1.2647095-1.9958191c-0.5371094-0.5682678-1.1885376-1.0152588-1.9508057-1.3513489
				c-0.7623291-0.3326416-1.6216431-0.4989624-2.5814209-0.4989624c-1.4483643,0-2.6403198,0.3014526-3.5793457,0.8974304
				s-1.684021,1.3756104-2.2314453,2.3319397c-0.5474854,0.9598083-0.9251709,2.0547485-1.1296387,3.288269
				c-0.2044067,1.2301025-0.3083496,2.4740295-0.3083496,3.724884v1.0291138c0,1.2889709,0.1039429,2.5467834,0.3083496,3.769928
				c0.2044678,1.2231445,0.5821533,2.3146057,1.1296387,3.2709351c0.5474243,0.9598083,1.2855225,1.7325134,2.2141113,2.3180847
				C1007.2366333,285.046936,1008.4320679,285.3380127,1009.9012451,285.3380127z"/>
			<path class="st1" d="M1049.2705078,290.4454041c-0.1975098-0.3707581-0.3568115-0.810791-0.4851074-1.3201599
				c-0.1281738-0.5093384-0.2390137-1.0568237-0.3360596-1.642395c-0.4711914,0.4885559-0.9943848,0.9494019-1.5731201,1.3790588
				c-0.5751953,0.429657-1.2127686,0.8073425-1.9057617,1.1295776c-0.6929932,0.3222656-1.4483643,0.5751953-2.2591553,0.7622986
				c-0.810791,0.1871338-1.677002,0.2772217-2.5987549,0.2772217c-1.5834961,0-3.0422363-0.2391052-4.3728027-0.7172546
				c-1.3305664-0.4781799-2.467041-1.1434631-3.4165039-1.9958496s-1.6943359-1.8537598-2.2314453-3.0076294
				c-0.5371094-1.1538391-0.807373-2.4081726-0.807373-3.7560425c0-1.7013245,0.3222656-3.2085876,0.9702148-4.5183716
				c0.6445312-1.3132324,1.5834961-2.4081726,2.8170166-3.288269c1.2301025-0.880127,2.7442627-1.5488586,4.5322266-2.0097046
				c1.7913818-0.4608459,3.8288574-0.6895447,6.1192627-0.6895447h4.4906006v-2.0824585
				c0-1.645874-0.4608154-2.9591064-1.3790283-3.9501038c-0.9217529-0.9875183-2.3181152-1.4795532-4.196167-1.4795532
				c-0.842041,0-1.604248,0.1109009-2.2904053,0.3361206c-0.6860352,0.2252197-1.2681885,0.5301514-1.7463379,0.9112854
				c-0.4781494,0.3811646-0.848877,0.8350525-1.1157227,1.3652039c-0.2633057,0.5266724-0.3950195,1.0949402-0.3950195,1.7013245
				h-7.1309814c0-1.2543335,0.3084717-2.460144,0.9251709-3.6243896c0.6168213-1.1642456,1.4899902-2.2002869,2.6264648-3.1115723
				c1.1330566-0.9078369,2.508667-1.6389465,4.1234131-2.1864014c1.614624-0.5474854,3.4165039-0.821228,5.4122314-0.821228
				c1.7810059,0,3.4234619,0.2286987,4.9307861,0.6895447c1.5072021,0.4608459,2.8066406,1.1434631,3.9014893,2.0547485
				c1.0985107,0.9078369,1.9473877,2.044342,2.5537109,3.4026184c0.6064453,1.3617554,0.911377,2.9487305,0.911377,4.7713013
				v14.0852356c0,2.8551636,0.4018555,5.1351318,1.2022705,6.8364258v0.4989624H1049.2705078z M1041.4327393,285.3102722
				c0.824707,0,1.5904541-0.1073914,2.3041992-0.3222351c0.7137451-0.2148132,1.3618164-0.4989624,1.9368896-0.8523865
				c0.5787354-0.3534241,1.0811768-0.7588501,1.5107422-1.216217c0.4332275-0.4608459,0.7727051-0.9251404,1.0291748-1.3963928
				v-5.9840393h-3.8461914c-2.6402588,0-4.6257324,0.4573669-5.9562988,1.3790588
				c-1.3305664,0.9182129-1.9958496,2.2210693-1.9958496,3.9015808c0,0.6445007,0.1074219,1.243927,0.3222656,1.7914124
				c0.2148438,0.5474548,0.5405273,1.0221863,0.9702148,1.4206543c0.4296875,0.401947,0.9528809,0.7172546,1.5695801,0.9389954
				C1039.8942871,285.1959534,1040.6115723,285.3102722,1041.4327393,285.3102722z"/>
		</g>
	</g>
</g>
</svg>
