<svg version="1.1" xmlns="http://www.w3.org/2000/svg" xmlns:xlink="http://www.w3.org/1999/xlink" x="0px" y="0px"
	 width="250px" height="81px" viewBox="0 0 62.5 20.25" xml:space="preserve">
<path fill="#EE2E61" d="M17.021,1.811h0.855v0.443c0.149-0.339,0.421-0.505,0.811-0.505c0.211,0,0.385,0.046,0.523,0.142
	c0.139,0.093,0.226,0.215,0.265,0.363c0.038,0.146,0.059,0.371,0.059,0.673v2.119h-0.905V2.927c0-0.219-0.027-0.353-0.08-0.405
	c-0.056-0.05-0.135-0.075-0.227-0.075c-0.162,0-0.27,0.048-0.319,0.148c-0.054,0.1-0.078,0.284-0.078,0.558v1.894h-0.903V1.811z"/>
<path fill="#FFFEFE" d="M18.073,9.686h1.861v4.5c0,0.454,0.041,0.757,0.121,0.909c0.078,0.154,0.25,0.229,0.515,0.229
	c0.241,0,0.424-0.063,0.551-0.189c0.124-0.121,0.2-0.297,0.227-0.514c0.027-0.224,0.04-0.672,0.04-1.359V9.686h1.862v7.006h-1.749
	v-0.958c-0.268,0.476-0.528,0.778-0.789,0.91c-0.263,0.127-0.572,0.193-0.931,0.193c-0.476,0-0.847-0.106-1.101-0.313
	c-0.255-0.209-0.419-0.471-0.493-0.79c-0.075-0.318-0.114-0.815-0.114-1.492V9.686z"/>
<path fill="#FFFEFE" d="M27.358,11.913l-1.854-0.182c0.091-0.702,0.389-1.242,0.902-1.623c0.509-0.38,1.153-0.567,1.931-0.567
	c0.656,0,1.183,0.127,1.579,0.377c0.398,0.254,0.651,0.544,0.752,0.879c0.104,0.331,0.157,0.848,0.157,1.546v2.795
	c0,0.87,0.04,1.386,0.116,1.554h-1.816c-0.063-0.189-0.093-0.549-0.093-1.077c-0.436,0.816-1.07,1.223-1.92,1.223
	c-0.544,0-0.988-0.165-1.33-0.489c-0.342-0.328-0.511-0.802-0.511-1.426c0-0.782,0.257-1.387,0.775-1.813
	c0.517-0.43,1.457-0.684,2.822-0.767V12.08c0-0.469-0.045-0.793-0.141-0.973s-0.276-0.269-0.55-0.269
	C27.683,10.839,27.408,11.194,27.358,11.913z M28.869,13.346c-0.566,0.067-0.974,0.19-1.217,0.379
	c-0.243,0.186-0.363,0.501-0.363,0.944c0,0.588,0.218,0.884,0.651,0.884c0.233,0,0.449-0.131,0.641-0.398
	c0.193-0.266,0.288-0.751,0.288-1.46V13.346z"/>
<path fill="#FFFEFE" d="M32.799,9.686h1.678v1.692c0.3-1.188,0.838-1.78,1.613-1.78c0.093,0,0.201,0.01,0.323,0.032v1.907
	c-0.141-0.018-0.246-0.026-0.316-0.026c-0.928,0-1.391,0.721-1.391,2.163v3.018h-1.907V9.686z"/>
<path fill="#FFFEFE" d="M37.695,9.686h1.852v0.957c0.323-0.73,0.909-1.097,1.754-1.097c0.458,0,0.838,0.105,1.135,0.31
	c0.3,0.205,0.488,0.47,0.572,0.787c0.085,0.318,0.125,0.805,0.125,1.455v4.594h-1.956v-4.594c0-0.472-0.061-0.761-0.18-0.872
	c-0.121-0.11-0.284-0.166-0.486-0.166c-0.351,0-0.582,0.107-0.694,0.323c-0.11,0.214-0.164,0.615-0.164,1.201v4.107h-1.957V9.686z"
	/>
<path fill="#FFFEFE" d="M44.913,9.686h1.957v4.5c0,0.454,0.039,0.757,0.124,0.909c0.083,0.154,0.264,0.229,0.54,0.229
	c0.254,0,0.447-0.063,0.58-0.189c0.131-0.121,0.211-0.297,0.239-0.514c0.028-0.224,0.041-0.672,0.041-1.359V9.686h1.954v7.006
	h-1.835v-0.958c-0.278,0.476-0.554,0.778-0.83,0.91c-0.272,0.127-0.6,0.193-0.976,0.193c-0.504,0-0.889-0.106-1.156-0.313
	c-0.269-0.209-0.441-0.471-0.52-0.79c-0.08-0.318-0.119-0.815-0.119-1.492V9.686z"/>
<path fill="#FFFEFE" d="M52.622,7.907l1.895-0.433v2.211h1.289v1.54h-1.289v2.573c0,0.476,0.01,0.785,0.031,0.926
	c0.021,0.14,0.09,0.261,0.207,0.354c0.119,0.094,0.318,0.142,0.594,0.142c0.147,0,0.333-0.005,0.557-0.014v1.485
	c-0.438,0.095-0.832,0.146-1.193,0.146c-0.592,0-1.047-0.115-1.361-0.341c-0.313-0.225-0.514-0.513-0.604-0.854
	c-0.087-0.343-0.129-0.886-0.129-1.63v-2.787h-0.779v-1.54h0.779L52.622,7.907z"/>
<path fill="#FFFEFE" d="M61.837,11.371l-1.394,0.415c-0.185-0.632-0.526-0.947-1.024-0.947c-0.405,0-0.611,0.2-0.611,0.608
	c0,0.232,0.076,0.407,0.23,0.527c0.151,0.12,0.467,0.264,0.941,0.43c0.537,0.191,0.931,0.355,1.181,0.501
	c0.247,0.143,0.459,0.359,0.63,0.646c0.171,0.29,0.257,0.62,0.257,0.997c0,0.646-0.233,1.188-0.701,1.63
	c-0.467,0.439-1.118,0.659-1.954,0.659c-1.576,0-2.45-0.695-2.621-2.088l1.553-0.249c0.128,0.696,0.496,1.046,1.102,1.046
	c0.518,0,0.776-0.218,0.776-0.652c0-0.23-0.077-0.405-0.227-0.525c-0.153-0.121-0.45-0.25-0.89-0.39
	c-0.805-0.259-1.357-0.572-1.656-0.937c-0.301-0.366-0.45-0.785-0.45-1.27c0-0.673,0.237-1.214,0.71-1.622
	c0.474-0.405,1.066-0.609,1.777-0.609C60.711,9.541,61.5,10.15,61.837,11.371z"/>
<path fill="#EE2E61" d="M13.376,16.301c1.938-1.582,2.908-3.883,2.908-6.9c0-2.482-0.712-4.474-2.131-5.959
	c-1.42-1.49-3.261-2.233-5.516-2.233c-2.438,0-4.345,0.788-5.719,2.362c-1.374,1.575-2.06,3.588-2.06,6.034
	c0,2.45,0.707,4.452,2.126,5.995c1.417,1.544,3.291,2.315,5.629,2.315c0.537,0,1.195-0.064,1.75-0.176
	c-0.11-0.491,0.021,0.603,0.714,0.97c0.696,0.367,1.481,0.552,2.369,0.552c0.499,0,1.189-0.044,2.065-0.132l-0.014-0.046
	C14.984,19.186,15.265,17,14.883,17C14.037,17,13.532,16.77,13.376,16.301z M11.771,14.923c-0.314,0.338-0.563,0.524-0.645,0.584
	c-0.027,0.017-0.051,0.032-0.082,0.043c-0.424,0.187-1.066,0.778-1.762,1.622c-0.096,0.12-0.244,0.184-0.396,0.173
	c-0.154-0.003-0.292-0.084-0.377-0.212c-0.127-0.187-1.394-1.109-2.521-1.883l-0.044-0.035c-2.622-2.26-2.557-5.928-2.475-6.997
	c0.002-0.054,0.019-0.099,0.036-0.144C3.338,7.771,3.106,7.215,3.062,6.883C2.789,4.859,5.036,2.986,8.078,2.71
	c3.04-0.276,5.734,1.145,6.006,3.168c0.081,0.582-0.081,1.259-0.387,1.798c0.053,0.071,0.093,0.149,0.101,0.244
	C14.114,11.785,12.672,13.963,11.771,14.923z"/>
</svg>