<svg id="Слой_1" xmlns="http://www.w3.org/2000/svg" viewBox="0 0 660 67"><style>.st1{fill:#ca4c3b}.st2{fill:#fff}</style><path class="st1" d="M586.7 61.8l.2-55.6c0-2.2-1.6-4.2-3.7-4.2h-22c-13 0-25.8 3.1-29.6 17.2L519.2 62c-.6 2 .9 3.8 2.9 3.8h9c2.4 0 4.7-1.8 5.3-4.2l11.3-38.2c1.5-5.5 6-8.9 11.8-8.9H570l-.1 47.2c0 2.4 1.9 4.2 4.2 4.2h8.5c2.2.2 4.1-1.7 4.1-4.1M42.5 37.3c4.7 0 7.1 3.1 7.1 7.7s-2.4 7.7-7.1 7.6L17 52.5V37.2l25.5.1zm-1.6-24.6c3.7 0 6.2 2.3 6.2 6.5 0 4.1-2.5 6.4-6.2 6.4l-23.8-.1V12.6l23.8.1zM.2 60.3c0 2.3 1.8 4.2 4.2 4.2l38.3.1c12.5 0 23.7-6.4 23.7-19.1 0-6-2.5-11.6-8.5-14.8 4.5-3.6 6-7.2 6.1-11.8C64 5.7 52.2.7 40.8.7L4.6.6C2.2.6.4 2.5.4 4.8L.2 60.3zM112.5 64.9h18.6c2.4 0 4.2-1.9 4.2-4.2v-4.3c0-2.3-1.8-4.1-4.1-4.1h-25.6c-2.3 0-4.1 1.8-4.1 4.1v4.3c0 2.3 1.8 4.2 4.2 4.2h6.8zM176.8 50.8h7c17 .1 26.9-7.6 27-24.8S200.9 1.1 184 1.1h-8.8c-2.4 0-4.2 1.9-4.2 4.2v4.3c0 2.3 1.8 4.1 4.1 4.1h3.8c8.8 0 15.2 1.9 15.2 12.3 0 9.8-5.7 12-13.6 12.2H175c-2.3 0-4.1 1.8-4.1 4.1v4.3c0 2.3 1.8 4.2 4.2 4.2h1.7z"/><path class="st2" d="M145.7 17.8v2.9l-.1 24.7v15.5c0 2.3 1.9 4.2 4.2 4.2h8.4c2.4 0 4.2-1.9 4.2-4.2V45.5l.1-24.7V5.3c0-2.3-1.8-4.2-4.2-4.2h-8.4c-2.3 0-4.2 1.9-4.2 4.2v12.5zM131.5.9L80.1.8c-2.3 0-4.2 1.8-4.2 4.1l-.2 55.6c0 2.4 1.8 4.3 4.2 4.3H88.2c2.4 0 4.2-1.9 4.2-4.3V39.1l33.4.1c2.3 0 4.2-1.9 4.2-4.2v-4.2c0-2.3-1.9-4.2-4.2-4.2l-33.4-.1v-13l38.8.1c2.3 0 4.2-1.8 4.2-4.2V5.2c.3-2.4-1.6-4.2-3.9-4.3M220.1 1.2c-2.4 0-4.2 1.8-4.2 4.2v4.2c0 2.4 1.8 4.2 4.2 4.2l17.7.1-.1 47.3c0 2.3 1.9 4.1 4.2 4.1h8.4c2.3 0 4.2-1.8 4.2-4.1l.1-47.3 17.7.1c2.4 0 4.2-1.8 4.2-4.2V5.6c0-2.4-1.8-4.2-4.2-4.2l-52.2-.2z"/><path class="st1" d="M346 65.6c2.3 0 4.2-1.9 4.2-4.2l.2-55.5c0-2.3-1.8-4.2-4.1-4.2h-13.1c-2.2 0-4.7 2.1-6.1 4.2l-25.4 35.4.1-35.6c0-2.3-1.9-4.1-4.2-4.1h-7.8c-2.4 0-4.2 1.8-4.2 4.2l-.2 55.5c0 2.3 1.8 4.2 4.2 4.2h8c2.5 0 5.7-2.2 8-5.7L332.9 22c.6-.8 1-1.5 1.4-1.9l-.3 41.2c0 2.3 1.9 4.2 4.2 4.2l7.8.1zM373.8 65.6c2.3 0 4.2-1.8 4.2-4.1l.1-21.6h9.6c5.7 0 9.1 3.8 12.5 9.2l7.8 12.4c1.5 2.4 4.6 4.2 6.8 4.2H425c2.4 0 3-1.8 1.6-4.2l-11.1-17.7c-2.5-3.9-7.1-9.5-11.5-10.4 6.2-1.4 9.2-5.7 11.5-9.8L425 6.1c1.4-2.5.9-4.3-1.4-4.3h-10.3c-2.3 0-4.7 1.4-6.4 4.3l-6.7 12.3c-3.6 6.4-7.3 9-12.5 9h-9.6l.1-21.4c0-2.4-1.9-4.3-4.2-4.3h-8.4c-2.3 0-4.2 1.9-4.2 4.3l-.2 55.4c0 2.4 1.9 4.3 4.2 4.3l8.4-.1zM613.6 24.2l.1-17.6c0-2.4-1.9-4.2-4.2-4.2h-8.4c-2.4 0-4.2 1.8-4.2 4.2l-.2 55.4c0 2.3 1.7 4.3 4 4.3l34.8.1c13.3 0 24.3-7.2 24.3-21s-10.9-21.1-24.2-21.2h-22zm22 12.7c5.2 0 7.5 3.2 7.5 8.5s-2.3 8.5-7.5 8.5l-22-.1.1-17 21.9.1z"/><path fill-rule="evenodd" clip-rule="evenodd" fill="#ca4c3b" d="M451.9 50.8l43.5.1v.7-13.2l-43.5-.1z"/><path class="st1" d="M475.7 1.8c-13 0-25.8 3.1-29.6 17.2l-12 42.8c-.6 2 .9 3.8 2.9 3.8h9c2.4 0 4.7-1.8 5.3-4.2l10.9-38.2c1.5-5.5 6-8.9 11.8-8.9l1.7-12.5z"/><path class="st1" d="M470.4 1.7c13 0 25.8 3.3 29.5 17.4L511.6 62c.5 2-.9 3.8-2.9 3.7h-9c-2.4 0-4.6-1.9-5.3-4.2l-10.7-38.2c-1.4-5.5-6-9-11.7-9l-1.6-12.6z"/></svg>